<?xml version="1.0" standalone="no"?><!DOCTYPE svg PUBLIC "-//W3C//DTD SVG 1.1//EN" "http://www.w3.org/Graphics/SVG/1.1/DTD/svg11.dtd"><svg t="1751369668802" class="icon" viewBox="0 0 1024 1024" version="1.1" xmlns="http://www.w3.org/2000/svg" p-id="27101" xmlns:xlink="http://www.w3.org/1999/xlink" width="200" height="200"><path d="M512 512m-512 0a512 512 0 1 0 1024 0 512 512 0 1 0-1024 0Z" fill="#DFE2E4" p-id="27102"></path><path d="M523.008 540.4672c52.736 34.8672 106.752 60.416 230.7584 18.7904l-57.9072 197.7856c-121.7024 49.4592-180.1216 21.504-232.8064-13.6192l59.9552-202.9056z" fill="#F6BB1A" p-id="27103"></path><path d="M430.4896 725.8112l60.7232-205.1072c-52.5824-35.1232-111.36-61.2864-232.704-12.1856l-0.7168 0.256-59.392 202.9568c121.856-49.5616 179.2-20.736 232.0896 14.08z" fill="#388BD2" p-id="27104"></path><path d="M532.992 506.1632c52.5824 35.0208 116.1216 63.7952 232.704 12.544l59.904-203.6224c-121.5488 49.408-180.0192 21.6576-232.704-13.2096l-59.904 204.288z" fill="#79C425" p-id="27105"></path><path d="M501.3504 483.6864a200.4992 200.4992 0 0 0-114.4832-40.96c-40.96 1.6384-81.2544 11.264-118.5792 28.2624l60.0064-204.032c121.7536-49.5104 180.3264-21.504 232.96 13.6192l-59.904 203.2128v-0.1024z" fill="#EA5924" p-id="27106"></path></svg>