  0
SECTION
  2
HEADER
  9
$ANGBASE
  50
0.0
  9
$ANGDIR
  70
1
  9
$MEASUREMENT
  70
1
  0
ENDSEC
  0
SECTION
  2
TABLES
  0
TABLE
  2
LTYPE
  70
4
  0
LTYPE
  5
40F
  2
CONTINUOUS
  70
0
  3
Solid line
  72
65
  73
0
  40
0.0
  0
LTYPE
  5
410
  2
DASHDOT
 70
0
  3
Dash Dot ____ _ ____ _
 72
65
 73
4
 40
2.0
 49
1.25
 49
-0.25
 49
0.25
 49
-0.25
  0
LTYPE
  5
411
  2
DASHED
 70
0
  3
Dashed __ __ __ __ __
 72
65
 73
2
 40
0.75
 49
0.5
 49
-0.25
  0
LTYPE
  5
43B
  2
DOTTED
 70
0
  3
Dotted .  .  .  .
 72
65
 73
2
 40
0.2
 49
0.0
 49
-0.2
  0
ENDTAB
  0
TABLE
  2
STYLE
  70
4
  0
STYLE
  2
KICAD
  70
0
  40
0
  41
1
  42
1
  50
0
  71
0
  3
isocp.shx
  0
STYLE
  2
KICADB
  70
0
  40
0
  41
1
  42
1
  50
0
  71
0
  3
isocp.shx
  0
STYLE
  2
KICADI
  70
0
  40
0
  41
1
  42
1
  50
15
  71
0
  3
isocp.shx
  0
STYLE
  2
KICADBI
  70
0
  40
0
  41
1
  42
1
  50
15
  71
0
  3
isocp.shx
  0
ENDTAB
  0
TABLE
  2
LAYER
  70
1
  0
LAYER
  2
BLACK
  70
0
  62
7
  6
CONTINUOUS
  0
ENDTAB
  0
ENDSEC
  0
SECTION
  2
ENTITIES
0
CIRCLE
8
BLACK
10
182.5999999999999943
20
-106.7999999999999972
40
2.3500000000000001
0
CIRCLE
8
BLACK
10
182.5999999999999943
20
-122.7999999999999972
40
2.3500000000000001
0
LINE
8
BLACK
6
CONTINUOUS
10
177.2428569999999866
20
-116.208556999999999
11
177.2428569999999866
21
-115.3085569999999933
0
LINE
8
BLACK
6
CONTINUOUS
10
177.6714279999999917
20
-116.208556999999999
11
177.6714279999999917
21
-115.3085569999999933
0
LINE
8
BLACK
6
CONTINUOUS
10
177.6714279999999917
20
-115.3085569999999933
11
178.1857139999999902
21
-116.208556999999999
0
LINE
8
BLACK
6
CONTINUOUS
10
178.1857139999999902
20
-116.208556999999999
11
178.1857139999999902
21
-115.3085569999999933
0
LINE
8
BLACK
6
CONTINUOUS
10
178.5714279999999974
20
-115.9514139999999998
11
179.
21
-115.9514139999999998
0
LINE
8
BLACK
6
CONTINUOUS
10
178.4857140000000015
20
-116.208556999999999
11
178.7857139999999845
21
-115.3085569999999933
0
LINE
8
BLACK
6
CONTINUOUS
10
178.7857139999999845
20
-115.3085569999999933
11
179.0857139999999958
21
-116.208556999999999
0
LINE
8
BLACK
6
CONTINUOUS
10
194.757142999999985
20
-115.6638549999999981
11
194.9095240000000047
21
-115.6638549999999981
0
LINE
8
BLACK
6
CONTINUOUS
10
194.9095240000000047
20
-115.6638549999999981
11
194.9857140000000015
21
-115.7019499999999965
0
LINE
8
BLACK
6
CONTINUOUS
10
194.9857140000000015
20
-115.7019499999999965
11
195.0619049999999959
21
-115.7781399999999934
0
LINE
8
BLACK
6
CONTINUOUS
10
195.0619049999999959
20
-115.7781399999999934
11
195.0999999999999943
21
-115.9305209999999988
0
LINE
8
BLACK
6
CONTINUOUS
10
195.0999999999999943
20
-115.9305209999999988
11
195.0999999999999943
21
-116.197187999999997
0
LINE
8
BLACK
6
CONTINUOUS
10
195.0999999999999943
20
-116.197187999999997
11
195.0619049999999959
21
-116.3495689999999883
0
LINE
8
BLACK
6
CONTINUOUS
10
195.0619049999999959
20
-116.3495689999999883
11
194.9857140000000015
21
-116.4257599999999968
0
LINE
8
BLACK
6
CONTINUOUS
10
194.9857140000000015
20
-116.4257599999999968
11
194.9095240000000047
21
-116.4638549999999952
0
LINE
8
BLACK
6
CONTINUOUS
10
194.9095240000000047
20
-116.4638549999999952
11
194.757142999999985
21
-116.4638549999999952
0
LINE
8
BLACK
6
CONTINUOUS
10
194.757142999999985
20
-116.4638549999999952
11
194.6809519999999907
21
-116.4257599999999968
0
LINE
8
BLACK
6
CONTINUOUS
10
194.6809519999999907
20
-116.4257599999999968
11
194.6047619999999938
21
-116.3495689999999883
0
LINE
8
BLACK
6
CONTINUOUS
10
194.6047619999999938
20
-116.3495689999999883
11
194.5666659999999979
21
-116.197187999999997
0
LINE
8
BLACK
6
CONTINUOUS
10
194.5666659999999979
20
-116.197187999999997
11
194.5666659999999979
21
-115.9305209999999988
0
LINE
8
BLACK
6
CONTINUOUS
10
194.5666659999999979
20
-115.9305209999999988
11
194.6047619999999938
21
-115.7781399999999934
0
LINE
8
BLACK
6
CONTINUOUS
10
194.6047619999999938
20
-115.7781399999999934
11
194.6809519999999907
21
-115.7019499999999965
0
LINE
8
BLACK
6
CONTINUOUS
10
194.6809519999999907
20
-115.7019499999999965
11
194.757142999999985
21
-115.6638549999999981
0
LINE
8
BLACK
6
CONTINUOUS
10
195.4428570000000036
20
-115.6638549999999981
11
195.4428570000000036
21
-116.3114739999999898
0
LINE
8
BLACK
6
CONTINUOUS
10
195.4428570000000036
20
-116.3114739999999898
11
195.480952000000002
21
-116.3876640000000009
0
LINE
8
BLACK
6
CONTINUOUS
10
195.480952000000002
20
-116.3876640000000009
11
195.5190470000000005
21
-116.4257599999999968
0
LINE
8
BLACK
6
CONTINUOUS
10
195.5190470000000005
20
-116.4257599999999968
11
195.5952379999999948
21
-116.4638549999999952
0
LINE
8
BLACK
6
CONTINUOUS
10
195.5952379999999948
20
-116.4638549999999952
11
195.747618999999986
21
-116.4638549999999952
0
LINE
8
BLACK
6
CONTINUOUS
10
195.747618999999986
20
-116.4638549999999952
11
195.8238089999999829
21
-116.4257599999999968
0
LINE
8
BLACK
6
CONTINUOUS
10
195.8238089999999829
20
-116.4257599999999968
11
195.8619039999999814
21
-116.3876640000000009
0
LINE
8
BLACK
6
CONTINUOUS
10
195.8619039999999814
20
-116.3876640000000009
11
195.8999999999999773
21
-116.3114739999999898
0
LINE
8
BLACK
6
CONTINUOUS
10
195.8999999999999773
20
-116.3114739999999898
11
195.8999999999999773
21
-115.6638549999999981
0
LINE
8
BLACK
6
CONTINUOUS
10
196.1666659999999922
20
-115.6638549999999981
11
196.6238089999999943
21
-115.6638549999999981
0
LINE
8
BLACK
6
CONTINUOUS
10
196.3952369999999803
20
-116.4638549999999952
11
196.3952369999999803
21
-115.6638549999999981
0
LINE
8
BLACK
6
CONTINUOUS
10
196.8523799999999824
20
-116.2352829999999955
11
197.2333329999999876
21
-116.2352829999999955
0
LINE
8
BLACK
6
CONTINUOUS
10
196.7761899999999855
20
-116.4638549999999952
11
197.0428569999999979
21
-115.6638549999999981
0
LINE
8
BLACK
6
CONTINUOUS
10
197.0428569999999979
20
-115.6638549999999981
11
197.3095229999999844
21
-116.4638549999999952
0
LINE
8
BLACK
6
CONTINUOUS
10
170.9285710000000051
20
-104.7068999999999903
11
172.0714289999999949
21
-104.7068999999999903
0
LINE
8
BLACK
6
CONTINUOUS
10
171.5
20
-105.2783280000000019
11
171.5
21
-104.1354709999999955
0
LINE
8
BLACK
6
CONTINUOUS
10
178.3880949999999928
20
-111.2524209999999982
11
178.2833329999999989
21
-111.2000400000000013
0
LINE
8
BLACK
6
CONTINUOUS
10
178.2833329999999989
20
-111.2000400000000013
11
178.1261899999999798
21
-111.2000400000000013
0
LINE
8
BLACK
6
CONTINUOUS
10
178.1261899999999798
20
-111.2000400000000013
11
177.9690469999999891
21
-111.2524209999999982
0
LINE
8
BLACK
6
CONTINUOUS
10
177.9690469999999891
20
-111.2524209999999982
11
177.8642849999999953
21
-111.357182999999992
0
LINE
8
BLACK
6
CONTINUOUS
10
177.8642849999999953
20
-111.357182999999992
11
177.8119039999999984
21
-111.4619450000000001
0
LINE
8
BLACK
6
CONTINUOUS
10
177.8119039999999984
20
-111.4619450000000001
11
177.7595230000000015
21
-111.6714690000000019
0
LINE
8
BLACK
6
CONTINUOUS
10
177.7595230000000015
20
-111.6714690000000019
11
177.7595230000000015
21
-111.8286119999999926
0
LINE
8
BLACK
6
CONTINUOUS
10
177.7595230000000015
20
-111.8286119999999926
11
177.8119039999999984
21
-112.0381359999999944
0
LINE
8
BLACK
6
CONTINUOUS
10
177.8119039999999984
20
-112.0381359999999944
11
177.8642849999999953
21
-112.1428979999999882
0
LINE
8
BLACK
6
CONTINUOUS
10
177.8642849999999953
20
-112.1428979999999882
11
177.9690469999999891
21
-112.2476599999999962
0
LINE
8
BLACK
6
CONTINUOUS
10
177.9690469999999891
20
-112.2476599999999962
11
178.1261899999999798
21
-112.3000399999999956
0
LINE
8
BLACK
6
CONTINUOUS
10
178.1261899999999798
20
-112.3000399999999956
11
178.230952000000002
21
-112.3000399999999956
0
LINE
8
BLACK
6
CONTINUOUS
10
178.230952000000002
20
-112.3000399999999956
11
178.3880949999999928
21
-112.2476599999999962
0
LINE
8
BLACK
6
CONTINUOUS
10
178.3880949999999928
20
-112.2476599999999962
11
178.4404759999999897
21
-112.1952789999999993
0
LINE
8
BLACK
6
CONTINUOUS
10
178.4404759999999897
20
-112.1952789999999993
11
178.4404759999999897
21
-111.8286119999999926
0
LINE
8
BLACK
6
CONTINUOUS
10
178.4404759999999897
20
-111.8286119999999926
11
178.230952000000002
21
-111.8286119999999926
0
LINE
8
BLACK
6
CONTINUOUS
10
174.9238090000000057
20
-105.5548189999999948
11
174.9238090000000057
21
-104.5548189999999948
0
LINE
8
BLACK
6
CONTINUOUS
10
174.9238090000000057
20
-104.5548189999999948
11
175.304760999999985
21
-104.5548189999999948
0
LINE
8
BLACK
6
CONTINUOUS
10
175.304760999999985
20
-104.5548189999999948
11
175.3999989999999798
21
-104.6024379999999923
0
LINE
8
BLACK
6
CONTINUOUS
10
175.3999989999999798
20
-104.6024379999999923
11
175.4476180000000056
21
-104.6500569999999897
0
LINE
8
BLACK
6
CONTINUOUS
10
175.4476180000000056
20
-104.6500569999999897
11
175.495237000000003
21
-104.7452949999999987
0
LINE
8
BLACK
6
CONTINUOUS
10
175.495237000000003
20
-104.7452949999999987
11
175.495237000000003
21
-104.8881519999999909
0
LINE
8
BLACK
6
CONTINUOUS
10
175.495237000000003
20
-104.8881519999999909
11
175.4476180000000056
21
-104.98339
0
LINE
8
BLACK
6
CONTINUOUS
10
175.4476180000000056
20
-104.98339
11
175.3999989999999798
21
-105.0310089999999974
0
LINE
8
BLACK
6
CONTINUOUS
10
175.3999989999999798
20
-105.0310089999999974
11
175.304760999999985
21
-105.0786279999999948
0
LINE
8
BLACK
6
CONTINUOUS
10
175.304760999999985
20
-105.0786279999999948
11
174.9238090000000057
21
-105.0786279999999948
0
LINE
8
BLACK
6
CONTINUOUS
10
176.0666659999999979
20
-105.5548189999999948
11
175.9714280000000031
21
-105.5071999999999974
0
LINE
8
BLACK
6
CONTINUOUS
10
175.9714280000000031
20
-105.5071999999999974
11
175.9238090000000057
21
-105.4595799999999883
0
LINE
8
BLACK
6
CONTINUOUS
10
175.9238090000000057
20
-105.4595799999999883
11
175.8761899999999798
21
-105.3643419999999935
0
LINE
8
BLACK
6
CONTINUOUS
10
175.8761899999999798
20
-105.3643419999999935
11
175.8761899999999798
21
-105.0786279999999948
0
LINE
8
BLACK
6
CONTINUOUS
10
175.8761899999999798
20
-105.0786279999999948
11
175.9238090000000057
21
-104.98339
0
LINE
8
BLACK
6
CONTINUOUS
10
175.9238090000000057
20
-104.98339
11
175.9714280000000031
21
-104.9357709999999884
0
LINE
8
BLACK
6
CONTINUOUS
10
175.9714280000000031
20
-104.9357709999999884
11
176.0666659999999979
21
-104.8881519999999909
0
LINE
8
BLACK
6
CONTINUOUS
10
176.0666659999999979
20
-104.8881519999999909
11
176.2095229999999901
21
-104.8881519999999909
0
LINE
8
BLACK
6
CONTINUOUS
10
176.2095229999999901
20
-104.8881519999999909
11
176.304760999999985
21
-104.9357709999999884
0
LINE
8
BLACK
6
CONTINUOUS
10
176.304760999999985
20
-104.9357709999999884
11
176.3523799999999824
21
-104.98339
0
LINE
8
BLACK
6
CONTINUOUS
10
176.3523799999999824
20
-104.98339
11
176.3999989999999798
21
-105.0786279999999948
0
LINE
8
BLACK
6
CONTINUOUS
10
176.3999989999999798
20
-105.0786279999999948
11
176.3999989999999798
21
-105.3643419999999935
0
LINE
8
BLACK
6
CONTINUOUS
10
176.3999989999999798
20
-105.3643419999999935
11
176.3523799999999824
21
-105.4595799999999883
0
LINE
8
BLACK
6
CONTINUOUS
10
176.3523799999999824
20
-105.4595799999999883
11
176.304760999999985
21
-105.5071999999999974
0
LINE
8
BLACK
6
CONTINUOUS
10
176.304760999999985
20
-105.5071999999999974
11
176.2095229999999901
21
-105.5548189999999948
0
LINE
8
BLACK
6
CONTINUOUS
10
176.2095229999999901
20
-105.5548189999999948
11
176.0666659999999979
21
-105.5548189999999948
0
LINE
8
BLACK
6
CONTINUOUS
10
176.7333329999999876
20
-104.8881519999999909
11
176.9238090000000057
21
-105.5548189999999948
0
LINE
8
BLACK
6
CONTINUOUS
10
176.9238090000000057
20
-105.5548189999999948
11
177.1142849999999953
21
-105.0786279999999948
0
LINE
8
BLACK
6
CONTINUOUS
10
177.1142849999999953
20
-105.0786279999999948
11
177.304760999999985
21
-105.5548189999999948
0
LINE
8
BLACK
6
CONTINUOUS
10
177.304760999999985
20
-105.5548189999999948
11
177.495237000000003
21
-104.8881519999999909
0
LINE
8
BLACK
6
CONTINUOUS
10
178.2571419999999875
20
-105.5071999999999974
11
178.1619039999999927
21
-105.5548189999999948
0
LINE
8
BLACK
6
CONTINUOUS
10
178.1619039999999927
20
-105.5548189999999948
11
177.9714280000000031
21
-105.5548189999999948
0
LINE
8
BLACK
6
CONTINUOUS
10
177.9714280000000031
20
-105.5548189999999948
11
177.8761899999999798
21
-105.5071999999999974
0
LINE
8
BLACK
6
CONTINUOUS
10
177.8761899999999798
20
-105.5071999999999974
11
177.8285709999999824
21
-105.4119609999999909
0
LINE
8
BLACK
6
CONTINUOUS
10
177.8285709999999824
20
-105.4119609999999909
11
177.8285709999999824
21
-105.0310089999999974
0
LINE
8
BLACK
6
CONTINUOUS
10
177.8285709999999824
20
-105.0310089999999974
11
177.8761899999999798
21
-104.9357709999999884
0
LINE
8
BLACK
6
CONTINUOUS
10
177.8761899999999798
20
-104.9357709999999884
11
177.9714280000000031
21
-104.8881519999999909
0
LINE
8
BLACK
6
CONTINUOUS
10
177.9714280000000031
20
-104.8881519999999909
11
178.1619039999999927
21
-104.8881519999999909
0
LINE
8
BLACK
6
CONTINUOUS
10
178.1619039999999927
20
-104.8881519999999909
11
178.2571419999999875
21
-104.9357709999999884
0
LINE
8
BLACK
6
CONTINUOUS
10
178.2571419999999875
20
-104.9357709999999884
11
178.304760999999985
21
-105.0310089999999974
0
LINE
8
BLACK
6
CONTINUOUS
10
178.304760999999985
20
-105.0310089999999974
11
178.304760999999985
21
-105.1262469999999922
0
LINE
8
BLACK
6
CONTINUOUS
10
178.304760999999985
20
-105.1262469999999922
11
177.8285709999999824
21
-105.2214850000000013
0
LINE
8
BLACK
6
CONTINUOUS
10
178.7333329999999876
20
-105.5548189999999948
11
178.7333329999999876
21
-104.8881519999999909
0
LINE
8
BLACK
6
CONTINUOUS
10
178.7333329999999876
20
-105.0786279999999948
11
178.780951999999985
21
-104.98339
0
LINE
8
BLACK
6
CONTINUOUS
10
178.780951999999985
20
-104.98339
11
178.8285709999999824
21
-104.9357709999999884
0
LINE
8
BLACK
6
CONTINUOUS
10
178.8285709999999824
20
-104.9357709999999884
11
178.9238090000000057
21
-104.8881519999999909
0
LINE
8
BLACK
6
CONTINUOUS
10
178.9238090000000057
20
-104.8881519999999909
11
179.0190470000000005
21
-104.8881519999999909
0
LINE
8
BLACK
6
CONTINUOUS
10
177.1785710000000051
20
-118.208556999999999
11
177.1785710000000051
21
-117.3085569999999933
0
LINE
8
BLACK
6
CONTINUOUS
10
177.6071419999999819
20
-118.208556999999999
11
177.6071419999999819
21
-117.3085569999999933
0
LINE
8
BLACK
6
CONTINUOUS
10
177.6071419999999819
20
-117.3085569999999933
11
178.1214279999999803
21
-118.208556999999999
0
LINE
8
BLACK
6
CONTINUOUS
10
178.1214279999999803
20
-118.208556999999999
11
178.1214279999999803
21
-117.3085569999999933
0
LINE
8
BLACK
6
CONTINUOUS
10
178.8499989999999968
20
-117.7371279999999985
11
178.9785709999999881
21
-117.7799849999999964
0
LINE
8
BLACK
6
CONTINUOUS
10
178.9785709999999881
20
-117.7799849999999964
11
179.021427999999986
21
-117.8228419999999943
0
LINE
8
BLACK
6
CONTINUOUS
10
179.021427999999986
20
-117.8228419999999943
11
179.0642849999999839
21
-117.9085569999999876
0
LINE
8
BLACK
6
CONTINUOUS
10
179.0642849999999839
20
-117.9085569999999876
11
179.0642849999999839
21
-118.0371279999999956
0
LINE
8
BLACK
6
CONTINUOUS
10
179.0642849999999839
20
-118.0371279999999956
11
179.021427999999986
21
-118.1228419999999915
0
LINE
8
BLACK
6
CONTINUOUS
10
179.021427999999986
20
-118.1228419999999915
11
178.9785709999999881
21
-118.1657000000000011
0
LINE
8
BLACK
6
CONTINUOUS
10
178.9785709999999881
20
-118.1657000000000011
11
178.8928559999999948
21
-118.208556999999999
0
LINE
8
BLACK
6
CONTINUOUS
10
178.8928559999999948
20
-118.208556999999999
11
178.5499989999999855
21
-118.208556999999999
0
LINE
8
BLACK
6
CONTINUOUS
10
178.5499989999999855
20
-118.208556999999999
11
178.5499989999999855
21
-117.3085569999999933
0
LINE
8
BLACK
6
CONTINUOUS
10
178.5499989999999855
20
-117.3085569999999933
11
178.8499989999999968
21
-117.3085569999999933
0
LINE
8
BLACK
6
CONTINUOUS
10
178.8499989999999968
20
-117.3085569999999933
11
178.9357139999999902
21
-117.3514139999999912
0
LINE
8
BLACK
6
CONTINUOUS
10
178.9357139999999902
20
-117.3514139999999912
11
178.9785709999999881
21
-117.3942709999999892
0
LINE
8
BLACK
6
CONTINUOUS
10
178.9785709999999881
20
-117.3942709999999892
11
179.021427999999986
21
-117.4799849999999992
0
LINE
8
BLACK
6
CONTINUOUS
10
179.021427999999986
20
-117.4799849999999992
11
179.021427999999986
21
-117.5656999999999925
0
LINE
8
BLACK
6
CONTINUOUS
10
179.021427999999986
20
-117.5656999999999925
11
178.9785709999999881
21
-117.6514139999999884
0
LINE
8
BLACK
6
CONTINUOUS
10
178.9785709999999881
20
-117.6514139999999884
11
178.9357139999999902
21
-117.6942710000000005
0
LINE
8
BLACK
6
CONTINUOUS
10
178.9357139999999902
20
-117.6942710000000005
11
178.8499989999999968
21
-117.7371279999999985
0
LINE
8
BLACK
6
CONTINUOUS
10
178.8499989999999968
20
-117.7371279999999985
11
178.5499989999999855
21
-117.7371279999999985
0
LINE
8
BLACK
6
CONTINUOUS
10
177.7333329999999876
20
-113.2000400000000013
11
178.0999999999999943
21
-114.3000399999999956
0
LINE
8
BLACK
6
CONTINUOUS
10
178.0999999999999943
20
-114.3000399999999956
11
178.4666670000000011
21
-113.2000400000000013
0
LINE
8
BLACK
6
CONTINUOUS
10
194.7999999999999829
20
-106.4638549999999952
11
194.9523810000000026
21
-106.4638549999999952
0
LINE
8
BLACK
6
CONTINUOUS
10
194.9523810000000026
20
-106.4638549999999952
11
195.0285709999999995
21
-106.5019499999999937
0
LINE
8
BLACK
6
CONTINUOUS
10
195.0285709999999995
20
-106.5019499999999937
11
195.1047619999999938
21
-106.5781399999999906
0
LINE
8
BLACK
6
CONTINUOUS
10
195.1047619999999938
20
-106.5781399999999906
11
195.1428569999999922
21
-106.730520999999996
0
LINE
8
BLACK
6
CONTINUOUS
10
195.1428569999999922
20
-106.730520999999996
11
195.1428569999999922
21
-106.9971879999999942
0
LINE
8
BLACK
6
CONTINUOUS
10
195.1428569999999922
20
-106.9971879999999942
11
195.1047619999999938
21
-107.1495689999999996
0
LINE
8
BLACK
6
CONTINUOUS
10
195.1047619999999938
20
-107.1495689999999996
11
195.0285709999999995
21
-107.225759999999994
0
LINE
8
BLACK
6
CONTINUOUS
10
195.0285709999999995
20
-107.225759999999994
11
194.9523810000000026
21
-107.2638549999999924
0
LINE
8
BLACK
6
CONTINUOUS
10
194.9523810000000026
20
-107.2638549999999924
11
194.7999999999999829
21
-107.2638549999999924
0
LINE
8
BLACK
6
CONTINUOUS
10
194.7999999999999829
20
-107.2638549999999924
11
194.7238089999999886
21
-107.225759999999994
0
LINE
8
BLACK
6
CONTINUOUS
10
194.7238089999999886
20
-107.225759999999994
11
194.6476189999999917
21
-107.1495689999999996
0
LINE
8
BLACK
6
CONTINUOUS
10
194.6476189999999917
20
-107.1495689999999996
11
194.6095229999999958
21
-106.9971879999999942
0
LINE
8
BLACK
6
CONTINUOUS
10
194.6095229999999958
20
-106.9971879999999942
11
194.6095229999999958
21
-106.730520999999996
0
LINE
8
BLACK
6
CONTINUOUS
10
194.6095229999999958
20
-106.730520999999996
11
194.6476189999999917
21
-106.5781399999999906
0
LINE
8
BLACK
6
CONTINUOUS
10
194.6476189999999917
20
-106.5781399999999906
11
194.7238089999999886
21
-106.5019499999999937
0
LINE
8
BLACK
6
CONTINUOUS
10
194.7238089999999886
20
-106.5019499999999937
11
194.7999999999999829
21
-106.4638549999999952
0
LINE
8
BLACK
6
CONTINUOUS
10
195.4857140000000015
20
-106.4638549999999952
11
195.4857140000000015
21
-107.1114740000000012
0
LINE
8
BLACK
6
CONTINUOUS
10
195.4857140000000015
20
-107.1114740000000012
11
195.523809
21
-107.1876639999999981
0
LINE
8
BLACK
6
CONTINUOUS
10
195.523809
20
-107.1876639999999981
11
195.5619039999999984
21
-107.225759999999994
0
LINE
8
BLACK
6
CONTINUOUS
10
195.5619039999999984
20
-107.225759999999994
11
195.6380949999999928
21
-107.2638549999999924
0
LINE
8
BLACK
6
CONTINUOUS
10
195.6380949999999928
20
-107.2638549999999924
11
195.790475999999984
21
-107.2638549999999924
0
LINE
8
BLACK
6
CONTINUOUS
10
195.790475999999984
20
-107.2638549999999924
11
195.8666659999999808
21
-107.225759999999994
0
LINE
8
BLACK
6
CONTINUOUS
10
195.8666659999999808
20
-107.225759999999994
11
195.9047609999999793
21
-107.1876639999999981
0
LINE
8
BLACK
6
CONTINUOUS
10
195.9047609999999793
20
-107.1876639999999981
11
195.9428570000000036
21
-107.1114740000000012
0
LINE
8
BLACK
6
CONTINUOUS
10
195.9428570000000036
20
-107.1114740000000012
11
195.9428570000000036
21
-106.4638549999999952
0
LINE
8
BLACK
6
CONTINUOUS
10
196.2095229999999901
20
-106.4638549999999952
11
196.6666659999999922
21
-106.4638549999999952
0
LINE
8
BLACK
6
CONTINUOUS
10
196.4380939999999782
20
-107.2638549999999924
11
196.4380939999999782
21
-106.4638549999999952
0
LINE
8
BLACK
6
CONTINUOUS
10
197.1999989999999912
20
-106.8448069999999888
11
197.3142849999999839
21
-106.8829020000000014
0
LINE
8
BLACK
6
CONTINUOUS
10
197.3142849999999839
20
-106.8829020000000014
11
197.3523799999999824
21
-106.9209979999999973
0
LINE
8
BLACK
6
CONTINUOUS
10
197.3523799999999824
20
-106.9209979999999973
11
197.3904759999999783
21
-106.9971879999999942
0
LINE
8
BLACK
6
CONTINUOUS
10
197.3904759999999783
20
-106.9971879999999942
11
197.3904759999999783
21
-107.1114740000000012
0
LINE
8
BLACK
6
CONTINUOUS
10
197.3904759999999783
20
-107.1114740000000012
11
197.3523799999999824
21
-107.1876639999999981
0
LINE
8
BLACK
6
CONTINUOUS
10
197.3523799999999824
20
-107.1876639999999981
11
197.3142849999999839
21
-107.225759999999994
0
LINE
8
BLACK
6
CONTINUOUS
10
197.3142849999999839
20
-107.225759999999994
11
197.2380949999999871
21
-107.2638549999999924
0
LINE
8
BLACK
6
CONTINUOUS
10
197.2380949999999871
20
-107.2638549999999924
11
196.9333330000000046
21
-107.2638549999999924
0
LINE
8
BLACK
6
CONTINUOUS
10
196.9333330000000046
20
-107.2638549999999924
11
196.9333330000000046
21
-106.4638549999999952
0
LINE
8
BLACK
6
CONTINUOUS
10
196.9333330000000046
20
-106.4638549999999952
11
197.1999989999999912
21
-106.4638549999999952
0
LINE
8
BLACK
6
CONTINUOUS
10
197.1999989999999912
20
-106.4638549999999952
11
197.2761899999999855
21
-106.5019499999999937
0
LINE
8
BLACK
6
CONTINUOUS
10
197.2761899999999855
20
-106.5019499999999937
11
197.3142849999999839
21
-106.5400449999999921
0
LINE
8
BLACK
6
CONTINUOUS
10
197.3142849999999839
20
-106.5400449999999921
11
197.3523799999999824
21
-106.6162360000000007
0
LINE
8
BLACK
6
CONTINUOUS
10
197.3523799999999824
20
-106.6162360000000007
11
197.3523799999999824
21
-106.6924259999999975
0
LINE
8
BLACK
6
CONTINUOUS
10
197.3523799999999824
20
-106.6924259999999975
11
197.3142849999999839
21
-106.7686169999999919
0
LINE
8
BLACK
6
CONTINUOUS
10
197.3142849999999839
20
-106.7686169999999919
11
197.2761899999999855
21
-106.8067119999999903
0
LINE
8
BLACK
6
CONTINUOUS
10
197.2761899999999855
20
-106.8067119999999903
11
197.1999989999999912
21
-106.8448069999999888
0
LINE
8
BLACK
6
CONTINUOUS
10
197.1999989999999912
20
-106.8448069999999888
11
196.9333330000000046
21
-106.8448069999999888
0
LINE
8
BLACK
6
CONTINUOUS
10
194.757142999999985
20
-112.9638549999999952
11
194.9095240000000047
21
-112.9638549999999952
0
LINE
8
BLACK
6
CONTINUOUS
10
194.9095240000000047
20
-112.9638549999999952
11
194.9857140000000015
21
-113.0019499999999937
0
LINE
8
BLACK
6
CONTINUOUS
10
194.9857140000000015
20
-113.0019499999999937
11
195.0619049999999959
21
-113.0781399999999906
0
LINE
8
BLACK
6
CONTINUOUS
10
195.0619049999999959
20
-113.0781399999999906
11
195.0999999999999943
21
-113.230520999999996
0
LINE
8
BLACK
6
CONTINUOUS
10
195.0999999999999943
20
-113.230520999999996
11
195.0999999999999943
21
-113.4971879999999942
0
LINE
8
BLACK
6
CONTINUOUS
10
195.0999999999999943
20
-113.4971879999999942
11
195.0619049999999959
21
-113.6495689999999996
0
LINE
8
BLACK
6
CONTINUOUS
10
195.0619049999999959
20
-113.6495689999999996
11
194.9857140000000015
21
-113.725759999999994
0
LINE
8
BLACK
6
CONTINUOUS
10
194.9857140000000015
20
-113.725759999999994
11
194.9095240000000047
21
-113.7638549999999924
0
LINE
8
BLACK
6
CONTINUOUS
10
194.9095240000000047
20
-113.7638549999999924
11
194.757142999999985
21
-113.7638549999999924
0
LINE
8
BLACK
6
CONTINUOUS
10
194.757142999999985
20
-113.7638549999999924
11
194.6809519999999907
21
-113.725759999999994
0
LINE
8
BLACK
6
CONTINUOUS
10
194.6809519999999907
20
-113.725759999999994
11
194.6047619999999938
21
-113.6495689999999996
0
LINE
8
BLACK
6
CONTINUOUS
10
194.6047619999999938
20
-113.6495689999999996
11
194.5666659999999979
21
-113.4971879999999942
0
LINE
8
BLACK
6
CONTINUOUS
10
194.5666659999999979
20
-113.4971879999999942
11
194.5666659999999979
21
-113.230520999999996
0
LINE
8
BLACK
6
CONTINUOUS
10
194.5666659999999979
20
-113.230520999999996
11
194.6047619999999938
21
-113.0781399999999906
0
LINE
8
BLACK
6
CONTINUOUS
10
194.6047619999999938
20
-113.0781399999999906
11
194.6809519999999907
21
-113.0019499999999937
0
LINE
8
BLACK
6
CONTINUOUS
10
194.6809519999999907
20
-113.0019499999999937
11
194.757142999999985
21
-112.9638549999999952
0
LINE
8
BLACK
6
CONTINUOUS
10
195.4428570000000036
20
-112.9638549999999952
11
195.4428570000000036
21
-113.6114740000000012
0
LINE
8
BLACK
6
CONTINUOUS
10
195.4428570000000036
20
-113.6114740000000012
11
195.480952000000002
21
-113.6876639999999981
0
LINE
8
BLACK
6
CONTINUOUS
10
195.480952000000002
20
-113.6876639999999981
11
195.5190470000000005
21
-113.725759999999994
0
LINE
8
BLACK
6
CONTINUOUS
10
195.5190470000000005
20
-113.725759999999994
11
195.5952379999999948
21
-113.7638549999999924
0
LINE
8
BLACK
6
CONTINUOUS
10
195.5952379999999948
20
-113.7638549999999924
11
195.747618999999986
21
-113.7638549999999924
0
LINE
8
BLACK
6
CONTINUOUS
10
195.747618999999986
20
-113.7638549999999924
11
195.8238089999999829
21
-113.725759999999994
0
LINE
8
BLACK
6
CONTINUOUS
10
195.8238089999999829
20
-113.725759999999994
11
195.8619039999999814
21
-113.6876639999999981
0
LINE
8
BLACK
6
CONTINUOUS
10
195.8619039999999814
20
-113.6876639999999981
11
195.8999999999999773
21
-113.6114740000000012
0
LINE
8
BLACK
6
CONTINUOUS
10
195.8999999999999773
20
-113.6114740000000012
11
195.8999999999999773
21
-112.9638549999999952
0
LINE
8
BLACK
6
CONTINUOUS
10
196.1666659999999922
20
-112.9638549999999952
11
196.6238089999999943
21
-112.9638549999999952
0
LINE
8
BLACK
6
CONTINUOUS
10
196.3952369999999803
20
-113.7638549999999924
11
196.3952369999999803
21
-112.9638549999999952
0
LINE
8
BLACK
6
CONTINUOUS
10
196.8523799999999824
20
-113.5352829999999926
11
197.2333329999999876
21
-113.5352829999999926
0
LINE
8
BLACK
6
CONTINUOUS
10
196.7761899999999855
20
-113.7638549999999924
11
197.0428569999999979
21
-112.9638549999999952
0
LINE
8
BLACK
6
CONTINUOUS
10
197.0428569999999979
20
-112.9638549999999952
11
197.3095229999999844
21
-113.7638549999999924
0
LINE
8
BLACK
6
CONTINUOUS
10
169.4714280000000031
20
-104.6931000000000012
11
168.3285709999999824
21
-104.6931000000000012
0
LINE
8
BLACK
6
CONTINUOUS
10
194.7999999999999829
20
-120.6638549999999981
11
194.9523810000000026
21
-120.6638549999999981
0
LINE
8
BLACK
6
CONTINUOUS
10
194.9523810000000026
20
-120.6638549999999981
11
195.0285709999999995
21
-120.7019499999999965
0
LINE
8
BLACK
6
CONTINUOUS
10
195.0285709999999995
20
-120.7019499999999965
11
195.1047619999999938
21
-120.7781399999999934
0
LINE
8
BLACK
6
CONTINUOUS
10
195.1047619999999938
20
-120.7781399999999934
11
195.1428569999999922
21
-120.9305209999999988
0
LINE
8
BLACK
6
CONTINUOUS
10
195.1428569999999922
20
-120.9305209999999988
11
195.1428569999999922
21
-121.197187999999997
0
LINE
8
BLACK
6
CONTINUOUS
10
195.1428569999999922
20
-121.197187999999997
11
195.1047619999999938
21
-121.3495689999999883
0
LINE
8
BLACK
6
CONTINUOUS
10
195.1047619999999938
20
-121.3495689999999883
11
195.0285709999999995
21
-121.4257599999999968
0
LINE
8
BLACK
6
CONTINUOUS
10
195.0285709999999995
20
-121.4257599999999968
11
194.9523810000000026
21
-121.4638549999999952
0
LINE
8
BLACK
6
CONTINUOUS
10
194.9523810000000026
20
-121.4638549999999952
11
194.7999999999999829
21
-121.4638549999999952
0
LINE
8
BLACK
6
CONTINUOUS
10
194.7999999999999829
20
-121.4638549999999952
11
194.7238089999999886
21
-121.4257599999999968
0
LINE
8
BLACK
6
CONTINUOUS
10
194.7238089999999886
20
-121.4257599999999968
11
194.6476189999999917
21
-121.3495689999999883
0
LINE
8
BLACK
6
CONTINUOUS
10
194.6476189999999917
20
-121.3495689999999883
11
194.6095229999999958
21
-121.197187999999997
0
LINE
8
BLACK
6
CONTINUOUS
10
194.6095229999999958
20
-121.197187999999997
11
194.6095229999999958
21
-120.9305209999999988
0
LINE
8
BLACK
6
CONTINUOUS
10
194.6095229999999958
20
-120.9305209999999988
11
194.6476189999999917
21
-120.7781399999999934
0
LINE
8
BLACK
6
CONTINUOUS
10
194.6476189999999917
20
-120.7781399999999934
11
194.7238089999999886
21
-120.7019499999999965
0
LINE
8
BLACK
6
CONTINUOUS
10
194.7238089999999886
20
-120.7019499999999965
11
194.7999999999999829
21
-120.6638549999999981
0
LINE
8
BLACK
6
CONTINUOUS
10
195.4857140000000015
20
-120.6638549999999981
11
195.4857140000000015
21
-121.3114739999999898
0
LINE
8
BLACK
6
CONTINUOUS
10
195.4857140000000015
20
-121.3114739999999898
11
195.523809
21
-121.3876640000000009
0
LINE
8
BLACK
6
CONTINUOUS
10
195.523809
20
-121.3876640000000009
11
195.5619039999999984
21
-121.4257599999999968
0
LINE
8
BLACK
6
CONTINUOUS
10
195.5619039999999984
20
-121.4257599999999968
11
195.6380949999999928
21
-121.4638549999999952
0
LINE
8
BLACK
6
CONTINUOUS
10
195.6380949999999928
20
-121.4638549999999952
11
195.790475999999984
21
-121.4638549999999952
0
LINE
8
BLACK
6
CONTINUOUS
10
195.790475999999984
20
-121.4638549999999952
11
195.8666659999999808
21
-121.4257599999999968
0
LINE
8
BLACK
6
CONTINUOUS
10
195.8666659999999808
20
-121.4257599999999968
11
195.9047609999999793
21
-121.3876640000000009
0
LINE
8
BLACK
6
CONTINUOUS
10
195.9047609999999793
20
-121.3876640000000009
11
195.9428570000000036
21
-121.3114739999999898
0
LINE
8
BLACK
6
CONTINUOUS
10
195.9428570000000036
20
-121.3114739999999898
11
195.9428570000000036
21
-120.6638549999999981
0
LINE
8
BLACK
6
CONTINUOUS
10
196.2095229999999901
20
-120.6638549999999981
11
196.6666659999999922
21
-120.6638549999999981
0
LINE
8
BLACK
6
CONTINUOUS
10
196.4380939999999782
20
-121.4638549999999952
11
196.4380939999999782
21
-120.6638549999999981
0
LINE
8
BLACK
6
CONTINUOUS
10
197.1999989999999912
20
-121.0448069999999916
11
197.3142849999999839
21
-121.08290199999999
0
LINE
8
BLACK
6
CONTINUOUS
10
197.3142849999999839
20
-121.08290199999999
11
197.3523799999999824
21
-121.1209980000000002
0
LINE
8
BLACK
6
CONTINUOUS
10
197.3523799999999824
20
-121.1209980000000002
11
197.3904759999999783
21
-121.197187999999997
0
LINE
8
BLACK
6
CONTINUOUS
10
197.3904759999999783
20
-121.197187999999997
11
197.3904759999999783
21
-121.3114739999999898
0
LINE
8
BLACK
6
CONTINUOUS
10
197.3904759999999783
20
-121.3114739999999898
11
197.3523799999999824
21
-121.3876640000000009
0
LINE
8
BLACK
6
CONTINUOUS
10
197.3523799999999824
20
-121.3876640000000009
11
197.3142849999999839
21
-121.4257599999999968
0
LINE
8
BLACK
6
CONTINUOUS
10
197.3142849999999839
20
-121.4257599999999968
11
197.2380949999999871
21
-121.4638549999999952
0
LINE
8
BLACK
6
CONTINUOUS
10
197.2380949999999871
20
-121.4638549999999952
11
196.9333330000000046
21
-121.4638549999999952
0
LINE
8
BLACK
6
CONTINUOUS
10
196.9333330000000046
20
-121.4638549999999952
11
196.9333330000000046
21
-120.6638549999999981
0
LINE
8
BLACK
6
CONTINUOUS
10
196.9333330000000046
20
-120.6638549999999981
11
197.1999989999999912
21
-120.6638549999999981
0
LINE
8
BLACK
6
CONTINUOUS
10
197.1999989999999912
20
-120.6638549999999981
11
197.2761899999999855
21
-120.7019499999999965
0
LINE
8
BLACK
6
CONTINUOUS
10
197.2761899999999855
20
-120.7019499999999965
11
197.3142849999999839
21
-120.740044999999995
0
LINE
8
BLACK
6
CONTINUOUS
10
197.3142849999999839
20
-120.740044999999995
11
197.3523799999999824
21
-120.8162359999999893
0
LINE
8
BLACK
6
CONTINUOUS
10
197.3523799999999824
20
-120.8162359999999893
11
197.3523799999999824
21
-120.8924260000000004
0
LINE
8
BLACK
6
CONTINUOUS
10
197.3523799999999824
20
-120.8924260000000004
11
197.3142849999999839
21
-120.9686169999999947
0
LINE
8
BLACK
6
CONTINUOUS
10
197.3142849999999839
20
-120.9686169999999947
11
197.2761899999999855
21
-121.0067119999999932
0
LINE
8
BLACK
6
CONTINUOUS
10
197.2761899999999855
20
-121.0067119999999932
11
197.1999989999999912
21
-121.0448069999999916
0
LINE
8
BLACK
6
CONTINUOUS
10
197.1999989999999912
20
-121.0448069999999916
11
196.9333330000000046
21
-121.0448069999999916
0
LINE
8
BLACK
6
CONTINUOUS
10
165.604818999999992
20
-116.7047609999999906
11
165.604818999999992
21
-117.276188999999988
0
LINE
8
BLACK
6
CONTINUOUS
10
165.604818999999992
20
-116.9904749999999893
11
164.604818999999992
21
-116.9904749999999893
0
LINE
8
BLACK
6
CONTINUOUS
10
164.604818999999992
20
-116.9904749999999893
11
164.7476759999999842
21
-117.0857129999999984
0
LINE
8
BLACK
6
CONTINUOUS
10
164.7476759999999842
20
-117.0857129999999984
11
164.8429139999999791
21
-117.1809509999999932
0
LINE
8
BLACK
6
CONTINUOUS
10
164.8429139999999791
20
-117.1809509999999932
11
164.8905330000000049
21
-117.276188999999988
0
LINE
8
BLACK
6
CONTINUOUS
10
164.604818999999992
20
-115.8476179999999971
11
164.604818999999992
21
-116.038094000000001
0
LINE
8
BLACK
6
CONTINUOUS
10
164.604818999999992
20
-116.038094000000001
11
164.6524379999999894
21
-116.1333319999999958
0
LINE
8
BLACK
6
CONTINUOUS
10
164.6524379999999894
20
-116.1333319999999958
11
164.7000569999999868
21
-116.1809509999999932
0
LINE
8
BLACK
6
CONTINUOUS
10
164.7000569999999868
20
-116.1809509999999932
11
164.8429139999999791
21
-116.276188999999988
0
LINE
8
BLACK
6
CONTINUOUS
10
164.8429139999999791
20
-116.276188999999988
11
165.0333899999999971
21
-116.3238079999999997
0
LINE
8
BLACK
6
CONTINUOUS
10
165.0333899999999971
20
-116.3238079999999997
11
165.4143420000000049
21
-116.3238079999999997
0
LINE
8
BLACK
6
CONTINUOUS
10
165.4143420000000049
20
-116.3238079999999997
11
165.5095799999999997
21
-116.276188999999988
0
LINE
8
BLACK
6
CONTINUOUS
10
165.5095799999999997
20
-116.276188999999988
11
165.5571999999999946
21
-116.2285699999999906
0
LINE
8
BLACK
6
CONTINUOUS
10
165.5571999999999946
20
-116.2285699999999906
11
165.604818999999992
21
-116.1333319999999958
0
LINE
8
BLACK
6
CONTINUOUS
10
165.604818999999992
20
-116.1333319999999958
11
165.604818999999992
21
-115.9428559999999919
0
LINE
8
BLACK
6
CONTINUOUS
10
165.604818999999992
20
-115.9428559999999919
11
165.5571999999999946
21
-115.8476179999999971
0
LINE
8
BLACK
6
CONTINUOUS
10
165.5571999999999946
20
-115.8476179999999971
11
165.5095799999999997
21
-115.7999989999999997
0
LINE
8
BLACK
6
CONTINUOUS
10
165.5095799999999997
20
-115.7999989999999997
11
165.4143420000000049
21
-115.7523799999999881
0
LINE
8
BLACK
6
CONTINUOUS
10
165.4143420000000049
20
-115.7523799999999881
11
165.1762469999999894
21
-115.7523799999999881
0
LINE
8
BLACK
6
CONTINUOUS
10
165.1762469999999894
20
-115.7523799999999881
11
165.0810089999999946
21
-115.7999989999999997
0
LINE
8
BLACK
6
CONTINUOUS
10
165.0810089999999946
20
-115.7999989999999997
11
165.0333899999999971
21
-115.8476179999999971
0
LINE
8
BLACK
6
CONTINUOUS
10
165.0333899999999971
20
-115.8476179999999971
11
164.9857709999999997
21
-115.9428559999999919
0
LINE
8
BLACK
6
CONTINUOUS
10
164.9857709999999997
20
-115.9428559999999919
11
164.9857709999999997
21
-116.1333319999999958
0
LINE
8
BLACK
6
CONTINUOUS
10
164.9857709999999997
20
-116.1333319999999958
11
165.0333899999999971
21
-116.2285699999999906
0
LINE
8
BLACK
6
CONTINUOUS
10
165.0333899999999971
20
-116.2285699999999906
11
165.0810089999999946
21
-116.276188999999988
0
LINE
8
BLACK
6
CONTINUOUS
10
165.0810089999999946
20
-116.276188999999988
11
165.1762469999999894
21
-116.3238079999999997
0
LINE
8
BLACK
6
CONTINUOUS
10
165.604818999999992
20
-114.5619030000000009
11
164.9381520000000023
21
-114.5619030000000009
0
LINE
8
BLACK
6
CONTINUOUS
10
165.0333899999999971
20
-114.5619030000000009
11
164.9857709999999997
21
-114.5142839999999893
0
LINE
8
BLACK
6
CONTINUOUS
10
164.9857709999999997
20
-114.5142839999999893
11
164.9381520000000023
21
-114.4190459999999945
0
LINE
8
BLACK
6
CONTINUOUS
10
164.9381520000000023
20
-114.4190459999999945
11
164.9381520000000023
21
-114.276188999999988
0
LINE
8
BLACK
6
CONTINUOUS
10
164.9381520000000023
20
-114.276188999999988
11
164.9857709999999997
21
-114.1809509999999932
0
LINE
8
BLACK
6
CONTINUOUS
10
164.9857709999999997
20
-114.1809509999999932
11
165.0810089999999946
21
-114.1333319999999958
0
LINE
8
BLACK
6
CONTINUOUS
10
165.0810089999999946
20
-114.1333319999999958
11
165.604818999999992
21
-114.1333319999999958
0
LINE
8
BLACK
6
CONTINUOUS
10
165.0810089999999946
20
-114.1333319999999958
11
164.9857709999999997
21
-114.0857129999999984
0
LINE
8
BLACK
6
CONTINUOUS
10
164.9857709999999997
20
-114.0857129999999984
11
164.9381520000000023
21
-113.9904749999999893
0
LINE
8
BLACK
6
CONTINUOUS
10
164.9381520000000023
20
-113.9904749999999893
11
164.9381520000000023
21
-113.8476179999999971
0
LINE
8
BLACK
6
CONTINUOUS
10
164.9381520000000023
20
-113.8476179999999971
11
164.9857709999999997
21
-113.7523789999999906
0
LINE
8
BLACK
6
CONTINUOUS
10
164.9857709999999997
20
-113.7523789999999906
11
165.0810089999999946
21
-113.7047599999999932
0
LINE
8
BLACK
6
CONTINUOUS
10
165.0810089999999946
20
-113.7047599999999932
11
165.604818999999992
21
-113.7047599999999932
0
LINE
8
BLACK
6
CONTINUOUS
10
165.604818999999992
20
-113.2285699999999906
11
164.9381520000000023
21
-113.2285699999999906
0
LINE
8
BLACK
6
CONTINUOUS
10
165.0333899999999971
20
-113.2285699999999906
11
164.9857709999999997
21
-113.1809509999999932
0
LINE
8
BLACK
6
CONTINUOUS
10
164.9857709999999997
20
-113.1809509999999932
11
164.9381520000000023
21
-113.0857129999999984
0
LINE
8
BLACK
6
CONTINUOUS
10
164.9381520000000023
20
-113.0857129999999984
11
164.9381520000000023
21
-112.9428559999999919
0
LINE
8
BLACK
6
CONTINUOUS
10
164.9381520000000023
20
-112.9428559999999919
11
164.9857709999999997
21
-112.8476179999999971
0
LINE
8
BLACK
6
CONTINUOUS
10
164.9857709999999997
20
-112.8476179999999971
11
165.0810089999999946
21
-112.7999989999999997
0
LINE
8
BLACK
6
CONTINUOUS
10
165.0810089999999946
20
-112.7999989999999997
11
165.604818999999992
21
-112.7999989999999997
0
LINE
8
BLACK
6
CONTINUOUS
10
165.0810089999999946
20
-112.7999989999999997
11
164.9857709999999997
21
-112.7523799999999881
0
LINE
8
BLACK
6
CONTINUOUS
10
164.9857709999999997
20
-112.7523799999999881
11
164.9381520000000023
21
-112.6571419999999932
0
LINE
8
BLACK
6
CONTINUOUS
10
164.9381520000000023
20
-112.6571419999999932
11
164.9381520000000023
21
-112.514285000000001
0
LINE
8
BLACK
6
CONTINUOUS
10
164.9381520000000023
20
-112.514285000000001
11
164.9857709999999997
21
-112.4190459999999945
0
LINE
8
BLACK
6
CONTINUOUS
10
164.9857709999999997
20
-112.4190459999999945
11
165.0810089999999946
21
-112.3714269999999971
0
LINE
8
BLACK
6
CONTINUOUS
10
165.0810089999999946
20
-112.3714269999999971
11
165.604818999999992
21
-112.3714269999999971
0
LINE
8
BLACK
6
CONTINUOUS
10
182.0999999999999943
20
-122.7999999999999972
11
164.5635800000000017
21
-122.7999999999999972
0
LINE
8
BLACK
6
CONTINUOUS
10
182.0999999999999943
20
-106.7999999999999972
11
164.5635800000000017
21
-106.7999999999999972
0
LINE
8
BLACK
6
CONTINUOUS
10
165.1500000000000057
20
-122.7999999999999972
11
165.1500000000000057
21
-118.0916659999999894
0
LINE
8
BLACK
6
CONTINUOUS
10
165.1500000000000057
20
-111.5083329999999933
11
165.1500000000000057
21
-106.7999999999999972
0
LINE
8
BLACK
6
CONTINUOUS
10
165.1500000000000057
20
-122.7999999999999972
11
164.5635790000000043
21
-121.6734960000000001
0
LINE
8
BLACK
6
CONTINUOUS
10
165.1500000000000057
20
-122.7999999999999972
11
165.7364209999999787
21
-121.6734960000000001
0
LINE
8
BLACK
6
CONTINUOUS
10
165.1500000000000057
20
-106.7999999999999972
11
165.7364209999999787
21
-107.9265039999999942
0
LINE
8
BLACK
6
CONTINUOUS
10
165.1500000000000057
20
-106.7999999999999972
11
164.5635790000000043
21
-107.9265039999999942
0
LINE
8
BLACK
6
CONTINUOUS
10
183.3619049999999788
20
-99.3048189999999948
11
183.980952000000002
21
-99.3048189999999948
0
LINE
8
BLACK
6
CONTINUOUS
10
183.980952000000002
20
-99.3048189999999948
11
183.6476189999999917
21
-99.6857710000000026
0
LINE
8
BLACK
6
CONTINUOUS
10
183.6476189999999917
20
-99.6857710000000026
11
183.790475999999984
21
-99.6857710000000026
0
LINE
8
BLACK
6
CONTINUOUS
10
183.790475999999984
20
-99.6857710000000026
11
183.8857139999999788
21
-99.73339
0
LINE
8
BLACK
6
CONTINUOUS
10
183.8857139999999788
20
-99.73339
11
183.9333330000000046
21
-99.7810089999999974
0
LINE
8
BLACK
6
CONTINUOUS
10
183.9333330000000046
20
-99.7810089999999974
11
183.980952000000002
21
-99.8762469999999922
0
LINE
8
BLACK
6
CONTINUOUS
10
183.980952000000002
20
-99.8762469999999922
11
183.980952000000002
21
-100.1143419999999935
0
LINE
8
BLACK
6
CONTINUOUS
10
183.980952000000002
20
-100.1143419999999935
11
183.9333330000000046
21
-100.2095800000000025
0
LINE
8
BLACK
6
CONTINUOUS
10
183.9333330000000046
20
-100.2095800000000025
11
183.8857139999999788
21
-100.2571999999999974
0
LINE
8
BLACK
6
CONTINUOUS
10
183.8857139999999788
20
-100.2571999999999974
11
183.790475999999984
21
-100.3048189999999948
0
LINE
8
BLACK
6
CONTINUOUS
10
183.790475999999984
20
-100.3048189999999948
11
183.5047619999999995
21
-100.3048189999999948
0
LINE
8
BLACK
6
CONTINUOUS
10
183.5047619999999995
20
-100.3048189999999948
11
183.4095240000000047
21
-100.2571999999999974
0
LINE
8
BLACK
6
CONTINUOUS
10
183.4095240000000047
20
-100.2571999999999974
11
183.3619049999999788
21
-100.2095800000000025
0
LINE
8
BLACK
6
CONTINUOUS
10
184.5523809999999969
20
-99.73339
11
184.4571430000000021
21
-99.6857710000000026
0
LINE
8
BLACK
6
CONTINUOUS
10
184.4571430000000021
20
-99.6857710000000026
11
184.4095240000000047
21
-99.6381519999999909
0
LINE
8
BLACK
6
CONTINUOUS
10
184.4095240000000047
20
-99.6381519999999909
11
184.3619049999999788
21
-99.5429139999999961
0
LINE
8
BLACK
6
CONTINUOUS
10
184.3619049999999788
20
-99.5429139999999961
11
184.3619049999999788
21
-99.4952949999999987
0
LINE
8
BLACK
6
CONTINUOUS
10
184.3619049999999788
20
-99.4952949999999987
11
184.4095240000000047
21
-99.4000569999999897
0
LINE
8
BLACK
6
CONTINUOUS
10
184.4095240000000047
20
-99.4000569999999897
11
184.4571430000000021
21
-99.3524379999999923
0
LINE
8
BLACK
6
CONTINUOUS
10
184.4571430000000021
20
-99.3524379999999923
11
184.5523809999999969
21
-99.3048189999999948
0
LINE
8
BLACK
6
CONTINUOUS
10
184.5523809999999969
20
-99.3048189999999948
11
184.7428569999999866
21
-99.3048189999999948
0
LINE
8
BLACK
6
CONTINUOUS
10
184.7428569999999866
20
-99.3048189999999948
11
184.8380949999999814
21
-99.3524379999999923
0
LINE
8
BLACK
6
CONTINUOUS
10
184.8380949999999814
20
-99.3524379999999923
11
184.8857139999999788
21
-99.4000569999999897
0
LINE
8
BLACK
6
CONTINUOUS
10
184.8857139999999788
20
-99.4000569999999897
11
184.9333330000000046
21
-99.4952949999999987
0
LINE
8
BLACK
6
CONTINUOUS
10
184.9333330000000046
20
-99.4952949999999987
11
184.9333330000000046
21
-99.5429139999999961
0
LINE
8
BLACK
6
CONTINUOUS
10
184.9333330000000046
20
-99.5429139999999961
11
184.8857139999999788
21
-99.6381519999999909
0
LINE
8
BLACK
6
CONTINUOUS
10
184.8857139999999788
20
-99.6381519999999909
11
184.8380949999999814
21
-99.6857710000000026
0
LINE
8
BLACK
6
CONTINUOUS
10
184.8380949999999814
20
-99.6857710000000026
11
184.7428569999999866
21
-99.73339
0
LINE
8
BLACK
6
CONTINUOUS
10
184.7428569999999866
20
-99.73339
11
184.5523809999999969
21
-99.73339
0
LINE
8
BLACK
6
CONTINUOUS
10
184.5523809999999969
20
-99.73339
11
184.4571430000000021
21
-99.7810089999999974
0
LINE
8
BLACK
6
CONTINUOUS
10
184.4571430000000021
20
-99.7810089999999974
11
184.4095240000000047
21
-99.8286279999999948
0
LINE
8
BLACK
6
CONTINUOUS
10
184.4095240000000047
20
-99.8286279999999948
11
184.3619049999999788
21
-99.9238659999999896
0
LINE
8
BLACK
6
CONTINUOUS
10
184.3619049999999788
20
-99.9238659999999896
11
184.3619049999999788
21
-100.1143419999999935
0
LINE
8
BLACK
6
CONTINUOUS
10
184.3619049999999788
20
-100.1143419999999935
11
184.4095240000000047
21
-100.2095800000000025
0
LINE
8
BLACK
6
CONTINUOUS
10
184.4095240000000047
20
-100.2095800000000025
11
184.4571430000000021
21
-100.2571999999999974
0
LINE
8
BLACK
6
CONTINUOUS
10
184.4571430000000021
20
-100.2571999999999974
11
184.5523809999999969
21
-100.3048189999999948
0
LINE
8
BLACK
6
CONTINUOUS
10
184.5523809999999969
20
-100.3048189999999948
11
184.7428569999999866
21
-100.3048189999999948
0
LINE
8
BLACK
6
CONTINUOUS
10
184.7428569999999866
20
-100.3048189999999948
11
184.8380949999999814
21
-100.2571999999999974
0
LINE
8
BLACK
6
CONTINUOUS
10
184.8380949999999814
20
-100.2571999999999974
11
184.8857139999999788
21
-100.2095800000000025
0
LINE
8
BLACK
6
CONTINUOUS
10
184.8857139999999788
20
-100.2095800000000025
11
184.9333330000000046
21
-100.1143419999999935
0
LINE
8
BLACK
6
CONTINUOUS
10
184.9333330000000046
20
-100.1143419999999935
11
184.9333330000000046
21
-99.9238659999999896
0
LINE
8
BLACK
6
CONTINUOUS
10
184.9333330000000046
20
-99.9238659999999896
11
184.8857139999999788
21
-99.8286279999999948
0
LINE
8
BLACK
6
CONTINUOUS
10
184.8857139999999788
20
-99.8286279999999948
11
184.8380949999999814
21
-99.7810089999999974
0
LINE
8
BLACK
6
CONTINUOUS
10
184.8380949999999814
20
-99.7810089999999974
11
184.7428569999999866
21
-99.73339
0
LINE
8
BLACK
6
CONTINUOUS
10
185.3619049999999788
20
-100.2095800000000025
11
185.4095240000000047
21
-100.2571999999999974
0
LINE
8
BLACK
6
CONTINUOUS
10
185.4095240000000047
20
-100.2571999999999974
11
185.3619049999999788
21
-100.3048189999999948
0
LINE
8
BLACK
6
CONTINUOUS
10
185.3619049999999788
20
-100.3048189999999948
11
185.3142859999999814
21
-100.2571999999999974
0
LINE
8
BLACK
6
CONTINUOUS
10
185.3142859999999814
20
-100.2571999999999974
11
185.3619049999999788
21
-100.2095800000000025
0
LINE
8
BLACK
6
CONTINUOUS
10
185.3619049999999788
20
-100.2095800000000025
11
185.3619049999999788
21
-100.3048189999999948
0
LINE
8
BLACK
6
CONTINUOUS
10
186.2666659999999865
20
-99.6381519999999909
11
186.2666659999999865
21
-100.3048189999999948
0
LINE
8
BLACK
6
CONTINUOUS
10
186.0285709999999995
20
-99.2571999999999974
11
185.790475999999984
21
-99.9714850000000013
0
LINE
8
BLACK
6
CONTINUOUS
10
185.790475999999984
20
-99.9714850000000013
11
186.4095229999999788
21
-99.9714850000000013
0
LINE
8
BLACK
6
CONTINUOUS
10
187.5523809999999969
20
-100.3048189999999948
11
187.5523809999999969
21
-99.6381519999999909
0
LINE
8
BLACK
6
CONTINUOUS
10
187.5523809999999969
20
-99.73339
11
187.5999999999999943
21
-99.6857710000000026
0
LINE
8
BLACK
6
CONTINUOUS
10
187.5999999999999943
20
-99.6857710000000026
11
187.6952379999999891
21
-99.6381519999999909
0
LINE
8
BLACK
6
CONTINUOUS
10
187.6952379999999891
20
-99.6381519999999909
11
187.8380949999999814
21
-99.6381519999999909
0
LINE
8
BLACK
6
CONTINUOUS
10
187.8380949999999814
20
-99.6381519999999909
11
187.9333330000000046
21
-99.6857710000000026
0
LINE
8
BLACK
6
CONTINUOUS
10
187.9333330000000046
20
-99.6857710000000026
11
187.980952000000002
21
-99.7810089999999974
0
LINE
8
BLACK
6
CONTINUOUS
10
187.980952000000002
20
-99.7810089999999974
11
187.980952000000002
21
-100.3048189999999948
0
LINE
8
BLACK
6
CONTINUOUS
10
187.980952000000002
20
-99.7810089999999974
11
188.0285709999999995
21
-99.6857710000000026
0
LINE
8
BLACK
6
CONTINUOUS
10
188.0285709999999995
20
-99.6857710000000026
11
188.1238089999999943
21
-99.6381519999999909
0
LINE
8
BLACK
6
CONTINUOUS
10
188.1238089999999943
20
-99.6381519999999909
11
188.2666659999999865
21
-99.6381519999999909
0
LINE
8
BLACK
6
CONTINUOUS
10
188.2666659999999865
20
-99.6381519999999909
11
188.3619049999999788
21
-99.6857710000000026
0
LINE
8
BLACK
6
CONTINUOUS
10
188.3619049999999788
20
-99.6857710000000026
11
188.4095240000000047
21
-99.7810089999999974
0
LINE
8
BLACK
6
CONTINUOUS
10
188.4095240000000047
20
-99.7810089999999974
11
188.4095240000000047
21
-100.3048189999999948
0
LINE
8
BLACK
6
CONTINUOUS
10
188.8857139999999788
20
-100.3048189999999948
11
188.8857139999999788
21
-99.6381519999999909
0
LINE
8
BLACK
6
CONTINUOUS
10
188.8857139999999788
20
-99.73339
11
188.9333330000000046
21
-99.6857710000000026
0
LINE
8
BLACK
6
CONTINUOUS
10
188.9333330000000046
20
-99.6857710000000026
11
189.0285709999999995
21
-99.6381519999999909
0
LINE
8
BLACK
6
CONTINUOUS
10
189.0285709999999995
20
-99.6381519999999909
11
189.1714279999999917
21
-99.6381519999999909
0
LINE
8
BLACK
6
CONTINUOUS
10
189.1714279999999917
20
-99.6381519999999909
11
189.2666659999999865
21
-99.6857710000000026
0
LINE
8
BLACK
6
CONTINUOUS
10
189.2666659999999865
20
-99.6857710000000026
11
189.3142849999999839
21
-99.7810089999999974
0
LINE
8
BLACK
6
CONTINUOUS
10
189.3142849999999839
20
-99.7810089999999974
11
189.3142849999999839
21
-100.3048189999999948
0
LINE
8
BLACK
6
CONTINUOUS
10
189.3142849999999839
20
-99.7810089999999974
11
189.3619039999999814
21
-99.6857710000000026
0
LINE
8
BLACK
6
CONTINUOUS
10
189.3619039999999814
20
-99.6857710000000026
11
189.4571420000000046
21
-99.6381519999999909
0
LINE
8
BLACK
6
CONTINUOUS
10
189.4571420000000046
20
-99.6381519999999909
11
189.5999989999999968
21
-99.6381519999999909
0
LINE
8
BLACK
6
CONTINUOUS
10
189.5999989999999968
20
-99.6381519999999909
11
189.6952379999999891
21
-99.6857710000000026
0
LINE
8
BLACK
6
CONTINUOUS
10
189.6952379999999891
20
-99.6857710000000026
11
189.7428569999999866
21
-99.7810089999999974
0
LINE
8
BLACK
6
CONTINUOUS
10
189.7428569999999866
20
-99.7810089999999974
11
189.7428569999999866
21
-100.3048189999999948
0
LINE
8
BLACK
6
CONTINUOUS
10
167.4000000000000057
20
-106.2999999999999972
11
167.4000000000000057
21
-99.2635799999999904
0
LINE
8
BLACK
6
CONTINUOUS
10
205.7999999999999829
20
-106.2999999999999972
11
205.7999999999999829
21
-99.2635799999999904
0
LINE
8
BLACK
6
CONTINUOUS
10
167.4000000000000057
20
-99.8499999999999943
11
182.5940479999999866
21
-99.8499999999999943
0
LINE
8
BLACK
6
CONTINUOUS
10
190.605952000000002
20
-99.8499999999999943
11
205.7999999999999829
21
-99.8499999999999943
0
LINE
8
BLACK
6
CONTINUOUS
10
167.4000000000000057
20
-99.8499999999999943
11
168.5265039999999885
21
-99.2635789999999929
0
LINE
8
BLACK
6
CONTINUOUS
10
167.4000000000000057
20
-99.8499999999999943
11
168.5265039999999885
21
-100.4364209999999957
0
LINE
8
BLACK
6
CONTINUOUS
10
205.7999999999999829
20
-99.8499999999999943
11
204.6734960000000001
21
-100.4364209999999957
0
LINE
8
BLACK
6
CONTINUOUS
10
205.7999999999999829
20
-99.8499999999999943
11
204.6734960000000001
21
-99.2635789999999929
0
LINE
8
BLACK
6
CONTINUOUS
10
186.4619050000000016
20
-101.7881519999999966
11
186.4619050000000016
21
-102.4548190000000005
0
LINE
8
BLACK
6
CONTINUOUS
10
186.2238099999999861
20
-101.4071999999999889
11
185.985714999999999
21
-102.1214849999999927
0
LINE
8
BLACK
6
CONTINUOUS
10
185.985714999999999
20
-102.1214849999999927
11
186.6047619999999938
21
-102.1214849999999927
0
LINE
8
BLACK
6
CONTINUOUS
10
186.985714999999999
20
-102.359579999999994
11
187.0333339999999964
21
-102.4071999999999889
0
LINE
8
BLACK
6
CONTINUOUS
10
187.0333339999999964
20
-102.4071999999999889
11
186.985714999999999
21
-102.4548190000000005
0
LINE
8
BLACK
6
CONTINUOUS
10
186.985714999999999
20
-102.4548190000000005
11
186.9380960000000016
21
-102.4071999999999889
0
LINE
8
BLACK
6
CONTINUOUS
10
186.9380960000000016
20
-102.4071999999999889
11
186.985714999999999
21
-102.359579999999994
0
LINE
8
BLACK
6
CONTINUOUS
10
186.985714999999999
20
-102.359579999999994
11
186.985714999999999
21
-102.4548190000000005
0
LINE
8
BLACK
6
CONTINUOUS
10
187.3666669999999783
20
-101.4548190000000005
11
188.0333329999999989
21
-101.4548190000000005
0
LINE
8
BLACK
6
CONTINUOUS
10
188.0333329999999989
20
-101.4548190000000005
11
187.6047619999999938
21
-102.4548190000000005
0
LINE
8
BLACK
6
CONTINUOUS
10
189.1761909999999887
20
-102.4548190000000005
11
189.1761909999999887
21
-101.7881519999999966
0
LINE
8
BLACK
6
CONTINUOUS
10
189.1761909999999887
20
-101.8833899999999915
11
189.2238099999999861
21
-101.835770999999994
0
LINE
8
BLACK
6
CONTINUOUS
10
189.2238099999999861
20
-101.835770999999994
11
189.3190479999999809
21
-101.7881519999999966
0
LINE
8
BLACK
6
CONTINUOUS
10
189.3190479999999809
20
-101.7881519999999966
11
189.4619050000000016
21
-101.7881519999999966
0
LINE
8
BLACK
6
CONTINUOUS
10
189.4619050000000016
20
-101.7881519999999966
11
189.5571429999999964
21
-101.835770999999994
0
LINE
8
BLACK
6
CONTINUOUS
10
189.5571429999999964
20
-101.835770999999994
11
189.6047619999999938
21
-101.9310089999999889
0
LINE
8
BLACK
6
CONTINUOUS
10
189.6047619999999938
20
-101.9310089999999889
11
189.6047619999999938
21
-102.4548190000000005
0
LINE
8
BLACK
6
CONTINUOUS
10
189.6047619999999938
20
-101.9310089999999889
11
189.6523809999999912
21
-101.835770999999994
0
LINE
8
BLACK
6
CONTINUOUS
10
189.6523809999999912
20
-101.835770999999994
11
189.747618999999986
21
-101.7881519999999966
0
LINE
8
BLACK
6
CONTINUOUS
10
189.747618999999986
20
-101.7881519999999966
11
189.8904759999999783
21
-101.7881519999999966
0
LINE
8
BLACK
6
CONTINUOUS
10
189.8904759999999783
20
-101.7881519999999966
11
189.985714999999999
21
-101.835770999999994
0
LINE
8
BLACK
6
CONTINUOUS
10
189.985714999999999
20
-101.835770999999994
11
190.0333339999999964
21
-101.9310089999999889
0
LINE
8
BLACK
6
CONTINUOUS
10
190.0333339999999964
20
-101.9310089999999889
11
190.0333339999999964
21
-102.4548190000000005
0
LINE
8
BLACK
6
CONTINUOUS
10
190.509523999999999
20
-102.4548190000000005
11
190.509523999999999
21
-101.7881519999999966
0
LINE
8
BLACK
6
CONTINUOUS
10
190.509523999999999
20
-101.8833899999999915
11
190.5571429999999964
21
-101.835770999999994
0
LINE
8
BLACK
6
CONTINUOUS
10
190.5571429999999964
20
-101.835770999999994
11
190.6523809999999912
21
-101.7881519999999966
0
LINE
8
BLACK
6
CONTINUOUS
10
190.6523809999999912
20
-101.7881519999999966
11
190.7952379999999835
21
-101.7881519999999966
0
LINE
8
BLACK
6
CONTINUOUS
10
190.7952379999999835
20
-101.7881519999999966
11
190.8904759999999783
21
-101.835770999999994
0
LINE
8
BLACK
6
CONTINUOUS
10
190.8904759999999783
20
-101.835770999999994
11
190.9380950000000041
21
-101.9310089999999889
0
LINE
8
BLACK
6
CONTINUOUS
10
190.9380950000000041
20
-101.9310089999999889
11
190.9380950000000041
21
-102.4548190000000005
0
LINE
8
BLACK
6
CONTINUOUS
10
190.9380950000000041
20
-101.9310089999999889
11
190.9857140000000015
21
-101.835770999999994
0
LINE
8
BLACK
6
CONTINUOUS
10
190.9857140000000015
20
-101.835770999999994
11
191.0809519999999964
21
-101.7881519999999966
0
LINE
8
BLACK
6
CONTINUOUS
10
191.0809519999999964
20
-101.7881519999999966
11
191.2238089999999886
21
-101.7881519999999966
0
LINE
8
BLACK
6
CONTINUOUS
10
191.2238089999999886
20
-101.7881519999999966
11
191.3190479999999809
21
-101.835770999999994
0
LINE
8
BLACK
6
CONTINUOUS
10
191.3190479999999809
20
-101.835770999999994
11
191.3666669999999783
21
-101.9310089999999889
0
LINE
8
BLACK
6
CONTINUOUS
10
191.3666669999999783
20
-101.9310089999999889
11
191.3666669999999783
21
-102.4548190000000005
0
LINE
8
BLACK
6
CONTINUOUS
10
180.25
20
-106.2999999999999972
11
180.25
21
-101.4135799999999961
0
LINE
8
BLACK
6
CONTINUOUS
10
184.9499999999999886
20
-106.2999999999999972
11
184.9499999999999886
21
-101.4135799999999961
0
LINE
8
BLACK
6
CONTINUOUS
10
180.25
20
-102.
11
184.9499999999999886
21
-102.
0
LINE
8
BLACK
6
CONTINUOUS
10
180.25
20
-102.
11
184.9499999999999886
21
-102.
0
LINE
8
BLACK
6
CONTINUOUS
10
180.25
20
-102.
11
181.3765039999999829
21
-101.4135789999999986
0
LINE
8
BLACK
6
CONTINUOUS
10
180.25
20
-102.
11
181.3765039999999829
21
-102.5864210000000014
0
LINE
8
BLACK
6
CONTINUOUS
10
184.9499999999999886
20
-102.
11
183.8234960000000058
21
-102.5864210000000014
0
LINE
8
BLACK
6
CONTINUOUS
10
184.9499999999999886
20
-102.
11
183.8234960000000058
21
-101.4135789999999986
0
LINE
8
BLACK
6
CONTINUOUS
10
162.4000570000000039
20
-117.9904749999999893
11
162.3524380000000065
21
-117.9428559999999919
0
LINE
8
BLACK
6
CONTINUOUS
10
162.3524380000000065
20
-117.9428559999999919
11
162.3048189999999806
21
-117.8476179999999971
0
LINE
8
BLACK
6
CONTINUOUS
10
162.3048189999999806
20
-117.8476179999999971
11
162.3048189999999806
21
-117.6095229999999958
0
LINE
8
BLACK
6
CONTINUOUS
10
162.3048189999999806
20
-117.6095229999999958
11
162.3524380000000065
21
-117.514285000000001
0
LINE
8
BLACK
6
CONTINUOUS
10
162.3524380000000065
20
-117.514285000000001
11
162.4000570000000039
21
-117.4666659999999894
0
LINE
8
BLACK
6
CONTINUOUS
10
162.4000570000000039
20
-117.4666659999999894
11
162.4952949999999987
21
-117.419046999999992
0
LINE
8
BLACK
6
CONTINUOUS
10
162.4952949999999987
20
-117.419046999999992
11
162.5905329999999935
21
-117.419046999999992
0
LINE
8
BLACK
6
CONTINUOUS
10
162.5905329999999935
20
-117.419046999999992
11
162.7333899999999858
21
-117.4666659999999894
0
LINE
8
BLACK
6
CONTINUOUS
10
162.7333899999999858
20
-117.4666659999999894
11
163.3048189999999806
21
-118.038094000000001
0
LINE
8
BLACK
6
CONTINUOUS
10
163.3048189999999806
20
-118.038094000000001
11
163.3048189999999806
21
-117.419046999999992
0
LINE
8
BLACK
6
CONTINUOUS
10
162.4000570000000039
20
-117.038094000000001
11
162.3524380000000065
21
-116.9904749999999893
0
LINE
8
BLACK
6
CONTINUOUS
10
162.3524380000000065
20
-116.9904749999999893
11
162.3048189999999806
21
-116.8952369999999945
0
LINE
8
BLACK
6
CONTINUOUS
10
162.3048189999999806
20
-116.8952369999999945
11
162.3048189999999806
21
-116.6571419999999932
0
LINE
8
BLACK
6
CONTINUOUS
10
162.3048189999999806
20
-116.6571419999999932
11
162.3524380000000065
21
-116.5619039999999984
0
LINE
8
BLACK
6
CONTINUOUS
10
162.3524380000000065
20
-116.5619039999999984
11
162.4000570000000039
21
-116.514285000000001
0
LINE
8
BLACK
6
CONTINUOUS
10
162.4000570000000039
20
-116.514285000000001
11
162.4952949999999987
21
-116.4666659999999894
0
LINE
8
BLACK
6
CONTINUOUS
10
162.4952949999999987
20
-116.4666659999999894
11
162.5905329999999935
21
-116.4666659999999894
0
LINE
8
BLACK
6
CONTINUOUS
10
162.5905329999999935
20
-116.4666659999999894
11
162.7333899999999858
21
-116.514285000000001
0
LINE
8
BLACK
6
CONTINUOUS
10
162.7333899999999858
20
-116.514285000000001
11
163.3048189999999806
21
-117.0857129999999984
0
LINE
8
BLACK
6
CONTINUOUS
10
163.3048189999999806
20
-117.0857129999999984
11
163.3048189999999806
21
-116.4666659999999894
0
LINE
8
BLACK
6
CONTINUOUS
10
163.2095799999999883
20
-116.038094000000001
11
163.2571999999999832
21
-115.9904749999999893
0
LINE
8
BLACK
6
CONTINUOUS
10
163.2571999999999832
20
-115.9904749999999893
11
163.3048189999999806
21
-116.038094000000001
0
LINE
8
BLACK
6
CONTINUOUS
10
163.3048189999999806
20
-116.038094000000001
11
163.2571999999999832
21
-116.0857129999999984
0
LINE
8
BLACK
6
CONTINUOUS
10
163.2571999999999832
20
-116.0857129999999984
11
163.2095799999999883
21
-116.038094000000001
0
LINE
8
BLACK
6
CONTINUOUS
10
163.2095799999999883
20
-116.038094000000001
11
163.3048189999999806
21
-116.038094000000001
0
LINE
8
BLACK
6
CONTINUOUS
10
162.6381519999999909
20
-115.1333329999999933
11
163.3048189999999806
21
-115.1333329999999933
0
LINE
8
BLACK
6
CONTINUOUS
10
162.2571999999999832
20
-115.3714279999999945
11
162.9714850000000013
21
-115.6095229999999958
0
LINE
8
BLACK
6
CONTINUOUS
10
162.9714850000000013
20
-115.6095229999999958
11
162.9714850000000013
21
-114.990476000000001
0
LINE
8
BLACK
6
CONTINUOUS
10
163.3048189999999806
20
-113.8476179999999971
11
162.6381519999999909
21
-113.8476179999999971
0
LINE
8
BLACK
6
CONTINUOUS
10
162.7333899999999858
20
-113.8476179999999971
11
162.6857709999999884
21
-113.7999989999999997
0
LINE
8
BLACK
6
CONTINUOUS
10
162.6857709999999884
20
-113.7999989999999997
11
162.6381519999999909
21
-113.7047609999999906
0
LINE
8
BLACK
6
CONTINUOUS
10
162.6381519999999909
20
-113.7047609999999906
11
162.6381519999999909
21
-113.5619039999999984
0
LINE
8
BLACK
6
CONTINUOUS
10
162.6381519999999909
20
-113.5619039999999984
11
162.6857709999999884
21
-113.4666659999999894
0
LINE
8
BLACK
6
CONTINUOUS
10
162.6857709999999884
20
-113.4666659999999894
11
162.7810089999999832
21
-113.419046999999992
0
LINE
8
BLACK
6
CONTINUOUS
10
162.7810089999999832
20
-113.419046999999992
11
163.3048189999999806
21
-113.419046999999992
0
LINE
8
BLACK
6
CONTINUOUS
10
162.7810089999999832
20
-113.419046999999992
11
162.6857709999999884
21
-113.3714279999999945
0
LINE
8
BLACK
6
CONTINUOUS
10
162.6857709999999884
20
-113.3714279999999945
11
162.6381519999999909
21
-113.2761899999999997
0
LINE
8
BLACK
6
CONTINUOUS
10
162.6381519999999909
20
-113.2761899999999997
11
162.6381519999999909
21
-113.1333329999999933
0
LINE
8
BLACK
6
CONTINUOUS
10
162.6381519999999909
20
-113.1333329999999933
11
162.6857709999999884
21
-113.038094000000001
0
LINE
8
BLACK
6
CONTINUOUS
10
162.6857709999999884
20
-113.038094000000001
11
162.7810089999999832
21
-112.9904749999999893
0
LINE
8
BLACK
6
CONTINUOUS
10
162.7810089999999832
20
-112.9904749999999893
11
163.3048189999999806
21
-112.9904749999999893
0
LINE
8
BLACK
6
CONTINUOUS
10
163.3048189999999806
20
-112.514285000000001
11
162.6381519999999909
21
-112.514285000000001
0
LINE
8
BLACK
6
CONTINUOUS
10
162.7333899999999858
20
-112.514285000000001
11
162.6857709999999884
21
-112.4666659999999894
0
LINE
8
BLACK
6
CONTINUOUS
10
162.6857709999999884
20
-112.4666659999999894
11
162.6381519999999909
21
-112.3714279999999945
0
LINE
8
BLACK
6
CONTINUOUS
10
162.6381519999999909
20
-112.3714279999999945
11
162.6381519999999909
21
-112.2285709999999881
0
LINE
8
BLACK
6
CONTINUOUS
10
162.6381519999999909
20
-112.2285709999999881
11
162.6857709999999884
21
-112.1333329999999933
0
LINE
8
BLACK
6
CONTINUOUS
10
162.6857709999999884
20
-112.1333329999999933
11
162.7810089999999832
21
-112.0857139999999958
0
LINE
8
BLACK
6
CONTINUOUS
10
162.7810089999999832
20
-112.0857139999999958
11
163.3048189999999806
21
-112.0857139999999958
0
LINE
8
BLACK
6
CONTINUOUS
10
162.7810089999999832
20
-112.0857139999999958
11
162.6857709999999884
21
-112.0380949999999984
0
LINE
8
BLACK
6
CONTINUOUS
10
162.6857709999999884
20
-112.0380949999999984
11
162.6381519999999909
21
-111.9428569999999894
0
LINE
8
BLACK
6
CONTINUOUS
10
162.6381519999999909
20
-111.9428569999999894
11
162.6381519999999909
21
-111.7999999999999972
0
LINE
8
BLACK
6
CONTINUOUS
10
162.6381519999999909
20
-111.7999999999999972
11
162.6857709999999884
21
-111.7047609999999906
0
LINE
8
BLACK
6
CONTINUOUS
10
162.6857709999999884
20
-111.7047609999999906
11
162.7810089999999832
21
-111.6571419999999932
0
LINE
8
BLACK
6
CONTINUOUS
10
162.7810089999999832
20
-111.6571419999999932
11
163.3048189999999806
21
-111.6571419999999932
0
LINE
8
BLACK
6
CONTINUOUS
10
170.0999999999999943
20
-126.
11
162.2635799999999904
21
-126.
0
LINE
8
BLACK
6
CONTINUOUS
10
170.0999999999999943
20
-103.5999999999999943
11
162.2635799999999904
21
-103.5999999999999943
0
LINE
8
BLACK
6
CONTINUOUS
10
162.8499999999999943
20
-126.
11
162.8499999999999943
21
-118.8059519999999907
0
LINE
8
BLACK
6
CONTINUOUS
10
162.8499999999999943
20
-110.7940479999999894
11
162.8499999999999943
21
-103.5999999999999943
0
LINE
8
BLACK
6
CONTINUOUS
10
162.8499999999999943
20
-126.
11
162.2635789999999929
21
-124.8734959999999887
0
LINE
8
BLACK
6
CONTINUOUS
10
162.8499999999999943
20
-126.
11
163.4364209999999957
21
-124.8734959999999887
0
LINE
8
BLACK
6
CONTINUOUS
10
162.8499999999999943
20
-103.5999999999999943
11
163.4364209999999957
21
-104.7265039999999914
0
LINE
8
BLACK
6
CONTINUOUS
10
162.8499999999999943
20
-103.5999999999999943
11
162.2635789999999929
21
-104.7265039999999914
0
LINE
8
BLACK
6
CONTINUOUS
10
172.3809519999999793
20
-128.7548189999999977
11
171.8095239999999819
21
-128.7548189999999977
0
LINE
8
BLACK
6
CONTINUOUS
10
172.0952379999999948
20
-128.7548189999999977
11
172.0952379999999948
21
-127.7548189999999977
0
LINE
8
BLACK
6
CONTINUOUS
10
172.0952379999999948
20
-127.7548189999999977
11
172.
21
-127.8976759999999899
0
LINE
8
BLACK
6
CONTINUOUS
10
172.
20
-127.8976759999999899
11
171.9047620000000052
21
-127.992913999999999
0
LINE
8
BLACK
6
CONTINUOUS
10
171.9047620000000052
20
-127.992913999999999
11
171.8095239999999819
21
-128.0405329999999822
0
LINE
8
BLACK
6
CONTINUOUS
10
173.2857139999999845
20
-127.7548189999999977
11
172.8095239999999819
21
-127.7548189999999977
0
LINE
8
BLACK
6
CONTINUOUS
10
172.8095239999999819
20
-127.7548189999999977
11
172.7619049999999845
21
-128.2310090000000002
0
LINE
8
BLACK
6
CONTINUOUS
10
172.7619049999999845
20
-128.2310090000000002
11
172.8095239999999819
21
-128.1833900000000028
0
LINE
8
BLACK
6
CONTINUOUS
10
172.8095239999999819
20
-128.1833900000000028
11
172.9047620000000052
21
-128.1357710000000054
0
LINE
8
BLACK
6
CONTINUOUS
10
172.9047620000000052
20
-128.1357710000000054
11
173.1428569999999922
21
-128.1357710000000054
0
LINE
8
BLACK
6
CONTINUOUS
10
173.1428569999999922
20
-128.1357710000000054
11
173.2380949999999871
21
-128.1833900000000028
0
LINE
8
BLACK
6
CONTINUOUS
10
173.2380949999999871
20
-128.1833900000000028
11
173.2857139999999845
21
-128.2310090000000002
0
LINE
8
BLACK
6
CONTINUOUS
10
173.2857139999999845
20
-128.2310090000000002
11
173.3333329999999819
21
-128.3262469999999951
0
LINE
8
BLACK
6
CONTINUOUS
10
173.3333329999999819
20
-128.3262469999999951
11
173.3333329999999819
21
-128.5643419999999821
0
LINE
8
BLACK
6
CONTINUOUS
10
173.3333329999999819
20
-128.5643419999999821
11
173.2857139999999845
21
-128.6595800000000054
0
LINE
8
BLACK
6
CONTINUOUS
10
173.2857139999999845
20
-128.6595800000000054
11
173.2380949999999871
21
-128.7072000000000003
0
LINE
8
BLACK
6
CONTINUOUS
10
173.2380949999999871
20
-128.7072000000000003
11
173.1428569999999922
21
-128.7548189999999977
0
LINE
8
BLACK
6
CONTINUOUS
10
173.1428569999999922
20
-128.7548189999999977
11
172.9047620000000052
21
-128.7548189999999977
0
LINE
8
BLACK
6
CONTINUOUS
10
172.9047620000000052
20
-128.7548189999999977
11
172.8095239999999819
21
-128.7072000000000003
0
LINE
8
BLACK
6
CONTINUOUS
10
172.8095239999999819
20
-128.7072000000000003
11
172.7619049999999845
21
-128.6595800000000054
0
LINE
8
BLACK
6
CONTINUOUS
10
173.7619049999999845
20
-128.6595800000000054
11
173.8095239999999819
21
-128.7072000000000003
0
LINE
8
BLACK
6
CONTINUOUS
10
173.8095239999999819
20
-128.7072000000000003
11
173.7619049999999845
21
-128.7548189999999977
0
LINE
8
BLACK
6
CONTINUOUS
10
173.7619049999999845
20
-128.7548189999999977
11
173.7142859999999871
21
-128.7072000000000003
0
LINE
8
BLACK
6
CONTINUOUS
10
173.7142859999999871
20
-128.7072000000000003
11
173.7619049999999845
21
-128.6595800000000054
0
LINE
8
BLACK
6
CONTINUOUS
10
173.7619049999999845
20
-128.6595800000000054
11
173.7619049999999845
21
-128.7548189999999977
0
LINE
8
BLACK
6
CONTINUOUS
10
174.1904759999999897
20
-127.8500569999999925
11
174.2380949999999871
21
-127.8024379999999951
0
LINE
8
BLACK
6
CONTINUOUS
10
174.2380949999999871
20
-127.8024379999999951
11
174.3333329999999819
21
-127.7548189999999977
0
LINE
8
BLACK
6
CONTINUOUS
10
174.3333329999999819
20
-127.7548189999999977
11
174.5714279999999974
21
-127.7548189999999977
0
LINE
8
BLACK
6
CONTINUOUS
10
174.5714279999999974
20
-127.7548189999999977
11
174.6666659999999922
21
-127.8024379999999951
0
LINE
8
BLACK
6
CONTINUOUS
10
174.6666659999999922
20
-127.8024379999999951
11
174.7142849999999896
21
-127.8500569999999925
0
LINE
8
BLACK
6
CONTINUOUS
10
174.7142849999999896
20
-127.8500569999999925
11
174.761903999999987
21
-127.9452949999999873
0
LINE
8
BLACK
6
CONTINUOUS
10
174.761903999999987
20
-127.9452949999999873
11
174.761903999999987
21
-128.0405329999999822
0
LINE
8
BLACK
6
CONTINUOUS
10
174.761903999999987
20
-128.0405329999999822
11
174.7142849999999896
21
-128.1833900000000028
0
LINE
8
BLACK
6
CONTINUOUS
10
174.7142849999999896
20
-128.1833900000000028
11
174.1428569999999922
21
-128.7548189999999977
0
LINE
8
BLACK
6
CONTINUOUS
10
174.1428569999999922
20
-128.7548189999999977
11
174.761903999999987
21
-128.7548189999999977
0
LINE
8
BLACK
6
CONTINUOUS
10
175.9523810000000026
20
-128.7548189999999977
11
175.9523810000000026
21
-128.088152000000008
0
LINE
8
BLACK
6
CONTINUOUS
10
175.9523810000000026
20
-128.1833900000000028
11
176.
21
-128.1357710000000054
0
LINE
8
BLACK
6
CONTINUOUS
10
176.
20
-128.1357710000000054
11
176.0952379999999948
21
-128.088152000000008
0
LINE
8
BLACK
6
CONTINUOUS
10
176.0952379999999948
20
-128.088152000000008
11
176.2380949999999871
21
-128.088152000000008
0
LINE
8
BLACK
6
CONTINUOUS
10
176.2380949999999871
20
-128.088152000000008
11
176.3333329999999819
21
-128.1357710000000054
0
LINE
8
BLACK
6
CONTINUOUS
10
176.3333329999999819
20
-128.1357710000000054
11
176.3809519999999793
21
-128.2310090000000002
0
LINE
8
BLACK
6
CONTINUOUS
10
176.3809519999999793
20
-128.2310090000000002
11
176.3809519999999793
21
-128.7548189999999977
0
LINE
8
BLACK
6
CONTINUOUS
10
176.3809519999999793
20
-128.2310090000000002
11
176.4285710000000051
21
-128.1357710000000054
0
LINE
8
BLACK
6
CONTINUOUS
10
176.4285710000000051
20
-128.1357710000000054
11
176.523809
21
-128.088152000000008
0
LINE
8
BLACK
6
CONTINUOUS
10
176.523809
20
-128.088152000000008
11
176.6666659999999922
21
-128.088152000000008
0
LINE
8
BLACK
6
CONTINUOUS
10
176.6666659999999922
20
-128.088152000000008
11
176.7619049999999845
21
-128.1357710000000054
0
LINE
8
BLACK
6
CONTINUOUS
10
176.7619049999999845
20
-128.1357710000000054
11
176.8095239999999819
21
-128.2310090000000002
0
LINE
8
BLACK
6
CONTINUOUS
10
176.8095239999999819
20
-128.2310090000000002
11
176.8095239999999819
21
-128.7548189999999977
0
LINE
8
BLACK
6
CONTINUOUS
10
177.2857139999999845
20
-128.7548189999999977
11
177.2857139999999845
21
-128.088152000000008
0
LINE
8
BLACK
6
CONTINUOUS
10
177.2857139999999845
20
-128.1833900000000028
11
177.3333329999999819
21
-128.1357710000000054
0
LINE
8
BLACK
6
CONTINUOUS
10
177.3333329999999819
20
-128.1357710000000054
11
177.4285710000000051
21
-128.088152000000008
0
LINE
8
BLACK
6
CONTINUOUS
10
177.4285710000000051
20
-128.088152000000008
11
177.5714279999999974
21
-128.088152000000008
0
LINE
8
BLACK
6
CONTINUOUS
10
177.5714279999999974
20
-128.088152000000008
11
177.6666659999999922
21
-128.1357710000000054
0
LINE
8
BLACK
6
CONTINUOUS
10
177.6666659999999922
20
-128.1357710000000054
11
177.7142849999999896
21
-128.2310090000000002
0
LINE
8
BLACK
6
CONTINUOUS
10
177.7142849999999896
20
-128.2310090000000002
11
177.7142849999999896
21
-128.7548189999999977
0
LINE
8
BLACK
6
CONTINUOUS
10
177.7142849999999896
20
-128.2310090000000002
11
177.761903999999987
21
-128.1357710000000054
0
LINE
8
BLACK
6
CONTINUOUS
10
177.761903999999987
20
-128.1357710000000054
11
177.8571419999999819
21
-128.088152000000008
0
LINE
8
BLACK
6
CONTINUOUS
10
177.8571419999999819
20
-128.088152000000008
11
177.9999990000000025
21
-128.088152000000008
0
LINE
8
BLACK
6
CONTINUOUS
10
177.9999990000000025
20
-128.088152000000008
11
178.0952379999999948
21
-128.1357710000000054
0
LINE
8
BLACK
6
CONTINUOUS
10
178.0952379999999948
20
-128.1357710000000054
11
178.1428569999999922
21
-128.2310090000000002
0
LINE
8
BLACK
6
CONTINUOUS
10
178.1428569999999922
20
-128.2310090000000002
11
178.1428569999999922
21
-128.7548189999999977
0
LINE
8
BLACK
6
CONTINUOUS
10
182.5999999999999943
20
-123.2999999999999972
11
182.5999999999999943
21
-128.8864199999999869
0
LINE
8
BLACK
6
CONTINUOUS
10
167.4000000000000057
20
-123.2999999999999972
11
167.4000000000000057
21
-128.8864199999999869
0
LINE
8
BLACK
6
CONTINUOUS
10
182.5999999999999943
20
-128.2999999999999829
11
179.0059519999999793
21
-128.2999999999999829
0
LINE
8
BLACK
6
CONTINUOUS
10
170.9940479999999923
20
-128.2999999999999829
11
167.4000000000000057
21
-128.2999999999999829
0
LINE
8
BLACK
6
CONTINUOUS
10
182.5999999999999943
20
-128.2999999999999829
11
181.473495999999983
21
-128.8864209999999844
0
LINE
8
BLACK
6
CONTINUOUS
10
182.5999999999999943
20
-128.2999999999999829
11
181.473495999999983
21
-127.7135789999999957
0
LINE
8
BLACK
6
CONTINUOUS
10
167.4000000000000057
20
-128.2999999999999829
11
168.5265039999999885
21
-127.7135789999999957
0
LINE
8
BLACK
6
CONTINUOUS
10
167.4000000000000057
20
-128.2999999999999829
11
168.5265039999999885
21
-128.8864209999999844
0
LINE
8
BLACK
6
CONTINUOUS
10
191.5499999999999829
20
-114.1999999999999886
11
192.25
21
-114.1999999999999886
0
LINE
8
BLACK
6
CONTINUOUS
10
192.25
20
-115.3999999999999915
11
191.5499999999999829
21
-115.3999999999999915
0
LINE
8
BLACK
6
CONTINUOUS
10
198.8999999999999773
20
-106.5999999999999943
11
205.6999999999999886
21
-106.5999999999999943
0
LINE
8
BLACK
6
CONTINUOUS
10
198.8999999999999773
20
-113.5999999999999943
11
198.8999999999999773
21
-106.5999999999999943
0
LINE
8
BLACK
6
CONTINUOUS
10
201.5499999999999829
20
-107.7999999999999972
11
202.8499999999999943
21
-109.0999999999999943
0
LINE
8
BLACK
6
CONTINUOUS
10
201.5499999999999829
20
-111.2999999999999972
11
202.8499999999999943
21
-112.5999999999999943
0
LINE
8
BLACK
6
CONTINUOUS
10
201.75
20
-111.0999999999999943
11
203.0499999999999829
21
-112.3999999999999915
0
LINE
8
BLACK
6
CONTINUOUS
10
203.0499999999999829
20
-108.8999999999999915
11
201.75
21
-107.5999999999999943
0
LINE
8
BLACK
6
CONTINUOUS
10
205.2999999999999829
20
-106.5999999999999943
11
205.2999999999999829
21
-113.5999999999999943
0
LINE
8
BLACK
6
CONTINUOUS
10
205.6999999999999886
20
-106.5999999999999943
11
205.6999999999999886
21
-113.5999999999999943
0
LINE
8
BLACK
6
CONTINUOUS
10
205.6999999999999886
20
-113.5999999999999943
11
198.8999999999999773
21
-113.5999999999999943
0
LINE
8
BLACK
6
CONTINUOUS
10
187.6999999999999886
20
-115.5
11
188.6999999999999886
21
-115.5
0
LINE
8
BLACK
6
CONTINUOUS
10
188.6999999999999886
20
-114.2999999999999972
11
187.6999999999999886
21
-114.2999999999999972
0
LINE
8
BLACK
6
CONTINUOUS
10
186.1999999999999886
20
-110.5999999999999943
11
187.4000000000000057
21
-110.5999999999999943
0
LINE
8
BLACK
6
CONTINUOUS
10
186.1999999999999886
20
-112.7999999999999972
11
186.1999999999999886
21
-110.5999999999999943
0
LINE
8
BLACK
6
CONTINUOUS
10
186.1999999999999886
20
-112.7999999999999972
11
187.4000000000000057
21
-112.7999999999999972
0
LINE
8
BLACK
6
CONTINUOUS
10
187.4000000000000057
20
-110.5999999999999943
11
187.4000000000000057
21
-112.7999999999999972
0
LINE
8
BLACK
6
CONTINUOUS
10
197.6999999999999886
20
-114.5999999999999943
11
197.6999999999999886
21
-116.7999999999999972
0
LINE
8
BLACK
6
CONTINUOUS
10
197.6999999999999886
20
-122.5999999999999943
11
197.6999999999999886
21
-120.3999999999999915
0
LINE
8
BLACK
6
CONTINUOUS
10
201.2999999999999829
20
-114.5999999999999943
11
197.6999999999999886
21
-114.5999999999999943
0
LINE
8
BLACK
6
CONTINUOUS
10
201.2999999999999829
20
-122.5999999999999943
11
197.6999999999999886
21
-122.5999999999999943
0
LINE
8
BLACK
6
CONTINUOUS
10
205.3999999999999773
20
-116.3999999999999915
11
205.3999999999999773
21
-120.7999999999999972
0
LINE
8
BLACK
6
CONTINUOUS
10
186.1999999999999886
20
-109.1999999999999886
11
186.1999999999999886
21
-107.
0
LINE
8
BLACK
6
CONTINUOUS
10
187.4000000000000057
20
-107.
11
186.1999999999999886
21
-107.
0
LINE
8
BLACK
6
CONTINUOUS
10
187.4000000000000057
20
-107.
11
187.4000000000000057
21
-109.1999999999999886
0
LINE
8
BLACK
6
CONTINUOUS
10
187.4000000000000057
20
-109.1999999999999886
11
186.1999999999999886
21
-109.1999999999999886
0
LINE
8
BLACK
6
CONTINUOUS
10
196.1299999999999955
20
-107.5599999999999881
11
198.6699999999999875
21
-107.5599999999999881
0
LINE
8
BLACK
6
CONTINUOUS
10
196.1299999999999955
20
-112.6400000000000006
11
196.1299999999999955
21
-107.5599999999999881
0
LINE
8
BLACK
6
CONTINUOUS
10
198.6699999999999875
20
-107.5599999999999881
11
198.6699999999999875
21
-112.6400000000000006
0
LINE
8
BLACK
6
CONTINUOUS
10
198.6699999999999875
20
-112.6400000000000006
11
196.1299999999999955
21
-112.6400000000000006
0
LINE
8
BLACK
6
CONTINUOUS
10
186.9499999999999886
20
-115.9499999999999886
11
191.75
21
-115.9499999999999886
0
LINE
8
BLACK
6
CONTINUOUS
10
186.9499999999999886
20
-118.25
11
186.9499999999999886
21
-115.9499999999999886
0
LINE
8
BLACK
6
CONTINUOUS
10
186.9499999999999886
20
-122.4499999999999886
11
186.9499999999999886
21
-120.1499999999999915
0
LINE
8
BLACK
6
CONTINUOUS
10
191.75
20
-115.9499999999999886
11
193.4499999999999886
21
-117.6499999999999915
0
LINE
8
BLACK
6
CONTINUOUS
10
191.75
20
-122.4499999999999886
11
186.9499999999999886
21
-122.4499999999999886
0
LINE
8
BLACK
6
CONTINUOUS
10
193.4499999999999886
20
-117.6499999999999915
11
193.4499999999999886
21
-118.25
0
LINE
8
BLACK
6
CONTINUOUS
10
193.4499999999999886
20
-120.1499999999999915
11
193.4499999999999886
21
-120.75
0
LINE
8
BLACK
6
CONTINUOUS
10
193.4499999999999886
20
-120.75
11
191.75
21
-122.4499999999999886
0
ARC
8
BLACK
10
190.1999999999999886
20
-119.2000010000000003
40
3.0991937499938591
50
17.85033590
51
162.14966410
0
ARC
8
BLACK
10
190.1999999999999886
20
-119.1999989999999912
40
3.0991937499938591
50
-162.14966410
51
-17.85033590
0
LINE
8
BLACK
6
CONTINUOUS
10
173.2999999999999829
20
-106.0049999999999955
11
173.2999999999999829
21
-107.2049999999999983
0
LINE
8
BLACK
6
CONTINUOUS
10
173.2999999999999829
20
-106.0049999999999955
11
175.5
21
-106.0049999999999955
0
LINE
8
BLACK
6
CONTINUOUS
10
175.5
20
-106.0049999999999955
11
175.5
21
-107.2049999999999983
0
LINE
8
BLACK
6
CONTINUOUS
10
175.5
20
-107.2049999999999983
11
173.2999999999999829
21
-107.2049999999999983
0
LINE
8
BLACK
6
CONTINUOUS
10
167.4699999999999989
20
-119.0049999999999955
11
167.4699999999999989
21
-110.6049999999999898
0
LINE
8
BLACK
6
CONTINUOUS
10
171.5699999999999932
20
-108.8049999999999926
11
175.1699999999999875
21
-108.8049999999999926
0
LINE
8
BLACK
6
CONTINUOUS
10
171.5699999999999932
20
-120.8049999999999926
11
175.1699999999999875
21
-120.8049999999999926
0
LINE
8
BLACK
6
CONTINUOUS
10
175.1699999999999875
20
-108.8049999999999926
11
175.1699999999999875
21
-111.0049999999999955
0
LINE
8
BLACK
6
CONTINUOUS
10
175.1699999999999875
20
-120.8049999999999926
11
175.1699999999999875
21
-118.6049999999999898
0
LINE
8
BLACK
6
CONTINUOUS
10
187.8400000000000034
20
-109.8999999999999915
11
187.8400000000000034
21
-107.9499999999999886
0
LINE
8
BLACK
6
CONTINUOUS
10
187.8400000000000034
20
-109.8999999999999915
11
187.8400000000000034
21
-113.3499999999999943
0
LINE
8
BLACK
6
CONTINUOUS
10
192.9599999999999795
20
-109.8999999999999915
11
192.9599999999999795
21
-107.9499999999999886
0
LINE
8
BLACK
6
CONTINUOUS
10
192.9599999999999795
20
-109.8999999999999915
11
192.9599999999999795
21
-111.8499999999999943
0
LINE
8
BLACK
6
CONTINUOUS
10
172.379335999999995
20
-122.3479589999999888
11
172.3820419999999842
21
-122.3506649999999922
0
LINE
8
BLACK
6
CONTINUOUS
10
172.3820419999999842
20
-122.3506649999999922
11
172.3824160000000063
21
-122.6132439999999946
0
LINE
8
BLACK
6
CONTINUOUS
10
172.3824160000000063
20
-122.6132439999999946
11
173.3200449999999933
21
-122.6128659999999968
0
LINE
8
BLACK
6
CONTINUOUS
10
173.3200449999999933
20
-122.6128659999999968
11
173.3219579999999951
21
-122.6132470000000012
0
LINE
8
BLACK
6
CONTINUOUS
10
173.3219579999999951
20
-122.6132470000000012
11
173.3246639999999843
21
-122.6159529999999904
0
LINE
8
BLACK
6
CONTINUOUS
10
173.3246639999999843
20
-122.6159529999999904
11
173.3250400000000013
21
-123.0478589999999883
0
LINE
8
BLACK
6
CONTINUOUS
10
173.3250400000000013
20
-123.0478589999999883
11
173.5627559999999789
21
-123.0474889999999988
0
LINE
8
BLACK
6
CONTINUOUS
10
173.5627559999999789
20
-123.0474889999999988
11
173.5646689999999808
21
-123.047869999999989
0
LINE
8
BLACK
6
CONTINUOUS
10
173.5646689999999808
20
-123.047869999999989
11
173.5673749999999984
21
-123.0505759999999924
0
LINE
8
BLACK
6
CONTINUOUS
10
173.5673749999999984
20
-123.0505759999999924
11
173.5677499999999895
21
-123.3978209999999933
0
LINE
8
BLACK
6
CONTINUOUS
10
173.5677499999999895
20
-123.3978209999999933
11
174.420710999999983
21
-123.397443999999993
0
LINE
8
BLACK
6
CONTINUOUS
10
174.420710999999983
20
-123.397443999999993
11
174.4226239999999848
21
-123.3978249999999974
0
LINE
8
BLACK
6
CONTINUOUS
10
174.4226239999999848
20
-123.3978249999999974
11
174.4253300000000024
21
-123.4005310000000009
0
LINE
8
BLACK
6
CONTINUOUS
10
174.4253300000000024
20
-123.4005310000000009
11
174.4257109999999784
21
-123.8088439999999935
0
LINE
8
BLACK
6
CONTINUOUS
10
174.4257109999999784
20
-123.8088439999999935
11
174.4253300000000024
21
-123.8107569999999953
0
LINE
8
BLACK
6
CONTINUOUS
10
174.4253300000000024
20
-123.8107569999999953
11
174.4226239999999848
21
-123.8134629999999987
0
LINE
8
BLACK
6
CONTINUOUS
10
174.4226239999999848
20
-123.8134629999999987
11
173.5673819999999807
21
-123.8138409999999965
0
LINE
8
BLACK
6
CONTINUOUS
10
173.5673819999999807
20
-123.8138409999999965
11
173.5677560000000028
21
-124.1531549999999982
0
LINE
8
BLACK
6
CONTINUOUS
10
173.5677560000000028
20
-124.1531549999999982
11
173.5673749999999984
21
-124.155068
0
LINE
8
BLACK
6
CONTINUOUS
10
173.5673749999999984
20
-124.155068
11
173.5646689999999808
21
-124.1577739999999892
0
LINE
8
BLACK
6
CONTINUOUS
10
173.5646689999999808
20
-124.1577739999999892
11
173.3246690000000001
21
-124.1581469999999996
0
LINE
8
BLACK
6
CONTINUOUS
10
173.3246690000000001
20
-124.1581469999999996
11
173.3250449999999887
21
-124.5945979999999906
0
LINE
8
BLACK
6
CONTINUOUS
10
173.3250449999999887
20
-124.5945979999999906
11
173.3246639999999843
21
-124.5965109999999925
0
LINE
8
BLACK
6
CONTINUOUS
10
173.3246639999999843
20
-124.5965109999999925
11
173.3246589999999969
21
-124.5965149999999966
0
LINE
8
BLACK
6
CONTINUOUS
10
173.3246589999999969
20
-124.5965149999999966
11
173.3246589999999969
21
-124.5965239999999881
0
LINE
8
BLACK
6
CONTINUOUS
10
173.3246589999999969
20
-124.5965239999999881
11
173.3233229999999878
21
-124.5978519999999889
0
LINE
8
BLACK
6
CONTINUOUS
10
173.3233229999999878
20
-124.5978519999999889
11
173.3219579999999951
21
-124.5992169999999959
0
LINE
8
BLACK
6
CONTINUOUS
10
173.3219579999999951
20
-124.5992169999999959
11
173.3219499999999869
21
-124.5992169999999959
0
LINE
8
BLACK
6
CONTINUOUS
10
173.3219499999999869
20
-124.5992169999999959
11
173.3219449999999995
21
-124.5992219999999975
0
LINE
8
BLACK
6
CONTINUOUS
10
173.3219449999999995
20
-124.5992219999999975
11
173.3194029999999941
21
-124.5992169999999959
0
LINE
8
BLACK
6
CONTINUOUS
10
173.3194029999999941
20
-124.5992169999999959
11
173.3181319999999914
21
-124.5992169999999959
0
LINE
8
BLACK
6
CONTINUOUS
10
173.3181319999999914
20
-124.5992169999999959
11
173.318128999999999
21
-124.5992139999999893
0
LINE
8
BLACK
6
CONTINUOUS
10
173.318128999999999
20
-124.5992139999999893
11
172.8755309999999952
21
-124.5983439999999973
0
LINE
8
BLACK
6
CONTINUOUS
10
172.8755309999999952
20
-124.5983439999999973
11
172.8737150000000042
21
-124.5979770000000002
0
LINE
8
BLACK
6
CONTINUOUS
10
172.8737150000000042
20
-124.5979770000000002
11
172.8049979999999834
21
-124.5981539999999939
0
LINE
8
BLACK
6
CONTINUOUS
10
172.8049979999999834
20
-124.5981539999999939
11
172.8031909999999982
21
-124.5977889999999917
0
LINE
8
BLACK
6
CONTINUOUS
10
172.8031909999999982
20
-124.5977889999999917
11
172.7372399999999857
21
-124.5979899999999958
0
LINE
8
BLACK
6
CONTINUOUS
10
172.7372399999999857
20
-124.5979899999999958
11
172.7354389999999853
21
-124.5976259999999911
0
LINE
8
BLACK
6
CONTINUOUS
10
172.7354389999999853
20
-124.5976259999999911
11
172.6731769999999813
21
-124.5978519999999889
0
LINE
8
BLACK
6
CONTINUOUS
10
172.6731769999999813
20
-124.5978519999999889
11
172.6713839999999891
21
-124.5974909999999909
0
LINE
8
BLACK
6
CONTINUOUS
10
172.6713839999999891
20
-124.5974909999999909
11
172.6137319999999988
21
-124.5977419999999967
0
LINE
8
BLACK
6
CONTINUOUS
10
172.6137319999999988
20
-124.5977419999999967
11
172.6119510000000048
21
-124.5973829999999936
0
LINE
8
BLACK
6
CONTINUOUS
10
172.6119510000000048
20
-124.5973829999999936
11
172.5598229999999944
21
-124.597660999999988
0
LINE
8
BLACK
6
CONTINUOUS
10
172.5598229999999944
20
-124.597660999999988
11
172.5580579999999884
21
-124.597305999999989
0
LINE
8
BLACK
6
CONTINUOUS
10
172.5580579999999884
20
-124.597305999999989
11
172.5123759999999891
21
-124.5976110000000006
0
LINE
8
BLACK
6
CONTINUOUS
10
172.5123759999999891
20
-124.5976110000000006
11
172.5106339999999818
21
-124.5972620000000006
0
LINE
8
BLACK
6
CONTINUOUS
10
172.5106339999999818
20
-124.5972620000000006
11
172.4723099999999931
21
-124.5975909999999942
0
LINE
8
BLACK
6
CONTINUOUS
10
172.4723099999999931
20
-124.5975909999999942
11
172.4706089999999961
21
-124.597251
0
LINE
8
BLACK
6
CONTINUOUS
10
172.4706089999999961
20
-124.597251
11
172.4405469999999809
21
-124.5976039999999898
0
LINE
8
BLACK
6
CONTINUOUS
10
172.4405469999999809
20
-124.5976039999999898
11
172.4389229999999884
21
-124.5972809999999953
0
LINE
8
BLACK
6
CONTINUOUS
10
172.4389229999999884
20
-124.5972809999999953
11
172.4180120000000045
21
-124.5976499999999874
0
LINE
8
BLACK
6
CONTINUOUS
10
172.4180120000000045
20
-124.5976499999999874
11
172.4165789999999845
21
-124.5973669999999913
0
LINE
8
BLACK
6
CONTINUOUS
10
172.4165789999999845
20
-124.5973669999999913
11
172.4056369999999845
21
-124.597730999999996
0
LINE
8
BLACK
6
CONTINUOUS
10
172.4056369999999845
20
-124.597730999999996
11
172.4051699999999983
21
-124.5976409999999959
0
LINE
8
BLACK
6
CONTINUOUS
10
172.4051699999999983
20
-124.5976409999999959
11
172.404325
21
-124.5977549999999923
0
LINE
8
BLACK
6
CONTINUOUS
10
172.404325
20
-124.5977549999999923
11
172.4026979999999867
21
-124.5974609999999956
0
LINE
8
BLACK
6
CONTINUOUS
10
172.4026979999999867
20
-124.5974609999999956
11
172.3820519999999874
21
-124.5982479999999981
0
LINE
8
BLACK
6
CONTINUOUS
10
172.3820519999999874
20
-124.5982479999999981
11
172.3824229999999886
21
-124.8474219999999946
0
LINE
8
BLACK
6
CONTINUOUS
10
172.3824229999999886
20
-124.8474219999999946
11
172.3820419999999842
21
-124.8493349999999964
0
LINE
8
BLACK
6
CONTINUOUS
10
172.3820419999999842
20
-124.8493349999999964
11
172.379335999999995
21
-124.8520409999999998
0
LINE
8
BLACK
6
CONTINUOUS
10
172.379335999999995
20
-124.8520409999999998
11
171.5984890000000007
21
-124.85242199999999
0
LINE
8
BLACK
6
CONTINUOUS
10
171.5984890000000007
20
-124.85242199999999
11
171.5965759999999989
21
-124.8520409999999998
0
LINE
8
BLACK
6
CONTINUOUS
10
171.5965759999999989
20
-124.8520409999999998
11
171.5938699999999812
21
-124.8493349999999964
0
LINE
8
BLACK
6
CONTINUOUS
10
171.5938699999999812
20
-124.8493349999999964
11
171.5934890000000053
21
-124.7288889999999952
0
LINE
8
BLACK
6
CONTINUOUS
10
171.5934890000000053
20
-124.7288889999999952
11
171.5938589999999806
21
-124.7270299999999992
0
LINE
8
BLACK
6
CONTINUOUS
10
171.5938589999999806
20
-124.7270299999999992
11
171.5935029999999983
21
-124.604061999999999
0
LINE
8
BLACK
6
CONTINUOUS
10
171.5935029999999983
20
-124.604061999999999
11
171.7329489999999907
21
-124.604061999999999
0
LINE
8
BLACK
6
CONTINUOUS
10
171.7329489999999907
20
-124.604061999999999
11
171.7332969999999932
21
-124.7242649999999884
0
LINE
8
BLACK
6
CONTINUOUS
10
171.7332969999999932
20
-124.7242649999999884
11
172.2486059999999952
21
-124.7238919999999922
0
LINE
8
BLACK
6
CONTINUOUS
10
172.2486059999999952
20
-124.7238919999999922
11
172.2482579999999928
21
-124.6036889999999886
0
LINE
8
BLACK
6
CONTINUOUS
10
172.2482579999999928
20
-124.6036889999999886
11
171.7329489999999907
21
-124.604061999999999
0
LINE
8
BLACK
6
CONTINUOUS
10
171.7329489999999907
20
-124.604061999999999
11
171.5935029999999983
21
-124.604061999999999
0
LINE
8
BLACK
6
CONTINUOUS
10
171.5935029999999983
20
-124.604061999999999
11
171.5934890000000053
21
-124.5990659999999934
0
LINE
8
BLACK
6
CONTINUOUS
10
171.5934890000000053
20
-124.5990659999999934
11
171.5936920000000043
21
-124.5980429999999899
0
LINE
8
BLACK
6
CONTINUOUS
10
171.5936920000000043
20
-124.5980429999999899
11
170.3454229999999825
21
-124.5984219999999993
0
LINE
8
BLACK
6
CONTINUOUS
10
170.3454229999999825
20
-124.5984219999999993
11
170.3435099999999807
21
-124.5980409999999949
0
LINE
8
BLACK
6
CONTINUOUS
10
170.3435099999999807
20
-124.5980409999999949
11
170.3408039999999914
21
-124.5953349999999915
0
LINE
8
BLACK
6
CONTINUOUS
10
170.3408039999999914
20
-124.5953349999999915
11
170.3408039999999914
21
-124.5952439999999939
0
LINE
8
BLACK
6
CONTINUOUS
10
170.3408039999999914
20
-124.5952439999999939
11
170.340422999999987
21
-124.4692439999999891
0
LINE
8
BLACK
6
CONTINUOUS
10
170.340422999999987
20
-124.4692439999999891
11
170.340802999999994
21
-124.4673349999999914
0
LINE
8
BLACK
6
CONTINUOUS
10
170.340802999999994
20
-124.4673349999999914
11
170.3404239999999845
21
-122.7413949999999971
0
LINE
8
BLACK
6
CONTINUOUS
10
170.3404239999999845
20
-122.7413949999999971
11
170.4685759999999846
21
-122.7413949999999971
0
LINE
8
BLACK
6
CONTINUOUS
10
170.4685759999999846
20
-122.7413949999999971
11
170.4689539999999965
21
-124.4646179999999873
0
LINE
8
BLACK
6
CONTINUOUS
10
170.4689539999999965
20
-124.4646179999999873
11
170.8826679999999953
21
-124.4642479999999978
0
LINE
8
BLACK
6
CONTINUOUS
10
170.8826679999999953
20
-124.4642479999999978
11
170.8822899999999834
21
-122.7413990000000013
0
LINE
8
BLACK
6
CONTINUOUS
10
170.8822899999999834
20
-122.7413990000000013
11
171.0160869999999989
21
-122.7413990000000013
0
LINE
8
BLACK
6
CONTINUOUS
10
171.0160869999999989
20
-122.7413990000000013
11
171.0164649999999824
21
-124.4646229999999889
0
LINE
8
BLACK
6
CONTINUOUS
10
171.0164649999999824
20
-124.4646229999999889
11
173.1912419999999884
21
-124.4642439999999937
0
LINE
8
BLACK
6
CONTINUOUS
10
173.1912419999999884
20
-124.4642439999999937
11
173.1908669999999972
21
-124.0289779999999951
0
LINE
8
BLACK
6
CONTINUOUS
10
173.1908669999999972
20
-124.0289779999999951
11
173.1912459999999783
21
-124.0270730000000015
0
LINE
8
BLACK
6
CONTINUOUS
10
173.1912459999999783
20
-124.0270730000000015
11
173.1908689999999922
21
-123.181650999999988
0
LINE
8
BLACK
6
CONTINUOUS
10
173.1908689999999922
20
-123.181650999999988
11
173.3246670000000051
21
-123.181650999999988
0
LINE
8
BLACK
6
CONTINUOUS
10
173.3246670000000051
20
-123.181650999999988
11
173.3250419999999963
21
-124.0243369999999885
0
LINE
8
BLACK
6
CONTINUOUS
10
173.3250419999999963
20
-124.0243369999999885
11
173.4339509999999791
21
-124.0239919999999927
0
LINE
8
BLACK
6
CONTINUOUS
10
173.4339509999999791
20
-124.0239919999999927
11
173.4335779999999829
21
-123.6846659999999929
0
LINE
8
BLACK
6
CONTINUOUS
10
173.4335779999999829
20
-123.6846659999999929
11
173.4339489999999842
21
-123.6827979999999911
0
LINE
8
BLACK
6
CONTINUOUS
10
173.4339489999999842
20
-123.6827979999999911
11
173.433589999999981
21
-123.5316189999999921
0
LINE
8
BLACK
6
CONTINUOUS
10
173.433589999999981
20
-123.5316189999999921
11
173.5673909999999864
21
-123.5316189999999921
0
LINE
8
BLACK
6
CONTINUOUS
10
173.5673909999999864
20
-123.5316189999999921
11
173.5677440000000047
21
-123.6800429999999977
0
LINE
8
BLACK
6
CONTINUOUS
10
173.5677440000000047
20
-123.6800429999999977
11
174.2975419999999929
21
-123.6796679999999924
0
LINE
8
BLACK
6
CONTINUOUS
10
174.2975419999999929
20
-123.6796679999999924
11
174.297189000000003
21
-123.5312440000000009
0
LINE
8
BLACK
6
CONTINUOUS
10
174.297189000000003
20
-123.5312440000000009
11
173.5673909999999864
21
-123.5316189999999921
0
LINE
8
BLACK
6
CONTINUOUS
10
173.5673909999999864
20
-123.5316189999999921
11
173.433589999999981
21
-123.5316189999999921
0
LINE
8
BLACK
6
CONTINUOUS
10
173.433589999999981
20
-123.5316189999999921
11
173.4335779999999829
21
-123.526621999999989
0
LINE
8
BLACK
6
CONTINUOUS
10
173.4335779999999829
20
-123.526621999999989
11
173.433954
21
-123.5247289999999936
0
LINE
8
BLACK
6
CONTINUOUS
10
173.433954
20
-123.5247289999999936
11
173.4335829999999987
21
-123.1813059999999922
0
LINE
8
BLACK
6
CONTINUOUS
10
173.4335829999999987
20
-123.1813059999999922
11
173.3246670000000051
21
-123.181650999999988
0
LINE
8
BLACK
6
CONTINUOUS
10
173.3246670000000051
20
-123.181650999999988
11
173.1908689999999922
21
-123.181650999999988
0
LINE
8
BLACK
6
CONTINUOUS
10
173.1908689999999922
20
-123.181650999999988
11
173.1908669999999972
21
-123.1766659999999973
0
LINE
8
BLACK
6
CONTINUOUS
10
173.1908669999999972
20
-123.1766659999999973
11
173.1912439999999833
21
-123.1747689999999977
0
LINE
8
BLACK
6
CONTINUOUS
10
173.1912439999999833
20
-123.1747689999999977
11
173.1908699999999897
21
-122.7410199999999918
0
LINE
8
BLACK
6
CONTINUOUS
10
173.1908699999999897
20
-122.7410199999999918
11
171.0160869999999989
21
-122.7413990000000013
0
LINE
8
BLACK
6
CONTINUOUS
10
171.0160869999999989
20
-122.7413990000000013
11
170.8822899999999834
21
-122.7413990000000013
0
LINE
8
BLACK
6
CONTINUOUS
10
170.8822899999999834
20
-122.7413990000000013
11
170.8822899999999834
21
-122.7410249999999934
0
LINE
8
BLACK
6
CONTINUOUS
10
170.8822899999999834
20
-122.7410249999999934
11
170.4685759999999846
21
-122.7413949999999971
0
LINE
8
BLACK
6
CONTINUOUS
10
170.4685759999999846
20
-122.7413949999999971
11
170.3404239999999845
21
-122.7413949999999971
0
LINE
8
BLACK
6
CONTINUOUS
10
170.3404239999999845
20
-122.7413949999999971
11
170.340422999999987
21
-122.7363999999999891
0
LINE
8
BLACK
6
CONTINUOUS
10
170.340422999999987
20
-122.7363999999999891
11
170.3407919999999933
21
-122.7345459999999946
0
LINE
8
BLACK
6
CONTINUOUS
10
170.3407919999999933
20
-122.7345459999999946
11
170.340422999999987
21
-122.6178659999999923
0
LINE
8
BLACK
6
CONTINUOUS
10
170.340422999999987
20
-122.6178659999999923
11
170.3408039999999914
21
-122.6159529999999904
0
LINE
8
BLACK
6
CONTINUOUS
10
170.3408039999999914
20
-122.6159529999999904
11
170.3435099999999807
21
-122.6132470000000012
0
LINE
8
BLACK
6
CONTINUOUS
10
170.3435099999999807
20
-122.6132470000000012
11
171.5993149999999901
21
-122.6128669999999943
0
LINE
8
BLACK
6
CONTINUOUS
10
171.5993149999999901
20
-122.6128669999999943
11
171.5991339999999923
21
-122.606577999999999
0
LINE
8
BLACK
6
CONTINUOUS
10
171.5991339999999923
20
-122.606577999999999
11
171.599503999999996
21
-122.6047169999999937
0
LINE
8
BLACK
6
CONTINUOUS
10
171.599503999999996
20
-122.6047169999999937
11
171.5991479999999854
21
-122.4761069999999989
0
LINE
8
BLACK
6
CONTINUOUS
10
171.5991479999999854
20
-122.4761069999999989
11
171.7329489999999907
21
-122.4761069999999989
0
LINE
8
BLACK
6
CONTINUOUS
10
171.7329489999999907
20
-122.4761069999999989
11
171.7332979999999907
21
-122.6019539999999921
0
LINE
8
BLACK
6
CONTINUOUS
10
171.7332979999999907
20
-122.6019539999999921
11
172.2486059999999952
21
-122.6015809999999959
0
LINE
8
BLACK
6
CONTINUOUS
10
172.2486059999999952
20
-122.6015809999999959
11
172.2482569999999953
21
-122.4757339999999886
0
LINE
8
BLACK
6
CONTINUOUS
10
172.2482569999999953
20
-122.4757339999999886
11
171.7329489999999907
21
-122.4761069999999989
0
LINE
8
BLACK
6
CONTINUOUS
10
171.7329489999999907
20
-122.4761069999999989
11
171.5991479999999854
21
-122.4761069999999989
0
LINE
8
BLACK
6
CONTINUOUS
10
171.5991479999999854
20
-122.4761069999999989
11
171.5991339999999923
21
-122.4711109999999934
0
LINE
8
BLACK
6
CONTINUOUS
10
171.5991339999999923
20
-122.4711109999999934
11
171.5995029999999986
21
-122.4692569999999989
0
LINE
8
BLACK
6
CONTINUOUS
10
171.5995029999999986
20
-122.4692569999999989
11
171.5991339999999923
21
-122.3525779999999941
0
LINE
8
BLACK
6
CONTINUOUS
10
171.5991339999999923
20
-122.3525779999999941
11
171.5995149999999967
21
-122.3506649999999922
0
LINE
8
BLACK
6
CONTINUOUS
10
171.5995149999999967
20
-122.3506649999999922
11
171.6022209999999859
21
-122.3479589999999888
0
LINE
8
BLACK
6
CONTINUOUS
10
171.6022209999999859
20
-122.3479589999999888
11
172.3774229999999932
21
-122.3475779999999986
0
LINE
8
BLACK
6
CONTINUOUS
10
172.3774229999999932
20
-122.3475779999999986
11
172.379335999999995
21
-122.3479589999999888
0
LINE
8
BLACK
6
CONTINUOUS
10
167.6599999999999966
20
-105.7349999999999994
11
172.7399999999999807
21
-105.7349999999999994
0
LINE
8
BLACK
6
CONTINUOUS
10
167.6599999999999966
20
-108.2749999999999915
11
167.6599999999999966
21
-105.7349999999999994
0
LINE
8
BLACK
6
CONTINUOUS
10
172.7399999999999807
20
-105.7349999999999994
11
172.7399999999999807
21
-108.2749999999999915
0
LINE
8
BLACK
6
CONTINUOUS
10
172.7399999999999807
20
-108.2749999999999915
11
167.6599999999999966
21
-108.2749999999999915
0
LINE
8
BLACK
6
CONTINUOUS
10
177.25
20
-106.4050000000000011
11
177.5499999999999829
21
-106.6049999999999898
0
LINE
8
BLACK
6
CONTINUOUS
10
177.25
20
-106.8049999999999926
11
177.25
21
-106.4050000000000011
0
LINE
8
BLACK
6
CONTINUOUS
10
177.5499999999999829
20
-106.6049999999999898
11
177.25
21
-106.8049999999999926
0
LINE
8
BLACK
6
CONTINUOUS
10
177.5999999999999943
20
-106.8049999999999926
11
177.5999999999999943
21
-106.4050000000000011
0
LINE
8
BLACK
6
CONTINUOUS
10
178.6999999999999886
20
-106.1049999999999898
11
176.5999999999999943
21
-106.1049999999999898
0
LINE
8
BLACK
6
CONTINUOUS
10
178.6999999999999886
20
-107.1049999999999898
11
176.5999999999999943
21
-107.1049999999999898
0
LINE
8
BLACK
6
CONTINUOUS
10
178.6999999999999886
20
-107.1049999999999898
11
178.6999999999999886
21
-106.1049999999999898
0
ARC
8
BLACK
10
170.5999999999999943
20
-106.7999999999999972
40
3.1999999999999997
50
90.00000000
51
180.00000000
0
LINE
8
BLACK
6
CONTINUOUS
10
205.7999999999999829
20
-122.7999999999999972
11
205.7999999999999829
21
-106.7999999999999972
0
LINE
8
BLACK
6
CONTINUOUS
10
170.5999999999999943
20
-126.
11
202.5999999999999943
21
-126.
0
ARC
8
BLACK
10
202.5999999999999943
20
-122.7999999999999972
40
3.1999999999999997
50
-90.00000000
51
-0.00000000
0
ARC
8
BLACK
10
170.5999999999999943
20
-122.7999999999999972
40
3.1999999999999997
50
-180.00000000
51
-90.00000000
0
ARC
8
BLACK
10
202.5999999999999943
20
-106.7999999999999972
40
3.1999999999999997
50
0.00000000
51
90.00000000
0
LINE
8
BLACK
6
CONTINUOUS
10
167.4000000000000057
20
-106.7999999999999972
11
167.4000000000000057
21
-122.7999999999999972
0
LINE
8
BLACK
6
CONTINUOUS
10
170.5999999999999943
20
-103.5999999999999943
11
202.5999999999999943
21
-103.5999999999999943
  0
ENDSEC
  0
EOF
