  0
SECTION
  2
HEADER
  9
$ANGBASE
  50
0.0
  9
$ANGDIR
  70
1
  9
$MEASUREMENT
  70
1
  0
ENDSEC
  0
SECTION
  2
TABLES
  0
TABLE
  2
LTYPE
  70
4
  0
LTYPE
  5
40F
  2
CONTINUOUS
  70
0
  3
Solid line
  72
65
  73
0
  40
0.0
  0
LTYPE
  5
410
  2
DASHDOT
 70
0
  3
Dash Dot ____ _ ____ _
 72
65
 73
4
 40
2.0
 49
1.25
 49
-0.25
 49
0.25
 49
-0.25
  0
LTYPE
  5
411
  2
DASHED
 70
0
  3
Dashed __ __ __ __ __
 72
65
 73
2
 40
0.75
 49
0.5
 49
-0.25
  0
LTYPE
  5
43B
  2
DOTTED
 70
0
  3
Dotted .  .  .  .
 72
65
 73
2
 40
0.2
 49
0.0
 49
-0.2
  0
ENDTAB
  0
TABLE
  2
STYLE
  70
4
  0
STYLE
  2
KICAD
  70
0
  40
0
  41
1
  42
1
  50
0
  71
0
  3
isocp.shx
  0
STYLE
  2
KICADB
  70
0
  40
0
  41
1
  42
1
  50
0
  71
0
  3
isocp.shx
  0
STYLE
  2
KICADI
  70
0
  40
0
  41
1
  42
1
  50
15
  71
0
  3
isocp.shx
  0
STYLE
  2
KICADBI
  70
0
  40
0
  41
1
  42
1
  50
15
  71
0
  3
isocp.shx
  0
ENDTAB
  0
TABLE
  2
LAYER
  70
1
  0
LAYER
  2
BLACK
  70
0
  62
7
  6
CONTINUOUS
  0
ENDTAB
  0
ENDSEC
  0
SECTION
  2
ENTITIES
0
CIRCLE
8
BLACK
10
372.5
20
-78.3999999999999915
40
1.5
0
CIRCLE
8
BLACK
10
372.5
20
-94.3999999999999915
40
1.5
0
LINE
8
BLACK
6
CONTINUOUS
10
389.8738659999999641
20
-85.7809510000000017
11
389.8738659999999641
21
-85.0190470000000005
0
LINE
8
BLACK
6
CONTINUOUS
10
380.0465379999999982
20
-84.8547619999999938
11
380.0989189999999667
21
-84.75
0
LINE
8
BLACK
6
CONTINUOUS
10
380.0989189999999667
20
-84.75
11
380.0989189999999667
21
-84.5928569999999951
0
LINE
8
BLACK
6
CONTINUOUS
10
380.0989189999999667
20
-84.5928569999999951
11
380.0465379999999982
21
-84.4357139999999902
0
LINE
8
BLACK
6
CONTINUOUS
10
380.0465379999999982
20
-84.4357139999999902
11
379.9417760000000044
21
-84.3309519999999964
0
LINE
8
BLACK
6
CONTINUOUS
10
379.9417760000000044
20
-84.3309519999999964
11
379.8370140000000106
21
-84.2785709999999995
0
LINE
8
BLACK
6
CONTINUOUS
10
379.8370140000000106
20
-84.2785709999999995
11
379.6274899999999661
21
-84.2261900000000026
0
LINE
8
BLACK
6
CONTINUOUS
10
379.6274899999999661
20
-84.2261900000000026
11
379.4703470000000038
21
-84.2261900000000026
0
LINE
8
BLACK
6
CONTINUOUS
10
379.4703470000000038
20
-84.2261900000000026
11
379.2608229999999594
21
-84.2785709999999995
0
LINE
8
BLACK
6
CONTINUOUS
10
379.2608229999999594
20
-84.2785709999999995
11
379.1560609999999656
21
-84.3309519999999964
0
LINE
8
BLACK
6
CONTINUOUS
10
379.1560609999999656
20
-84.3309519999999964
11
379.0512999999999693
21
-84.4357139999999902
0
LINE
8
BLACK
6
CONTINUOUS
10
379.0512999999999693
20
-84.4357139999999902
11
378.9989190000000008
21
-84.5928569999999951
0
LINE
8
BLACK
6
CONTINUOUS
10
378.9989190000000008
20
-84.5928569999999951
11
378.9989190000000008
21
-84.6976190000000031
0
LINE
8
BLACK
6
CONTINUOUS
10
378.9989190000000008
20
-84.6976190000000031
11
379.0512999999999693
21
-84.8547619999999938
0
LINE
8
BLACK
6
CONTINUOUS
10
379.0512999999999693
20
-84.8547619999999938
11
379.1036799999999971
21
-84.9071429999999907
0
LINE
8
BLACK
6
CONTINUOUS
10
379.1036799999999971
20
-84.9071429999999907
11
379.4703470000000038
21
-84.9071429999999907
0
LINE
8
BLACK
6
CONTINUOUS
10
379.4703470000000038
20
-84.9071429999999907
11
379.4703470000000038
21
-84.6976190000000031
0
LINE
8
BLACK
6
CONTINUOUS
10
380.0989189999999667
20
-86.0595229999999987
11
378.9989190000000008
21
-86.4261899999999912
0
LINE
8
BLACK
6
CONTINUOUS
10
378.9989190000000008
20
-86.4261899999999912
11
380.0989189999999667
21
-86.7928569999999979
0
LINE
8
BLACK
6
CONTINUOUS
10
379.0512999999999693
20
-87.9452369999999917
11
378.9989190000000008
21
-88.1023799999999966
0
LINE
8
BLACK
6
CONTINUOUS
10
378.9989190000000008
20
-88.1023799999999966
11
378.9989190000000008
21
-88.3642849999999953
0
LINE
8
BLACK
6
CONTINUOUS
10
378.9989190000000008
20
-88.3642849999999953
11
379.0512999999999693
21
-88.4690469999999891
0
LINE
8
BLACK
6
CONTINUOUS
10
379.0512999999999693
20
-88.4690469999999891
11
379.1036799999999971
21
-88.5214280000000002
0
LINE
8
BLACK
6
CONTINUOUS
10
379.1036799999999971
20
-88.5214280000000002
11
379.2084419999999909
21
-88.5738089999999971
0
LINE
8
BLACK
6
CONTINUOUS
10
379.2084419999999909
20
-88.5738089999999971
11
379.3132039999999847
21
-88.5738089999999971
0
LINE
8
BLACK
6
CONTINUOUS
10
379.3132039999999847
20
-88.5738089999999971
11
379.4179659999999785
21
-88.5214280000000002
0
LINE
8
BLACK
6
CONTINUOUS
10
379.4179659999999785
20
-88.5214280000000002
11
379.4703470000000038
21
-88.4690469999999891
0
LINE
8
BLACK
6
CONTINUOUS
10
379.4703470000000038
20
-88.4690469999999891
11
379.5227279999999723
21
-88.3642849999999953
0
LINE
8
BLACK
6
CONTINUOUS
10
379.5227279999999723
20
-88.3642849999999953
11
379.5751089999999976
21
-88.1547609999999935
0
LINE
8
BLACK
6
CONTINUOUS
10
379.5751089999999976
20
-88.1547609999999935
11
379.6274899999999661
21
-88.0499989999999997
0
LINE
8
BLACK
6
CONTINUOUS
10
379.6274899999999661
20
-88.0499989999999997
11
379.6798709999999915
21
-87.9976180000000028
0
LINE
8
BLACK
6
CONTINUOUS
10
379.6798709999999915
20
-87.9976180000000028
11
379.7846329999999853
21
-87.9452369999999917
0
LINE
8
BLACK
6
CONTINUOUS
10
379.7846329999999853
20
-87.9452369999999917
11
379.8893949999999791
21
-87.9452369999999917
0
LINE
8
BLACK
6
CONTINUOUS
10
379.8893949999999791
20
-87.9452369999999917
11
379.9941569999999729
21
-87.9976180000000028
0
LINE
8
BLACK
6
CONTINUOUS
10
379.9941569999999729
20
-87.9976180000000028
11
380.0465379999999982
21
-88.0499989999999997
0
LINE
8
BLACK
6
CONTINUOUS
10
380.0465379999999982
20
-88.0499989999999997
11
380.0989189999999667
21
-88.1547609999999935
0
LINE
8
BLACK
6
CONTINUOUS
10
380.0989189999999667
20
-88.1547609999999935
11
380.0989189999999667
21
-88.4166659999999922
0
LINE
8
BLACK
6
CONTINUOUS
10
380.0989189999999667
20
-88.4166659999999922
11
380.0465379999999982
21
-88.5738089999999971
0
LINE
8
BLACK
6
CONTINUOUS
10
389.4740370000000098
20
-87.3888659999999931
11
390.2359419999999659
21
-87.3888659999999931
0
LINE
8
BLACK
6
CONTINUOUS
10
389.8549889999999891
20
-87.7698189999999983
11
389.8549889999999891
21
-87.0079139999999995
0
LINE
8
BLACK
6
CONTINUOUS
10
373.2380959999999845
20
-99.2548189999999977
11
373.8571430000000078
21
-99.2548189999999977
0
LINE
8
BLACK
6
CONTINUOUS
10
373.8571430000000078
20
-99.2548189999999977
11
373.523809999999969
21
-99.6357709999999912
0
LINE
8
BLACK
6
CONTINUOUS
10
373.523809999999969
20
-99.6357709999999912
11
373.6666669999999613
21
-99.6357709999999912
0
LINE
8
BLACK
6
CONTINUOUS
10
373.6666669999999613
20
-99.6357709999999912
11
373.7619049999999561
21
-99.6833899999999886
0
LINE
8
BLACK
6
CONTINUOUS
10
373.7619049999999561
20
-99.6833899999999886
11
373.8095240000000103
21
-99.7310090000000002
0
LINE
8
BLACK
6
CONTINUOUS
10
373.8095240000000103
20
-99.7310090000000002
11
373.8571430000000078
21
-99.8262469999999951
0
LINE
8
BLACK
6
CONTINUOUS
10
373.8571430000000078
20
-99.8262469999999951
11
373.8571430000000078
21
-100.0643419999999963
0
LINE
8
BLACK
6
CONTINUOUS
10
373.8571430000000078
20
-100.0643419999999963
11
373.8095240000000103
21
-100.1595799999999912
0
LINE
8
BLACK
6
CONTINUOUS
10
373.8095240000000103
20
-100.1595799999999912
11
373.7619049999999561
21
-100.2072000000000003
0
LINE
8
BLACK
6
CONTINUOUS
10
373.7619049999999561
20
-100.2072000000000003
11
373.6666669999999613
21
-100.2548189999999977
0
LINE
8
BLACK
6
CONTINUOUS
10
373.6666669999999613
20
-100.2548189999999977
11
373.3809529999999768
21
-100.2548189999999977
0
LINE
8
BLACK
6
CONTINUOUS
10
373.3809529999999768
20
-100.2548189999999977
11
373.285714999999982
21
-100.2072000000000003
0
LINE
8
BLACK
6
CONTINUOUS
10
373.285714999999982
20
-100.2072000000000003
11
373.2380959999999845
21
-100.1595799999999912
0
LINE
8
BLACK
6
CONTINUOUS
10
374.285714999999982
20
-100.1595799999999912
11
374.3333339999999794
21
-100.2072000000000003
0
LINE
8
BLACK
6
CONTINUOUS
10
374.3333339999999794
20
-100.2072000000000003
11
374.285714999999982
21
-100.2548189999999977
0
LINE
8
BLACK
6
CONTINUOUS
10
374.285714999999982
20
-100.2548189999999977
11
374.2380959999999845
21
-100.2072000000000003
0
LINE
8
BLACK
6
CONTINUOUS
10
374.2380959999999845
20
-100.2072000000000003
11
374.285714999999982
21
-100.1595799999999912
0
LINE
8
BLACK
6
CONTINUOUS
10
374.285714999999982
20
-100.1595799999999912
11
374.285714999999982
21
-100.2548189999999977
0
LINE
8
BLACK
6
CONTINUOUS
10
374.7142859999999587
20
-99.3500569999999925
11
374.7619049999999561
21
-99.3024379999999951
0
LINE
8
BLACK
6
CONTINUOUS
10
374.7619049999999561
20
-99.3024379999999951
11
374.8571430000000078
21
-99.2548189999999977
0
LINE
8
BLACK
6
CONTINUOUS
10
374.8571430000000078
20
-99.2548189999999977
11
375.0952379999999948
21
-99.2548189999999977
0
LINE
8
BLACK
6
CONTINUOUS
10
375.0952379999999948
20
-99.2548189999999977
11
375.1904759999999897
21
-99.3024379999999951
0
LINE
8
BLACK
6
CONTINUOUS
10
375.1904759999999897
20
-99.3024379999999951
11
375.2380949999999871
21
-99.3500569999999925
0
LINE
8
BLACK
6
CONTINUOUS
10
375.2380949999999871
20
-99.3500569999999925
11
375.2857139999999845
21
-99.4452950000000016
0
LINE
8
BLACK
6
CONTINUOUS
10
375.2857139999999845
20
-99.4452950000000016
11
375.2857139999999845
21
-99.5405329999999964
0
LINE
8
BLACK
6
CONTINUOUS
10
375.2857139999999845
20
-99.5405329999999964
11
375.2380949999999871
21
-99.6833899999999886
0
LINE
8
BLACK
6
CONTINUOUS
10
375.2380949999999871
20
-99.6833899999999886
11
374.6666669999999613
21
-100.2548189999999977
0
LINE
8
BLACK
6
CONTINUOUS
10
374.6666669999999613
20
-100.2548189999999977
11
375.2857139999999845
21
-100.2548189999999977
0
LINE
8
BLACK
6
CONTINUOUS
10
376.4761909999999716
20
-100.2548189999999977
11
376.4761909999999716
21
-99.5881519999999938
0
LINE
8
BLACK
6
CONTINUOUS
10
376.4761909999999716
20
-99.6833899999999886
11
376.523809999999969
21
-99.6357709999999912
0
LINE
8
BLACK
6
CONTINUOUS
10
376.523809999999969
20
-99.6357709999999912
11
376.6190479999999638
21
-99.5881519999999938
0
LINE
8
BLACK
6
CONTINUOUS
10
376.6190479999999638
20
-99.5881519999999938
11
376.7619049999999561
21
-99.5881519999999938
0
LINE
8
BLACK
6
CONTINUOUS
10
376.7619049999999561
20
-99.5881519999999938
11
376.8571430000000078
21
-99.6357709999999912
0
LINE
8
BLACK
6
CONTINUOUS
10
376.8571430000000078
20
-99.6357709999999912
11
376.9047620000000052
21
-99.7310090000000002
0
LINE
8
BLACK
6
CONTINUOUS
10
376.9047620000000052
20
-99.7310090000000002
11
376.9047620000000052
21
-100.2548189999999977
0
LINE
8
BLACK
6
CONTINUOUS
10
376.9047620000000052
20
-99.7310090000000002
11
376.9523810000000026
21
-99.6357709999999912
0
LINE
8
BLACK
6
CONTINUOUS
10
376.9523810000000026
20
-99.6357709999999912
11
377.0476189999999974
21
-99.5881519999999938
0
LINE
8
BLACK
6
CONTINUOUS
10
377.0476189999999974
20
-99.5881519999999938
11
377.1904759999999897
21
-99.5881519999999938
0
LINE
8
BLACK
6
CONTINUOUS
10
377.1904759999999897
20
-99.5881519999999938
11
377.285714999999982
21
-99.6357709999999912
0
LINE
8
BLACK
6
CONTINUOUS
10
377.285714999999982
20
-99.6357709999999912
11
377.3333339999999794
21
-99.7310090000000002
0
LINE
8
BLACK
6
CONTINUOUS
10
377.3333339999999794
20
-99.7310090000000002
11
377.3333339999999794
21
-100.2548189999999977
0
LINE
8
BLACK
6
CONTINUOUS
10
377.8095240000000103
20
-100.2548189999999977
11
377.8095240000000103
21
-99.5881519999999938
0
LINE
8
BLACK
6
CONTINUOUS
10
377.8095240000000103
20
-99.6833899999999886
11
377.8571430000000078
21
-99.6357709999999912
0
LINE
8
BLACK
6
CONTINUOUS
10
377.8571430000000078
20
-99.6357709999999912
11
377.9523810000000026
21
-99.5881519999999938
0
LINE
8
BLACK
6
CONTINUOUS
10
377.9523810000000026
20
-99.5881519999999938
11
378.0952379999999948
21
-99.5881519999999938
0
LINE
8
BLACK
6
CONTINUOUS
10
378.0952379999999948
20
-99.5881519999999938
11
378.1904759999999897
21
-99.6357709999999912
0
LINE
8
BLACK
6
CONTINUOUS
10
378.1904759999999897
20
-99.6357709999999912
11
378.2380949999999871
21
-99.7310090000000002
0
LINE
8
BLACK
6
CONTINUOUS
10
378.2380949999999871
20
-99.7310090000000002
11
378.2380949999999871
21
-100.2548189999999977
0
LINE
8
BLACK
6
CONTINUOUS
10
378.2380949999999871
20
-99.7310090000000002
11
378.2857139999999845
21
-99.6357709999999912
0
LINE
8
BLACK
6
CONTINUOUS
10
378.2857139999999845
20
-99.6357709999999912
11
378.3809519999999793
21
-99.5881519999999938
0
LINE
8
BLACK
6
CONTINUOUS
10
378.3809519999999793
20
-99.5881519999999938
11
378.5238089999999715
21
-99.5881519999999938
0
LINE
8
BLACK
6
CONTINUOUS
10
378.5238089999999715
20
-99.5881519999999938
11
378.6190479999999638
21
-99.6357709999999912
0
LINE
8
BLACK
6
CONTINUOUS
10
378.6190479999999638
20
-99.6357709999999912
11
378.6666669999999613
21
-99.7310090000000002
0
LINE
8
BLACK
6
CONTINUOUS
10
378.6666669999999613
20
-99.7310090000000002
11
378.6666669999999613
21
-100.2548189999999977
0
LINE
8
BLACK
6
CONTINUOUS
10
369.3000000000000114
20
-94.8999999999999915
11
369.3000000000000114
21
-100.3864200000000011
0
LINE
8
BLACK
6
CONTINUOUS
10
372.5
20
-94.8999999999999915
11
372.5
21
-100.3864200000000011
0
LINE
8
BLACK
6
CONTINUOUS
10
369.3000000000000114
20
-99.7999999999999972
11
372.4702389999999923
21
-99.7999999999999972
0
LINE
8
BLACK
6
CONTINUOUS
10
369.3000000000000114
20
-99.7999999999999972
11
370.4265039999999658
21
-99.2135789999999957
0
LINE
8
BLACK
6
CONTINUOUS
10
369.3000000000000114
20
-99.7999999999999972
11
370.4265039999999658
21
-100.3864209999999986
0
LINE
8
BLACK
6
CONTINUOUS
10
372.5
20
-99.7999999999999972
11
371.3734959999999887
21
-100.3864209999999986
0
LINE
8
BLACK
6
CONTINUOUS
10
372.5
20
-99.7999999999999972
11
371.3734959999999887
21
-99.2135789999999957
0
LINE
8
BLACK
6
CONTINUOUS
10
364.1500570000000039
20
-89.5904749999999979
11
364.1024380000000065
21
-89.5428560000000004
0
LINE
8
BLACK
6
CONTINUOUS
10
364.1024380000000065
20
-89.5428560000000004
11
364.0548190000000091
21
-89.4476179999999914
0
LINE
8
BLACK
6
CONTINUOUS
10
364.0548190000000091
20
-89.4476179999999914
11
364.0548190000000091
21
-89.2095229999999901
0
LINE
8
BLACK
6
CONTINUOUS
10
364.0548190000000091
20
-89.2095229999999901
11
364.1024380000000065
21
-89.1142849999999953
0
LINE
8
BLACK
6
CONTINUOUS
10
364.1024380000000065
20
-89.1142849999999953
11
364.1500570000000039
21
-89.0666659999999979
0
LINE
8
BLACK
6
CONTINUOUS
10
364.1500570000000039
20
-89.0666659999999979
11
364.2452949999999987
21
-89.0190470000000005
0
LINE
8
BLACK
6
CONTINUOUS
10
364.2452949999999987
20
-89.0190470000000005
11
364.3405329999999935
21
-89.0190470000000005
0
LINE
8
BLACK
6
CONTINUOUS
10
364.3405329999999935
20
-89.0190470000000005
11
364.4833899999999858
21
-89.0666659999999979
0
LINE
8
BLACK
6
CONTINUOUS
10
364.4833899999999858
20
-89.0666659999999979
11
365.0548190000000091
21
-89.6380939999999953
0
LINE
8
BLACK
6
CONTINUOUS
10
365.0548190000000091
20
-89.6380939999999953
11
365.0548190000000091
21
-89.0190470000000005
0
LINE
8
BLACK
6
CONTINUOUS
10
364.1500570000000039
20
-88.6380939999999953
11
364.1024380000000065
21
-88.5904749999999979
0
LINE
8
BLACK
6
CONTINUOUS
10
364.1024380000000065
20
-88.5904749999999979
11
364.0548190000000091
21
-88.495237000000003
0
LINE
8
BLACK
6
CONTINUOUS
10
364.0548190000000091
20
-88.495237000000003
11
364.0548190000000091
21
-88.2571420000000018
0
LINE
8
BLACK
6
CONTINUOUS
10
364.0548190000000091
20
-88.2571420000000018
11
364.1024380000000065
21
-88.1619039999999927
0
LINE
8
BLACK
6
CONTINUOUS
10
364.1024380000000065
20
-88.1619039999999927
11
364.1500570000000039
21
-88.1142849999999953
0
LINE
8
BLACK
6
CONTINUOUS
10
364.1500570000000039
20
-88.1142849999999953
11
364.2452949999999987
21
-88.0666659999999979
0
LINE
8
BLACK
6
CONTINUOUS
10
364.2452949999999987
20
-88.0666659999999979
11
364.3405329999999935
21
-88.0666659999999979
0
LINE
8
BLACK
6
CONTINUOUS
10
364.3405329999999935
20
-88.0666659999999979
11
364.4833899999999858
21
-88.1142849999999953
0
LINE
8
BLACK
6
CONTINUOUS
10
364.4833899999999858
20
-88.1142849999999953
11
365.0548190000000091
21
-88.6857129999999927
0
LINE
8
BLACK
6
CONTINUOUS
10
365.0548190000000091
20
-88.6857129999999927
11
365.0548190000000091
21
-88.0666659999999979
0
LINE
8
BLACK
6
CONTINUOUS
10
364.9595799999999599
20
-87.6380939999999953
11
365.0072000000000116
21
-87.5904749999999979
0
LINE
8
BLACK
6
CONTINUOUS
10
365.0072000000000116
20
-87.5904749999999979
11
365.0548190000000091
21
-87.6380939999999953
0
LINE
8
BLACK
6
CONTINUOUS
10
365.0548190000000091
20
-87.6380939999999953
11
365.0072000000000116
21
-87.6857129999999927
0
LINE
8
BLACK
6
CONTINUOUS
10
365.0072000000000116
20
-87.6857129999999927
11
364.9595799999999599
21
-87.6380939999999953
0
LINE
8
BLACK
6
CONTINUOUS
10
364.9595799999999599
20
-87.6380939999999953
11
365.0548190000000091
21
-87.6380939999999953
0
LINE
8
BLACK
6
CONTINUOUS
10
364.3881519999999909
20
-86.7333330000000018
11
365.0548190000000091
21
-86.7333330000000018
0
LINE
8
BLACK
6
CONTINUOUS
10
364.0072000000000116
20
-86.9714280000000031
11
364.7214849999999728
21
-87.2095229999999901
0
LINE
8
BLACK
6
CONTINUOUS
10
364.7214849999999728
20
-87.2095229999999901
11
364.7214849999999728
21
-86.5904759999999953
0
LINE
8
BLACK
6
CONTINUOUS
10
365.0548190000000091
20
-85.4476179999999914
11
364.3881519999999909
21
-85.4476179999999914
0
LINE
8
BLACK
6
CONTINUOUS
10
364.4833899999999858
20
-85.4476179999999914
11
364.4357709999999884
21
-85.399998999999994
0
LINE
8
BLACK
6
CONTINUOUS
10
364.4357709999999884
20
-85.399998999999994
11
364.3881519999999909
21
-85.3047609999999992
0
LINE
8
BLACK
6
CONTINUOUS
10
364.3881519999999909
20
-85.3047609999999992
11
364.3881519999999909
21
-85.1619039999999927
0
LINE
8
BLACK
6
CONTINUOUS
10
364.3881519999999909
20
-85.1619039999999927
11
364.4357709999999884
21
-85.0666659999999979
0
LINE
8
BLACK
6
CONTINUOUS
10
364.4357709999999884
20
-85.0666659999999979
11
364.5310089999999832
21
-85.0190470000000005
0
LINE
8
BLACK
6
CONTINUOUS
10
364.5310089999999832
20
-85.0190470000000005
11
365.0548190000000091
21
-85.0190470000000005
0
LINE
8
BLACK
6
CONTINUOUS
10
364.5310089999999832
20
-85.0190470000000005
11
364.4357709999999884
21
-84.9714280000000031
0
LINE
8
BLACK
6
CONTINUOUS
10
364.4357709999999884
20
-84.9714280000000031
11
364.3881519999999909
21
-84.876189999999994
0
LINE
8
BLACK
6
CONTINUOUS
10
364.3881519999999909
20
-84.876189999999994
11
364.3881519999999909
21
-84.7333330000000018
0
LINE
8
BLACK
6
CONTINUOUS
10
364.3881519999999909
20
-84.7333330000000018
11
364.4357709999999884
21
-84.6380939999999953
0
LINE
8
BLACK
6
CONTINUOUS
10
364.4357709999999884
20
-84.6380939999999953
11
364.5310089999999832
21
-84.5904749999999979
0
LINE
8
BLACK
6
CONTINUOUS
10
364.5310089999999832
20
-84.5904749999999979
11
365.0548190000000091
21
-84.5904749999999979
0
LINE
8
BLACK
6
CONTINUOUS
10
365.0548190000000091
20
-84.1142849999999953
11
364.3881519999999909
21
-84.1142849999999953
0
LINE
8
BLACK
6
CONTINUOUS
10
364.4833899999999858
20
-84.1142849999999953
11
364.4357709999999884
21
-84.0666659999999979
0
LINE
8
BLACK
6
CONTINUOUS
10
364.4357709999999884
20
-84.0666659999999979
11
364.3881519999999909
21
-83.9714280000000031
0
LINE
8
BLACK
6
CONTINUOUS
10
364.3881519999999909
20
-83.9714280000000031
11
364.3881519999999909
21
-83.8285709999999966
0
LINE
8
BLACK
6
CONTINUOUS
10
364.3881519999999909
20
-83.8285709999999966
11
364.4357709999999884
21
-83.7333330000000018
0
LINE
8
BLACK
6
CONTINUOUS
10
364.4357709999999884
20
-83.7333330000000018
11
364.5310089999999832
21
-83.6857139999999902
0
LINE
8
BLACK
6
CONTINUOUS
10
364.5310089999999832
20
-83.6857139999999902
11
365.0548190000000091
21
-83.6857139999999902
0
LINE
8
BLACK
6
CONTINUOUS
10
364.5310089999999832
20
-83.6857139999999902
11
364.4357709999999884
21
-83.6380949999999928
0
LINE
8
BLACK
6
CONTINUOUS
10
364.4357709999999884
20
-83.6380949999999928
11
364.3881519999999909
21
-83.5428569999999979
0
LINE
8
BLACK
6
CONTINUOUS
10
364.3881519999999909
20
-83.5428569999999979
11
364.3881519999999909
21
-83.3999999999999915
0
LINE
8
BLACK
6
CONTINUOUS
10
364.3881519999999909
20
-83.3999999999999915
11
364.4357709999999884
21
-83.3047609999999992
0
LINE
8
BLACK
6
CONTINUOUS
10
364.4357709999999884
20
-83.3047609999999992
11
364.5310089999999832
21
-83.2571420000000018
0
LINE
8
BLACK
6
CONTINUOUS
10
364.5310089999999832
20
-83.2571420000000018
11
365.0548190000000091
21
-83.2571420000000018
0
LINE
8
BLACK
6
CONTINUOUS
10
372.
20
-75.2000000000000028
11
364.0135799999999904
21
-75.2000000000000028
0
LINE
8
BLACK
6
CONTINUOUS
10
372.
20
-97.5999999999999943
11
364.0135799999999904
21
-97.5999999999999943
0
LINE
8
BLACK
6
CONTINUOUS
10
364.5999999999999659
20
-75.2000000000000028
11
364.5999999999999659
21
-82.394047999999998
0
LINE
8
BLACK
6
CONTINUOUS
10
364.5999999999999659
20
-90.4059519999999992
11
364.5999999999999659
21
-97.5999999999999943
0
LINE
8
BLACK
6
CONTINUOUS
10
364.5999999999999659
20
-75.2000000000000028
11
365.1864209999999957
21
-76.3265039999999999
0
LINE
8
BLACK
6
CONTINUOUS
10
364.5999999999999659
20
-75.2000000000000028
11
364.0135789999999929
21
-76.3265039999999999
0
LINE
8
BLACK
6
CONTINUOUS
10
364.5999999999999659
20
-97.5999999999999943
11
364.0135789999999929
21
-96.4734959999999973
0
LINE
8
BLACK
6
CONTINUOUS
10
364.5999999999999659
20
-97.5999999999999943
11
365.1864209999999957
21
-96.4734959999999973
0
LINE
8
BLACK
6
CONTINUOUS
10
381.2619049999999561
20
-70.8048189999999948
11
381.8809519999999793
21
-70.8048189999999948
0
LINE
8
BLACK
6
CONTINUOUS
10
381.8809519999999793
20
-70.8048189999999948
11
381.5476189999999974
21
-71.1857710000000026
0
LINE
8
BLACK
6
CONTINUOUS
10
381.5476189999999974
20
-71.1857710000000026
11
381.6904759999999897
21
-71.1857710000000026
0
LINE
8
BLACK
6
CONTINUOUS
10
381.6904759999999897
20
-71.1857710000000026
11
381.7857139999999845
21
-71.23339
0
LINE
8
BLACK
6
CONTINUOUS
10
381.7857139999999845
20
-71.23339
11
381.8333329999999819
21
-71.2810089999999974
0
LINE
8
BLACK
6
CONTINUOUS
10
381.8333329999999819
20
-71.2810089999999974
11
381.8809519999999793
21
-71.3762469999999922
0
LINE
8
BLACK
6
CONTINUOUS
10
381.8809519999999793
20
-71.3762469999999922
11
381.8809519999999793
21
-71.6143419999999935
0
LINE
8
BLACK
6
CONTINUOUS
10
381.8809519999999793
20
-71.6143419999999935
11
381.8333329999999819
21
-71.7095800000000025
0
LINE
8
BLACK
6
CONTINUOUS
10
381.8333329999999819
20
-71.7095800000000025
11
381.7857139999999845
21
-71.7571999999999974
0
LINE
8
BLACK
6
CONTINUOUS
10
381.7857139999999845
20
-71.7571999999999974
11
381.6904759999999897
21
-71.8048189999999948
0
LINE
8
BLACK
6
CONTINUOUS
10
381.6904759999999897
20
-71.8048189999999948
11
381.4047620000000052
21
-71.8048189999999948
0
LINE
8
BLACK
6
CONTINUOUS
10
381.4047620000000052
20
-71.8048189999999948
11
381.3095240000000103
21
-71.7571999999999974
0
LINE
8
BLACK
6
CONTINUOUS
10
381.3095240000000103
20
-71.7571999999999974
11
381.2619049999999561
21
-71.7095800000000025
0
LINE
8
BLACK
6
CONTINUOUS
10
382.5
20
-70.8048189999999948
11
382.5952379999999948
21
-70.8048189999999948
0
LINE
8
BLACK
6
CONTINUOUS
10
382.5952379999999948
20
-70.8048189999999948
11
382.6904759999999897
21
-70.8524379999999923
0
LINE
8
BLACK
6
CONTINUOUS
10
382.6904759999999897
20
-70.8524379999999923
11
382.7380949999999871
21
-70.9000570000000039
0
LINE
8
BLACK
6
CONTINUOUS
10
382.7380949999999871
20
-70.9000570000000039
11
382.7857139999999845
21
-70.9952949999999987
0
LINE
8
BLACK
6
CONTINUOUS
10
382.7857139999999845
20
-70.9952949999999987
11
382.8333329999999819
21
-71.1857710000000026
0
LINE
8
BLACK
6
CONTINUOUS
10
382.8333329999999819
20
-71.1857710000000026
11
382.8333329999999819
21
-71.4238660000000039
0
LINE
8
BLACK
6
CONTINUOUS
10
382.8333329999999819
20
-71.4238660000000039
11
382.7857139999999845
21
-71.6143419999999935
0
LINE
8
BLACK
6
CONTINUOUS
10
382.7857139999999845
20
-71.6143419999999935
11
382.7380949999999871
21
-71.7095800000000025
0
LINE
8
BLACK
6
CONTINUOUS
10
382.7380949999999871
20
-71.7095800000000025
11
382.6904759999999897
21
-71.7571999999999974
0
LINE
8
BLACK
6
CONTINUOUS
10
382.6904759999999897
20
-71.7571999999999974
11
382.5952379999999948
21
-71.8048189999999948
0
LINE
8
BLACK
6
CONTINUOUS
10
382.5952379999999948
20
-71.8048189999999948
11
382.5
21
-71.8048189999999948
0
LINE
8
BLACK
6
CONTINUOUS
10
382.5
20
-71.8048189999999948
11
382.4047620000000052
21
-71.7571999999999974
0
LINE
8
BLACK
6
CONTINUOUS
10
382.4047620000000052
20
-71.7571999999999974
11
382.3571430000000078
21
-71.7095800000000025
0
LINE
8
BLACK
6
CONTINUOUS
10
382.3571430000000078
20
-71.7095800000000025
11
382.3095240000000103
21
-71.6143419999999935
0
LINE
8
BLACK
6
CONTINUOUS
10
382.3095240000000103
20
-71.6143419999999935
11
382.2619049999999561
21
-71.4238660000000039
0
LINE
8
BLACK
6
CONTINUOUS
10
382.2619049999999561
20
-71.4238660000000039
11
382.2619049999999561
21
-71.1857710000000026
0
LINE
8
BLACK
6
CONTINUOUS
10
382.2619049999999561
20
-71.1857710000000026
11
382.3095240000000103
21
-70.9952949999999987
0
LINE
8
BLACK
6
CONTINUOUS
10
382.3095240000000103
20
-70.9952949999999987
11
382.3571430000000078
21
-70.9000570000000039
0
LINE
8
BLACK
6
CONTINUOUS
10
382.3571430000000078
20
-70.9000570000000039
11
382.4047620000000052
21
-70.8524379999999923
0
LINE
8
BLACK
6
CONTINUOUS
10
382.4047620000000052
20
-70.8524379999999923
11
382.5
21
-70.8048189999999948
0
LINE
8
BLACK
6
CONTINUOUS
10
383.2619049999999561
20
-71.7095800000000025
11
383.3095240000000103
21
-71.7571999999999974
0
LINE
8
BLACK
6
CONTINUOUS
10
383.3095240000000103
20
-71.7571999999999974
11
383.2619049999999561
21
-71.8048189999999948
0
LINE
8
BLACK
6
CONTINUOUS
10
383.2619049999999561
20
-71.8048189999999948
11
383.2142859999999587
21
-71.7571999999999974
0
LINE
8
BLACK
6
CONTINUOUS
10
383.2142859999999587
20
-71.7571999999999974
11
383.2619049999999561
21
-71.7095800000000025
0
LINE
8
BLACK
6
CONTINUOUS
10
383.2619049999999561
20
-71.7095800000000025
11
383.2619049999999561
21
-71.8048189999999948
0
LINE
8
BLACK
6
CONTINUOUS
10
384.1666659999999638
20
-71.1381519999999909
11
384.1666659999999638
21
-71.8048189999999948
0
LINE
8
BLACK
6
CONTINUOUS
10
383.9285709999999767
20
-70.7571999999999974
11
383.6904759999999897
21
-71.4714850000000013
0
LINE
8
BLACK
6
CONTINUOUS
10
383.6904759999999897
20
-71.4714850000000013
11
384.309522999999956
21
-71.4714850000000013
0
LINE
8
BLACK
6
CONTINUOUS
10
385.4523810000000026
20
-71.8048189999999948
11
385.4523810000000026
21
-71.1381519999999909
0
LINE
8
BLACK
6
CONTINUOUS
10
385.4523810000000026
20
-71.23339
11
385.5
21
-71.1857710000000026
0
LINE
8
BLACK
6
CONTINUOUS
10
385.5
20
-71.1857710000000026
11
385.5952379999999948
21
-71.1381519999999909
0
LINE
8
BLACK
6
CONTINUOUS
10
385.5952379999999948
20
-71.1381519999999909
11
385.7380949999999871
21
-71.1381519999999909
0
LINE
8
BLACK
6
CONTINUOUS
10
385.7380949999999871
20
-71.1381519999999909
11
385.8333329999999819
21
-71.1857710000000026
0
LINE
8
BLACK
6
CONTINUOUS
10
385.8333329999999819
20
-71.1857710000000026
11
385.8809519999999793
21
-71.2810089999999974
0
LINE
8
BLACK
6
CONTINUOUS
10
385.8809519999999793
20
-71.2810089999999974
11
385.8809519999999793
21
-71.8048189999999948
0
LINE
8
BLACK
6
CONTINUOUS
10
385.8809519999999793
20
-71.2810089999999974
11
385.9285709999999767
21
-71.1857710000000026
0
LINE
8
BLACK
6
CONTINUOUS
10
385.9285709999999767
20
-71.1857710000000026
11
386.0238089999999715
21
-71.1381519999999909
0
LINE
8
BLACK
6
CONTINUOUS
10
386.0238089999999715
20
-71.1381519999999909
11
386.1666659999999638
21
-71.1381519999999909
0
LINE
8
BLACK
6
CONTINUOUS
10
386.1666659999999638
20
-71.1381519999999909
11
386.2619049999999561
21
-71.1857710000000026
0
LINE
8
BLACK
6
CONTINUOUS
10
386.2619049999999561
20
-71.1857710000000026
11
386.3095240000000103
21
-71.2810089999999974
0
LINE
8
BLACK
6
CONTINUOUS
10
386.3095240000000103
20
-71.2810089999999974
11
386.3095240000000103
21
-71.8048189999999948
0
LINE
8
BLACK
6
CONTINUOUS
10
386.7857139999999845
20
-71.8048189999999948
11
386.7857139999999845
21
-71.1381519999999909
0
LINE
8
BLACK
6
CONTINUOUS
10
386.7857139999999845
20
-71.23339
11
386.8333329999999819
21
-71.1857710000000026
0
LINE
8
BLACK
6
CONTINUOUS
10
386.8333329999999819
20
-71.1857710000000026
11
386.9285709999999767
21
-71.1381519999999909
0
LINE
8
BLACK
6
CONTINUOUS
10
386.9285709999999767
20
-71.1381519999999909
11
387.071427999999969
21
-71.1381519999999909
0
LINE
8
BLACK
6
CONTINUOUS
10
387.071427999999969
20
-71.1381519999999909
11
387.1666659999999638
21
-71.1857710000000026
0
LINE
8
BLACK
6
CONTINUOUS
10
387.1666659999999638
20
-71.1857710000000026
11
387.2142849999999612
21
-71.2810089999999974
0
LINE
8
BLACK
6
CONTINUOUS
10
387.2142849999999612
20
-71.2810089999999974
11
387.2142849999999612
21
-71.8048189999999948
0
LINE
8
BLACK
6
CONTINUOUS
10
387.2142849999999612
20
-71.2810089999999974
11
387.2619039999999586
21
-71.1857710000000026
0
LINE
8
BLACK
6
CONTINUOUS
10
387.2619039999999586
20
-71.1857710000000026
11
387.3571420000000103
21
-71.1381519999999909
0
LINE
8
BLACK
6
CONTINUOUS
10
387.3571420000000103
20
-71.1381519999999909
11
387.4999990000000025
21
-71.1381519999999909
0
LINE
8
BLACK
6
CONTINUOUS
10
387.4999990000000025
20
-71.1381519999999909
11
387.5952379999999948
21
-71.1857710000000026
0
LINE
8
BLACK
6
CONTINUOUS
10
387.5952379999999948
20
-71.1857710000000026
11
387.6428569999999922
21
-71.2810089999999974
0
LINE
8
BLACK
6
CONTINUOUS
10
387.6428569999999922
20
-71.2810089999999974
11
387.6428569999999922
21
-71.8048189999999948
0
LINE
8
BLACK
6
CONTINUOUS
10
369.3000000000000114
20
-77.8999999999999915
11
369.3000000000000114
21
-70.7635799999999904
0
LINE
8
BLACK
6
CONTINUOUS
10
399.6999999999999886
20
-77.8999999999999915
11
399.6999999999999886
21
-70.7635799999999904
0
LINE
8
BLACK
6
CONTINUOUS
10
369.3000000000000114
20
-71.3499999999999943
11
380.4940479999999638
21
-71.3499999999999943
0
LINE
8
BLACK
6
CONTINUOUS
10
388.5059519999999793
20
-71.3499999999999943
11
399.6999999999999886
21
-71.3499999999999943
0
LINE
8
BLACK
6
CONTINUOUS
10
369.3000000000000114
20
-71.3499999999999943
11
370.4265039999999658
21
-70.7635789999999929
0
LINE
8
BLACK
6
CONTINUOUS
10
369.3000000000000114
20
-71.3499999999999943
11
370.4265039999999658
21
-71.9364209999999957
0
LINE
8
BLACK
6
CONTINUOUS
10
399.6999999999999886
20
-71.3499999999999943
11
398.5734959999999774
21
-71.9364209999999957
0
LINE
8
BLACK
6
CONTINUOUS
10
399.6999999999999886
20
-71.3499999999999943
11
398.5734959999999774
21
-70.7635789999999929
0
LINE
8
BLACK
6
CONTINUOUS
10
367.3548189999999636
20
-88.3047609999999992
11
367.3548189999999636
21
-88.8761889999999966
0
LINE
8
BLACK
6
CONTINUOUS
10
367.3548189999999636
20
-88.5904749999999979
11
366.3548189999999636
21
-88.5904749999999979
0
LINE
8
BLACK
6
CONTINUOUS
10
366.3548189999999636
20
-88.5904749999999979
11
366.4976759999999558
21
-88.6857129999999927
0
LINE
8
BLACK
6
CONTINUOUS
10
366.4976759999999558
20
-88.6857129999999927
11
366.5929140000000075
21
-88.7809510000000017
0
LINE
8
BLACK
6
CONTINUOUS
10
366.5929140000000075
20
-88.7809510000000017
11
366.6405330000000049
21
-88.8761889999999966
0
LINE
8
BLACK
6
CONTINUOUS
10
366.3548189999999636
20
-87.4476179999999914
11
366.3548189999999636
21
-87.6380939999999953
0
LINE
8
BLACK
6
CONTINUOUS
10
366.3548189999999636
20
-87.6380939999999953
11
366.402437999999961
21
-87.7333319999999901
0
LINE
8
BLACK
6
CONTINUOUS
10
366.402437999999961
20
-87.7333319999999901
11
366.4500569999999584
21
-87.7809510000000017
0
LINE
8
BLACK
6
CONTINUOUS
10
366.4500569999999584
20
-87.7809510000000017
11
366.5929140000000075
21
-87.8761889999999966
0
LINE
8
BLACK
6
CONTINUOUS
10
366.5929140000000075
20
-87.8761889999999966
11
366.7833899999999971
21
-87.923807999999994
0
LINE
8
BLACK
6
CONTINUOUS
10
366.7833899999999971
20
-87.923807999999994
11
367.1643419999999765
21
-87.923807999999994
0
LINE
8
BLACK
6
CONTINUOUS
10
367.1643419999999765
20
-87.923807999999994
11
367.2595799999999713
21
-87.8761889999999966
0
LINE
8
BLACK
6
CONTINUOUS
10
367.2595799999999713
20
-87.8761889999999966
11
367.3071999999999662
21
-87.8285699999999991
0
LINE
8
BLACK
6
CONTINUOUS
10
367.3071999999999662
20
-87.8285699999999991
11
367.3548189999999636
21
-87.7333319999999901
0
LINE
8
BLACK
6
CONTINUOUS
10
367.3548189999999636
20
-87.7333319999999901
11
367.3548189999999636
21
-87.5428560000000004
0
LINE
8
BLACK
6
CONTINUOUS
10
367.3548189999999636
20
-87.5428560000000004
11
367.3071999999999662
21
-87.4476179999999914
0
LINE
8
BLACK
6
CONTINUOUS
10
367.3071999999999662
20
-87.4476179999999914
11
367.2595799999999713
21
-87.399998999999994
0
LINE
8
BLACK
6
CONTINUOUS
10
367.2595799999999713
20
-87.399998999999994
11
367.1643419999999765
21
-87.3523799999999966
0
LINE
8
BLACK
6
CONTINUOUS
10
367.1643419999999765
20
-87.3523799999999966
11
366.9262469999999894
21
-87.3523799999999966
0
LINE
8
BLACK
6
CONTINUOUS
10
366.9262469999999894
20
-87.3523799999999966
11
366.8310089999999946
21
-87.399998999999994
0
LINE
8
BLACK
6
CONTINUOUS
10
366.8310089999999946
20
-87.399998999999994
11
366.7833899999999971
21
-87.4476179999999914
0
LINE
8
BLACK
6
CONTINUOUS
10
366.7833899999999971
20
-87.4476179999999914
11
366.7357709999999997
21
-87.5428560000000004
0
LINE
8
BLACK
6
CONTINUOUS
10
366.7357709999999997
20
-87.5428560000000004
11
366.7357709999999997
21
-87.7333319999999901
0
LINE
8
BLACK
6
CONTINUOUS
10
366.7357709999999997
20
-87.7333319999999901
11
366.7833899999999971
21
-87.8285699999999991
0
LINE
8
BLACK
6
CONTINUOUS
10
366.7833899999999971
20
-87.8285699999999991
11
366.8310089999999946
21
-87.8761889999999966
0
LINE
8
BLACK
6
CONTINUOUS
10
366.8310089999999946
20
-87.8761889999999966
11
366.9262469999999894
21
-87.923807999999994
0
LINE
8
BLACK
6
CONTINUOUS
10
367.3548189999999636
20
-86.1619029999999952
11
366.6881520000000023
21
-86.1619029999999952
0
LINE
8
BLACK
6
CONTINUOUS
10
366.7833899999999971
20
-86.1619029999999952
11
366.7357709999999997
21
-86.1142839999999978
0
LINE
8
BLACK
6
CONTINUOUS
10
366.7357709999999997
20
-86.1142839999999978
11
366.6881520000000023
21
-86.019046000000003
0
LINE
8
BLACK
6
CONTINUOUS
10
366.6881520000000023
20
-86.019046000000003
11
366.6881520000000023
21
-85.8761889999999966
0
LINE
8
BLACK
6
CONTINUOUS
10
366.6881520000000023
20
-85.8761889999999966
11
366.7357709999999997
21
-85.7809510000000017
0
LINE
8
BLACK
6
CONTINUOUS
10
366.7357709999999997
20
-85.7809510000000017
11
366.8310089999999946
21
-85.7333319999999901
0
LINE
8
BLACK
6
CONTINUOUS
10
366.8310089999999946
20
-85.7333319999999901
11
367.3548189999999636
21
-85.7333319999999901
0
LINE
8
BLACK
6
CONTINUOUS
10
366.8310089999999946
20
-85.7333319999999901
11
366.7357709999999997
21
-85.6857129999999927
0
LINE
8
BLACK
6
CONTINUOUS
10
366.7357709999999997
20
-85.6857129999999927
11
366.6881520000000023
21
-85.5904749999999979
0
LINE
8
BLACK
6
CONTINUOUS
10
366.6881520000000023
20
-85.5904749999999979
11
366.6881520000000023
21
-85.4476179999999914
0
LINE
8
BLACK
6
CONTINUOUS
10
366.6881520000000023
20
-85.4476179999999914
11
366.7357709999999997
21
-85.3523789999999991
0
LINE
8
BLACK
6
CONTINUOUS
10
366.7357709999999997
20
-85.3523789999999991
11
366.8310089999999946
21
-85.3047600000000017
0
LINE
8
BLACK
6
CONTINUOUS
10
366.8310089999999946
20
-85.3047600000000017
11
367.3548189999999636
21
-85.3047600000000017
0
LINE
8
BLACK
6
CONTINUOUS
10
367.3548189999999636
20
-84.8285699999999991
11
366.6881520000000023
21
-84.8285699999999991
0
LINE
8
BLACK
6
CONTINUOUS
10
366.7833899999999971
20
-84.8285699999999991
11
366.7357709999999997
21
-84.7809510000000017
0
LINE
8
BLACK
6
CONTINUOUS
10
366.7357709999999997
20
-84.7809510000000017
11
366.6881520000000023
21
-84.6857129999999927
0
LINE
8
BLACK
6
CONTINUOUS
10
366.6881520000000023
20
-84.6857129999999927
11
366.6881520000000023
21
-84.5428560000000004
0
LINE
8
BLACK
6
CONTINUOUS
10
366.6881520000000023
20
-84.5428560000000004
11
366.7357709999999997
21
-84.4476179999999914
0
LINE
8
BLACK
6
CONTINUOUS
10
366.7357709999999997
20
-84.4476179999999914
11
366.8310089999999946
21
-84.399998999999994
0
LINE
8
BLACK
6
CONTINUOUS
10
366.8310089999999946
20
-84.399998999999994
11
367.3548189999999636
21
-84.399998999999994
0
LINE
8
BLACK
6
CONTINUOUS
10
366.8310089999999946
20
-84.399998999999994
11
366.7357709999999997
21
-84.3523799999999966
0
LINE
8
BLACK
6
CONTINUOUS
10
366.7357709999999997
20
-84.3523799999999966
11
366.6881520000000023
21
-84.2571420000000018
0
LINE
8
BLACK
6
CONTINUOUS
10
366.6881520000000023
20
-84.2571420000000018
11
366.6881520000000023
21
-84.1142849999999953
0
LINE
8
BLACK
6
CONTINUOUS
10
366.6881520000000023
20
-84.1142849999999953
11
366.7357709999999997
21
-84.019046000000003
0
LINE
8
BLACK
6
CONTINUOUS
10
366.7357709999999997
20
-84.019046000000003
11
366.8310089999999946
21
-83.9714269999999914
0
LINE
8
BLACK
6
CONTINUOUS
10
366.8310089999999946
20
-83.9714269999999914
11
367.3548189999999636
21
-83.9714269999999914
0
LINE
8
BLACK
6
CONTINUOUS
10
372.
20
-78.3999999999999915
11
366.3135800000000017
21
-78.3999999999999915
0
LINE
8
BLACK
6
CONTINUOUS
10
372.
20
-94.3999999999999915
11
366.3135800000000017
21
-94.3999999999999915
0
LINE
8
BLACK
6
CONTINUOUS
10
366.8999999999999773
20
-78.3999999999999915
11
366.8999999999999773
21
-83.1083330000000018
0
LINE
8
BLACK
6
CONTINUOUS
10
366.8999999999999773
20
-89.6916659999999979
11
366.8999999999999773
21
-94.3999999999999915
0
LINE
8
BLACK
6
CONTINUOUS
10
366.8999999999999773
20
-78.3999999999999915
11
367.4864210000000071
21
-79.5265040000000027
0
LINE
8
BLACK
6
CONTINUOUS
10
366.8999999999999773
20
-78.3999999999999915
11
366.3135790000000043
21
-79.5265040000000027
0
LINE
8
BLACK
6
CONTINUOUS
10
366.8999999999999773
20
-94.3999999999999915
11
366.3135790000000043
21
-93.2734959999999944
0
LINE
8
BLACK
6
CONTINUOUS
10
366.8999999999999773
20
-94.3999999999999915
11
367.4864210000000071
21
-93.2734959999999944
0
LINE
8
BLACK
6
CONTINUOUS
10
374.9023809999999912
20
-73.2548189999999977
11
375.5214279999999576
21
-73.2548189999999977
0
LINE
8
BLACK
6
CONTINUOUS
10
375.5214279999999576
20
-73.2548189999999977
11
375.1880949999999757
21
-73.6357709999999912
0
LINE
8
BLACK
6
CONTINUOUS
10
375.1880949999999757
20
-73.6357709999999912
11
375.3309519999999679
21
-73.6357709999999912
0
LINE
8
BLACK
6
CONTINUOUS
10
375.3309519999999679
20
-73.6357709999999912
11
375.4261899999999628
21
-73.6833900000000028
0
LINE
8
BLACK
6
CONTINUOUS
10
375.4261899999999628
20
-73.6833900000000028
11
375.4738089999999602
21
-73.7310090000000002
0
LINE
8
BLACK
6
CONTINUOUS
10
375.4738089999999602
20
-73.7310090000000002
11
375.5214279999999576
21
-73.8262469999999951
0
LINE
8
BLACK
6
CONTINUOUS
10
375.5214279999999576
20
-73.8262469999999951
11
375.5214279999999576
21
-74.0643419999999963
0
LINE
8
BLACK
6
CONTINUOUS
10
375.5214279999999576
20
-74.0643419999999963
11
375.4738089999999602
21
-74.1595799999999912
0
LINE
8
BLACK
6
CONTINUOUS
10
375.4738089999999602
20
-74.1595799999999912
11
375.4261899999999628
21
-74.2072000000000003
0
LINE
8
BLACK
6
CONTINUOUS
10
375.4261899999999628
20
-74.2072000000000003
11
375.3309519999999679
21
-74.2548189999999977
0
LINE
8
BLACK
6
CONTINUOUS
10
375.3309519999999679
20
-74.2548189999999977
11
375.0452379999999835
21
-74.2548189999999977
0
LINE
8
BLACK
6
CONTINUOUS
10
375.0452379999999835
20
-74.2548189999999977
11
374.9499999999999886
21
-74.2072000000000003
0
LINE
8
BLACK
6
CONTINUOUS
10
374.9499999999999886
20
-74.2072000000000003
11
374.9023809999999912
21
-74.1595799999999912
0
LINE
8
BLACK
6
CONTINUOUS
10
376.7119050000000016
20
-74.2548189999999977
11
376.7119050000000016
21
-73.5881519999999938
0
LINE
8
BLACK
6
CONTINUOUS
10
376.7119050000000016
20
-73.6833900000000028
11
376.759523999999999
21
-73.6357709999999912
0
LINE
8
BLACK
6
CONTINUOUS
10
376.759523999999999
20
-73.6357709999999912
11
376.8547619999999938
21
-73.5881519999999938
0
LINE
8
BLACK
6
CONTINUOUS
10
376.8547619999999938
20
-73.5881519999999938
11
376.997618999999986
21
-73.5881519999999938
0
LINE
8
BLACK
6
CONTINUOUS
10
376.997618999999986
20
-73.5881519999999938
11
377.0928569999999809
21
-73.6357709999999912
0
LINE
8
BLACK
6
CONTINUOUS
10
377.0928569999999809
20
-73.6357709999999912
11
377.1404759999999783
21
-73.7310090000000002
0
LINE
8
BLACK
6
CONTINUOUS
10
377.1404759999999783
20
-73.7310090000000002
11
377.1404759999999783
21
-74.2548189999999977
0
LINE
8
BLACK
6
CONTINUOUS
10
377.1404759999999783
20
-73.7310090000000002
11
377.1880949999999757
21
-73.6357709999999912
0
LINE
8
BLACK
6
CONTINUOUS
10
377.1880949999999757
20
-73.6357709999999912
11
377.2833329999999705
21
-73.5881519999999938
0
LINE
8
BLACK
6
CONTINUOUS
10
377.2833329999999705
20
-73.5881519999999938
11
377.4261899999999628
21
-73.5881519999999938
0
LINE
8
BLACK
6
CONTINUOUS
10
377.4261899999999628
20
-73.5881519999999938
11
377.5214289999999551
21
-73.6357709999999912
0
LINE
8
BLACK
6
CONTINUOUS
10
377.5214289999999551
20
-73.6357709999999912
11
377.5690480000000093
21
-73.7310090000000002
0
LINE
8
BLACK
6
CONTINUOUS
10
377.5690480000000093
20
-73.7310090000000002
11
377.5690480000000093
21
-74.2548189999999977
0
LINE
8
BLACK
6
CONTINUOUS
10
378.0452379999999835
20
-74.2548189999999977
11
378.0452379999999835
21
-73.5881519999999938
0
LINE
8
BLACK
6
CONTINUOUS
10
378.0452379999999835
20
-73.6833900000000028
11
378.0928569999999809
21
-73.6357709999999912
0
LINE
8
BLACK
6
CONTINUOUS
10
378.0928569999999809
20
-73.6357709999999912
11
378.1880949999999757
21
-73.5881519999999938
0
LINE
8
BLACK
6
CONTINUOUS
10
378.1880949999999757
20
-73.5881519999999938
11
378.3309519999999679
21
-73.5881519999999938
0
LINE
8
BLACK
6
CONTINUOUS
10
378.3309519999999679
20
-73.5881519999999938
11
378.4261899999999628
21
-73.6357709999999912
0
LINE
8
BLACK
6
CONTINUOUS
10
378.4261899999999628
20
-73.6357709999999912
11
378.4738089999999602
21
-73.7310090000000002
0
LINE
8
BLACK
6
CONTINUOUS
10
378.4738089999999602
20
-73.7310090000000002
11
378.4738089999999602
21
-74.2548189999999977
0
LINE
8
BLACK
6
CONTINUOUS
10
378.4738089999999602
20
-73.7310090000000002
11
378.5214279999999576
21
-73.6357709999999912
0
LINE
8
BLACK
6
CONTINUOUS
10
378.5214279999999576
20
-73.6357709999999912
11
378.6166660000000093
21
-73.5881519999999938
0
LINE
8
BLACK
6
CONTINUOUS
10
378.6166660000000093
20
-73.5881519999999938
11
378.7595230000000015
21
-73.5881519999999938
0
LINE
8
BLACK
6
CONTINUOUS
10
378.7595230000000015
20
-73.5881519999999938
11
378.8547619999999938
21
-73.6357709999999912
0
LINE
8
BLACK
6
CONTINUOUS
10
378.8547619999999938
20
-73.6357709999999912
11
378.9023809999999912
21
-73.7310090000000002
0
LINE
8
BLACK
6
CONTINUOUS
10
378.9023809999999912
20
-73.7310090000000002
11
378.9023809999999912
21
-74.2548189999999977
0
LINE
8
BLACK
6
CONTINUOUS
10
371.
20
-77.8999999999999915
11
371.
21
-73.1135799999999989
0
LINE
8
BLACK
6
CONTINUOUS
10
374.
20
-77.8999999999999915
11
374.
21
-73.1135799999999989
0
LINE
8
BLACK
6
CONTINUOUS
10
371.
20
-73.7000000000000028
11
374.
21
-73.7000000000000028
0
LINE
8
BLACK
6
CONTINUOUS
10
371.
20
-73.7000000000000028
11
374.
21
-73.7000000000000028
0
LINE
8
BLACK
6
CONTINUOUS
10
371.
20
-73.7000000000000028
11
372.1265040000000113
21
-73.1135790000000014
0
LINE
8
BLACK
6
CONTINUOUS
10
371.
20
-73.7000000000000028
11
372.1265040000000113
21
-74.28642099999999
0
LINE
8
BLACK
6
CONTINUOUS
10
374.
20
-73.7000000000000028
11
372.8734959999999887
21
-74.28642099999999
0
LINE
8
BLACK
6
CONTINUOUS
10
374.
20
-73.7000000000000028
11
372.8734959999999887
21
-73.1135790000000014
0
LINE
8
BLACK
6
CONTINUOUS
10
378.3999999999999773
20
-80.7000000000000028
11
380.5999999999999659
21
-80.7000000000000028
0
LINE
8
BLACK
6
CONTINUOUS
10
378.3999999999999773
20
-81.8999999999999915
11
378.3999999999999773
21
-80.7000000000000028
0
LINE
8
BLACK
6
CONTINUOUS
10
380.5999999999999659
20
-81.8999999999999915
11
378.3999999999999773
21
-81.8999999999999915
0
LINE
8
BLACK
6
CONTINUOUS
10
380.5999999999999659
20
-81.8999999999999915
11
380.5999999999999659
21
-80.7000000000000028
0
LINE
8
BLACK
6
CONTINUOUS
10
381.3249999999999886
20
-75.6859999999999928
11
387.8249999999999886
21
-75.6859999999999928
0
LINE
8
BLACK
6
CONTINUOUS
10
381.3249999999999886
20
-80.2860000000000014
11
381.3249999999999886
21
-75.6859999999999928
0
LINE
8
BLACK
6
CONTINUOUS
10
387.8249999999999886
20
-75.6859999999999928
11
387.8249999999999886
21
-80.2860000000000014
0
LINE
8
BLACK
6
CONTINUOUS
10
387.8249999999999886
20
-80.2860000000000014
11
381.3249999999999886
21
-80.2860000000000014
0
LINE
8
BLACK
6
CONTINUOUS
10
381.5695890000000077
20
-76.4018059999999934
11
381.5721979999999576
21
-76.332335999999998
0
LINE
8
BLACK
6
CONTINUOUS
10
381.5721979999999576
20
-76.332335999999998
11
381.6115939999999682
21
-76.1990859999999941
0
LINE
8
BLACK
6
CONTINUOUS
10
381.6115939999999682
20
-76.1990859999999941
11
381.6869130000000041
21
-76.0823199999999957
0
LINE
8
BLACK
6
CONTINUOUS
10
381.6869130000000041
20
-76.0823199999999957
11
381.7920619999999872
21
-75.9914839999999998
0
LINE
8
BLACK
6
CONTINUOUS
10
381.7920619999999872
20
-75.9914839999999998
11
381.9185319999999706
21
-75.9339269999999971
0
LINE
8
BLACK
6
CONTINUOUS
10
381.9185319999999706
20
-75.9339269999999971
11
382.0560909999999808
21
-75.9143059999999963
0
LINE
8
BLACK
6
CONTINUOUS
10
382.0560909999999808
20
-75.9143059999999963
11
382.1936089999999808
21
-75.9342099999999931
0
LINE
8
BLACK
6
CONTINUOUS
10
382.1936089999999808
20
-75.9342099999999931
11
382.3199599999999805
21
-75.9920269999999931
0
LINE
8
BLACK
6
CONTINUOUS
10
382.3199599999999805
20
-75.9920269999999931
11
382.4249209999999835
21
-76.0830789999999979
0
LINE
8
BLACK
6
CONTINUOUS
10
382.4249209999999835
20
-76.0830789999999979
11
382.5
21
-76.2000000000000028
0
LINE
8
BLACK
6
CONTINUOUS
10
382.5
20
-76.2000000000000028
11
382.5391219999999635
21
-76.3333299999999895
0
LINE
8
BLACK
6
CONTINUOUS
10
382.5391219999999635
20
-76.3333299999999895
11
382.5415889999999877
21
-76.4028059999999982
0
LINE
8
BLACK
6
CONTINUOUS
10
382.5415889999999877
20
-76.4028059999999982
11
382.5391260000000102
21
-76.472258999999994
0
LINE
8
BLACK
6
CONTINUOUS
10
382.5391260000000102
20
-76.472258999999994
11
382.5000289999999836
21
-76.6055499999999938
0
LINE
8
BLACK
6
CONTINUOUS
10
382.5000289999999836
20
-76.6055499999999938
11
382.4249969999999621
21
-76.7224470000000025
0
LINE
8
BLACK
6
CONTINUOUS
10
382.4249969999999621
20
-76.7224470000000025
11
382.3200949999999807
21
-76.8134999999999906
0
LINE
8
BLACK
6
CONTINUOUS
10
382.3200949999999807
20
-76.8134999999999906
11
382.193805999999995
21
-76.8713449999999909
0
LINE
8
BLACK
6
CONTINUOUS
10
382.193805999999995
20
-76.8713449999999909
11
382.0563419999999724
21
-76.8913069999999976
0
LINE
8
BLACK
6
CONTINUOUS
10
382.0563419999999724
20
-76.8913069999999976
11
381.9188159999999925
21
-76.8717699999999979
0
LINE
8
BLACK
6
CONTINUOUS
10
381.9188159999999925
20
-76.8717699999999979
11
381.792349999999999
21
-76.814313999999996
0
LINE
8
BLACK
6
CONTINUOUS
10
381.792349999999999
20
-76.814313999999996
11
381.6871679999999856
21
-76.7235859999999974
0
LINE
8
BLACK
6
CONTINUOUS
10
381.6871679999999856
20
-76.7235859999999974
11
381.611774999999966
21
-76.6069200000000023
0
LINE
8
BLACK
6
CONTINUOUS
10
381.611774999999966
20
-76.6069200000000023
11
381.5722670000000107
21
-76.4737509999999929
0
LINE
8
BLACK
6
CONTINUOUS
10
381.5722670000000107
20
-76.4737509999999929
11
381.5695890000000077
21
-76.4043059999999912
0
LINE
8
BLACK
6
CONTINUOUS
10
381.5695890000000077
20
-76.4043059999999912
11
381.5695890000000077
21
-76.4018059999999934
0
LINE
8
BLACK
6
CONTINUOUS
10
392.3999999999999773
20
-76.5
11
393.5999999999999659
21
-76.5
0
LINE
8
BLACK
6
CONTINUOUS
10
392.3999999999999773
20
-78.7000000000000028
11
392.3999999999999773
21
-76.5
0
LINE
8
BLACK
6
CONTINUOUS
10
392.3999999999999773
20
-78.7000000000000028
11
393.5999999999999659
21
-78.7000000000000028
0
LINE
8
BLACK
6
CONTINUOUS
10
393.5999999999999659
20
-76.5
11
393.5999999999999659
21
-78.7000000000000028
0
LINE
8
BLACK
6
CONTINUOUS
10
379.1499999999999773
20
-82.2999999999999972
11
379.8499999999999659
21
-82.2999999999999972
0
LINE
8
BLACK
6
CONTINUOUS
10
379.8499999999999659
20
-83.5
11
379.1499999999999773
21
-83.5
0
LINE
8
BLACK
6
CONTINUOUS
10
391.7999999999999545
20
-82.3999999999999915
11
391.7999999999999545
21
-84.5999999999999943
0
LINE
8
BLACK
6
CONTINUOUS
10
391.7999999999999545
20
-90.3999999999999915
11
391.7999999999999545
21
-88.2000000000000028
0
LINE
8
BLACK
6
CONTINUOUS
10
395.3999999999999773
20
-82.3999999999999915
11
391.7999999999999545
21
-82.3999999999999915
0
LINE
8
BLACK
6
CONTINUOUS
10
395.3999999999999773
20
-90.3999999999999915
11
391.7999999999999545
21
-90.3999999999999915
0
LINE
8
BLACK
6
CONTINUOUS
10
399.5
20
-84.2000000000000028
11
399.5
21
-88.5999999999999943
0
LINE
8
BLACK
6
CONTINUOUS
10
389.1999999999999886
20
-91.5
11
389.1999999999999886
21
-92.7000000000000028
0
LINE
8
BLACK
6
CONTINUOUS
10
389.1999999999999886
20
-91.5
11
391.3999999999999773
21
-91.5
0
LINE
8
BLACK
6
CONTINUOUS
10
391.3999999999999773
20
-91.5
11
391.3999999999999773
21
-92.7000000000000028
0
LINE
8
BLACK
6
CONTINUOUS
10
391.3999999999999773
20
-92.7000000000000028
11
389.1999999999999886
21
-92.7000000000000028
0
LINE
8
BLACK
6
CONTINUOUS
10
393.7999999999999545
20
-78.7000000000000028
11
393.7999999999999545
21
-76.5
0
LINE
8
BLACK
6
CONTINUOUS
10
395.
20
-76.5
11
393.7999999999999545
21
-76.5
0
LINE
8
BLACK
6
CONTINUOUS
10
395.
20
-76.5
11
395.
21
-78.7000000000000028
0
LINE
8
BLACK
6
CONTINUOUS
10
395.
20
-78.7000000000000028
11
393.7999999999999545
21
-78.7000000000000028
0
LINE
8
BLACK
6
CONTINUOUS
10
369.5
20
-89.5999999999999943
11
369.5
21
-83.2000000000000028
0
LINE
8
BLACK
6
CONTINUOUS
10
373.5999999999999659
20
-81.3999999999999915
11
377.1999999999999886
21
-81.3999999999999915
0
LINE
8
BLACK
6
CONTINUOUS
10
373.5999999999999659
20
-91.3999999999999915
11
377.1999999999999886
21
-91.3999999999999915
0
LINE
8
BLACK
6
CONTINUOUS
10
377.1999999999999886
20
-81.3999999999999915
11
377.1999999999999886
21
-83.5999999999999943
0
LINE
8
BLACK
6
CONTINUOUS
10
377.1999999999999886
20
-91.3999999999999915
11
377.1999999999999886
21
-89.2000000000000028
0
LINE
8
BLACK
6
CONTINUOUS
10
382.3239999999999554
20
-91.3224999999999909
11
382.3239999999999554
21
-85.0704999999999956
0
LINE
8
BLACK
6
CONTINUOUS
10
389.07650000000001
20
-85.0704999999999956
11
382.3239999999999554
21
-85.0704999999999956
0
LINE
8
BLACK
6
CONTINUOUS
10
389.07650000000001
20
-91.3224999999999909
11
389.07650000000001
21
-85.0704999999999956
0
LINE
8
BLACK
6
CONTINUOUS
10
378.2988199999999779
20
-91.9496800000000007
11
378.2988199999999779
21
-93.4990799999999922
0
LINE
8
BLACK
6
CONTINUOUS
10
379.2999999999999545
20
-92.6989799999999917
11
378.2988199999999779
21
-91.9496800000000007
0
LINE
8
BLACK
6
CONTINUOUS
10
379.2999999999999545
20
-92.7000000000000028
11
378.2988199999999779
21
-93.4990799999999922
0
LINE
8
BLACK
6
CONTINUOUS
10
379.2999999999999545
20
-93.5
11
379.2999999999999545
21
-91.899799999999999
0
ARC
8
BLACK
10
372.5
20
-94.3999999999999915
40
3.1999999999999997
50
-180.00000000
51
-90.00000000
0
LINE
8
BLACK
6
CONTINUOUS
10
369.3000000000000114
20
-78.3999999999999915
11
369.3000000000000114
21
-94.3999999999999915
0
LINE
8
BLACK
6
CONTINUOUS
10
372.5
20
-97.5999999999999943
11
396.5
21
-97.5999999999999943
0
ARC
8
BLACK
10
372.5
20
-78.3999999999999915
40
3.1999999999999997
50
90.00000000
51
180.00000000
0
LINE
8
BLACK
6
CONTINUOUS
10
372.5
20
-75.2000000000000028
11
396.5
21
-75.2000000000000028
0
LINE
8
BLACK
6
CONTINUOUS
10
399.6999999999999886
20
-94.3999999999999915
11
399.6999999999999886
21
-78.3999999999999915
0
ARC
8
BLACK
10
396.5
20
-78.3999999999999915
40
3.1999999999999997
50
0.00000000
51
90.00000000
0
ARC
8
BLACK
10
396.5
20
-94.3999999999999915
40
3.1999999999999997
50
-90.00000000
51
-0.00000000
  0
ENDSEC
  0
EOF
