  0
SECTION
  2
HEADER
  9
$ANGBASE
  50
0.0
  9
$ANGDIR
  70
1
  9
$MEASUREMENT
  70
1
  0
ENDSEC
  0
SECTION
  2
TABLES
  0
TABLE
  2
LTYPE
  70
4
  0
LTYPE
  5
40F
  2
CONTINUOUS
  70
0
  3
Solid line
  72
65
  73
0
  40
0.0
  0
LTYPE
  5
410
  2
DASHDOT
 70
0
  3
Dash Dot ____ _ ____ _
 72
65
 73
4
 40
2.0
 49
1.25
 49
-0.25
 49
0.25
 49
-0.25
  0
LTYPE
  5
411
  2
DASHED
 70
0
  3
Dashed __ __ __ __ __
 72
65
 73
2
 40
0.75
 49
0.5
 49
-0.25
  0
LTYPE
  5
43B
  2
DOTTED
 70
0
  3
Dotted .  .  .  .
 72
65
 73
2
 40
0.2
 49
0.0
 49
-0.2
  0
ENDTAB
  0
TABLE
  2
STYLE
  70
4
  0
STYLE
  2
KICAD
  70
0
  40
0
  41
1
  42
1
  50
0
  71
0
  3
isocp.shx
  0
STYLE
  2
KICADB
  70
0
  40
0
  41
1
  42
1
  50
0
  71
0
  3
isocp.shx
  0
STYLE
  2
KICADI
  70
0
  40
0
  41
1
  42
1
  50
15
  71
0
  3
isocp.shx
  0
STYLE
  2
KICADBI
  70
0
  40
0
  41
1
  42
1
  50
15
  71
0
  3
isocp.shx
  0
ENDTAB
  0
TABLE
  2
LAYER
  70
1
  0
LAYER
  2
BLACK
  70
0
  62
7
  6
CONTINUOUS
  0
ENDTAB
  0
ENDSEC
  0
SECTION
  2
ENTITIES
0
LINE
8
BLACK
6
CONTINUOUS
10
67.1000569999999925
20
-83.390474999999995
11
67.0524379999999951
21
-83.3428559999999976
0
LINE
8
BLACK
6
CONTINUOUS
10
67.0524379999999951
20
-83.3428559999999976
11
67.0048189999999977
21
-83.2476180000000028
0
LINE
8
BLACK
6
CONTINUOUS
10
67.0048189999999977
20
-83.2476180000000028
11
67.0048189999999977
21
-83.0095230000000015
0
LINE
8
BLACK
6
CONTINUOUS
10
67.0048189999999977
20
-83.0095230000000015
11
67.0524379999999951
21
-82.9142849999999925
0
LINE
8
BLACK
6
CONTINUOUS
10
67.0524379999999951
20
-82.9142849999999925
11
67.1000569999999925
21
-82.8666659999999951
0
LINE
8
BLACK
6
CONTINUOUS
10
67.1000569999999925
20
-82.8666659999999951
11
67.1952950000000016
21
-82.8190469999999976
0
LINE
8
BLACK
6
CONTINUOUS
10
67.1952950000000016
20
-82.8190469999999976
11
67.2905329999999964
21
-82.8190469999999976
0
LINE
8
BLACK
6
CONTINUOUS
10
67.2905329999999964
20
-82.8190469999999976
11
67.4333900000000028
21
-82.8666659999999951
0
LINE
8
BLACK
6
CONTINUOUS
10
67.4333900000000028
20
-82.8666659999999951
11
68.0048189999999977
21
-83.4380939999999924
0
LINE
8
BLACK
6
CONTINUOUS
10
68.0048189999999977
20
-83.4380939999999924
11
68.0048189999999977
21
-82.8190469999999976
0
LINE
8
BLACK
6
CONTINUOUS
10
67.1000569999999925
20
-82.4380939999999924
11
67.0524379999999951
21
-82.390474999999995
0
LINE
8
BLACK
6
CONTINUOUS
10
67.0524379999999951
20
-82.390474999999995
11
67.0048189999999977
21
-82.2952370000000002
0
LINE
8
BLACK
6
CONTINUOUS
10
67.0048189999999977
20
-82.2952370000000002
11
67.0048189999999977
21
-82.0571419999999989
0
LINE
8
BLACK
6
CONTINUOUS
10
67.0048189999999977
20
-82.0571419999999989
11
67.0524379999999951
21
-81.9619039999999899
0
LINE
8
BLACK
6
CONTINUOUS
10
67.0524379999999951
20
-81.9619039999999899
11
67.1000569999999925
21
-81.9142849999999925
0
LINE
8
BLACK
6
CONTINUOUS
10
67.1000569999999925
20
-81.9142849999999925
11
67.1952950000000016
21
-81.8666659999999951
0
LINE
8
BLACK
6
CONTINUOUS
10
67.1952950000000016
20
-81.8666659999999951
11
67.2905329999999964
21
-81.8666659999999951
0
LINE
8
BLACK
6
CONTINUOUS
10
67.2905329999999964
20
-81.8666659999999951
11
67.4333900000000028
21
-81.9142849999999925
0
LINE
8
BLACK
6
CONTINUOUS
10
67.4333900000000028
20
-81.9142849999999925
11
68.0048189999999977
21
-82.4857129999999898
0
LINE
8
BLACK
6
CONTINUOUS
10
68.0048189999999977
20
-82.4857129999999898
11
68.0048189999999977
21
-81.8666659999999951
0
LINE
8
BLACK
6
CONTINUOUS
10
67.9095799999999912
20
-81.4380939999999924
11
67.9572000000000003
21
-81.390474999999995
0
LINE
8
BLACK
6
CONTINUOUS
10
67.9572000000000003
20
-81.390474999999995
11
68.0048189999999977
21
-81.4380939999999924
0
LINE
8
BLACK
6
CONTINUOUS
10
68.0048189999999977
20
-81.4380939999999924
11
67.9572000000000003
21
-81.4857129999999898
0
LINE
8
BLACK
6
CONTINUOUS
10
67.9572000000000003
20
-81.4857129999999898
11
67.9095799999999912
21
-81.4380939999999924
0
LINE
8
BLACK
6
CONTINUOUS
10
67.9095799999999912
20
-81.4380939999999924
11
68.0048189999999977
21
-81.4380939999999924
0
LINE
8
BLACK
6
CONTINUOUS
10
67.3381519999999938
20
-80.5333329999999989
11
68.0048189999999977
21
-80.5333329999999989
0
LINE
8
BLACK
6
CONTINUOUS
10
66.9572000000000003
20
-80.7714280000000002
11
67.6714849999999899
21
-81.0095230000000015
0
LINE
8
BLACK
6
CONTINUOUS
10
67.6714849999999899
20
-81.0095230000000015
11
67.6714849999999899
21
-80.3904759999999925
0
LINE
8
BLACK
6
CONTINUOUS
10
68.0048189999999977
20
-79.2476180000000028
11
67.3381519999999938
21
-79.2476180000000028
0
LINE
8
BLACK
6
CONTINUOUS
10
67.4333900000000028
20
-79.2476180000000028
11
67.3857709999999912
21
-79.1999989999999912
0
LINE
8
BLACK
6
CONTINUOUS
10
67.3857709999999912
20
-79.1999989999999912
11
67.3381519999999938
21
-79.1047609999999963
0
LINE
8
BLACK
6
CONTINUOUS
10
67.3381519999999938
20
-79.1047609999999963
11
67.3381519999999938
21
-78.9619039999999899
0
LINE
8
BLACK
6
CONTINUOUS
10
67.3381519999999938
20
-78.9619039999999899
11
67.3857709999999912
21
-78.8666659999999951
0
LINE
8
BLACK
6
CONTINUOUS
10
67.3857709999999912
20
-78.8666659999999951
11
67.4810090000000002
21
-78.8190469999999976
0
LINE
8
BLACK
6
CONTINUOUS
10
67.4810090000000002
20
-78.8190469999999976
11
68.0048189999999977
21
-78.8190469999999976
0
LINE
8
BLACK
6
CONTINUOUS
10
67.4810090000000002
20
-78.8190469999999976
11
67.3857709999999912
21
-78.7714280000000002
0
LINE
8
BLACK
6
CONTINUOUS
10
67.3857709999999912
20
-78.7714280000000002
11
67.3381519999999938
21
-78.6761899999999912
0
LINE
8
BLACK
6
CONTINUOUS
10
67.3381519999999938
20
-78.6761899999999912
11
67.3381519999999938
21
-78.5333329999999989
0
LINE
8
BLACK
6
CONTINUOUS
10
67.3381519999999938
20
-78.5333329999999989
11
67.3857709999999912
21
-78.4380939999999924
0
LINE
8
BLACK
6
CONTINUOUS
10
67.3857709999999912
20
-78.4380939999999924
11
67.4810090000000002
21
-78.390474999999995
0
LINE
8
BLACK
6
CONTINUOUS
10
67.4810090000000002
20
-78.390474999999995
11
68.0048189999999977
21
-78.390474999999995
0
LINE
8
BLACK
6
CONTINUOUS
10
68.0048189999999977
20
-77.9142849999999925
11
67.3381519999999938
21
-77.9142849999999925
0
LINE
8
BLACK
6
CONTINUOUS
10
67.4333900000000028
20
-77.9142849999999925
11
67.3857709999999912
21
-77.8666659999999951
0
LINE
8
BLACK
6
CONTINUOUS
10
67.3857709999999912
20
-77.8666659999999951
11
67.3381519999999938
21
-77.7714280000000002
0
LINE
8
BLACK
6
CONTINUOUS
10
67.3381519999999938
20
-77.7714280000000002
11
67.3381519999999938
21
-77.6285709999999938
0
LINE
8
BLACK
6
CONTINUOUS
10
67.3381519999999938
20
-77.6285709999999938
11
67.3857709999999912
21
-77.5333329999999989
0
LINE
8
BLACK
6
CONTINUOUS
10
67.3857709999999912
20
-77.5333329999999989
11
67.4810090000000002
21
-77.4857140000000015
0
LINE
8
BLACK
6
CONTINUOUS
10
67.4810090000000002
20
-77.4857140000000015
11
68.0048189999999977
21
-77.4857140000000015
0
LINE
8
BLACK
6
CONTINUOUS
10
67.4810090000000002
20
-77.4857140000000015
11
67.3857709999999912
21
-77.4380949999999899
0
LINE
8
BLACK
6
CONTINUOUS
10
67.3857709999999912
20
-77.4380949999999899
11
67.3381519999999938
21
-77.3428569999999951
0
LINE
8
BLACK
6
CONTINUOUS
10
67.3381519999999938
20
-77.3428569999999951
11
67.3381519999999938
21
-77.2000000000000028
0
LINE
8
BLACK
6
CONTINUOUS
10
67.3381519999999938
20
-77.2000000000000028
11
67.3857709999999912
21
-77.1047609999999963
0
LINE
8
BLACK
6
CONTINUOUS
10
67.3857709999999912
20
-77.1047609999999963
11
67.4810090000000002
21
-77.0571419999999989
0
LINE
8
BLACK
6
CONTINUOUS
10
67.4810090000000002
20
-77.0571419999999989
11
68.0048189999999977
21
-77.0571419999999989
0
LINE
8
BLACK
6
CONTINUOUS
10
75.7000000000000028
20
-69.
11
66.9635799999999932
21
-69.
0
LINE
8
BLACK
6
CONTINUOUS
10
75.7000000000000028
20
-91.3999999999999915
11
66.9635799999999932
21
-91.3999999999999915
0
LINE
8
BLACK
6
CONTINUOUS
10
67.5499999999999972
20
-69.
11
67.5499999999999972
21
-76.1940479999999951
0
LINE
8
BLACK
6
CONTINUOUS
10
67.5499999999999972
20
-84.2059519999999964
11
67.5499999999999972
21
-91.3999999999999915
0
LINE
8
BLACK
6
CONTINUOUS
10
67.5499999999999972
20
-69.
11
68.1364209999999986
21
-70.1265039999999971
0
LINE
8
BLACK
6
CONTINUOUS
10
67.5499999999999972
20
-69.
11
66.9635789999999957
21
-70.1265039999999971
0
LINE
8
BLACK
6
CONTINUOUS
10
67.5499999999999972
20
-91.3999999999999915
11
66.9635789999999957
21
-90.2734959999999944
0
LINE
8
BLACK
6
CONTINUOUS
10
67.5499999999999972
20
-91.3999999999999915
11
68.1364209999999986
21
-90.2734959999999944
0
LINE
8
BLACK
6
CONTINUOUS
10
88.9619050000000016
20
-63.8548189999999991
11
89.5809519999999964
21
-63.8548189999999991
0
LINE
8
BLACK
6
CONTINUOUS
10
89.5809519999999964
20
-63.8548189999999991
11
89.2476190000000003
21
-64.2357709999999997
0
LINE
8
BLACK
6
CONTINUOUS
10
89.2476190000000003
20
-64.2357709999999997
11
89.3904759999999925
21
-64.2357709999999997
0
LINE
8
BLACK
6
CONTINUOUS
10
89.3904759999999925
20
-64.2357709999999997
11
89.4857140000000015
21
-64.2833899999999971
0
LINE
8
BLACK
6
CONTINUOUS
10
89.4857140000000015
20
-64.2833899999999971
11
89.5333329999999989
21
-64.3310089999999946
0
LINE
8
BLACK
6
CONTINUOUS
10
89.5333329999999989
20
-64.3310089999999946
11
89.5809519999999964
21
-64.4262470000000036
0
LINE
8
BLACK
6
CONTINUOUS
10
89.5809519999999964
20
-64.4262470000000036
11
89.5809519999999964
21
-64.6643419999999907
0
LINE
8
BLACK
6
CONTINUOUS
10
89.5809519999999964
20
-64.6643419999999907
11
89.5333329999999989
21
-64.7595799999999997
0
LINE
8
BLACK
6
CONTINUOUS
10
89.5333329999999989
20
-64.7595799999999997
11
89.4857140000000015
21
-64.8071999999999946
0
LINE
8
BLACK
6
CONTINUOUS
10
89.4857140000000015
20
-64.8071999999999946
11
89.3904759999999925
21
-64.854818999999992
0
LINE
8
BLACK
6
CONTINUOUS
10
89.3904759999999925
20
-64.854818999999992
11
89.1047619999999938
21
-64.854818999999992
0
LINE
8
BLACK
6
CONTINUOUS
10
89.1047619999999938
20
-64.854818999999992
11
89.009523999999999
21
-64.8071999999999946
0
LINE
8
BLACK
6
CONTINUOUS
10
89.009523999999999
20
-64.8071999999999946
11
88.9619050000000016
21
-64.7595799999999997
0
LINE
8
BLACK
6
CONTINUOUS
10
90.1523809999999912
20
-64.2833899999999971
11
90.0571429999999964
21
-64.2357709999999997
0
LINE
8
BLACK
6
CONTINUOUS
10
90.0571429999999964
20
-64.2357709999999997
11
90.009523999999999
21
-64.1881520000000023
0
LINE
8
BLACK
6
CONTINUOUS
10
90.009523999999999
20
-64.1881520000000023
11
89.9619050000000016
21
-64.0929139999999933
0
LINE
8
BLACK
6
CONTINUOUS
10
89.9619050000000016
20
-64.0929139999999933
11
89.9619050000000016
21
-64.0452949999999959
0
LINE
8
BLACK
6
CONTINUOUS
10
89.9619050000000016
20
-64.0452949999999959
11
90.009523999999999
21
-63.9500569999999939
0
LINE
8
BLACK
6
CONTINUOUS
10
90.009523999999999
20
-63.9500569999999939
11
90.0571429999999964
21
-63.9024379999999965
0
LINE
8
BLACK
6
CONTINUOUS
10
90.0571429999999964
20
-63.9024379999999965
11
90.1523809999999912
21
-63.8548189999999991
0
LINE
8
BLACK
6
CONTINUOUS
10
90.1523809999999912
20
-63.8548189999999991
11
90.3428569999999951
21
-63.8548189999999991
0
LINE
8
BLACK
6
CONTINUOUS
10
90.3428569999999951
20
-63.8548189999999991
11
90.4380949999999899
21
-63.9024379999999965
0
LINE
8
BLACK
6
CONTINUOUS
10
90.4380949999999899
20
-63.9024379999999965
11
90.4857140000000015
21
-63.9500569999999939
0
LINE
8
BLACK
6
CONTINUOUS
10
90.4857140000000015
20
-63.9500569999999939
11
90.5333329999999989
21
-64.0452949999999959
0
LINE
8
BLACK
6
CONTINUOUS
10
90.5333329999999989
20
-64.0452949999999959
11
90.5333329999999989
21
-64.0929139999999933
0
LINE
8
BLACK
6
CONTINUOUS
10
90.5333329999999989
20
-64.0929139999999933
11
90.4857140000000015
21
-64.1881520000000023
0
LINE
8
BLACK
6
CONTINUOUS
10
90.4857140000000015
20
-64.1881520000000023
11
90.4380949999999899
21
-64.2357709999999997
0
LINE
8
BLACK
6
CONTINUOUS
10
90.4380949999999899
20
-64.2357709999999997
11
90.3428569999999951
21
-64.2833899999999971
0
LINE
8
BLACK
6
CONTINUOUS
10
90.3428569999999951
20
-64.2833899999999971
11
90.1523809999999912
21
-64.2833899999999971
0
LINE
8
BLACK
6
CONTINUOUS
10
90.1523809999999912
20
-64.2833899999999971
11
90.0571429999999964
21
-64.3310089999999946
0
LINE
8
BLACK
6
CONTINUOUS
10
90.0571429999999964
20
-64.3310089999999946
11
90.009523999999999
21
-64.378627999999992
0
LINE
8
BLACK
6
CONTINUOUS
10
90.009523999999999
20
-64.378627999999992
11
89.9619050000000016
21
-64.473866000000001
0
LINE
8
BLACK
6
CONTINUOUS
10
89.9619050000000016
20
-64.473866000000001
11
89.9619050000000016
21
-64.6643419999999907
0
LINE
8
BLACK
6
CONTINUOUS
10
89.9619050000000016
20
-64.6643419999999907
11
90.009523999999999
21
-64.7595799999999997
0
LINE
8
BLACK
6
CONTINUOUS
10
90.009523999999999
20
-64.7595799999999997
11
90.0571429999999964
21
-64.8071999999999946
0
LINE
8
BLACK
6
CONTINUOUS
10
90.0571429999999964
20
-64.8071999999999946
11
90.1523809999999912
21
-64.854818999999992
0
LINE
8
BLACK
6
CONTINUOUS
10
90.1523809999999912
20
-64.854818999999992
11
90.3428569999999951
21
-64.854818999999992
0
LINE
8
BLACK
6
CONTINUOUS
10
90.3428569999999951
20
-64.854818999999992
11
90.4380949999999899
21
-64.8071999999999946
0
LINE
8
BLACK
6
CONTINUOUS
10
90.4380949999999899
20
-64.8071999999999946
11
90.4857140000000015
21
-64.7595799999999997
0
LINE
8
BLACK
6
CONTINUOUS
10
90.4857140000000015
20
-64.7595799999999997
11
90.5333329999999989
21
-64.6643419999999907
0
LINE
8
BLACK
6
CONTINUOUS
10
90.5333329999999989
20
-64.6643419999999907
11
90.5333329999999989
21
-64.473866000000001
0
LINE
8
BLACK
6
CONTINUOUS
10
90.5333329999999989
20
-64.473866000000001
11
90.4857140000000015
21
-64.378627999999992
0
LINE
8
BLACK
6
CONTINUOUS
10
90.4857140000000015
20
-64.378627999999992
11
90.4380949999999899
21
-64.3310089999999946
0
LINE
8
BLACK
6
CONTINUOUS
10
90.4380949999999899
20
-64.3310089999999946
11
90.3428569999999951
21
-64.2833899999999971
0
LINE
8
BLACK
6
CONTINUOUS
10
90.9619050000000016
20
-64.7595799999999997
11
91.009523999999999
21
-64.8071999999999946
0
LINE
8
BLACK
6
CONTINUOUS
10
91.009523999999999
20
-64.8071999999999946
11
90.9619050000000016
21
-64.854818999999992
0
LINE
8
BLACK
6
CONTINUOUS
10
90.9619050000000016
20
-64.854818999999992
11
90.9142859999999899
21
-64.8071999999999946
0
LINE
8
BLACK
6
CONTINUOUS
10
90.9142859999999899
20
-64.8071999999999946
11
90.9619050000000016
21
-64.7595799999999997
0
LINE
8
BLACK
6
CONTINUOUS
10
90.9619050000000016
20
-64.7595799999999997
11
90.9619050000000016
21
-64.854818999999992
0
LINE
8
BLACK
6
CONTINUOUS
10
91.8666659999999951
20
-64.1881520000000023
11
91.8666659999999951
21
-64.854818999999992
0
LINE
8
BLACK
6
CONTINUOUS
10
91.6285709999999938
20
-63.8071999999999946
11
91.3904759999999925
21
-64.5214849999999984
0
LINE
8
BLACK
6
CONTINUOUS
10
91.3904759999999925
20
-64.5214849999999984
11
92.0095230000000015
21
-64.5214849999999984
0
LINE
8
BLACK
6
CONTINUOUS
10
93.1523809999999912
20
-64.854818999999992
11
93.1523809999999912
21
-64.1881520000000023
0
LINE
8
BLACK
6
CONTINUOUS
10
93.1523809999999912
20
-64.2833899999999971
11
93.2000000000000028
21
-64.2357709999999997
0
LINE
8
BLACK
6
CONTINUOUS
10
93.2000000000000028
20
-64.2357709999999997
11
93.2952379999999977
21
-64.1881520000000023
0
LINE
8
BLACK
6
CONTINUOUS
10
93.2952379999999977
20
-64.1881520000000023
11
93.4380949999999899
21
-64.1881520000000023
0
LINE
8
BLACK
6
CONTINUOUS
10
93.4380949999999899
20
-64.1881520000000023
11
93.5333329999999989
21
-64.2357709999999997
0
LINE
8
BLACK
6
CONTINUOUS
10
93.5333329999999989
20
-64.2357709999999997
11
93.5809519999999964
21
-64.3310089999999946
0
LINE
8
BLACK
6
CONTINUOUS
10
93.5809519999999964
20
-64.3310089999999946
11
93.5809519999999964
21
-64.854818999999992
0
LINE
8
BLACK
6
CONTINUOUS
10
93.5809519999999964
20
-64.3310089999999946
11
93.6285709999999938
21
-64.2357709999999997
0
LINE
8
BLACK
6
CONTINUOUS
10
93.6285709999999938
20
-64.2357709999999997
11
93.7238090000000028
21
-64.1881520000000023
0
LINE
8
BLACK
6
CONTINUOUS
10
93.7238090000000028
20
-64.1881520000000023
11
93.8666659999999951
21
-64.1881520000000023
0
LINE
8
BLACK
6
CONTINUOUS
10
93.8666659999999951
20
-64.1881520000000023
11
93.9619050000000016
21
-64.2357709999999997
0
LINE
8
BLACK
6
CONTINUOUS
10
93.9619050000000016
20
-64.2357709999999997
11
94.009523999999999
21
-64.3310089999999946
0
LINE
8
BLACK
6
CONTINUOUS
10
94.009523999999999
20
-64.3310089999999946
11
94.009523999999999
21
-64.854818999999992
0
LINE
8
BLACK
6
CONTINUOUS
10
94.4857140000000015
20
-64.854818999999992
11
94.4857140000000015
21
-64.1881520000000023
0
LINE
8
BLACK
6
CONTINUOUS
10
94.4857140000000015
20
-64.2833899999999971
11
94.5333329999999989
21
-64.2357709999999997
0
LINE
8
BLACK
6
CONTINUOUS
10
94.5333329999999989
20
-64.2357709999999997
11
94.6285709999999938
21
-64.1881520000000023
0
LINE
8
BLACK
6
CONTINUOUS
10
94.6285709999999938
20
-64.1881520000000023
11
94.7714280000000002
21
-64.1881520000000023
0
LINE
8
BLACK
6
CONTINUOUS
10
94.7714280000000002
20
-64.1881520000000023
11
94.8666659999999951
21
-64.2357709999999997
0
LINE
8
BLACK
6
CONTINUOUS
10
94.8666659999999951
20
-64.2357709999999997
11
94.9142849999999925
21
-64.3310089999999946
0
LINE
8
BLACK
6
CONTINUOUS
10
94.9142849999999925
20
-64.3310089999999946
11
94.9142849999999925
21
-64.854818999999992
0
LINE
8
BLACK
6
CONTINUOUS
10
94.9142849999999925
20
-64.3310089999999946
11
94.9619039999999899
21
-64.2357709999999997
0
LINE
8
BLACK
6
CONTINUOUS
10
94.9619039999999899
20
-64.2357709999999997
11
95.0571419999999989
21
-64.1881520000000023
0
LINE
8
BLACK
6
CONTINUOUS
10
95.0571419999999989
20
-64.1881520000000023
11
95.1999989999999912
21
-64.1881520000000023
0
LINE
8
BLACK
6
CONTINUOUS
10
95.1999989999999912
20
-64.1881520000000023
11
95.2952379999999977
21
-64.2357709999999997
0
LINE
8
BLACK
6
CONTINUOUS
10
95.2952379999999977
20
-64.2357709999999997
11
95.3428569999999951
21
-64.3310089999999946
0
LINE
8
BLACK
6
CONTINUOUS
10
95.3428569999999951
20
-64.3310089999999946
11
95.3428569999999951
21
-64.854818999999992
0
LINE
8
BLACK
6
CONTINUOUS
10
73.
20
-71.7000000000000028
11
73.
21
-63.8135799999999946
0
LINE
8
BLACK
6
CONTINUOUS
10
111.3999999999999915
20
-71.7000000000000028
11
111.3999999999999915
21
-63.8135799999999946
0
LINE
8
BLACK
6
CONTINUOUS
10
73.
20
-64.3999999999999915
11
88.1940479999999951
21
-64.3999999999999915
0
LINE
8
BLACK
6
CONTINUOUS
10
96.2059519999999964
20
-64.3999999999999915
11
111.3999999999999915
21
-64.3999999999999915
0
LINE
8
BLACK
6
CONTINUOUS
10
73.
20
-64.3999999999999915
11
74.1265039999999971
21
-63.8135789999999972
0
LINE
8
BLACK
6
CONTINUOUS
10
73.
20
-64.3999999999999915
11
74.1265039999999971
21
-64.9864209999999929
0
LINE
8
BLACK
6
CONTINUOUS
10
111.3999999999999915
20
-64.3999999999999915
11
110.2734959999999944
21
-64.9864209999999929
0
LINE
8
BLACK
6
CONTINUOUS
10
111.3999999999999915
20
-64.3999999999999915
11
110.2734959999999944
21
-63.8135789999999972
0
LINE
8
BLACK
6
CONTINUOUS
10
70.9048190000000034
20
-82.1047609999999963
11
70.9048190000000034
21
-82.6761889999999937
0
LINE
8
BLACK
6
CONTINUOUS
10
70.9048190000000034
20
-82.390474999999995
11
69.9048190000000034
21
-82.390474999999995
0
LINE
8
BLACK
6
CONTINUOUS
10
69.9048190000000034
20
-82.390474999999995
11
70.0476759999999956
21
-82.4857129999999898
0
LINE
8
BLACK
6
CONTINUOUS
10
70.0476759999999956
20
-82.4857129999999898
11
70.1429139999999904
21
-82.5809509999999989
0
LINE
8
BLACK
6
CONTINUOUS
10
70.1429139999999904
20
-82.5809509999999989
11
70.1905330000000021
21
-82.6761889999999937
0
LINE
8
BLACK
6
CONTINUOUS
10
69.9048190000000034
20
-81.2476180000000028
11
69.9048190000000034
21
-81.4380939999999924
0
LINE
8
BLACK
6
CONTINUOUS
10
69.9048190000000034
20
-81.4380939999999924
11
69.9524380000000008
21
-81.5333320000000015
0
LINE
8
BLACK
6
CONTINUOUS
10
69.9524380000000008
20
-81.5333320000000015
11
70.0000569999999982
21
-81.5809509999999989
0
LINE
8
BLACK
6
CONTINUOUS
10
70.0000569999999982
20
-81.5809509999999989
11
70.1429139999999904
21
-81.6761889999999937
0
LINE
8
BLACK
6
CONTINUOUS
10
70.1429139999999904
20
-81.6761889999999937
11
70.3333899999999943
21
-81.7238079999999911
0
LINE
8
BLACK
6
CONTINUOUS
10
70.3333899999999943
20
-81.7238079999999911
11
70.714342000000002
21
-81.7238079999999911
0
LINE
8
BLACK
6
CONTINUOUS
10
70.714342000000002
20
-81.7238079999999911
11
70.8095799999999969
21
-81.6761889999999937
0
LINE
8
BLACK
6
CONTINUOUS
10
70.8095799999999969
20
-81.6761889999999937
11
70.8571999999999917
21
-81.6285699999999963
0
LINE
8
BLACK
6
CONTINUOUS
10
70.8571999999999917
20
-81.6285699999999963
11
70.9048190000000034
21
-81.5333320000000015
0
LINE
8
BLACK
6
CONTINUOUS
10
70.9048190000000034
20
-81.5333320000000015
11
70.9048190000000034
21
-81.3428559999999976
0
LINE
8
BLACK
6
CONTINUOUS
10
70.9048190000000034
20
-81.3428559999999976
11
70.8571999999999917
21
-81.2476180000000028
0
LINE
8
BLACK
6
CONTINUOUS
10
70.8571999999999917
20
-81.2476180000000028
11
70.8095799999999969
21
-81.1999989999999912
0
LINE
8
BLACK
6
CONTINUOUS
10
70.8095799999999969
20
-81.1999989999999912
11
70.714342000000002
21
-81.1523799999999937
0
LINE
8
BLACK
6
CONTINUOUS
10
70.714342000000002
20
-81.1523799999999937
11
70.4762470000000008
21
-81.1523799999999937
0
LINE
8
BLACK
6
CONTINUOUS
10
70.4762470000000008
20
-81.1523799999999937
11
70.3810089999999917
21
-81.1999989999999912
0
LINE
8
BLACK
6
CONTINUOUS
10
70.3810089999999917
20
-81.1999989999999912
11
70.3333899999999943
21
-81.2476180000000028
0
LINE
8
BLACK
6
CONTINUOUS
10
70.3333899999999943
20
-81.2476180000000028
11
70.2857709999999969
21
-81.3428559999999976
0
LINE
8
BLACK
6
CONTINUOUS
10
70.2857709999999969
20
-81.3428559999999976
11
70.2857709999999969
21
-81.5333320000000015
0
LINE
8
BLACK
6
CONTINUOUS
10
70.2857709999999969
20
-81.5333320000000015
11
70.3333899999999943
21
-81.6285699999999963
0
LINE
8
BLACK
6
CONTINUOUS
10
70.3333899999999943
20
-81.6285699999999963
11
70.3810089999999917
21
-81.6761889999999937
0
LINE
8
BLACK
6
CONTINUOUS
10
70.3810089999999917
20
-81.6761889999999937
11
70.4762470000000008
21
-81.7238079999999911
0
LINE
8
BLACK
6
CONTINUOUS
10
70.9048190000000034
20
-79.9619029999999924
11
70.2381519999999995
21
-79.9619029999999924
0
LINE
8
BLACK
6
CONTINUOUS
10
70.3333899999999943
20
-79.9619029999999924
11
70.2857709999999969
21
-79.914283999999995
0
LINE
8
BLACK
6
CONTINUOUS
10
70.2857709999999969
20
-79.914283999999995
11
70.2381519999999995
21
-79.8190460000000002
0
LINE
8
BLACK
6
CONTINUOUS
10
70.2381519999999995
20
-79.8190460000000002
11
70.2381519999999995
21
-79.6761889999999937
0
LINE
8
BLACK
6
CONTINUOUS
10
70.2381519999999995
20
-79.6761889999999937
11
70.2857709999999969
21
-79.5809509999999989
0
LINE
8
BLACK
6
CONTINUOUS
10
70.2857709999999969
20
-79.5809509999999989
11
70.3810089999999917
21
-79.5333320000000015
0
LINE
8
BLACK
6
CONTINUOUS
10
70.3810089999999917
20
-79.5333320000000015
11
70.9048190000000034
21
-79.5333320000000015
0
LINE
8
BLACK
6
CONTINUOUS
10
70.3810089999999917
20
-79.5333320000000015
11
70.2857709999999969
21
-79.4857129999999898
0
LINE
8
BLACK
6
CONTINUOUS
10
70.2857709999999969
20
-79.4857129999999898
11
70.2381519999999995
21
-79.390474999999995
0
LINE
8
BLACK
6
CONTINUOUS
10
70.2381519999999995
20
-79.390474999999995
11
70.2381519999999995
21
-79.2476180000000028
0
LINE
8
BLACK
6
CONTINUOUS
10
70.2381519999999995
20
-79.2476180000000028
11
70.2857709999999969
21
-79.1523789999999963
0
LINE
8
BLACK
6
CONTINUOUS
10
70.2857709999999969
20
-79.1523789999999963
11
70.3810089999999917
21
-79.1047599999999989
0
LINE
8
BLACK
6
CONTINUOUS
10
70.3810089999999917
20
-79.1047599999999989
11
70.9048190000000034
21
-79.1047599999999989
0
LINE
8
BLACK
6
CONTINUOUS
10
70.9048190000000034
20
-78.6285699999999963
11
70.2381519999999995
21
-78.6285699999999963
0
LINE
8
BLACK
6
CONTINUOUS
10
70.3333899999999943
20
-78.6285699999999963
11
70.2857709999999969
21
-78.5809509999999989
0
LINE
8
BLACK
6
CONTINUOUS
10
70.2857709999999969
20
-78.5809509999999989
11
70.2381519999999995
21
-78.4857129999999898
0
LINE
8
BLACK
6
CONTINUOUS
10
70.2381519999999995
20
-78.4857129999999898
11
70.2381519999999995
21
-78.3428559999999976
0
LINE
8
BLACK
6
CONTINUOUS
10
70.2381519999999995
20
-78.3428559999999976
11
70.2857709999999969
21
-78.2476180000000028
0
LINE
8
BLACK
6
CONTINUOUS
10
70.2857709999999969
20
-78.2476180000000028
11
70.3810089999999917
21
-78.1999989999999912
0
LINE
8
BLACK
6
CONTINUOUS
10
70.3810089999999917
20
-78.1999989999999912
11
70.9048190000000034
21
-78.1999989999999912
0
LINE
8
BLACK
6
CONTINUOUS
10
70.3810089999999917
20
-78.1999989999999912
11
70.2857709999999969
21
-78.1523799999999937
0
LINE
8
BLACK
6
CONTINUOUS
10
70.2857709999999969
20
-78.1523799999999937
11
70.2381519999999995
21
-78.0571419999999989
0
LINE
8
BLACK
6
CONTINUOUS
10
70.2381519999999995
20
-78.0571419999999989
11
70.2381519999999995
21
-77.9142849999999925
0
LINE
8
BLACK
6
CONTINUOUS
10
70.2381519999999995
20
-77.9142849999999925
11
70.2857709999999969
21
-77.8190460000000002
0
LINE
8
BLACK
6
CONTINUOUS
10
70.2857709999999969
20
-77.8190460000000002
11
70.3810089999999917
21
-77.7714270000000027
0
LINE
8
BLACK
6
CONTINUOUS
10
70.3810089999999917
20
-77.7714270000000027
11
70.9048190000000034
21
-77.7714270000000027
0
LINE
8
BLACK
6
CONTINUOUS
10
87.7000000000000028
20
-72.2000000000000028
11
69.8635799999999989
21
-72.2000000000000028
0
LINE
8
BLACK
6
CONTINUOUS
10
87.7000000000000028
20
-88.2000000000000028
11
69.8635799999999989
21
-88.2000000000000028
0
LINE
8
BLACK
6
CONTINUOUS
10
70.4500000000000028
20
-72.2000000000000028
11
70.4500000000000028
21
-76.9083329999999989
0
LINE
8
BLACK
6
CONTINUOUS
10
70.4500000000000028
20
-83.4916659999999951
11
70.4500000000000028
21
-88.2000000000000028
0
LINE
8
BLACK
6
CONTINUOUS
10
70.4500000000000028
20
-72.2000000000000028
11
71.03642099999999
21
-73.3265039999999999
0
LINE
8
BLACK
6
CONTINUOUS
10
70.4500000000000028
20
-72.2000000000000028
11
69.8635790000000014
21
-73.3265039999999999
0
LINE
8
BLACK
6
CONTINUOUS
10
70.4500000000000028
20
-88.2000000000000028
11
69.8635790000000014
21
-87.0734959999999916
0
LINE
8
BLACK
6
CONTINUOUS
10
70.4500000000000028
20
-88.2000000000000028
11
71.03642099999999
21
-87.0734959999999916
0
LINE
8
BLACK
6
CONTINUOUS
10
77.980952000000002
20
-94.2048190000000005
11
77.4095239999999905
21
-94.2048190000000005
0
LINE
8
BLACK
6
CONTINUOUS
10
77.6952380000000034
20
-94.2048190000000005
11
77.6952380000000034
21
-93.2048190000000005
0
LINE
8
BLACK
6
CONTINUOUS
10
77.6952380000000034
20
-93.2048190000000005
11
77.5999999999999943
21
-93.3476759999999928
0
LINE
8
BLACK
6
CONTINUOUS
10
77.5999999999999943
20
-93.3476759999999928
11
77.5047619999999995
21
-93.4429140000000018
0
LINE
8
BLACK
6
CONTINUOUS
10
77.5047619999999995
20
-93.4429140000000018
11
77.4095239999999905
21
-93.4905329999999992
0
LINE
8
BLACK
6
CONTINUOUS
10
78.885713999999993
20
-93.2048190000000005
11
78.4095239999999905
21
-93.2048190000000005
0
LINE
8
BLACK
6
CONTINUOUS
10
78.4095239999999905
20
-93.2048190000000005
11
78.361904999999993
21
-93.6810089999999889
0
LINE
8
BLACK
6
CONTINUOUS
10
78.361904999999993
20
-93.6810089999999889
11
78.4095239999999905
21
-93.6333899999999915
0
LINE
8
BLACK
6
CONTINUOUS
10
78.4095239999999905
20
-93.6333899999999915
11
78.5047619999999995
21
-93.585770999999994
0
LINE
8
BLACK
6
CONTINUOUS
10
78.5047619999999995
20
-93.585770999999994
11
78.7428570000000008
21
-93.585770999999994
0
LINE
8
BLACK
6
CONTINUOUS
10
78.7428570000000008
20
-93.585770999999994
11
78.8380949999999956
21
-93.6333899999999915
0
LINE
8
BLACK
6
CONTINUOUS
10
78.8380949999999956
20
-93.6333899999999915
11
78.885713999999993
21
-93.6810089999999889
0
LINE
8
BLACK
6
CONTINUOUS
10
78.885713999999993
20
-93.6810089999999889
11
78.9333329999999904
21
-93.7762469999999979
0
LINE
8
BLACK
6
CONTINUOUS
10
78.9333329999999904
20
-93.7762469999999979
11
78.9333329999999904
21
-94.0143419999999992
0
LINE
8
BLACK
6
CONTINUOUS
10
78.9333329999999904
20
-94.0143419999999992
11
78.885713999999993
21
-94.109579999999994
0
LINE
8
BLACK
6
CONTINUOUS
10
78.885713999999993
20
-94.109579999999994
11
78.8380949999999956
21
-94.1571999999999889
0
LINE
8
BLACK
6
CONTINUOUS
10
78.8380949999999956
20
-94.1571999999999889
11
78.7428570000000008
21
-94.2048190000000005
0
LINE
8
BLACK
6
CONTINUOUS
10
78.7428570000000008
20
-94.2048190000000005
11
78.5047619999999995
21
-94.2048190000000005
0
LINE
8
BLACK
6
CONTINUOUS
10
78.5047619999999995
20
-94.2048190000000005
11
78.4095239999999905
21
-94.1571999999999889
0
LINE
8
BLACK
6
CONTINUOUS
10
78.4095239999999905
20
-94.1571999999999889
11
78.361904999999993
21
-94.109579999999994
0
LINE
8
BLACK
6
CONTINUOUS
10
79.361904999999993
20
-94.109579999999994
11
79.4095239999999905
21
-94.1571999999999889
0
LINE
8
BLACK
6
CONTINUOUS
10
79.4095239999999905
20
-94.1571999999999889
11
79.361904999999993
21
-94.2048190000000005
0
LINE
8
BLACK
6
CONTINUOUS
10
79.361904999999993
20
-94.2048190000000005
11
79.3142859999999956
21
-94.1571999999999889
0
LINE
8
BLACK
6
CONTINUOUS
10
79.3142859999999956
20
-94.1571999999999889
11
79.361904999999993
21
-94.109579999999994
0
LINE
8
BLACK
6
CONTINUOUS
10
79.361904999999993
20
-94.109579999999994
11
79.361904999999993
21
-94.2048190000000005
0
LINE
8
BLACK
6
CONTINUOUS
10
79.7904759999999982
20
-93.3000569999999954
11
79.8380949999999956
21
-93.2524379999999979
0
LINE
8
BLACK
6
CONTINUOUS
10
79.8380949999999956
20
-93.2524379999999979
11
79.9333329999999904
21
-93.2048190000000005
0
LINE
8
BLACK
6
CONTINUOUS
10
79.9333329999999904
20
-93.2048190000000005
11
80.1714279999999917
21
-93.2048190000000005
0
LINE
8
BLACK
6
CONTINUOUS
10
80.1714279999999917
20
-93.2048190000000005
11
80.2666660000000007
21
-93.2524379999999979
0
LINE
8
BLACK
6
CONTINUOUS
10
80.2666660000000007
20
-93.2524379999999979
11
80.3142849999999981
21
-93.3000569999999954
0
LINE
8
BLACK
6
CONTINUOUS
10
80.3142849999999981
20
-93.3000569999999954
11
80.3619039999999956
21
-93.3952949999999902
0
LINE
8
BLACK
6
CONTINUOUS
10
80.3619039999999956
20
-93.3952949999999902
11
80.3619039999999956
21
-93.4905329999999992
0
LINE
8
BLACK
6
CONTINUOUS
10
80.3619039999999956
20
-93.4905329999999992
11
80.3142849999999981
21
-93.6333899999999915
0
LINE
8
BLACK
6
CONTINUOUS
10
80.3142849999999981
20
-93.6333899999999915
11
79.7428570000000008
21
-94.2048190000000005
0
LINE
8
BLACK
6
CONTINUOUS
10
79.7428570000000008
20
-94.2048190000000005
11
80.3619039999999956
21
-94.2048190000000005
0
LINE
8
BLACK
6
CONTINUOUS
10
81.5523809999999969
20
-94.2048190000000005
11
81.5523809999999969
21
-93.5381519999999966
0
LINE
8
BLACK
6
CONTINUOUS
10
81.5523809999999969
20
-93.6333899999999915
11
81.5999999999999943
21
-93.585770999999994
0
LINE
8
BLACK
6
CONTINUOUS
10
81.5999999999999943
20
-93.585770999999994
11
81.6952380000000034
21
-93.5381519999999966
0
LINE
8
BLACK
6
CONTINUOUS
10
81.6952380000000034
20
-93.5381519999999966
11
81.8380949999999956
21
-93.5381519999999966
0
LINE
8
BLACK
6
CONTINUOUS
10
81.8380949999999956
20
-93.5381519999999966
11
81.9333329999999904
21
-93.585770999999994
0
LINE
8
BLACK
6
CONTINUOUS
10
81.9333329999999904
20
-93.585770999999994
11
81.980952000000002
21
-93.6810089999999889
0
LINE
8
BLACK
6
CONTINUOUS
10
81.980952000000002
20
-93.6810089999999889
11
81.980952000000002
21
-94.2048190000000005
0
LINE
8
BLACK
6
CONTINUOUS
10
81.980952000000002
20
-93.6810089999999889
11
82.0285709999999995
21
-93.585770999999994
0
LINE
8
BLACK
6
CONTINUOUS
10
82.0285709999999995
20
-93.585770999999994
11
82.1238089999999943
21
-93.5381519999999966
0
LINE
8
BLACK
6
CONTINUOUS
10
82.1238089999999943
20
-93.5381519999999966
11
82.2666660000000007
21
-93.5381519999999966
0
LINE
8
BLACK
6
CONTINUOUS
10
82.2666660000000007
20
-93.5381519999999966
11
82.361904999999993
21
-93.585770999999994
0
LINE
8
BLACK
6
CONTINUOUS
10
82.361904999999993
20
-93.585770999999994
11
82.4095239999999905
21
-93.6810089999999889
0
LINE
8
BLACK
6
CONTINUOUS
10
82.4095239999999905
20
-93.6810089999999889
11
82.4095239999999905
21
-94.2048190000000005
0
LINE
8
BLACK
6
CONTINUOUS
10
82.885713999999993
20
-94.2048190000000005
11
82.885713999999993
21
-93.5381519999999966
0
LINE
8
BLACK
6
CONTINUOUS
10
82.885713999999993
20
-93.6333899999999915
11
82.9333329999999904
21
-93.585770999999994
0
LINE
8
BLACK
6
CONTINUOUS
10
82.9333329999999904
20
-93.585770999999994
11
83.0285709999999995
21
-93.5381519999999966
0
LINE
8
BLACK
6
CONTINUOUS
10
83.0285709999999995
20
-93.5381519999999966
11
83.1714279999999917
21
-93.5381519999999966
0
LINE
8
BLACK
6
CONTINUOUS
10
83.1714279999999917
20
-93.5381519999999966
11
83.2666660000000007
21
-93.585770999999994
0
LINE
8
BLACK
6
CONTINUOUS
10
83.2666660000000007
20
-93.585770999999994
11
83.3142849999999981
21
-93.6810089999999889
0
LINE
8
BLACK
6
CONTINUOUS
10
83.3142849999999981
20
-93.6810089999999889
11
83.3142849999999981
21
-94.2048190000000005
0
LINE
8
BLACK
6
CONTINUOUS
10
83.3142849999999981
20
-93.6810089999999889
11
83.3619039999999956
21
-93.585770999999994
0
LINE
8
BLACK
6
CONTINUOUS
10
83.3619039999999956
20
-93.585770999999994
11
83.4571419999999904
21
-93.5381519999999966
0
LINE
8
BLACK
6
CONTINUOUS
10
83.4571419999999904
20
-93.5381519999999966
11
83.5999989999999968
21
-93.5381519999999966
0
LINE
8
BLACK
6
CONTINUOUS
10
83.5999989999999968
20
-93.5381519999999966
11
83.6952379999999891
21
-93.585770999999994
0
LINE
8
BLACK
6
CONTINUOUS
10
83.6952379999999891
20
-93.585770999999994
11
83.7428570000000008
21
-93.6810089999999889
0
LINE
8
BLACK
6
CONTINUOUS
10
83.7428570000000008
20
-93.6810089999999889
11
83.7428570000000008
21
-94.2048190000000005
0
LINE
8
BLACK
6
CONTINUOUS
10
88.2000000000000028
20
-88.7000000000000028
11
88.2000000000000028
21
-94.3364199999999897
0
LINE
8
BLACK
6
CONTINUOUS
10
73.
20
-88.7000000000000028
11
73.
21
-94.3364199999999897
0
LINE
8
BLACK
6
CONTINUOUS
10
88.2000000000000028
20
-93.75
11
84.605952000000002
21
-93.75
0
LINE
8
BLACK
6
CONTINUOUS
10
76.5940480000000008
20
-93.75
11
73.
21
-93.75
0
LINE
8
BLACK
6
CONTINUOUS
10
88.2000000000000028
20
-93.75
11
87.0734959999999916
21
-94.3364210000000014
0
LINE
8
BLACK
6
CONTINUOUS
10
88.2000000000000028
20
-93.75
11
87.0734959999999916
21
-93.1635789999999986
0
LINE
8
BLACK
6
CONTINUOUS
10
73.
20
-93.75
11
74.1265039999999971
21
-93.1635789999999986
0
LINE
8
BLACK
6
CONTINUOUS
10
73.
20
-93.75
11
74.1265039999999971
21
-94.3364210000000014
0
LINE
8
BLACK
6
CONTINUOUS
10
91.8119049999999959
20
-66.8881519999999909
11
91.8119049999999959
21
-67.5548189999999948
0
LINE
8
BLACK
6
CONTINUOUS
10
91.5738099999999946
20
-66.5071999999999974
11
91.3357149999999933
21
-67.2214850000000013
0
LINE
8
BLACK
6
CONTINUOUS
10
91.3357149999999933
20
-67.2214850000000013
11
91.9547620000000023
21
-67.2214850000000013
0
LINE
8
BLACK
6
CONTINUOUS
10
92.3357149999999933
20
-67.4595800000000025
11
92.3833339999999907
21
-67.5071999999999974
0
LINE
8
BLACK
6
CONTINUOUS
10
92.3833339999999907
20
-67.5071999999999974
11
92.3357149999999933
21
-67.5548189999999948
0
LINE
8
BLACK
6
CONTINUOUS
10
92.3357149999999933
20
-67.5548189999999948
11
92.2880959999999959
21
-67.5071999999999974
0
LINE
8
BLACK
6
CONTINUOUS
10
92.2880959999999959
20
-67.5071999999999974
11
92.3357149999999933
21
-67.4595800000000025
0
LINE
8
BLACK
6
CONTINUOUS
10
92.3357149999999933
20
-67.4595800000000025
11
92.3357149999999933
21
-67.5548189999999948
0
LINE
8
BLACK
6
CONTINUOUS
10
92.7166670000000011
20
-66.5548189999999948
11
93.3833329999999933
21
-66.5548189999999948
0
LINE
8
BLACK
6
CONTINUOUS
10
93.3833329999999933
20
-66.5548189999999948
11
92.9547620000000023
21
-67.5548189999999948
0
LINE
8
BLACK
6
CONTINUOUS
10
94.5261909999999972
20
-67.5548189999999948
11
94.5261909999999972
21
-66.8881519999999909
0
LINE
8
BLACK
6
CONTINUOUS
10
94.5261909999999972
20
-66.98339
11
94.5738099999999946
21
-66.9357710000000026
0
LINE
8
BLACK
6
CONTINUOUS
10
94.5738099999999946
20
-66.9357710000000026
11
94.6690479999999894
21
-66.8881519999999909
0
LINE
8
BLACK
6
CONTINUOUS
10
94.6690479999999894
20
-66.8881519999999909
11
94.8119049999999959
21
-66.8881519999999909
0
LINE
8
BLACK
6
CONTINUOUS
10
94.8119049999999959
20
-66.8881519999999909
11
94.9071429999999907
21
-66.9357710000000026
0
LINE
8
BLACK
6
CONTINUOUS
10
94.9071429999999907
20
-66.9357710000000026
11
94.9547620000000023
21
-67.0310089999999974
0
LINE
8
BLACK
6
CONTINUOUS
10
94.9547620000000023
20
-67.0310089999999974
11
94.9547620000000023
21
-67.5548189999999948
0
LINE
8
BLACK
6
CONTINUOUS
10
94.9547620000000023
20
-67.0310089999999974
11
95.0023809999999997
21
-66.9357710000000026
0
LINE
8
BLACK
6
CONTINUOUS
10
95.0023809999999997
20
-66.9357710000000026
11
95.0976189999999946
21
-66.8881519999999909
0
LINE
8
BLACK
6
CONTINUOUS
10
95.0976189999999946
20
-66.8881519999999909
11
95.240476000000001
21
-66.8881519999999909
0
LINE
8
BLACK
6
CONTINUOUS
10
95.240476000000001
20
-66.8881519999999909
11
95.3357149999999933
21
-66.9357710000000026
0
LINE
8
BLACK
6
CONTINUOUS
10
95.3357149999999933
20
-66.9357710000000026
11
95.3833339999999907
21
-67.0310089999999974
0
LINE
8
BLACK
6
CONTINUOUS
10
95.3833339999999907
20
-67.0310089999999974
11
95.3833339999999907
21
-67.5548189999999948
0
LINE
8
BLACK
6
CONTINUOUS
10
95.8595239999999933
20
-67.5548189999999948
11
95.8595239999999933
21
-66.8881519999999909
0
LINE
8
BLACK
6
CONTINUOUS
10
95.8595239999999933
20
-66.98339
11
95.9071429999999907
21
-66.9357710000000026
0
LINE
8
BLACK
6
CONTINUOUS
10
95.9071429999999907
20
-66.9357710000000026
11
96.0023809999999997
21
-66.8881519999999909
0
LINE
8
BLACK
6
CONTINUOUS
10
96.0023809999999997
20
-66.8881519999999909
11
96.145237999999992
21
-66.8881519999999909
0
LINE
8
BLACK
6
CONTINUOUS
10
96.145237999999992
20
-66.8881519999999909
11
96.240476000000001
21
-66.9357710000000026
0
LINE
8
BLACK
6
CONTINUOUS
10
96.240476000000001
20
-66.9357710000000026
11
96.2880949999999984
21
-67.0310089999999974
0
LINE
8
BLACK
6
CONTINUOUS
10
96.2880949999999984
20
-67.0310089999999974
11
96.2880949999999984
21
-67.5548189999999948
0
LINE
8
BLACK
6
CONTINUOUS
10
96.2880949999999984
20
-67.0310089999999974
11
96.3357139999999958
21
-66.9357710000000026
0
LINE
8
BLACK
6
CONTINUOUS
10
96.3357139999999958
20
-66.9357710000000026
11
96.4309519999999907
21
-66.8881519999999909
0
LINE
8
BLACK
6
CONTINUOUS
10
96.4309519999999907
20
-66.8881519999999909
11
96.5738089999999971
21
-66.8881519999999909
0
LINE
8
BLACK
6
CONTINUOUS
10
96.5738089999999971
20
-66.8881519999999909
11
96.6690479999999894
21
-66.9357710000000026
0
LINE
8
BLACK
6
CONTINUOUS
10
96.6690479999999894
20
-66.9357710000000026
11
96.7166670000000011
21
-67.0310089999999974
0
LINE
8
BLACK
6
CONTINUOUS
10
96.7166670000000011
20
-67.0310089999999974
11
96.7166670000000011
21
-67.5548189999999948
0
LINE
8
BLACK
6
CONTINUOUS
10
85.8499999999999943
20
-71.7000000000000028
11
85.8499999999999943
21
-66.5135799999999904
0
LINE
8
BLACK
6
CONTINUOUS
10
90.5499999999999972
20
-71.7000000000000028
11
90.5499999999999972
21
-66.5135799999999904
0
LINE
8
BLACK
6
CONTINUOUS
10
85.8499999999999943
20
-67.0999999999999943
11
90.5202389999999895
21
-67.0999999999999943
0
LINE
8
BLACK
6
CONTINUOUS
10
85.8499999999999943
20
-67.0999999999999943
11
86.9765039999999914
21
-66.5135789999999929
0
LINE
8
BLACK
6
CONTINUOUS
10
85.8499999999999943
20
-67.0999999999999943
11
86.9765039999999914
21
-67.6864209999999957
0
LINE
8
BLACK
6
CONTINUOUS
10
90.5499999999999972
20
-67.0999999999999943
11
89.4234960000000001
21
-67.6864209999999957
0
LINE
8
BLACK
6
CONTINUOUS
10
90.5499999999999972
20
-67.0999999999999943
11
89.4234960000000001
21
-66.5135789999999929
0
CIRCLE
8
BLACK
10
88.2000000000000028
20
-72.2000000000000028
40
2.3500000000000001
0
CIRCLE
8
BLACK
10
88.2000000000000028
20
-88.2000000000000028
40
2.3500000000000001
0
LINE
8
BLACK
6
CONTINUOUS
10
77.9285720000000026
20
-71.0473420000000004
11
77.9285720000000026
21
-69.8473419999999976
0
LINE
8
BLACK
6
CONTINUOUS
10
77.9285720000000026
20
-69.8473419999999976
11
78.3857149999999905
21
-69.8473419999999976
0
LINE
8
BLACK
6
CONTINUOUS
10
78.3857149999999905
20
-69.8473419999999976
11
78.5
21
-69.904484999999994
0
LINE
8
BLACK
6
CONTINUOUS
10
78.5
20
-69.904484999999994
11
78.5571429999999964
21
-69.9616279999999904
0
LINE
8
BLACK
6
CONTINUOUS
10
78.5571429999999964
20
-69.9616279999999904
11
78.6142859999999928
21
-70.0759139999999974
0
LINE
8
BLACK
6
CONTINUOUS
10
78.6142859999999928
20
-70.0759139999999974
11
78.6142859999999928
21
-70.2473420000000033
0
LINE
8
BLACK
6
CONTINUOUS
10
78.6142859999999928
20
-70.2473420000000033
11
78.5571429999999964
21
-70.3616279999999961
0
LINE
8
BLACK
6
CONTINUOUS
10
78.5571429999999964
20
-70.3616279999999961
11
78.5
21
-70.4187709999999925
0
LINE
8
BLACK
6
CONTINUOUS
10
78.5
20
-70.4187709999999925
11
78.3857149999999905
21
-70.4759140000000031
0
LINE
8
BLACK
6
CONTINUOUS
10
78.3857149999999905
20
-70.4759140000000031
11
77.9285720000000026
21
-70.4759140000000031
0
LINE
8
BLACK
6
CONTINUOUS
10
79.2999999999999972
20
-71.0473420000000004
11
79.1857150000000019
21
-70.9902000000000015
0
LINE
8
BLACK
6
CONTINUOUS
10
79.1857150000000019
20
-70.9902000000000015
11
79.1285719999999912
21
-70.9330569999999909
0
LINE
8
BLACK
6
CONTINUOUS
10
79.1285719999999912
20
-70.9330569999999909
11
79.0714289999999949
21
-70.8187709999999981
0
LINE
8
BLACK
6
CONTINUOUS
10
79.0714289999999949
20
-70.8187709999999981
11
79.0714289999999949
21
-70.4759140000000031
0
LINE
8
BLACK
6
CONTINUOUS
10
79.0714289999999949
20
-70.4759140000000031
11
79.1285719999999912
21
-70.3616279999999961
0
LINE
8
BLACK
6
CONTINUOUS
10
79.1285719999999912
20
-70.3616279999999961
11
79.1857150000000019
21
-70.3044849999999997
0
LINE
8
BLACK
6
CONTINUOUS
10
79.1857150000000019
20
-70.3044849999999997
11
79.2999999999999972
21
-70.2473420000000033
0
LINE
8
BLACK
6
CONTINUOUS
10
79.2999999999999972
20
-70.2473420000000033
11
79.4714290000000005
21
-70.2473420000000033
0
LINE
8
BLACK
6
CONTINUOUS
10
79.4714290000000005
20
-70.2473420000000033
11
79.5857149999999933
21
-70.3044849999999997
0
LINE
8
BLACK
6
CONTINUOUS
10
79.5857149999999933
20
-70.3044849999999997
11
79.6428579999999897
21
-70.3616279999999961
0
LINE
8
BLACK
6
CONTINUOUS
10
79.6428579999999897
20
-70.3616279999999961
11
79.7000000000000028
21
-70.4759140000000031
0
LINE
8
BLACK
6
CONTINUOUS
10
79.7000000000000028
20
-70.4759140000000031
11
79.7000000000000028
21
-70.8187709999999981
0
LINE
8
BLACK
6
CONTINUOUS
10
79.7000000000000028
20
-70.8187709999999981
11
79.6428579999999897
21
-70.9330569999999909
0
LINE
8
BLACK
6
CONTINUOUS
10
79.6428579999999897
20
-70.9330569999999909
11
79.5857149999999933
21
-70.9902000000000015
0
LINE
8
BLACK
6
CONTINUOUS
10
79.5857149999999933
20
-70.9902000000000015
11
79.4714290000000005
21
-71.0473420000000004
0
LINE
8
BLACK
6
CONTINUOUS
10
79.4714290000000005
20
-71.0473420000000004
11
79.2999999999999972
21
-71.0473420000000004
0
LINE
8
BLACK
6
CONTINUOUS
10
80.0999999999999943
20
-70.2473420000000033
11
80.3285719999999941
21
-71.0473420000000004
0
LINE
8
BLACK
6
CONTINUOUS
10
80.3285719999999941
20
-71.0473420000000004
11
80.5571429999999964
21
-70.4759140000000031
0
LINE
8
BLACK
6
CONTINUOUS
10
80.5571429999999964
20
-70.4759140000000031
11
80.7857139999999987
21
-71.0473420000000004
0
LINE
8
BLACK
6
CONTINUOUS
10
80.7857139999999987
20
-71.0473420000000004
11
81.0142859999999985
21
-70.2473420000000033
0
LINE
8
BLACK
6
CONTINUOUS
10
81.9285720000000026
20
-70.9902000000000015
11
81.8142859999999956
21
-71.0473420000000004
0
LINE
8
BLACK
6
CONTINUOUS
10
81.8142859999999956
20
-71.0473420000000004
11
81.5857149999999933
21
-71.0473420000000004
0
LINE
8
BLACK
6
CONTINUOUS
10
81.5857149999999933
20
-71.0473420000000004
11
81.4714290000000005
21
-70.9902000000000015
0
LINE
8
BLACK
6
CONTINUOUS
10
81.4714290000000005
20
-70.9902000000000015
11
81.4142859999999899
21
-70.8759139999999945
0
LINE
8
BLACK
6
CONTINUOUS
10
81.4142859999999899
20
-70.8759139999999945
11
81.4142859999999899
21
-70.4187709999999925
0
LINE
8
BLACK
6
CONTINUOUS
10
81.4142859999999899
20
-70.4187709999999925
11
81.4714290000000005
21
-70.3044849999999997
0
LINE
8
BLACK
6
CONTINUOUS
10
81.4714290000000005
20
-70.3044849999999997
11
81.5857149999999933
21
-70.2473420000000033
0
LINE
8
BLACK
6
CONTINUOUS
10
81.5857149999999933
20
-70.2473420000000033
11
81.8142859999999956
21
-70.2473420000000033
0
LINE
8
BLACK
6
CONTINUOUS
10
81.8142859999999956
20
-70.2473420000000033
11
81.9285720000000026
21
-70.3044849999999997
0
LINE
8
BLACK
6
CONTINUOUS
10
81.9285720000000026
20
-70.3044849999999997
11
81.985714999999999
21
-70.4187709999999925
0
LINE
8
BLACK
6
CONTINUOUS
10
81.985714999999999
20
-70.4187709999999925
11
81.985714999999999
21
-70.5330569999999994
0
LINE
8
BLACK
6
CONTINUOUS
10
81.985714999999999
20
-70.5330569999999994
11
81.4142859999999899
21
-70.6473419999999948
0
LINE
8
BLACK
6
CONTINUOUS
10
82.5
20
-71.0473420000000004
11
82.5
21
-70.2473420000000033
0
LINE
8
BLACK
6
CONTINUOUS
10
82.5
20
-70.4759140000000031
11
82.5571429999999964
21
-70.3616279999999961
0
LINE
8
BLACK
6
CONTINUOUS
10
82.5571429999999964
20
-70.3616279999999961
11
82.6142859999999928
21
-70.3044849999999997
0
LINE
8
BLACK
6
CONTINUOUS
10
82.6142859999999928
20
-70.3044849999999997
11
82.7285710000000023
21
-70.2473420000000033
0
LINE
8
BLACK
6
CONTINUOUS
10
82.7285710000000023
20
-70.2473420000000033
11
82.8428569999999951
21
-70.2473420000000033
0
LINE
8
BLACK
6
CONTINUOUS
10
83.9470900000000029
20
-78.4238100000000031
11
84.0089949999999988
21
-78.2999999999999972
0
LINE
8
BLACK
6
CONTINUOUS
10
84.0089949999999988
20
-78.2999999999999972
11
84.0089949999999988
21
-78.1142859999999928
0
LINE
8
BLACK
6
CONTINUOUS
10
84.0089949999999988
20
-78.1142859999999928
11
83.9470900000000029
21
-77.9285720000000026
0
LINE
8
BLACK
6
CONTINUOUS
10
83.9470900000000029
20
-77.9285720000000026
11
83.8232799999999969
21
-77.8047619999999966
0
LINE
8
BLACK
6
CONTINUOUS
10
83.8232799999999969
20
-77.8047619999999966
11
83.6994710000000026
21
-77.7428570000000008
0
LINE
8
BLACK
6
CONTINUOUS
10
83.6994710000000026
20
-77.7428570000000008
11
83.4518520000000024
21
-77.6809530000000024
0
LINE
8
BLACK
6
CONTINUOUS
10
83.4518520000000024
20
-77.6809530000000024
11
83.266137999999998
21
-77.6809530000000024
0
LINE
8
BLACK
6
CONTINUOUS
10
83.266137999999998
20
-77.6809530000000024
11
83.0185189999999977
21
-77.7428570000000008
0
LINE
8
BLACK
6
CONTINUOUS
10
83.0185189999999977
20
-77.7428570000000008
11
82.8947089999999918
21
-77.8047619999999966
0
LINE
8
BLACK
6
CONTINUOUS
10
82.8947089999999918
20
-77.8047619999999966
11
82.7708999999999975
21
-77.9285720000000026
0
LINE
8
BLACK
6
CONTINUOUS
10
82.7708999999999975
20
-77.9285720000000026
11
82.7089950000000016
21
-78.1142859999999928
0
LINE
8
BLACK
6
CONTINUOUS
10
82.7089950000000016
20
-78.1142859999999928
11
82.7089950000000016
21
-78.2380950000000013
0
LINE
8
BLACK
6
CONTINUOUS
10
82.7089950000000016
20
-78.2380950000000013
11
82.7708999999999975
21
-78.4238100000000031
0
LINE
8
BLACK
6
CONTINUOUS
10
82.7708999999999975
20
-78.4238100000000031
11
82.8328039999999959
21
-78.4857140000000015
0
LINE
8
BLACK
6
CONTINUOUS
10
82.8328039999999959
20
-78.4857140000000015
11
83.266137999999998
21
-78.4857140000000015
0
LINE
8
BLACK
6
CONTINUOUS
10
83.266137999999998
20
-78.4857140000000015
11
83.266137999999998
21
-78.2380950000000013
0
LINE
8
BLACK
6
CONTINUOUS
10
84.0089949999999988
20
-79.8476189999999946
11
82.7089950000000016
21
-80.2809519999999992
0
LINE
8
BLACK
6
CONTINUOUS
10
82.7089950000000016
20
-80.2809519999999992
11
84.0089949999999988
21
-80.7142860000000013
0
LINE
8
BLACK
6
CONTINUOUS
10
82.7708999999999975
20
-82.0761909999999943
11
82.7089950000000016
21
-82.2619049999999987
0
LINE
8
BLACK
6
CONTINUOUS
10
82.7089950000000016
20
-82.2619049999999987
11
82.7089950000000016
21
-82.5714289999999949
0
LINE
8
BLACK
6
CONTINUOUS
10
82.7089950000000016
20
-82.5714289999999949
11
82.7708999999999975
21
-82.6952380000000034
0
LINE
8
BLACK
6
CONTINUOUS
10
82.7708999999999975
20
-82.6952380000000034
11
82.8328039999999959
21
-82.7571429999999992
0
LINE
8
BLACK
6
CONTINUOUS
10
82.8328039999999959
20
-82.7571429999999992
11
82.9566140000000019
21
-82.8190479999999951
0
LINE
8
BLACK
6
CONTINUOUS
10
82.9566140000000019
20
-82.8190479999999951
11
83.0804229999999961
21
-82.8190479999999951
0
LINE
8
BLACK
6
CONTINUOUS
10
83.0804229999999961
20
-82.8190479999999951
11
83.2042330000000021
21
-82.7571429999999992
0
LINE
8
BLACK
6
CONTINUOUS
10
83.2042330000000021
20
-82.7571429999999992
11
83.266137999999998
21
-82.6952380000000034
0
LINE
8
BLACK
6
CONTINUOUS
10
83.266137999999998
20
-82.6952380000000034
11
83.3280419999999964
21
-82.5714289999999949
0
LINE
8
BLACK
6
CONTINUOUS
10
83.3280419999999964
20
-82.5714289999999949
11
83.3899469999999923
21
-82.3238099999999946
0
LINE
8
BLACK
6
CONTINUOUS
10
83.3899469999999923
20
-82.3238099999999946
11
83.4518520000000024
21
-82.2000000000000028
0
LINE
8
BLACK
6
CONTINUOUS
10
83.4518520000000024
20
-82.2000000000000028
11
83.5137569999999982
21
-82.1380949999999928
0
LINE
8
BLACK
6
CONTINUOUS
10
83.5137569999999982
20
-82.1380949999999928
11
83.6375659999999925
21
-82.0761909999999943
0
LINE
8
BLACK
6
CONTINUOUS
10
83.6375659999999925
20
-82.0761909999999943
11
83.7613759999999985
21
-82.0761909999999943
0
LINE
8
BLACK
6
CONTINUOUS
10
83.7613759999999985
20
-82.0761909999999943
11
83.8851849999999928
21
-82.1380949999999928
0
LINE
8
BLACK
6
CONTINUOUS
10
83.8851849999999928
20
-82.1380949999999928
11
83.9470900000000029
21
-82.2000000000000028
0
LINE
8
BLACK
6
CONTINUOUS
10
83.9470900000000029
20
-82.2000000000000028
11
84.0089949999999988
21
-82.3238099999999946
0
LINE
8
BLACK
6
CONTINUOUS
10
84.0089949999999988
20
-82.3238099999999946
11
84.0089949999999988
21
-82.6333329999999933
0
LINE
8
BLACK
6
CONTINUOUS
10
84.0089949999999988
20
-82.6333329999999933
11
83.9470900000000029
21
-82.8190479999999951
0
LINE
8
BLACK
6
CONTINUOUS
10
92.7000000000000028
20
-77.7999999999999972
11
92.7000000000000028
21
-78.7999999999999972
0
LINE
8
BLACK
6
CONTINUOUS
10
93.8999999999999915
20
-78.7999999999999972
11
93.8999999999999915
21
-77.7999999999999972
0
LINE
8
BLACK
6
CONTINUOUS
10
100.2999999999999972
20
-78.5
11
107.2999999999999972
21
-78.5
0
LINE
8
BLACK
6
CONTINUOUS
10
100.2999999999999972
20
-82.5
11
100.2999999999999972
21
-78.5
0
LINE
8
BLACK
6
CONTINUOUS
10
107.2999999999999972
20
-78.5
11
107.2999999999999972
21
-82.5
0
LINE
8
BLACK
6
CONTINUOUS
10
107.2999999999999972
20
-82.5
11
100.2999999999999972
21
-82.5
0
LINE
8
BLACK
6
CONTINUOUS
10
81.6499999999999915
20
-71.7999999999999972
11
81.9500000000000028
21
-72.
0
LINE
8
BLACK
6
CONTINUOUS
10
81.6499999999999915
20
-72.2000000000000028
11
81.6499999999999915
21
-71.7999999999999972
0
LINE
8
BLACK
6
CONTINUOUS
10
81.9500000000000028
20
-72.
11
81.6499999999999915
21
-72.2000000000000028
0
LINE
8
BLACK
6
CONTINUOUS
10
82.
20
-72.2000000000000028
11
82.
21
-71.7999999999999972
0
LINE
8
BLACK
6
CONTINUOUS
10
83.0999999999999943
20
-71.5
11
81.
21
-71.5
0
LINE
8
BLACK
6
CONTINUOUS
10
83.0999999999999943
20
-72.5
11
81.
21
-72.5
0
LINE
8
BLACK
6
CONTINUOUS
10
83.0999999999999943
20
-72.5
11
83.0999999999999943
21
-71.5
0
LINE
8
BLACK
6
CONTINUOUS
10
94.8199999999999932
20
-77.539999999999992
11
94.8199999999999932
21
-79.7000000000000028
0
LINE
8
BLACK
6
CONTINUOUS
10
94.8199999999999932
20
-77.539999999999992
11
95.75
21
-77.539999999999992
0
LINE
8
BLACK
6
CONTINUOUS
10
97.9799999999999898
20
-77.539999999999992
11
97.0499999999999972
21
-77.539999999999992
0
LINE
8
BLACK
6
CONTINUOUS
10
97.9799999999999898
20
-77.539999999999992
11
97.9799999999999898
21
-79.
0
LINE
8
BLACK
6
CONTINUOUS
10
77.9793360000000035
20
-87.6479590000000002
11
77.9820419999999928
21
-87.6506649999999894
0
LINE
8
BLACK
6
CONTINUOUS
10
77.9820419999999928
20
-87.6506649999999894
11
77.9824160000000006
21
-87.9132439999999917
0
LINE
8
BLACK
6
CONTINUOUS
10
77.9824160000000006
20
-87.9132439999999917
11
78.9200450000000018
21
-87.912865999999994
0
LINE
8
BLACK
6
CONTINUOUS
10
78.9200450000000018
20
-87.912865999999994
11
78.9219579999999894
21
-87.9132469999999984
0
LINE
8
BLACK
6
CONTINUOUS
10
78.9219579999999894
20
-87.9132469999999984
11
78.9246639999999928
21
-87.9159530000000018
0
LINE
8
BLACK
6
CONTINUOUS
10
78.9246639999999928
20
-87.9159530000000018
11
78.9250399999999956
21
-88.3478589999999997
0
LINE
8
BLACK
6
CONTINUOUS
10
78.9250399999999956
20
-88.3478589999999997
11
79.1627560000000017
21
-88.3474889999999959
0
LINE
8
BLACK
6
CONTINUOUS
10
79.1627560000000017
20
-88.3474889999999959
11
79.1646690000000035
21
-88.3478700000000003
0
LINE
8
BLACK
6
CONTINUOUS
10
79.1646690000000035
20
-88.3478700000000003
11
79.1673749999999927
21
-88.3505759999999896
0
LINE
8
BLACK
6
CONTINUOUS
10
79.1673749999999927
20
-88.3505759999999896
11
79.1677499999999981
21
-88.6978209999999905
0
LINE
8
BLACK
6
CONTINUOUS
10
79.1677499999999981
20
-88.6978209999999905
11
80.0207109999999915
21
-88.6974439999999902
0
LINE
8
BLACK
6
CONTINUOUS
10
80.0207109999999915
20
-88.6974439999999902
11
80.0226239999999933
21
-88.6978249999999946
0
LINE
8
BLACK
6
CONTINUOUS
10
80.0226239999999933
20
-88.6978249999999946
11
80.0253299999999967
21
-88.700530999999998
0
LINE
8
BLACK
6
CONTINUOUS
10
80.0253299999999967
20
-88.700530999999998
11
80.0257110000000011
21
-89.1088439999999906
0
LINE
8
BLACK
6
CONTINUOUS
10
80.0257110000000011
20
-89.1088439999999906
11
80.0253299999999967
21
-89.1107569999999924
0
LINE
8
BLACK
6
CONTINUOUS
10
80.0253299999999967
20
-89.1107569999999924
11
80.0226239999999933
21
-89.1134629999999959
0
LINE
8
BLACK
6
CONTINUOUS
10
80.0226239999999933
20
-89.1134629999999959
11
79.1673820000000035
21
-89.1138409999999936
0
LINE
8
BLACK
6
CONTINUOUS
10
79.1673820000000035
20
-89.1138409999999936
11
79.1677559999999971
21
-89.4531549999999953
0
LINE
8
BLACK
6
CONTINUOUS
10
79.1677559999999971
20
-89.4531549999999953
11
79.1673749999999927
21
-89.4550679999999971
0
LINE
8
BLACK
6
CONTINUOUS
10
79.1673749999999927
20
-89.4550679999999971
11
79.1646690000000035
21
-89.4577740000000006
0
LINE
8
BLACK
6
CONTINUOUS
10
79.1646690000000035
20
-89.4577740000000006
11
78.9246689999999944
21
-89.4581469999999968
0
LINE
8
BLACK
6
CONTINUOUS
10
78.9246689999999944
20
-89.4581469999999968
11
78.9250449999999972
21
-89.894598000000002
0
LINE
8
BLACK
6
CONTINUOUS
10
78.9250449999999972
20
-89.894598000000002
11
78.9246639999999928
21
-89.8965109999999896
0
LINE
8
BLACK
6
CONTINUOUS
10
78.9246639999999928
20
-89.8965109999999896
11
78.9246589999999912
21
-89.8965149999999937
0
LINE
8
BLACK
6
CONTINUOUS
10
78.9246589999999912
20
-89.8965149999999937
11
78.9246589999999912
21
-89.8965239999999994
0
LINE
8
BLACK
6
CONTINUOUS
10
78.9246589999999912
20
-89.8965239999999994
11
78.9233229999999963
21
-89.8978520000000003
0
LINE
8
BLACK
6
CONTINUOUS
10
78.9233229999999963
20
-89.8978520000000003
11
78.9219579999999894
21
-89.899216999999993
0
LINE
8
BLACK
6
CONTINUOUS
10
78.9219579999999894
20
-89.899216999999993
11
78.9219499999999954
21
-89.899216999999993
0
LINE
8
BLACK
6
CONTINUOUS
10
78.9219499999999954
20
-89.899216999999993
11
78.9219449999999938
21
-89.8992219999999946
0
LINE
8
BLACK
6
CONTINUOUS
10
78.9219449999999938
20
-89.8992219999999946
11
78.9194030000000026
21
-89.899216999999993
0
LINE
8
BLACK
6
CONTINUOUS
10
78.9194030000000026
20
-89.899216999999993
11
78.9181319999999999
21
-89.899216999999993
0
LINE
8
BLACK
6
CONTINUOUS
10
78.9181319999999999
20
-89.899216999999993
11
78.9181289999999933
21
-89.8992140000000006
0
LINE
8
BLACK
6
CONTINUOUS
10
78.9181289999999933
20
-89.8992140000000006
11
78.4755309999999895
21
-89.8983439999999945
0
LINE
8
BLACK
6
CONTINUOUS
10
78.4755309999999895
20
-89.8983439999999945
11
78.4737149999999986
21
-89.8979769999999974
0
LINE
8
BLACK
6
CONTINUOUS
10
78.4737149999999986
20
-89.8979769999999974
11
78.404997999999992
21
-89.898153999999991
0
LINE
8
BLACK
6
CONTINUOUS
10
78.404997999999992
20
-89.898153999999991
11
78.4031909999999925
21
-89.8977889999999888
0
LINE
8
BLACK
6
CONTINUOUS
10
78.4031909999999925
20
-89.8977889999999888
11
78.3372399999999942
21
-89.897989999999993
0
LINE
8
BLACK
6
CONTINUOUS
10
78.3372399999999942
20
-89.897989999999993
11
78.3354389999999938
21
-89.8976260000000025
0
LINE
8
BLACK
6
CONTINUOUS
10
78.3354389999999938
20
-89.8976260000000025
11
78.2731769999999898
21
-89.8978520000000003
0
LINE
8
BLACK
6
CONTINUOUS
10
78.2731769999999898
20
-89.8978520000000003
11
78.2713839999999976
21
-89.8974910000000023
0
LINE
8
BLACK
6
CONTINUOUS
10
78.2713839999999976
20
-89.8974910000000023
11
78.2137319999999931
21
-89.8977419999999938
0
LINE
8
BLACK
6
CONTINUOUS
10
78.2137319999999931
20
-89.8977419999999938
11
78.2119509999999991
21
-89.8973829999999907
0
LINE
8
BLACK
6
CONTINUOUS
10
78.2119509999999991
20
-89.8973829999999907
11
78.1598230000000029
21
-89.8976609999999994
0
LINE
8
BLACK
6
CONTINUOUS
10
78.1598230000000029
20
-89.8976609999999994
11
78.1580579999999969
21
-89.8973060000000004
0
LINE
8
BLACK
6
CONTINUOUS
10
78.1580579999999969
20
-89.8973060000000004
11
78.1123759999999976
21
-89.8976109999999977
0
LINE
8
BLACK
6
CONTINUOUS
10
78.1123759999999976
20
-89.8976109999999977
11
78.1106339999999904
21
-89.8972619999999978
0
LINE
8
BLACK
6
CONTINUOUS
10
78.1106339999999904
20
-89.8972619999999978
11
78.0723100000000017
21
-89.8975909999999914
0
LINE
8
BLACK
6
CONTINUOUS
10
78.0723100000000017
20
-89.8975909999999914
11
78.0706089999999904
21
-89.8972509999999971
0
LINE
8
BLACK
6
CONTINUOUS
10
78.0706089999999904
20
-89.8972509999999971
11
78.0405469999999895
21
-89.8976040000000012
0
LINE
8
BLACK
6
CONTINUOUS
10
78.0405469999999895
20
-89.8976040000000012
11
78.0389229999999969
21
-89.8972809999999924
0
LINE
8
BLACK
6
CONTINUOUS
10
78.0389229999999969
20
-89.8972809999999924
11
78.0180119999999988
21
-89.8976499999999987
0
LINE
8
BLACK
6
CONTINUOUS
10
78.0180119999999988
20
-89.8976499999999987
11
78.016578999999993
21
-89.8973670000000027
0
LINE
8
BLACK
6
CONTINUOUS
10
78.016578999999993
20
-89.8973670000000027
11
78.005636999999993
21
-89.8977309999999932
0
LINE
8
BLACK
6
CONTINUOUS
10
78.005636999999993
20
-89.8977309999999932
11
78.0051699999999926
21
-89.897640999999993
0
LINE
8
BLACK
6
CONTINUOUS
10
78.0051699999999926
20
-89.897640999999993
11
78.0043249999999944
21
-89.8977549999999894
0
LINE
8
BLACK
6
CONTINUOUS
10
78.0043249999999944
20
-89.8977549999999894
11
78.0026979999999952
21
-89.8974609999999927
0
LINE
8
BLACK
6
CONTINUOUS
10
78.0026979999999952
20
-89.8974609999999927
11
77.9820519999999959
21
-89.8982479999999953
0
LINE
8
BLACK
6
CONTINUOUS
10
77.9820519999999959
20
-89.8982479999999953
11
77.9824229999999972
21
-90.1474219999999917
0
LINE
8
BLACK
6
CONTINUOUS
10
77.9824229999999972
20
-90.1474219999999917
11
77.9820419999999928
21
-90.1493349999999936
0
LINE
8
BLACK
6
CONTINUOUS
10
77.9820419999999928
20
-90.1493349999999936
11
77.9793360000000035
21
-90.152040999999997
0
LINE
8
BLACK
6
CONTINUOUS
10
77.9793360000000035
20
-90.152040999999997
11
77.198488999999995
21
-90.1524220000000014
0
LINE
8
BLACK
6
CONTINUOUS
10
77.198488999999995
20
-90.1524220000000014
11
77.1965759999999932
21
-90.152040999999997
0
LINE
8
BLACK
6
CONTINUOUS
10
77.1965759999999932
20
-90.152040999999997
11
77.1938699999999898
21
-90.1493349999999936
0
LINE
8
BLACK
6
CONTINUOUS
10
77.1938699999999898
20
-90.1493349999999936
11
77.1934889999999996
21
-90.0288889999999924
0
LINE
8
BLACK
6
CONTINUOUS
10
77.1934889999999996
20
-90.0288889999999924
11
77.1938590000000033
21
-90.0270299999999963
0
LINE
8
BLACK
6
CONTINUOUS
10
77.1938590000000033
20
-90.0270299999999963
11
77.1935029999999927
21
-89.9040619999999961
0
LINE
8
BLACK
6
CONTINUOUS
10
77.1935029999999927
20
-89.9040619999999961
11
77.3329489999999993
21
-89.9040619999999961
0
LINE
8
BLACK
6
CONTINUOUS
10
77.3329489999999993
20
-89.9040619999999961
11
77.3332970000000017
21
-90.0242649999999998
0
LINE
8
BLACK
6
CONTINUOUS
10
77.3332970000000017
20
-90.0242649999999998
11
77.8486059999999895
21
-90.0238919999999894
0
LINE
8
BLACK
6
CONTINUOUS
10
77.8486059999999895
20
-90.0238919999999894
11
77.8482580000000013
21
-89.903689
0
LINE
8
BLACK
6
CONTINUOUS
10
77.8482580000000013
20
-89.903689
11
77.3329489999999993
21
-89.9040619999999961
0
LINE
8
BLACK
6
CONTINUOUS
10
77.3329489999999993
20
-89.9040619999999961
11
77.1935029999999927
21
-89.9040619999999961
0
LINE
8
BLACK
6
CONTINUOUS
10
77.1935029999999927
20
-89.9040619999999961
11
77.1934889999999996
21
-89.8990659999999906
0
LINE
8
BLACK
6
CONTINUOUS
10
77.1934889999999996
20
-89.8990659999999906
11
77.1936919999999986
21
-89.8980430000000013
0
LINE
8
BLACK
6
CONTINUOUS
10
77.1936919999999986
20
-89.8980430000000013
11
75.945422999999991
21
-89.8984219999999965
0
LINE
8
BLACK
6
CONTINUOUS
10
75.945422999999991
20
-89.8984219999999965
11
75.9435100000000034
21
-89.8980409999999921
0
LINE
8
BLACK
6
CONTINUOUS
10
75.9435100000000034
20
-89.8980409999999921
11
75.940804
21
-89.8953350000000029
0
LINE
8
BLACK
6
CONTINUOUS
10
75.940804
20
-89.8953350000000029
11
75.940804
21
-89.895243999999991
0
LINE
8
BLACK
6
CONTINUOUS
10
75.940804
20
-89.895243999999991
11
75.9404229999999956
21
-89.7692440000000005
0
LINE
8
BLACK
6
CONTINUOUS
10
75.9404229999999956
20
-89.7692440000000005
11
75.9408030000000025
21
-89.7673350000000028
0
LINE
8
BLACK
6
CONTINUOUS
10
75.9408030000000025
20
-89.7673350000000028
11
75.940423999999993
21
-88.0413949999999943
0
LINE
8
BLACK
6
CONTINUOUS
10
75.940423999999993
20
-88.0413949999999943
11
76.0685759999999931
21
-88.0413949999999943
0
LINE
8
BLACK
6
CONTINUOUS
10
76.0685759999999931
20
-88.0413949999999943
11
76.0689539999999909
21
-89.7646179999999987
0
LINE
8
BLACK
6
CONTINUOUS
10
76.0689539999999909
20
-89.7646179999999987
11
76.4826679999999897
21
-89.7642479999999949
0
LINE
8
BLACK
6
CONTINUOUS
10
76.4826679999999897
20
-89.7642479999999949
11
76.4822899999999919
21
-88.0413989999999984
0
LINE
8
BLACK
6
CONTINUOUS
10
76.4822899999999919
20
-88.0413989999999984
11
76.6160869999999932
21
-88.0413989999999984
0
LINE
8
BLACK
6
CONTINUOUS
10
76.6160869999999932
20
-88.0413989999999984
11
76.6164649999999909
21
-89.7646230000000003
0
LINE
8
BLACK
6
CONTINUOUS
10
76.6164649999999909
20
-89.7646230000000003
11
78.7912419999999969
21
-89.7642439999999908
0
LINE
8
BLACK
6
CONTINUOUS
10
78.7912419999999969
20
-89.7642439999999908
11
78.7908669999999915
21
-89.3289779999999922
0
LINE
8
BLACK
6
CONTINUOUS
10
78.7908669999999915
20
-89.3289779999999922
11
78.791246000000001
21
-89.3270729999999986
0
LINE
8
BLACK
6
CONTINUOUS
10
78.791246000000001
20
-89.3270729999999986
11
78.7908690000000007
21
-88.4816509999999994
0
LINE
8
BLACK
6
CONTINUOUS
10
78.7908690000000007
20
-88.4816509999999994
11
78.9246669999999995
21
-88.4816509999999994
0
LINE
8
BLACK
6
CONTINUOUS
10
78.9246669999999995
20
-88.4816509999999994
11
78.9250419999999906
21
-89.3243369999999999
0
LINE
8
BLACK
6
CONTINUOUS
10
78.9250419999999906
20
-89.3243369999999999
11
79.0339510000000018
21
-89.3239919999999898
0
LINE
8
BLACK
6
CONTINUOUS
10
79.0339510000000018
20
-89.3239919999999898
11
79.0335779999999914
21
-88.98466599999999
0
LINE
8
BLACK
6
CONTINUOUS
10
79.0335779999999914
20
-88.98466599999999
11
79.0339489999999927
21
-88.9827980000000025
0
LINE
8
BLACK
6
CONTINUOUS
10
79.0339489999999927
20
-88.9827980000000025
11
79.0335899999999896
21
-88.8316189999999892
0
LINE
8
BLACK
6
CONTINUOUS
10
79.0335899999999896
20
-88.8316189999999892
11
79.167390999999995
21
-88.8316189999999892
0
LINE
8
BLACK
6
CONTINUOUS
10
79.167390999999995
20
-88.8316189999999892
11
79.167743999999999
21
-88.9800429999999949
0
LINE
8
BLACK
6
CONTINUOUS
10
79.167743999999999
20
-88.9800429999999949
11
79.8975420000000014
21
-88.9796679999999895
0
LINE
8
BLACK
6
CONTINUOUS
10
79.8975420000000014
20
-88.9796679999999895
11
79.8971889999999973
21
-88.8312439999999981
0
LINE
8
BLACK
6
CONTINUOUS
10
79.8971889999999973
20
-88.8312439999999981
11
79.167390999999995
21
-88.8316189999999892
0
LINE
8
BLACK
6
CONTINUOUS
10
79.167390999999995
20
-88.8316189999999892
11
79.0335899999999896
21
-88.8316189999999892
0
LINE
8
BLACK
6
CONTINUOUS
10
79.0335899999999896
20
-88.8316189999999892
11
79.0335779999999914
21
-88.8266220000000004
0
LINE
8
BLACK
6
CONTINUOUS
10
79.0335779999999914
20
-88.8266220000000004
11
79.0339539999999943
21
-88.8247289999999907
0
LINE
8
BLACK
6
CONTINUOUS
10
79.0339539999999943
20
-88.8247289999999907
11
79.033582999999993
21
-88.4813059999999894
0
LINE
8
BLACK
6
CONTINUOUS
10
79.033582999999993
20
-88.4813059999999894
11
78.9246669999999995
21
-88.4816509999999994
0
LINE
8
BLACK
6
CONTINUOUS
10
78.9246669999999995
20
-88.4816509999999994
11
78.7908690000000007
21
-88.4816509999999994
0
LINE
8
BLACK
6
CONTINUOUS
10
78.7908690000000007
20
-88.4816509999999994
11
78.7908669999999915
21
-88.4766659999999945
0
LINE
8
BLACK
6
CONTINUOUS
10
78.7908669999999915
20
-88.4766659999999945
11
78.7912439999999918
21
-88.4747689999999949
0
LINE
8
BLACK
6
CONTINUOUS
10
78.7912439999999918
20
-88.4747689999999949
11
78.7908699999999982
21
-88.041019999999989
0
LINE
8
BLACK
6
CONTINUOUS
10
78.7908699999999982
20
-88.041019999999989
11
76.6160869999999932
21
-88.0413989999999984
0
LINE
8
BLACK
6
CONTINUOUS
10
76.6160869999999932
20
-88.0413989999999984
11
76.4822899999999919
21
-88.0413989999999984
0
LINE
8
BLACK
6
CONTINUOUS
10
76.4822899999999919
20
-88.0413989999999984
11
76.4822899999999919
21
-88.0410249999999905
0
LINE
8
BLACK
6
CONTINUOUS
10
76.4822899999999919
20
-88.0410249999999905
11
76.0685759999999931
21
-88.0413949999999943
0
LINE
8
BLACK
6
CONTINUOUS
10
76.0685759999999931
20
-88.0413949999999943
11
75.940423999999993
21
-88.0413949999999943
0
LINE
8
BLACK
6
CONTINUOUS
10
75.940423999999993
20
-88.0413949999999943
11
75.9404229999999956
21
-88.0364000000000004
0
LINE
8
BLACK
6
CONTINUOUS
10
75.9404229999999956
20
-88.0364000000000004
11
75.9407920000000018
21
-88.0345459999999917
0
LINE
8
BLACK
6
CONTINUOUS
10
75.9407920000000018
20
-88.0345459999999917
11
75.9404229999999956
21
-87.9178659999999894
0
LINE
8
BLACK
6
CONTINUOUS
10
75.9404229999999956
20
-87.9178659999999894
11
75.940804
21
-87.9159530000000018
0
LINE
8
BLACK
6
CONTINUOUS
10
75.940804
20
-87.9159530000000018
11
75.9435100000000034
21
-87.9132469999999984
0
LINE
8
BLACK
6
CONTINUOUS
10
75.9435100000000034
20
-87.9132469999999984
11
77.1993149999999986
21
-87.9128669999999914
0
LINE
8
BLACK
6
CONTINUOUS
10
77.1993149999999986
20
-87.9128669999999914
11
77.1991340000000008
21
-87.9065779999999961
0
LINE
8
BLACK
6
CONTINUOUS
10
77.1991340000000008
20
-87.9065779999999961
11
77.1995039999999904
21
-87.9047169999999909
0
LINE
8
BLACK
6
CONTINUOUS
10
77.1995039999999904
20
-87.9047169999999909
11
77.1991479999999939
21
-87.7761069999999961
0
LINE
8
BLACK
6
CONTINUOUS
10
77.1991479999999939
20
-87.7761069999999961
11
77.3329489999999993
21
-87.7761069999999961
0
LINE
8
BLACK
6
CONTINUOUS
10
77.3329489999999993
20
-87.7761069999999961
11
77.3332979999999992
21
-87.9019539999999893
0
LINE
8
BLACK
6
CONTINUOUS
10
77.3332979999999992
20
-87.9019539999999893
11
77.8486059999999895
21
-87.9015809999999931
0
LINE
8
BLACK
6
CONTINUOUS
10
77.8486059999999895
20
-87.9015809999999931
11
77.8482569999999896
21
-87.7757339999999999
0
LINE
8
BLACK
6
CONTINUOUS
10
77.8482569999999896
20
-87.7757339999999999
11
77.3329489999999993
21
-87.7761069999999961
0
LINE
8
BLACK
6
CONTINUOUS
10
77.3329489999999993
20
-87.7761069999999961
11
77.1991479999999939
21
-87.7761069999999961
0
LINE
8
BLACK
6
CONTINUOUS
10
77.1991479999999939
20
-87.7761069999999961
11
77.1991340000000008
21
-87.7711109999999906
0
LINE
8
BLACK
6
CONTINUOUS
10
77.1991340000000008
20
-87.7711109999999906
11
77.1995029999999929
21
-87.7692569999999961
0
LINE
8
BLACK
6
CONTINUOUS
10
77.1995029999999929
20
-87.7692569999999961
11
77.1991340000000008
21
-87.6525779999999912
0
LINE
8
BLACK
6
CONTINUOUS
10
77.1991340000000008
20
-87.6525779999999912
11
77.199514999999991
21
-87.6506649999999894
0
LINE
8
BLACK
6
CONTINUOUS
10
77.199514999999991
20
-87.6506649999999894
11
77.2022209999999944
21
-87.6479590000000002
0
LINE
8
BLACK
6
CONTINUOUS
10
77.2022209999999944
20
-87.6479590000000002
11
77.9774230000000017
21
-87.6475779999999958
0
LINE
8
BLACK
6
CONTINUOUS
10
77.9774230000000017
20
-87.6475779999999958
11
77.9793360000000035
21
-87.6479590000000002
0
LINE
8
BLACK
6
CONTINUOUS
10
94.8199999999999932
20
-81.4399999999999977
11
94.8199999999999932
21
-83.5999999999999943
0
LINE
8
BLACK
6
CONTINUOUS
10
94.8199999999999932
20
-81.4399999999999977
11
95.75
21
-81.4399999999999977
0
LINE
8
BLACK
6
CONTINUOUS
10
97.9799999999999898
20
-81.4399999999999977
11
97.0499999999999972
21
-81.4399999999999977
0
LINE
8
BLACK
6
CONTINUOUS
10
97.9799999999999898
20
-81.4399999999999977
11
97.9799999999999898
21
-82.8999999999999915
0
LINE
8
BLACK
6
CONTINUOUS
10
92.7000000000000028
20
-83.2999999999999972
11
92.7000000000000028
21
-81.0999999999999943
0
LINE
8
BLACK
6
CONTINUOUS
10
93.8999999999999915
20
-81.0999999999999943
11
92.7000000000000028
21
-81.0999999999999943
0
LINE
8
BLACK
6
CONTINUOUS
10
93.8999999999999915
20
-81.0999999999999943
11
93.8999999999999915
21
-83.2999999999999972
0
LINE
8
BLACK
6
CONTINUOUS
10
93.8999999999999915
20
-83.2999999999999972
11
92.7000000000000028
21
-83.2999999999999972
0
LINE
8
BLACK
6
CONTINUOUS
10
77.7000000000000028
20
-71.3999999999999915
11
77.7000000000000028
21
-72.5999999999999943
0
LINE
8
BLACK
6
CONTINUOUS
10
77.7000000000000028
20
-71.3999999999999915
11
79.8999999999999915
21
-71.3999999999999915
0
LINE
8
BLACK
6
CONTINUOUS
10
79.8999999999999915
20
-71.3999999999999915
11
79.8999999999999915
21
-72.5999999999999943
0
LINE
8
BLACK
6
CONTINUOUS
10
79.8999999999999915
20
-72.5999999999999943
11
77.7000000000000028
21
-72.5999999999999943
0
LINE
8
BLACK
6
CONTINUOUS
10
73.2000000000000028
20
-83.3999999999999915
11
73.2000000000000028
21
-77.
0
LINE
8
BLACK
6
CONTINUOUS
10
77.2999999999999972
20
-75.2000000000000028
11
80.8999999999999915
21
-75.2000000000000028
0
LINE
8
BLACK
6
CONTINUOUS
10
77.2999999999999972
20
-85.2000000000000028
11
80.8999999999999915
21
-85.2000000000000028
0
LINE
8
BLACK
6
CONTINUOUS
10
80.8999999999999915
20
-75.2000000000000028
11
80.8999999999999915
21
-77.3999999999999915
0
LINE
8
BLACK
6
CONTINUOUS
10
80.8999999999999915
20
-85.2000000000000028
11
80.8999999999999915
21
-83.
0
LINE
8
BLACK
6
CONTINUOUS
10
76.2000000000000028
20
-69.
11
108.1999999999999886
21
-69.
0
ARC
8
BLACK
10
108.1999999999999886
20
-72.2000000000000028
40
3.1999999999999997
50
0.00000000
51
90.00000000
0
ARC
8
BLACK
10
76.2000000000000028
20
-88.2000000000000028
40
3.1999999999999997
50
-180.00000000
51
-90.00000000
0
ARC
8
BLACK
10
108.1999999999999886
20
-88.2000000000000028
40
3.1999999999999997
50
-90.00000000
51
-0.00000000
0
LINE
8
BLACK
6
CONTINUOUS
10
76.2000000000000028
20
-91.3999999999999915
11
108.1999999999999886
21
-91.3999999999999915
0
LINE
8
BLACK
6
CONTINUOUS
10
73.
20
-72.2000000000000028
11
73.
21
-88.2000000000000028
0
LINE
8
BLACK
6
CONTINUOUS
10
111.3999999999999915
20
-72.2000000000000028
11
111.3999999999999915
21
-88.2000000000000028
0
ARC
8
BLACK
10
76.2000000000000028
20
-72.2000000000000028
40
3.1999999999999997
50
90.00000000
51
180.00000000
  0
ENDSEC
  0
EOF
