  0
SECTION
  2
HEADER
  9
$ANGBASE
  50
0.0
  9
$ANGDIR
  70
1
  9
$MEASUREMENT
  70
1
  0
ENDSEC
  0
SECTION
  2
TABLES
  0
TABLE
  2
LTYPE
  70
4
  0
LTYPE
  5
40F
  2
CONTINUOUS
  70
0
  3
Solid line
  72
65
  73
0
  40
0.0
  0
LTYPE
  5
410
  2
DASHDOT
 70
0
  3
Dash Dot ____ _ ____ _
 72
65
 73
4
 40
2.0
 49
1.25
 49
-0.25
 49
0.25
 49
-0.25
  0
LTYPE
  5
411
  2
DASHED
 70
0
  3
Dashed __ __ __ __ __
 72
65
 73
2
 40
0.75
 49
0.5
 49
-0.25
  0
LTYPE
  5
43B
  2
DOTTED
 70
0
  3
Dotted .  .  .  .
 72
65
 73
2
 40
0.2
 49
0.0
 49
-0.2
  0
ENDTAB
  0
TABLE
  2
STYLE
  70
4
  0
STYLE
  2
KICAD
  70
0
  40
0
  41
1
  42
1
  50
0
  71
0
  3
isocp.shx
  0
STYLE
  2
KICADB
  70
0
  40
0
  41
1
  42
1
  50
0
  71
0
  3
isocp.shx
  0
STYLE
  2
KICADI
  70
0
  40
0
  41
1
  42
1
  50
15
  71
0
  3
isocp.shx
  0
STYLE
  2
KICADBI
  70
0
  40
0
  41
1
  42
1
  50
15
  71
0
  3
isocp.shx
  0
ENDTAB
  0
TABLE
  2
LAYER
  70
1
  0
LAYER
  2
BLACK
  70
0
  62
7
  6
CONTINUOUS
  0
ENDTAB
  0
ENDSEC
  0
SECTION
  2
ENTITIES
0
CIRCLE
8
BLACK
10
196.6999999999999886
20
-142.5
40
2.3500000000000001
0
CIRCLE
8
BLACK
10
196.6999999999999886
20
-126.5
40
2.3500000000000001
0
LINE
8
BLACK
6
CONTINUOUS
10
179.4048190000000034
20
-136.4047610000000077
11
179.4048190000000034
21
-136.9761890000000051
0
LINE
8
BLACK
6
CONTINUOUS
10
179.4048190000000034
20
-136.6904749999999922
11
178.4048190000000034
21
-136.6904749999999922
0
LINE
8
BLACK
6
CONTINUOUS
10
178.4048190000000034
20
-136.6904749999999922
11
178.5476759999999956
21
-136.785712999999987
0
LINE
8
BLACK
6
CONTINUOUS
10
178.5476759999999956
20
-136.785712999999987
11
178.6429139999999904
21
-136.8809509999999818
0
LINE
8
BLACK
6
CONTINUOUS
10
178.6429139999999904
20
-136.8809509999999818
11
178.6905329999999879
21
-136.9761890000000051
0
LINE
8
BLACK
6
CONTINUOUS
10
178.4048190000000034
20
-135.5476179999999999
11
178.4048190000000034
21
-135.7380939999999896
0
LINE
8
BLACK
6
CONTINUOUS
10
178.4048190000000034
20
-135.7380939999999896
11
178.4524380000000008
21
-135.8333319999999844
0
LINE
8
BLACK
6
CONTINUOUS
10
178.4524380000000008
20
-135.8333319999999844
11
178.5000569999999982
21
-135.8809509999999818
0
LINE
8
BLACK
6
CONTINUOUS
10
178.5000569999999982
20
-135.8809509999999818
11
178.6429139999999904
21
-135.9761890000000051
0
LINE
8
BLACK
6
CONTINUOUS
10
178.6429139999999904
20
-135.9761890000000051
11
178.8333899999999801
21
-136.0238080000000025
0
LINE
8
BLACK
6
CONTINUOUS
10
178.8333899999999801
20
-136.0238080000000025
11
179.2143419999999878
21
-136.0238080000000025
0
LINE
8
BLACK
6
CONTINUOUS
10
179.2143419999999878
20
-136.0238080000000025
11
179.3095799999999826
21
-135.9761890000000051
0
LINE
8
BLACK
6
CONTINUOUS
10
179.3095799999999826
20
-135.9761890000000051
11
179.357200000000006
21
-135.9285700000000077
0
LINE
8
BLACK
6
CONTINUOUS
10
179.357200000000006
20
-135.9285700000000077
11
179.4048190000000034
21
-135.8333319999999844
0
LINE
8
BLACK
6
CONTINUOUS
10
179.4048190000000034
20
-135.8333319999999844
11
179.4048190000000034
21
-135.6428559999999948
0
LINE
8
BLACK
6
CONTINUOUS
10
179.4048190000000034
20
-135.6428559999999948
11
179.357200000000006
21
-135.5476179999999999
0
LINE
8
BLACK
6
CONTINUOUS
10
179.357200000000006
20
-135.5476179999999999
11
179.3095799999999826
21
-135.4999990000000025
0
LINE
8
BLACK
6
CONTINUOUS
10
179.3095799999999826
20
-135.4999990000000025
11
179.2143419999999878
21
-135.4523800000000051
0
LINE
8
BLACK
6
CONTINUOUS
10
179.2143419999999878
20
-135.4523800000000051
11
178.9762470000000008
21
-135.4523800000000051
0
LINE
8
BLACK
6
CONTINUOUS
10
178.9762470000000008
20
-135.4523800000000051
11
178.8810090000000059
21
-135.4999990000000025
0
LINE
8
BLACK
6
CONTINUOUS
10
178.8810090000000059
20
-135.4999990000000025
11
178.8333899999999801
21
-135.5476179999999999
0
LINE
8
BLACK
6
CONTINUOUS
10
178.8333899999999801
20
-135.5476179999999999
11
178.7857709999999827
21
-135.6428559999999948
0
LINE
8
BLACK
6
CONTINUOUS
10
178.7857709999999827
20
-135.6428559999999948
11
178.7857709999999827
21
-135.8333319999999844
0
LINE
8
BLACK
6
CONTINUOUS
10
178.7857709999999827
20
-135.8333319999999844
11
178.8333899999999801
21
-135.9285700000000077
0
LINE
8
BLACK
6
CONTINUOUS
10
178.8333899999999801
20
-135.9285700000000077
11
178.8810090000000059
21
-135.9761890000000051
0
LINE
8
BLACK
6
CONTINUOUS
10
178.8810090000000059
20
-135.9761890000000051
11
178.9762470000000008
21
-136.0238080000000025
0
LINE
8
BLACK
6
CONTINUOUS
10
179.4048190000000034
20
-134.2619029999999896
11
178.7381519999999853
21
-134.2619029999999896
0
LINE
8
BLACK
6
CONTINUOUS
10
178.8333899999999801
20
-134.2619029999999896
11
178.7857709999999827
21
-134.2142839999999921
0
LINE
8
BLACK
6
CONTINUOUS
10
178.7857709999999827
20
-134.2142839999999921
11
178.7381519999999853
21
-134.1190459999999973
0
LINE
8
BLACK
6
CONTINUOUS
10
178.7381519999999853
20
-134.1190459999999973
11
178.7381519999999853
21
-133.9761890000000051
0
LINE
8
BLACK
6
CONTINUOUS
10
178.7381519999999853
20
-133.9761890000000051
11
178.7857709999999827
21
-133.8809509999999818
0
LINE
8
BLACK
6
CONTINUOUS
10
178.7857709999999827
20
-133.8809509999999818
11
178.8810090000000059
21
-133.8333319999999844
0
LINE
8
BLACK
6
CONTINUOUS
10
178.8810090000000059
20
-133.8333319999999844
11
179.4048190000000034
21
-133.8333319999999844
0
LINE
8
BLACK
6
CONTINUOUS
10
178.8810090000000059
20
-133.8333319999999844
11
178.7857709999999827
21
-133.785712999999987
0
LINE
8
BLACK
6
CONTINUOUS
10
178.7857709999999827
20
-133.785712999999987
11
178.7381519999999853
21
-133.6904749999999922
0
LINE
8
BLACK
6
CONTINUOUS
10
178.7381519999999853
20
-133.6904749999999922
11
178.7381519999999853
21
-133.5476179999999999
0
LINE
8
BLACK
6
CONTINUOUS
10
178.7381519999999853
20
-133.5476179999999999
11
178.7857709999999827
21
-133.4523790000000076
0
LINE
8
BLACK
6
CONTINUOUS
10
178.7857709999999827
20
-133.4523790000000076
11
178.8810090000000059
21
-133.4047599999999818
0
LINE
8
BLACK
6
CONTINUOUS
10
178.8810090000000059
20
-133.4047599999999818
11
179.4048190000000034
21
-133.4047599999999818
0
LINE
8
BLACK
6
CONTINUOUS
10
179.4048190000000034
20
-132.9285700000000077
11
178.7381519999999853
21
-132.9285700000000077
0
LINE
8
BLACK
6
CONTINUOUS
10
178.8333899999999801
20
-132.9285700000000077
11
178.7857709999999827
21
-132.8809509999999818
0
LINE
8
BLACK
6
CONTINUOUS
10
178.7857709999999827
20
-132.8809509999999818
11
178.7381519999999853
21
-132.785712999999987
0
LINE
8
BLACK
6
CONTINUOUS
10
178.7381519999999853
20
-132.785712999999987
11
178.7381519999999853
21
-132.6428559999999948
0
LINE
8
BLACK
6
CONTINUOUS
10
178.7381519999999853
20
-132.6428559999999948
11
178.7857709999999827
21
-132.5476179999999999
0
LINE
8
BLACK
6
CONTINUOUS
10
178.7857709999999827
20
-132.5476179999999999
11
178.8810090000000059
21
-132.4999990000000025
0
LINE
8
BLACK
6
CONTINUOUS
10
178.8810090000000059
20
-132.4999990000000025
11
179.4048190000000034
21
-132.4999990000000025
0
LINE
8
BLACK
6
CONTINUOUS
10
178.8810090000000059
20
-132.4999990000000025
11
178.7857709999999827
21
-132.4523800000000051
0
LINE
8
BLACK
6
CONTINUOUS
10
178.7857709999999827
20
-132.4523800000000051
11
178.7381519999999853
21
-132.3571419999999819
0
LINE
8
BLACK
6
CONTINUOUS
10
178.7381519999999853
20
-132.3571419999999819
11
178.7381519999999853
21
-132.2142849999999896
0
LINE
8
BLACK
6
CONTINUOUS
10
178.7381519999999853
20
-132.2142849999999896
11
178.7857709999999827
21
-132.1190459999999973
0
LINE
8
BLACK
6
CONTINUOUS
10
178.7857709999999827
20
-132.1190459999999973
11
178.8810090000000059
21
-132.0714269999999999
0
LINE
8
BLACK
6
CONTINUOUS
10
178.8810090000000059
20
-132.0714269999999999
11
179.4048190000000034
21
-132.0714269999999999
0
LINE
8
BLACK
6
CONTINUOUS
10
196.1999999999999886
20
-126.5
11
178.3635799999999847
21
-126.5
0
LINE
8
BLACK
6
CONTINUOUS
10
196.1999999999999886
20
-142.5
11
178.3635799999999847
21
-142.5
0
LINE
8
BLACK
6
CONTINUOUS
10
178.9499999999999886
20
-126.5
11
178.9499999999999886
21
-131.2083329999999819
0
LINE
8
BLACK
6
CONTINUOUS
10
178.9499999999999886
20
-137.7916659999999922
11
178.9499999999999886
21
-142.5
0
LINE
8
BLACK
6
CONTINUOUS
10
178.9499999999999886
20
-126.5
11
179.53642099999999
21
-127.6265039999999971
0
LINE
8
BLACK
6
CONTINUOUS
10
178.9499999999999886
20
-126.5
11
178.3635789999999872
21
-127.6265039999999971
0
LINE
8
BLACK
6
CONTINUOUS
10
178.9499999999999886
20
-142.5
11
178.3635789999999872
21
-141.3734959999999887
0
LINE
8
BLACK
6
CONTINUOUS
10
178.9499999999999886
20
-142.5
11
179.53642099999999
21
-141.3734959999999887
0
LINE
8
BLACK
6
CONTINUOUS
10
186.480952000000002
20
-148.5048189999999977
11
185.9095240000000047
21
-148.5048189999999977
0
LINE
8
BLACK
6
CONTINUOUS
10
186.1952379999999891
20
-148.5048189999999977
11
186.1952379999999891
21
-147.5048189999999977
0
LINE
8
BLACK
6
CONTINUOUS
10
186.1952379999999891
20
-147.5048189999999977
11
186.0999999999999943
21
-147.6476759999999899
0
LINE
8
BLACK
6
CONTINUOUS
10
186.0999999999999943
20
-147.6476759999999899
11
186.0047619999999995
21
-147.7429139999999848
0
LINE
8
BLACK
6
CONTINUOUS
10
186.0047619999999995
20
-147.7429139999999848
11
185.9095240000000047
21
-147.7905329999999822
0
LINE
8
BLACK
6
CONTINUOUS
10
187.3857139999999788
20
-147.5048189999999977
11
186.9095240000000047
21
-147.5048189999999977
0
LINE
8
BLACK
6
CONTINUOUS
10
186.9095240000000047
20
-147.5048189999999977
11
186.8619049999999788
21
-147.9810090000000002
0
LINE
8
BLACK
6
CONTINUOUS
10
186.8619049999999788
20
-147.9810090000000002
11
186.9095240000000047
21
-147.9333900000000028
0
LINE
8
BLACK
6
CONTINUOUS
10
186.9095240000000047
20
-147.9333900000000028
11
187.0047619999999995
21
-147.8857710000000054
0
LINE
8
BLACK
6
CONTINUOUS
10
187.0047619999999995
20
-147.8857710000000054
11
187.2428569999999866
21
-147.8857710000000054
0
LINE
8
BLACK
6
CONTINUOUS
10
187.2428569999999866
20
-147.8857710000000054
11
187.3380949999999814
21
-147.9333900000000028
0
LINE
8
BLACK
6
CONTINUOUS
10
187.3380949999999814
20
-147.9333900000000028
11
187.3857139999999788
21
-147.9810090000000002
0
LINE
8
BLACK
6
CONTINUOUS
10
187.3857139999999788
20
-147.9810090000000002
11
187.4333330000000046
21
-148.0762469999999951
0
LINE
8
BLACK
6
CONTINUOUS
10
187.4333330000000046
20
-148.0762469999999951
11
187.4333330000000046
21
-148.3143419999999821
0
LINE
8
BLACK
6
CONTINUOUS
10
187.4333330000000046
20
-148.3143419999999821
11
187.3857139999999788
21
-148.4095800000000054
0
LINE
8
BLACK
6
CONTINUOUS
10
187.3857139999999788
20
-148.4095800000000054
11
187.3380949999999814
21
-148.4572000000000003
0
LINE
8
BLACK
6
CONTINUOUS
10
187.3380949999999814
20
-148.4572000000000003
11
187.2428569999999866
21
-148.5048189999999977
0
LINE
8
BLACK
6
CONTINUOUS
10
187.2428569999999866
20
-148.5048189999999977
11
187.0047619999999995
21
-148.5048189999999977
0
LINE
8
BLACK
6
CONTINUOUS
10
187.0047619999999995
20
-148.5048189999999977
11
186.9095240000000047
21
-148.4572000000000003
0
LINE
8
BLACK
6
CONTINUOUS
10
186.9095240000000047
20
-148.4572000000000003
11
186.8619049999999788
21
-148.4095800000000054
0
LINE
8
BLACK
6
CONTINUOUS
10
187.8619049999999788
20
-148.4095800000000054
11
187.9095240000000047
21
-148.4572000000000003
0
LINE
8
BLACK
6
CONTINUOUS
10
187.9095240000000047
20
-148.4572000000000003
11
187.8619049999999788
21
-148.5048189999999977
0
LINE
8
BLACK
6
CONTINUOUS
10
187.8619049999999788
20
-148.5048189999999977
11
187.8142859999999814
21
-148.4572000000000003
0
LINE
8
BLACK
6
CONTINUOUS
10
187.8142859999999814
20
-148.4572000000000003
11
187.8619049999999788
21
-148.4095800000000054
0
LINE
8
BLACK
6
CONTINUOUS
10
187.8619049999999788
20
-148.4095800000000054
11
187.8619049999999788
21
-148.5048189999999977
0
LINE
8
BLACK
6
CONTINUOUS
10
188.290475999999984
20
-147.6000569999999925
11
188.3380949999999814
21
-147.5524379999999951
0
LINE
8
BLACK
6
CONTINUOUS
10
188.3380949999999814
20
-147.5524379999999951
11
188.4333330000000046
21
-147.5048189999999977
0
LINE
8
BLACK
6
CONTINUOUS
10
188.4333330000000046
20
-147.5048189999999977
11
188.6714279999999917
21
-147.5048189999999977
0
LINE
8
BLACK
6
CONTINUOUS
10
188.6714279999999917
20
-147.5048189999999977
11
188.7666659999999865
21
-147.5524379999999951
0
LINE
8
BLACK
6
CONTINUOUS
10
188.7666659999999865
20
-147.5524379999999951
11
188.8142849999999839
21
-147.6000569999999925
0
LINE
8
BLACK
6
CONTINUOUS
10
188.8142849999999839
20
-147.6000569999999925
11
188.8619039999999814
21
-147.6952949999999873
0
LINE
8
BLACK
6
CONTINUOUS
10
188.8619039999999814
20
-147.6952949999999873
11
188.8619039999999814
21
-147.7905329999999822
0
LINE
8
BLACK
6
CONTINUOUS
10
188.8619039999999814
20
-147.7905329999999822
11
188.8142849999999839
21
-147.9333900000000028
0
LINE
8
BLACK
6
CONTINUOUS
10
188.8142849999999839
20
-147.9333900000000028
11
188.2428569999999866
21
-148.5048189999999977
0
LINE
8
BLACK
6
CONTINUOUS
10
188.2428569999999866
20
-148.5048189999999977
11
188.8619039999999814
21
-148.5048189999999977
0
LINE
8
BLACK
6
CONTINUOUS
10
190.0523809999999969
20
-148.5048189999999977
11
190.0523809999999969
21
-147.8381519999999796
0
LINE
8
BLACK
6
CONTINUOUS
10
190.0523809999999969
20
-147.9333900000000028
11
190.0999999999999943
21
-147.8857710000000054
0
LINE
8
BLACK
6
CONTINUOUS
10
190.0999999999999943
20
-147.8857710000000054
11
190.1952379999999891
21
-147.8381519999999796
0
LINE
8
BLACK
6
CONTINUOUS
10
190.1952379999999891
20
-147.8381519999999796
11
190.3380949999999814
21
-147.8381519999999796
0
LINE
8
BLACK
6
CONTINUOUS
10
190.3380949999999814
20
-147.8381519999999796
11
190.4333330000000046
21
-147.8857710000000054
0
LINE
8
BLACK
6
CONTINUOUS
10
190.4333330000000046
20
-147.8857710000000054
11
190.480952000000002
21
-147.9810090000000002
0
LINE
8
BLACK
6
CONTINUOUS
10
190.480952000000002
20
-147.9810090000000002
11
190.480952000000002
21
-148.5048189999999977
0
LINE
8
BLACK
6
CONTINUOUS
10
190.480952000000002
20
-147.9810090000000002
11
190.5285709999999995
21
-147.8857710000000054
0
LINE
8
BLACK
6
CONTINUOUS
10
190.5285709999999995
20
-147.8857710000000054
11
190.6238089999999943
21
-147.8381519999999796
0
LINE
8
BLACK
6
CONTINUOUS
10
190.6238089999999943
20
-147.8381519999999796
11
190.7666659999999865
21
-147.8381519999999796
0
LINE
8
BLACK
6
CONTINUOUS
10
190.7666659999999865
20
-147.8381519999999796
11
190.8619049999999788
21
-147.8857710000000054
0
LINE
8
BLACK
6
CONTINUOUS
10
190.8619049999999788
20
-147.8857710000000054
11
190.9095240000000047
21
-147.9810090000000002
0
LINE
8
BLACK
6
CONTINUOUS
10
190.9095240000000047
20
-147.9810090000000002
11
190.9095240000000047
21
-148.5048189999999977
0
LINE
8
BLACK
6
CONTINUOUS
10
191.3857139999999788
20
-148.5048189999999977
11
191.3857139999999788
21
-147.8381519999999796
0
LINE
8
BLACK
6
CONTINUOUS
10
191.3857139999999788
20
-147.9333900000000028
11
191.4333330000000046
21
-147.8857710000000054
0
LINE
8
BLACK
6
CONTINUOUS
10
191.4333330000000046
20
-147.8857710000000054
11
191.5285709999999995
21
-147.8381519999999796
0
LINE
8
BLACK
6
CONTINUOUS
10
191.5285709999999995
20
-147.8381519999999796
11
191.6714279999999917
21
-147.8381519999999796
0
LINE
8
BLACK
6
CONTINUOUS
10
191.6714279999999917
20
-147.8381519999999796
11
191.7666659999999865
21
-147.8857710000000054
0
LINE
8
BLACK
6
CONTINUOUS
10
191.7666659999999865
20
-147.8857710000000054
11
191.8142849999999839
21
-147.9810090000000002
0
LINE
8
BLACK
6
CONTINUOUS
10
191.8142849999999839
20
-147.9810090000000002
11
191.8142849999999839
21
-148.5048189999999977
0
LINE
8
BLACK
6
CONTINUOUS
10
191.8142849999999839
20
-147.9810090000000002
11
191.8619039999999814
21
-147.8857710000000054
0
LINE
8
BLACK
6
CONTINUOUS
10
191.8619039999999814
20
-147.8857710000000054
11
191.9571420000000046
21
-147.8381519999999796
0
LINE
8
BLACK
6
CONTINUOUS
10
191.9571420000000046
20
-147.8381519999999796
11
192.0999989999999968
21
-147.8381519999999796
0
LINE
8
BLACK
6
CONTINUOUS
10
192.0999989999999968
20
-147.8381519999999796
11
192.1952379999999891
21
-147.8857710000000054
0
LINE
8
BLACK
6
CONTINUOUS
10
192.1952379999999891
20
-147.8857710000000054
11
192.2428569999999866
21
-147.9810090000000002
0
LINE
8
BLACK
6
CONTINUOUS
10
192.2428569999999866
20
-147.9810090000000002
11
192.2428569999999866
21
-148.5048189999999977
0
LINE
8
BLACK
6
CONTINUOUS
10
196.6999999999999886
20
-143.
11
196.6999999999999886
21
-148.6364199999999869
0
LINE
8
BLACK
6
CONTINUOUS
10
181.5
20
-143.
11
181.5
21
-148.6364199999999869
0
LINE
8
BLACK
6
CONTINUOUS
10
196.6999999999999886
20
-148.0499999999999829
11
193.105952000000002
21
-148.0499999999999829
0
LINE
8
BLACK
6
CONTINUOUS
10
185.0940479999999866
20
-148.0499999999999829
11
181.5
21
-148.0499999999999829
0
LINE
8
BLACK
6
CONTINUOUS
10
196.6999999999999886
20
-148.0499999999999829
11
195.5734959999999774
21
-148.6364209999999844
0
LINE
8
BLACK
6
CONTINUOUS
10
196.6999999999999886
20
-148.0499999999999829
11
195.5734959999999774
21
-147.4635789999999815
0
LINE
8
BLACK
6
CONTINUOUS
10
181.5
20
-148.0499999999999829
11
182.6265039999999829
21
-147.4635789999999815
0
LINE
8
BLACK
6
CONTINUOUS
10
181.5
20
-148.0499999999999829
11
182.6265039999999829
21
-148.6364209999999844
0
LINE
8
BLACK
6
CONTINUOUS
10
197.4619050000000016
20
-118.1548189999999892
11
198.0809519999999964
21
-118.1548189999999892
0
LINE
8
BLACK
6
CONTINUOUS
10
198.0809519999999964
20
-118.1548189999999892
11
197.747618999999986
21
-118.5357709999999969
0
LINE
8
BLACK
6
CONTINUOUS
10
197.747618999999986
20
-118.5357709999999969
11
197.8904759999999783
21
-118.5357709999999969
0
LINE
8
BLACK
6
CONTINUOUS
10
197.8904759999999783
20
-118.5357709999999969
11
197.9857140000000015
21
-118.5833899999999943
0
LINE
8
BLACK
6
CONTINUOUS
10
197.9857140000000015
20
-118.5833899999999943
11
198.0333329999999989
21
-118.6310089999999917
0
LINE
8
BLACK
6
CONTINUOUS
10
198.0333329999999989
20
-118.6310089999999917
11
198.0809519999999964
21
-118.7262470000000008
0
LINE
8
BLACK
6
CONTINUOUS
10
198.0809519999999964
20
-118.7262470000000008
11
198.0809519999999964
21
-118.9643419999999878
0
LINE
8
BLACK
6
CONTINUOUS
10
198.0809519999999964
20
-118.9643419999999878
11
198.0333329999999989
21
-119.0595799999999969
0
LINE
8
BLACK
6
CONTINUOUS
10
198.0333329999999989
20
-119.0595799999999969
11
197.9857140000000015
21
-119.1071999999999917
0
LINE
8
BLACK
6
CONTINUOUS
10
197.9857140000000015
20
-119.1071999999999917
11
197.8904759999999783
21
-119.1548189999999892
0
LINE
8
BLACK
6
CONTINUOUS
10
197.8904759999999783
20
-119.1548189999999892
11
197.6047619999999938
21
-119.1548189999999892
0
LINE
8
BLACK
6
CONTINUOUS
10
197.6047619999999938
20
-119.1548189999999892
11
197.509523999999999
21
-119.1071999999999917
0
LINE
8
BLACK
6
CONTINUOUS
10
197.509523999999999
20
-119.1071999999999917
11
197.4619050000000016
21
-119.0595799999999969
0
LINE
8
BLACK
6
CONTINUOUS
10
198.6523809999999912
20
-118.5833899999999943
11
198.5571429999999964
21
-118.5357709999999969
0
LINE
8
BLACK
6
CONTINUOUS
10
198.5571429999999964
20
-118.5357709999999969
11
198.509523999999999
21
-118.4881519999999995
0
LINE
8
BLACK
6
CONTINUOUS
10
198.509523999999999
20
-118.4881519999999995
11
198.4619050000000016
21
-118.3929139999999904
0
LINE
8
BLACK
6
CONTINUOUS
10
198.4619050000000016
20
-118.3929139999999904
11
198.4619050000000016
21
-118.345294999999993
0
LINE
8
BLACK
6
CONTINUOUS
10
198.4619050000000016
20
-118.345294999999993
11
198.509523999999999
21
-118.2500569999999982
0
LINE
8
BLACK
6
CONTINUOUS
10
198.509523999999999
20
-118.2500569999999982
11
198.5571429999999964
21
-118.2024380000000008
0
LINE
8
BLACK
6
CONTINUOUS
10
198.5571429999999964
20
-118.2024380000000008
11
198.6523809999999912
21
-118.1548189999999892
0
LINE
8
BLACK
6
CONTINUOUS
10
198.6523809999999912
20
-118.1548189999999892
11
198.8428569999999809
21
-118.1548189999999892
0
LINE
8
BLACK
6
CONTINUOUS
10
198.8428569999999809
20
-118.1548189999999892
11
198.9380950000000041
21
-118.2024380000000008
0
LINE
8
BLACK
6
CONTINUOUS
10
198.9380950000000041
20
-118.2024380000000008
11
198.9857140000000015
21
-118.2500569999999982
0
LINE
8
BLACK
6
CONTINUOUS
10
198.9857140000000015
20
-118.2500569999999982
11
199.0333329999999989
21
-118.345294999999993
0
LINE
8
BLACK
6
CONTINUOUS
10
199.0333329999999989
20
-118.345294999999993
11
199.0333329999999989
21
-118.3929139999999904
0
LINE
8
BLACK
6
CONTINUOUS
10
199.0333329999999989
20
-118.3929139999999904
11
198.9857140000000015
21
-118.4881519999999995
0
LINE
8
BLACK
6
CONTINUOUS
10
198.9857140000000015
20
-118.4881519999999995
11
198.9380950000000041
21
-118.5357709999999969
0
LINE
8
BLACK
6
CONTINUOUS
10
198.9380950000000041
20
-118.5357709999999969
11
198.8428569999999809
21
-118.5833899999999943
0
LINE
8
BLACK
6
CONTINUOUS
10
198.8428569999999809
20
-118.5833899999999943
11
198.6523809999999912
21
-118.5833899999999943
0
LINE
8
BLACK
6
CONTINUOUS
10
198.6523809999999912
20
-118.5833899999999943
11
198.5571429999999964
21
-118.6310089999999917
0
LINE
8
BLACK
6
CONTINUOUS
10
198.5571429999999964
20
-118.6310089999999917
11
198.509523999999999
21
-118.6786279999999891
0
LINE
8
BLACK
6
CONTINUOUS
10
198.509523999999999
20
-118.6786279999999891
11
198.4619050000000016
21
-118.7738659999999982
0
LINE
8
BLACK
6
CONTINUOUS
10
198.4619050000000016
20
-118.7738659999999982
11
198.4619050000000016
21
-118.9643419999999878
0
LINE
8
BLACK
6
CONTINUOUS
10
198.4619050000000016
20
-118.9643419999999878
11
198.509523999999999
21
-119.0595799999999969
0
LINE
8
BLACK
6
CONTINUOUS
10
198.509523999999999
20
-119.0595799999999969
11
198.5571429999999964
21
-119.1071999999999917
0
LINE
8
BLACK
6
CONTINUOUS
10
198.5571429999999964
20
-119.1071999999999917
11
198.6523809999999912
21
-119.1548189999999892
0
LINE
8
BLACK
6
CONTINUOUS
10
198.6523809999999912
20
-119.1548189999999892
11
198.8428569999999809
21
-119.1548189999999892
0
LINE
8
BLACK
6
CONTINUOUS
10
198.8428569999999809
20
-119.1548189999999892
11
198.9380950000000041
21
-119.1071999999999917
0
LINE
8
BLACK
6
CONTINUOUS
10
198.9380950000000041
20
-119.1071999999999917
11
198.9857140000000015
21
-119.0595799999999969
0
LINE
8
BLACK
6
CONTINUOUS
10
198.9857140000000015
20
-119.0595799999999969
11
199.0333329999999989
21
-118.9643419999999878
0
LINE
8
BLACK
6
CONTINUOUS
10
199.0333329999999989
20
-118.9643419999999878
11
199.0333329999999989
21
-118.7738659999999982
0
LINE
8
BLACK
6
CONTINUOUS
10
199.0333329999999989
20
-118.7738659999999982
11
198.9857140000000015
21
-118.6786279999999891
0
LINE
8
BLACK
6
CONTINUOUS
10
198.9857140000000015
20
-118.6786279999999891
11
198.9380950000000041
21
-118.6310089999999917
0
LINE
8
BLACK
6
CONTINUOUS
10
198.9380950000000041
20
-118.6310089999999917
11
198.8428569999999809
21
-118.5833899999999943
0
LINE
8
BLACK
6
CONTINUOUS
10
199.4619050000000016
20
-119.0595799999999969
11
199.509523999999999
21
-119.1071999999999917
0
LINE
8
BLACK
6
CONTINUOUS
10
199.509523999999999
20
-119.1071999999999917
11
199.4619050000000016
21
-119.1548189999999892
0
LINE
8
BLACK
6
CONTINUOUS
10
199.4619050000000016
20
-119.1548189999999892
11
199.4142860000000042
21
-119.1071999999999917
0
LINE
8
BLACK
6
CONTINUOUS
10
199.4142860000000042
20
-119.1071999999999917
11
199.4619050000000016
21
-119.0595799999999969
0
LINE
8
BLACK
6
CONTINUOUS
10
199.4619050000000016
20
-119.0595799999999969
11
199.4619050000000016
21
-119.1548189999999892
0
LINE
8
BLACK
6
CONTINUOUS
10
200.3666659999999808
20
-118.4881519999999995
11
200.3666659999999808
21
-119.1548189999999892
0
LINE
8
BLACK
6
CONTINUOUS
10
200.1285709999999938
20
-118.1071999999999917
11
199.8904759999999783
21
-118.8214849999999956
0
LINE
8
BLACK
6
CONTINUOUS
10
199.8904759999999783
20
-118.8214849999999956
11
200.5095230000000015
21
-118.8214849999999956
0
LINE
8
BLACK
6
CONTINUOUS
10
201.6523809999999912
20
-119.1548189999999892
11
201.6523809999999912
21
-118.4881519999999995
0
LINE
8
BLACK
6
CONTINUOUS
10
201.6523809999999912
20
-118.5833899999999943
11
201.6999999999999886
21
-118.5357709999999969
0
LINE
8
BLACK
6
CONTINUOUS
10
201.6999999999999886
20
-118.5357709999999969
11
201.7952379999999835
21
-118.4881519999999995
0
LINE
8
BLACK
6
CONTINUOUS
10
201.7952379999999835
20
-118.4881519999999995
11
201.9380950000000041
21
-118.4881519999999995
0
LINE
8
BLACK
6
CONTINUOUS
10
201.9380950000000041
20
-118.4881519999999995
11
202.0333329999999989
21
-118.5357709999999969
0
LINE
8
BLACK
6
CONTINUOUS
10
202.0333329999999989
20
-118.5357709999999969
11
202.0809519999999964
21
-118.6310089999999917
0
LINE
8
BLACK
6
CONTINUOUS
10
202.0809519999999964
20
-118.6310089999999917
11
202.0809519999999964
21
-119.1548189999999892
0
LINE
8
BLACK
6
CONTINUOUS
10
202.0809519999999964
20
-118.6310089999999917
11
202.1285709999999938
21
-118.5357709999999969
0
LINE
8
BLACK
6
CONTINUOUS
10
202.1285709999999938
20
-118.5357709999999969
11
202.2238089999999886
21
-118.4881519999999995
0
LINE
8
BLACK
6
CONTINUOUS
10
202.2238089999999886
20
-118.4881519999999995
11
202.3666659999999808
21
-118.4881519999999995
0
LINE
8
BLACK
6
CONTINUOUS
10
202.3666659999999808
20
-118.4881519999999995
11
202.4619050000000016
21
-118.5357709999999969
0
LINE
8
BLACK
6
CONTINUOUS
10
202.4619050000000016
20
-118.5357709999999969
11
202.509523999999999
21
-118.6310089999999917
0
LINE
8
BLACK
6
CONTINUOUS
10
202.509523999999999
20
-118.6310089999999917
11
202.509523999999999
21
-119.1548189999999892
0
LINE
8
BLACK
6
CONTINUOUS
10
202.9857140000000015
20
-119.1548189999999892
11
202.9857140000000015
21
-118.4881519999999995
0
LINE
8
BLACK
6
CONTINUOUS
10
202.9857140000000015
20
-118.5833899999999943
11
203.0333329999999989
21
-118.5357709999999969
0
LINE
8
BLACK
6
CONTINUOUS
10
203.0333329999999989
20
-118.5357709999999969
11
203.1285709999999938
21
-118.4881519999999995
0
LINE
8
BLACK
6
CONTINUOUS
10
203.1285709999999938
20
-118.4881519999999995
11
203.271427999999986
21
-118.4881519999999995
0
LINE
8
BLACK
6
CONTINUOUS
10
203.271427999999986
20
-118.4881519999999995
11
203.3666659999999808
21
-118.5357709999999969
0
LINE
8
BLACK
6
CONTINUOUS
10
203.3666659999999808
20
-118.5357709999999969
11
203.4142849999999783
21
-118.6310089999999917
0
LINE
8
BLACK
6
CONTINUOUS
10
203.4142849999999783
20
-118.6310089999999917
11
203.4142849999999783
21
-119.1548189999999892
0
LINE
8
BLACK
6
CONTINUOUS
10
203.4142849999999783
20
-118.6310089999999917
11
203.4619040000000041
21
-118.5357709999999969
0
LINE
8
BLACK
6
CONTINUOUS
10
203.4619040000000041
20
-118.5357709999999969
11
203.5571419999999989
21
-118.4881519999999995
0
LINE
8
BLACK
6
CONTINUOUS
10
203.5571419999999989
20
-118.4881519999999995
11
203.6999989999999912
21
-118.4881519999999995
0
LINE
8
BLACK
6
CONTINUOUS
10
203.6999989999999912
20
-118.4881519999999995
11
203.7952379999999835
21
-118.5357709999999969
0
LINE
8
BLACK
6
CONTINUOUS
10
203.7952379999999835
20
-118.5357709999999969
11
203.8428569999999809
21
-118.6310089999999917
0
LINE
8
BLACK
6
CONTINUOUS
10
203.8428569999999809
20
-118.6310089999999917
11
203.8428569999999809
21
-119.1548189999999892
0
LINE
8
BLACK
6
CONTINUOUS
10
181.5
20
-126.
11
181.5
21
-118.1135799999999989
0
LINE
8
BLACK
6
CONTINUOUS
10
219.8999999999999773
20
-126.
11
219.8999999999999773
21
-118.1135799999999989
0
LINE
8
BLACK
6
CONTINUOUS
10
181.5
20
-118.6999999999999886
11
196.6940479999999809
21
-118.6999999999999886
0
LINE
8
BLACK
6
CONTINUOUS
10
204.7059519999999964
20
-118.6999999999999886
11
219.8999999999999773
21
-118.6999999999999886
0
LINE
8
BLACK
6
CONTINUOUS
10
181.5
20
-118.6999999999999886
11
182.6265039999999829
21
-118.1135790000000014
0
LINE
8
BLACK
6
CONTINUOUS
10
181.5
20
-118.6999999999999886
11
182.6265039999999829
21
-119.28642099999999
0
LINE
8
BLACK
6
CONTINUOUS
10
219.8999999999999773
20
-118.6999999999999886
11
218.7734959999999944
21
-119.28642099999999
0
LINE
8
BLACK
6
CONTINUOUS
10
219.8999999999999773
20
-118.6999999999999886
11
218.7734959999999944
21
-118.1135790000000014
0
LINE
8
BLACK
6
CONTINUOUS
10
175.6000569999999925
20
-137.6904749999999922
11
175.5524379999999951
21
-137.6428559999999948
0
LINE
8
BLACK
6
CONTINUOUS
10
175.5524379999999951
20
-137.6428559999999948
11
175.5048189999999977
21
-137.5476179999999999
0
LINE
8
BLACK
6
CONTINUOUS
10
175.5048189999999977
20
-137.5476179999999999
11
175.5048189999999977
21
-137.3095229999999844
0
LINE
8
BLACK
6
CONTINUOUS
10
175.5048189999999977
20
-137.3095229999999844
11
175.5524379999999951
21
-137.2142849999999896
0
LINE
8
BLACK
6
CONTINUOUS
10
175.5524379999999951
20
-137.2142849999999896
11
175.6000569999999925
21
-137.1666659999999922
0
LINE
8
BLACK
6
CONTINUOUS
10
175.6000569999999925
20
-137.1666659999999922
11
175.6952949999999873
21
-137.1190469999999948
0
LINE
8
BLACK
6
CONTINUOUS
10
175.6952949999999873
20
-137.1190469999999948
11
175.7905329999999822
21
-137.1190469999999948
0
LINE
8
BLACK
6
CONTINUOUS
10
175.7905329999999822
20
-137.1190469999999948
11
175.9333900000000028
21
-137.1666659999999922
0
LINE
8
BLACK
6
CONTINUOUS
10
175.9333900000000028
20
-137.1666659999999922
11
176.5048189999999977
21
-137.7380939999999896
0
LINE
8
BLACK
6
CONTINUOUS
10
176.5048189999999977
20
-137.7380939999999896
11
176.5048189999999977
21
-137.1190469999999948
0
LINE
8
BLACK
6
CONTINUOUS
10
175.6000569999999925
20
-136.7380939999999896
11
175.5524379999999951
21
-136.6904749999999922
0
LINE
8
BLACK
6
CONTINUOUS
10
175.5524379999999951
20
-136.6904749999999922
11
175.5048189999999977
21
-136.5952369999999974
0
LINE
8
BLACK
6
CONTINUOUS
10
175.5048189999999977
20
-136.5952369999999974
11
175.5048189999999977
21
-136.3571419999999819
0
LINE
8
BLACK
6
CONTINUOUS
10
175.5048189999999977
20
-136.3571419999999819
11
175.5524379999999951
21
-136.261903999999987
0
LINE
8
BLACK
6
CONTINUOUS
10
175.5524379999999951
20
-136.261903999999987
11
175.6000569999999925
21
-136.2142849999999896
0
LINE
8
BLACK
6
CONTINUOUS
10
175.6000569999999925
20
-136.2142849999999896
11
175.6952949999999873
21
-136.1666659999999922
0
LINE
8
BLACK
6
CONTINUOUS
10
175.6952949999999873
20
-136.1666659999999922
11
175.7905329999999822
21
-136.1666659999999922
0
LINE
8
BLACK
6
CONTINUOUS
10
175.7905329999999822
20
-136.1666659999999922
11
175.9333900000000028
21
-136.2142849999999896
0
LINE
8
BLACK
6
CONTINUOUS
10
175.9333900000000028
20
-136.2142849999999896
11
176.5048189999999977
21
-136.785712999999987
0
LINE
8
BLACK
6
CONTINUOUS
10
176.5048189999999977
20
-136.785712999999987
11
176.5048189999999977
21
-136.1666659999999922
0
LINE
8
BLACK
6
CONTINUOUS
10
176.4095800000000054
20
-135.7380939999999896
11
176.4572000000000003
21
-135.6904749999999922
0
LINE
8
BLACK
6
CONTINUOUS
10
176.4572000000000003
20
-135.6904749999999922
11
176.5048189999999977
21
-135.7380939999999896
0
LINE
8
BLACK
6
CONTINUOUS
10
176.5048189999999977
20
-135.7380939999999896
11
176.4572000000000003
21
-135.785712999999987
0
LINE
8
BLACK
6
CONTINUOUS
10
176.4572000000000003
20
-135.785712999999987
11
176.4095800000000054
21
-135.7380939999999896
0
LINE
8
BLACK
6
CONTINUOUS
10
176.4095800000000054
20
-135.7380939999999896
11
176.5048189999999977
21
-135.7380939999999896
0
LINE
8
BLACK
6
CONTINUOUS
10
175.8381519999999796
20
-134.8333329999999819
11
176.5048189999999977
21
-134.8333329999999819
0
LINE
8
BLACK
6
CONTINUOUS
10
175.4572000000000003
20
-135.0714279999999974
11
176.1714849999999899
21
-135.3095229999999844
0
LINE
8
BLACK
6
CONTINUOUS
10
176.1714849999999899
20
-135.3095229999999844
11
176.1714849999999899
21
-134.6904759999999897
0
LINE
8
BLACK
6
CONTINUOUS
10
176.5048189999999977
20
-133.5476179999999999
11
175.8381519999999796
21
-133.5476179999999999
0
LINE
8
BLACK
6
CONTINUOUS
10
175.9333900000000028
20
-133.5476179999999999
11
175.8857710000000054
21
-133.4999990000000025
0
LINE
8
BLACK
6
CONTINUOUS
10
175.8857710000000054
20
-133.4999990000000025
11
175.8381519999999796
21
-133.4047610000000077
0
LINE
8
BLACK
6
CONTINUOUS
10
175.8381519999999796
20
-133.4047610000000077
11
175.8381519999999796
21
-133.261903999999987
0
LINE
8
BLACK
6
CONTINUOUS
10
175.8381519999999796
20
-133.261903999999987
11
175.8857710000000054
21
-133.1666659999999922
0
LINE
8
BLACK
6
CONTINUOUS
10
175.8857710000000054
20
-133.1666659999999922
11
175.9810090000000002
21
-133.1190469999999948
0
LINE
8
BLACK
6
CONTINUOUS
10
175.9810090000000002
20
-133.1190469999999948
11
176.5048189999999977
21
-133.1190469999999948
0
LINE
8
BLACK
6
CONTINUOUS
10
175.9810090000000002
20
-133.1190469999999948
11
175.8857710000000054
21
-133.0714279999999974
0
LINE
8
BLACK
6
CONTINUOUS
10
175.8857710000000054
20
-133.0714279999999974
11
175.8381519999999796
21
-132.9761900000000026
0
LINE
8
BLACK
6
CONTINUOUS
10
175.8381519999999796
20
-132.9761900000000026
11
175.8381519999999796
21
-132.8333329999999819
0
LINE
8
BLACK
6
CONTINUOUS
10
175.8381519999999796
20
-132.8333329999999819
11
175.8857710000000054
21
-132.7380939999999896
0
LINE
8
BLACK
6
CONTINUOUS
10
175.8857710000000054
20
-132.7380939999999896
11
175.9810090000000002
21
-132.6904749999999922
0
LINE
8
BLACK
6
CONTINUOUS
10
175.9810090000000002
20
-132.6904749999999922
11
176.5048189999999977
21
-132.6904749999999922
0
LINE
8
BLACK
6
CONTINUOUS
10
176.5048189999999977
20
-132.2142849999999896
11
175.8381519999999796
21
-132.2142849999999896
0
LINE
8
BLACK
6
CONTINUOUS
10
175.9333900000000028
20
-132.2142849999999896
11
175.8857710000000054
21
-132.1666659999999922
0
LINE
8
BLACK
6
CONTINUOUS
10
175.8857710000000054
20
-132.1666659999999922
11
175.8381519999999796
21
-132.0714279999999974
0
LINE
8
BLACK
6
CONTINUOUS
10
175.8381519999999796
20
-132.0714279999999974
11
175.8381519999999796
21
-131.9285710000000051
0
LINE
8
BLACK
6
CONTINUOUS
10
175.8381519999999796
20
-131.9285710000000051
11
175.8857710000000054
21
-131.8333329999999819
0
LINE
8
BLACK
6
CONTINUOUS
10
175.8857710000000054
20
-131.8333329999999819
11
175.9810090000000002
21
-131.7857139999999845
0
LINE
8
BLACK
6
CONTINUOUS
10
175.9810090000000002
20
-131.7857139999999845
11
176.5048189999999977
21
-131.7857139999999845
0
LINE
8
BLACK
6
CONTINUOUS
10
175.9810090000000002
20
-131.7857139999999845
11
175.8857710000000054
21
-131.7380949999999871
0
LINE
8
BLACK
6
CONTINUOUS
10
175.8857710000000054
20
-131.7380949999999871
11
175.8381519999999796
21
-131.6428569999999922
0
LINE
8
BLACK
6
CONTINUOUS
10
175.8381519999999796
20
-131.6428569999999922
11
175.8381519999999796
21
-131.5
0
LINE
8
BLACK
6
CONTINUOUS
10
175.8381519999999796
20
-131.5
11
175.8857710000000054
21
-131.4047610000000077
0
LINE
8
BLACK
6
CONTINUOUS
10
175.8857710000000054
20
-131.4047610000000077
11
175.9810090000000002
21
-131.3571419999999819
0
LINE
8
BLACK
6
CONTINUOUS
10
175.9810090000000002
20
-131.3571419999999819
11
176.5048189999999977
21
-131.3571419999999819
0
LINE
8
BLACK
6
CONTINUOUS
10
184.1999999999999886
20
-123.2999999999999972
11
175.463579999999979
21
-123.2999999999999972
0
LINE
8
BLACK
6
CONTINUOUS
10
184.1999999999999886
20
-145.6999999999999886
11
175.463579999999979
21
-145.6999999999999886
0
LINE
8
BLACK
6
CONTINUOUS
10
176.0499999999999829
20
-123.2999999999999972
11
176.0499999999999829
21
-130.4940479999999923
0
LINE
8
BLACK
6
CONTINUOUS
10
176.0499999999999829
20
-138.5059520000000077
11
176.0499999999999829
21
-145.6999999999999886
0
LINE
8
BLACK
6
CONTINUOUS
10
176.0499999999999829
20
-123.2999999999999972
11
176.6364209999999844
21
-124.4265039999999942
0
LINE
8
BLACK
6
CONTINUOUS
10
176.0499999999999829
20
-123.2999999999999972
11
175.4635789999999815
21
-124.4265039999999942
0
LINE
8
BLACK
6
CONTINUOUS
10
176.0499999999999829
20
-145.6999999999999886
11
175.4635789999999815
21
-144.5734960000000058
0
LINE
8
BLACK
6
CONTINUOUS
10
176.0499999999999829
20
-145.6999999999999886
11
176.6364209999999844
21
-144.5734960000000058
0
LINE
8
BLACK
6
CONTINUOUS
10
200.3119049999999959
20
-121.1881519999999881
11
200.3119049999999959
21
-121.854818999999992
0
LINE
8
BLACK
6
CONTINUOUS
10
200.0738099999999804
20
-120.8071999999999946
11
199.8357149999999933
21
-121.5214849999999984
0
LINE
8
BLACK
6
CONTINUOUS
10
199.8357149999999933
20
-121.5214849999999984
11
200.4547619999999881
21
-121.5214849999999984
0
LINE
8
BLACK
6
CONTINUOUS
10
200.8357149999999933
20
-121.7595799999999997
11
200.8833339999999907
21
-121.8071999999999946
0
LINE
8
BLACK
6
CONTINUOUS
10
200.8833339999999907
20
-121.8071999999999946
11
200.8357149999999933
21
-121.854818999999992
0
LINE
8
BLACK
6
CONTINUOUS
10
200.8357149999999933
20
-121.854818999999992
11
200.7880959999999959
21
-121.8071999999999946
0
LINE
8
BLACK
6
CONTINUOUS
10
200.7880959999999959
20
-121.8071999999999946
11
200.8357149999999933
21
-121.7595799999999997
0
LINE
8
BLACK
6
CONTINUOUS
10
200.8357149999999933
20
-121.7595799999999997
11
200.8357149999999933
21
-121.854818999999992
0
LINE
8
BLACK
6
CONTINUOUS
10
201.2166670000000011
20
-120.854818999999992
11
201.8833329999999933
21
-120.854818999999992
0
LINE
8
BLACK
6
CONTINUOUS
10
201.8833329999999933
20
-120.854818999999992
11
201.4547619999999881
21
-121.854818999999992
0
LINE
8
BLACK
6
CONTINUOUS
10
203.026190999999983
20
-121.854818999999992
11
203.026190999999983
21
-121.1881519999999881
0
LINE
8
BLACK
6
CONTINUOUS
10
203.026190999999983
20
-121.2833899999999971
11
203.0738099999999804
21
-121.2357709999999997
0
LINE
8
BLACK
6
CONTINUOUS
10
203.0738099999999804
20
-121.2357709999999997
11
203.1690480000000036
21
-121.1881519999999881
0
LINE
8
BLACK
6
CONTINUOUS
10
203.1690480000000036
20
-121.1881519999999881
11
203.3119049999999959
21
-121.1881519999999881
0
LINE
8
BLACK
6
CONTINUOUS
10
203.3119049999999959
20
-121.1881519999999881
11
203.4071429999999907
21
-121.2357709999999997
0
LINE
8
BLACK
6
CONTINUOUS
10
203.4071429999999907
20
-121.2357709999999997
11
203.4547619999999881
21
-121.3310089999999946
0
LINE
8
BLACK
6
CONTINUOUS
10
203.4547619999999881
20
-121.3310089999999946
11
203.4547619999999881
21
-121.854818999999992
0
LINE
8
BLACK
6
CONTINUOUS
10
203.4547619999999881
20
-121.3310089999999946
11
203.5023809999999855
21
-121.2357709999999997
0
LINE
8
BLACK
6
CONTINUOUS
10
203.5023809999999855
20
-121.2357709999999997
11
203.5976189999999804
21
-121.1881519999999881
0
LINE
8
BLACK
6
CONTINUOUS
10
203.5976189999999804
20
-121.1881519999999881
11
203.740476000000001
21
-121.1881519999999881
0
LINE
8
BLACK
6
CONTINUOUS
10
203.740476000000001
20
-121.1881519999999881
11
203.8357149999999933
21
-121.2357709999999997
0
LINE
8
BLACK
6
CONTINUOUS
10
203.8357149999999933
20
-121.2357709999999997
11
203.8833339999999907
21
-121.3310089999999946
0
LINE
8
BLACK
6
CONTINUOUS
10
203.8833339999999907
20
-121.3310089999999946
11
203.8833339999999907
21
-121.854818999999992
0
LINE
8
BLACK
6
CONTINUOUS
10
204.3595239999999933
20
-121.854818999999992
11
204.3595239999999933
21
-121.1881519999999881
0
LINE
8
BLACK
6
CONTINUOUS
10
204.3595239999999933
20
-121.2833899999999971
11
204.4071429999999907
21
-121.2357709999999997
0
LINE
8
BLACK
6
CONTINUOUS
10
204.4071429999999907
20
-121.2357709999999997
11
204.5023809999999855
21
-121.1881519999999881
0
LINE
8
BLACK
6
CONTINUOUS
10
204.5023809999999855
20
-121.1881519999999881
11
204.6452379999999778
21
-121.1881519999999881
0
LINE
8
BLACK
6
CONTINUOUS
10
204.6452379999999778
20
-121.1881519999999881
11
204.740476000000001
21
-121.2357709999999997
0
LINE
8
BLACK
6
CONTINUOUS
10
204.740476000000001
20
-121.2357709999999997
11
204.7880949999999984
21
-121.3310089999999946
0
LINE
8
BLACK
6
CONTINUOUS
10
204.7880949999999984
20
-121.3310089999999946
11
204.7880949999999984
21
-121.854818999999992
0
LINE
8
BLACK
6
CONTINUOUS
10
204.7880949999999984
20
-121.3310089999999946
11
204.8357139999999958
21
-121.2357709999999997
0
LINE
8
BLACK
6
CONTINUOUS
10
204.8357139999999958
20
-121.2357709999999997
11
204.9309519999999907
21
-121.1881519999999881
0
LINE
8
BLACK
6
CONTINUOUS
10
204.9309519999999907
20
-121.1881519999999881
11
205.0738089999999829
21
-121.1881519999999881
0
LINE
8
BLACK
6
CONTINUOUS
10
205.0738089999999829
20
-121.1881519999999881
11
205.1690480000000036
21
-121.2357709999999997
0
LINE
8
BLACK
6
CONTINUOUS
10
205.1690480000000036
20
-121.2357709999999997
11
205.2166670000000011
21
-121.3310089999999946
0
LINE
8
BLACK
6
CONTINUOUS
10
205.2166670000000011
20
-121.3310089999999946
11
205.2166670000000011
21
-121.854818999999992
0
LINE
8
BLACK
6
CONTINUOUS
10
194.3499999999999943
20
-126.
11
194.3499999999999943
21
-120.8135799999999875
0
LINE
8
BLACK
6
CONTINUOUS
10
199.0499999999999829
20
-126.
11
199.0499999999999829
21
-120.8135799999999875
0
LINE
8
BLACK
6
CONTINUOUS
10
194.3499999999999943
20
-121.3999999999999915
11
199.0202390000000037
21
-121.3999999999999915
0
LINE
8
BLACK
6
CONTINUOUS
10
194.3499999999999943
20
-121.3999999999999915
11
195.4765039999999772
21
-120.8135789999999901
0
LINE
8
BLACK
6
CONTINUOUS
10
194.3499999999999943
20
-121.3999999999999915
11
195.4765039999999772
21
-121.9864209999999929
0
LINE
8
BLACK
6
CONTINUOUS
10
199.0499999999999829
20
-121.3999999999999915
11
197.9234960000000001
21
-121.9864209999999929
0
LINE
8
BLACK
6
CONTINUOUS
10
199.0499999999999829
20
-121.3999999999999915
11
197.9234960000000001
21
-120.8135789999999901
0
LINE
8
BLACK
6
CONTINUOUS
10
217.7927999999999997
20
-124.4571429999999879
11
217.7451799999999764
21
-124.5999999999999943
0
LINE
8
BLACK
6
CONTINUOUS
10
217.7451799999999764
20
-124.5999999999999943
11
217.7451799999999764
21
-124.8380949999999956
0
LINE
8
BLACK
6
CONTINUOUS
10
217.7451799999999764
20
-124.8380949999999956
11
217.7927999999999997
21
-124.9333329999999904
0
LINE
8
BLACK
6
CONTINUOUS
10
217.7927999999999997
20
-124.9333329999999904
11
217.8404189999999971
21
-124.9809519999999878
0
LINE
8
BLACK
6
CONTINUOUS
10
217.8404189999999971
20
-124.9809519999999878
11
217.935656999999992
21
-125.0285709999999995
0
LINE
8
BLACK
6
CONTINUOUS
10
217.935656999999992
20
-125.0285709999999995
11
218.0308949999999868
21
-125.0285709999999995
0
LINE
8
BLACK
6
CONTINUOUS
10
218.0308949999999868
20
-125.0285709999999995
11
218.1261329999999816
21
-124.9809519999999878
0
LINE
8
BLACK
6
CONTINUOUS
10
218.1261329999999816
20
-124.9809519999999878
11
218.173751999999979
21
-124.9333329999999904
0
LINE
8
BLACK
6
CONTINUOUS
10
218.173751999999979
20
-124.9333329999999904
11
218.2213709999999764
21
-124.8380949999999956
0
LINE
8
BLACK
6
CONTINUOUS
10
218.2213709999999764
20
-124.8380949999999956
11
218.2689900000000023
21
-124.6476189999999917
0
LINE
8
BLACK
6
CONTINUOUS
10
218.2689900000000023
20
-124.6476189999999917
11
218.3166089999999997
21
-124.5523809999999969
0
LINE
8
BLACK
6
CONTINUOUS
10
218.3166089999999997
20
-124.5523809999999969
11
218.3642279999999971
21
-124.5047619999999995
0
LINE
8
BLACK
6
CONTINUOUS
10
218.3642279999999971
20
-124.5047619999999995
11
218.4594659999999919
21
-124.4571429999999879
0
LINE
8
BLACK
6
CONTINUOUS
10
218.4594659999999919
20
-124.4571429999999879
11
218.5547039999999868
21
-124.4571429999999879
0
LINE
8
BLACK
6
CONTINUOUS
10
218.5547039999999868
20
-124.4571429999999879
11
218.6499419999999816
21
-124.5047619999999995
0
LINE
8
BLACK
6
CONTINUOUS
10
218.6499419999999816
20
-124.5047619999999995
11
218.697560999999979
21
-124.5523809999999969
0
LINE
8
BLACK
6
CONTINUOUS
10
218.697560999999979
20
-124.5523809999999969
11
218.7451799999999764
21
-124.6476189999999917
0
LINE
8
BLACK
6
CONTINUOUS
10
218.7451799999999764
20
-124.6476189999999917
11
218.7451799999999764
21
-124.885713999999993
0
LINE
8
BLACK
6
CONTINUOUS
10
218.7451799999999764
20
-124.885713999999993
11
218.697560999999979
21
-125.0285709999999995
0
LINE
8
BLACK
6
CONTINUOUS
10
217.7451799999999764
20
-125.4571429999999879
11
218.4118469999999945
21
-125.4571429999999879
0
LINE
8
BLACK
6
CONTINUOUS
10
218.7451799999999764
20
-125.4571429999999879
11
218.697560999999979
21
-125.4095239999999905
0
LINE
8
BLACK
6
CONTINUOUS
10
218.697560999999979
20
-125.4095239999999905
11
218.6499419999999816
21
-125.4571429999999879
0
LINE
8
BLACK
6
CONTINUOUS
10
218.6499419999999816
20
-125.4571429999999879
11
218.697560999999979
21
-125.5047619999999995
0
LINE
8
BLACK
6
CONTINUOUS
10
218.697560999999979
20
-125.5047619999999995
11
218.7451799999999764
21
-125.4571429999999879
0
LINE
8
BLACK
6
CONTINUOUS
10
218.7451799999999764
20
-125.4571429999999879
11
218.6499419999999816
21
-125.4571429999999879
0
LINE
8
BLACK
6
CONTINUOUS
10
218.4118469999999945
20
-126.3619039999999956
11
217.6023229999999842
21
-126.3619039999999956
0
LINE
8
BLACK
6
CONTINUOUS
10
217.6023229999999842
20
-126.3619039999999956
11
217.5070849999999893
21
-126.3142849999999981
0
LINE
8
BLACK
6
CONTINUOUS
10
217.5070849999999893
20
-126.3142849999999981
11
217.4594659999999919
21
-126.2666660000000007
0
LINE
8
BLACK
6
CONTINUOUS
10
217.4594659999999919
20
-126.2666660000000007
11
217.4118469999999945
21
-126.1714279999999917
0
LINE
8
BLACK
6
CONTINUOUS
10
217.4118469999999945
20
-126.1714279999999917
11
217.4118469999999945
21
-126.0285709999999995
0
LINE
8
BLACK
6
CONTINUOUS
10
217.4118469999999945
20
-126.0285709999999995
11
217.4594659999999919
21
-125.9333329999999904
0
LINE
8
BLACK
6
CONTINUOUS
10
217.7927999999999997
20
-126.3619039999999956
11
217.7451799999999764
21
-126.2666660000000007
0
LINE
8
BLACK
6
CONTINUOUS
10
217.7451799999999764
20
-126.2666660000000007
11
217.7451799999999764
21
-126.0761899999999969
0
LINE
8
BLACK
6
CONTINUOUS
10
217.7451799999999764
20
-126.0761899999999969
11
217.7927999999999997
21
-125.9809519999999878
0
LINE
8
BLACK
6
CONTINUOUS
10
217.7927999999999997
20
-125.9809519999999878
11
217.8404189999999971
21
-125.9333329999999904
0
LINE
8
BLACK
6
CONTINUOUS
10
217.8404189999999971
20
-125.9333329999999904
11
217.935656999999992
21
-125.885713999999993
0
LINE
8
BLACK
6
CONTINUOUS
10
217.935656999999992
20
-125.885713999999993
11
218.2213709999999764
21
-125.885713999999993
0
LINE
8
BLACK
6
CONTINUOUS
10
218.2213709999999764
20
-125.885713999999993
11
218.3166089999999997
21
-125.9333329999999904
0
LINE
8
BLACK
6
CONTINUOUS
10
218.3166089999999997
20
-125.9333329999999904
11
218.3642279999999971
21
-125.9809519999999878
0
LINE
8
BLACK
6
CONTINUOUS
10
218.3642279999999971
20
-125.9809519999999878
11
218.4118469999999945
21
-126.0761899999999969
0
LINE
8
BLACK
6
CONTINUOUS
10
218.4118469999999945
20
-126.0761899999999969
11
218.4118469999999945
21
-126.2666660000000007
0
LINE
8
BLACK
6
CONTINUOUS
10
218.4118469999999945
20
-126.2666660000000007
11
218.3642279999999971
21
-126.3619039999999956
0
LINE
8
BLACK
6
CONTINUOUS
10
218.4118469999999945
20
-126.8380949999999956
11
217.7451799999999764
21
-126.8380949999999956
0
LINE
8
BLACK
6
CONTINUOUS
10
218.3166089999999997
20
-126.8380949999999956
11
218.3642279999999971
21
-126.885713999999993
0
LINE
8
BLACK
6
CONTINUOUS
10
218.3642279999999971
20
-126.885713999999993
11
218.4118469999999945
21
-126.9809519999999878
0
LINE
8
BLACK
6
CONTINUOUS
10
218.4118469999999945
20
-126.9809519999999878
11
218.4118469999999945
21
-127.1238089999999943
0
LINE
8
BLACK
6
CONTINUOUS
10
218.4118469999999945
20
-127.1238089999999943
11
218.3642279999999971
21
-127.2190469999999891
0
LINE
8
BLACK
6
CONTINUOUS
10
218.3642279999999971
20
-127.2190469999999891
11
218.2689900000000023
21
-127.2666660000000007
0
LINE
8
BLACK
6
CONTINUOUS
10
218.2689900000000023
20
-127.2666660000000007
11
217.7451799999999764
21
-127.2666660000000007
0
LINE
8
BLACK
6
CONTINUOUS
10
217.7451799999999764
20
-128.1714279999999917
11
218.2689900000000023
21
-128.1714279999999917
0
LINE
8
BLACK
6
CONTINUOUS
10
218.2689900000000023
20
-128.1714279999999917
11
218.3642279999999971
21
-128.1238089999999943
0
LINE
8
BLACK
6
CONTINUOUS
10
218.3642279999999971
20
-128.1238089999999943
11
218.4118469999999945
21
-128.0285709999999995
0
LINE
8
BLACK
6
CONTINUOUS
10
218.4118469999999945
20
-128.0285709999999995
11
218.4118469999999945
21
-127.8380949999999956
0
LINE
8
BLACK
6
CONTINUOUS
10
218.4118469999999945
20
-127.8380949999999956
11
218.3642279999999971
21
-127.7428570000000008
0
LINE
8
BLACK
6
CONTINUOUS
10
217.7927999999999997
20
-128.1714279999999917
11
217.7451799999999764
21
-128.0761899999999969
0
LINE
8
BLACK
6
CONTINUOUS
10
217.7451799999999764
20
-128.0761899999999969
11
217.7451799999999764
21
-127.8380949999999956
0
LINE
8
BLACK
6
CONTINUOUS
10
217.7451799999999764
20
-127.8380949999999956
11
217.7927999999999997
21
-127.7428570000000008
0
LINE
8
BLACK
6
CONTINUOUS
10
217.7927999999999997
20
-127.7428570000000008
11
217.8880379999999946
21
-127.6952379999999891
0
LINE
8
BLACK
6
CONTINUOUS
10
217.8880379999999946
20
-127.6952379999999891
11
217.9832759999999894
21
-127.6952379999999891
0
LINE
8
BLACK
6
CONTINUOUS
10
217.9832759999999894
20
-127.6952379999999891
11
218.0785139999999842
21
-127.7428570000000008
0
LINE
8
BLACK
6
CONTINUOUS
10
218.0785139999999842
20
-127.7428570000000008
11
218.1261329999999816
21
-127.8380949999999956
0
LINE
8
BLACK
6
CONTINUOUS
10
218.1261329999999816
20
-127.8380949999999956
11
218.1261329999999816
21
-128.0761899999999969
0
LINE
8
BLACK
6
CONTINUOUS
10
218.1261329999999816
20
-128.0761899999999969
11
218.173751999999979
21
-128.1714279999999917
0
LINE
8
BLACK
6
CONTINUOUS
10
217.7451799999999764
20
-128.790475999999984
11
217.7927999999999997
21
-128.6952379999999891
0
LINE
8
BLACK
6
CONTINUOUS
10
217.7927999999999997
20
-128.6952379999999891
11
217.8880379999999946
21
-128.6476189999999917
0
LINE
8
BLACK
6
CONTINUOUS
10
217.8880379999999946
20
-128.6476189999999917
11
218.7451799999999764
21
-128.6476189999999917
0
LINE
8
BLACK
6
CONTINUOUS
10
192.4470900000000029
20
-132.6738100000000031
11
192.5089949999999988
21
-132.5499999999999829
0
LINE
8
BLACK
6
CONTINUOUS
10
192.5089949999999988
20
-132.5499999999999829
11
192.5089949999999988
21
-132.3642859999999928
0
LINE
8
BLACK
6
CONTINUOUS
10
192.5089949999999988
20
-132.3642859999999928
11
192.4470900000000029
21
-132.1785720000000026
0
LINE
8
BLACK
6
CONTINUOUS
10
192.4470900000000029
20
-132.1785720000000026
11
192.3232799999999827
21
-132.0547619999999824
0
LINE
8
BLACK
6
CONTINUOUS
10
192.3232799999999827
20
-132.0547619999999824
11
192.1994709999999884
21
-131.9928569999999866
0
LINE
8
BLACK
6
CONTINUOUS
10
192.1994709999999884
20
-131.9928569999999866
11
191.9518520000000024
21
-131.9309529999999882
0
LINE
8
BLACK
6
CONTINUOUS
10
191.9518520000000024
20
-131.9309529999999882
11
191.7661379999999838
21
-131.9309529999999882
0
LINE
8
BLACK
6
CONTINUOUS
10
191.7661379999999838
20
-131.9309529999999882
11
191.5185189999999977
21
-131.9928569999999866
0
LINE
8
BLACK
6
CONTINUOUS
10
191.5185189999999977
20
-131.9928569999999866
11
191.3947089999999776
21
-132.0547619999999824
0
LINE
8
BLACK
6
CONTINUOUS
10
191.3947089999999776
20
-132.0547619999999824
11
191.2708999999999833
21
-132.1785720000000026
0
LINE
8
BLACK
6
CONTINUOUS
10
191.2708999999999833
20
-132.1785720000000026
11
191.2089949999999874
21
-132.3642859999999928
0
LINE
8
BLACK
6
CONTINUOUS
10
191.2089949999999874
20
-132.3642859999999928
11
191.2089949999999874
21
-132.4880949999999871
0
LINE
8
BLACK
6
CONTINUOUS
10
191.2089949999999874
20
-132.4880949999999871
11
191.2708999999999833
21
-132.6738100000000031
0
LINE
8
BLACK
6
CONTINUOUS
10
191.2708999999999833
20
-132.6738100000000031
11
191.3328039999999817
21
-132.7357140000000015
0
LINE
8
BLACK
6
CONTINUOUS
10
191.3328039999999817
20
-132.7357140000000015
11
191.7661379999999838
21
-132.7357140000000015
0
LINE
8
BLACK
6
CONTINUOUS
10
191.7661379999999838
20
-132.7357140000000015
11
191.7661379999999838
21
-132.4880949999999871
0
LINE
8
BLACK
6
CONTINUOUS
10
192.5089949999999988
20
-134.0976189999999804
11
191.2089949999999874
21
-134.530951999999985
0
LINE
8
BLACK
6
CONTINUOUS
10
191.2089949999999874
20
-134.530951999999985
11
192.5089949999999988
21
-134.9642859999999871
0
LINE
8
BLACK
6
CONTINUOUS
10
191.2708999999999833
20
-136.3261909999999943
11
191.2089949999999874
21
-136.5119049999999845
0
LINE
8
BLACK
6
CONTINUOUS
10
191.2089949999999874
20
-136.5119049999999845
11
191.2089949999999874
21
-136.8214289999999949
0
LINE
8
BLACK
6
CONTINUOUS
10
191.2089949999999874
20
-136.8214289999999949
11
191.2708999999999833
21
-136.9452379999999891
0
LINE
8
BLACK
6
CONTINUOUS
10
191.2708999999999833
20
-136.9452379999999891
11
191.3328039999999817
21
-137.007142999999985
0
LINE
8
BLACK
6
CONTINUOUS
10
191.3328039999999817
20
-137.007142999999985
11
191.4566140000000019
21
-137.0690479999999809
0
LINE
8
BLACK
6
CONTINUOUS
10
191.4566140000000019
20
-137.0690479999999809
11
191.5804229999999961
21
-137.0690479999999809
0
LINE
8
BLACK
6
CONTINUOUS
10
191.5804229999999961
20
-137.0690479999999809
11
191.7042329999999879
21
-137.007142999999985
0
LINE
8
BLACK
6
CONTINUOUS
10
191.7042329999999879
20
-137.007142999999985
11
191.7661379999999838
21
-136.9452379999999891
0
LINE
8
BLACK
6
CONTINUOUS
10
191.7661379999999838
20
-136.9452379999999891
11
191.8280419999999822
21
-136.8214289999999949
0
LINE
8
BLACK
6
CONTINUOUS
10
191.8280419999999822
20
-136.8214289999999949
11
191.8899469999999781
21
-136.5738099999999804
0
LINE
8
BLACK
6
CONTINUOUS
10
191.8899469999999781
20
-136.5738099999999804
11
191.9518520000000024
21
-136.4499999999999886
0
LINE
8
BLACK
6
CONTINUOUS
10
191.9518520000000024
20
-136.4499999999999886
11
192.0137569999999982
21
-136.3880949999999928
0
LINE
8
BLACK
6
CONTINUOUS
10
192.0137569999999982
20
-136.3880949999999928
11
192.1375659999999925
21
-136.3261909999999943
0
LINE
8
BLACK
6
CONTINUOUS
10
192.1375659999999925
20
-136.3261909999999943
11
192.2613759999999843
21
-136.3261909999999943
0
LINE
8
BLACK
6
CONTINUOUS
10
192.2613759999999843
20
-136.3261909999999943
11
192.3851849999999786
21
-136.3880949999999928
0
LINE
8
BLACK
6
CONTINUOUS
10
192.3851849999999786
20
-136.3880949999999928
11
192.4470900000000029
21
-136.4499999999999886
0
LINE
8
BLACK
6
CONTINUOUS
10
192.4470900000000029
20
-136.4499999999999886
11
192.5089949999999988
21
-136.5738099999999804
0
LINE
8
BLACK
6
CONTINUOUS
10
192.5089949999999988
20
-136.5738099999999804
11
192.5089949999999988
21
-136.8833329999999933
0
LINE
8
BLACK
6
CONTINUOUS
10
192.5089949999999988
20
-136.8833329999999933
11
192.4470900000000029
21
-137.0690479999999809
0
LINE
8
BLACK
6
CONTINUOUS
10
205.5999999999999943
20
-124.0999999999999943
11
206.7999999999999829
21
-124.0999999999999943
0
LINE
8
BLACK
6
CONTINUOUS
10
205.5999999999999943
20
-126.2999999999999972
11
205.5999999999999943
21
-124.0999999999999943
0
LINE
8
BLACK
6
CONTINUOUS
10
205.5999999999999943
20
-126.2999999999999972
11
206.7999999999999829
21
-126.2999999999999972
0
LINE
8
BLACK
6
CONTINUOUS
10
206.7999999999999829
20
-124.0999999999999943
11
206.7999999999999829
21
-126.2999999999999972
0
LINE
8
BLACK
6
CONTINUOUS
10
216.0999999999999943
20
-127.8999999999999915
11
216.0999999999999943
21
-125.7999999999999972
0
LINE
8
BLACK
6
CONTINUOUS
10
216.0999999999999943
20
-127.8999999999999915
11
217.0999999999999943
21
-127.8999999999999915
0
LINE
8
BLACK
6
CONTINUOUS
10
216.3999999999999773
20
-126.4499999999999886
11
216.7999999999999829
21
-126.4499999999999886
0
LINE
8
BLACK
6
CONTINUOUS
10
216.3999999999999773
20
-126.7999999999999972
11
216.7999999999999829
21
-126.7999999999999972
0
LINE
8
BLACK
6
CONTINUOUS
10
216.5999999999999943
20
-126.75
11
216.3999999999999773
21
-126.4499999999999886
0
LINE
8
BLACK
6
CONTINUOUS
10
216.7999999999999829
20
-126.4499999999999886
11
216.5999999999999943
21
-126.75
0
LINE
8
BLACK
6
CONTINUOUS
10
217.0999999999999943
20
-127.8999999999999915
11
217.0999999999999943
21
-125.7999999999999972
0
LINE
8
BLACK
6
CONTINUOUS
10
201.1499999999999773
20
-142.75
11
211.6499999999999773
21
-142.75
0
LINE
8
BLACK
6
CONTINUOUS
10
211.6499999999999773
20
-142.75
11
211.6499999999999773
21
-127.25
0
LINE
8
BLACK
6
CONTINUOUS
10
211.6499999999999773
20
-127.25
11
201.1499999999999773
21
-127.25
0
LINE
8
BLACK
6
CONTINUOUS
10
201.1499999999999773
20
-127.25
11
201.1499999999999773
21
-142.75
0
LINE
8
BLACK
6
CONTINUOUS
10
213.3999999999999773
20
-127.
11
215.5999999999999943
21
-127.
0
LINE
8
BLACK
6
CONTINUOUS
10
213.3999999999999773
20
-128.1999999999999886
11
213.3999999999999773
21
-127.
0
LINE
8
BLACK
6
CONTINUOUS
10
215.5999999999999943
20
-128.1999999999999886
11
213.3999999999999773
21
-128.1999999999999886
0
LINE
8
BLACK
6
CONTINUOUS
10
215.5999999999999943
20
-128.1999999999999886
11
215.5999999999999943
21
-127.
0
LINE
8
BLACK
6
CONTINUOUS
10
184.8499999999999943
20
-125.2999999999999972
11
184.8499999999999943
21
-127.2999999999999972
0
LINE
8
BLACK
6
CONTINUOUS
10
184.8499999999999943
20
-125.2999999999999972
11
188.75
21
-125.2999999999999972
0
LINE
8
BLACK
6
CONTINUOUS
10
184.8499999999999943
20
-127.2999999999999972
11
188.75
21
-127.2999999999999972
0
LINE
8
BLACK
6
CONTINUOUS
10
186.3499999999999943
20
-126.2999999999999972
11
186.75
21
-126.2999999999999972
0
LINE
8
BLACK
6
CONTINUOUS
10
186.75
20
-126.2999999999999972
11
186.75
21
-125.75
0
LINE
8
BLACK
6
CONTINUOUS
10
186.75
20
-126.2999999999999972
11
186.75
21
-126.8499999999999943
0
LINE
8
BLACK
6
CONTINUOUS
10
186.75
20
-126.2999999999999972
11
187.3499999999999943
21
-125.8999999999999915
0
LINE
8
BLACK
6
CONTINUOUS
10
187.3499999999999943
20
-125.8999999999999915
11
187.3499999999999943
21
-126.6999999999999886
0
LINE
8
BLACK
6
CONTINUOUS
10
187.3499999999999943
20
-126.2999999999999972
11
187.8499999999999943
21
-126.2999999999999972
0
LINE
8
BLACK
6
CONTINUOUS
10
187.3499999999999943
20
-126.6999999999999886
11
186.75
21
-126.2999999999999972
0
LINE
8
BLACK
6
CONTINUOUS
10
209.
20
-123.7999999999999972
11
213.7999999999999829
21
-123.7999999999999972
0
LINE
8
BLACK
6
CONTINUOUS
10
209.
20
-124.0999999999999943
11
209.
21
-123.7999999999999972
0
LINE
8
BLACK
6
CONTINUOUS
10
209.
20
-126.5999999999999943
11
209.
21
-126.2999999999999972
0
LINE
8
BLACK
6
CONTINUOUS
10
209.1999999999999886
20
-124.
11
213.5999999999999943
21
-124.
0
LINE
8
BLACK
6
CONTINUOUS
10
209.1999999999999886
20
-126.3999999999999915
11
209.1999999999999886
21
-124.
0
LINE
8
BLACK
6
CONTINUOUS
10
213.0999999999999943
20
-126.3999999999999915
11
209.1999999999999886
21
-126.3999999999999915
0
LINE
8
BLACK
6
CONTINUOUS
10
213.0999999999999943
20
-126.3999999999999915
11
213.5999999999999943
21
-125.8999999999999915
0
LINE
8
BLACK
6
CONTINUOUS
10
213.5999999999999943
20
-124.
11
213.5999999999999943
21
-125.8999999999999915
0
LINE
8
BLACK
6
CONTINUOUS
10
213.7999999999999829
20
-123.7999999999999972
11
213.7999999999999829
21
-124.0999999999999943
0
LINE
8
BLACK
6
CONTINUOUS
10
213.7999999999999829
20
-126.2999999999999972
11
213.7999999999999829
21
-126.5999999999999943
0
LINE
8
BLACK
6
CONTINUOUS
10
213.7999999999999829
20
-126.2999999999999972
11
215.
21
-126.2999999999999972
0
LINE
8
BLACK
6
CONTINUOUS
10
213.7999999999999829
20
-126.5999999999999943
11
209.
21
-126.5999999999999943
0
LINE
8
BLACK
6
CONTINUOUS
10
204.1999999999999886
20
-124.0999999999999943
11
205.3999999999999773
21
-124.0999999999999943
0
LINE
8
BLACK
6
CONTINUOUS
10
204.1999999999999886
20
-126.2999999999999972
11
204.1999999999999886
21
-124.0999999999999943
0
LINE
8
BLACK
6
CONTINUOUS
10
204.1999999999999886
20
-126.2999999999999972
11
205.3999999999999773
21
-126.2999999999999972
0
LINE
8
BLACK
6
CONTINUOUS
10
205.3999999999999773
20
-124.0999999999999943
11
205.3999999999999773
21
-126.2999999999999972
0
LINE
8
BLACK
6
CONTINUOUS
10
181.6999999999999886
20
-137.6999999999999886
11
181.6999999999999886
21
-131.2999999999999829
0
LINE
8
BLACK
6
CONTINUOUS
10
185.7999999999999829
20
-129.5
11
189.3999999999999773
21
-129.5
0
LINE
8
BLACK
6
CONTINUOUS
10
185.7999999999999829
20
-139.5
11
189.3999999999999773
21
-139.5
0
LINE
8
BLACK
6
CONTINUOUS
10
189.3999999999999773
20
-129.5
11
189.3999999999999773
21
-131.6999999999999886
0
LINE
8
BLACK
6
CONTINUOUS
10
189.3999999999999773
20
-139.5
11
189.3999999999999773
21
-137.2999999999999829
0
LINE
8
BLACK
6
CONTINUOUS
10
201.539999999999992
20
-123.7199999999999989
11
201.539999999999992
21
-124.6499999999999915
0
LINE
8
BLACK
6
CONTINUOUS
10
201.539999999999992
20
-123.7199999999999989
11
203.
21
-123.7199999999999989
0
LINE
8
BLACK
6
CONTINUOUS
10
201.539999999999992
20
-126.8799999999999955
11
201.539999999999992
21
-125.9499999999999886
0
LINE
8
BLACK
6
CONTINUOUS
10
201.539999999999992
20
-126.8799999999999955
11
203.6999999999999886
21
-126.8799999999999955
0
LINE
8
BLACK
6
CONTINUOUS
10
213.
20
-129.25
11
219.7999999999999829
21
-129.25
0
LINE
8
BLACK
6
CONTINUOUS
10
213.
20
-139.75
11
213.
21
-129.25
0
LINE
8
BLACK
6
CONTINUOUS
10
215.6499999999999773
20
-130.4499999999999886
11
216.9499999999999886
21
-131.75
0
LINE
8
BLACK
6
CONTINUOUS
10
215.6499999999999773
20
-133.9499999999999886
11
216.9499999999999886
21
-135.25
0
LINE
8
BLACK
6
CONTINUOUS
10
215.6499999999999773
20
-137.4499999999999886
11
216.9499999999999886
21
-138.75
0
LINE
8
BLACK
6
CONTINUOUS
10
215.8499999999999943
20
-133.75
11
217.1499999999999773
21
-135.0499999999999829
0
LINE
8
BLACK
6
CONTINUOUS
10
215.8499999999999943
20
-137.25
11
217.1499999999999773
21
-138.5499999999999829
0
LINE
8
BLACK
6
CONTINUOUS
10
217.1499999999999773
20
-131.5499999999999829
11
215.8499999999999943
21
-130.25
0
LINE
8
BLACK
6
CONTINUOUS
10
219.3999999999999773
20
-129.25
11
219.3999999999999773
21
-139.75
0
LINE
8
BLACK
6
CONTINUOUS
10
219.7999999999999829
20
-129.25
11
219.7999999999999829
21
-139.75
0
LINE
8
BLACK
6
CONTINUOUS
10
219.7999999999999829
20
-139.75
11
213.
21
-139.75
0
LINE
8
BLACK
6
CONTINUOUS
10
219.8999999999999773
20
-126.5
11
219.8999999999999773
21
-142.5
0
LINE
8
BLACK
6
CONTINUOUS
10
184.6999999999999886
20
-123.2999999999999972
11
216.6999999999999886
21
-123.2999999999999972
0
ARC
8
BLACK
10
216.6999999999999886
20
-142.5
40
3.1999999999999997
50
-90.00000000
51
-0.00000000
0
LINE
8
BLACK
6
CONTINUOUS
10
184.6999999999999886
20
-145.6999999999999886
11
216.6999999999999886
21
-145.6999999999999886
0
ARC
8
BLACK
10
184.6999999999999886
20
-126.5
40
3.1999999999999997
50
90.00000000
51
180.00000000
0
ARC
8
BLACK
10
216.6999999999999886
20
-126.5
40
3.1999999999999997
50
0.00000000
51
90.00000000
0
ARC
8
BLACK
10
184.6999999999999886
20
-142.5
40
3.1999999999999997
50
-180.00000000
51
-90.00000000
0
LINE
8
BLACK
6
CONTINUOUS
10
181.5
20
-126.5
11
181.5
21
-142.5
  0
ENDSEC
  0
EOF
