  0
SECTION
  2
HEADER
  9
$ANGBASE
  50
0.0
  9
$ANGDIR
  70
1
  9
$MEASUREMENT
  70
1
  0
ENDSEC
  0
SECTION
  2
TABLES
  0
TABLE
  2
LTYPE
  70
4
  0
LTYPE
  5
40F
  2
CONTINUOUS
  70
0
  3
Solid line
  72
65
  73
0
  40
0.0
  0
LTYPE
  5
410
  2
DASHDOT
 70
0
  3
Dash Dot ____ _ ____ _
 72
65
 73
4
 40
2.0
 49
1.25
 49
-0.25
 49
0.25
 49
-0.25
  0
LTYPE
  5
411
  2
DASHED
 70
0
  3
Dashed __ __ __ __ __
 72
65
 73
2
 40
0.75
 49
0.5
 49
-0.25
  0
LTYPE
  5
43B
  2
DOTTED
 70
0
  3
Dotted .  .  .  .
 72
65
 73
2
 40
0.2
 49
0.0
 49
-0.2
  0
ENDTAB
  0
TABLE
  2
STYLE
  70
4
  0
STYLE
  2
KICAD
  70
0
  40
0
  41
1
  42
1
  50
0
  71
0
  3
isocp.shx
  0
STYLE
  2
KICADB
  70
0
  40
0
  41
1
  42
1
  50
0
  71
0
  3
isocp.shx
  0
STYLE
  2
KICADI
  70
0
  40
0
  41
1
  42
1
  50
15
  71
0
  3
isocp.shx
  0
STYLE
  2
KICADBI
  70
0
  40
0
  41
1
  42
1
  50
15
  71
0
  3
isocp.shx
  0
ENDTAB
  0
TABLE
  2
LAYER
  70
1
  0
LAYER
  2
BLACK
  70
0
  62
7
  6
CONTINUOUS
  0
ENDTAB
  0
ENDSEC
  0
SECTION
  2
ENTITIES
0
CIRCLE
8
BLACK
10
100.6499999999999915
20
-135.1999999999999886
40
2.3500000000000001
0
CIRCLE
8
BLACK
10
100.6499999999999915
20
-119.1999999999999886
40
2.3500000000000001
0
LINE
8
BLACK
6
CONTINUOUS
10
117.9694229999999919
20
-136.3958549999999832
11
117.9694229999999919
21
-135.5958550000000002
0
LINE
8
BLACK
6
CONTINUOUS
10
117.9694229999999919
20
-135.5958550000000002
11
118.2360889999999927
21
-136.1672829999999976
0
LINE
8
BLACK
6
CONTINUOUS
10
118.2360889999999927
20
-136.1672829999999976
11
118.5027559999999909
21
-135.5958550000000002
0
LINE
8
BLACK
6
CONTINUOUS
10
118.5027559999999909
20
-135.5958550000000002
11
118.5027559999999909
21
-136.3958549999999832
0
LINE
8
BLACK
6
CONTINUOUS
10
119.302755999999988
20
-136.3958549999999832
11
118.8456130000000002
21
-136.3958549999999832
0
LINE
8
BLACK
6
CONTINUOUS
10
119.0741849999999999
20
-136.3958549999999832
11
119.0741849999999999
21
-135.5958550000000002
0
LINE
8
BLACK
6
CONTINUOUS
10
119.0741849999999999
20
-135.5958550000000002
11
118.9979939999999914
21
-135.7101399999999956
0
LINE
8
BLACK
6
CONTINUOUS
10
118.9979939999999914
20
-135.7101399999999956
11
118.9218039999999945
21
-135.7863309999999899
0
LINE
8
BLACK
6
CONTINUOUS
10
118.9218039999999945
20
-135.7863309999999899
11
118.8456130000000002
21
-135.8244259999999883
0
LINE
8
BLACK
6
CONTINUOUS
10
94.8785709999999938
20
-130.5656999999999925
11
95.0071429999999992
21
-130.6085569999999905
0
LINE
8
BLACK
6
CONTINUOUS
10
95.0071429999999992
20
-130.6085569999999905
11
95.2214279999999889
21
-130.6085569999999905
0
LINE
8
BLACK
6
CONTINUOUS
10
95.2214279999999889
20
-130.6085569999999905
11
95.3071429999999964
21
-130.5656999999999925
0
LINE
8
BLACK
6
CONTINUOUS
10
95.3071429999999964
20
-130.5656999999999925
11
95.3499999999999943
21
-130.5228419999999971
0
LINE
8
BLACK
6
CONTINUOUS
10
95.3499999999999943
20
-130.5228419999999971
11
95.3928569999999922
21
-130.4371280000000013
0
LINE
8
BLACK
6
CONTINUOUS
10
95.3928569999999922
20
-130.4371280000000013
11
95.3928569999999922
21
-130.3514140000000054
0
LINE
8
BLACK
6
CONTINUOUS
10
95.3928569999999922
20
-130.3514140000000054
11
95.3499999999999943
21
-130.2656999999999812
0
LINE
8
BLACK
6
CONTINUOUS
10
95.3499999999999943
20
-130.2656999999999812
11
95.3071429999999964
21
-130.2228419999999858
0
LINE
8
BLACK
6
CONTINUOUS
10
95.3071429999999964
20
-130.2228419999999858
11
95.2214279999999889
21
-130.1799849999999878
0
LINE
8
BLACK
6
CONTINUOUS
10
95.2214279999999889
20
-130.1799849999999878
11
95.0499999999999972
21
-130.1371279999999899
0
LINE
8
BLACK
6
CONTINUOUS
10
95.0499999999999972
20
-130.1371279999999899
11
94.9642849999999896
21
-130.094270999999992
0
LINE
8
BLACK
6
CONTINUOUS
10
94.9642849999999896
20
-130.094270999999992
11
94.9214279999999917
21
-130.0514139999999941
0
LINE
8
BLACK
6
CONTINUOUS
10
94.9214279999999917
20
-130.0514139999999941
11
94.8785709999999938
21
-129.9656999999999982
0
LINE
8
BLACK
6
CONTINUOUS
10
94.8785709999999938
20
-129.9656999999999982
11
94.8785709999999938
21
-129.8799850000000049
0
LINE
8
BLACK
6
CONTINUOUS
10
94.8785709999999938
20
-129.8799850000000049
11
94.9214279999999917
21
-129.7942709999999806
0
LINE
8
BLACK
6
CONTINUOUS
10
94.9214279999999917
20
-129.7942709999999806
11
94.9642849999999896
21
-129.7514139999999827
0
LINE
8
BLACK
6
CONTINUOUS
10
94.9642849999999896
20
-129.7514139999999827
11
95.0499999999999972
21
-129.7085569999999848
0
LINE
8
BLACK
6
CONTINUOUS
10
95.0499999999999972
20
-129.7085569999999848
11
95.264285000000001
21
-129.7085569999999848
0
LINE
8
BLACK
6
CONTINUOUS
10
95.264285000000001
20
-129.7085569999999848
11
95.3928569999999922
21
-129.7514139999999827
0
LINE
8
BLACK
6
CONTINUOUS
10
96.2928569999999979
20
-130.5228419999999971
11
96.25
21
-130.5656999999999925
0
LINE
8
BLACK
6
CONTINUOUS
10
96.25
20
-130.5656999999999925
11
96.1214279999999945
21
-130.6085569999999905
0
LINE
8
BLACK
6
CONTINUOUS
10
96.1214279999999945
20
-130.6085569999999905
11
96.0357139999999987
21
-130.6085569999999905
0
LINE
8
BLACK
6
CONTINUOUS
10
96.0357139999999987
20
-130.6085569999999905
11
95.9071429999999907
21
-130.5656999999999925
0
LINE
8
BLACK
6
CONTINUOUS
10
95.9071429999999907
20
-130.5656999999999925
11
95.8214279999999974
21
-130.4799849999999992
0
LINE
8
BLACK
6
CONTINUOUS
10
95.8214279999999974
20
-130.4799849999999992
11
95.7785709999999995
21
-130.3942710000000034
0
LINE
8
BLACK
6
CONTINUOUS
10
95.7785709999999995
20
-130.3942710000000034
11
95.7357140000000015
21
-130.2228419999999858
0
LINE
8
BLACK
6
CONTINUOUS
10
95.7357140000000015
20
-130.2228419999999858
11
95.7357140000000015
21
-130.094270999999992
0
LINE
8
BLACK
6
CONTINUOUS
10
95.7357140000000015
20
-130.094270999999992
11
95.7785709999999995
21
-129.9228420000000028
0
LINE
8
BLACK
6
CONTINUOUS
10
95.7785709999999995
20
-129.9228420000000028
11
95.8214279999999974
21
-129.837128000000007
0
LINE
8
BLACK
6
CONTINUOUS
10
95.8214279999999974
20
-129.837128000000007
11
95.9071429999999907
21
-129.7514139999999827
0
LINE
8
BLACK
6
CONTINUOUS
10
95.9071429999999907
20
-129.7514139999999827
11
96.0357139999999987
21
-129.7085569999999848
0
LINE
8
BLACK
6
CONTINUOUS
10
96.0357139999999987
20
-129.7085569999999848
11
96.1214279999999945
21
-129.7085569999999848
0
LINE
8
BLACK
6
CONTINUOUS
10
96.1214279999999945
20
-129.7085569999999848
11
96.25
21
-129.7514139999999827
0
LINE
8
BLACK
6
CONTINUOUS
10
96.25
20
-129.7514139999999827
11
96.2928569999999979
21
-129.7942709999999806
0
LINE
8
BLACK
6
CONTINUOUS
10
97.1071429999999935
20
-130.6085569999999905
11
96.6785709999999909
21
-130.6085569999999905
0
LINE
8
BLACK
6
CONTINUOUS
10
96.6785709999999909
20
-130.6085569999999905
11
96.6785709999999909
21
-129.7085569999999848
0
LINE
8
BLACK
6
CONTINUOUS
10
118.2194229999999919
20
-118.1458549999999974
11
118.2194229999999919
21
-117.3458550000000002
0
LINE
8
BLACK
6
CONTINUOUS
10
118.2194229999999919
20
-117.3458550000000002
11
118.4860889999999927
21
-117.9172829999999976
0
LINE
8
BLACK
6
CONTINUOUS
10
118.4860889999999927
20
-117.9172829999999976
11
118.7527559999999909
21
-117.3458550000000002
0
LINE
8
BLACK
6
CONTINUOUS
10
118.7527559999999909
20
-117.3458550000000002
11
118.7527559999999909
21
-118.1458549999999974
0
LINE
8
BLACK
6
CONTINUOUS
10
119.2860900000000015
20
-117.3458550000000002
11
119.3622799999999984
21
-117.3458550000000002
0
LINE
8
BLACK
6
CONTINUOUS
10
119.3622799999999984
20
-117.3458550000000002
11
119.4384709999999927
21
-117.3839499999999987
0
LINE
8
BLACK
6
CONTINUOUS
10
119.4384709999999927
20
-117.3839499999999987
11
119.4765659999999912
21
-117.4220449999999971
0
LINE
8
BLACK
6
CONTINUOUS
10
119.4765659999999912
20
-117.4220449999999971
11
119.5146609999999896
21
-117.4982359999999915
0
LINE
8
BLACK
6
CONTINUOUS
10
119.5146609999999896
20
-117.4982359999999915
11
119.552755999999988
21
-117.6506169999999969
0
LINE
8
BLACK
6
CONTINUOUS
10
119.552755999999988
20
-117.6506169999999969
11
119.552755999999988
21
-117.8410930000000008
0
LINE
8
BLACK
6
CONTINUOUS
10
119.552755999999988
20
-117.8410930000000008
11
119.5146609999999896
21
-117.993473999999992
0
LINE
8
BLACK
6
CONTINUOUS
10
119.5146609999999896
20
-117.993473999999992
11
119.4765659999999912
21
-118.0696639999999888
0
LINE
8
BLACK
6
CONTINUOUS
10
119.4765659999999912
20
-118.0696639999999888
11
119.4384709999999927
21
-118.107759999999999
0
LINE
8
BLACK
6
CONTINUOUS
10
119.4384709999999927
20
-118.107759999999999
11
119.3622799999999984
21
-118.1458549999999974
0
LINE
8
BLACK
6
CONTINUOUS
10
119.3622799999999984
20
-118.1458549999999974
11
119.2860900000000015
21
-118.1458549999999974
0
LINE
8
BLACK
6
CONTINUOUS
10
119.2860900000000015
20
-118.1458549999999974
11
119.209898999999993
21
-118.107759999999999
0
LINE
8
BLACK
6
CONTINUOUS
10
119.209898999999993
20
-118.107759999999999
11
119.1718039999999945
21
-118.0696639999999888
0
LINE
8
BLACK
6
CONTINUOUS
10
119.1718039999999945
20
-118.0696639999999888
11
119.1337089999999961
21
-117.993473999999992
0
LINE
8
BLACK
6
CONTINUOUS
10
119.1337089999999961
20
-117.993473999999992
11
119.0956130000000002
21
-117.8410930000000008
0
LINE
8
BLACK
6
CONTINUOUS
10
119.0956130000000002
20
-117.8410930000000008
11
119.0956130000000002
21
-117.6506169999999969
0
LINE
8
BLACK
6
CONTINUOUS
10
119.0956130000000002
20
-117.6506169999999969
11
119.1337089999999961
21
-117.4982359999999915
0
LINE
8
BLACK
6
CONTINUOUS
10
119.1337089999999961
20
-117.4982359999999915
11
119.1718039999999945
21
-117.4220449999999971
0
LINE
8
BLACK
6
CONTINUOUS
10
119.1718039999999945
20
-117.4220449999999971
11
119.209898999999993
21
-117.3839499999999987
0
LINE
8
BLACK
6
CONTINUOUS
10
119.209898999999993
20
-117.3839499999999987
11
119.2860900000000015
21
-117.3458550000000002
0
LINE
8
BLACK
6
CONTINUOUS
10
114.8458550000000002
20
-134.456766999999985
11
114.8458550000000002
21
-133.9615289999999845
0
LINE
8
BLACK
6
CONTINUOUS
10
114.8458550000000002
20
-133.9615289999999845
11
115.1506169999999969
21
-134.2281949999999995
0
LINE
8
BLACK
6
CONTINUOUS
10
115.1506169999999969
20
-134.2281949999999995
11
115.1506169999999969
21
-134.1139100000000042
0
LINE
8
BLACK
6
CONTINUOUS
10
115.1506169999999969
20
-134.1139100000000042
11
115.1887119999999953
21
-134.0377189999999814
0
LINE
8
BLACK
6
CONTINUOUS
10
115.1887119999999953
20
-134.0377189999999814
11
115.2268069999999938
21
-133.999623999999983
0
LINE
8
BLACK
6
CONTINUOUS
10
115.2268069999999938
20
-133.999623999999983
11
115.3029979999999881
21
-133.9615289999999845
0
LINE
8
BLACK
6
CONTINUOUS
10
115.3029979999999881
20
-133.9615289999999845
11
115.493473999999992
21
-133.9615289999999845
0
LINE
8
BLACK
6
CONTINUOUS
10
115.493473999999992
20
-133.9615289999999845
11
115.5696639999999888
21
-133.999623999999983
0
LINE
8
BLACK
6
CONTINUOUS
10
115.5696639999999888
20
-133.999623999999983
11
115.607759999999999
21
-134.0377189999999814
0
LINE
8
BLACK
6
CONTINUOUS
10
115.607759999999999
20
-134.0377189999999814
11
115.6458549999999974
21
-134.1139100000000042
0
LINE
8
BLACK
6
CONTINUOUS
10
115.6458549999999974
20
-134.1139100000000042
11
115.6458549999999974
21
-134.3424809999999923
0
LINE
8
BLACK
6
CONTINUOUS
10
115.6458549999999974
20
-134.3424809999999923
11
115.607759999999999
21
-134.4186719999999866
0
LINE
8
BLACK
6
CONTINUOUS
10
115.607759999999999
20
-134.4186719999999866
11
115.5696639999999888
21
-134.456766999999985
0
LINE
8
BLACK
6
CONTINUOUS
10
115.6458549999999974
20
-125.0615289999999931
11
115.6458549999999974
21
-125.5186719999999951
0
LINE
8
BLACK
6
CONTINUOUS
10
115.6458549999999974
20
-125.2900999999999954
11
114.8458550000000002
21
-125.2900999999999954
0
LINE
8
BLACK
6
CONTINUOUS
10
114.8458550000000002
20
-125.2900999999999954
11
114.9601399999999956
21
-125.3662909999999897
0
LINE
8
BLACK
6
CONTINUOUS
10
114.9601399999999956
20
-125.3662909999999897
11
115.0363309999999899
21
-125.4424810000000008
0
LINE
8
BLACK
6
CONTINUOUS
10
115.0363309999999899
20
-125.4424810000000008
11
115.0744259999999883
21
-125.5186719999999951
0
LINE
8
BLACK
6
CONTINUOUS
10
114.9220449999999971
20
-128.6686719999999866
11
114.8839499999999987
21
-128.6305759999999907
0
LINE
8
BLACK
6
CONTINUOUS
10
114.8839499999999987
20
-128.6305759999999907
11
114.8458550000000002
21
-128.5543859999999938
0
LINE
8
BLACK
6
CONTINUOUS
10
114.8458550000000002
20
-128.5543859999999938
11
114.8458550000000002
21
-128.3639100000000042
0
LINE
8
BLACK
6
CONTINUOUS
10
114.8458550000000002
20
-128.3639100000000042
11
114.8839499999999987
21
-128.2877189999999814
0
LINE
8
BLACK
6
CONTINUOUS
10
114.8839499999999987
20
-128.2877189999999814
11
114.9220449999999971
21
-128.249623999999983
0
LINE
8
BLACK
6
CONTINUOUS
10
114.9220449999999971
20
-128.249623999999983
11
114.9982359999999915
21
-128.2115289999999845
0
LINE
8
BLACK
6
CONTINUOUS
10
114.9982359999999915
20
-128.2115289999999845
11
115.0744259999999883
21
-128.2115289999999845
0
LINE
8
BLACK
6
CONTINUOUS
10
115.0744259999999883
20
-128.2115289999999845
11
115.1887119999999953
21
-128.249623999999983
0
LINE
8
BLACK
6
CONTINUOUS
10
115.1887119999999953
20
-128.249623999999983
11
115.6458549999999974
21
-128.706766999999985
0
LINE
8
BLACK
6
CONTINUOUS
10
115.6458549999999974
20
-128.706766999999985
11
115.6458549999999974
21
-128.2115289999999845
0
LINE
8
BLACK
6
CONTINUOUS
10
96.2904759999999982
20
-123.5529089999999997
11
96.1666659999999922
21
-123.4910039999999896
0
LINE
8
BLACK
6
CONTINUOUS
10
96.1666659999999922
20
-123.4910039999999896
11
95.980952000000002
21
-123.4910039999999896
0
LINE
8
BLACK
6
CONTINUOUS
10
95.980952000000002
20
-123.4910039999999896
11
95.7952379999999977
21
-123.5529089999999997
0
LINE
8
BLACK
6
CONTINUOUS
10
95.7952379999999977
20
-123.5529089999999997
11
95.6714279999999917
21
-123.6767189999999914
0
LINE
8
BLACK
6
CONTINUOUS
10
95.6714279999999917
20
-123.6767189999999914
11
95.6095229999999958
21
-123.8005279999999999
0
LINE
8
BLACK
6
CONTINUOUS
10
95.6095229999999958
20
-123.8005279999999999
11
95.5476189999999974
21
-124.0481470000000002
0
LINE
8
BLACK
6
CONTINUOUS
10
95.5476189999999974
20
-124.0481470000000002
11
95.5476189999999974
21
-124.2338609999999903
0
LINE
8
BLACK
6
CONTINUOUS
10
95.5476189999999974
20
-124.2338609999999903
11
95.6095229999999958
21
-124.4814799999999906
0
LINE
8
BLACK
6
CONTINUOUS
10
95.6095229999999958
20
-124.4814799999999906
11
95.6714279999999917
21
-124.6052899999999966
0
LINE
8
BLACK
6
CONTINUOUS
10
95.6714279999999917
20
-124.6052899999999966
11
95.7952379999999977
21
-124.7290999999999883
0
LINE
8
BLACK
6
CONTINUOUS
10
95.7952379999999977
20
-124.7290999999999883
11
95.980952000000002
21
-124.7910040000000009
0
LINE
8
BLACK
6
CONTINUOUS
10
95.980952000000002
20
-124.7910040000000009
11
96.1047609999999963
21
-124.7910040000000009
0
LINE
8
BLACK
6
CONTINUOUS
10
96.1047609999999963
20
-124.7910040000000009
11
96.2904759999999982
21
-124.7290999999999883
0
LINE
8
BLACK
6
CONTINUOUS
10
96.2904759999999982
20
-124.7290999999999883
11
96.3523799999999966
21
-124.6671949999999924
0
LINE
8
BLACK
6
CONTINUOUS
10
96.3523799999999966
20
-124.6671949999999924
11
96.3523799999999966
21
-124.2338609999999903
0
LINE
8
BLACK
6
CONTINUOUS
10
96.3523799999999966
20
-124.2338609999999903
11
96.1047609999999963
21
-124.2338609999999903
0
LINE
8
BLACK
6
CONTINUOUS
10
114.8458550000000002
20
-119.628194999999991
11
114.8458550000000002
21
-119.5520049999999941
0
LINE
8
BLACK
6
CONTINUOUS
10
114.8458550000000002
20
-119.5520049999999941
11
114.8839499999999987
21
-119.4758139999999997
0
LINE
8
BLACK
6
CONTINUOUS
10
114.8839499999999987
20
-119.4758139999999997
11
114.9220449999999971
21
-119.4377190000000013
0
LINE
8
BLACK
6
CONTINUOUS
10
114.9220449999999971
20
-119.4377190000000013
11
114.9982359999999915
21
-119.3996239999999887
0
LINE
8
BLACK
6
CONTINUOUS
10
114.9982359999999915
20
-119.3996239999999887
11
115.1506169999999969
21
-119.3615289999999902
0
LINE
8
BLACK
6
CONTINUOUS
10
115.1506169999999969
20
-119.3615289999999902
11
115.3410930000000008
21
-119.3615289999999902
0
LINE
8
BLACK
6
CONTINUOUS
10
115.3410930000000008
20
-119.3615289999999902
11
115.493473999999992
21
-119.3996239999999887
0
LINE
8
BLACK
6
CONTINUOUS
10
115.493473999999992
20
-119.3996239999999887
11
115.5696639999999888
21
-119.4377190000000013
0
LINE
8
BLACK
6
CONTINUOUS
10
115.5696639999999888
20
-119.4377190000000013
11
115.607759999999999
21
-119.4758139999999997
0
LINE
8
BLACK
6
CONTINUOUS
10
115.607759999999999
20
-119.4758139999999997
11
115.6458549999999974
21
-119.5520049999999941
0
LINE
8
BLACK
6
CONTINUOUS
10
115.6458549999999974
20
-119.5520049999999941
11
115.6458549999999974
21
-119.628194999999991
0
LINE
8
BLACK
6
CONTINUOUS
10
115.6458549999999974
20
-119.628194999999991
11
115.607759999999999
21
-119.7043859999999995
0
LINE
8
BLACK
6
CONTINUOUS
10
115.607759999999999
20
-119.7043859999999995
11
115.5696639999999888
21
-119.7424809999999979
0
LINE
8
BLACK
6
CONTINUOUS
10
115.5696639999999888
20
-119.7424809999999979
11
115.493473999999992
21
-119.7805759999999964
0
LINE
8
BLACK
6
CONTINUOUS
10
115.493473999999992
20
-119.7805759999999964
11
115.3410930000000008
21
-119.8186719999999923
0
LINE
8
BLACK
6
CONTINUOUS
10
115.3410930000000008
20
-119.8186719999999923
11
115.1506169999999969
21
-119.8186719999999923
0
LINE
8
BLACK
6
CONTINUOUS
10
115.1506169999999969
20
-119.8186719999999923
11
114.9982359999999915
21
-119.7805759999999964
0
LINE
8
BLACK
6
CONTINUOUS
10
114.9982359999999915
20
-119.7805759999999964
11
114.9220449999999971
21
-119.7424809999999979
0
LINE
8
BLACK
6
CONTINUOUS
10
114.9220449999999971
20
-119.7424809999999979
11
114.8839499999999987
21
-119.7043859999999995
0
LINE
8
BLACK
6
CONTINUOUS
10
114.8839499999999987
20
-119.7043859999999995
11
114.8458550000000002
21
-119.628194999999991
0
LINE
8
BLACK
6
CONTINUOUS
10
90.9733019999999897
20
-117.9641019999999969
11
90.9733019999999897
21
-116.9641019999999969
0
LINE
8
BLACK
6
CONTINUOUS
10
90.9733019999999897
20
-116.9641019999999969
11
91.3542539999999974
21
-116.9641019999999969
0
LINE
8
BLACK
6
CONTINUOUS
10
91.3542539999999974
20
-116.9641019999999969
11
91.4494919999999922
21
-117.0117209999999943
0
LINE
8
BLACK
6
CONTINUOUS
10
91.4494919999999922
20
-117.0117209999999943
11
91.4971109999999896
21
-117.0593399999999917
0
LINE
8
BLACK
6
CONTINUOUS
10
91.4971109999999896
20
-117.0593399999999917
11
91.5447300000000013
21
-117.1545780000000008
0
LINE
8
BLACK
6
CONTINUOUS
10
91.5447300000000013
20
-117.1545780000000008
11
91.5447300000000013
21
-117.297434999999993
0
LINE
8
BLACK
6
CONTINUOUS
10
91.5447300000000013
20
-117.297434999999993
11
91.4971109999999896
21
-117.3926729999999878
0
LINE
8
BLACK
6
CONTINUOUS
10
91.4971109999999896
20
-117.3926729999999878
11
91.4494919999999922
21
-117.4402919999999995
0
LINE
8
BLACK
6
CONTINUOUS
10
91.4494919999999922
20
-117.4402919999999995
11
91.3542539999999974
21
-117.4879109999999969
0
LINE
8
BLACK
6
CONTINUOUS
10
91.3542539999999974
20
-117.4879109999999969
11
90.9733019999999897
21
-117.4879109999999969
0
LINE
8
BLACK
6
CONTINUOUS
10
92.1161589999999961
20
-117.9641019999999969
11
92.0209210000000013
21
-117.9164829999999995
0
LINE
8
BLACK
6
CONTINUOUS
10
92.0209210000000013
20
-117.9164829999999995
11
91.9733019999999897
21
-117.8688629999999904
0
LINE
8
BLACK
6
CONTINUOUS
10
91.9733019999999897
20
-117.8688629999999904
11
91.9256829999999923
21
-117.7736249999999956
0
LINE
8
BLACK
6
CONTINUOUS
10
91.9256829999999923
20
-117.7736249999999956
11
91.9256829999999923
21
-117.4879109999999969
0
LINE
8
BLACK
6
CONTINUOUS
10
91.9256829999999923
20
-117.4879109999999969
11
91.9733019999999897
21
-117.3926729999999878
0
LINE
8
BLACK
6
CONTINUOUS
10
91.9733019999999897
20
-117.3926729999999878
11
92.0209210000000013
21
-117.3450539999999904
0
LINE
8
BLACK
6
CONTINUOUS
10
92.0209210000000013
20
-117.3450539999999904
11
92.1161589999999961
21
-117.297434999999993
0
LINE
8
BLACK
6
CONTINUOUS
10
92.1161589999999961
20
-117.297434999999993
11
92.2590160000000026
21
-117.297434999999993
0
LINE
8
BLACK
6
CONTINUOUS
10
92.2590160000000026
20
-117.297434999999993
11
92.3542539999999974
21
-117.3450539999999904
0
LINE
8
BLACK
6
CONTINUOUS
10
92.3542539999999974
20
-117.3450539999999904
11
92.4018729999999948
21
-117.3926729999999878
0
LINE
8
BLACK
6
CONTINUOUS
10
92.4018729999999948
20
-117.3926729999999878
11
92.4494919999999922
21
-117.4879109999999969
0
LINE
8
BLACK
6
CONTINUOUS
10
92.4494919999999922
20
-117.4879109999999969
11
92.4494919999999922
21
-117.7736249999999956
0
LINE
8
BLACK
6
CONTINUOUS
10
92.4494919999999922
20
-117.7736249999999956
11
92.4018729999999948
21
-117.8688629999999904
0
LINE
8
BLACK
6
CONTINUOUS
10
92.4018729999999948
20
-117.8688629999999904
11
92.3542539999999974
21
-117.9164829999999995
0
LINE
8
BLACK
6
CONTINUOUS
10
92.3542539999999974
20
-117.9164829999999995
11
92.2590160000000026
21
-117.9641019999999969
0
LINE
8
BLACK
6
CONTINUOUS
10
92.2590160000000026
20
-117.9641019999999969
11
92.1161589999999961
21
-117.9641019999999969
0
LINE
8
BLACK
6
CONTINUOUS
10
92.782826
20
-117.297434999999993
11
92.9733019999999897
21
-117.9641019999999969
0
LINE
8
BLACK
6
CONTINUOUS
10
92.9733019999999897
20
-117.9641019999999969
11
93.1637779999999935
21
-117.4879109999999969
0
LINE
8
BLACK
6
CONTINUOUS
10
93.1637779999999935
20
-117.4879109999999969
11
93.3542539999999974
21
-117.9641019999999969
0
LINE
8
BLACK
6
CONTINUOUS
10
93.3542539999999974
20
-117.9641019999999969
11
93.5447300000000013
21
-117.297434999999993
0
LINE
8
BLACK
6
CONTINUOUS
10
94.306635
20
-117.9164829999999995
11
94.211396999999991
21
-117.9641019999999969
0
LINE
8
BLACK
6
CONTINUOUS
10
94.211396999999991
20
-117.9641019999999969
11
94.0209210000000013
21
-117.9641019999999969
0
LINE
8
BLACK
6
CONTINUOUS
10
94.0209210000000013
20
-117.9641019999999969
11
93.9256829999999923
21
-117.9164829999999995
0
LINE
8
BLACK
6
CONTINUOUS
10
93.9256829999999923
20
-117.9164829999999995
11
93.8780639999999948
21
-117.821243999999993
0
LINE
8
BLACK
6
CONTINUOUS
10
93.8780639999999948
20
-117.821243999999993
11
93.8780639999999948
21
-117.4402919999999995
0
LINE
8
BLACK
6
CONTINUOUS
10
93.8780639999999948
20
-117.4402919999999995
11
93.9256829999999923
21
-117.3450539999999904
0
LINE
8
BLACK
6
CONTINUOUS
10
93.9256829999999923
20
-117.3450539999999904
11
94.0209210000000013
21
-117.297434999999993
0
LINE
8
BLACK
6
CONTINUOUS
10
94.0209210000000013
20
-117.297434999999993
11
94.211396999999991
21
-117.297434999999993
0
LINE
8
BLACK
6
CONTINUOUS
10
94.211396999999991
20
-117.297434999999993
11
94.306635
21
-117.3450539999999904
0
LINE
8
BLACK
6
CONTINUOUS
10
94.306635
20
-117.3450539999999904
11
94.3542539999999974
21
-117.4402919999999995
0
LINE
8
BLACK
6
CONTINUOUS
10
94.3542539999999974
20
-117.4402919999999995
11
94.3542539999999974
21
-117.5355299999999943
0
LINE
8
BLACK
6
CONTINUOUS
10
94.3542539999999974
20
-117.5355299999999943
11
93.8780639999999948
21
-117.6307679999999891
0
LINE
8
BLACK
6
CONTINUOUS
10
94.782826
20
-117.9641019999999969
11
94.782826
21
-117.297434999999993
0
LINE
8
BLACK
6
CONTINUOUS
10
94.782826
20
-117.4879109999999969
11
94.8304449999999974
21
-117.3926729999999878
0
LINE
8
BLACK
6
CONTINUOUS
10
94.8304449999999974
20
-117.3926729999999878
11
94.8780639999999948
21
-117.3450539999999904
0
LINE
8
BLACK
6
CONTINUOUS
10
94.8780639999999948
20
-117.3450539999999904
11
94.9733019999999897
21
-117.297434999999993
0
LINE
8
BLACK
6
CONTINUOUS
10
94.9733019999999897
20
-117.297434999999993
11
95.0685399999999987
21
-117.297434999999993
0
LINE
8
BLACK
6
CONTINUOUS
10
94.8571419999999961
20
-128.5656999999999925
11
94.9857140000000015
21
-128.6085569999999905
0
LINE
8
BLACK
6
CONTINUOUS
10
94.9857140000000015
20
-128.6085569999999905
11
95.1999989999999912
21
-128.6085569999999905
0
LINE
8
BLACK
6
CONTINUOUS
10
95.1999989999999912
20
-128.6085569999999905
11
95.2857139999999987
21
-128.5656999999999925
0
LINE
8
BLACK
6
CONTINUOUS
10
95.2857139999999987
20
-128.5656999999999925
11
95.3285709999999966
21
-128.5228419999999971
0
LINE
8
BLACK
6
CONTINUOUS
10
95.3285709999999966
20
-128.5228419999999971
11
95.3714279999999945
21
-128.4371280000000013
0
LINE
8
BLACK
6
CONTINUOUS
10
95.3714279999999945
20
-128.4371280000000013
11
95.3714279999999945
21
-128.3514140000000054
0
LINE
8
BLACK
6
CONTINUOUS
10
95.3714279999999945
20
-128.3514140000000054
11
95.3285709999999966
21
-128.2656999999999812
0
LINE
8
BLACK
6
CONTINUOUS
10
95.3285709999999966
20
-128.2656999999999812
11
95.2857139999999987
21
-128.2228419999999858
0
LINE
8
BLACK
6
CONTINUOUS
10
95.2857139999999987
20
-128.2228419999999858
11
95.1999989999999912
21
-128.1799849999999878
0
LINE
8
BLACK
6
CONTINUOUS
10
95.1999989999999912
20
-128.1799849999999878
11
95.0285709999999995
21
-128.1371279999999899
0
LINE
8
BLACK
6
CONTINUOUS
10
95.0285709999999995
20
-128.1371279999999899
11
94.9428559999999919
21
-128.094270999999992
0
LINE
8
BLACK
6
CONTINUOUS
10
94.9428559999999919
20
-128.094270999999992
11
94.899998999999994
21
-128.0514139999999941
0
LINE
8
BLACK
6
CONTINUOUS
10
94.899998999999994
20
-128.0514139999999941
11
94.8571419999999961
21
-127.9656999999999982
0
LINE
8
BLACK
6
CONTINUOUS
10
94.8571419999999961
20
-127.9656999999999982
11
94.8571419999999961
21
-127.8799849999999907
0
LINE
8
BLACK
6
CONTINUOUS
10
94.8571419999999961
20
-127.8799849999999907
11
94.899998999999994
21
-127.7942709999999948
0
LINE
8
BLACK
6
CONTINUOUS
10
94.899998999999994
20
-127.7942709999999948
11
94.9428559999999919
21
-127.7514139999999969
0
LINE
8
BLACK
6
CONTINUOUS
10
94.9428559999999919
20
-127.7514139999999969
11
95.0285709999999995
21
-127.708556999999999
0
LINE
8
BLACK
6
CONTINUOUS
10
95.0285709999999995
20
-127.708556999999999
11
95.2428559999999891
21
-127.708556999999999
0
LINE
8
BLACK
6
CONTINUOUS
10
95.2428559999999891
20
-127.708556999999999
11
95.3714279999999945
21
-127.7514139999999969
0
LINE
8
BLACK
6
CONTINUOUS
10
95.7571420000000018
20
-128.6085569999999905
11
95.7571420000000018
21
-127.708556999999999
0
LINE
8
BLACK
6
CONTINUOUS
10
95.7571420000000018
20
-127.708556999999999
11
95.9714279999999889
21
-127.708556999999999
0
LINE
8
BLACK
6
CONTINUOUS
10
95.9714279999999889
20
-127.708556999999999
11
96.0999989999999968
21
-127.7514139999999969
0
LINE
8
BLACK
6
CONTINUOUS
10
96.0999989999999968
20
-127.7514139999999969
11
96.1857139999999902
21
-127.8371279999999928
0
LINE
8
BLACK
6
CONTINUOUS
10
96.1857139999999902
20
-127.8371279999999928
11
96.2285710000000023
21
-127.9228419999999886
0
LINE
8
BLACK
6
CONTINUOUS
10
96.2285710000000023
20
-127.9228419999999886
11
96.2714280000000002
21
-128.094270999999992
0
LINE
8
BLACK
6
CONTINUOUS
10
96.2714280000000002
20
-128.094270999999992
11
96.2714280000000002
21
-128.2228419999999858
0
LINE
8
BLACK
6
CONTINUOUS
10
96.2714280000000002
20
-128.2228419999999858
11
96.2285710000000023
21
-128.3942710000000034
0
LINE
8
BLACK
6
CONTINUOUS
10
96.2285710000000023
20
-128.3942710000000034
11
96.1857139999999902
21
-128.4799849999999992
0
LINE
8
BLACK
6
CONTINUOUS
10
96.1857139999999902
20
-128.4799849999999992
11
96.0999989999999968
21
-128.5656999999999925
0
LINE
8
BLACK
6
CONTINUOUS
10
96.0999989999999968
20
-128.5656999999999925
11
95.9714279999999889
21
-128.6085569999999905
0
LINE
8
BLACK
6
CONTINUOUS
10
95.9714279999999889
20
-128.6085569999999905
11
95.7571420000000018
21
-128.6085569999999905
0
LINE
8
BLACK
6
CONTINUOUS
10
96.6142849999999953
20
-128.3514140000000054
11
97.0428569999999979
21
-128.3514140000000054
0
LINE
8
BLACK
6
CONTINUOUS
10
96.5285709999999995
20
-128.6085569999999905
11
96.8285709999999966
21
-127.708556999999999
0
LINE
8
BLACK
6
CONTINUOUS
10
96.8285709999999966
20
-127.708556999999999
11
97.1285709999999938
21
-128.6085569999999905
0
LINE
8
BLACK
6
CONTINUOUS
10
95.5166660000000007
20
-125.4910039999999896
11
95.9499989999999912
21
-126.7910040000000009
0
LINE
8
BLACK
6
CONTINUOUS
10
95.9499989999999912
20
-126.7910040000000009
11
96.3833329999999933
21
-125.4910039999999896
0
LINE
8
BLACK
6
CONTINUOUS
10
90.4309519999999907
20
-140.604818999999992
11
89.8595239999999933
21
-140.604818999999992
0
LINE
8
BLACK
6
CONTINUOUS
10
90.145237999999992
20
-140.604818999999992
11
90.145237999999992
21
-139.604818999999992
0
LINE
8
BLACK
6
CONTINUOUS
10
90.145237999999992
20
-139.604818999999992
11
90.0499999999999972
21
-139.7476759999999842
0
LINE
8
BLACK
6
CONTINUOUS
10
90.0499999999999972
20
-139.7476759999999842
11
89.9547620000000023
21
-139.8429140000000075
0
LINE
8
BLACK
6
CONTINUOUS
10
89.9547620000000023
20
-139.8429140000000075
11
89.8595239999999933
21
-139.8905330000000049
0
LINE
8
BLACK
6
CONTINUOUS
10
91.3357139999999958
20
-139.604818999999992
11
90.8595239999999933
21
-139.604818999999992
0
LINE
8
BLACK
6
CONTINUOUS
10
90.8595239999999933
20
-139.604818999999992
11
90.8119049999999959
21
-140.0810089999999946
0
LINE
8
BLACK
6
CONTINUOUS
10
90.8119049999999959
20
-140.0810089999999946
11
90.8595239999999933
21
-140.0333899999999971
0
LINE
8
BLACK
6
CONTINUOUS
10
90.8595239999999933
20
-140.0333899999999971
11
90.9547620000000023
21
-139.9857709999999997
0
LINE
8
BLACK
6
CONTINUOUS
10
90.9547620000000023
20
-139.9857709999999997
11
91.1928569999999894
21
-139.9857709999999997
0
LINE
8
BLACK
6
CONTINUOUS
10
91.1928569999999894
20
-139.9857709999999997
11
91.2880949999999984
21
-140.0333899999999971
0
LINE
8
BLACK
6
CONTINUOUS
10
91.2880949999999984
20
-140.0333899999999971
11
91.3357139999999958
21
-140.0810089999999946
0
LINE
8
BLACK
6
CONTINUOUS
10
91.3357139999999958
20
-140.0810089999999946
11
91.3833329999999933
21
-140.1762469999999894
0
LINE
8
BLACK
6
CONTINUOUS
10
91.3833329999999933
20
-140.1762469999999894
11
91.3833329999999933
21
-140.4143420000000049
0
LINE
8
BLACK
6
CONTINUOUS
10
91.3833329999999933
20
-140.4143420000000049
11
91.3357139999999958
21
-140.5095799999999997
0
LINE
8
BLACK
6
CONTINUOUS
10
91.3357139999999958
20
-140.5095799999999997
11
91.2880949999999984
21
-140.5571999999999946
0
LINE
8
BLACK
6
CONTINUOUS
10
91.2880949999999984
20
-140.5571999999999946
11
91.1928569999999894
21
-140.604818999999992
0
LINE
8
BLACK
6
CONTINUOUS
10
91.1928569999999894
20
-140.604818999999992
11
90.9547620000000023
21
-140.604818999999992
0
LINE
8
BLACK
6
CONTINUOUS
10
90.9547620000000023
20
-140.604818999999992
11
90.8595239999999933
21
-140.5571999999999946
0
LINE
8
BLACK
6
CONTINUOUS
10
90.8595239999999933
20
-140.5571999999999946
11
90.8119049999999959
21
-140.5095799999999997
0
LINE
8
BLACK
6
CONTINUOUS
10
91.8119049999999959
20
-140.5095799999999997
11
91.8595239999999933
21
-140.5571999999999946
0
LINE
8
BLACK
6
CONTINUOUS
10
91.8595239999999933
20
-140.5571999999999946
11
91.8119049999999959
21
-140.604818999999992
0
LINE
8
BLACK
6
CONTINUOUS
10
91.8119049999999959
20
-140.604818999999992
11
91.7642859999999985
21
-140.5571999999999946
0
LINE
8
BLACK
6
CONTINUOUS
10
91.7642859999999985
20
-140.5571999999999946
11
91.8119049999999959
21
-140.5095799999999997
0
LINE
8
BLACK
6
CONTINUOUS
10
91.8119049999999959
20
-140.5095799999999997
11
91.8119049999999959
21
-140.604818999999992
0
LINE
8
BLACK
6
CONTINUOUS
10
92.240476000000001
20
-139.7000569999999868
11
92.2880949999999984
21
-139.6524379999999894
0
LINE
8
BLACK
6
CONTINUOUS
10
92.2880949999999984
20
-139.6524379999999894
11
92.3833329999999933
21
-139.604818999999992
0
LINE
8
BLACK
6
CONTINUOUS
10
92.3833329999999933
20
-139.604818999999992
11
92.6214279999999945
21
-139.604818999999992
0
LINE
8
BLACK
6
CONTINUOUS
10
92.6214279999999945
20
-139.604818999999992
11
92.7166659999999894
21
-139.6524379999999894
0
LINE
8
BLACK
6
CONTINUOUS
10
92.7166659999999894
20
-139.6524379999999894
11
92.764285000000001
21
-139.7000569999999868
0
LINE
8
BLACK
6
CONTINUOUS
10
92.764285000000001
20
-139.7000569999999868
11
92.8119039999999984
21
-139.7952949999999817
0
LINE
8
BLACK
6
CONTINUOUS
10
92.8119039999999984
20
-139.7952949999999817
11
92.8119039999999984
21
-139.8905330000000049
0
LINE
8
BLACK
6
CONTINUOUS
10
92.8119039999999984
20
-139.8905330000000049
11
92.764285000000001
21
-140.0333899999999971
0
LINE
8
BLACK
6
CONTINUOUS
10
92.764285000000001
20
-140.0333899999999971
11
92.1928569999999894
21
-140.604818999999992
0
LINE
8
BLACK
6
CONTINUOUS
10
92.1928569999999894
20
-140.604818999999992
11
92.8119039999999984
21
-140.604818999999992
0
LINE
8
BLACK
6
CONTINUOUS
10
94.0023809999999997
20
-140.604818999999992
11
94.0023809999999997
21
-139.9381520000000023
0
LINE
8
BLACK
6
CONTINUOUS
10
94.0023809999999997
20
-140.0333899999999971
11
94.0499999999999972
21
-139.9857709999999997
0
LINE
8
BLACK
6
CONTINUOUS
10
94.0499999999999972
20
-139.9857709999999997
11
94.145237999999992
21
-139.9381520000000023
0
LINE
8
BLACK
6
CONTINUOUS
10
94.145237999999992
20
-139.9381520000000023
11
94.2880949999999984
21
-139.9381520000000023
0
LINE
8
BLACK
6
CONTINUOUS
10
94.2880949999999984
20
-139.9381520000000023
11
94.3833329999999933
21
-139.9857709999999997
0
LINE
8
BLACK
6
CONTINUOUS
10
94.3833329999999933
20
-139.9857709999999997
11
94.4309519999999907
21
-140.0810089999999946
0
LINE
8
BLACK
6
CONTINUOUS
10
94.4309519999999907
20
-140.0810089999999946
11
94.4309519999999907
21
-140.604818999999992
0
LINE
8
BLACK
6
CONTINUOUS
10
94.4309519999999907
20
-140.0810089999999946
11
94.4785710000000023
21
-139.9857709999999997
0
LINE
8
BLACK
6
CONTINUOUS
10
94.4785710000000023
20
-139.9857709999999997
11
94.5738089999999971
21
-139.9381520000000023
0
LINE
8
BLACK
6
CONTINUOUS
10
94.5738089999999971
20
-139.9381520000000023
11
94.7166659999999894
21
-139.9381520000000023
0
LINE
8
BLACK
6
CONTINUOUS
10
94.7166659999999894
20
-139.9381520000000023
11
94.8119049999999959
21
-139.9857709999999997
0
LINE
8
BLACK
6
CONTINUOUS
10
94.8119049999999959
20
-139.9857709999999997
11
94.8595239999999933
21
-140.0810089999999946
0
LINE
8
BLACK
6
CONTINUOUS
10
94.8595239999999933
20
-140.0810089999999946
11
94.8595239999999933
21
-140.604818999999992
0
LINE
8
BLACK
6
CONTINUOUS
10
95.3357139999999958
20
-140.604818999999992
11
95.3357139999999958
21
-139.9381520000000023
0
LINE
8
BLACK
6
CONTINUOUS
10
95.3357139999999958
20
-140.0333899999999971
11
95.3833329999999933
21
-139.9857709999999997
0
LINE
8
BLACK
6
CONTINUOUS
10
95.3833329999999933
20
-139.9857709999999997
11
95.4785710000000023
21
-139.9381520000000023
0
LINE
8
BLACK
6
CONTINUOUS
10
95.4785710000000023
20
-139.9381520000000023
11
95.6214279999999945
21
-139.9381520000000023
0
LINE
8
BLACK
6
CONTINUOUS
10
95.6214279999999945
20
-139.9381520000000023
11
95.7166659999999894
21
-139.9857709999999997
0
LINE
8
BLACK
6
CONTINUOUS
10
95.7166659999999894
20
-139.9857709999999997
11
95.764285000000001
21
-140.0810089999999946
0
LINE
8
BLACK
6
CONTINUOUS
10
95.764285000000001
20
-140.0810089999999946
11
95.764285000000001
21
-140.604818999999992
0
LINE
8
BLACK
6
CONTINUOUS
10
95.764285000000001
20
-140.0810089999999946
11
95.8119039999999984
21
-139.9857709999999997
0
LINE
8
BLACK
6
CONTINUOUS
10
95.8119039999999984
20
-139.9857709999999997
11
95.9071419999999932
21
-139.9381520000000023
0
LINE
8
BLACK
6
CONTINUOUS
10
95.9071419999999932
20
-139.9381520000000023
11
96.0499989999999997
21
-139.9381520000000023
0
LINE
8
BLACK
6
CONTINUOUS
10
96.0499989999999997
20
-139.9381520000000023
11
96.145237999999992
21
-139.9857709999999997
0
LINE
8
BLACK
6
CONTINUOUS
10
96.145237999999992
20
-139.9857709999999997
11
96.1928569999999894
21
-140.0810089999999946
0
LINE
8
BLACK
6
CONTINUOUS
10
96.1928569999999894
20
-140.0810089999999946
11
96.1928569999999894
21
-140.604818999999992
0
LINE
8
BLACK
6
CONTINUOUS
10
85.4500000000000028
20
-135.6999999999999886
11
85.4500000000000028
21
-140.7364199999999812
0
LINE
8
BLACK
6
CONTINUOUS
10
100.6499999999999915
20
-135.6999999999999886
11
100.6499999999999915
21
-140.7364199999999812
0
LINE
8
BLACK
6
CONTINUOUS
10
85.4500000000000028
20
-140.1500000000000057
11
89.0440479999999894
21
-140.1500000000000057
0
LINE
8
BLACK
6
CONTINUOUS
10
97.0559519999999907
20
-140.1500000000000057
11
100.6499999999999915
21
-140.1500000000000057
0
LINE
8
BLACK
6
CONTINUOUS
10
85.4500000000000028
20
-140.1500000000000057
11
86.5765039999999999
21
-139.5635790000000043
0
LINE
8
BLACK
6
CONTINUOUS
10
85.4500000000000028
20
-140.1500000000000057
11
86.5765039999999999
21
-140.7364210000000071
0
LINE
8
BLACK
6
CONTINUOUS
10
100.6499999999999915
20
-140.1500000000000057
11
99.5234959999999944
21
-140.7364210000000071
0
LINE
8
BLACK
6
CONTINUOUS
10
100.6499999999999915
20
-140.1500000000000057
11
99.5234959999999944
21
-139.5635790000000043
0
LINE
8
BLACK
6
CONTINUOUS
10
83.6548189999999892
20
-129.1047609999999963
11
83.6548189999999892
21
-129.6761889999999937
0
LINE
8
BLACK
6
CONTINUOUS
10
83.6548189999999892
20
-129.3904749999999808
11
82.6548189999999892
21
-129.3904749999999808
0
LINE
8
BLACK
6
CONTINUOUS
10
82.6548189999999892
20
-129.3904749999999808
11
82.7976759999999956
21
-129.4857130000000041
0
LINE
8
BLACK
6
CONTINUOUS
10
82.7976759999999956
20
-129.4857130000000041
11
82.8929139999999904
21
-129.5809509999999989
0
LINE
8
BLACK
6
CONTINUOUS
10
82.8929139999999904
20
-129.5809509999999989
11
82.9405330000000021
21
-129.6761889999999937
0
LINE
8
BLACK
6
CONTINUOUS
10
82.6548189999999892
20
-128.2476179999999886
11
82.6548189999999892
21
-128.4380940000000066
0
LINE
8
BLACK
6
CONTINUOUS
10
82.6548189999999892
20
-128.4380940000000066
11
82.7024380000000008
21
-128.5333320000000015
0
LINE
8
BLACK
6
CONTINUOUS
10
82.7024380000000008
20
-128.5333320000000015
11
82.7500569999999982
21
-128.5809509999999989
0
LINE
8
BLACK
6
CONTINUOUS
10
82.7500569999999982
20
-128.5809509999999989
11
82.8929139999999904
21
-128.6761889999999937
0
LINE
8
BLACK
6
CONTINUOUS
10
82.8929139999999904
20
-128.6761889999999937
11
83.0833899999999943
21
-128.7238079999999911
0
LINE
8
BLACK
6
CONTINUOUS
10
83.0833899999999943
20
-128.7238079999999911
11
83.464342000000002
21
-128.7238079999999911
0
LINE
8
BLACK
6
CONTINUOUS
10
83.464342000000002
20
-128.7238079999999911
11
83.5595799999999969
21
-128.6761889999999937
0
LINE
8
BLACK
6
CONTINUOUS
10
83.5595799999999969
20
-128.6761889999999937
11
83.6071999999999917
21
-128.6285699999999963
0
LINE
8
BLACK
6
CONTINUOUS
10
83.6071999999999917
20
-128.6285699999999963
11
83.6548189999999892
21
-128.5333320000000015
0
LINE
8
BLACK
6
CONTINUOUS
10
83.6548189999999892
20
-128.5333320000000015
11
83.6548189999999892
21
-128.3428559999999834
0
LINE
8
BLACK
6
CONTINUOUS
10
83.6548189999999892
20
-128.3428559999999834
11
83.6071999999999917
21
-128.2476179999999886
0
LINE
8
BLACK
6
CONTINUOUS
10
83.6071999999999917
20
-128.2476179999999886
11
83.5595799999999969
21
-128.1999989999999912
0
LINE
8
BLACK
6
CONTINUOUS
10
83.5595799999999969
20
-128.1999989999999912
11
83.464342000000002
21
-128.1523799999999937
0
LINE
8
BLACK
6
CONTINUOUS
10
83.464342000000002
20
-128.1523799999999937
11
83.2262470000000008
21
-128.1523799999999937
0
LINE
8
BLACK
6
CONTINUOUS
10
83.2262470000000008
20
-128.1523799999999937
11
83.1310089999999917
21
-128.1999989999999912
0
LINE
8
BLACK
6
CONTINUOUS
10
83.1310089999999917
20
-128.1999989999999912
11
83.0833899999999943
21
-128.2476179999999886
0
LINE
8
BLACK
6
CONTINUOUS
10
83.0833899999999943
20
-128.2476179999999886
11
83.0357709999999969
21
-128.3428559999999834
0
LINE
8
BLACK
6
CONTINUOUS
10
83.0357709999999969
20
-128.3428559999999834
11
83.0357709999999969
21
-128.5333320000000015
0
LINE
8
BLACK
6
CONTINUOUS
10
83.0357709999999969
20
-128.5333320000000015
11
83.0833899999999943
21
-128.6285699999999963
0
LINE
8
BLACK
6
CONTINUOUS
10
83.0833899999999943
20
-128.6285699999999963
11
83.1310089999999917
21
-128.6761889999999937
0
LINE
8
BLACK
6
CONTINUOUS
10
83.1310089999999917
20
-128.6761889999999937
11
83.2262470000000008
21
-128.7238079999999911
0
LINE
8
BLACK
6
CONTINUOUS
10
83.6548189999999892
20
-126.9619029999999924
11
82.9881519999999995
21
-126.9619029999999924
0
LINE
8
BLACK
6
CONTINUOUS
10
83.0833899999999943
20
-126.9619029999999924
11
83.0357709999999969
21
-126.914283999999995
0
LINE
8
BLACK
6
CONTINUOUS
10
83.0357709999999969
20
-126.914283999999995
11
82.9881519999999995
21
-126.8190460000000002
0
LINE
8
BLACK
6
CONTINUOUS
10
82.9881519999999995
20
-126.8190460000000002
11
82.9881519999999995
21
-126.6761889999999937
0
LINE
8
BLACK
6
CONTINUOUS
10
82.9881519999999995
20
-126.6761889999999937
11
83.0357709999999969
21
-126.5809509999999989
0
LINE
8
BLACK
6
CONTINUOUS
10
83.0357709999999969
20
-126.5809509999999989
11
83.1310089999999917
21
-126.5333319999999873
0
LINE
8
BLACK
6
CONTINUOUS
10
83.1310089999999917
20
-126.5333319999999873
11
83.6548189999999892
21
-126.5333319999999873
0
LINE
8
BLACK
6
CONTINUOUS
10
83.1310089999999917
20
-126.5333319999999873
11
83.0357709999999969
21
-126.4857129999999898
0
LINE
8
BLACK
6
CONTINUOUS
10
83.0357709999999969
20
-126.4857129999999898
11
82.9881519999999995
21
-126.390474999999995
0
LINE
8
BLACK
6
CONTINUOUS
10
82.9881519999999995
20
-126.390474999999995
11
82.9881519999999995
21
-126.2476179999999886
0
LINE
8
BLACK
6
CONTINUOUS
10
82.9881519999999995
20
-126.2476179999999886
11
83.0357709999999969
21
-126.1523789999999963
0
LINE
8
BLACK
6
CONTINUOUS
10
83.0357709999999969
20
-126.1523789999999963
11
83.1310089999999917
21
-126.1047599999999989
0
LINE
8
BLACK
6
CONTINUOUS
10
83.1310089999999917
20
-126.1047599999999989
11
83.6548189999999892
21
-126.1047599999999989
0
LINE
8
BLACK
6
CONTINUOUS
10
83.6548189999999892
20
-125.6285699999999963
11
82.9881519999999995
21
-125.6285699999999963
0
LINE
8
BLACK
6
CONTINUOUS
10
83.0833899999999943
20
-125.6285699999999963
11
83.0357709999999969
21
-125.5809509999999989
0
LINE
8
BLACK
6
CONTINUOUS
10
83.0357709999999969
20
-125.5809509999999989
11
82.9881519999999995
21
-125.4857129999999898
0
LINE
8
BLACK
6
CONTINUOUS
10
82.9881519999999995
20
-125.4857129999999898
11
82.9881519999999995
21
-125.3428559999999976
0
LINE
8
BLACK
6
CONTINUOUS
10
82.9881519999999995
20
-125.3428559999999976
11
83.0357709999999969
21
-125.2476179999999886
0
LINE
8
BLACK
6
CONTINUOUS
10
83.0357709999999969
20
-125.2476179999999886
11
83.1310089999999917
21
-125.1999989999999912
0
LINE
8
BLACK
6
CONTINUOUS
10
83.1310089999999917
20
-125.1999989999999912
11
83.6548189999999892
21
-125.1999989999999912
0
LINE
8
BLACK
6
CONTINUOUS
10
83.1310089999999917
20
-125.1999989999999912
11
83.0357709999999969
21
-125.1523799999999937
0
LINE
8
BLACK
6
CONTINUOUS
10
83.0357709999999969
20
-125.1523799999999937
11
82.9881519999999995
21
-125.0571419999999989
0
LINE
8
BLACK
6
CONTINUOUS
10
82.9881519999999995
20
-125.0571419999999989
11
82.9881519999999995
21
-124.9142849999999925
0
LINE
8
BLACK
6
CONTINUOUS
10
82.9881519999999995
20
-124.9142849999999925
11
83.0357709999999969
21
-124.8190460000000002
0
LINE
8
BLACK
6
CONTINUOUS
10
83.0357709999999969
20
-124.8190460000000002
11
83.1310089999999917
21
-124.7714269999999885
0
LINE
8
BLACK
6
CONTINUOUS
10
83.1310089999999917
20
-124.7714269999999885
11
83.6548189999999892
21
-124.7714269999999885
0
LINE
8
BLACK
6
CONTINUOUS
10
100.1499999999999915
20
-119.1999999999999886
11
82.6135799999999989
21
-119.1999999999999886
0
LINE
8
BLACK
6
CONTINUOUS
10
100.1499999999999915
20
-135.1999999999999886
11
82.6135799999999989
21
-135.1999999999999886
0
LINE
8
BLACK
6
CONTINUOUS
10
83.2000000000000028
20
-119.1999999999999886
11
83.2000000000000028
21
-123.9083329999999989
0
LINE
8
BLACK
6
CONTINUOUS
10
83.2000000000000028
20
-130.4916659999999808
11
83.2000000000000028
21
-135.1999999999999886
0
LINE
8
BLACK
6
CONTINUOUS
10
83.2000000000000028
20
-119.1999999999999886
11
83.78642099999999
21
-120.3265039999999999
0
LINE
8
BLACK
6
CONTINUOUS
10
83.2000000000000028
20
-119.1999999999999886
11
82.6135790000000014
21
-120.3265039999999999
0
LINE
8
BLACK
6
CONTINUOUS
10
83.2000000000000028
20
-135.1999999999999886
11
82.6135790000000014
21
-134.0734960000000058
0
LINE
8
BLACK
6
CONTINUOUS
10
83.2000000000000028
20
-135.1999999999999886
11
83.78642099999999
21
-134.0734960000000058
0
LINE
8
BLACK
6
CONTINUOUS
10
104.7619049999999987
20
-114.3381519999999938
11
104.7619049999999987
21
-115.0048189999999977
0
LINE
8
BLACK
6
CONTINUOUS
10
104.5238099999999974
20
-113.9572000000000003
11
104.2857149999999962
21
-114.6714849999999899
0
LINE
8
BLACK
6
CONTINUOUS
10
104.2857149999999962
20
-114.6714849999999899
11
104.904761999999991
21
-114.6714849999999899
0
LINE
8
BLACK
6
CONTINUOUS
10
105.2857149999999962
20
-114.9095799999999912
11
105.3333339999999936
21
-114.9572000000000003
0
LINE
8
BLACK
6
CONTINUOUS
10
105.3333339999999936
20
-114.9572000000000003
11
105.2857149999999962
21
-115.0048189999999977
0
LINE
8
BLACK
6
CONTINUOUS
10
105.2857149999999962
20
-115.0048189999999977
11
105.2380959999999988
21
-114.9572000000000003
0
LINE
8
BLACK
6
CONTINUOUS
10
105.2380959999999988
20
-114.9572000000000003
11
105.2857149999999962
21
-114.9095799999999912
0
LINE
8
BLACK
6
CONTINUOUS
10
105.2857149999999962
20
-114.9095799999999912
11
105.2857149999999962
21
-115.0048189999999977
0
LINE
8
BLACK
6
CONTINUOUS
10
105.6666669999999897
20
-114.0048189999999977
11
106.3333329999999961
21
-114.0048189999999977
0
LINE
8
BLACK
6
CONTINUOUS
10
106.3333329999999961
20
-114.0048189999999977
11
105.904761999999991
21
-115.0048189999999977
0
LINE
8
BLACK
6
CONTINUOUS
10
107.476191
20
-115.0048189999999977
11
107.476191
21
-114.3381519999999938
0
LINE
8
BLACK
6
CONTINUOUS
10
107.476191
20
-114.4333899999999886
11
107.5238099999999974
21
-114.3857709999999912
0
LINE
8
BLACK
6
CONTINUOUS
10
107.5238099999999974
20
-114.3857709999999912
11
107.6190479999999923
21
-114.3381519999999938
0
LINE
8
BLACK
6
CONTINUOUS
10
107.6190479999999923
20
-114.3381519999999938
11
107.7619049999999987
21
-114.3381519999999938
0
LINE
8
BLACK
6
CONTINUOUS
10
107.7619049999999987
20
-114.3381519999999938
11
107.8571429999999935
21
-114.3857709999999912
0
LINE
8
BLACK
6
CONTINUOUS
10
107.8571429999999935
20
-114.3857709999999912
11
107.904761999999991
21
-114.4810090000000002
0
LINE
8
BLACK
6
CONTINUOUS
10
107.904761999999991
20
-114.4810090000000002
11
107.904761999999991
21
-115.0048189999999977
0
LINE
8
BLACK
6
CONTINUOUS
10
107.904761999999991
20
-114.4810090000000002
11
107.9523809999999884
21
-114.3857709999999912
0
LINE
8
BLACK
6
CONTINUOUS
10
107.9523809999999884
20
-114.3857709999999912
11
108.0476189999999974
21
-114.3381519999999938
0
LINE
8
BLACK
6
CONTINUOUS
10
108.0476189999999974
20
-114.3381519999999938
11
108.1904759999999897
21
-114.3381519999999938
0
LINE
8
BLACK
6
CONTINUOUS
10
108.1904759999999897
20
-114.3381519999999938
11
108.2857149999999962
21
-114.3857709999999912
0
LINE
8
BLACK
6
CONTINUOUS
10
108.2857149999999962
20
-114.3857709999999912
11
108.3333339999999936
21
-114.4810090000000002
0
LINE
8
BLACK
6
CONTINUOUS
10
108.3333339999999936
20
-114.4810090000000002
11
108.3333339999999936
21
-115.0048189999999977
0
LINE
8
BLACK
6
CONTINUOUS
10
108.8095239999999961
20
-115.0048189999999977
11
108.8095239999999961
21
-114.3381519999999938
0
LINE
8
BLACK
6
CONTINUOUS
10
108.8095239999999961
20
-114.4333899999999886
11
108.8571429999999935
21
-114.3857709999999912
0
LINE
8
BLACK
6
CONTINUOUS
10
108.8571429999999935
20
-114.3857709999999912
11
108.9523809999999884
21
-114.3381519999999938
0
LINE
8
BLACK
6
CONTINUOUS
10
108.9523809999999884
20
-114.3381519999999938
11
109.0952379999999948
21
-114.3381519999999938
0
LINE
8
BLACK
6
CONTINUOUS
10
109.0952379999999948
20
-114.3381519999999938
11
109.1904759999999897
21
-114.3857709999999912
0
LINE
8
BLACK
6
CONTINUOUS
10
109.1904759999999897
20
-114.3857709999999912
11
109.2380950000000013
21
-114.4810090000000002
0
LINE
8
BLACK
6
CONTINUOUS
10
109.2380950000000013
20
-114.4810090000000002
11
109.2380950000000013
21
-115.0048189999999977
0
LINE
8
BLACK
6
CONTINUOUS
10
109.2380950000000013
20
-114.4810090000000002
11
109.2857139999999987
21
-114.3857709999999912
0
LINE
8
BLACK
6
CONTINUOUS
10
109.2857139999999987
20
-114.3857709999999912
11
109.3809519999999935
21
-114.3381519999999938
0
LINE
8
BLACK
6
CONTINUOUS
10
109.3809519999999935
20
-114.3381519999999938
11
109.523809
21
-114.3381519999999938
0
LINE
8
BLACK
6
CONTINUOUS
10
109.523809
20
-114.3381519999999938
11
109.6190479999999923
21
-114.3857709999999912
0
LINE
8
BLACK
6
CONTINUOUS
10
109.6190479999999923
20
-114.3857709999999912
11
109.6666669999999897
21
-114.4810090000000002
0
LINE
8
BLACK
6
CONTINUOUS
10
109.6666669999999897
20
-114.4810090000000002
11
109.6666669999999897
21
-115.0048189999999977
0
LINE
8
BLACK
6
CONTINUOUS
10
98.2999999999999972
20
-118.6999999999999886
11
98.2999999999999972
21
-113.9635799999999932
0
LINE
8
BLACK
6
CONTINUOUS
10
103.
20
-118.6999999999999886
11
103.
21
-113.9635799999999932
0
LINE
8
BLACK
6
CONTINUOUS
10
98.2999999999999972
20
-114.5499999999999972
11
103.
21
-114.5499999999999972
0
LINE
8
BLACK
6
CONTINUOUS
10
98.2999999999999972
20
-114.5499999999999972
11
103.
21
-114.5499999999999972
0
LINE
8
BLACK
6
CONTINUOUS
10
98.2999999999999972
20
-114.5499999999999972
11
99.4265039999999942
21
-113.9635789999999957
0
LINE
8
BLACK
6
CONTINUOUS
10
98.2999999999999972
20
-114.5499999999999972
11
99.4265039999999942
21
-115.1364209999999986
0
LINE
8
BLACK
6
CONTINUOUS
10
103.
20
-114.5499999999999972
11
101.8734959999999887
21
-115.1364209999999986
0
LINE
8
BLACK
6
CONTINUOUS
10
103.
20
-114.5499999999999972
11
101.8734959999999887
21
-113.9635789999999957
0
LINE
8
BLACK
6
CONTINUOUS
10
80.35005799999999
20
-130.3904749999999808
11
80.3024389999999926
21
-130.3428559999999834
0
LINE
8
BLACK
6
CONTINUOUS
10
80.3024389999999926
20
-130.3428559999999834
11
80.2548199999999952
21
-130.2476179999999886
0
LINE
8
BLACK
6
CONTINUOUS
10
80.2548199999999952
20
-130.2476179999999886
11
80.2548199999999952
21
-130.0095230000000015
0
LINE
8
BLACK
6
CONTINUOUS
10
80.2548199999999952
20
-130.0095230000000015
11
80.3024389999999926
21
-129.9142850000000067
0
LINE
8
BLACK
6
CONTINUOUS
10
80.3024389999999926
20
-129.9142850000000067
11
80.35005799999999
21
-129.8666659999999808
0
LINE
8
BLACK
6
CONTINUOUS
10
80.35005799999999
20
-129.8666659999999808
11
80.445295999999999
21
-129.8190469999999834
0
LINE
8
BLACK
6
CONTINUOUS
10
80.445295999999999
20
-129.8190469999999834
11
80.5405339999999939
21
-129.8190469999999834
0
LINE
8
BLACK
6
CONTINUOUS
10
80.5405339999999939
20
-129.8190469999999834
11
80.6833910000000003
21
-129.8666659999999808
0
LINE
8
BLACK
6
CONTINUOUS
10
80.6833910000000003
20
-129.8666659999999808
11
81.2548199999999952
21
-130.4380940000000066
0
LINE
8
BLACK
6
CONTINUOUS
10
81.2548199999999952
20
-130.4380940000000066
11
81.2548199999999952
21
-129.8190469999999834
0
LINE
8
BLACK
6
CONTINUOUS
10
80.35005799999999
20
-129.4380940000000066
11
80.3024389999999926
21
-129.3904749999999808
0
LINE
8
BLACK
6
CONTINUOUS
10
80.3024389999999926
20
-129.3904749999999808
11
80.2548199999999952
21
-129.295236999999986
0
LINE
8
BLACK
6
CONTINUOUS
10
80.2548199999999952
20
-129.295236999999986
11
80.2548199999999952
21
-129.0571419999999989
0
LINE
8
BLACK
6
CONTINUOUS
10
80.2548199999999952
20
-129.0571419999999989
11
80.3024389999999926
21
-128.9619040000000041
0
LINE
8
BLACK
6
CONTINUOUS
10
80.3024389999999926
20
-128.9619040000000041
11
80.35005799999999
21
-128.9142850000000067
0
LINE
8
BLACK
6
CONTINUOUS
10
80.35005799999999
20
-128.9142850000000067
11
80.445295999999999
21
-128.8666659999999808
0
LINE
8
BLACK
6
CONTINUOUS
10
80.445295999999999
20
-128.8666659999999808
11
80.5405339999999939
21
-128.8666659999999808
0
LINE
8
BLACK
6
CONTINUOUS
10
80.5405339999999939
20
-128.8666659999999808
11
80.6833910000000003
21
-128.9142850000000067
0
LINE
8
BLACK
6
CONTINUOUS
10
80.6833910000000003
20
-128.9142850000000067
11
81.2548199999999952
21
-129.4857130000000041
0
LINE
8
BLACK
6
CONTINUOUS
10
81.2548199999999952
20
-129.4857130000000041
11
81.2548199999999952
21
-128.8666659999999808
0
LINE
8
BLACK
6
CONTINUOUS
10
81.1595810000000029
20
-128.4380940000000066
11
81.2072009999999977
21
-128.3904749999999808
0
LINE
8
BLACK
6
CONTINUOUS
10
81.2072009999999977
20
-128.3904749999999808
11
81.2548199999999952
21
-128.4380940000000066
0
LINE
8
BLACK
6
CONTINUOUS
10
81.2548199999999952
20
-128.4380940000000066
11
81.2072009999999977
21
-128.4857130000000041
0
LINE
8
BLACK
6
CONTINUOUS
10
81.2072009999999977
20
-128.4857130000000041
11
81.1595810000000029
21
-128.4380940000000066
0
LINE
8
BLACK
6
CONTINUOUS
10
81.1595810000000029
20
-128.4380940000000066
11
81.2548199999999952
21
-128.4380940000000066
0
LINE
8
BLACK
6
CONTINUOUS
10
80.5881529999999913
20
-127.5333329999999989
11
81.2548199999999952
21
-127.5333329999999989
0
LINE
8
BLACK
6
CONTINUOUS
10
80.2072009999999977
20
-127.7714280000000002
11
80.9214860000000016
21
-128.0095230000000015
0
LINE
8
BLACK
6
CONTINUOUS
10
80.9214860000000016
20
-128.0095230000000015
11
80.9214860000000016
21
-127.3904759999999925
0
LINE
8
BLACK
6
CONTINUOUS
10
81.2548199999999952
20
-126.2476179999999886
11
80.5881529999999913
21
-126.2476179999999886
0
LINE
8
BLACK
6
CONTINUOUS
10
80.6833910000000003
20
-126.2476179999999886
11
80.6357720000000029
21
-126.1999989999999912
0
LINE
8
BLACK
6
CONTINUOUS
10
80.6357720000000029
20
-126.1999989999999912
11
80.5881529999999913
21
-126.1047609999999963
0
LINE
8
BLACK
6
CONTINUOUS
10
80.5881529999999913
20
-126.1047609999999963
11
80.5881529999999913
21
-125.9619039999999899
0
LINE
8
BLACK
6
CONTINUOUS
10
80.5881529999999913
20
-125.9619039999999899
11
80.6357720000000029
21
-125.8666659999999951
0
LINE
8
BLACK
6
CONTINUOUS
10
80.6357720000000029
20
-125.8666659999999951
11
80.7310099999999977
21
-125.8190469999999976
0
LINE
8
BLACK
6
CONTINUOUS
10
80.7310099999999977
20
-125.8190469999999976
11
81.2548199999999952
21
-125.8190469999999976
0
LINE
8
BLACK
6
CONTINUOUS
10
80.7310099999999977
20
-125.8190469999999976
11
80.6357720000000029
21
-125.7714280000000002
0
LINE
8
BLACK
6
CONTINUOUS
10
80.6357720000000029
20
-125.7714280000000002
11
80.5881529999999913
21
-125.6761899999999912
0
LINE
8
BLACK
6
CONTINUOUS
10
80.5881529999999913
20
-125.6761899999999912
11
80.5881529999999913
21
-125.5333329999999989
0
LINE
8
BLACK
6
CONTINUOUS
10
80.5881529999999913
20
-125.5333329999999989
11
80.6357720000000029
21
-125.4380939999999924
0
LINE
8
BLACK
6
CONTINUOUS
10
80.6357720000000029
20
-125.4380939999999924
11
80.7310099999999977
21
-125.390474999999995
0
LINE
8
BLACK
6
CONTINUOUS
10
80.7310099999999977
20
-125.390474999999995
11
81.2548199999999952
21
-125.390474999999995
0
LINE
8
BLACK
6
CONTINUOUS
10
81.2548199999999952
20
-124.9142849999999925
11
80.5881529999999913
21
-124.9142849999999925
0
LINE
8
BLACK
6
CONTINUOUS
10
80.6833910000000003
20
-124.9142849999999925
11
80.6357720000000029
21
-124.8666659999999951
0
LINE
8
BLACK
6
CONTINUOUS
10
80.6357720000000029
20
-124.8666659999999951
11
80.5881529999999913
21
-124.7714280000000002
0
LINE
8
BLACK
6
CONTINUOUS
10
80.5881529999999913
20
-124.7714280000000002
11
80.5881529999999913
21
-124.6285709999999938
0
LINE
8
BLACK
6
CONTINUOUS
10
80.5881529999999913
20
-124.6285709999999938
11
80.6357720000000029
21
-124.5333329999999989
0
LINE
8
BLACK
6
CONTINUOUS
10
80.6357720000000029
20
-124.5333329999999989
11
80.7310099999999977
21
-124.4857139999999873
0
LINE
8
BLACK
6
CONTINUOUS
10
80.7310099999999977
20
-124.4857139999999873
11
81.2548199999999952
21
-124.4857139999999873
0
LINE
8
BLACK
6
CONTINUOUS
10
80.7310099999999977
20
-124.4857139999999873
11
80.6357720000000029
21
-124.4380949999999899
0
LINE
8
BLACK
6
CONTINUOUS
10
80.6357720000000029
20
-124.4380949999999899
11
80.5881529999999913
21
-124.3428569999999951
0
LINE
8
BLACK
6
CONTINUOUS
10
80.5881529999999913
20
-124.3428569999999951
11
80.5881529999999913
21
-124.1999999999999886
0
LINE
8
BLACK
6
CONTINUOUS
10
80.5881529999999913
20
-124.1999999999999886
11
80.6357720000000029
21
-124.1047609999999963
0
LINE
8
BLACK
6
CONTINUOUS
10
80.6357720000000029
20
-124.1047609999999963
11
80.7310099999999977
21
-124.0571419999999989
0
LINE
8
BLACK
6
CONTINUOUS
10
80.7310099999999977
20
-124.0571419999999989
11
81.2548199999999952
21
-124.0571419999999989
0
LINE
8
BLACK
6
CONTINUOUS
10
88.1499999999999915
20
-116.
11
80.2135809999999907
21
-116.
0
LINE
8
BLACK
6
CONTINUOUS
10
88.1499999999999915
20
-138.4000000000000057
11
80.2135809999999907
21
-138.4000000000000057
0
LINE
8
BLACK
6
CONTINUOUS
10
80.8000009999999946
20
-116.
11
80.8000009999999946
21
-123.1940479999999951
0
LINE
8
BLACK
6
CONTINUOUS
10
80.8000009999999946
20
-131.2059519999999964
11
80.8000009999999946
21
-138.4000000000000057
0
LINE
8
BLACK
6
CONTINUOUS
10
80.8000009999999946
20
-116.
11
81.386421999999996
21
-117.1265039999999971
0
LINE
8
BLACK
6
CONTINUOUS
10
80.8000009999999946
20
-116.
11
80.2135799999999932
21
-117.1265039999999971
0
LINE
8
BLACK
6
CONTINUOUS
10
80.8000009999999946
20
-138.4000000000000057
11
80.2135799999999932
21
-137.2734959999999944
0
LINE
8
BLACK
6
CONTINUOUS
10
80.8000009999999946
20
-138.4000000000000057
11
81.386421999999996
21
-137.2734959999999944
0
LINE
8
BLACK
6
CONTINUOUS
10
101.4119049999999902
20
-111.7048190000000005
11
102.0309519999999992
21
-111.7048190000000005
0
LINE
8
BLACK
6
CONTINUOUS
10
102.0309519999999992
20
-111.7048190000000005
11
101.6976189999999889
21
-112.085770999999994
0
LINE
8
BLACK
6
CONTINUOUS
10
101.6976189999999889
20
-112.085770999999994
11
101.8404759999999953
21
-112.085770999999994
0
LINE
8
BLACK
6
CONTINUOUS
10
101.8404759999999953
20
-112.085770999999994
11
101.9357139999999902
21
-112.1333899999999915
0
LINE
8
BLACK
6
CONTINUOUS
10
101.9357139999999902
20
-112.1333899999999915
11
101.9833330000000018
21
-112.1810089999999889
0
LINE
8
BLACK
6
CONTINUOUS
10
101.9833330000000018
20
-112.1810089999999889
11
102.0309519999999992
21
-112.2762469999999979
0
LINE
8
BLACK
6
CONTINUOUS
10
102.0309519999999992
20
-112.2762469999999979
11
102.0309519999999992
21
-112.5143419999999992
0
LINE
8
BLACK
6
CONTINUOUS
10
102.0309519999999992
20
-112.5143419999999992
11
101.9833330000000018
21
-112.609579999999994
0
LINE
8
BLACK
6
CONTINUOUS
10
101.9833330000000018
20
-112.609579999999994
11
101.9357139999999902
21
-112.6571999999999889
0
LINE
8
BLACK
6
CONTINUOUS
10
101.9357139999999902
20
-112.6571999999999889
11
101.8404759999999953
21
-112.7048190000000005
0
LINE
8
BLACK
6
CONTINUOUS
10
101.8404759999999953
20
-112.7048190000000005
11
101.5547619999999966
21
-112.7048190000000005
0
LINE
8
BLACK
6
CONTINUOUS
10
101.5547619999999966
20
-112.7048190000000005
11
101.4595240000000018
21
-112.6571999999999889
0
LINE
8
BLACK
6
CONTINUOUS
10
101.4595240000000018
20
-112.6571999999999889
11
101.4119049999999902
21
-112.609579999999994
0
LINE
8
BLACK
6
CONTINUOUS
10
102.6023809999999941
20
-112.1333899999999915
11
102.5071429999999992
21
-112.085770999999994
0
LINE
8
BLACK
6
CONTINUOUS
10
102.5071429999999992
20
-112.085770999999994
11
102.4595240000000018
21
-112.0381519999999966
0
LINE
8
BLACK
6
CONTINUOUS
10
102.4595240000000018
20
-112.0381519999999966
11
102.4119049999999902
21
-111.9429140000000018
0
LINE
8
BLACK
6
CONTINUOUS
10
102.4119049999999902
20
-111.9429140000000018
11
102.4119049999999902
21
-111.8952949999999902
0
LINE
8
BLACK
6
CONTINUOUS
10
102.4119049999999902
20
-111.8952949999999902
11
102.4595240000000018
21
-111.8000569999999954
0
LINE
8
BLACK
6
CONTINUOUS
10
102.4595240000000018
20
-111.8000569999999954
11
102.5071429999999992
21
-111.7524379999999979
0
LINE
8
BLACK
6
CONTINUOUS
10
102.5071429999999992
20
-111.7524379999999979
11
102.6023809999999941
21
-111.7048190000000005
0
LINE
8
BLACK
6
CONTINUOUS
10
102.6023809999999941
20
-111.7048190000000005
11
102.7928569999999979
21
-111.7048190000000005
0
LINE
8
BLACK
6
CONTINUOUS
10
102.7928569999999979
20
-111.7048190000000005
11
102.8880949999999928
21
-111.7524379999999979
0
LINE
8
BLACK
6
CONTINUOUS
10
102.8880949999999928
20
-111.7524379999999979
11
102.9357139999999902
21
-111.8000569999999954
0
LINE
8
BLACK
6
CONTINUOUS
10
102.9357139999999902
20
-111.8000569999999954
11
102.9833330000000018
21
-111.8952949999999902
0
LINE
8
BLACK
6
CONTINUOUS
10
102.9833330000000018
20
-111.8952949999999902
11
102.9833330000000018
21
-111.9429140000000018
0
LINE
8
BLACK
6
CONTINUOUS
10
102.9833330000000018
20
-111.9429140000000018
11
102.9357139999999902
21
-112.0381519999999966
0
LINE
8
BLACK
6
CONTINUOUS
10
102.9357139999999902
20
-112.0381519999999966
11
102.8880949999999928
21
-112.085770999999994
0
LINE
8
BLACK
6
CONTINUOUS
10
102.8880949999999928
20
-112.085770999999994
11
102.7928569999999979
21
-112.1333899999999915
0
LINE
8
BLACK
6
CONTINUOUS
10
102.7928569999999979
20
-112.1333899999999915
11
102.6023809999999941
21
-112.1333899999999915
0
LINE
8
BLACK
6
CONTINUOUS
10
102.6023809999999941
20
-112.1333899999999915
11
102.5071429999999992
21
-112.1810089999999889
0
LINE
8
BLACK
6
CONTINUOUS
10
102.5071429999999992
20
-112.1810089999999889
11
102.4595240000000018
21
-112.2286280000000005
0
LINE
8
BLACK
6
CONTINUOUS
10
102.4595240000000018
20
-112.2286280000000005
11
102.4119049999999902
21
-112.3238659999999953
0
LINE
8
BLACK
6
CONTINUOUS
10
102.4119049999999902
20
-112.3238659999999953
11
102.4119049999999902
21
-112.5143419999999992
0
LINE
8
BLACK
6
CONTINUOUS
10
102.4119049999999902
20
-112.5143419999999992
11
102.4595240000000018
21
-112.609579999999994
0
LINE
8
BLACK
6
CONTINUOUS
10
102.4595240000000018
20
-112.609579999999994
11
102.5071429999999992
21
-112.6571999999999889
0
LINE
8
BLACK
6
CONTINUOUS
10
102.5071429999999992
20
-112.6571999999999889
11
102.6023809999999941
21
-112.7048190000000005
0
LINE
8
BLACK
6
CONTINUOUS
10
102.6023809999999941
20
-112.7048190000000005
11
102.7928569999999979
21
-112.7048190000000005
0
LINE
8
BLACK
6
CONTINUOUS
10
102.7928569999999979
20
-112.7048190000000005
11
102.8880949999999928
21
-112.6571999999999889
0
LINE
8
BLACK
6
CONTINUOUS
10
102.8880949999999928
20
-112.6571999999999889
11
102.9357139999999902
21
-112.609579999999994
0
LINE
8
BLACK
6
CONTINUOUS
10
102.9357139999999902
20
-112.609579999999994
11
102.9833330000000018
21
-112.5143419999999992
0
LINE
8
BLACK
6
CONTINUOUS
10
102.9833330000000018
20
-112.5143419999999992
11
102.9833330000000018
21
-112.3238659999999953
0
LINE
8
BLACK
6
CONTINUOUS
10
102.9833330000000018
20
-112.3238659999999953
11
102.9357139999999902
21
-112.2286280000000005
0
LINE
8
BLACK
6
CONTINUOUS
10
102.9357139999999902
20
-112.2286280000000005
11
102.8880949999999928
21
-112.1810089999999889
0
LINE
8
BLACK
6
CONTINUOUS
10
102.8880949999999928
20
-112.1810089999999889
11
102.7928569999999979
21
-112.1333899999999915
0
LINE
8
BLACK
6
CONTINUOUS
10
103.4119049999999902
20
-112.609579999999994
11
103.4595240000000018
21
-112.6571999999999889
0
LINE
8
BLACK
6
CONTINUOUS
10
103.4595240000000018
20
-112.6571999999999889
11
103.4119049999999902
21
-112.7048190000000005
0
LINE
8
BLACK
6
CONTINUOUS
10
103.4119049999999902
20
-112.7048190000000005
11
103.3642859999999928
21
-112.6571999999999889
0
LINE
8
BLACK
6
CONTINUOUS
10
103.3642859999999928
20
-112.6571999999999889
11
103.4119049999999902
21
-112.609579999999994
0
LINE
8
BLACK
6
CONTINUOUS
10
103.4119049999999902
20
-112.609579999999994
11
103.4119049999999902
21
-112.7048190000000005
0
LINE
8
BLACK
6
CONTINUOUS
10
104.3166659999999979
20
-112.0381519999999966
11
104.3166659999999979
21
-112.7048190000000005
0
LINE
8
BLACK
6
CONTINUOUS
10
104.0785709999999966
20
-111.6571999999999889
11
103.8404759999999953
21
-112.3714849999999927
0
LINE
8
BLACK
6
CONTINUOUS
10
103.8404759999999953
20
-112.3714849999999927
11
104.4595229999999901
21
-112.3714849999999927
0
LINE
8
BLACK
6
CONTINUOUS
10
105.6023809999999941
20
-112.7048190000000005
11
105.6023809999999941
21
-112.0381519999999966
0
LINE
8
BLACK
6
CONTINUOUS
10
105.6023809999999941
20
-112.1333899999999915
11
105.6499999999999915
21
-112.085770999999994
0
LINE
8
BLACK
6
CONTINUOUS
10
105.6499999999999915
20
-112.085770999999994
11
105.7452380000000005
21
-112.0381519999999966
0
LINE
8
BLACK
6
CONTINUOUS
10
105.7452380000000005
20
-112.0381519999999966
11
105.8880949999999928
21
-112.0381519999999966
0
LINE
8
BLACK
6
CONTINUOUS
10
105.8880949999999928
20
-112.0381519999999966
11
105.9833330000000018
21
-112.085770999999994
0
LINE
8
BLACK
6
CONTINUOUS
10
105.9833330000000018
20
-112.085770999999994
11
106.0309519999999992
21
-112.1810089999999889
0
LINE
8
BLACK
6
CONTINUOUS
10
106.0309519999999992
20
-112.1810089999999889
11
106.0309519999999992
21
-112.7048190000000005
0
LINE
8
BLACK
6
CONTINUOUS
10
106.0309519999999992
20
-112.1810089999999889
11
106.0785709999999966
21
-112.085770999999994
0
LINE
8
BLACK
6
CONTINUOUS
10
106.0785709999999966
20
-112.085770999999994
11
106.1738089999999914
21
-112.0381519999999966
0
LINE
8
BLACK
6
CONTINUOUS
10
106.1738089999999914
20
-112.0381519999999966
11
106.3166659999999979
21
-112.0381519999999966
0
LINE
8
BLACK
6
CONTINUOUS
10
106.3166659999999979
20
-112.0381519999999966
11
106.4119049999999902
21
-112.085770999999994
0
LINE
8
BLACK
6
CONTINUOUS
10
106.4119049999999902
20
-112.085770999999994
11
106.4595240000000018
21
-112.1810089999999889
0
LINE
8
BLACK
6
CONTINUOUS
10
106.4595240000000018
20
-112.1810089999999889
11
106.4595240000000018
21
-112.7048190000000005
0
LINE
8
BLACK
6
CONTINUOUS
10
106.9357139999999902
20
-112.7048190000000005
11
106.9357139999999902
21
-112.0381519999999966
0
LINE
8
BLACK
6
CONTINUOUS
10
106.9357139999999902
20
-112.1333899999999915
11
106.9833330000000018
21
-112.085770999999994
0
LINE
8
BLACK
6
CONTINUOUS
10
106.9833330000000018
20
-112.085770999999994
11
107.0785709999999966
21
-112.0381519999999966
0
LINE
8
BLACK
6
CONTINUOUS
10
107.0785709999999966
20
-112.0381519999999966
11
107.2214279999999889
21
-112.0381519999999966
0
LINE
8
BLACK
6
CONTINUOUS
10
107.2214279999999889
20
-112.0381519999999966
11
107.3166659999999979
21
-112.085770999999994
0
LINE
8
BLACK
6
CONTINUOUS
10
107.3166659999999979
20
-112.085770999999994
11
107.3642849999999953
21
-112.1810089999999889
0
LINE
8
BLACK
6
CONTINUOUS
10
107.3642849999999953
20
-112.1810089999999889
11
107.3642849999999953
21
-112.7048190000000005
0
LINE
8
BLACK
6
CONTINUOUS
10
107.3642849999999953
20
-112.1810089999999889
11
107.4119039999999927
21
-112.085770999999994
0
LINE
8
BLACK
6
CONTINUOUS
10
107.4119039999999927
20
-112.085770999999994
11
107.5071420000000018
21
-112.0381519999999966
0
LINE
8
BLACK
6
CONTINUOUS
10
107.5071420000000018
20
-112.0381519999999966
11
107.649998999999994
21
-112.0381519999999966
0
LINE
8
BLACK
6
CONTINUOUS
10
107.649998999999994
20
-112.0381519999999966
11
107.7452380000000005
21
-112.085770999999994
0
LINE
8
BLACK
6
CONTINUOUS
10
107.7452380000000005
20
-112.085770999999994
11
107.7928569999999979
21
-112.1810089999999889
0
LINE
8
BLACK
6
CONTINUOUS
10
107.7928569999999979
20
-112.1810089999999889
11
107.7928569999999979
21
-112.7048190000000005
0
LINE
8
BLACK
6
CONTINUOUS
10
123.8499999999999943
20
-118.6999999999999886
11
123.8499999999999943
21
-111.6635799999999961
0
LINE
8
BLACK
6
CONTINUOUS
10
85.4500000000000028
20
-118.6999999999999886
11
85.4500000000000028
21
-111.6635799999999961
0
LINE
8
BLACK
6
CONTINUOUS
10
123.8499999999999943
20
-112.25
11
108.6559519999999992
21
-112.25
0
LINE
8
BLACK
6
CONTINUOUS
10
100.644047999999998
20
-112.25
11
85.4500000000000028
21
-112.25
0
LINE
8
BLACK
6
CONTINUOUS
10
123.8499999999999943
20
-112.25
11
122.7234959999999973
21
-112.8364210000000014
0
LINE
8
BLACK
6
CONTINUOUS
10
123.8499999999999943
20
-112.25
11
122.7234959999999973
21
-111.6635789999999986
0
LINE
8
BLACK
6
CONTINUOUS
10
85.4500000000000028
20
-112.25
11
86.5765039999999999
21
-111.6635789999999986
0
LINE
8
BLACK
6
CONTINUOUS
10
85.4500000000000028
20
-112.25
11
86.5765039999999999
21
-112.8364210000000014
0
LINE
8
BLACK
6
CONTINUOUS
10
105.3999999999999915
20
-125.8999999999999915
11
106.0999999999999943
21
-125.8999999999999915
0
LINE
8
BLACK
6
CONTINUOUS
10
106.0999999999999943
20
-127.0999999999999943
11
105.3999999999999915
21
-127.0999999999999943
0
LINE
8
BLACK
6
CONTINUOUS
10
104.6499999999999915
20
-131.5999999999999943
11
104.6499999999999915
21
-132.7999999999999829
0
LINE
8
BLACK
6
CONTINUOUS
10
104.6499999999999915
20
-131.5999999999999943
11
106.8499999999999943
21
-131.5999999999999943
0
LINE
8
BLACK
6
CONTINUOUS
10
106.8499999999999943
20
-131.5999999999999943
11
106.8499999999999943
21
-132.7999999999999829
0
LINE
8
BLACK
6
CONTINUOUS
10
106.8499999999999943
20
-132.7999999999999829
11
104.6499999999999915
21
-132.7999999999999829
0
LINE
8
BLACK
6
CONTINUOUS
10
109.8499999999999943
20
-116.5999999999999943
11
112.8499999999999943
21
-116.5999999999999943
0
LINE
8
BLACK
6
CONTINUOUS
10
109.8499999999999943
20
-118.1999999999999886
11
109.8499999999999943
21
-116.5999999999999943
0
LINE
8
BLACK
6
CONTINUOUS
10
112.8499999999999943
20
-118.1999999999999886
11
109.8499999999999943
21
-118.1999999999999886
0
LINE
8
BLACK
6
CONTINUOUS
10
112.8499999999999943
20
-118.1999999999999886
11
112.8499999999999943
21
-116.5999999999999943
0
LINE
8
BLACK
6
CONTINUOUS
10
104.6499999999999915
20
-128.7999999999999829
11
106.8499999999999943
21
-128.7999999999999829
0
LINE
8
BLACK
6
CONTINUOUS
10
104.6499999999999915
20
-130.
11
104.6499999999999915
21
-128.7999999999999829
0
LINE
8
BLACK
6
CONTINUOUS
10
106.8499999999999943
20
-130.
11
104.6499999999999915
21
-130.
0
LINE
8
BLACK
6
CONTINUOUS
10
106.8499999999999943
20
-130.
11
106.8499999999999943
21
-128.7999999999999829
0
LINE
8
BLACK
6
CONTINUOUS
10
95.7800000000000011
20
-120.1092829999999907
11
96.9799999999999898
21
-120.1092829999999907
0
LINE
8
BLACK
6
CONTINUOUS
10
95.7800000000000011
20
-122.3092829999999935
11
95.7800000000000011
21
-120.1092829999999907
0
LINE
8
BLACK
6
CONTINUOUS
10
95.7800000000000011
20
-122.3092829999999935
11
96.9799999999999898
21
-122.3092829999999935
0
LINE
8
BLACK
6
CONTINUOUS
10
96.9799999999999898
20
-120.1092829999999907
11
96.9799999999999898
21
-122.3092829999999935
0
LINE
8
BLACK
6
CONTINUOUS
10
108.25
20
-121.
11
109.4499999999999886
21
-121.
0
LINE
8
BLACK
6
CONTINUOUS
10
108.25
20
-123.1999999999999886
11
108.25
21
-121.
0
LINE
8
BLACK
6
CONTINUOUS
10
108.25
20
-123.1999999999999886
11
109.4499999999999886
21
-123.1999999999999886
0
LINE
8
BLACK
6
CONTINUOUS
10
109.4499999999999886
20
-121.
11
109.4499999999999886
21
-123.1999999999999886
0
LINE
8
BLACK
6
CONTINUOUS
10
85.5499999999999972
20
-131.4000000000000057
11
85.5499999999999972
21
-123.
0
LINE
8
BLACK
6
CONTINUOUS
10
89.6499999999999915
20
-121.1999999999999886
11
93.25
21
-121.1999999999999886
0
LINE
8
BLACK
6
CONTINUOUS
10
89.6499999999999915
20
-133.1999999999999886
11
93.25
21
-133.1999999999999886
0
LINE
8
BLACK
6
CONTINUOUS
10
93.25
20
-121.1999999999999886
11
93.25
21
-123.3999999999999915
0
LINE
8
BLACK
6
CONTINUOUS
10
93.25
20
-133.1999999999999886
11
93.25
21
-131.
0
LINE
8
BLACK
6
CONTINUOUS
10
112.25
20
-133.
11
112.25
21
-130.7999999999999829
0
LINE
8
BLACK
6
CONTINUOUS
10
113.4499999999999886
20
-130.7999999999999829
11
112.25
21
-130.7999999999999829
0
LINE
8
BLACK
6
CONTINUOUS
10
113.4499999999999886
20
-130.7999999999999829
11
113.4499999999999886
21
-133.
0
LINE
8
BLACK
6
CONTINUOUS
10
113.4499999999999886
20
-133.
11
112.25
21
-133.
0
LINE
8
BLACK
6
CONTINUOUS
10
90.3494929999999954
20
-118.4092829999999879
11
90.3494929999999954
21
-119.6092829999999907
0
LINE
8
BLACK
6
CONTINUOUS
10
90.3494929999999954
20
-118.4092829999999879
11
92.5494929999999982
21
-118.4092829999999879
0
LINE
8
BLACK
6
CONTINUOUS
10
92.5494929999999982
20
-118.4092829999999879
11
92.5494929999999982
21
-119.6092829999999907
0
LINE
8
BLACK
6
CONTINUOUS
10
92.5494929999999982
20
-119.6092829999999907
11
90.3494929999999954
21
-119.6092829999999907
0
LINE
8
BLACK
6
CONTINUOUS
10
94.3499999999999943
20
-120.1092829999999907
11
95.5499999999999972
21
-120.1092829999999907
0
LINE
8
BLACK
6
CONTINUOUS
10
94.3499999999999943
20
-122.3092829999999935
11
94.3499999999999943
21
-120.1092829999999907
0
LINE
8
BLACK
6
CONTINUOUS
10
94.3499999999999943
20
-122.3092829999999935
11
95.5499999999999972
21
-122.3092829999999935
0
LINE
8
BLACK
6
CONTINUOUS
10
95.5499999999999972
20
-120.1092829999999907
11
95.5499999999999972
21
-122.3092829999999935
0
LINE
8
BLACK
6
CONTINUOUS
10
105.3999999999999915
20
-123.0999999999999943
11
106.0999999999999943
21
-123.0999999999999943
0
LINE
8
BLACK
6
CONTINUOUS
10
106.0999999999999943
20
-124.2999999999999972
11
105.3999999999999915
21
-124.2999999999999972
0
LINE
8
BLACK
6
CONTINUOUS
10
105.3999999999999915
20
-124.3999999999999915
11
106.0999999999999943
21
-124.3999999999999915
0
LINE
8
BLACK
6
CONTINUOUS
10
106.0999999999999943
20
-125.5999999999999943
11
105.3999999999999915
21
-125.5999999999999943
0
LINE
8
BLACK
6
CONTINUOUS
10
94.2994929999999982
20
-118.8092829999999935
11
94.5994929999999954
21
-119.0092829999999964
0
LINE
8
BLACK
6
CONTINUOUS
10
94.2994929999999982
20
-119.2092829999999992
11
94.2994929999999982
21
-118.8092829999999935
0
LINE
8
BLACK
6
CONTINUOUS
10
94.5994929999999954
20
-119.0092829999999964
11
94.2994929999999982
21
-119.2092829999999992
0
LINE
8
BLACK
6
CONTINUOUS
10
94.6494929999999925
20
-119.2092829999999992
11
94.6494929999999925
21
-118.8092829999999935
0
LINE
8
BLACK
6
CONTINUOUS
10
95.7494930000000011
20
-118.5092829999999964
11
93.6494929999999925
21
-118.5092829999999964
0
LINE
8
BLACK
6
CONTINUOUS
10
95.7494930000000011
20
-119.5092829999999964
11
93.6494929999999925
21
-119.5092829999999964
0
LINE
8
BLACK
6
CONTINUOUS
10
95.7494930000000011
20
-119.5092829999999964
11
95.7494930000000011
21
-118.5092829999999964
0
LINE
8
BLACK
6
CONTINUOUS
10
104.6499999999999915
20
-130.1999999999999886
11
104.6499999999999915
21
-131.4000000000000057
0
LINE
8
BLACK
6
CONTINUOUS
10
104.6499999999999915
20
-130.1999999999999886
11
106.8499999999999943
21
-130.1999999999999886
0
LINE
8
BLACK
6
CONTINUOUS
10
106.8499999999999943
20
-130.1999999999999886
11
106.8499999999999943
21
-131.4000000000000057
0
LINE
8
BLACK
6
CONTINUOUS
10
106.8499999999999943
20
-131.4000000000000057
11
104.6499999999999915
21
-131.4000000000000057
0
LINE
8
BLACK
6
CONTINUOUS
10
95.5999999999999943
20
-134.5999999999999943
11
96.2999999999999972
21
-134.5999999999999943
0
LINE
8
BLACK
6
CONTINUOUS
10
96.2999999999999972
20
-135.7999999999999829
11
95.5999999999999943
21
-135.7999999999999829
0
LINE
8
BLACK
6
CONTINUOUS
10
104.6499999999999915
20
-133.
11
104.6499999999999915
21
-134.1999999999999886
0
LINE
8
BLACK
6
CONTINUOUS
10
104.6499999999999915
20
-133.
11
106.8499999999999943
21
-133.
0
LINE
8
BLACK
6
CONTINUOUS
10
106.8499999999999943
20
-133.
11
106.8499999999999943
21
-134.1999999999999886
0
LINE
8
BLACK
6
CONTINUOUS
10
106.8499999999999943
20
-134.1999999999999886
11
104.6499999999999915
21
-134.1999999999999886
0
LINE
8
BLACK
6
CONTINUOUS
10
109.5499999999999972
20
-128.4749999999999943
11
109.5499999999999972
21
-128.1999999999999886
0
LINE
8
BLACK
6
CONTINUOUS
10
109.5749999999999886
20
-125.8999999999999915
11
109.5749999999999886
21
-126.1999999999999886
0
LINE
8
BLACK
6
CONTINUOUS
10
109.8499999999999943
20
-125.8999999999999915
11
109.5749999999999886
21
-125.8999999999999915
0
LINE
8
BLACK
6
CONTINUOUS
10
109.8499999999999943
20
-128.4749999999999943
11
109.5499999999999972
21
-128.4749999999999943
0
LINE
8
BLACK
6
CONTINUOUS
10
111.8499999999999943
20
-125.8999999999999915
11
112.1499999999999915
21
-125.8999999999999915
0
LINE
8
BLACK
6
CONTINUOUS
10
111.8499999999999943
20
-128.4000000000000057
11
112.1499999999999915
21
-128.4000000000000057
0
LINE
8
BLACK
6
CONTINUOUS
10
112.1499999999999915
20
-125.8999999999999915
11
112.1499999999999915
21
-126.1999999999999886
0
CIRCLE
8
BLACK
10
111.75
20
-128.0999999999999943
40
0.046221
0
LINE
8
BLACK
6
CONTINUOUS
10
115.75
20
-118.5
11
115.75
21
-120.6999999999999886
0
LINE
8
BLACK
6
CONTINUOUS
10
115.75
20
-126.5
11
115.75
21
-124.2999999999999972
0
LINE
8
BLACK
6
CONTINUOUS
10
119.3499999999999943
20
-118.5
11
115.75
21
-118.5
0
LINE
8
BLACK
6
CONTINUOUS
10
119.3499999999999943
20
-126.5
11
115.75
21
-126.5
0
LINE
8
BLACK
6
CONTINUOUS
10
123.4499999999999886
20
-120.2999999999999972
11
123.4499999999999886
21
-124.6999999999999886
0
LINE
8
BLACK
6
CONTINUOUS
10
109.6499999999999915
20
-121.
11
110.8499999999999943
21
-121.
0
LINE
8
BLACK
6
CONTINUOUS
10
109.6499999999999915
20
-123.1999999999999886
11
109.6499999999999915
21
-121.
0
LINE
8
BLACK
6
CONTINUOUS
10
109.6499999999999915
20
-123.1999999999999886
11
110.8499999999999943
21
-123.1999999999999886
0
LINE
8
BLACK
6
CONTINUOUS
10
110.8499999999999943
20
-121.
11
110.8499999999999943
21
-123.1999999999999886
0
LINE
8
BLACK
6
CONTINUOUS
10
89.1400000000000006
20
-134.289999999999992
11
89.5899999999999892
21
-134.289999999999992
0
LINE
8
BLACK
6
CONTINUOUS
10
89.1400000000000006
20
-134.7399999999999807
11
89.1400000000000006
21
-134.289999999999992
0
LINE
8
BLACK
6
CONTINUOUS
10
89.1400000000000006
20
-137.0600000000000023
11
89.1400000000000006
21
-137.5099999999999909
0
LINE
8
BLACK
6
CONTINUOUS
10
92.3599999999999994
20
-134.289999999999992
11
91.9099999999999966
21
-134.289999999999992
0
LINE
8
BLACK
6
CONTINUOUS
10
92.3599999999999994
20
-134.7399999999999807
11
92.3599999999999994
21
-134.289999999999992
0
LINE
8
BLACK
6
CONTINUOUS
10
92.3599999999999994
20
-137.0600000000000023
11
92.3599999999999994
21
-137.5099999999999909
0
LINE
8
BLACK
6
CONTINUOUS
10
92.3599999999999994
20
-137.5099999999999909
11
91.9099999999999966
21
-137.5099999999999909
0
POLYLINE
8
BLACK
66
1
70
1
40
0.16
41
0.16
0
VERTEX
8
BLACK
10
89.4699999999999989
 20
-137.4000000000000057
42
1.0
0
VERTEX
8
BLACK
10
89.6299999999999955
 20
-137.4000000000000057
42
1.0
0
SEQEND
0
LINE
8
BLACK
6
CONTINUOUS
10
109.4499999999999886
20
-130.7999999999999829
11
110.6499999999999915
21
-130.7999999999999829
0
LINE
8
BLACK
6
CONTINUOUS
10
109.4499999999999886
20
-133.
11
109.4499999999999886
21
-130.7999999999999829
0
LINE
8
BLACK
6
CONTINUOUS
10
109.4499999999999886
20
-133.
11
110.6499999999999915
21
-133.
0
LINE
8
BLACK
6
CONTINUOUS
10
110.6499999999999915
20
-130.7999999999999829
11
110.6499999999999915
21
-133.
0
LINE
8
BLACK
6
CONTINUOUS
10
110.8499999999999943
20
-130.7999999999999829
11
112.0499999999999972
21
-130.7999999999999829
0
LINE
8
BLACK
6
CONTINUOUS
10
110.8499999999999943
20
-133.
11
110.8499999999999943
21
-130.7999999999999829
0
LINE
8
BLACK
6
CONTINUOUS
10
110.8499999999999943
20
-133.
11
112.0499999999999972
21
-133.
0
LINE
8
BLACK
6
CONTINUOUS
10
112.0499999999999972
20
-130.7999999999999829
11
112.0499999999999972
21
-133.
0
LINE
8
BLACK
6
CONTINUOUS
10
105.3999999999999915
20
-127.3999999999999915
11
106.0999999999999943
21
-127.3999999999999915
0
LINE
8
BLACK
6
CONTINUOUS
10
106.0999999999999943
20
-128.5999999999999943
11
105.3999999999999915
21
-128.5999999999999943
0
LINE
8
BLACK
6
CONTINUOUS
10
112.4499999999999886
20
-121.
11
113.6499999999999915
21
-121.
0
LINE
8
BLACK
6
CONTINUOUS
10
112.4499999999999886
20
-123.1999999999999886
11
112.4499999999999886
21
-121.
0
LINE
8
BLACK
6
CONTINUOUS
10
112.4499999999999886
20
-123.1999999999999886
11
113.6499999999999915
21
-123.1999999999999886
0
LINE
8
BLACK
6
CONTINUOUS
10
113.6499999999999915
20
-121.
11
113.6499999999999915
21
-123.1999999999999886
0
LINE
8
BLACK
6
CONTINUOUS
10
105.289999999999992
20
-116.3199999999999932
11
105.289999999999992
21
-117.25
0
LINE
8
BLACK
6
CONTINUOUS
10
105.289999999999992
20
-116.3199999999999932
11
106.75
21
-116.3199999999999932
0
LINE
8
BLACK
6
CONTINUOUS
10
105.289999999999992
20
-119.4799999999999898
11
105.289999999999992
21
-118.5499999999999972
0
LINE
8
BLACK
6
CONTINUOUS
10
105.289999999999992
20
-119.4799999999999898
11
107.4499999999999886
21
-119.4799999999999898
0
LINE
8
BLACK
6
CONTINUOUS
10
115.75
20
-127.3999999999999915
11
115.75
21
-129.5999999999999943
0
LINE
8
BLACK
6
CONTINUOUS
10
115.75
20
-135.4000000000000057
11
115.75
21
-133.1999999999999886
0
LINE
8
BLACK
6
CONTINUOUS
10
119.3499999999999943
20
-127.3999999999999915
11
115.75
21
-127.3999999999999915
0
LINE
8
BLACK
6
CONTINUOUS
10
119.3499999999999943
20
-135.4000000000000057
11
115.75
21
-135.4000000000000057
0
LINE
8
BLACK
6
CONTINUOUS
10
123.4499999999999886
20
-129.1999999999999886
11
123.4499999999999886
21
-133.5999999999999943
0
LINE
8
BLACK
6
CONTINUOUS
10
95.5994929999999954
20
-136.0092829999999822
11
96.2994929999999982
21
-136.0092829999999822
0
LINE
8
BLACK
6
CONTINUOUS
10
96.2994929999999982
20
-137.2092829999999992
11
95.5994929999999954
21
-137.2092829999999992
0
LINE
8
BLACK
6
CONTINUOUS
10
111.0499999999999972
20
-123.1999999999999886
11
111.0499999999999972
21
-121.
0
LINE
8
BLACK
6
CONTINUOUS
10
112.25
20
-121.
11
111.0499999999999972
21
-121.
0
LINE
8
BLACK
6
CONTINUOUS
10
112.25
20
-121.
11
112.25
21
-123.1999999999999886
0
LINE
8
BLACK
6
CONTINUOUS
10
112.25
20
-123.1999999999999886
11
111.0499999999999972
21
-123.1999999999999886
0
LINE
8
BLACK
6
CONTINUOUS
10
104.9499999999999886
20
-119.7999999999999972
11
107.1499999999999915
21
-119.7999999999999972
0
LINE
8
BLACK
6
CONTINUOUS
10
104.9499999999999886
20
-121.
11
104.9499999999999886
21
-119.7999999999999972
0
LINE
8
BLACK
6
CONTINUOUS
10
107.1499999999999915
20
-121.
11
104.9499999999999886
21
-121.
0
LINE
8
BLACK
6
CONTINUOUS
10
107.1499999999999915
20
-121.
11
107.1499999999999915
21
-119.7999999999999972
0
LINE
8
BLACK
6
CONTINUOUS
10
85.4500000000000028
20
-119.1999999999999886
11
85.4500000000000028
21
-135.1999999999999886
0
ARC
8
BLACK
10
88.6499999999999915
20
-119.1999999999999886
40
3.1999999999999997
50
90.00000000
51
180.00000000
0
LINE
8
BLACK
6
CONTINUOUS
10
88.6499999999999915
20
-138.4000000000000057
11
120.6499999999999915
21
-138.4000000000000057
0
ARC
8
BLACK
10
120.6499999999999915
20
-119.1999999999999886
40
3.1999999999999997
50
0.00000000
51
90.00000000
0
LINE
8
BLACK
6
CONTINUOUS
10
123.8499999999999943
20
-119.1999999999999886
11
123.8499999999999943
21
-135.1999999999999886
0
ARC
8
BLACK
10
88.6499999999999915
20
-135.1999999999999886
40
3.1999999999999997
50
-180.00000000
51
-90.00000000
0
ARC
8
BLACK
10
120.6499999999999915
20
-135.1999999999999886
40
3.1999999999999997
50
-90.00000000
51
-0.00000000
0
LINE
8
BLACK
6
CONTINUOUS
10
88.6499999999999915
20
-116.
11
120.6499999999999915
21
-116.
  0
ENDSEC
  0
EOF
