  0
SECTION
  2
HEADER
  9
$ANGBASE
  50
0.0
  9
$ANGDIR
  70
1
  9
$MEASUREMENT
  70
1
  0
ENDSEC
  0
SECTION
  2
TABLES
  0
TABLE
  2
LTYPE
  70
4
  0
LTYPE
  5
40F
  2
CONTINUOUS
  70
0
  3
Solid line
  72
65
  73
0
  40
0.0
  0
LTYPE
  5
410
  2
DASHDOT
 70
0
  3
Dash Dot ____ _ ____ _
 72
65
 73
4
 40
2.0
 49
1.25
 49
-0.25
 49
0.25
 49
-0.25
  0
LTYPE
  5
411
  2
DASHED
 70
0
  3
Dashed __ __ __ __ __
 72
65
 73
2
 40
0.75
 49
0.5
 49
-0.25
  0
LTYPE
  5
43B
  2
DOTTED
 70
0
  3
Dotted .  .  .  .
 72
65
 73
2
 40
0.2
 49
0.0
 49
-0.2
  0
ENDTAB
  0
TABLE
  2
STYLE
  70
4
  0
STYLE
  2
KICAD
  70
0
  40
0
  41
1
  42
1
  50
0
  71
0
  3
isocp.shx
  0
STYLE
  2
KICADB
  70
0
  40
0
  41
1
  42
1
  50
0
  71
0
  3
isocp.shx
  0
STYLE
  2
KICADI
  70
0
  40
0
  41
1
  42
1
  50
15
  71
0
  3
isocp.shx
  0
STYLE
  2
KICADBI
  70
0
  40
0
  41
1
  42
1
  50
15
  71
0
  3
isocp.shx
  0
ENDTAB
  0
TABLE
  2
LAYER
  70
1
  0
LAYER
  2
BLACK
  70
0
  62
7
  6
CONTINUOUS
  0
ENDTAB
  0
ENDSEC
  0
SECTION
  2
ENTITIES
0
LINE
8
BLACK
6
CONTINUOUS
10
114.1881519999999881
20
-31.9380939999999995
11
114.854818999999992
21
-31.9380939999999995
0
LINE
8
BLACK
6
CONTINUOUS
10
113.8071999999999946
20
-32.1761890000000008
11
114.5214849999999984
21
-32.414283999999995
0
LINE
8
BLACK
6
CONTINUOUS
10
114.5214849999999984
20
-32.414283999999995
11
114.5214849999999984
21
-31.7952370000000002
0
LINE
8
BLACK
6
CONTINUOUS
10
114.7595799999999997
20
-31.4142839999999985
11
114.8071999999999946
21
-31.3666649999999976
0
LINE
8
BLACK
6
CONTINUOUS
10
114.8071999999999946
20
-31.3666649999999976
11
114.854818999999992
21
-31.4142839999999985
0
LINE
8
BLACK
6
CONTINUOUS
10
114.854818999999992
20
-31.4142839999999985
11
114.8071999999999946
21
-31.4619029999999995
0
LINE
8
BLACK
6
CONTINUOUS
10
114.8071999999999946
20
-31.4619029999999995
11
114.7595799999999997
21
-31.4142839999999985
0
LINE
8
BLACK
6
CONTINUOUS
10
114.7595799999999997
20
-31.4142839999999985
11
114.854818999999992
21
-31.4142839999999985
0
LINE
8
BLACK
6
CONTINUOUS
10
113.854818999999992
20
-31.0333319999999979
11
113.854818999999992
21
-30.3666659999999986
0
LINE
8
BLACK
6
CONTINUOUS
10
113.854818999999992
20
-30.3666659999999986
11
114.854818999999992
21
-30.7952370000000002
0
LINE
8
BLACK
6
CONTINUOUS
10
114.854818999999992
20
-29.2238079999999982
11
114.1881519999999881
21
-29.2238079999999982
0
LINE
8
BLACK
6
CONTINUOUS
10
114.2833899999999971
20
-29.2238079999999982
11
114.2357709999999997
21
-29.1761889999999973
0
LINE
8
BLACK
6
CONTINUOUS
10
114.2357709999999997
20
-29.1761889999999973
11
114.1881519999999881
21
-29.0809509999999989
0
LINE
8
BLACK
6
CONTINUOUS
10
114.1881519999999881
20
-29.0809509999999989
11
114.1881519999999881
21
-28.9380939999999995
0
LINE
8
BLACK
6
CONTINUOUS
10
114.1881519999999881
20
-28.9380939999999995
11
114.2357709999999997
21
-28.8428559999999976
0
LINE
8
BLACK
6
CONTINUOUS
10
114.2357709999999997
20
-28.8428559999999976
11
114.3310089999999946
21
-28.7952370000000002
0
LINE
8
BLACK
6
CONTINUOUS
10
114.3310089999999946
20
-28.7952370000000002
11
114.854818999999992
21
-28.7952370000000002
0
LINE
8
BLACK
6
CONTINUOUS
10
114.3310089999999946
20
-28.7952370000000002
11
114.2357709999999997
21
-28.7476179999999992
0
LINE
8
BLACK
6
CONTINUOUS
10
114.2357709999999997
20
-28.7476179999999992
11
114.1881519999999881
21
-28.6523799999999973
0
LINE
8
BLACK
6
CONTINUOUS
10
114.1881519999999881
20
-28.6523799999999973
11
114.1881519999999881
21
-28.5095229999999979
0
LINE
8
BLACK
6
CONTINUOUS
10
114.1881519999999881
20
-28.5095229999999979
11
114.2357709999999997
21
-28.4142839999999985
0
LINE
8
BLACK
6
CONTINUOUS
10
114.2357709999999997
20
-28.4142839999999985
11
114.3310089999999946
21
-28.3666649999999976
0
LINE
8
BLACK
6
CONTINUOUS
10
114.3310089999999946
20
-28.3666649999999976
11
114.854818999999992
21
-28.3666649999999976
0
LINE
8
BLACK
6
CONTINUOUS
10
114.854818999999992
20
-27.8904749999999986
11
114.1881519999999881
21
-27.8904749999999986
0
LINE
8
BLACK
6
CONTINUOUS
10
114.2833899999999971
20
-27.8904749999999986
11
114.2357709999999997
21
-27.8428559999999976
0
LINE
8
BLACK
6
CONTINUOUS
10
114.2357709999999997
20
-27.8428559999999976
11
114.1881519999999881
21
-27.7476179999999992
0
LINE
8
BLACK
6
CONTINUOUS
10
114.1881519999999881
20
-27.7476179999999992
11
114.1881519999999881
21
-27.6047609999999999
0
LINE
8
BLACK
6
CONTINUOUS
10
114.1881519999999881
20
-27.6047609999999999
11
114.2357709999999997
21
-27.5095229999999979
0
LINE
8
BLACK
6
CONTINUOUS
10
114.2357709999999997
20
-27.5095229999999979
11
114.3310089999999946
21
-27.461903999999997
0
LINE
8
BLACK
6
CONTINUOUS
10
114.3310089999999946
20
-27.461903999999997
11
114.854818999999992
21
-27.461903999999997
0
LINE
8
BLACK
6
CONTINUOUS
10
114.3310089999999946
20
-27.461903999999997
11
114.2357709999999997
21
-27.4142849999999996
0
LINE
8
BLACK
6
CONTINUOUS
10
114.2357709999999997
20
-27.4142849999999996
11
114.1881519999999881
21
-27.3190469999999976
0
LINE
8
BLACK
6
CONTINUOUS
10
114.1881519999999881
20
-27.3190469999999976
11
114.1881519999999881
21
-27.1761899999999983
0
LINE
8
BLACK
6
CONTINUOUS
10
114.1881519999999881
20
-27.1761899999999983
11
114.2357709999999997
21
-27.0809509999999989
0
LINE
8
BLACK
6
CONTINUOUS
10
114.2357709999999997
20
-27.0809509999999989
11
114.3310089999999946
21
-27.0333319999999979
0
LINE
8
BLACK
6
CONTINUOUS
10
114.3310089999999946
20
-27.0333319999999979
11
114.854818999999992
21
-27.0333319999999979
0
LINE
8
BLACK
6
CONTINUOUS
10
108.8999999999999915
20
-21.75
11
114.9864199999999954
21
-21.75
0
LINE
8
BLACK
6
CONTINUOUS
10
108.8999999999999915
20
-26.4499999999999993
11
114.9864199999999954
21
-26.4499999999999993
0
LINE
8
BLACK
6
CONTINUOUS
10
114.3999999999999915
20
-21.75
11
114.3999999999999915
21
-26.1702379999999977
0
LINE
8
BLACK
6
CONTINUOUS
10
114.3999999999999915
20
-21.75
11
114.9864209999999929
21
-22.8765040000000006
0
LINE
8
BLACK
6
CONTINUOUS
10
114.3999999999999915
20
-21.75
11
113.8135789999999901
21
-22.8765040000000006
0
LINE
8
BLACK
6
CONTINUOUS
10
114.3999999999999915
20
-26.4499999999999993
11
113.8135789999999901
21
-25.3234959999999987
0
LINE
8
BLACK
6
CONTINUOUS
10
114.3999999999999915
20
-26.4499999999999993
11
114.9864209999999929
21
-25.3234959999999987
0
CIRCLE
8
BLACK
10
108.3999999999999915
20
-56.0999999999999943
40
2.3500000000000001
0
CIRCLE
8
BLACK
10
76.3999999999999915
20
-56.0999999999999943
40
2.3500000000000001
0
CIRCLE
8
BLACK
10
76.3999999999999915
20
-24.0999999999999979
40
2.3500000000000001
0
CIRCLE
8
BLACK
10
108.3999999999999915
20
-24.0999999999999979
40
2.3500000000000001
0
LINE
8
BLACK
6
CONTINUOUS
10
89.8761909999999915
20
-17.6048189999999991
11
90.4952380000000005
21
-17.6048189999999991
0
LINE
8
BLACK
6
CONTINUOUS
10
90.4952380000000005
20
-17.6048189999999991
11
90.1619049999999902
21
-17.9857709999999997
0
LINE
8
BLACK
6
CONTINUOUS
10
90.1619049999999902
20
-17.9857709999999997
11
90.3047619999999966
21
-17.9857709999999997
0
LINE
8
BLACK
6
CONTINUOUS
10
90.3047619999999966
20
-17.9857709999999997
11
90.3999999999999915
21
-18.0333900000000007
0
LINE
8
BLACK
6
CONTINUOUS
10
90.3999999999999915
20
-18.0333900000000007
11
90.4476189999999889
21
-18.0810089999999981
0
LINE
8
BLACK
6
CONTINUOUS
10
90.4476189999999889
20
-18.0810089999999981
11
90.4952380000000005
21
-18.176247
0
LINE
8
BLACK
6
CONTINUOUS
10
90.4952380000000005
20
-18.176247
11
90.4952380000000005
21
-18.4143419999999978
0
LINE
8
BLACK
6
CONTINUOUS
10
90.4952380000000005
20
-18.4143419999999978
11
90.4476189999999889
21
-18.5095799999999997
0
LINE
8
BLACK
6
CONTINUOUS
10
90.4476189999999889
20
-18.5095799999999997
11
90.3999999999999915
21
-18.5571999999999981
0
LINE
8
BLACK
6
CONTINUOUS
10
90.3999999999999915
20
-18.5571999999999981
11
90.3047619999999966
21
-18.6048189999999991
0
LINE
8
BLACK
6
CONTINUOUS
10
90.3047619999999966
20
-18.6048189999999991
11
90.019047999999998
21
-18.6048189999999991
0
LINE
8
BLACK
6
CONTINUOUS
10
90.019047999999998
20
-18.6048189999999991
11
89.9238099999999889
21
-18.5571999999999981
0
LINE
8
BLACK
6
CONTINUOUS
10
89.9238099999999889
20
-18.5571999999999981
11
89.8761909999999915
21
-18.5095799999999997
0
LINE
8
BLACK
6
CONTINUOUS
10
90.8761909999999915
20
-17.7000569999999975
11
90.9238099999999889
21
-17.6524380000000001
0
LINE
8
BLACK
6
CONTINUOUS
10
90.9238099999999889
20
-17.6524380000000001
11
91.019047999999998
21
-17.6048189999999991
0
LINE
8
BLACK
6
CONTINUOUS
10
91.019047999999998
20
-17.6048189999999991
11
91.2571429999999992
21
-17.6048189999999991
0
LINE
8
BLACK
6
CONTINUOUS
10
91.2571429999999992
20
-17.6048189999999991
11
91.3523809999999941
21
-17.6524380000000001
0
LINE
8
BLACK
6
CONTINUOUS
10
91.3523809999999941
20
-17.6524380000000001
11
91.3999999999999915
21
-17.7000569999999975
0
LINE
8
BLACK
6
CONTINUOUS
10
91.3999999999999915
20
-17.7000569999999975
11
91.4476189999999889
21
-17.7952949999999994
0
LINE
8
BLACK
6
CONTINUOUS
10
91.4476189999999889
20
-17.7952949999999994
11
91.4476189999999889
21
-17.8905329999999978
0
LINE
8
BLACK
6
CONTINUOUS
10
91.4476189999999889
20
-17.8905329999999978
11
91.3999999999999915
21
-18.0333900000000007
0
LINE
8
BLACK
6
CONTINUOUS
10
91.3999999999999915
20
-18.0333900000000007
11
90.8285719999999941
21
-18.6048189999999991
0
LINE
8
BLACK
6
CONTINUOUS
10
90.8285719999999941
20
-18.6048189999999991
11
91.4476189999999889
21
-18.6048189999999991
0
LINE
8
BLACK
6
CONTINUOUS
10
92.6380959999999902
20
-18.6048189999999991
11
92.6380959999999902
21
-17.9381519999999988
0
LINE
8
BLACK
6
CONTINUOUS
10
92.6380959999999902
20
-18.0333900000000007
11
92.6857150000000019
21
-17.9857709999999997
0
LINE
8
BLACK
6
CONTINUOUS
10
92.6857150000000019
20
-17.9857709999999997
11
92.7809529999999967
21
-17.9381519999999988
0
LINE
8
BLACK
6
CONTINUOUS
10
92.7809529999999967
20
-17.9381519999999988
11
92.9238099999999889
21
-17.9381519999999988
0
LINE
8
BLACK
6
CONTINUOUS
10
92.9238099999999889
20
-17.9381519999999988
11
93.019047999999998
21
-17.9857709999999997
0
LINE
8
BLACK
6
CONTINUOUS
10
93.019047999999998
20
-17.9857709999999997
11
93.0666669999999954
21
-18.0810089999999981
0
LINE
8
BLACK
6
CONTINUOUS
10
93.0666669999999954
20
-18.0810089999999981
11
93.0666669999999954
21
-18.6048189999999991
0
LINE
8
BLACK
6
CONTINUOUS
10
93.0666669999999954
20
-18.0810089999999981
11
93.1142859999999928
21
-17.9857709999999997
0
LINE
8
BLACK
6
CONTINUOUS
10
93.1142859999999928
20
-17.9857709999999997
11
93.2095240000000018
21
-17.9381519999999988
0
LINE
8
BLACK
6
CONTINUOUS
10
93.2095240000000018
20
-17.9381519999999988
11
93.3523809999999941
21
-17.9381519999999988
0
LINE
8
BLACK
6
CONTINUOUS
10
93.3523809999999941
20
-17.9381519999999988
11
93.4476200000000006
21
-17.9857709999999997
0
LINE
8
BLACK
6
CONTINUOUS
10
93.4476200000000006
20
-17.9857709999999997
11
93.495238999999998
21
-18.0810089999999981
0
LINE
8
BLACK
6
CONTINUOUS
10
93.495238999999998
20
-18.0810089999999981
11
93.495238999999998
21
-18.6048189999999991
0
LINE
8
BLACK
6
CONTINUOUS
10
93.9714290000000005
20
-18.6048189999999991
11
93.9714290000000005
21
-17.9381519999999988
0
LINE
8
BLACK
6
CONTINUOUS
10
93.9714290000000005
20
-18.0333900000000007
11
94.019047999999998
21
-17.9857709999999997
0
LINE
8
BLACK
6
CONTINUOUS
10
94.019047999999998
20
-17.9857709999999997
11
94.1142859999999928
21
-17.9381519999999988
0
LINE
8
BLACK
6
CONTINUOUS
10
94.1142859999999928
20
-17.9381519999999988
11
94.2571429999999992
21
-17.9381519999999988
0
LINE
8
BLACK
6
CONTINUOUS
10
94.2571429999999992
20
-17.9381519999999988
11
94.3523809999999941
21
-17.9857709999999997
0
LINE
8
BLACK
6
CONTINUOUS
10
94.3523809999999941
20
-17.9857709999999997
11
94.3999999999999915
21
-18.0810089999999981
0
LINE
8
BLACK
6
CONTINUOUS
10
94.3999999999999915
20
-18.0810089999999981
11
94.3999999999999915
21
-18.6048189999999991
0
LINE
8
BLACK
6
CONTINUOUS
10
94.3999999999999915
20
-18.0810089999999981
11
94.4476189999999889
21
-17.9857709999999997
0
LINE
8
BLACK
6
CONTINUOUS
10
94.4476189999999889
20
-17.9857709999999997
11
94.5428569999999979
21
-17.9381519999999988
0
LINE
8
BLACK
6
CONTINUOUS
10
94.5428569999999979
20
-17.9381519999999988
11
94.6857139999999902
21
-17.9381519999999988
0
LINE
8
BLACK
6
CONTINUOUS
10
94.6857139999999902
20
-17.9381519999999988
11
94.7809529999999967
21
-17.9857709999999997
0
LINE
8
BLACK
6
CONTINUOUS
10
94.7809529999999967
20
-17.9857709999999997
11
94.8285719999999941
21
-18.0810089999999981
0
LINE
8
BLACK
6
CONTINUOUS
10
94.8285719999999941
20
-18.0810089999999981
11
94.8285719999999941
21
-18.6048189999999991
0
LINE
8
BLACK
6
CONTINUOUS
10
76.3999999999999915
20
-23.5999999999999979
11
76.3999999999999915
21
-17.5635799999999982
0
LINE
8
BLACK
6
CONTINUOUS
10
108.3999999999999915
20
-23.5999999999999979
11
108.3999999999999915
21
-17.5635799999999982
0
LINE
8
BLACK
6
CONTINUOUS
10
76.3999999999999915
20
-18.1499999999999986
11
89.1083339999999993
21
-18.1499999999999986
0
LINE
8
BLACK
6
CONTINUOUS
10
95.6916669999999954
20
-18.1499999999999986
11
108.3999999999999915
21
-18.1499999999999986
0
LINE
8
BLACK
6
CONTINUOUS
10
76.3999999999999915
20
-18.1499999999999986
11
77.5265040000000027
21
-17.5635790000000007
0
LINE
8
BLACK
6
CONTINUOUS
10
76.3999999999999915
20
-18.1499999999999986
11
77.5265040000000027
21
-18.736421
0
LINE
8
BLACK
6
CONTINUOUS
10
108.3999999999999915
20
-18.1499999999999986
11
107.2734959999999944
21
-18.736421
0
LINE
8
BLACK
6
CONTINUOUS
10
108.3999999999999915
20
-18.1499999999999986
11
107.2734959999999944
21
-17.5635790000000007
0
LINE
8
BLACK
6
CONTINUOUS
10
69.9048190000000034
20
-42.6238079999999968
11
69.9048190000000034
21
-42.0047609999999949
0
LINE
8
BLACK
6
CONTINUOUS
10
69.9048190000000034
20
-42.0047609999999949
11
70.2857709999999969
21
-42.3380939999999981
0
LINE
8
BLACK
6
CONTINUOUS
10
70.2857709999999969
20
-42.3380939999999981
11
70.2857709999999969
21
-42.1952369999999988
0
LINE
8
BLACK
6
CONTINUOUS
10
70.2857709999999969
20
-42.1952369999999988
11
70.3333899999999943
21
-42.0999989999999968
0
LINE
8
BLACK
6
CONTINUOUS
10
70.3333899999999943
20
-42.0999989999999968
11
70.3810089999999917
21
-42.0523799999999994
0
LINE
8
BLACK
6
CONTINUOUS
10
70.3810089999999917
20
-42.0523799999999994
11
70.4762470000000008
21
-42.0047609999999949
0
LINE
8
BLACK
6
CONTINUOUS
10
70.4762470000000008
20
-42.0047609999999949
11
70.714342000000002
21
-42.0047609999999949
0
LINE
8
BLACK
6
CONTINUOUS
10
70.714342000000002
20
-42.0047609999999949
11
70.8095799999999969
21
-42.0523799999999994
0
LINE
8
BLACK
6
CONTINUOUS
10
70.8095799999999969
20
-42.0523799999999994
11
70.8571999999999917
21
-42.0999989999999968
0
LINE
8
BLACK
6
CONTINUOUS
10
70.8571999999999917
20
-42.0999989999999968
11
70.9048190000000034
21
-42.1952369999999988
0
LINE
8
BLACK
6
CONTINUOUS
10
70.9048190000000034
20
-42.1952369999999988
11
70.9048190000000034
21
-42.4809509999999975
0
LINE
8
BLACK
6
CONTINUOUS
10
70.9048190000000034
20
-42.4809509999999975
11
70.8571999999999917
21
-42.5761889999999994
0
LINE
8
BLACK
6
CONTINUOUS
10
70.8571999999999917
20
-42.5761889999999994
11
70.8095799999999969
21
-42.6238079999999968
0
LINE
8
BLACK
6
CONTINUOUS
10
70.0000569999999982
20
-41.6238079999999968
11
69.9524380000000008
21
-41.5761889999999994
0
LINE
8
BLACK
6
CONTINUOUS
10
69.9524380000000008
20
-41.5761889999999994
11
69.9048190000000034
21
-41.4809509999999975
0
LINE
8
BLACK
6
CONTINUOUS
10
69.9048190000000034
20
-41.4809509999999975
11
69.9048190000000034
21
-41.2428559999999962
0
LINE
8
BLACK
6
CONTINUOUS
10
69.9048190000000034
20
-41.2428559999999962
11
69.9524380000000008
21
-41.1476180000000014
0
LINE
8
BLACK
6
CONTINUOUS
10
69.9524380000000008
20
-41.1476180000000014
11
70.0000569999999982
21
-41.0999989999999968
0
LINE
8
BLACK
6
CONTINUOUS
10
70.0000569999999982
20
-41.0999989999999968
11
70.095294999999993
21
-41.0523799999999994
0
LINE
8
BLACK
6
CONTINUOUS
10
70.095294999999993
20
-41.0523799999999994
11
70.1905330000000021
21
-41.0523799999999994
0
LINE
8
BLACK
6
CONTINUOUS
10
70.1905330000000021
20
-41.0523799999999994
11
70.3333899999999943
21
-41.0999989999999968
0
LINE
8
BLACK
6
CONTINUOUS
10
70.3333899999999943
20
-41.0999989999999968
11
70.9048190000000034
21
-41.6714270000000013
0
LINE
8
BLACK
6
CONTINUOUS
10
70.9048190000000034
20
-41.6714270000000013
11
70.9048190000000034
21
-41.0523799999999994
0
LINE
8
BLACK
6
CONTINUOUS
10
70.9048190000000034
20
-39.8619029999999981
11
70.2381519999999995
21
-39.8619029999999981
0
LINE
8
BLACK
6
CONTINUOUS
10
70.3333899999999943
20
-39.8619029999999981
11
70.2857709999999969
21
-39.8142840000000007
0
LINE
8
BLACK
6
CONTINUOUS
10
70.2857709999999969
20
-39.8142840000000007
11
70.2381519999999995
21
-39.7190459999999987
0
LINE
8
BLACK
6
CONTINUOUS
10
70.2381519999999995
20
-39.7190459999999987
11
70.2381519999999995
21
-39.5761889999999994
0
LINE
8
BLACK
6
CONTINUOUS
10
70.2381519999999995
20
-39.5761889999999994
11
70.2857709999999969
21
-39.4809509999999975
0
LINE
8
BLACK
6
CONTINUOUS
10
70.2857709999999969
20
-39.4809509999999975
11
70.3810089999999917
21
-39.4333320000000001
0
LINE
8
BLACK
6
CONTINUOUS
10
70.3810089999999917
20
-39.4333320000000001
11
70.9048190000000034
21
-39.4333320000000001
0
LINE
8
BLACK
6
CONTINUOUS
10
70.3810089999999917
20
-39.4333320000000001
11
70.2857709999999969
21
-39.3857129999999955
0
LINE
8
BLACK
6
CONTINUOUS
10
70.2857709999999969
20
-39.3857129999999955
11
70.2381519999999995
21
-39.2904750000000007
0
LINE
8
BLACK
6
CONTINUOUS
10
70.2381519999999995
20
-39.2904750000000007
11
70.2381519999999995
21
-39.1476180000000014
0
LINE
8
BLACK
6
CONTINUOUS
10
70.2381519999999995
20
-39.1476180000000014
11
70.2857709999999969
21
-39.0523789999999948
0
LINE
8
BLACK
6
CONTINUOUS
10
70.2857709999999969
20
-39.0523789999999948
11
70.3810089999999917
21
-39.0047599999999974
0
LINE
8
BLACK
6
CONTINUOUS
10
70.3810089999999917
20
-39.0047599999999974
11
70.9048190000000034
21
-39.0047599999999974
0
LINE
8
BLACK
6
CONTINUOUS
10
70.9048190000000034
20
-38.5285699999999949
11
70.2381519999999995
21
-38.5285699999999949
0
LINE
8
BLACK
6
CONTINUOUS
10
70.3333899999999943
20
-38.5285699999999949
11
70.2857709999999969
21
-38.4809509999999975
0
LINE
8
BLACK
6
CONTINUOUS
10
70.2857709999999969
20
-38.4809509999999975
11
70.2381519999999995
21
-38.3857129999999955
0
LINE
8
BLACK
6
CONTINUOUS
10
70.2381519999999995
20
-38.3857129999999955
11
70.2381519999999995
21
-38.2428559999999962
0
LINE
8
BLACK
6
CONTINUOUS
10
70.2381519999999995
20
-38.2428559999999962
11
70.2857709999999969
21
-38.1476180000000014
0
LINE
8
BLACK
6
CONTINUOUS
10
70.2857709999999969
20
-38.1476180000000014
11
70.3810089999999917
21
-38.0999989999999968
0
LINE
8
BLACK
6
CONTINUOUS
10
70.3810089999999917
20
-38.0999989999999968
11
70.9048190000000034
21
-38.0999989999999968
0
LINE
8
BLACK
6
CONTINUOUS
10
70.3810089999999917
20
-38.0999989999999968
11
70.2857709999999969
21
-38.0523799999999994
0
LINE
8
BLACK
6
CONTINUOUS
10
70.2857709999999969
20
-38.0523799999999994
11
70.2381519999999995
21
-37.9571419999999975
0
LINE
8
BLACK
6
CONTINUOUS
10
70.2381519999999995
20
-37.9571419999999975
11
70.2381519999999995
21
-37.8142849999999981
0
LINE
8
BLACK
6
CONTINUOUS
10
70.2381519999999995
20
-37.8142849999999981
11
70.2857709999999969
21
-37.7190459999999987
0
LINE
8
BLACK
6
CONTINUOUS
10
70.2857709999999969
20
-37.7190459999999987
11
70.3810089999999917
21
-37.6714270000000013
0
LINE
8
BLACK
6
CONTINUOUS
10
70.3810089999999917
20
-37.6714270000000013
11
70.9048190000000034
21
-37.6714270000000013
0
LINE
8
BLACK
6
CONTINUOUS
10
75.8999999999999915
20
-56.0999999999999943
11
69.8635799999999989
21
-56.0999999999999943
0
LINE
8
BLACK
6
CONTINUOUS
10
75.8999999999999915
20
-24.0999999999999979
11
69.8635799999999989
21
-24.0999999999999979
0
LINE
8
BLACK
6
CONTINUOUS
10
70.4500000000000028
20
-56.0999999999999943
11
70.4500000000000028
21
-43.3916660000000007
0
LINE
8
BLACK
6
CONTINUOUS
10
70.4500000000000028
20
-36.8083329999999975
11
70.4500000000000028
21
-24.0999999999999979
0
LINE
8
BLACK
6
CONTINUOUS
10
70.4500000000000028
20
-56.0999999999999943
11
69.8635790000000014
21
-54.9734959999999973
0
LINE
8
BLACK
6
CONTINUOUS
10
70.4500000000000028
20
-56.0999999999999943
11
71.03642099999999
21
-54.9734959999999973
0
LINE
8
BLACK
6
CONTINUOUS
10
70.4500000000000028
20
-24.0999999999999979
11
71.03642099999999
21
-25.2265039999999985
0
LINE
8
BLACK
6
CONTINUOUS
10
70.4500000000000028
20
-24.0999999999999979
11
69.8635790000000014
21
-25.2265039999999985
0
LINE
8
BLACK
6
CONTINUOUS
10
67.5381519999999966
20
-42.0999989999999968
11
68.2048190000000005
21
-42.0999989999999968
0
LINE
8
BLACK
6
CONTINUOUS
10
67.1572000000000031
20
-42.3380939999999981
11
67.8714849999999927
21
-42.5761889999999994
0
LINE
8
BLACK
6
CONTINUOUS
10
67.8714849999999927
20
-42.5761889999999994
11
67.8714849999999927
21
-41.9571419999999975
0
LINE
8
BLACK
6
CONTINUOUS
10
67.2048190000000005
20
-41.3857129999999955
11
67.2048190000000005
21
-41.2904750000000007
0
LINE
8
BLACK
6
CONTINUOUS
10
67.2048190000000005
20
-41.2904750000000007
11
67.2524379999999979
21
-41.1952369999999988
0
LINE
8
BLACK
6
CONTINUOUS
10
67.2524379999999979
20
-41.1952369999999988
11
67.3000569999999954
21
-41.1476180000000014
0
LINE
8
BLACK
6
CONTINUOUS
10
67.3000569999999954
20
-41.1476180000000014
11
67.3952949999999902
21
-41.0999989999999968
0
LINE
8
BLACK
6
CONTINUOUS
10
67.3952949999999902
20
-41.0999989999999968
11
67.585770999999994
21
-41.0523799999999994
0
LINE
8
BLACK
6
CONTINUOUS
10
67.585770999999994
20
-41.0523799999999994
11
67.8238659999999953
21
-41.0523799999999994
0
LINE
8
BLACK
6
CONTINUOUS
10
67.8238659999999953
20
-41.0523799999999994
11
68.0143419999999992
21
-41.0999989999999968
0
LINE
8
BLACK
6
CONTINUOUS
10
68.0143419999999992
20
-41.0999989999999968
11
68.109579999999994
21
-41.1476180000000014
0
LINE
8
BLACK
6
CONTINUOUS
10
68.109579999999994
20
-41.1476180000000014
11
68.1572000000000031
21
-41.1952369999999988
0
LINE
8
BLACK
6
CONTINUOUS
10
68.1572000000000031
20
-41.1952369999999988
11
68.2048190000000005
21
-41.2904750000000007
0
LINE
8
BLACK
6
CONTINUOUS
10
68.2048190000000005
20
-41.2904750000000007
11
68.2048190000000005
21
-41.3857129999999955
0
LINE
8
BLACK
6
CONTINUOUS
10
68.2048190000000005
20
-41.3857129999999955
11
68.1572000000000031
21
-41.4809509999999975
0
LINE
8
BLACK
6
CONTINUOUS
10
68.1572000000000031
20
-41.4809509999999975
11
68.109579999999994
21
-41.5285699999999949
0
LINE
8
BLACK
6
CONTINUOUS
10
68.109579999999994
20
-41.5285699999999949
11
68.0143419999999992
21
-41.5761889999999994
0
LINE
8
BLACK
6
CONTINUOUS
10
68.0143419999999992
20
-41.5761889999999994
11
67.8238659999999953
21
-41.6238079999999968
0
LINE
8
BLACK
6
CONTINUOUS
10
67.8238659999999953
20
-41.6238079999999968
11
67.585770999999994
21
-41.6238079999999968
0
LINE
8
BLACK
6
CONTINUOUS
10
67.585770999999994
20
-41.6238079999999968
11
67.3952949999999902
21
-41.5761889999999994
0
LINE
8
BLACK
6
CONTINUOUS
10
67.3952949999999902
20
-41.5761889999999994
11
67.3000569999999954
21
-41.5285699999999949
0
LINE
8
BLACK
6
CONTINUOUS
10
67.3000569999999954
20
-41.5285699999999949
11
67.2524379999999979
21
-41.4809509999999975
0
LINE
8
BLACK
6
CONTINUOUS
10
67.2524379999999979
20
-41.4809509999999975
11
67.2048190000000005
21
-41.3857129999999955
0
LINE
8
BLACK
6
CONTINUOUS
10
68.2048190000000005
20
-39.8619029999999981
11
67.5381519999999966
21
-39.8619029999999981
0
LINE
8
BLACK
6
CONTINUOUS
10
67.6333899999999915
20
-39.8619029999999981
11
67.585770999999994
21
-39.8142840000000007
0
LINE
8
BLACK
6
CONTINUOUS
10
67.585770999999994
20
-39.8142840000000007
11
67.5381519999999966
21
-39.7190459999999987
0
LINE
8
BLACK
6
CONTINUOUS
10
67.5381519999999966
20
-39.7190459999999987
11
67.5381519999999966
21
-39.5761889999999994
0
LINE
8
BLACK
6
CONTINUOUS
10
67.5381519999999966
20
-39.5761889999999994
11
67.585770999999994
21
-39.4809509999999975
0
LINE
8
BLACK
6
CONTINUOUS
10
67.585770999999994
20
-39.4809509999999975
11
67.6810090000000031
21
-39.4333320000000001
0
LINE
8
BLACK
6
CONTINUOUS
10
67.6810090000000031
20
-39.4333320000000001
11
68.2048190000000005
21
-39.4333320000000001
0
LINE
8
BLACK
6
CONTINUOUS
10
67.6810090000000031
20
-39.4333320000000001
11
67.585770999999994
21
-39.3857129999999955
0
LINE
8
BLACK
6
CONTINUOUS
10
67.585770999999994
20
-39.3857129999999955
11
67.5381519999999966
21
-39.2904750000000007
0
LINE
8
BLACK
6
CONTINUOUS
10
67.5381519999999966
20
-39.2904750000000007
11
67.5381519999999966
21
-39.1476180000000014
0
LINE
8
BLACK
6
CONTINUOUS
10
67.5381519999999966
20
-39.1476180000000014
11
67.585770999999994
21
-39.0523789999999948
0
LINE
8
BLACK
6
CONTINUOUS
10
67.585770999999994
20
-39.0523789999999948
11
67.6810090000000031
21
-39.0047599999999974
0
LINE
8
BLACK
6
CONTINUOUS
10
67.6810090000000031
20
-39.0047599999999974
11
68.2048190000000005
21
-39.0047599999999974
0
LINE
8
BLACK
6
CONTINUOUS
10
68.2048190000000005
20
-38.5285699999999949
11
67.5381519999999966
21
-38.5285699999999949
0
LINE
8
BLACK
6
CONTINUOUS
10
67.6333899999999915
20
-38.5285699999999949
11
67.585770999999994
21
-38.4809509999999975
0
LINE
8
BLACK
6
CONTINUOUS
10
67.585770999999994
20
-38.4809509999999975
11
67.5381519999999966
21
-38.3857129999999955
0
LINE
8
BLACK
6
CONTINUOUS
10
67.5381519999999966
20
-38.3857129999999955
11
67.5381519999999966
21
-38.2428559999999962
0
LINE
8
BLACK
6
CONTINUOUS
10
67.5381519999999966
20
-38.2428559999999962
11
67.585770999999994
21
-38.1476180000000014
0
LINE
8
BLACK
6
CONTINUOUS
10
67.585770999999994
20
-38.1476180000000014
11
67.6810090000000031
21
-38.0999989999999968
0
LINE
8
BLACK
6
CONTINUOUS
10
67.6810090000000031
20
-38.0999989999999968
11
68.2048190000000005
21
-38.0999989999999968
0
LINE
8
BLACK
6
CONTINUOUS
10
67.6810090000000031
20
-38.0999989999999968
11
67.585770999999994
21
-38.0523799999999994
0
LINE
8
BLACK
6
CONTINUOUS
10
67.585770999999994
20
-38.0523799999999994
11
67.5381519999999966
21
-37.9571419999999975
0
LINE
8
BLACK
6
CONTINUOUS
10
67.5381519999999966
20
-37.9571419999999975
11
67.5381519999999966
21
-37.8142849999999981
0
LINE
8
BLACK
6
CONTINUOUS
10
67.5381519999999966
20
-37.8142849999999981
11
67.585770999999994
21
-37.7190459999999987
0
LINE
8
BLACK
6
CONTINUOUS
10
67.585770999999994
20
-37.7190459999999987
11
67.6810090000000031
21
-37.6714270000000013
0
LINE
8
BLACK
6
CONTINUOUS
10
67.6810090000000031
20
-37.6714270000000013
11
68.2048190000000005
21
-37.6714270000000013
0
LINE
8
BLACK
6
CONTINUOUS
10
75.3999999999999915
20
-60.0999999999999943
11
67.1635799999999961
21
-60.0999999999999943
0
LINE
8
BLACK
6
CONTINUOUS
10
75.3999999999999915
20
-20.0999999999999979
11
67.1635799999999961
21
-20.0999999999999979
0
LINE
8
BLACK
6
CONTINUOUS
10
67.75
20
-60.0999999999999943
11
67.75
21
-43.3916660000000007
0
LINE
8
BLACK
6
CONTINUOUS
10
67.75
20
-36.8083329999999975
11
67.75
21
-20.0999999999999979
0
LINE
8
BLACK
6
CONTINUOUS
10
67.75
20
-60.0999999999999943
11
67.1635789999999986
21
-58.9734959999999973
0
LINE
8
BLACK
6
CONTINUOUS
10
67.75
20
-60.0999999999999943
11
68.3364210000000014
21
-58.9734959999999973
0
LINE
8
BLACK
6
CONTINUOUS
10
67.75
20
-20.0999999999999979
11
68.3364210000000014
21
-21.2265039999999985
0
LINE
8
BLACK
6
CONTINUOUS
10
67.75
20
-20.0999999999999979
11
67.1635789999999986
21
-21.2265039999999985
0
LINE
8
BLACK
6
CONTINUOUS
10
90.3999999999999915
20
-15.2381519999999995
11
90.3999999999999915
21
-15.9048189999999998
0
LINE
8
BLACK
6
CONTINUOUS
10
90.1619049999999902
20
-14.8571999999999989
11
89.9238099999999889
21
-15.5714849999999991
0
LINE
8
BLACK
6
CONTINUOUS
10
89.9238099999999889
20
-15.5714849999999991
11
90.5428569999999979
21
-15.5714849999999991
0
LINE
8
BLACK
6
CONTINUOUS
10
91.1142859999999928
20
-14.9048189999999998
11
91.2095240000000018
21
-14.9048189999999998
0
LINE
8
BLACK
6
CONTINUOUS
10
91.2095240000000018
20
-14.9048189999999998
11
91.3047619999999966
21
-14.952437999999999
0
LINE
8
BLACK
6
CONTINUOUS
10
91.3047619999999966
20
-14.952437999999999
11
91.3523809999999941
21
-15.000057
0
LINE
8
BLACK
6
CONTINUOUS
10
91.3523809999999941
20
-15.000057
11
91.3999999999999915
21
-15.0952950000000001
0
LINE
8
BLACK
6
CONTINUOUS
10
91.3999999999999915
20
-15.0952950000000001
11
91.4476189999999889
21
-15.2857709999999987
0
LINE
8
BLACK
6
CONTINUOUS
10
91.4476189999999889
20
-15.2857709999999987
11
91.4476189999999889
21
-15.5238659999999999
0
LINE
8
BLACK
6
CONTINUOUS
10
91.4476189999999889
20
-15.5238659999999999
11
91.3999999999999915
21
-15.7143419999999985
0
LINE
8
BLACK
6
CONTINUOUS
10
91.3999999999999915
20
-15.7143419999999985
11
91.3523809999999941
21
-15.8095799999999986
0
LINE
8
BLACK
6
CONTINUOUS
10
91.3523809999999941
20
-15.8095799999999986
11
91.3047619999999966
21
-15.8571999999999989
0
LINE
8
BLACK
6
CONTINUOUS
10
91.3047619999999966
20
-15.8571999999999989
11
91.2095240000000018
21
-15.9048189999999998
0
LINE
8
BLACK
6
CONTINUOUS
10
91.2095240000000018
20
-15.9048189999999998
11
91.1142859999999928
21
-15.9048189999999998
0
LINE
8
BLACK
6
CONTINUOUS
10
91.1142859999999928
20
-15.9048189999999998
11
91.019047999999998
21
-15.8571999999999989
0
LINE
8
BLACK
6
CONTINUOUS
10
91.019047999999998
20
-15.8571999999999989
11
90.9714290000000005
21
-15.8095799999999986
0
LINE
8
BLACK
6
CONTINUOUS
10
90.9714290000000005
20
-15.8095799999999986
11
90.9238099999999889
21
-15.7143419999999985
0
LINE
8
BLACK
6
CONTINUOUS
10
90.9238099999999889
20
-15.7143419999999985
11
90.8761909999999915
21
-15.5238659999999999
0
LINE
8
BLACK
6
CONTINUOUS
10
90.8761909999999915
20
-15.5238659999999999
11
90.8761909999999915
21
-15.2857709999999987
0
LINE
8
BLACK
6
CONTINUOUS
10
90.8761909999999915
20
-15.2857709999999987
11
90.9238099999999889
21
-15.0952950000000001
0
LINE
8
BLACK
6
CONTINUOUS
10
90.9238099999999889
20
-15.0952950000000001
11
90.9714290000000005
21
-15.000057
0
LINE
8
BLACK
6
CONTINUOUS
10
90.9714290000000005
20
-15.000057
11
91.019047999999998
21
-14.952437999999999
0
LINE
8
BLACK
6
CONTINUOUS
10
91.019047999999998
20
-14.952437999999999
11
91.1142859999999928
21
-14.9048189999999998
0
LINE
8
BLACK
6
CONTINUOUS
10
92.6380959999999902
20
-15.9048189999999998
11
92.6380959999999902
21
-15.2381519999999995
0
LINE
8
BLACK
6
CONTINUOUS
10
92.6380959999999902
20
-15.3333899999999996
11
92.6857150000000019
21
-15.2857709999999987
0
LINE
8
BLACK
6
CONTINUOUS
10
92.6857150000000019
20
-15.2857709999999987
11
92.7809529999999967
21
-15.2381519999999995
0
LINE
8
BLACK
6
CONTINUOUS
10
92.7809529999999967
20
-15.2381519999999995
11
92.9238099999999889
21
-15.2381519999999995
0
LINE
8
BLACK
6
CONTINUOUS
10
92.9238099999999889
20
-15.2381519999999995
11
93.019047999999998
21
-15.2857709999999987
0
LINE
8
BLACK
6
CONTINUOUS
10
93.019047999999998
20
-15.2857709999999987
11
93.0666669999999954
21
-15.3810089999999988
0
LINE
8
BLACK
6
CONTINUOUS
10
93.0666669999999954
20
-15.3810089999999988
11
93.0666669999999954
21
-15.9048189999999998
0
LINE
8
BLACK
6
CONTINUOUS
10
93.0666669999999954
20
-15.3810089999999988
11
93.1142859999999928
21
-15.2857709999999987
0
LINE
8
BLACK
6
CONTINUOUS
10
93.1142859999999928
20
-15.2857709999999987
11
93.2095240000000018
21
-15.2381519999999995
0
LINE
8
BLACK
6
CONTINUOUS
10
93.2095240000000018
20
-15.2381519999999995
11
93.3523809999999941
21
-15.2381519999999995
0
LINE
8
BLACK
6
CONTINUOUS
10
93.3523809999999941
20
-15.2381519999999995
11
93.4476200000000006
21
-15.2857709999999987
0
LINE
8
BLACK
6
CONTINUOUS
10
93.4476200000000006
20
-15.2857709999999987
11
93.495238999999998
21
-15.3810089999999988
0
LINE
8
BLACK
6
CONTINUOUS
10
93.495238999999998
20
-15.3810089999999988
11
93.495238999999998
21
-15.9048189999999998
0
LINE
8
BLACK
6
CONTINUOUS
10
93.9714290000000005
20
-15.9048189999999998
11
93.9714290000000005
21
-15.2381519999999995
0
LINE
8
BLACK
6
CONTINUOUS
10
93.9714290000000005
20
-15.3333899999999996
11
94.019047999999998
21
-15.2857709999999987
0
LINE
8
BLACK
6
CONTINUOUS
10
94.019047999999998
20
-15.2857709999999987
11
94.1142859999999928
21
-15.2381519999999995
0
LINE
8
BLACK
6
CONTINUOUS
10
94.1142859999999928
20
-15.2381519999999995
11
94.2571429999999992
21
-15.2381519999999995
0
LINE
8
BLACK
6
CONTINUOUS
10
94.2571429999999992
20
-15.2381519999999995
11
94.3523809999999941
21
-15.2857709999999987
0
LINE
8
BLACK
6
CONTINUOUS
10
94.3523809999999941
20
-15.2857709999999987
11
94.3999999999999915
21
-15.3810089999999988
0
LINE
8
BLACK
6
CONTINUOUS
10
94.3999999999999915
20
-15.3810089999999988
11
94.3999999999999915
21
-15.9048189999999998
0
LINE
8
BLACK
6
CONTINUOUS
10
94.3999999999999915
20
-15.3810089999999988
11
94.4476189999999889
21
-15.2857709999999987
0
LINE
8
BLACK
6
CONTINUOUS
10
94.4476189999999889
20
-15.2857709999999987
11
94.5428569999999979
21
-15.2381519999999995
0
LINE
8
BLACK
6
CONTINUOUS
10
94.5428569999999979
20
-15.2381519999999995
11
94.6857139999999902
21
-15.2381519999999995
0
LINE
8
BLACK
6
CONTINUOUS
10
94.6857139999999902
20
-15.2381519999999995
11
94.7809529999999967
21
-15.2857709999999987
0
LINE
8
BLACK
6
CONTINUOUS
10
94.7809529999999967
20
-15.2857709999999987
11
94.8285719999999941
21
-15.3810089999999988
0
LINE
8
BLACK
6
CONTINUOUS
10
94.8285719999999941
20
-15.3810089999999988
11
94.8285719999999941
21
-15.9048189999999998
0
LINE
8
BLACK
6
CONTINUOUS
10
72.3999999999999915
20
-23.0999999999999979
11
72.3999999999999915
21
-14.8635799999999989
0
LINE
8
BLACK
6
CONTINUOUS
10
112.3999999999999915
20
-23.0999999999999979
11
112.3999999999999915
21
-14.8635799999999989
0
LINE
8
BLACK
6
CONTINUOUS
10
72.3999999999999915
20
-15.4499999999999993
11
89.1083339999999993
21
-15.4499999999999993
0
LINE
8
BLACK
6
CONTINUOUS
10
95.6916669999999954
20
-15.4499999999999993
11
112.3999999999999915
21
-15.4499999999999993
0
LINE
8
BLACK
6
CONTINUOUS
10
72.3999999999999915
20
-15.4499999999999993
11
73.5265040000000027
21
-14.8635789999999997
0
LINE
8
BLACK
6
CONTINUOUS
10
72.3999999999999915
20
-15.4499999999999993
11
73.5265040000000027
21
-16.0364210000000007
0
LINE
8
BLACK
6
CONTINUOUS
10
112.3999999999999915
20
-15.4499999999999993
11
111.2734959999999944
21
-16.0364210000000007
0
LINE
8
BLACK
6
CONTINUOUS
10
112.3999999999999915
20
-15.4499999999999993
11
111.2734959999999944
21
-14.8635789999999997
0
LINE
8
BLACK
6
CONTINUOUS
10
102.4619039999999899
20
-34.7356240000000014
11
102.4619039999999899
21
-35.5356239999999985
0
LINE
8
BLACK
6
CONTINUOUS
10
102.0809519999999964
20
-34.7356240000000014
11
102.0809519999999964
21
-35.5356239999999985
0
LINE
8
BLACK
6
CONTINUOUS
10
102.0809519999999964
20
-35.5356239999999985
11
101.6238089999999943
21
-34.7356240000000014
0
LINE
8
BLACK
6
CONTINUOUS
10
101.6238089999999943
20
-34.7356240000000014
11
101.6238089999999943
21
-35.5356239999999985
0
LINE
8
BLACK
6
CONTINUOUS
10
100.8999999999999915
20
-35.2689579999999978
11
100.8999999999999915
21
-34.7356240000000014
0
LINE
8
BLACK
6
CONTINUOUS
10
101.0904759999999953
20
-35.5737200000000016
11
101.2809529999999967
21
-35.0022909999999996
0
LINE
8
BLACK
6
CONTINUOUS
10
101.2809529999999967
20
-35.0022909999999996
11
100.7857139999999987
21
-35.0022909999999996
0
LINE
8
BLACK
6
CONTINUOUS
10
103.6333319999999958
20
-29.1477799999999974
11
103.014285000000001
21
-29.1477799999999974
0
LINE
8
BLACK
6
CONTINUOUS
10
103.014285000000001
20
-29.1477799999999974
11
103.3476179999999971
21
-28.7668280000000003
0
LINE
8
BLACK
6
CONTINUOUS
10
103.3476179999999971
20
-28.7668280000000003
11
103.2047609999999906
21
-28.7668280000000003
0
LINE
8
BLACK
6
CONTINUOUS
10
103.2047609999999906
20
-28.7668280000000003
11
103.1095229999999958
21
-28.7192089999999993
0
LINE
8
BLACK
6
CONTINUOUS
10
103.1095229999999958
20
-28.7192089999999993
11
103.0619039999999984
21
-28.6715899999999984
0
LINE
8
BLACK
6
CONTINUOUS
10
103.0619039999999984
20
-28.6715899999999984
11
103.014285000000001
21
-28.576352
0
LINE
8
BLACK
6
CONTINUOUS
10
103.014285000000001
20
-28.576352
11
103.014285000000001
21
-28.3382569999999987
0
LINE
8
BLACK
6
CONTINUOUS
10
103.014285000000001
20
-28.3382569999999987
11
103.0619039999999984
21
-28.2430190000000003
0
LINE
8
BLACK
6
CONTINUOUS
10
103.0619039999999984
20
-28.2430190000000003
11
103.1095229999999958
21
-28.1953999999999994
0
LINE
8
BLACK
6
CONTINUOUS
10
103.1095229999999958
20
-28.1953999999999994
11
103.2047609999999906
21
-28.1477799999999974
0
LINE
8
BLACK
6
CONTINUOUS
10
103.2047609999999906
20
-28.1477799999999974
11
103.4904749999999893
21
-28.1477799999999974
0
LINE
8
BLACK
6
CONTINUOUS
10
103.4904749999999893
20
-28.1477799999999974
11
103.5857129999999984
21
-28.1953999999999994
0
LINE
8
BLACK
6
CONTINUOUS
10
103.5857129999999984
20
-28.1953999999999994
11
103.6333319999999958
21
-28.2430190000000003
0
LINE
8
BLACK
6
CONTINUOUS
10
82.4380949999999899
20
-39.4643749999999969
11
82.4380949999999899
21
-38.6643749999999997
0
LINE
8
BLACK
6
CONTINUOUS
10
82.8190469999999976
20
-39.4643749999999969
11
82.8190469999999976
21
-38.6643749999999997
0
LINE
8
BLACK
6
CONTINUOUS
10
82.8190469999999976
20
-38.6643749999999997
11
83.2761899999999997
21
-39.4643749999999969
0
LINE
8
BLACK
6
CONTINUOUS
10
83.2761899999999997
20
-39.4643749999999969
11
83.2761899999999997
21
-38.6643749999999997
0
LINE
8
BLACK
6
CONTINUOUS
10
84.0761889999999994
20
-39.4643749999999969
11
83.6190459999999973
21
-39.4643749999999969
0
LINE
8
BLACK
6
CONTINUOUS
10
83.8476179999999971
20
-39.4643749999999969
11
83.8476179999999971
21
-38.6643749999999997
0
LINE
8
BLACK
6
CONTINUOUS
10
83.8476179999999971
20
-38.6643749999999997
11
83.7714270000000027
21
-38.778659999999995
0
LINE
8
BLACK
6
CONTINUOUS
10
83.7714270000000027
20
-38.778659999999995
11
83.6952369999999917
21
-38.8548509999999965
0
LINE
8
BLACK
6
CONTINUOUS
10
83.6952369999999917
20
-38.8548509999999965
11
83.6190459999999973
21
-38.8929459999999949
0
LINE
8
BLACK
6
CONTINUOUS
10
82.4380949999999899
20
-43.4643749999999969
11
82.4380949999999899
21
-42.6643749999999997
0
LINE
8
BLACK
6
CONTINUOUS
10
82.8190469999999976
20
-43.4643749999999969
11
82.8190469999999976
21
-42.6643749999999997
0
LINE
8
BLACK
6
CONTINUOUS
10
82.8190469999999976
20
-42.6643749999999997
11
83.2761899999999997
21
-43.4643749999999969
0
LINE
8
BLACK
6
CONTINUOUS
10
83.2761899999999997
20
-43.4643749999999969
11
83.2761899999999997
21
-42.6643749999999997
0
LINE
8
BLACK
6
CONTINUOUS
10
83.5809509999999989
20
-42.6643749999999997
11
84.0761889999999994
21
-42.6643749999999997
0
LINE
8
BLACK
6
CONTINUOUS
10
84.0761889999999994
20
-42.6643749999999997
11
83.8095229999999987
21
-42.9691369999999964
0
LINE
8
BLACK
6
CONTINUOUS
10
83.8095229999999987
20
-42.9691369999999964
11
83.923807999999994
21
-42.9691369999999964
0
LINE
8
BLACK
6
CONTINUOUS
10
83.923807999999994
20
-42.9691369999999964
11
83.9999990000000025
21
-43.0072319999999948
0
LINE
8
BLACK
6
CONTINUOUS
10
83.9999990000000025
20
-43.0072319999999948
11
84.038094000000001
21
-43.0453270000000003
0
LINE
8
BLACK
6
CONTINUOUS
10
84.038094000000001
20
-43.0453270000000003
11
84.0761889999999994
21
-43.1215179999999947
0
LINE
8
BLACK
6
CONTINUOUS
10
84.0761889999999994
20
-43.1215179999999947
11
84.0761889999999994
21
-43.3119939999999986
0
LINE
8
BLACK
6
CONTINUOUS
10
84.0761889999999994
20
-43.3119939999999986
11
84.038094000000001
21
-43.3881839999999954
0
LINE
8
BLACK
6
CONTINUOUS
10
84.038094000000001
20
-43.3881839999999954
11
83.9999990000000025
21
-43.4262799999999984
0
LINE
8
BLACK
6
CONTINUOUS
10
83.9999990000000025
20
-43.4262799999999984
11
83.923807999999994
21
-43.4643749999999969
0
LINE
8
BLACK
6
CONTINUOUS
10
83.923807999999994
20
-43.4643749999999969
11
83.6952369999999917
21
-43.4643749999999969
0
LINE
8
BLACK
6
CONTINUOUS
10
83.6952369999999917
20
-43.4643749999999969
11
83.6190459999999973
21
-43.4262799999999984
0
LINE
8
BLACK
6
CONTINUOUS
10
83.6190459999999973
20
-43.4262799999999984
11
83.5809509999999989
21
-43.3881839999999954
0
LINE
8
BLACK
6
CONTINUOUS
10
87.0333320000000015
20
-29.1477799999999974
11
86.4142849999999925
21
-29.1477799999999974
0
LINE
8
BLACK
6
CONTINUOUS
10
86.4142849999999925
20
-29.1477799999999974
11
86.7476180000000028
21
-28.7668280000000003
0
LINE
8
BLACK
6
CONTINUOUS
10
86.7476180000000028
20
-28.7668280000000003
11
86.6047609999999963
21
-28.7668280000000003
0
LINE
8
BLACK
6
CONTINUOUS
10
86.6047609999999963
20
-28.7668280000000003
11
86.5095230000000015
21
-28.7192089999999993
0
LINE
8
BLACK
6
CONTINUOUS
10
86.5095230000000015
20
-28.7192089999999993
11
86.4619039999999899
21
-28.6715899999999984
0
LINE
8
BLACK
6
CONTINUOUS
10
86.4619039999999899
20
-28.6715899999999984
11
86.4142849999999925
21
-28.576352
0
LINE
8
BLACK
6
CONTINUOUS
10
86.4142849999999925
20
-28.576352
11
86.4142849999999925
21
-28.3382569999999987
0
LINE
8
BLACK
6
CONTINUOUS
10
86.4142849999999925
20
-28.3382569999999987
11
86.4619039999999899
21
-28.2430190000000003
0
LINE
8
BLACK
6
CONTINUOUS
10
86.4619039999999899
20
-28.2430190000000003
11
86.5095230000000015
21
-28.1953999999999994
0
LINE
8
BLACK
6
CONTINUOUS
10
86.5095230000000015
20
-28.1953999999999994
11
86.6047609999999963
21
-28.1477799999999974
0
LINE
8
BLACK
6
CONTINUOUS
10
86.6047609999999963
20
-28.1477799999999974
11
86.890474999999995
21
-28.1477799999999974
0
LINE
8
BLACK
6
CONTINUOUS
10
86.890474999999995
20
-28.1477799999999974
11
86.9857129999999898
21
-28.1953999999999994
0
LINE
8
BLACK
6
CONTINUOUS
10
86.9857129999999898
20
-28.1953999999999994
11
87.0333320000000015
21
-28.2430190000000003
0
LINE
8
BLACK
6
CONTINUOUS
10
98.6857139999999902
20
-51.9522189999999995
11
98.1142859999999928
21
-51.9522189999999995
0
LINE
8
BLACK
6
CONTINUOUS
10
98.3999999999999915
20
-51.9522189999999995
11
98.3999999999999915
21
-50.9522189999999995
0
LINE
8
BLACK
6
CONTINUOUS
10
98.3999999999999915
20
-50.9522189999999995
11
98.3047619999999966
21
-51.0950759999999988
0
LINE
8
BLACK
6
CONTINUOUS
10
98.3047619999999966
20
-51.0950759999999988
11
98.2095240000000018
21
-51.1903140000000008
0
LINE
8
BLACK
6
CONTINUOUS
10
98.2095240000000018
20
-51.1903140000000008
11
98.1142859999999928
21
-51.2379329999999982
0
LINE
8
BLACK
6
CONTINUOUS
10
82.8571419999999961
20
-34.7024699999999982
11
82.7809519999999992
21
-34.6643749999999997
0
LINE
8
BLACK
6
CONTINUOUS
10
82.7809519999999992
20
-34.6643749999999997
11
82.6666659999999922
21
-34.6643749999999997
0
LINE
8
BLACK
6
CONTINUOUS
10
82.6666659999999922
20
-34.6643749999999997
11
82.5523799999999994
21
-34.7024699999999982
0
LINE
8
BLACK
6
CONTINUOUS
10
82.5523799999999994
20
-34.7024699999999982
11
82.4761900000000026
21
-34.778659999999995
0
LINE
8
BLACK
6
CONTINUOUS
10
82.4761900000000026
20
-34.778659999999995
11
82.4380949999999899
21
-34.8548509999999965
0
LINE
8
BLACK
6
CONTINUOUS
10
82.4380949999999899
20
-34.8548509999999965
11
82.399998999999994
21
-35.0072320000000019
0
LINE
8
BLACK
6
CONTINUOUS
10
82.399998999999994
20
-35.0072320000000019
11
82.399998999999994
21
-35.1215180000000018
0
LINE
8
BLACK
6
CONTINUOUS
10
82.399998999999994
20
-35.1215180000000018
11
82.4380949999999899
21
-35.2738990000000001
0
LINE
8
BLACK
6
CONTINUOUS
10
82.4380949999999899
20
-35.2738990000000001
11
82.4761900000000026
21
-35.350088999999997
0
LINE
8
BLACK
6
CONTINUOUS
10
82.4761900000000026
20
-35.350088999999997
11
82.5523799999999994
21
-35.4262799999999984
0
LINE
8
BLACK
6
CONTINUOUS
10
82.5523799999999994
20
-35.4262799999999984
11
82.6666659999999922
21
-35.4643749999999969
0
LINE
8
BLACK
6
CONTINUOUS
10
82.6666659999999922
20
-35.4643749999999969
11
82.7428570000000008
21
-35.4643749999999969
0
LINE
8
BLACK
6
CONTINUOUS
10
82.7428570000000008
20
-35.4643749999999969
11
82.8571419999999961
21
-35.4262799999999984
0
LINE
8
BLACK
6
CONTINUOUS
10
82.8571419999999961
20
-35.4262799999999984
11
82.895237999999992
21
-35.3881839999999954
0
LINE
8
BLACK
6
CONTINUOUS
10
82.895237999999992
20
-35.3881839999999954
11
82.895237999999992
21
-35.1215180000000018
0
LINE
8
BLACK
6
CONTINUOUS
10
82.895237999999992
20
-35.1215180000000018
11
82.7428570000000008
21
-35.1215180000000018
0
LINE
8
BLACK
6
CONTINUOUS
10
82.3238099999999946
20
-36.6643749999999997
11
82.5904769999999928
21
-37.4643749999999969
0
LINE
8
BLACK
6
CONTINUOUS
10
82.5904769999999928
20
-37.4643749999999969
11
82.8571429999999935
21
-36.6643749999999997
0
LINE
8
BLACK
6
CONTINUOUS
10
83.1238099999999918
20
-37.4643749999999969
11
83.1238099999999918
21
-36.6643749999999997
0
LINE
8
BLACK
6
CONTINUOUS
10
83.5047619999999995
20
-37.4643749999999969
11
83.5047619999999995
21
-36.6643749999999997
0
LINE
8
BLACK
6
CONTINUOUS
10
83.5047619999999995
20
-36.6643749999999997
11
83.9619050000000016
21
-37.4643749999999969
0
LINE
8
BLACK
6
CONTINUOUS
10
83.9619050000000016
20
-37.4643749999999969
11
83.9619050000000016
21
-36.6643749999999997
0
LINE
8
BLACK
6
CONTINUOUS
10
98.2095229999999901
20
-28.8144469999999977
11
98.2095229999999901
21
-28.1477799999999974
0
LINE
8
BLACK
6
CONTINUOUS
10
98.4476179999999914
20
-29.1953999999999994
11
98.6857129999999927
21
-28.481113999999998
0
LINE
8
BLACK
6
CONTINUOUS
10
98.6857129999999927
20
-28.481113999999998
11
98.0666659999999979
21
-28.481113999999998
0
LINE
8
BLACK
6
CONTINUOUS
10
82.4380949999999899
20
-45.4643749999999969
11
82.4380949999999899
21
-44.6643749999999997
0
LINE
8
BLACK
6
CONTINUOUS
10
82.8190469999999976
20
-45.4643749999999969
11
82.8190469999999976
21
-44.6643749999999997
0
LINE
8
BLACK
6
CONTINUOUS
10
82.8190469999999976
20
-44.6643749999999997
11
83.2761899999999997
21
-45.4643749999999969
0
LINE
8
BLACK
6
CONTINUOUS
10
83.2761899999999997
20
-45.4643749999999969
11
83.2761899999999997
21
-44.6643749999999997
0
LINE
8
BLACK
6
CONTINUOUS
10
83.9999990000000025
20
-44.9310410000000005
11
83.9999990000000025
21
-45.4643749999999969
0
LINE
8
BLACK
6
CONTINUOUS
10
83.8095229999999987
20
-44.6262800000000013
11
83.6190459999999973
21
-45.1977079999999987
0
LINE
8
BLACK
6
CONTINUOUS
10
83.6190459999999973
20
-45.1977079999999987
11
84.1142849999999953
21
-45.1977079999999987
0
LINE
8
BLACK
6
CONTINUOUS
10
93.7190480000000008
20
-51.4638549999999952
11
93.871428999999992
21
-51.4638549999999952
0
LINE
8
BLACK
6
CONTINUOUS
10
93.871428999999992
20
-51.4638549999999952
11
93.9476189999999889
21
-51.5019500000000008
0
LINE
8
BLACK
6
CONTINUOUS
10
93.9476189999999889
20
-51.5019500000000008
11
94.0238099999999974
21
-51.5781399999999977
0
LINE
8
BLACK
6
CONTINUOUS
10
94.0238099999999974
20
-51.5781399999999977
11
94.0619049999999959
21
-51.730520999999996
0
LINE
8
BLACK
6
CONTINUOUS
10
94.0619049999999959
20
-51.730520999999996
11
94.0619049999999959
21
-51.9971879999999942
0
LINE
8
BLACK
6
CONTINUOUS
10
94.0619049999999959
20
-51.9971879999999942
11
94.0238099999999974
21
-52.1495689999999996
0
LINE
8
BLACK
6
CONTINUOUS
10
94.0238099999999974
20
-52.1495689999999996
11
93.9476189999999889
21
-52.2257600000000011
0
LINE
8
BLACK
6
CONTINUOUS
10
93.9476189999999889
20
-52.2257600000000011
11
93.871428999999992
21
-52.2638549999999995
0
LINE
8
BLACK
6
CONTINUOUS
10
93.871428999999992
20
-52.2638549999999995
11
93.7190480000000008
21
-52.2638549999999995
0
LINE
8
BLACK
6
CONTINUOUS
10
93.7190480000000008
20
-52.2638549999999995
11
93.6428569999999922
21
-52.2257600000000011
0
LINE
8
BLACK
6
CONTINUOUS
10
93.6428569999999922
20
-52.2257600000000011
11
93.5666669999999954
21
-52.1495689999999996
0
LINE
8
BLACK
6
CONTINUOUS
10
93.5666669999999954
20
-52.1495689999999996
11
93.5285709999999995
21
-51.9971879999999942
0
LINE
8
BLACK
6
CONTINUOUS
10
93.5285709999999995
20
-51.9971879999999942
11
93.5285709999999995
21
-51.730520999999996
0
LINE
8
BLACK
6
CONTINUOUS
10
93.5285709999999995
20
-51.730520999999996
11
93.5666669999999954
21
-51.5781399999999977
0
LINE
8
BLACK
6
CONTINUOUS
10
93.5666669999999954
20
-51.5781399999999977
11
93.6428569999999922
21
-51.5019500000000008
0
LINE
8
BLACK
6
CONTINUOUS
10
93.6428569999999922
20
-51.5019500000000008
11
93.7190480000000008
21
-51.4638549999999952
0
LINE
8
BLACK
6
CONTINUOUS
10
94.404761999999991
20
-51.4638549999999952
11
94.404761999999991
21
-52.1114740000000012
0
LINE
8
BLACK
6
CONTINUOUS
10
94.404761999999991
20
-52.1114740000000012
11
94.4428569999999894
21
-52.1876639999999981
0
LINE
8
BLACK
6
CONTINUOUS
10
94.4428569999999894
20
-52.1876639999999981
11
94.480952000000002
21
-52.2257600000000011
0
LINE
8
BLACK
6
CONTINUOUS
10
94.480952000000002
20
-52.2257600000000011
11
94.5571429999999964
21
-52.2638549999999995
0
LINE
8
BLACK
6
CONTINUOUS
10
94.5571429999999964
20
-52.2638549999999995
11
94.7095240000000018
21
-52.2638549999999995
0
LINE
8
BLACK
6
CONTINUOUS
10
94.7095240000000018
20
-52.2638549999999995
11
94.7857139999999987
21
-52.2257600000000011
0
LINE
8
BLACK
6
CONTINUOUS
10
94.7857139999999987
20
-52.2257600000000011
11
94.8238089999999971
21
-52.1876639999999981
0
LINE
8
BLACK
6
CONTINUOUS
10
94.8238089999999971
20
-52.1876639999999981
11
94.861904999999993
21
-52.1114740000000012
0
LINE
8
BLACK
6
CONTINUOUS
10
94.861904999999993
20
-52.1114740000000012
11
94.861904999999993
21
-51.4638549999999952
0
LINE
8
BLACK
6
CONTINUOUS
10
95.1285709999999938
20
-51.4638549999999952
11
95.5857139999999958
21
-51.4638549999999952
0
LINE
8
BLACK
6
CONTINUOUS
10
95.3571419999999961
20
-52.2638549999999995
11
95.3571419999999961
21
-51.4638549999999952
0
LINE
8
BLACK
6
CONTINUOUS
10
95.8142849999999981
20
-51.5400449999999992
11
95.8523809999999941
21
-51.5019500000000008
0
LINE
8
BLACK
6
CONTINUOUS
10
95.8523809999999941
20
-51.5019500000000008
11
95.9285709999999909
21
-51.4638549999999952
0
LINE
8
BLACK
6
CONTINUOUS
10
95.9285709999999909
20
-51.4638549999999952
11
96.1190469999999948
21
-51.4638549999999952
0
LINE
8
BLACK
6
CONTINUOUS
10
96.1190469999999948
20
-51.4638549999999952
11
96.1952379999999891
21
-51.5019500000000008
0
LINE
8
BLACK
6
CONTINUOUS
10
96.1952379999999891
20
-51.5019500000000008
11
96.2333330000000018
21
-51.5400449999999992
0
LINE
8
BLACK
6
CONTINUOUS
10
96.2333330000000018
20
-51.5400449999999992
11
96.2714280000000002
21
-51.6162360000000007
0
LINE
8
BLACK
6
CONTINUOUS
10
96.2714280000000002
20
-51.6162360000000007
11
96.2714280000000002
21
-51.6924259999999975
0
LINE
8
BLACK
6
CONTINUOUS
10
96.2714280000000002
20
-51.6924259999999975
11
96.2333330000000018
21
-51.8067119999999974
0
LINE
8
BLACK
6
CONTINUOUS
10
96.2333330000000018
20
-51.8067119999999974
11
95.7761899999999997
21
-52.2638549999999995
0
LINE
8
BLACK
6
CONTINUOUS
10
95.7761899999999997
20
-52.2638549999999995
11
96.2714280000000002
21
-52.2638549999999995
0
LINE
8
BLACK
6
CONTINUOUS
10
107.1095229999999958
20
-20.4451800000000006
11
107.1095229999999958
21
-21.4451800000000006
0
LINE
8
BLACK
6
CONTINUOUS
10
107.1095229999999958
20
-21.4451800000000006
11
106.7761899999999997
21
-20.7308950000000003
0
LINE
8
BLACK
6
CONTINUOUS
10
106.7761899999999997
20
-20.7308950000000003
11
106.4428569999999894
21
-21.4451800000000006
0
LINE
8
BLACK
6
CONTINUOUS
10
106.4428569999999894
20
-21.4451800000000006
11
106.4428569999999894
21
-20.4451800000000006
0
LINE
8
BLACK
6
CONTINUOUS
10
105.5380949999999984
20
-21.1118469999999974
11
105.5380949999999984
21
-20.4451800000000006
0
LINE
8
BLACK
6
CONTINUOUS
10
105.7761899999999997
20
-21.492799999999999
11
106.014285000000001
21
-20.7785139999999977
0
LINE
8
BLACK
6
CONTINUOUS
10
106.014285000000001
20
-20.7785139999999977
11
105.395237999999992
21
-20.7785139999999977
0
LINE
8
BLACK
6
CONTINUOUS
10
77.1451799999999963
20
-27.4238089999999985
11
78.1451799999999963
21
-27.4238089999999985
0
LINE
8
BLACK
6
CONTINUOUS
10
78.1451799999999963
20
-27.4238089999999985
11
78.1451799999999963
21
-27.8047609999999992
0
LINE
8
BLACK
6
CONTINUOUS
10
78.1451799999999963
20
-27.8047609999999992
11
78.0975609999999989
21
-27.8999989999999976
0
LINE
8
BLACK
6
CONTINUOUS
10
78.0975609999999989
20
-27.8999989999999976
11
78.0499420000000015
21
-27.9476179999999985
0
LINE
8
BLACK
6
CONTINUOUS
10
78.0499420000000015
20
-27.9476179999999985
11
77.9547039999999924
21
-27.9952369999999995
0
LINE
8
BLACK
6
CONTINUOUS
10
77.9547039999999924
20
-27.9952369999999995
11
77.8118470000000002
21
-27.9952369999999995
0
LINE
8
BLACK
6
CONTINUOUS
10
77.8118470000000002
20
-27.9952369999999995
11
77.7166089999999912
21
-27.9476179999999985
0
LINE
8
BLACK
6
CONTINUOUS
10
77.7166089999999912
20
-27.9476179999999985
11
77.6689899999999938
21
-27.8999989999999976
0
LINE
8
BLACK
6
CONTINUOUS
10
77.6689899999999938
20
-27.8999989999999976
11
77.6213709999999963
21
-27.8047609999999992
0
LINE
8
BLACK
6
CONTINUOUS
10
77.6213709999999963
20
-27.8047609999999992
11
77.6213709999999963
21
-27.4238089999999985
0
LINE
8
BLACK
6
CONTINUOUS
10
77.1451799999999963
20
-28.5666659999999979
11
77.1927999999999912
21
-28.4714279999999995
0
LINE
8
BLACK
6
CONTINUOUS
10
77.1927999999999912
20
-28.4714279999999995
11
77.2404190000000028
21
-28.4238089999999985
0
LINE
8
BLACK
6
CONTINUOUS
10
77.2404190000000028
20
-28.4238089999999985
11
77.3356569999999977
21
-28.3761899999999976
0
LINE
8
BLACK
6
CONTINUOUS
10
77.3356569999999977
20
-28.3761899999999976
11
77.6213709999999963
21
-28.3761899999999976
0
LINE
8
BLACK
6
CONTINUOUS
10
77.6213709999999963
20
-28.3761899999999976
11
77.7166089999999912
21
-28.4238089999999985
0
LINE
8
BLACK
6
CONTINUOUS
10
77.7166089999999912
20
-28.4238089999999985
11
77.7642280000000028
21
-28.4714279999999995
0
LINE
8
BLACK
6
CONTINUOUS
10
77.7642280000000028
20
-28.4714279999999995
11
77.8118470000000002
21
-28.5666659999999979
0
LINE
8
BLACK
6
CONTINUOUS
10
77.8118470000000002
20
-28.5666659999999979
11
77.8118470000000002
21
-28.7095229999999972
0
LINE
8
BLACK
6
CONTINUOUS
10
77.8118470000000002
20
-28.7095229999999972
11
77.7642280000000028
21
-28.8047609999999992
0
LINE
8
BLACK
6
CONTINUOUS
10
77.7642280000000028
20
-28.8047609999999992
11
77.7166089999999912
21
-28.8523800000000001
0
LINE
8
BLACK
6
CONTINUOUS
10
77.7166089999999912
20
-28.8523800000000001
11
77.6213709999999963
21
-28.8999989999999976
0
LINE
8
BLACK
6
CONTINUOUS
10
77.6213709999999963
20
-28.8999989999999976
11
77.3356569999999977
21
-28.8999989999999976
0
LINE
8
BLACK
6
CONTINUOUS
10
77.3356569999999977
20
-28.8999989999999976
11
77.2404190000000028
21
-28.8523800000000001
0
LINE
8
BLACK
6
CONTINUOUS
10
77.2404190000000028
20
-28.8523800000000001
11
77.1927999999999912
21
-28.8047609999999992
0
LINE
8
BLACK
6
CONTINUOUS
10
77.1927999999999912
20
-28.8047609999999992
11
77.1451799999999963
21
-28.7095229999999972
0
LINE
8
BLACK
6
CONTINUOUS
10
77.1451799999999963
20
-28.7095229999999972
11
77.1451799999999963
21
-28.5666659999999979
0
LINE
8
BLACK
6
CONTINUOUS
10
77.8118470000000002
20
-29.2333329999999982
11
77.1451799999999963
21
-29.4238089999999985
0
LINE
8
BLACK
6
CONTINUOUS
10
77.1451799999999963
20
-29.4238089999999985
11
77.6213709999999963
21
-29.6142849999999989
0
LINE
8
BLACK
6
CONTINUOUS
10
77.6213709999999963
20
-29.6142849999999989
11
77.1451799999999963
21
-29.8047609999999992
0
LINE
8
BLACK
6
CONTINUOUS
10
77.1451799999999963
20
-29.8047609999999992
11
77.8118470000000002
21
-29.9952369999999995
0
LINE
8
BLACK
6
CONTINUOUS
10
77.1927999999999912
20
-30.7571419999999982
11
77.1451799999999963
21
-30.6619039999999998
0
LINE
8
BLACK
6
CONTINUOUS
10
77.1451799999999963
20
-30.6619039999999998
11
77.1451799999999963
21
-30.4714279999999995
0
LINE
8
BLACK
6
CONTINUOUS
10
77.1451799999999963
20
-30.4714279999999995
11
77.1927999999999912
21
-30.3761899999999976
0
LINE
8
BLACK
6
CONTINUOUS
10
77.1927999999999912
20
-30.3761899999999976
11
77.2880380000000002
21
-30.3285710000000002
0
LINE
8
BLACK
6
CONTINUOUS
10
77.2880380000000002
20
-30.3285710000000002
11
77.6689899999999938
21
-30.3285710000000002
0
LINE
8
BLACK
6
CONTINUOUS
10
77.6689899999999938
20
-30.3285710000000002
11
77.7642280000000028
21
-30.3761899999999976
0
LINE
8
BLACK
6
CONTINUOUS
10
77.7642280000000028
20
-30.3761899999999976
11
77.8118470000000002
21
-30.4714279999999995
0
LINE
8
BLACK
6
CONTINUOUS
10
77.8118470000000002
20
-30.4714279999999995
11
77.8118470000000002
21
-30.6619039999999998
0
LINE
8
BLACK
6
CONTINUOUS
10
77.8118470000000002
20
-30.6619039999999998
11
77.7642280000000028
21
-30.7571419999999982
0
LINE
8
BLACK
6
CONTINUOUS
10
77.7642280000000028
20
-30.7571419999999982
11
77.6689899999999938
21
-30.8047609999999992
0
LINE
8
BLACK
6
CONTINUOUS
10
77.6689899999999938
20
-30.8047609999999992
11
77.5737519999999989
21
-30.8047609999999992
0
LINE
8
BLACK
6
CONTINUOUS
10
77.5737519999999989
20
-30.8047609999999992
11
77.4785139999999899
21
-30.3285710000000002
0
LINE
8
BLACK
6
CONTINUOUS
10
77.1451799999999963
20
-31.2333329999999982
11
77.8118470000000002
21
-31.2333329999999982
0
LINE
8
BLACK
6
CONTINUOUS
10
77.6213709999999963
20
-31.2333329999999982
11
77.7166089999999912
21
-31.2809519999999992
0
LINE
8
BLACK
6
CONTINUOUS
10
77.7166089999999912
20
-31.2809519999999992
11
77.7642280000000028
21
-31.3285710000000002
0
LINE
8
BLACK
6
CONTINUOUS
10
77.7642280000000028
20
-31.3285710000000002
11
77.8118470000000002
21
-31.4238089999999985
0
LINE
8
BLACK
6
CONTINUOUS
10
77.8118470000000002
20
-31.4238089999999985
11
77.8118470000000002
21
-31.5190469999999969
0
LINE
8
BLACK
6
CONTINUOUS
10
82.4380949999999899
20
-41.4643749999999969
11
82.4380949999999899
21
-40.6643749999999997
0
LINE
8
BLACK
6
CONTINUOUS
10
82.8190469999999976
20
-41.4643749999999969
11
82.8190469999999976
21
-40.6643749999999997
0
LINE
8
BLACK
6
CONTINUOUS
10
82.8190469999999976
20
-40.6643749999999997
11
83.2761899999999997
21
-41.4643749999999969
0
LINE
8
BLACK
6
CONTINUOUS
10
83.2761899999999997
20
-41.4643749999999969
11
83.2761899999999997
21
-40.6643749999999997
0
LINE
8
BLACK
6
CONTINUOUS
10
83.6190459999999973
20
-40.7405649999999966
11
83.6571419999999932
21
-40.7024699999999982
0
LINE
8
BLACK
6
CONTINUOUS
10
83.6571419999999932
20
-40.7024699999999982
11
83.7333319999999901
21
-40.6643749999999997
0
LINE
8
BLACK
6
CONTINUOUS
10
83.7333319999999901
20
-40.6643749999999997
11
83.923807999999994
21
-40.6643749999999997
0
LINE
8
BLACK
6
CONTINUOUS
10
83.923807999999994
20
-40.6643749999999997
11
83.9999990000000025
21
-40.7024699999999982
0
LINE
8
BLACK
6
CONTINUOUS
10
83.9999990000000025
20
-40.7024699999999982
11
84.038094000000001
21
-40.7405649999999966
0
LINE
8
BLACK
6
CONTINUOUS
10
84.038094000000001
20
-40.7405649999999966
11
84.0761889999999994
21
-40.816755999999998
0
LINE
8
BLACK
6
CONTINUOUS
10
84.0761889999999994
20
-40.816755999999998
11
84.0761889999999994
21
-40.8929459999999949
0
LINE
8
BLACK
6
CONTINUOUS
10
84.0761889999999994
20
-40.8929459999999949
11
84.038094000000001
21
-41.0072319999999948
0
LINE
8
BLACK
6
CONTINUOUS
10
84.038094000000001
20
-41.0072319999999948
11
83.5809509999999989
21
-41.4643749999999969
0
LINE
8
BLACK
6
CONTINUOUS
10
83.5809509999999989
20
-41.4643749999999969
11
84.0761889999999994
21
-41.4643749999999969
0
LINE
8
BLACK
6
CONTINUOUS
10
88.7190480000000008
20
-51.4638549999999952
11
88.871428999999992
21
-51.4638549999999952
0
LINE
8
BLACK
6
CONTINUOUS
10
88.871428999999992
20
-51.4638549999999952
11
88.9476189999999889
21
-51.5019500000000008
0
LINE
8
BLACK
6
CONTINUOUS
10
88.9476189999999889
20
-51.5019500000000008
11
89.0238099999999974
21
-51.5781399999999977
0
LINE
8
BLACK
6
CONTINUOUS
10
89.0238099999999974
20
-51.5781399999999977
11
89.0619049999999959
21
-51.730520999999996
0
LINE
8
BLACK
6
CONTINUOUS
10
89.0619049999999959
20
-51.730520999999996
11
89.0619049999999959
21
-51.9971879999999942
0
LINE
8
BLACK
6
CONTINUOUS
10
89.0619049999999959
20
-51.9971879999999942
11
89.0238099999999974
21
-52.1495689999999996
0
LINE
8
BLACK
6
CONTINUOUS
10
89.0238099999999974
20
-52.1495689999999996
11
88.9476189999999889
21
-52.2257600000000011
0
LINE
8
BLACK
6
CONTINUOUS
10
88.9476189999999889
20
-52.2257600000000011
11
88.871428999999992
21
-52.2638549999999995
0
LINE
8
BLACK
6
CONTINUOUS
10
88.871428999999992
20
-52.2638549999999995
11
88.7190480000000008
21
-52.2638549999999995
0
LINE
8
BLACK
6
CONTINUOUS
10
88.7190480000000008
20
-52.2638549999999995
11
88.6428569999999922
21
-52.2257600000000011
0
LINE
8
BLACK
6
CONTINUOUS
10
88.6428569999999922
20
-52.2257600000000011
11
88.5666669999999954
21
-52.1495689999999996
0
LINE
8
BLACK
6
CONTINUOUS
10
88.5666669999999954
20
-52.1495689999999996
11
88.5285709999999995
21
-51.9971879999999942
0
LINE
8
BLACK
6
CONTINUOUS
10
88.5285709999999995
20
-51.9971879999999942
11
88.5285709999999995
21
-51.730520999999996
0
LINE
8
BLACK
6
CONTINUOUS
10
88.5285709999999995
20
-51.730520999999996
11
88.5666669999999954
21
-51.5781399999999977
0
LINE
8
BLACK
6
CONTINUOUS
10
88.5666669999999954
20
-51.5781399999999977
11
88.6428569999999922
21
-51.5019500000000008
0
LINE
8
BLACK
6
CONTINUOUS
10
88.6428569999999922
20
-51.5019500000000008
11
88.7190480000000008
21
-51.4638549999999952
0
LINE
8
BLACK
6
CONTINUOUS
10
89.404761999999991
20
-51.4638549999999952
11
89.404761999999991
21
-52.1114740000000012
0
LINE
8
BLACK
6
CONTINUOUS
10
89.404761999999991
20
-52.1114740000000012
11
89.4428569999999894
21
-52.1876639999999981
0
LINE
8
BLACK
6
CONTINUOUS
10
89.4428569999999894
20
-52.1876639999999981
11
89.480952000000002
21
-52.2257600000000011
0
LINE
8
BLACK
6
CONTINUOUS
10
89.480952000000002
20
-52.2257600000000011
11
89.5571429999999964
21
-52.2638549999999995
0
LINE
8
BLACK
6
CONTINUOUS
10
89.5571429999999964
20
-52.2638549999999995
11
89.7095240000000018
21
-52.2638549999999995
0
LINE
8
BLACK
6
CONTINUOUS
10
89.7095240000000018
20
-52.2638549999999995
11
89.7857139999999987
21
-52.2257600000000011
0
LINE
8
BLACK
6
CONTINUOUS
10
89.7857139999999987
20
-52.2257600000000011
11
89.8238089999999971
21
-52.1876639999999981
0
LINE
8
BLACK
6
CONTINUOUS
10
89.8238089999999971
20
-52.1876639999999981
11
89.861904999999993
21
-52.1114740000000012
0
LINE
8
BLACK
6
CONTINUOUS
10
89.861904999999993
20
-52.1114740000000012
11
89.861904999999993
21
-51.4638549999999952
0
LINE
8
BLACK
6
CONTINUOUS
10
90.1285709999999938
20
-51.4638549999999952
11
90.5857139999999958
21
-51.4638549999999952
0
LINE
8
BLACK
6
CONTINUOUS
10
90.3571419999999961
20
-52.2638549999999995
11
90.3571419999999961
21
-51.4638549999999952
0
LINE
8
BLACK
6
CONTINUOUS
10
91.2714280000000002
20
-52.2638549999999995
11
90.8142849999999981
21
-52.2638549999999995
0
LINE
8
BLACK
6
CONTINUOUS
10
91.0428569999999979
20
-52.2638549999999995
11
91.0428569999999979
21
-51.4638549999999952
0
LINE
8
BLACK
6
CONTINUOUS
10
91.0428569999999979
20
-51.4638549999999952
11
90.9666659999999894
21
-51.5781399999999977
0
LINE
8
BLACK
6
CONTINUOUS
10
90.9666659999999894
20
-51.5781399999999977
11
90.8904759999999925
21
-51.6543309999999991
0
LINE
8
BLACK
6
CONTINUOUS
10
90.8904759999999925
20
-51.6543309999999991
11
90.8142849999999981
21
-51.6924259999999975
0
LINE
8
BLACK
6
CONTINUOUS
10
79.3095229999999987
20
-20.4451800000000006
11
79.3095229999999987
21
-21.4451800000000006
0
LINE
8
BLACK
6
CONTINUOUS
10
79.3095229999999987
20
-21.4451800000000006
11
78.9761900000000026
21
-20.7308950000000003
0
LINE
8
BLACK
6
CONTINUOUS
10
78.9761900000000026
20
-20.7308950000000003
11
78.6428569999999922
21
-21.4451800000000006
0
LINE
8
BLACK
6
CONTINUOUS
10
78.6428569999999922
20
-21.4451800000000006
11
78.6428569999999922
21
-20.4451800000000006
0
LINE
8
BLACK
6
CONTINUOUS
10
78.2619040000000012
20
-21.4451800000000006
11
77.6428569999999922
21
-21.4451800000000006
0
LINE
8
BLACK
6
CONTINUOUS
10
77.6428569999999922
20
-21.4451800000000006
11
77.9761900000000026
21
-21.064228
0
LINE
8
BLACK
6
CONTINUOUS
10
77.9761900000000026
20
-21.064228
11
77.8333329999999961
21
-21.064228
0
LINE
8
BLACK
6
CONTINUOUS
10
77.8333329999999961
20
-21.064228
11
77.7380950000000013
21
-21.016608999999999
0
LINE
8
BLACK
6
CONTINUOUS
10
77.7380950000000013
20
-21.016608999999999
11
77.6904759999999897
21
-20.968989999999998
0
LINE
8
BLACK
6
CONTINUOUS
10
77.6904759999999897
20
-20.968989999999998
11
77.6428569999999922
21
-20.8737519999999996
0
LINE
8
BLACK
6
CONTINUOUS
10
77.6428569999999922
20
-20.8737519999999996
11
77.6428569999999922
21
-20.6356569999999984
0
LINE
8
BLACK
6
CONTINUOUS
10
77.6428569999999922
20
-20.6356569999999984
11
77.6904759999999897
21
-20.540419
0
LINE
8
BLACK
6
CONTINUOUS
10
77.6904759999999897
20
-20.540419
11
77.7380950000000013
21
-20.492799999999999
0
LINE
8
BLACK
6
CONTINUOUS
10
77.7380950000000013
20
-20.492799999999999
11
77.8333329999999961
21
-20.4451800000000006
0
LINE
8
BLACK
6
CONTINUOUS
10
77.8333329999999961
20
-20.4451800000000006
11
78.1190469999999948
21
-20.4451800000000006
0
LINE
8
BLACK
6
CONTINUOUS
10
78.1190469999999948
20
-20.4451800000000006
11
78.2142849999999896
21
-20.492799999999999
0
LINE
8
BLACK
6
CONTINUOUS
10
78.2142849999999896
20
-20.492799999999999
11
78.2619040000000012
21
-20.540419
0
LINE
8
BLACK
6
CONTINUOUS
10
86.2142860000000013
20
-51.0474569999999943
11
86.2619049999999987
21
-50.9998379999999969
0
LINE
8
BLACK
6
CONTINUOUS
10
86.2619049999999987
20
-50.9998379999999969
11
86.3571429999999935
21
-50.9522189999999995
0
LINE
8
BLACK
6
CONTINUOUS
10
86.3571429999999935
20
-50.9522189999999995
11
86.5952379999999948
21
-50.9522189999999995
0
LINE
8
BLACK
6
CONTINUOUS
10
86.5952379999999948
20
-50.9522189999999995
11
86.6904759999999897
21
-50.9998379999999969
0
LINE
8
BLACK
6
CONTINUOUS
10
86.6904759999999897
20
-50.9998379999999969
11
86.7380950000000013
21
-51.0474569999999943
0
LINE
8
BLACK
6
CONTINUOUS
10
86.7380950000000013
20
-51.0474569999999943
11
86.7857139999999987
21
-51.1426949999999962
0
LINE
8
BLACK
6
CONTINUOUS
10
86.7857139999999987
20
-51.1426949999999962
11
86.7857139999999987
21
-51.2379329999999982
0
LINE
8
BLACK
6
CONTINUOUS
10
86.7857139999999987
20
-51.2379329999999982
11
86.7380950000000013
21
-51.3807899999999975
0
LINE
8
BLACK
6
CONTINUOUS
10
86.7380950000000013
20
-51.3807899999999975
11
86.1666669999999897
21
-51.9522189999999995
0
LINE
8
BLACK
6
CONTINUOUS
10
86.1666669999999897
20
-51.9522189999999995
11
86.7857139999999987
21
-51.9522189999999995
0
LINE
8
BLACK
6
CONTINUOUS
10
102.4619039999999899
20
-40.7356240000000014
11
102.4619039999999899
21
-41.5356239999999985
0
LINE
8
BLACK
6
CONTINUOUS
10
102.0809519999999964
20
-40.7356240000000014
11
102.0809519999999964
21
-41.5356239999999985
0
LINE
8
BLACK
6
CONTINUOUS
10
102.0809519999999964
20
-41.5356239999999985
11
101.6238089999999943
21
-40.7356240000000014
0
LINE
8
BLACK
6
CONTINUOUS
10
101.6238089999999943
20
-40.7356240000000014
11
101.6238089999999943
21
-41.5356239999999985
0
LINE
8
BLACK
6
CONTINUOUS
10
100.8238099999999946
20
-40.7356240000000014
11
101.2809529999999967
21
-40.7356240000000014
0
LINE
8
BLACK
6
CONTINUOUS
10
101.0523809999999969
20
-40.7356240000000014
11
101.0523809999999969
21
-41.5356239999999985
0
LINE
8
BLACK
6
CONTINUOUS
10
101.0523809999999969
20
-41.5356239999999985
11
101.1285719999999912
21
-41.4213389999999961
0
LINE
8
BLACK
6
CONTINUOUS
10
101.1285719999999912
20
-41.4213389999999961
11
101.2047620000000023
21
-41.3451479999999947
0
LINE
8
BLACK
6
CONTINUOUS
10
101.2047620000000023
20
-41.3451479999999947
11
101.2809529999999967
21
-41.3070529999999962
0
LINE
8
BLACK
6
CONTINUOUS
10
91.0809509999999989
20
-28.7361439999999995
11
90.9285699999999935
21
-28.7361439999999995
0
LINE
8
BLACK
6
CONTINUOUS
10
90.9285699999999935
20
-28.7361439999999995
11
90.8523799999999966
21
-28.6980489999999975
0
LINE
8
BLACK
6
CONTINUOUS
10
90.8523799999999966
20
-28.6980489999999975
11
90.7761890000000022
21
-28.6218589999999971
0
LINE
8
BLACK
6
CONTINUOUS
10
90.7761890000000022
20
-28.6218589999999971
11
90.7380939999999896
21
-28.4694779999999987
0
LINE
8
BLACK
6
CONTINUOUS
10
90.7380939999999896
20
-28.4694779999999987
11
90.7380939999999896
21
-28.202810999999997
0
LINE
8
BLACK
6
CONTINUOUS
10
90.7380939999999896
20
-28.202810999999997
11
90.7761890000000022
21
-28.0504299999999986
0
LINE
8
BLACK
6
CONTINUOUS
10
90.7761890000000022
20
-28.0504299999999986
11
90.8523799999999966
21
-27.9742399999999982
0
LINE
8
BLACK
6
CONTINUOUS
10
90.8523799999999966
20
-27.9742399999999982
11
90.9285699999999935
21
-27.9361439999999988
0
LINE
8
BLACK
6
CONTINUOUS
10
90.9285699999999935
20
-27.9361439999999988
11
91.0809509999999989
21
-27.9361439999999988
0
LINE
8
BLACK
6
CONTINUOUS
10
91.0809509999999989
20
-27.9361439999999988
11
91.1571419999999932
21
-27.9742399999999982
0
LINE
8
BLACK
6
CONTINUOUS
10
91.1571419999999932
20
-27.9742399999999982
11
91.2333319999999901
21
-28.0504299999999986
0
LINE
8
BLACK
6
CONTINUOUS
10
91.2333319999999901
20
-28.0504299999999986
11
91.2714280000000002
21
-28.202810999999997
0
LINE
8
BLACK
6
CONTINUOUS
10
91.2714280000000002
20
-28.202810999999997
11
91.2714280000000002
21
-28.4694779999999987
0
LINE
8
BLACK
6
CONTINUOUS
10
91.2714280000000002
20
-28.4694779999999987
11
91.2333319999999901
21
-28.6218589999999971
0
LINE
8
BLACK
6
CONTINUOUS
10
91.2333319999999901
20
-28.6218589999999971
11
91.1571419999999932
21
-28.6980489999999975
0
LINE
8
BLACK
6
CONTINUOUS
10
91.1571419999999932
20
-28.6980489999999975
11
91.0809509999999989
21
-28.7361439999999995
0
LINE
8
BLACK
6
CONTINUOUS
10
90.3952369999999945
20
-28.7361439999999995
11
90.3952369999999945
21
-28.0885249999999971
0
LINE
8
BLACK
6
CONTINUOUS
10
90.3952369999999945
20
-28.0885249999999971
11
90.3571419999999961
21
-28.0123350000000002
0
LINE
8
BLACK
6
CONTINUOUS
10
90.3571419999999961
20
-28.0123350000000002
11
90.3190469999999976
21
-27.9742399999999982
0
LINE
8
BLACK
6
CONTINUOUS
10
90.3190469999999976
20
-27.9742399999999982
11
90.2428559999999891
21
-27.9361439999999988
0
LINE
8
BLACK
6
CONTINUOUS
10
90.2428559999999891
20
-27.9361439999999988
11
90.0904749999999979
21
-27.9361439999999988
0
LINE
8
BLACK
6
CONTINUOUS
10
90.0904749999999979
20
-27.9361439999999988
11
90.014285000000001
21
-27.9742399999999982
0
LINE
8
BLACK
6
CONTINUOUS
10
90.014285000000001
20
-27.9742399999999982
11
89.9761900000000026
21
-28.0123350000000002
0
LINE
8
BLACK
6
CONTINUOUS
10
89.9761900000000026
20
-28.0123350000000002
11
89.9380939999999924
21
-28.0885249999999971
0
LINE
8
BLACK
6
CONTINUOUS
10
89.9380939999999924
20
-28.0885249999999971
11
89.9380939999999924
21
-28.7361439999999995
0
LINE
8
BLACK
6
CONTINUOUS
10
89.6714279999999917
20
-28.7361439999999995
11
89.2142849999999896
21
-28.7361439999999995
0
LINE
8
BLACK
6
CONTINUOUS
10
89.4428569999999894
20
-27.9361439999999988
11
89.4428569999999894
21
-28.7361439999999995
0
LINE
8
BLACK
6
CONTINUOUS
10
88.6047609999999963
20
-28.4694779999999987
11
88.6047609999999963
21
-27.9361439999999988
0
LINE
8
BLACK
6
CONTINUOUS
10
88.7952370000000002
20
-28.7742399999999989
11
88.9857140000000015
21
-28.202810999999997
0
LINE
8
BLACK
6
CONTINUOUS
10
88.9857140000000015
20
-28.202810999999997
11
88.4904749999999893
21
-28.202810999999997
0
LINE
8
BLACK
6
CONTINUOUS
10
102.5761889999999994
20
-45.5356239999999985
11
102.3095220000000012
21
-44.7356240000000014
0
LINE
8
BLACK
6
CONTINUOUS
10
102.3095220000000012
20
-44.7356240000000014
11
102.0428560000000004
21
-45.5356239999999985
0
LINE
8
BLACK
6
CONTINUOUS
10
101.7761890000000022
20
-44.7356240000000014
11
101.7761890000000022
21
-45.5356239999999985
0
LINE
8
BLACK
6
CONTINUOUS
10
101.3952369999999945
20
-44.7356240000000014
11
101.3952369999999945
21
-45.5356239999999985
0
LINE
8
BLACK
6
CONTINUOUS
10
101.3952369999999945
20
-45.5356239999999985
11
100.9380939999999924
21
-44.7356240000000014
0
LINE
8
BLACK
6
CONTINUOUS
10
100.9380939999999924
20
-44.7356240000000014
11
100.9380939999999924
21
-45.5356239999999985
0
LINE
8
BLACK
6
CONTINUOUS
10
81.9857140000000015
20
-51.9522189999999995
11
81.4142859999999899
21
-51.9522189999999995
0
LINE
8
BLACK
6
CONTINUOUS
10
81.7000000000000028
20
-51.9522189999999995
11
81.7000000000000028
21
-50.9522189999999995
0
LINE
8
BLACK
6
CONTINUOUS
10
81.7000000000000028
20
-50.9522189999999995
11
81.6047619999999938
21
-51.0950759999999988
0
LINE
8
BLACK
6
CONTINUOUS
10
81.6047619999999938
20
-51.0950759999999988
11
81.509523999999999
21
-51.1903140000000008
0
LINE
8
BLACK
6
CONTINUOUS
10
81.509523999999999
20
-51.1903140000000008
11
81.4142859999999899
21
-51.2379329999999982
0
LINE
8
BLACK
6
CONTINUOUS
10
102.4619039999999899
20
-38.7356240000000014
11
102.4619039999999899
21
-39.5356239999999985
0
LINE
8
BLACK
6
CONTINUOUS
10
102.0809519999999964
20
-38.7356240000000014
11
102.0809519999999964
21
-39.5356239999999985
0
LINE
8
BLACK
6
CONTINUOUS
10
102.0809519999999964
20
-39.5356239999999985
11
101.6238089999999943
21
-38.7356240000000014
0
LINE
8
BLACK
6
CONTINUOUS
10
101.6238089999999943
20
-38.7356240000000014
11
101.6238089999999943
21
-39.5356239999999985
0
LINE
8
BLACK
6
CONTINUOUS
10
101.2809529999999967
20
-39.4594340000000017
11
101.2428570000000008
21
-39.4975290000000001
0
LINE
8
BLACK
6
CONTINUOUS
10
101.2428570000000008
20
-39.4975290000000001
11
101.1666669999999897
21
-39.5356239999999985
0
LINE
8
BLACK
6
CONTINUOUS
10
101.1666669999999897
20
-39.5356239999999985
11
100.976191
21
-39.5356239999999985
0
LINE
8
BLACK
6
CONTINUOUS
10
100.976191
20
-39.5356239999999985
11
100.8999999999999915
21
-39.4975290000000001
0
LINE
8
BLACK
6
CONTINUOUS
10
100.8999999999999915
20
-39.4975290000000001
11
100.861904999999993
21
-39.4594340000000017
0
LINE
8
BLACK
6
CONTINUOUS
10
100.861904999999993
20
-39.4594340000000017
11
100.8238099999999946
21
-39.3832430000000002
0
LINE
8
BLACK
6
CONTINUOUS
10
100.8238099999999946
20
-39.3832430000000002
11
100.8238099999999946
21
-39.3070529999999962
0
LINE
8
BLACK
6
CONTINUOUS
10
100.8238099999999946
20
-39.3070529999999962
11
100.861904999999993
21
-39.1927669999999964
0
LINE
8
BLACK
6
CONTINUOUS
10
100.861904999999993
20
-39.1927669999999964
11
101.3190479999999951
21
-38.7356240000000014
0
LINE
8
BLACK
6
CONTINUOUS
10
101.3190479999999951
20
-38.7356240000000014
11
100.8238099999999946
21
-38.7356240000000014
0
LINE
8
BLACK
6
CONTINUOUS
10
77.6904759999999897
20
-59.6548189999999963
11
77.6904759999999897
21
-58.6548189999999963
0
LINE
8
BLACK
6
CONTINUOUS
10
77.6904759999999897
20
-58.6548189999999963
11
78.023809
21
-59.3691040000000001
0
LINE
8
BLACK
6
CONTINUOUS
10
78.023809
20
-59.3691040000000001
11
78.3571419999999961
21
-58.6548189999999963
0
LINE
8
BLACK
6
CONTINUOUS
10
78.3571419999999961
20
-58.6548189999999963
11
78.3571419999999961
21
-59.6548189999999963
0
LINE
8
BLACK
6
CONTINUOUS
10
78.7857139999999987
20
-58.7500569999999982
11
78.8333329999999961
21
-58.7024380000000008
0
LINE
8
BLACK
6
CONTINUOUS
10
78.8333329999999961
20
-58.7024380000000008
11
78.9285709999999909
21
-58.6548189999999963
0
LINE
8
BLACK
6
CONTINUOUS
10
78.9285709999999909
20
-58.6548189999999963
11
79.1666659999999922
21
-58.6548189999999963
0
LINE
8
BLACK
6
CONTINUOUS
10
79.1666659999999922
20
-58.6548189999999963
11
79.2619040000000012
21
-58.7024380000000008
0
LINE
8
BLACK
6
CONTINUOUS
10
79.2619040000000012
20
-58.7024380000000008
11
79.3095229999999987
21
-58.7500569999999982
0
LINE
8
BLACK
6
CONTINUOUS
10
79.3095229999999987
20
-58.7500569999999982
11
79.3571419999999961
21
-58.8452950000000001
0
LINE
8
BLACK
6
CONTINUOUS
10
79.3571419999999961
20
-58.8452950000000001
11
79.3571419999999961
21
-58.940532999999995
0
LINE
8
BLACK
6
CONTINUOUS
10
79.3571419999999961
20
-58.940532999999995
11
79.3095229999999987
21
-59.0833899999999943
0
LINE
8
BLACK
6
CONTINUOUS
10
79.3095229999999987
20
-59.0833899999999943
11
78.7380950000000013
21
-59.6548189999999963
0
LINE
8
BLACK
6
CONTINUOUS
10
78.7380950000000013
20
-59.6548189999999963
11
79.3571419999999961
21
-59.6548189999999963
0
LINE
8
BLACK
6
CONTINUOUS
10
103.3142859999999956
20
-51.0474569999999943
11
103.361904999999993
21
-50.9998379999999969
0
LINE
8
BLACK
6
CONTINUOUS
10
103.361904999999993
20
-50.9998379999999969
11
103.4571430000000021
21
-50.9522189999999995
0
LINE
8
BLACK
6
CONTINUOUS
10
103.4571430000000021
20
-50.9522189999999995
11
103.6952379999999891
21
-50.9522189999999995
0
LINE
8
BLACK
6
CONTINUOUS
10
103.6952379999999891
20
-50.9522189999999995
11
103.7904759999999982
21
-50.9998379999999969
0
LINE
8
BLACK
6
CONTINUOUS
10
103.7904759999999982
20
-50.9998379999999969
11
103.8380949999999956
21
-51.0474569999999943
0
LINE
8
BLACK
6
CONTINUOUS
10
103.8380949999999956
20
-51.0474569999999943
11
103.885713999999993
21
-51.1426949999999962
0
LINE
8
BLACK
6
CONTINUOUS
10
103.885713999999993
20
-51.1426949999999962
11
103.885713999999993
21
-51.2379329999999982
0
LINE
8
BLACK
6
CONTINUOUS
10
103.885713999999993
20
-51.2379329999999982
11
103.8380949999999956
21
-51.3807899999999975
0
LINE
8
BLACK
6
CONTINUOUS
10
103.8380949999999956
20
-51.3807899999999975
11
103.2666669999999982
21
-51.9522189999999995
0
LINE
8
BLACK
6
CONTINUOUS
10
103.2666669999999982
20
-51.9522189999999995
11
103.885713999999993
21
-51.9522189999999995
0
LINE
8
BLACK
6
CONTINUOUS
10
102.4999989999999883
20
-36.7356240000000014
11
102.4999989999999883
21
-37.5356239999999985
0
LINE
8
BLACK
6
CONTINUOUS
10
102.1190469999999948
20
-36.7356240000000014
11
102.1190469999999948
21
-37.5356239999999985
0
LINE
8
BLACK
6
CONTINUOUS
10
102.1190469999999948
20
-37.5356239999999985
11
101.6619039999999927
21
-36.7356240000000014
0
LINE
8
BLACK
6
CONTINUOUS
10
101.6619039999999927
20
-36.7356240000000014
11
101.6619039999999927
21
-37.5356239999999985
0
LINE
8
BLACK
6
CONTINUOUS
10
101.3571429999999935
20
-37.5356239999999985
11
100.861904999999993
21
-37.5356239999999985
0
LINE
8
BLACK
6
CONTINUOUS
10
100.861904999999993
20
-37.5356239999999985
11
101.1285709999999938
21
-37.2308619999999948
0
LINE
8
BLACK
6
CONTINUOUS
10
101.1285709999999938
20
-37.2308619999999948
11
101.0142859999999985
21
-37.2308619999999948
0
LINE
8
BLACK
6
CONTINUOUS
10
101.0142859999999985
20
-37.2308619999999948
11
100.9380949999999899
21
-37.1927669999999964
0
LINE
8
BLACK
6
CONTINUOUS
10
100.9380949999999899
20
-37.1927669999999964
11
100.8999999999999915
21
-37.1546719999999979
0
LINE
8
BLACK
6
CONTINUOUS
10
100.8999999999999915
20
-37.1546719999999979
11
100.861904999999993
21
-37.0784809999999965
0
LINE
8
BLACK
6
CONTINUOUS
10
100.861904999999993
20
-37.0784809999999965
11
100.861904999999993
21
-36.8880049999999997
0
LINE
8
BLACK
6
CONTINUOUS
10
100.861904999999993
20
-36.8880049999999997
11
100.8999999999999915
21
-36.8118149999999957
0
LINE
8
BLACK
6
CONTINUOUS
10
100.8999999999999915
20
-36.8118149999999957
11
100.9380949999999899
21
-36.7737199999999973
0
LINE
8
BLACK
6
CONTINUOUS
10
100.9380949999999899
20
-36.7737199999999973
11
101.0142859999999985
21
-36.7356240000000014
0
LINE
8
BLACK
6
CONTINUOUS
10
101.0142859999999985
20
-36.7356240000000014
11
101.2428570000000008
21
-36.7356240000000014
0
LINE
8
BLACK
6
CONTINUOUS
10
101.2428570000000008
20
-36.7356240000000014
11
101.3190479999999951
21
-36.7737199999999973
0
LINE
8
BLACK
6
CONTINUOUS
10
101.3190479999999951
20
-36.7737199999999973
11
101.3571429999999935
21
-36.8118149999999957
0
LINE
8
BLACK
6
CONTINUOUS
10
81.1095229999999958
20
-28.8144469999999977
11
81.1095229999999958
21
-28.1477799999999974
0
LINE
8
BLACK
6
CONTINUOUS
10
81.3476179999999971
20
-29.1953999999999994
11
81.5857129999999984
21
-28.481113999999998
0
LINE
8
BLACK
6
CONTINUOUS
10
81.5857129999999984
20
-28.481113999999998
11
80.9666659999999894
21
-28.481113999999998
0
LINE
8
BLACK
6
CONTINUOUS
10
105.490476000000001
20
-59.6548189999999963
11
105.490476000000001
21
-58.6548189999999963
0
LINE
8
BLACK
6
CONTINUOUS
10
105.490476000000001
20
-58.6548189999999963
11
105.8238089999999971
21
-59.3691040000000001
0
LINE
8
BLACK
6
CONTINUOUS
10
105.8238089999999971
20
-59.3691040000000001
11
106.1571419999999932
21
-58.6548189999999963
0
LINE
8
BLACK
6
CONTINUOUS
10
106.1571419999999932
20
-58.6548189999999963
11
106.1571419999999932
21
-59.6548189999999963
0
LINE
8
BLACK
6
CONTINUOUS
10
107.1571419999999932
20
-59.6548189999999963
11
106.5857139999999958
21
-59.6548189999999963
0
LINE
8
BLACK
6
CONTINUOUS
10
106.8714279999999945
20
-59.6548189999999963
11
106.8714279999999945
21
-58.6548189999999963
0
LINE
8
BLACK
6
CONTINUOUS
10
106.8714279999999945
20
-58.6548189999999963
11
106.7761899999999997
21
-58.7976759999999956
0
LINE
8
BLACK
6
CONTINUOUS
10
106.7761899999999997
20
-58.7976759999999956
11
106.6809519999999907
21
-58.8929139999999975
0
LINE
8
BLACK
6
CONTINUOUS
10
106.6809519999999907
20
-58.8929139999999975
11
106.5857139999999958
21
-58.940532999999995
0
LINE
8
BLACK
6
CONTINUOUS
10
102.0428569999999979
20
-43.4975290000000001
11
102.1190469999999948
21
-43.5356239999999985
0
LINE
8
BLACK
6
CONTINUOUS
10
102.1190469999999948
20
-43.5356239999999985
11
102.2333330000000018
21
-43.5356239999999985
0
LINE
8
BLACK
6
CONTINUOUS
10
102.2333330000000018
20
-43.5356239999999985
11
102.3476189999999946
21
-43.4975290000000001
0
LINE
8
BLACK
6
CONTINUOUS
10
102.3476189999999946
20
-43.4975290000000001
11
102.4238089999999914
21
-43.4213389999999961
0
LINE
8
BLACK
6
CONTINUOUS
10
102.4238089999999914
20
-43.4213389999999961
11
102.4619039999999899
21
-43.3451479999999947
0
LINE
8
BLACK
6
CONTINUOUS
10
102.4619039999999899
20
-43.3451479999999947
11
102.5
21
-43.1927669999999964
0
LINE
8
BLACK
6
CONTINUOUS
10
102.5
20
-43.1927669999999964
11
102.5
21
-43.0784809999999965
0
LINE
8
BLACK
6
CONTINUOUS
10
102.5
20
-43.0784809999999965
11
102.4619039999999899
21
-42.9260999999999981
0
LINE
8
BLACK
6
CONTINUOUS
10
102.4619039999999899
20
-42.9260999999999981
11
102.4238089999999914
21
-42.8499100000000013
0
LINE
8
BLACK
6
CONTINUOUS
10
102.4238089999999914
20
-42.8499100000000013
11
102.3476189999999946
21
-42.7737199999999973
0
LINE
8
BLACK
6
CONTINUOUS
10
102.3476189999999946
20
-42.7737199999999973
11
102.2333330000000018
21
-42.7356240000000014
0
LINE
8
BLACK
6
CONTINUOUS
10
102.2333330000000018
20
-42.7356240000000014
11
102.1571419999999932
21
-42.7356240000000014
0
LINE
8
BLACK
6
CONTINUOUS
10
102.1571419999999932
20
-42.7356240000000014
11
102.0428569999999979
21
-42.7737199999999973
0
LINE
8
BLACK
6
CONTINUOUS
10
102.0428569999999979
20
-42.7737199999999973
11
102.004761000000002
21
-42.8118149999999957
0
LINE
8
BLACK
6
CONTINUOUS
10
102.004761000000002
20
-42.8118149999999957
11
102.004761000000002
21
-43.0784809999999965
0
LINE
8
BLACK
6
CONTINUOUS
10
102.004761000000002
20
-43.0784809999999965
11
102.1571419999999932
21
-43.0784809999999965
0
LINE
8
BLACK
6
CONTINUOUS
10
96.0809509999999989
20
-28.7361439999999995
11
95.9285699999999935
21
-28.7361439999999995
0
LINE
8
BLACK
6
CONTINUOUS
10
95.9285699999999935
20
-28.7361439999999995
11
95.8523799999999966
21
-28.6980489999999975
0
LINE
8
BLACK
6
CONTINUOUS
10
95.8523799999999966
20
-28.6980489999999975
11
95.7761890000000022
21
-28.6218589999999971
0
LINE
8
BLACK
6
CONTINUOUS
10
95.7761890000000022
20
-28.6218589999999971
11
95.7380939999999896
21
-28.4694779999999987
0
LINE
8
BLACK
6
CONTINUOUS
10
95.7380939999999896
20
-28.4694779999999987
11
95.7380939999999896
21
-28.202810999999997
0
LINE
8
BLACK
6
CONTINUOUS
10
95.7380939999999896
20
-28.202810999999997
11
95.7761890000000022
21
-28.0504299999999986
0
LINE
8
BLACK
6
CONTINUOUS
10
95.7761890000000022
20
-28.0504299999999986
11
95.8523799999999966
21
-27.9742399999999982
0
LINE
8
BLACK
6
CONTINUOUS
10
95.8523799999999966
20
-27.9742399999999982
11
95.9285699999999935
21
-27.9361439999999988
0
LINE
8
BLACK
6
CONTINUOUS
10
95.9285699999999935
20
-27.9361439999999988
11
96.0809509999999989
21
-27.9361439999999988
0
LINE
8
BLACK
6
CONTINUOUS
10
96.0809509999999989
20
-27.9361439999999988
11
96.1571419999999932
21
-27.9742399999999982
0
LINE
8
BLACK
6
CONTINUOUS
10
96.1571419999999932
20
-27.9742399999999982
11
96.2333319999999901
21
-28.0504299999999986
0
LINE
8
BLACK
6
CONTINUOUS
10
96.2333319999999901
20
-28.0504299999999986
11
96.2714280000000002
21
-28.202810999999997
0
LINE
8
BLACK
6
CONTINUOUS
10
96.2714280000000002
20
-28.202810999999997
11
96.2714280000000002
21
-28.4694779999999987
0
LINE
8
BLACK
6
CONTINUOUS
10
96.2714280000000002
20
-28.4694779999999987
11
96.2333319999999901
21
-28.6218589999999971
0
LINE
8
BLACK
6
CONTINUOUS
10
96.2333319999999901
20
-28.6218589999999971
11
96.1571419999999932
21
-28.6980489999999975
0
LINE
8
BLACK
6
CONTINUOUS
10
96.1571419999999932
20
-28.6980489999999975
11
96.0809509999999989
21
-28.7361439999999995
0
LINE
8
BLACK
6
CONTINUOUS
10
95.3952369999999945
20
-28.7361439999999995
11
95.3952369999999945
21
-28.0885249999999971
0
LINE
8
BLACK
6
CONTINUOUS
10
95.3952369999999945
20
-28.0885249999999971
11
95.3571419999999961
21
-28.0123350000000002
0
LINE
8
BLACK
6
CONTINUOUS
10
95.3571419999999961
20
-28.0123350000000002
11
95.3190469999999976
21
-27.9742399999999982
0
LINE
8
BLACK
6
CONTINUOUS
10
95.3190469999999976
20
-27.9742399999999982
11
95.2428559999999891
21
-27.9361439999999988
0
LINE
8
BLACK
6
CONTINUOUS
10
95.2428559999999891
20
-27.9361439999999988
11
95.0904749999999979
21
-27.9361439999999988
0
LINE
8
BLACK
6
CONTINUOUS
10
95.0904749999999979
20
-27.9361439999999988
11
95.014285000000001
21
-27.9742399999999982
0
LINE
8
BLACK
6
CONTINUOUS
10
95.014285000000001
20
-27.9742399999999982
11
94.9761900000000026
21
-28.0123350000000002
0
LINE
8
BLACK
6
CONTINUOUS
10
94.9761900000000026
20
-28.0123350000000002
11
94.9380939999999924
21
-28.0885249999999971
0
LINE
8
BLACK
6
CONTINUOUS
10
94.9380939999999924
20
-28.0885249999999971
11
94.9380939999999924
21
-28.7361439999999995
0
LINE
8
BLACK
6
CONTINUOUS
10
94.6714279999999917
20
-28.7361439999999995
11
94.2142849999999896
21
-28.7361439999999995
0
LINE
8
BLACK
6
CONTINUOUS
10
94.4428569999999894
20
-27.9361439999999988
11
94.4428569999999894
21
-28.7361439999999995
0
LINE
8
BLACK
6
CONTINUOUS
10
94.023809
20
-28.7361439999999995
11
93.5285709999999995
21
-28.7361439999999995
0
LINE
8
BLACK
6
CONTINUOUS
10
93.5285709999999995
20
-28.7361439999999995
11
93.7952370000000002
21
-28.4313819999999993
0
LINE
8
BLACK
6
CONTINUOUS
10
93.7952370000000002
20
-28.4313819999999993
11
93.6809519999999907
21
-28.4313819999999993
0
LINE
8
BLACK
6
CONTINUOUS
10
93.6809519999999907
20
-28.4313819999999993
11
93.6047609999999963
21
-28.3932869999999973
0
LINE
8
BLACK
6
CONTINUOUS
10
93.6047609999999963
20
-28.3932869999999973
11
93.5666659999999979
21
-28.3551919999999988
0
LINE
8
BLACK
6
CONTINUOUS
10
93.5666659999999979
20
-28.3551919999999988
11
93.5285709999999995
21
-28.2790009999999974
0
LINE
8
BLACK
6
CONTINUOUS
10
93.5285709999999995
20
-28.2790009999999974
11
93.5285709999999995
21
-28.0885249999999971
0
LINE
8
BLACK
6
CONTINUOUS
10
93.5285709999999995
20
-28.0885249999999971
11
93.5666659999999979
21
-28.0123350000000002
0
LINE
8
BLACK
6
CONTINUOUS
10
93.5666659999999979
20
-28.0123350000000002
11
93.6047609999999963
21
-27.9742399999999982
0
LINE
8
BLACK
6
CONTINUOUS
10
93.6047609999999963
20
-27.9742399999999982
11
93.6809519999999907
21
-27.9361439999999988
0
LINE
8
BLACK
6
CONTINUOUS
10
93.6809519999999907
20
-27.9361439999999988
11
93.909522999999993
21
-27.9361439999999988
0
LINE
8
BLACK
6
CONTINUOUS
10
93.909522999999993
20
-27.9361439999999988
11
93.9857140000000015
21
-27.9742399999999982
0
LINE
8
BLACK
6
CONTINUOUS
10
93.9857140000000015
20
-27.9742399999999982
11
94.023809
21
-28.0123350000000002
0
LINE
8
BLACK
6
CONTINUOUS
10
77.
20
-47.5
11
80.3999999999999915
21
-47.5
0
LINE
8
BLACK
6
CONTINUOUS
10
80.3999999999999915
20
-47.5
11
80.3999999999999915
21
-45.8999999999999986
0
LINE
8
BLACK
6
CONTINUOUS
10
73.0999999999999943
20
-46.1000000000000014
11
73.0999999999999943
21
-34.1000000000000014
0
LINE
8
BLACK
6
CONTINUOUS
10
77.
20
-32.6999999999999957
11
80.3999999999999915
21
-32.6999999999999957
0
LINE
8
BLACK
6
CONTINUOUS
10
80.3999999999999915
20
-32.6999999999999957
11
80.3999999999999915
21
-34.2999999999999972
0
LINE
8
BLACK
6
CONTINUOUS
10
108.
20
-32.6999999999999957
11
104.5999999999999943
21
-32.6999999999999957
0
LINE
8
BLACK
6
CONTINUOUS
10
104.5999999999999943
20
-32.6999999999999957
11
104.5999999999999943
21
-34.2999999999999972
0
LINE
8
BLACK
6
CONTINUOUS
10
111.8999999999999915
20
-34.1000000000000014
11
111.8999999999999915
21
-46.1000000000000014
0
LINE
8
BLACK
6
CONTINUOUS
10
108.
20
-47.5
11
104.5999999999999943
21
-47.5
0
LINE
8
BLACK
6
CONTINUOUS
10
104.5999999999999943
20
-47.5
11
104.5999999999999943
21
-45.8999999999999986
0
LINE
8
BLACK
6
CONTINUOUS
10
79.8999999999999915
20
-24.3999999999999986
11
79.8999999999999915
21
-28.
0
LINE
8
BLACK
6
CONTINUOUS
10
79.8999999999999915
20
-28.
11
82.0999999999999943
21
-28.
0
LINE
8
BLACK
6
CONTINUOUS
10
81.7000000000000028
20
-20.3000000000000007
11
86.0999999999999943
21
-20.3000000000000007
0
LINE
8
BLACK
6
CONTINUOUS
10
87.8999999999999915
20
-24.3999999999999986
11
87.8999999999999915
21
-28.
0
LINE
8
BLACK
6
CONTINUOUS
10
87.8999999999999915
20
-28.
11
85.7000000000000028
21
-28.
0
LINE
8
BLACK
6
CONTINUOUS
10
96.8999999999999915
20
-24.3999999999999986
11
96.8999999999999915
21
-28.
0
LINE
8
BLACK
6
CONTINUOUS
10
96.8999999999999915
20
-28.
11
99.0999999999999943
21
-28.
0
LINE
8
BLACK
6
CONTINUOUS
10
98.6999999999999886
20
-20.3000000000000007
11
103.0999999999999943
21
-20.3000000000000007
0
LINE
8
BLACK
6
CONTINUOUS
10
104.8999999999999915
20
-24.3999999999999986
11
104.8999999999999915
21
-28.
0
LINE
8
BLACK
6
CONTINUOUS
10
104.8999999999999915
20
-28.
11
102.6999999999999886
21
-28.
0
LINE
8
BLACK
6
CONTINUOUS
10
104.8999999999999915
20
-55.7999999999999972
11
104.8999999999999915
21
-52.1999999999999957
0
LINE
8
BLACK
6
CONTINUOUS
10
104.8999999999999915
20
-52.1999999999999957
11
102.6999999999999886
21
-52.1999999999999957
0
LINE
8
BLACK
6
CONTINUOUS
10
103.0999999999999943
20
-59.8999999999999986
11
98.6999999999999886
21
-59.8999999999999986
0
LINE
8
BLACK
6
CONTINUOUS
10
96.8999999999999915
20
-55.7999999999999972
11
96.8999999999999915
21
-52.1999999999999957
0
LINE
8
BLACK
6
CONTINUOUS
10
96.8999999999999915
20
-52.1999999999999957
11
99.0999999999999943
21
-52.1999999999999957
0
LINE
8
BLACK
6
CONTINUOUS
10
87.8999999999999915
20
-55.7999999999999972
11
87.8999999999999915
21
-52.1999999999999957
0
LINE
8
BLACK
6
CONTINUOUS
10
87.8999999999999915
20
-52.1999999999999957
11
85.7000000000000028
21
-52.1999999999999957
0
LINE
8
BLACK
6
CONTINUOUS
10
86.0999999999999943
20
-59.8999999999999986
11
81.7000000000000028
21
-59.8999999999999986
0
LINE
8
BLACK
6
CONTINUOUS
10
79.8999999999999915
20
-55.7999999999999972
11
79.8999999999999915
21
-52.1999999999999957
0
LINE
8
BLACK
6
CONTINUOUS
10
79.8999999999999915
20
-52.1999999999999957
11
82.0999999999999943
21
-52.1999999999999957
0
LINE
8
BLACK
6
CONTINUOUS
10
84.6400000000000006
20
-45.
11
84.6400000000000006
21
-43.0499999999999972
0
LINE
8
BLACK
6
CONTINUOUS
10
89.7599999999999909
20
-45.
11
89.7599999999999909
21
-46.9499999999999957
0
LINE
8
BLACK
6
CONTINUOUS
10
89.7599999999999909
20
-45.
11
89.7599999999999909
21
-41.5499999999999972
0
LINE
8
BLACK
6
CONTINUOUS
10
84.6400000000000006
20
-45.
11
84.6400000000000006
21
-46.9499999999999957
0
LINE
8
BLACK
6
CONTINUOUS
10
90.0999999999999943
20
-42.3999999999999986
11
91.2999999999999972
21
-42.3999999999999986
0
LINE
8
BLACK
6
CONTINUOUS
10
91.2999999999999972
20
-42.3999999999999986
11
91.2999999999999972
21
-44.6000000000000014
0
LINE
8
BLACK
6
CONTINUOUS
10
90.0999999999999943
20
-44.6000000000000014
11
91.2999999999999972
21
-44.6000000000000014
0
LINE
8
BLACK
6
CONTINUOUS
10
90.0999999999999943
20
-44.6000000000000014
11
90.0999999999999943
21
-42.3999999999999986
0
LINE
8
BLACK
6
CONTINUOUS
10
89.0499999999999972
20
-31.0999999999999979
11
88.3499999999999943
21
-31.0999999999999979
0
LINE
8
BLACK
6
CONTINUOUS
10
88.3499999999999943
20
-29.8999999999999986
11
89.0499999999999972
21
-29.8999999999999986
0
LINE
8
BLACK
6
CONTINUOUS
10
84.5999999999999943
20
-34.7999999999999972
11
84.5999999999999943
21
-32.6000000000000014
0
LINE
8
BLACK
6
CONTINUOUS
10
85.7999999999999972
20
-32.6000000000000014
11
84.5999999999999943
21
-32.6000000000000014
0
LINE
8
BLACK
6
CONTINUOUS
10
85.7999999999999972
20
-32.6000000000000014
11
85.7999999999999972
21
-34.7999999999999972
0
LINE
8
BLACK
6
CONTINUOUS
10
85.7999999999999972
20
-34.7999999999999972
11
84.5999999999999943
21
-34.7999999999999972
0
LINE
8
BLACK
6
CONTINUOUS
10
76.3299999999999983
20
-32.4699999999999989
11
78.8699999999999903
21
-32.4699999999999989
0
LINE
8
BLACK
6
CONTINUOUS
10
76.3299999999999983
20
-47.7199999999999989
11
78.8699999999999903
21
-47.7199999999999989
0
LINE
8
BLACK
6
CONTINUOUS
10
78.8699999999999903
20
-47.7199999999999989
11
78.8699999999999903
21
-32.4799999999999969
0
LINE
8
BLACK
6
CONTINUOUS
10
76.3299999999999983
20
-47.7199999999999989
11
76.3299999999999983
21
-32.4799999999999969
0
LINE
8
BLACK
6
CONTINUOUS
10
85.7999999999999972
20
-35.6000000000000014
11
84.5999999999999943
21
-35.6000000000000014
0
LINE
8
BLACK
6
CONTINUOUS
10
84.5999999999999943
20
-37.7999999999999972
11
84.5999999999999943
21
-35.6000000000000014
0
LINE
8
BLACK
6
CONTINUOUS
10
85.7999999999999972
20
-37.7999999999999972
11
84.5999999999999943
21
-37.7999999999999972
0
LINE
8
BLACK
6
CONTINUOUS
10
85.7999999999999972
20
-35.6000000000000014
11
85.7999999999999972
21
-37.7999999999999972
0
LINE
8
BLACK
6
CONTINUOUS
10
75.2999999999999972
20
-30.6999999999999993
11
76.2999999999999972
21
-30.6999999999999993
0
LINE
8
BLACK
6
CONTINUOUS
10
76.2999999999999972
20
-30.6999999999999993
11
76.2999999999999972
21
-28.5999999999999979
0
LINE
8
BLACK
6
CONTINUOUS
10
75.2999999999999972
20
-30.6999999999999993
11
75.2999999999999972
21
-28.5999999999999979
0
LINE
8
BLACK
6
CONTINUOUS
10
75.5999999999999943
20
-29.5999999999999979
11
76.
21
-29.5999999999999979
0
LINE
8
BLACK
6
CONTINUOUS
10
75.5999999999999943
20
-29.25
11
76.
21
-29.25
0
LINE
8
BLACK
6
CONTINUOUS
10
75.7999999999999972
20
-29.5499999999999972
11
75.5999999999999943
21
-29.25
0
LINE
8
BLACK
6
CONTINUOUS
10
76.
20
-29.25
11
75.7999999999999972
21
-29.5499999999999972
0
LINE
8
BLACK
6
CONTINUOUS
10
74.7999999999999972
20
-28.2999999999999972
11
74.7999999999999972
21
-30.5
0
LINE
8
BLACK
6
CONTINUOUS
10
74.7999999999999972
20
-30.5
11
73.5999999999999943
21
-30.5
0
LINE
8
BLACK
6
CONTINUOUS
10
73.5999999999999943
20
-30.5
11
73.5999999999999943
21
-28.2999999999999972
0
LINE
8
BLACK
6
CONTINUOUS
10
74.7999999999999972
20
-28.2999999999999972
11
73.5999999999999943
21
-28.2999999999999972
0
LINE
8
BLACK
6
CONTINUOUS
10
108.6700000000000017
20
-32.4799999999999969
11
106.1299999999999955
21
-32.4799999999999969
0
LINE
8
BLACK
6
CONTINUOUS
10
108.6700000000000017
20
-47.7299999999999969
11
106.1299999999999955
21
-47.7299999999999969
0
LINE
8
BLACK
6
CONTINUOUS
10
108.6700000000000017
20
-32.4799999999999969
11
108.6700000000000017
21
-47.7199999999999989
0
LINE
8
BLACK
6
CONTINUOUS
10
106.1299999999999955
20
-32.4799999999999969
11
106.1299999999999955
21
-47.7199999999999989
0
LINE
8
BLACK
6
CONTINUOUS
10
87.5499999999999972
20
-50.0999999999999943
11
86.8499999999999943
21
-50.0999999999999943
0
LINE
8
BLACK
6
CONTINUOUS
10
86.8499999999999943
20
-48.8999999999999986
11
87.5499999999999972
21
-48.8999999999999986
0
LINE
8
BLACK
6
CONTINUOUS
10
100.6599999999999966
20
-43.3955629999999957
11
100.6599999999999966
21
-35.7399999999999949
0
LINE
8
BLACK
6
CONTINUOUS
10
93.289999999999992
20
-45.1999999999999957
11
94.289999999999992
21
-45.1999999999999957
0
LINE
8
BLACK
6
CONTINUOUS
10
93.0044369999999958
20
-44.4499999999999957
11
95.375
21
-44.4499999999999957
0
LINE
8
BLACK
6
CONTINUOUS
10
91.9399999999999977
20
-43.3955629999999957
11
91.9399999999999977
21
-35.7399999999999949
0
LINE
8
BLACK
6
CONTINUOUS
10
99.5955629999999985
20
-44.4600000000000009
11
100.6599999999999966
21
-43.3955629999999957
0
LINE
8
BLACK
6
CONTINUOUS
10
91.9399999999999977
20
-35.7399999999999949
11
95.375
21
-35.7399999999999949
0
LINE
8
BLACK
6
CONTINUOUS
10
99.5955629999999985
20
-44.4600000000000009
11
97.2249999999999943
21
-44.4499999999999957
0
LINE
8
BLACK
6
CONTINUOUS
10
93.0044369999999958
20
-44.4600000000000009
11
91.9399999999999977
21
-43.3955629999999957
0
LINE
8
BLACK
6
CONTINUOUS
10
100.6599999999999966
20
-35.7399999999999949
11
97.2249999999999943
21
-35.7399999999999949
0
LINE
8
BLACK
6
CONTINUOUS
10
93.789999999999992
20
-45.6999999999999957
11
93.789999999999992
21
-44.6999999999999957
0
LINE
8
BLACK
6
CONTINUOUS
10
90.3499999999999943
20
-40.6999999999999957
11
89.6499999999999915
21
-40.6999999999999957
0
LINE
8
BLACK
6
CONTINUOUS
10
89.6499999999999915
20
-39.5
11
90.3499999999999943
21
-39.5
0
LINE
8
BLACK
6
CONTINUOUS
10
95.8999999999999915
20
-20.3999999999999986
11
95.8999999999999915
21
-27.1999999999999993
0
LINE
8
BLACK
6
CONTINUOUS
10
90.0999999999999943
20
-24.5499999999999972
11
91.3999999999999915
21
-23.25
0
LINE
8
BLACK
6
CONTINUOUS
10
88.8999999999999915
20
-27.1999999999999993
11
88.8999999999999915
21
-20.3999999999999986
0
LINE
8
BLACK
6
CONTINUOUS
10
93.5999999999999943
20
-24.5499999999999972
11
94.8999999999999915
21
-23.25
0
LINE
8
BLACK
6
CONTINUOUS
10
93.3999999999999915
20
-24.3499999999999979
11
94.6999999999999886
21
-23.0500000000000007
0
LINE
8
BLACK
6
CONTINUOUS
10
88.8999999999999915
20
-20.8000000000000007
11
95.8999999999999915
21
-20.8000000000000007
0
LINE
8
BLACK
6
CONTINUOUS
10
91.2000000000000028
20
-23.0500000000000007
11
89.8999999999999915
21
-24.3499999999999979
0
LINE
8
BLACK
6
CONTINUOUS
10
95.8999999999999915
20
-27.1999999999999993
11
88.8999999999999915
21
-27.1999999999999993
0
LINE
8
BLACK
6
CONTINUOUS
10
88.8999999999999915
20
-20.3999999999999986
11
95.8999999999999915
21
-20.3999999999999986
0
LINE
8
BLACK
6
CONTINUOUS
10
90.0999999999999943
20
-47.5999999999999943
11
91.2999999999999972
21
-47.5999999999999943
0
LINE
8
BLACK
6
CONTINUOUS
10
91.2999999999999972
20
-45.3999999999999986
11
91.2999999999999972
21
-47.5999999999999943
0
LINE
8
BLACK
6
CONTINUOUS
10
90.0999999999999943
20
-45.3999999999999986
11
91.2999999999999972
21
-45.3999999999999986
0
LINE
8
BLACK
6
CONTINUOUS
10
90.0999999999999943
20
-47.5999999999999943
11
90.0999999999999943
21
-45.3999999999999986
0
LINE
8
BLACK
6
CONTINUOUS
10
95.8999999999999915
20
-59.3999999999999986
11
88.8999999999999915
21
-59.3999999999999986
0
LINE
8
BLACK
6
CONTINUOUS
10
91.3999999999999915
20
-55.8499999999999943
11
90.0999999999999943
21
-57.1499999999999986
0
LINE
8
BLACK
6
CONTINUOUS
10
91.2000000000000028
20
-55.6499999999999986
11
89.8999999999999915
21
-56.9499999999999957
0
LINE
8
BLACK
6
CONTINUOUS
10
95.8999999999999915
20
-59.7999999999999972
11
88.8999999999999915
21
-59.7999999999999972
0
LINE
8
BLACK
6
CONTINUOUS
10
88.8999999999999915
20
-53.
11
95.8999999999999915
21
-53.
0
LINE
8
BLACK
6
CONTINUOUS
10
95.8999999999999915
20
-53.
11
95.8999999999999915
21
-59.7999999999999972
0
LINE
8
BLACK
6
CONTINUOUS
10
88.8999999999999915
20
-59.7999999999999972
11
88.8999999999999915
21
-53.
0
LINE
8
BLACK
6
CONTINUOUS
10
93.5999999999999943
20
-57.1499999999999986
11
94.8999999999999915
21
-55.8499999999999943
0
LINE
8
BLACK
6
CONTINUOUS
10
94.6999999999999886
20
-55.6499999999999986
11
93.3999999999999915
21
-56.9499999999999957
0
LINE
8
BLACK
6
CONTINUOUS
10
91.2599999999999909
20
-35.1999999999999957
11
91.2599999999999909
21
-33.25
0
LINE
8
BLACK
6
CONTINUOUS
10
91.2599999999999909
20
-35.1999999999999957
11
91.2599999999999909
21
-37.1499999999999986
0
LINE
8
BLACK
6
CONTINUOUS
10
86.1400000000000006
20
-35.1999999999999957
11
86.1400000000000006
21
-38.6499999999999986
0
LINE
8
BLACK
6
CONTINUOUS
10
86.1400000000000006
20
-35.1999999999999957
11
86.1400000000000006
21
-33.25
0
LINE
8
BLACK
6
CONTINUOUS
10
85.75
20
-39.5
11
86.4500000000000028
21
-39.5
0
LINE
8
BLACK
6
CONTINUOUS
10
86.4500000000000028
20
-40.6999999999999957
11
85.75
21
-40.6999999999999957
0
LINE
8
BLACK
6
CONTINUOUS
10
108.8999999999999915
20
-60.0999999999999943
11
75.8999999999999915
21
-60.0999999999999943
0
LINE
8
BLACK
6
CONTINUOUS
10
112.3999999999999915
20
-23.5999999999999979
11
112.3999999999999915
21
-56.5999999999999943
0
ARC
8
BLACK
10
75.8696999999999946
20
-23.5696999999999974
40
3.4698322985412422
50
-270.50033663
51
-179.49966337
0
ARC
8
BLACK
10
108.9302999999999884
20
-23.5696999999999974
40
3.4698322985412422
50
-0.50033663
51
90.50033663
0
LINE
8
BLACK
6
CONTINUOUS
10
72.3999999999999915
20
-23.5999999999999979
11
72.3999999999999915
21
-56.5999999999999943
0
ARC
8
BLACK
10
75.8999999999999915
20
-56.5999999999999943
40
3.5
50
-180.00000000
51
-90.00000000
0
LINE
8
BLACK
6
CONTINUOUS
10
108.8999999999999915
20
-20.0999999999999979
11
75.8999999999999915
21
-20.0999999999999979
0
ARC
8
BLACK
10
108.9302999999999884
20
-56.6302999999999983
40
3.4698322985412422
50
-90.50033663
51
0.50033663
  0
ENDSEC
  0
EOF
