  0
SECTION
  2
HEADER
  9
$ANGBASE
  50
0.0
  9
$ANGDIR
  70
1
  9
$MEASUREMENT
  70
1
  0
ENDSEC
  0
SECTION
  2
TABLES
  0
TABLE
  2
LTYPE
  70
4
  0
LTYPE
  5
40F
  2
CONTINUOUS
  70
0
  3
Solid line
  72
65
  73
0
  40
0.0
  0
LTYPE
  5
410
  2
DASHDOT
 70
0
  3
Dash Dot ____ _ ____ _
 72
65
 73
4
 40
2.0
 49
1.25
 49
-0.25
 49
0.25
 49
-0.25
  0
LTYPE
  5
411
  2
DASHED
 70
0
  3
Dashed __ __ __ __ __
 72
65
 73
2
 40
0.75
 49
0.5
 49
-0.25
  0
LTYPE
  5
43B
  2
DOTTED
 70
0
  3
Dotted .  .  .  .
 72
65
 73
2
 40
0.2
 49
0.0
 49
-0.2
  0
ENDTAB
  0
TABLE
  2
STYLE
  70
4
  0
STYLE
  2
KICAD
  70
0
  40
0
  41
1
  42
1
  50
0
  71
0
  3
isocp.shx
  0
STYLE
  2
KICADB
  70
0
  40
0
  41
1
  42
1
  50
0
  71
0
  3
isocp.shx
  0
STYLE
  2
KICADI
  70
0
  40
0
  41
1
  42
1
  50
15
  71
0
  3
isocp.shx
  0
STYLE
  2
KICADBI
  70
0
  40
0
  41
1
  42
1
  50
15
  71
0
  3
isocp.shx
  0
ENDTAB
  0
TABLE
  2
LAYER
  70
1
  0
LAYER
  2
BLACK
  70
0
  62
7
  6
CONTINUOUS
  0
ENDTAB
  0
ENDSEC
  0
SECTION
  2
ENTITIES
0
CIRCLE
8
BLACK
10
204.8999999999999773
20
-177.6999999999999886
40
2.3500000000000001
0
CIRCLE
8
BLACK
10
204.8999999999999773
20
-201.6999999999999886
40
2.3500000000000001
0
LINE
8
BLACK
6
CONTINUOUS
10
212.4404759999999897
20
-186.0529089999999997
11
212.3166659999999979
21
-185.9910040000000038
0
LINE
8
BLACK
6
CONTINUOUS
10
212.3166659999999979
20
-185.9910040000000038
11
212.1309519999999793
21
-185.9910040000000038
0
LINE
8
BLACK
6
CONTINUOUS
10
212.1309519999999793
20
-185.9910040000000038
11
211.9452379999999891
21
-186.0529089999999997
0
LINE
8
BLACK
6
CONTINUOUS
10
211.9452379999999891
20
-186.0529089999999997
11
211.8214279999999974
21
-186.1767189999999914
0
LINE
8
BLACK
6
CONTINUOUS
10
211.8214279999999974
20
-186.1767189999999914
11
211.7595230000000015
21
-186.3005279999999857
0
LINE
8
BLACK
6
CONTINUOUS
10
211.7595230000000015
20
-186.3005279999999857
11
211.6976190000000031
21
-186.5481470000000002
0
LINE
8
BLACK
6
CONTINUOUS
10
211.6976190000000031
20
-186.5481470000000002
11
211.6976190000000031
21
-186.7338609999999903
0
LINE
8
BLACK
6
CONTINUOUS
10
211.6976190000000031
20
-186.7338609999999903
11
211.7595230000000015
21
-186.9814800000000048
0
LINE
8
BLACK
6
CONTINUOUS
10
211.7595230000000015
20
-186.9814800000000048
11
211.8214279999999974
21
-187.1052899999999966
0
LINE
8
BLACK
6
CONTINUOUS
10
211.8214279999999974
20
-187.1052899999999966
11
211.9452379999999891
21
-187.2290999999999883
0
LINE
8
BLACK
6
CONTINUOUS
10
211.9452379999999891
20
-187.2290999999999883
11
212.1309519999999793
21
-187.2910039999999867
0
LINE
8
BLACK
6
CONTINUOUS
10
212.1309519999999793
20
-187.2910039999999867
11
212.254761000000002
21
-187.2910039999999867
0
LINE
8
BLACK
6
CONTINUOUS
10
212.254761000000002
20
-187.2910039999999867
11
212.4404759999999897
21
-187.2290999999999883
0
LINE
8
BLACK
6
CONTINUOUS
10
212.4404759999999897
20
-187.2290999999999883
11
212.5023799999999881
21
-187.1671949999999924
0
LINE
8
BLACK
6
CONTINUOUS
10
212.5023799999999881
20
-187.1671949999999924
11
212.5023799999999881
21
-186.7338609999999903
0
LINE
8
BLACK
6
CONTINUOUS
10
212.5023799999999881
20
-186.7338609999999903
11
212.254761000000002
21
-186.7338609999999903
0
LINE
8
BLACK
6
CONTINUOUS
10
211.4523799999999767
20
-191.1995199999999784
11
211.4523799999999767
21
-190.0995199999999841
0
LINE
8
BLACK
6
CONTINUOUS
10
211.9761900000000026
20
-191.1995199999999784
11
211.9761900000000026
21
-190.0995199999999841
0
LINE
8
BLACK
6
CONTINUOUS
10
211.9761900000000026
20
-190.0995199999999841
11
212.6047619999999938
21
-191.1995199999999784
0
LINE
8
BLACK
6
CONTINUOUS
10
212.6047619999999938
20
-191.1995199999999784
11
212.6047619999999938
21
-190.0995199999999841
0
LINE
8
BLACK
6
CONTINUOUS
10
213.0761899999999969
20
-190.8852349999999944
11
213.5999999999999943
21
-190.8852349999999944
0
LINE
8
BLACK
6
CONTINUOUS
10
212.9714280000000031
20
-191.1995199999999784
11
213.3380949999999814
21
-190.0995199999999841
0
LINE
8
BLACK
6
CONTINUOUS
10
213.3380949999999814
20
-190.0995199999999841
11
213.7047619999999881
21
-191.1995199999999784
0
LINE
8
BLACK
6
CONTINUOUS
10
211.6666659999999922
20
-187.9910040000000038
11
212.0999989999999968
21
-189.2910039999999867
0
LINE
8
BLACK
6
CONTINUOUS
10
212.0999989999999968
20
-189.2910039999999867
11
212.5333329999999989
21
-187.9910040000000038
0
LINE
8
BLACK
6
CONTINUOUS
10
211.3738089999999943
20
-193.1995199999999784
11
211.3738089999999943
21
-192.0995199999999841
0
LINE
8
BLACK
6
CONTINUOUS
10
211.8976189999999917
20
-193.1995199999999784
11
211.8976189999999917
21
-192.0995199999999841
0
LINE
8
BLACK
6
CONTINUOUS
10
211.8976189999999917
20
-192.0995199999999841
11
212.526190999999983
21
-193.1995199999999784
0
LINE
8
BLACK
6
CONTINUOUS
10
212.526190999999983
20
-193.1995199999999784
11
212.526190999999983
21
-192.0995199999999841
0
LINE
8
BLACK
6
CONTINUOUS
10
213.4166669999999897
20
-192.6233299999999815
11
213.5738099999999804
21
-192.6757109999999784
0
LINE
8
BLACK
6
CONTINUOUS
10
213.5738099999999804
20
-192.6757109999999784
11
213.6261909999999773
21
-192.7280920000000037
0
LINE
8
BLACK
6
CONTINUOUS
10
213.6261909999999773
20
-192.7280920000000037
11
213.6785720000000026
21
-192.8328539999999975
0
LINE
8
BLACK
6
CONTINUOUS
10
213.6785720000000026
20
-192.8328539999999975
11
213.6785720000000026
21
-192.9899969999999882
0
LINE
8
BLACK
6
CONTINUOUS
10
213.6785720000000026
20
-192.9899969999999882
11
213.6261909999999773
21
-193.0947589999999821
0
LINE
8
BLACK
6
CONTINUOUS
10
213.6261909999999773
20
-193.0947589999999821
11
213.5738099999999804
21
-193.147139999999979
0
LINE
8
BLACK
6
CONTINUOUS
10
213.5738099999999804
20
-193.147139999999979
11
213.4690479999999866
21
-193.1995199999999784
0
LINE
8
BLACK
6
CONTINUOUS
10
213.4690479999999866
20
-193.1995199999999784
11
213.0499999999999829
21
-193.1995199999999784
0
LINE
8
BLACK
6
CONTINUOUS
10
213.0499999999999829
20
-193.1995199999999784
11
213.0499999999999829
21
-192.0995199999999841
0
LINE
8
BLACK
6
CONTINUOUS
10
213.0499999999999829
20
-192.0995199999999841
11
213.4166669999999897
21
-192.0995199999999841
0
LINE
8
BLACK
6
CONTINUOUS
10
213.4166669999999897
20
-192.0995199999999841
11
213.5214289999999835
21
-192.151900999999981
0
LINE
8
BLACK
6
CONTINUOUS
10
213.5214289999999835
20
-192.151900999999981
11
213.5738099999999804
21
-192.2042819999999779
0
LINE
8
BLACK
6
CONTINUOUS
10
213.5738099999999804
20
-192.2042819999999779
11
213.6261909999999773
21
-192.3090440000000001
0
LINE
8
BLACK
6
CONTINUOUS
10
213.6261909999999773
20
-192.3090440000000001
11
213.6261909999999773
21
-192.4138059999999939
0
LINE
8
BLACK
6
CONTINUOUS
10
213.6261909999999773
20
-192.4138059999999939
11
213.5738099999999804
21
-192.5185679999999877
0
LINE
8
BLACK
6
CONTINUOUS
10
213.5738099999999804
20
-192.5185679999999877
11
213.5214289999999835
21
-192.5709489999999846
0
LINE
8
BLACK
6
CONTINUOUS
10
213.5214289999999835
20
-192.5709489999999846
11
213.4166669999999897
21
-192.6233299999999815
0
LINE
8
BLACK
6
CONTINUOUS
10
213.4166669999999897
20
-192.6233299999999815
11
213.0499999999999829
21
-192.6233299999999815
0
LINE
8
BLACK
6
CONTINUOUS
10
211.5285719999999969
20
-176.5473419999999862
11
211.5285719999999969
21
-175.3473419999999976
0
LINE
8
BLACK
6
CONTINUOUS
10
211.5285719999999969
20
-175.3473419999999976
11
211.985714999999999
21
-175.3473419999999976
0
LINE
8
BLACK
6
CONTINUOUS
10
211.985714999999999
20
-175.3473419999999976
11
212.0999999999999943
21
-175.404484999999994
0
LINE
8
BLACK
6
CONTINUOUS
10
212.0999999999999943
20
-175.404484999999994
11
212.1571429999999907
21
-175.4616279999999904
0
LINE
8
BLACK
6
CONTINUOUS
10
212.1571429999999907
20
-175.4616279999999904
11
212.2142859999999871
21
-175.5759139999999832
0
LINE
8
BLACK
6
CONTINUOUS
10
212.2142859999999871
20
-175.5759139999999832
11
212.2142859999999871
21
-175.7473420000000033
0
LINE
8
BLACK
6
CONTINUOUS
10
212.2142859999999871
20
-175.7473420000000033
11
212.1571429999999907
21
-175.8616279999999961
0
LINE
8
BLACK
6
CONTINUOUS
10
212.1571429999999907
20
-175.8616279999999961
11
212.0999999999999943
21
-175.9187709999999925
0
LINE
8
BLACK
6
CONTINUOUS
10
212.0999999999999943
20
-175.9187709999999925
11
211.985714999999999
21
-175.9759139999999888
0
LINE
8
BLACK
6
CONTINUOUS
10
211.985714999999999
20
-175.9759139999999888
11
211.5285719999999969
21
-175.9759139999999888
0
LINE
8
BLACK
6
CONTINUOUS
10
212.8999999999999773
20
-176.5473419999999862
11
212.785714999999982
21
-176.4901999999999873
0
LINE
8
BLACK
6
CONTINUOUS
10
212.785714999999982
20
-176.4901999999999873
11
212.7285719999999856
21
-176.4330569999999909
0
LINE
8
BLACK
6
CONTINUOUS
10
212.7285719999999856
20
-176.4330569999999909
11
212.6714289999999892
21
-176.3187709999999981
0
LINE
8
BLACK
6
CONTINUOUS
10
212.6714289999999892
20
-176.3187709999999981
11
212.6714289999999892
21
-175.9759139999999888
0
LINE
8
BLACK
6
CONTINUOUS
10
212.6714289999999892
20
-175.9759139999999888
11
212.7285719999999856
21
-175.8616279999999961
0
LINE
8
BLACK
6
CONTINUOUS
10
212.7285719999999856
20
-175.8616279999999961
11
212.785714999999982
21
-175.8044849999999997
0
LINE
8
BLACK
6
CONTINUOUS
10
212.785714999999982
20
-175.8044849999999997
11
212.8999999999999773
21
-175.7473420000000033
0
LINE
8
BLACK
6
CONTINUOUS
10
212.8999999999999773
20
-175.7473420000000033
11
213.0714289999999949
21
-175.7473420000000033
0
LINE
8
BLACK
6
CONTINUOUS
10
213.0714289999999949
20
-175.7473420000000033
11
213.1857149999999876
21
-175.8044849999999997
0
LINE
8
BLACK
6
CONTINUOUS
10
213.1857149999999876
20
-175.8044849999999997
11
213.242857999999984
21
-175.8616279999999961
0
LINE
8
BLACK
6
CONTINUOUS
10
213.242857999999984
20
-175.8616279999999961
11
213.2999999999999829
21
-175.9759139999999888
0
LINE
8
BLACK
6
CONTINUOUS
10
213.2999999999999829
20
-175.9759139999999888
11
213.2999999999999829
21
-176.3187709999999981
0
LINE
8
BLACK
6
CONTINUOUS
10
213.2999999999999829
20
-176.3187709999999981
11
213.242857999999984
21
-176.4330569999999909
0
LINE
8
BLACK
6
CONTINUOUS
10
213.242857999999984
20
-176.4330569999999909
11
213.1857149999999876
21
-176.4901999999999873
0
LINE
8
BLACK
6
CONTINUOUS
10
213.1857149999999876
20
-176.4901999999999873
11
213.0714289999999949
21
-176.5473419999999862
0
LINE
8
BLACK
6
CONTINUOUS
10
213.0714289999999949
20
-176.5473419999999862
11
212.8999999999999773
21
-176.5473419999999862
0
LINE
8
BLACK
6
CONTINUOUS
10
213.6999999999999886
20
-175.7473420000000033
11
213.9285720000000026
21
-176.5473419999999862
0
LINE
8
BLACK
6
CONTINUOUS
10
213.9285720000000026
20
-176.5473419999999862
11
214.1571429999999907
21
-175.9759139999999888
0
LINE
8
BLACK
6
CONTINUOUS
10
214.1571429999999907
20
-175.9759139999999888
11
214.3857139999999788
21
-176.5473419999999862
0
LINE
8
BLACK
6
CONTINUOUS
10
214.3857139999999788
20
-176.5473419999999862
11
214.6142859999999928
21
-175.7473420000000033
0
LINE
8
BLACK
6
CONTINUOUS
10
215.5285719999999969
20
-176.4901999999999873
11
215.4142860000000042
21
-176.5473419999999862
0
LINE
8
BLACK
6
CONTINUOUS
10
215.4142860000000042
20
-176.5473419999999862
11
215.1857149999999876
21
-176.5473419999999862
0
LINE
8
BLACK
6
CONTINUOUS
10
215.1857149999999876
20
-176.5473419999999862
11
215.0714289999999949
21
-176.4901999999999873
0
LINE
8
BLACK
6
CONTINUOUS
10
215.0714289999999949
20
-176.4901999999999873
11
215.0142859999999985
21
-176.3759139999999945
0
LINE
8
BLACK
6
CONTINUOUS
10
215.0142859999999985
20
-176.3759139999999945
11
215.0142859999999985
21
-175.9187709999999925
0
LINE
8
BLACK
6
CONTINUOUS
10
215.0142859999999985
20
-175.9187709999999925
11
215.0714289999999949
21
-175.8044849999999997
0
LINE
8
BLACK
6
CONTINUOUS
10
215.0714289999999949
20
-175.8044849999999997
11
215.1857149999999876
21
-175.7473420000000033
0
LINE
8
BLACK
6
CONTINUOUS
10
215.1857149999999876
20
-175.7473420000000033
11
215.4142860000000042
21
-175.7473420000000033
0
LINE
8
BLACK
6
CONTINUOUS
10
215.4142860000000042
20
-175.7473420000000033
11
215.5285719999999969
21
-175.8044849999999997
0
LINE
8
BLACK
6
CONTINUOUS
10
215.5285719999999969
20
-175.8044849999999997
11
215.5857149999999933
21
-175.9187709999999925
0
LINE
8
BLACK
6
CONTINUOUS
10
215.5857149999999933
20
-175.9187709999999925
11
215.5857149999999933
21
-176.0330569999999852
0
LINE
8
BLACK
6
CONTINUOUS
10
215.5857149999999933
20
-176.0330569999999852
11
215.0142859999999985
21
-176.1473419999999805
0
LINE
8
BLACK
6
CONTINUOUS
10
216.0999999999999943
20
-176.5473419999999862
11
216.0999999999999943
21
-175.7473420000000033
0
LINE
8
BLACK
6
CONTINUOUS
10
216.0999999999999943
20
-175.9759139999999888
11
216.1571429999999907
21
-175.8616279999999961
0
LINE
8
BLACK
6
CONTINUOUS
10
216.1571429999999907
20
-175.8616279999999961
11
216.2142859999999871
21
-175.8044849999999997
0
LINE
8
BLACK
6
CONTINUOUS
10
216.2142859999999871
20
-175.8044849999999997
11
216.3285709999999824
21
-175.7473420000000033
0
LINE
8
BLACK
6
CONTINUOUS
10
216.3285709999999824
20
-175.7473420000000033
11
216.4428570000000036
21
-175.7473420000000033
0
LINE
8
BLACK
6
CONTINUOUS
10
219.8285709999999824
20
-185.412099999999981
11
220.9714290000000005
21
-185.412099999999981
0
LINE
8
BLACK
6
CONTINUOUS
10
220.3999999999999773
20
-185.9835279999999784
11
220.3999999999999773
21
-184.8406709999999862
0
LINE
8
BLACK
6
CONTINUOUS
10
208.6619049999999902
20
-172.3381519999999796
11
208.6619049999999902
21
-173.0048189999999977
0
LINE
8
BLACK
6
CONTINUOUS
10
208.4238100000000031
20
-171.9572000000000003
11
208.1857149999999876
21
-172.6714849999999899
0
LINE
8
BLACK
6
CONTINUOUS
10
208.1857149999999876
20
-172.6714849999999899
11
208.8047619999999824
21
-172.6714849999999899
0
LINE
8
BLACK
6
CONTINUOUS
10
209.1857149999999876
20
-172.9095800000000054
11
209.2333339999999851
21
-172.9572000000000003
0
LINE
8
BLACK
6
CONTINUOUS
10
209.2333339999999851
20
-172.9572000000000003
11
209.1857149999999876
21
-173.0048189999999977
0
LINE
8
BLACK
6
CONTINUOUS
10
209.1857149999999876
20
-173.0048189999999977
11
209.1380959999999902
21
-172.9572000000000003
0
LINE
8
BLACK
6
CONTINUOUS
10
209.1380959999999902
20
-172.9572000000000003
11
209.1857149999999876
21
-172.9095800000000054
0
LINE
8
BLACK
6
CONTINUOUS
10
209.1857149999999876
20
-172.9095800000000054
11
209.1857149999999876
21
-173.0048189999999977
0
LINE
8
BLACK
6
CONTINUOUS
10
209.5666669999999954
20
-172.0048189999999977
11
210.2333329999999876
21
-172.0048189999999977
0
LINE
8
BLACK
6
CONTINUOUS
10
210.2333329999999876
20
-172.0048189999999977
11
209.8047619999999824
21
-173.0048189999999977
0
LINE
8
BLACK
6
CONTINUOUS
10
211.3761909999999773
20
-173.0048189999999977
11
211.3761909999999773
21
-172.3381519999999796
0
LINE
8
BLACK
6
CONTINUOUS
10
211.3761909999999773
20
-172.4333900000000028
11
211.4238100000000031
21
-172.3857710000000054
0
LINE
8
BLACK
6
CONTINUOUS
10
211.4238100000000031
20
-172.3857710000000054
11
211.519047999999998
21
-172.3381519999999796
0
LINE
8
BLACK
6
CONTINUOUS
10
211.519047999999998
20
-172.3381519999999796
11
211.6619049999999902
21
-172.3381519999999796
0
LINE
8
BLACK
6
CONTINUOUS
10
211.6619049999999902
20
-172.3381519999999796
11
211.757142999999985
21
-172.3857710000000054
0
LINE
8
BLACK
6
CONTINUOUS
10
211.757142999999985
20
-172.3857710000000054
11
211.8047619999999824
21
-172.4810090000000002
0
LINE
8
BLACK
6
CONTINUOUS
10
211.8047619999999824
20
-172.4810090000000002
11
211.8047619999999824
21
-173.0048189999999977
0
LINE
8
BLACK
6
CONTINUOUS
10
211.8047619999999824
20
-172.4810090000000002
11
211.8523809999999798
21
-172.3857710000000054
0
LINE
8
BLACK
6
CONTINUOUS
10
211.8523809999999798
20
-172.3857710000000054
11
211.9476190000000031
21
-172.3381519999999796
0
LINE
8
BLACK
6
CONTINUOUS
10
211.9476190000000031
20
-172.3381519999999796
11
212.0904759999999953
21
-172.3381519999999796
0
LINE
8
BLACK
6
CONTINUOUS
10
212.0904759999999953
20
-172.3381519999999796
11
212.1857149999999876
21
-172.3857710000000054
0
LINE
8
BLACK
6
CONTINUOUS
10
212.1857149999999876
20
-172.3857710000000054
11
212.2333339999999851
21
-172.4810090000000002
0
LINE
8
BLACK
6
CONTINUOUS
10
212.2333339999999851
20
-172.4810090000000002
11
212.2333339999999851
21
-173.0048189999999977
0
LINE
8
BLACK
6
CONTINUOUS
10
212.7095239999999876
20
-173.0048189999999977
11
212.7095239999999876
21
-172.3381519999999796
0
LINE
8
BLACK
6
CONTINUOUS
10
212.7095239999999876
20
-172.4333900000000028
11
212.757142999999985
21
-172.3857710000000054
0
LINE
8
BLACK
6
CONTINUOUS
10
212.757142999999985
20
-172.3857710000000054
11
212.8523809999999798
21
-172.3381519999999796
0
LINE
8
BLACK
6
CONTINUOUS
10
212.8523809999999798
20
-172.3381519999999796
11
212.9952380000000005
21
-172.3381519999999796
0
LINE
8
BLACK
6
CONTINUOUS
10
212.9952380000000005
20
-172.3381519999999796
11
213.0904759999999953
21
-172.3857710000000054
0
LINE
8
BLACK
6
CONTINUOUS
10
213.0904759999999953
20
-172.3857710000000054
11
213.1380949999999928
21
-172.4810090000000002
0
LINE
8
BLACK
6
CONTINUOUS
10
213.1380949999999928
20
-172.4810090000000002
11
213.1380949999999928
21
-173.0048189999999977
0
LINE
8
BLACK
6
CONTINUOUS
10
213.1380949999999928
20
-172.4810090000000002
11
213.1857139999999902
21
-172.3857710000000054
0
LINE
8
BLACK
6
CONTINUOUS
10
213.1857139999999902
20
-172.3857710000000054
11
213.280951999999985
21
-172.3381519999999796
0
LINE
8
BLACK
6
CONTINUOUS
10
213.280951999999985
20
-172.3381519999999796
11
213.4238089999999772
21
-172.3381519999999796
0
LINE
8
BLACK
6
CONTINUOUS
10
213.4238089999999772
20
-172.3381519999999796
11
213.519047999999998
21
-172.3857710000000054
0
LINE
8
BLACK
6
CONTINUOUS
10
213.519047999999998
20
-172.3857710000000054
11
213.5666669999999954
21
-172.4810090000000002
0
LINE
8
BLACK
6
CONTINUOUS
10
213.5666669999999954
20
-172.4810090000000002
11
213.5666669999999954
21
-173.0048189999999977
0
LINE
8
BLACK
6
CONTINUOUS
10
202.5499999999999829
20
-177.1999999999999886
11
202.5499999999999829
21
-171.9135799999999961
0
LINE
8
BLACK
6
CONTINUOUS
10
207.25
20
-177.1999999999999886
11
207.25
21
-171.9135799999999961
0
LINE
8
BLACK
6
CONTINUOUS
10
202.5499999999999829
20
-172.5
11
207.25
21
-172.5
0
LINE
8
BLACK
6
CONTINUOUS
10
202.5499999999999829
20
-172.5
11
207.25
21
-172.5
0
LINE
8
BLACK
6
CONTINUOUS
10
202.5499999999999829
20
-172.5
11
203.6765039999999942
21
-171.9135789999999986
0
LINE
8
BLACK
6
CONTINUOUS
10
202.5499999999999829
20
-172.5
11
203.6765039999999942
21
-173.0864210000000014
0
LINE
8
BLACK
6
CONTINUOUS
10
207.25
20
-172.5
11
206.1234959999999887
21
-173.0864210000000014
0
LINE
8
BLACK
6
CONTINUOUS
10
207.25
20
-172.5
11
206.1234959999999887
21
-171.9135789999999986
0
LINE
8
BLACK
6
CONTINUOUS
10
205.5880959999999789
20
-206.2548189999999977
11
206.2071430000000021
21
-206.2548189999999977
0
LINE
8
BLACK
6
CONTINUOUS
10
206.2071430000000021
20
-206.2548189999999977
11
205.8738099999999918
21
-206.635770999999977
0
LINE
8
BLACK
6
CONTINUOUS
10
205.8738099999999918
20
-206.635770999999977
11
206.016666999999984
21
-206.635770999999977
0
LINE
8
BLACK
6
CONTINUOUS
10
206.016666999999984
20
-206.635770999999977
11
206.1119049999999788
21
-206.6833900000000028
0
LINE
8
BLACK
6
CONTINUOUS
10
206.1119049999999788
20
-206.6833900000000028
11
206.1595240000000047
21
-206.7310090000000002
0
LINE
8
BLACK
6
CONTINUOUS
10
206.1595240000000047
20
-206.7310090000000002
11
206.2071430000000021
21
-206.8262469999999951
0
LINE
8
BLACK
6
CONTINUOUS
10
206.2071430000000021
20
-206.8262469999999951
11
206.2071430000000021
21
-207.0643419999999821
0
LINE
8
BLACK
6
CONTINUOUS
10
206.2071430000000021
20
-207.0643419999999821
11
206.1595240000000047
21
-207.159579999999977
0
LINE
8
BLACK
6
CONTINUOUS
10
206.1595240000000047
20
-207.159579999999977
11
206.1119049999999788
21
-207.2072000000000003
0
LINE
8
BLACK
6
CONTINUOUS
10
206.1119049999999788
20
-207.2072000000000003
11
206.016666999999984
21
-207.2548189999999977
0
LINE
8
BLACK
6
CONTINUOUS
10
206.016666999999984
20
-207.2548189999999977
11
205.7309529999999995
21
-207.2548189999999977
0
LINE
8
BLACK
6
CONTINUOUS
10
205.7309529999999995
20
-207.2548189999999977
11
205.6357150000000047
21
-207.2072000000000003
0
LINE
8
BLACK
6
CONTINUOUS
10
205.6357150000000047
20
-207.2072000000000003
11
205.5880959999999789
21
-207.159579999999977
0
LINE
8
BLACK
6
CONTINUOUS
10
206.6357150000000047
20
-207.159579999999977
11
206.6833340000000021
21
-207.2072000000000003
0
LINE
8
BLACK
6
CONTINUOUS
10
206.6833340000000021
20
-207.2072000000000003
11
206.6357150000000047
21
-207.2548189999999977
0
LINE
8
BLACK
6
CONTINUOUS
10
206.6357150000000047
20
-207.2548189999999977
11
206.5880959999999789
21
-207.2072000000000003
0
LINE
8
BLACK
6
CONTINUOUS
10
206.5880959999999789
20
-207.2072000000000003
11
206.6357150000000047
21
-207.159579999999977
0
LINE
8
BLACK
6
CONTINUOUS
10
206.6357150000000047
20
-207.159579999999977
11
206.6357150000000047
21
-207.2548189999999977
0
LINE
8
BLACK
6
CONTINUOUS
10
207.0642859999999814
20
-206.3500569999999925
11
207.1119049999999788
21
-206.3024379999999951
0
LINE
8
BLACK
6
CONTINUOUS
10
207.1119049999999788
20
-206.3024379999999951
11
207.2071430000000021
21
-206.2548189999999977
0
LINE
8
BLACK
6
CONTINUOUS
10
207.2071430000000021
20
-206.2548189999999977
11
207.4452379999999891
21
-206.2548189999999977
0
LINE
8
BLACK
6
CONTINUOUS
10
207.4452379999999891
20
-206.2548189999999977
11
207.540475999999984
21
-206.3024379999999951
0
LINE
8
BLACK
6
CONTINUOUS
10
207.540475999999984
20
-206.3024379999999951
11
207.5880949999999814
21
-206.3500569999999925
0
LINE
8
BLACK
6
CONTINUOUS
10
207.5880949999999814
20
-206.3500569999999925
11
207.6357139999999788
21
-206.4452949999999873
0
LINE
8
BLACK
6
CONTINUOUS
10
207.6357139999999788
20
-206.4452949999999873
11
207.6357139999999788
21
-206.5405329999999822
0
LINE
8
BLACK
6
CONTINUOUS
10
207.6357139999999788
20
-206.5405329999999822
11
207.5880949999999814
21
-206.6833900000000028
0
LINE
8
BLACK
6
CONTINUOUS
10
207.5880949999999814
20
-206.6833900000000028
11
207.016666999999984
21
-207.2548189999999977
0
LINE
8
BLACK
6
CONTINUOUS
10
207.016666999999984
20
-207.2548189999999977
11
207.6357139999999788
21
-207.2548189999999977
0
LINE
8
BLACK
6
CONTINUOUS
10
208.8261909999999943
20
-207.2548189999999977
11
208.8261909999999943
21
-206.5881519999999796
0
LINE
8
BLACK
6
CONTINUOUS
10
208.8261909999999943
20
-206.6833900000000028
11
208.8738099999999918
21
-206.635770999999977
0
LINE
8
BLACK
6
CONTINUOUS
10
208.8738099999999918
20
-206.635770999999977
11
208.9690479999999866
21
-206.5881519999999796
0
LINE
8
BLACK
6
CONTINUOUS
10
208.9690479999999866
20
-206.5881519999999796
11
209.1119049999999788
21
-206.5881519999999796
0
LINE
8
BLACK
6
CONTINUOUS
10
209.1119049999999788
20
-206.5881519999999796
11
209.2071430000000021
21
-206.635770999999977
0
LINE
8
BLACK
6
CONTINUOUS
10
209.2071430000000021
20
-206.635770999999977
11
209.2547619999999995
21
-206.7310090000000002
0
LINE
8
BLACK
6
CONTINUOUS
10
209.2547619999999995
20
-206.7310090000000002
11
209.2547619999999995
21
-207.2548189999999977
0
LINE
8
BLACK
6
CONTINUOUS
10
209.2547619999999995
20
-206.7310090000000002
11
209.3023809999999969
21
-206.635770999999977
0
LINE
8
BLACK
6
CONTINUOUS
10
209.3023809999999969
20
-206.635770999999977
11
209.3976189999999917
21
-206.5881519999999796
0
LINE
8
BLACK
6
CONTINUOUS
10
209.3976189999999917
20
-206.5881519999999796
11
209.540475999999984
21
-206.5881519999999796
0
LINE
8
BLACK
6
CONTINUOUS
10
209.540475999999984
20
-206.5881519999999796
11
209.6357150000000047
21
-206.635770999999977
0
LINE
8
BLACK
6
CONTINUOUS
10
209.6357150000000047
20
-206.635770999999977
11
209.6833340000000021
21
-206.7310090000000002
0
LINE
8
BLACK
6
CONTINUOUS
10
209.6833340000000021
20
-206.7310090000000002
11
209.6833340000000021
21
-207.2548189999999977
0
LINE
8
BLACK
6
CONTINUOUS
10
210.1595240000000047
20
-207.2548189999999977
11
210.1595240000000047
21
-206.5881519999999796
0
LINE
8
BLACK
6
CONTINUOUS
10
210.1595240000000047
20
-206.6833900000000028
11
210.2071430000000021
21
-206.635770999999977
0
LINE
8
BLACK
6
CONTINUOUS
10
210.2071430000000021
20
-206.635770999999977
11
210.3023809999999969
21
-206.5881519999999796
0
LINE
8
BLACK
6
CONTINUOUS
10
210.3023809999999969
20
-206.5881519999999796
11
210.4452379999999891
21
-206.5881519999999796
0
LINE
8
BLACK
6
CONTINUOUS
10
210.4452379999999891
20
-206.5881519999999796
11
210.540475999999984
21
-206.635770999999977
0
LINE
8
BLACK
6
CONTINUOUS
10
210.540475999999984
20
-206.635770999999977
11
210.5880949999999814
21
-206.7310090000000002
0
LINE
8
BLACK
6
CONTINUOUS
10
210.5880949999999814
20
-206.7310090000000002
11
210.5880949999999814
21
-207.2548189999999977
0
LINE
8
BLACK
6
CONTINUOUS
10
210.5880949999999814
20
-206.7310090000000002
11
210.6357139999999788
21
-206.635770999999977
0
LINE
8
BLACK
6
CONTINUOUS
10
210.6357139999999788
20
-206.635770999999977
11
210.730952000000002
21
-206.5881519999999796
0
LINE
8
BLACK
6
CONTINUOUS
10
210.730952000000002
20
-206.5881519999999796
11
210.8738089999999943
21
-206.5881519999999796
0
LINE
8
BLACK
6
CONTINUOUS
10
210.8738089999999943
20
-206.5881519999999796
11
210.9690479999999866
21
-206.635770999999977
0
LINE
8
BLACK
6
CONTINUOUS
10
210.9690479999999866
20
-206.635770999999977
11
211.016666999999984
21
-206.7310090000000002
0
LINE
8
BLACK
6
CONTINUOUS
10
211.016666999999984
20
-206.7310090000000002
11
211.016666999999984
21
-207.2548189999999977
0
LINE
8
BLACK
6
CONTINUOUS
10
204.8999999999999773
20
-202.1999999999999886
11
204.8999999999999773
21
-207.3864199999999869
0
LINE
8
BLACK
6
CONTINUOUS
10
201.6999999999999886
20
-202.1999999999999886
11
201.6999999999999886
21
-207.3864199999999869
0
LINE
8
BLACK
6
CONTINUOUS
10
204.8202389999999866
20
-206.7999999999999829
11
201.6999999999999886
21
-206.7999999999999829
0
LINE
8
BLACK
6
CONTINUOUS
10
204.8999999999999773
20
-206.7999999999999829
11
203.7734959999999944
21
-207.3864209999999844
0
LINE
8
BLACK
6
CONTINUOUS
10
204.8999999999999773
20
-206.7999999999999829
11
203.7734959999999944
21
-206.2135789999999815
0
LINE
8
BLACK
6
CONTINUOUS
10
201.6999999999999886
20
-206.7999999999999829
11
202.8265039999999999
21
-206.2135789999999815
0
LINE
8
BLACK
6
CONTINUOUS
10
201.6999999999999886
20
-206.7999999999999829
11
202.8265039999999999
21
-207.3864209999999844
0
LINE
8
BLACK
6
CONTINUOUS
10
217.6619049999999902
20
-169.354818999999992
11
218.280951999999985
21
-169.354818999999992
0
LINE
8
BLACK
6
CONTINUOUS
10
218.280951999999985
20
-169.354818999999992
11
217.9476190000000031
21
-169.7357709999999997
0
LINE
8
BLACK
6
CONTINUOUS
10
217.9476190000000031
20
-169.7357709999999997
11
218.0904759999999953
21
-169.7357709999999997
0
LINE
8
BLACK
6
CONTINUOUS
10
218.0904759999999953
20
-169.7357709999999997
11
218.1857139999999902
21
-169.7833899999999971
0
LINE
8
BLACK
6
CONTINUOUS
10
218.1857139999999902
20
-169.7833899999999971
11
218.2333329999999876
21
-169.8310089999999946
0
LINE
8
BLACK
6
CONTINUOUS
10
218.2333329999999876
20
-169.8310089999999946
11
218.280951999999985
21
-169.9262469999999894
0
LINE
8
BLACK
6
CONTINUOUS
10
218.280951999999985
20
-169.9262469999999894
11
218.280951999999985
21
-170.1643420000000049
0
LINE
8
BLACK
6
CONTINUOUS
10
218.280951999999985
20
-170.1643420000000049
11
218.2333329999999876
21
-170.2595799999999997
0
LINE
8
BLACK
6
CONTINUOUS
10
218.2333329999999876
20
-170.2595799999999997
11
218.1857139999999902
21
-170.3071999999999946
0
LINE
8
BLACK
6
CONTINUOUS
10
218.1857139999999902
20
-170.3071999999999946
11
218.0904759999999953
21
-170.354818999999992
0
LINE
8
BLACK
6
CONTINUOUS
10
218.0904759999999953
20
-170.354818999999992
11
217.8047619999999824
21
-170.354818999999992
0
LINE
8
BLACK
6
CONTINUOUS
10
217.8047619999999824
20
-170.354818999999992
11
217.7095239999999876
21
-170.3071999999999946
0
LINE
8
BLACK
6
CONTINUOUS
10
217.7095239999999876
20
-170.3071999999999946
11
217.6619049999999902
21
-170.2595799999999997
0
LINE
8
BLACK
6
CONTINUOUS
10
218.8523809999999798
20
-169.7833899999999971
11
218.757142999999985
21
-169.7357709999999997
0
LINE
8
BLACK
6
CONTINUOUS
10
218.757142999999985
20
-169.7357709999999997
11
218.7095239999999876
21
-169.6881520000000023
0
LINE
8
BLACK
6
CONTINUOUS
10
218.7095239999999876
20
-169.6881520000000023
11
218.6619049999999902
21
-169.5929139999999791
0
LINE
8
BLACK
6
CONTINUOUS
10
218.6619049999999902
20
-169.5929139999999791
11
218.6619049999999902
21
-169.5452949999999817
0
LINE
8
BLACK
6
CONTINUOUS
10
218.6619049999999902
20
-169.5452949999999817
11
218.7095239999999876
21
-169.4500569999999868
0
LINE
8
BLACK
6
CONTINUOUS
10
218.7095239999999876
20
-169.4500569999999868
11
218.757142999999985
21
-169.4024379999999894
0
LINE
8
BLACK
6
CONTINUOUS
10
218.757142999999985
20
-169.4024379999999894
11
218.8523809999999798
21
-169.354818999999992
0
LINE
8
BLACK
6
CONTINUOUS
10
218.8523809999999798
20
-169.354818999999992
11
219.0428569999999979
21
-169.354818999999992
0
LINE
8
BLACK
6
CONTINUOUS
10
219.0428569999999979
20
-169.354818999999992
11
219.1380949999999928
21
-169.4024379999999894
0
LINE
8
BLACK
6
CONTINUOUS
10
219.1380949999999928
20
-169.4024379999999894
11
219.1857139999999902
21
-169.4500569999999868
0
LINE
8
BLACK
6
CONTINUOUS
10
219.1857139999999902
20
-169.4500569999999868
11
219.2333329999999876
21
-169.5452949999999817
0
LINE
8
BLACK
6
CONTINUOUS
10
219.2333329999999876
20
-169.5452949999999817
11
219.2333329999999876
21
-169.5929139999999791
0
LINE
8
BLACK
6
CONTINUOUS
10
219.2333329999999876
20
-169.5929139999999791
11
219.1857139999999902
21
-169.6881520000000023
0
LINE
8
BLACK
6
CONTINUOUS
10
219.1857139999999902
20
-169.6881520000000023
11
219.1380949999999928
21
-169.7357709999999997
0
LINE
8
BLACK
6
CONTINUOUS
10
219.1380949999999928
20
-169.7357709999999997
11
219.0428569999999979
21
-169.7833899999999971
0
LINE
8
BLACK
6
CONTINUOUS
10
219.0428569999999979
20
-169.7833899999999971
11
218.8523809999999798
21
-169.7833899999999971
0
LINE
8
BLACK
6
CONTINUOUS
10
218.8523809999999798
20
-169.7833899999999971
11
218.757142999999985
21
-169.8310089999999946
0
LINE
8
BLACK
6
CONTINUOUS
10
218.757142999999985
20
-169.8310089999999946
11
218.7095239999999876
21
-169.878627999999992
0
LINE
8
BLACK
6
CONTINUOUS
10
218.7095239999999876
20
-169.878627999999992
11
218.6619049999999902
21
-169.9738659999999868
0
LINE
8
BLACK
6
CONTINUOUS
10
218.6619049999999902
20
-169.9738659999999868
11
218.6619049999999902
21
-170.1643420000000049
0
LINE
8
BLACK
6
CONTINUOUS
10
218.6619049999999902
20
-170.1643420000000049
11
218.7095239999999876
21
-170.2595799999999997
0
LINE
8
BLACK
6
CONTINUOUS
10
218.7095239999999876
20
-170.2595799999999997
11
218.757142999999985
21
-170.3071999999999946
0
LINE
8
BLACK
6
CONTINUOUS
10
218.757142999999985
20
-170.3071999999999946
11
218.8523809999999798
21
-170.354818999999992
0
LINE
8
BLACK
6
CONTINUOUS
10
218.8523809999999798
20
-170.354818999999992
11
219.0428569999999979
21
-170.354818999999992
0
LINE
8
BLACK
6
CONTINUOUS
10
219.0428569999999979
20
-170.354818999999992
11
219.1380949999999928
21
-170.3071999999999946
0
LINE
8
BLACK
6
CONTINUOUS
10
219.1380949999999928
20
-170.3071999999999946
11
219.1857139999999902
21
-170.2595799999999997
0
LINE
8
BLACK
6
CONTINUOUS
10
219.1857139999999902
20
-170.2595799999999997
11
219.2333329999999876
21
-170.1643420000000049
0
LINE
8
BLACK
6
CONTINUOUS
10
219.2333329999999876
20
-170.1643420000000049
11
219.2333329999999876
21
-169.9738659999999868
0
LINE
8
BLACK
6
CONTINUOUS
10
219.2333329999999876
20
-169.9738659999999868
11
219.1857139999999902
21
-169.878627999999992
0
LINE
8
BLACK
6
CONTINUOUS
10
219.1857139999999902
20
-169.878627999999992
11
219.1380949999999928
21
-169.8310089999999946
0
LINE
8
BLACK
6
CONTINUOUS
10
219.1380949999999928
20
-169.8310089999999946
11
219.0428569999999979
21
-169.7833899999999971
0
LINE
8
BLACK
6
CONTINUOUS
10
219.6619049999999902
20
-170.2595799999999997
11
219.7095239999999876
21
-170.3071999999999946
0
LINE
8
BLACK
6
CONTINUOUS
10
219.7095239999999876
20
-170.3071999999999946
11
219.6619049999999902
21
-170.354818999999992
0
LINE
8
BLACK
6
CONTINUOUS
10
219.6619049999999902
20
-170.354818999999992
11
219.6142859999999928
21
-170.3071999999999946
0
LINE
8
BLACK
6
CONTINUOUS
10
219.6142859999999928
20
-170.3071999999999946
11
219.6619049999999902
21
-170.2595799999999997
0
LINE
8
BLACK
6
CONTINUOUS
10
219.6619049999999902
20
-170.2595799999999997
11
219.6619049999999902
21
-170.354818999999992
0
LINE
8
BLACK
6
CONTINUOUS
10
220.5666659999999979
20
-169.6881520000000023
11
220.5666659999999979
21
-170.354818999999992
0
LINE
8
BLACK
6
CONTINUOUS
10
220.3285709999999824
20
-169.3071999999999946
11
220.0904759999999953
21
-170.0214849999999842
0
LINE
8
BLACK
6
CONTINUOUS
10
220.0904759999999953
20
-170.0214849999999842
11
220.7095229999999901
21
-170.0214849999999842
0
LINE
8
BLACK
6
CONTINUOUS
10
221.8523809999999798
20
-170.354818999999992
11
221.8523809999999798
21
-169.6881520000000023
0
LINE
8
BLACK
6
CONTINUOUS
10
221.8523809999999798
20
-169.7833899999999971
11
221.8999999999999773
21
-169.7357709999999997
0
LINE
8
BLACK
6
CONTINUOUS
10
221.8999999999999773
20
-169.7357709999999997
11
221.9952380000000005
21
-169.6881520000000023
0
LINE
8
BLACK
6
CONTINUOUS
10
221.9952380000000005
20
-169.6881520000000023
11
222.1380949999999928
21
-169.6881520000000023
0
LINE
8
BLACK
6
CONTINUOUS
10
222.1380949999999928
20
-169.6881520000000023
11
222.2333329999999876
21
-169.7357709999999997
0
LINE
8
BLACK
6
CONTINUOUS
10
222.2333329999999876
20
-169.7357709999999997
11
222.280951999999985
21
-169.8310089999999946
0
LINE
8
BLACK
6
CONTINUOUS
10
222.280951999999985
20
-169.8310089999999946
11
222.280951999999985
21
-170.354818999999992
0
LINE
8
BLACK
6
CONTINUOUS
10
222.280951999999985
20
-169.8310089999999946
11
222.3285709999999824
21
-169.7357709999999997
0
LINE
8
BLACK
6
CONTINUOUS
10
222.3285709999999824
20
-169.7357709999999997
11
222.4238089999999772
21
-169.6881520000000023
0
LINE
8
BLACK
6
CONTINUOUS
10
222.4238089999999772
20
-169.6881520000000023
11
222.5666659999999979
21
-169.6881520000000023
0
LINE
8
BLACK
6
CONTINUOUS
10
222.5666659999999979
20
-169.6881520000000023
11
222.6619049999999902
21
-169.7357709999999997
0
LINE
8
BLACK
6
CONTINUOUS
10
222.6619049999999902
20
-169.7357709999999997
11
222.7095239999999876
21
-169.8310089999999946
0
LINE
8
BLACK
6
CONTINUOUS
10
222.7095239999999876
20
-169.8310089999999946
11
222.7095239999999876
21
-170.354818999999992
0
LINE
8
BLACK
6
CONTINUOUS
10
223.1857139999999902
20
-170.354818999999992
11
223.1857139999999902
21
-169.6881520000000023
0
LINE
8
BLACK
6
CONTINUOUS
10
223.1857139999999902
20
-169.7833899999999971
11
223.2333329999999876
21
-169.7357709999999997
0
LINE
8
BLACK
6
CONTINUOUS
10
223.2333329999999876
20
-169.7357709999999997
11
223.3285709999999824
21
-169.6881520000000023
0
LINE
8
BLACK
6
CONTINUOUS
10
223.3285709999999824
20
-169.6881520000000023
11
223.4714280000000031
21
-169.6881520000000023
0
LINE
8
BLACK
6
CONTINUOUS
10
223.4714280000000031
20
-169.6881520000000023
11
223.5666659999999979
21
-169.7357709999999997
0
LINE
8
BLACK
6
CONTINUOUS
10
223.5666659999999979
20
-169.7357709999999997
11
223.6142849999999953
21
-169.8310089999999946
0
LINE
8
BLACK
6
CONTINUOUS
10
223.6142849999999953
20
-169.8310089999999946
11
223.6142849999999953
21
-170.354818999999992
0
LINE
8
BLACK
6
CONTINUOUS
10
223.6142849999999953
20
-169.8310089999999946
11
223.6619039999999927
21
-169.7357709999999997
0
LINE
8
BLACK
6
CONTINUOUS
10
223.6619039999999927
20
-169.7357709999999997
11
223.7571419999999875
21
-169.6881520000000023
0
LINE
8
BLACK
6
CONTINUOUS
10
223.7571419999999875
20
-169.6881520000000023
11
223.8999989999999798
21
-169.6881520000000023
0
LINE
8
BLACK
6
CONTINUOUS
10
223.8999989999999798
20
-169.6881520000000023
11
223.9952380000000005
21
-169.7357709999999997
0
LINE
8
BLACK
6
CONTINUOUS
10
223.9952380000000005
20
-169.7357709999999997
11
224.0428569999999979
21
-169.8310089999999946
0
LINE
8
BLACK
6
CONTINUOUS
10
224.0428569999999979
20
-169.8310089999999946
11
224.0428569999999979
21
-170.354818999999992
0
LINE
8
BLACK
6
CONTINUOUS
10
201.6999999999999886
20
-177.1999999999999886
11
201.6999999999999886
21
-169.3135800000000017
0
LINE
8
BLACK
6
CONTINUOUS
10
240.0999999999999943
20
-177.1999999999999886
11
240.0999999999999943
21
-169.3135800000000017
0
LINE
8
BLACK
6
CONTINUOUS
10
201.6999999999999886
20
-169.9000000000000057
11
216.894047999999998
21
-169.9000000000000057
0
LINE
8
BLACK
6
CONTINUOUS
10
224.905951999999985
20
-169.9000000000000057
11
240.0999999999999943
21
-169.9000000000000057
0
LINE
8
BLACK
6
CONTINUOUS
10
201.6999999999999886
20
-169.9000000000000057
11
202.8265039999999999
21
-169.3135790000000043
0
LINE
8
BLACK
6
CONTINUOUS
10
201.6999999999999886
20
-169.9000000000000057
11
202.8265039999999999
21
-170.4864209999999787
0
LINE
8
BLACK
6
CONTINUOUS
10
240.0999999999999943
20
-169.9000000000000057
11
238.973495999999983
21
-170.4864209999999787
0
LINE
8
BLACK
6
CONTINUOUS
10
240.0999999999999943
20
-169.9000000000000057
11
238.973495999999983
21
-169.3135790000000043
0
LINE
8
BLACK
6
CONTINUOUS
10
198.4000570000000039
20
-192.1761889999999937
11
198.352437999999978
21
-192.1285699999999963
0
LINE
8
BLACK
6
CONTINUOUS
10
198.352437999999978
20
-192.1285699999999963
11
198.3048189999999806
21
-192.0333320000000015
0
LINE
8
BLACK
6
CONTINUOUS
10
198.3048189999999806
20
-192.0333320000000015
11
198.3048189999999806
21
-191.795236999999986
0
LINE
8
BLACK
6
CONTINUOUS
10
198.3048189999999806
20
-191.795236999999986
11
198.352437999999978
21
-191.6999989999999912
0
LINE
8
BLACK
6
CONTINUOUS
10
198.352437999999978
20
-191.6999989999999912
11
198.4000570000000039
21
-191.6523799999999937
0
LINE
8
BLACK
6
CONTINUOUS
10
198.4000570000000039
20
-191.6523799999999937
11
198.4952949999999987
21
-191.6047609999999963
0
LINE
8
BLACK
6
CONTINUOUS
10
198.4952949999999987
20
-191.6047609999999963
11
198.5905329999999935
21
-191.6047609999999963
0
LINE
8
BLACK
6
CONTINUOUS
10
198.5905329999999935
20
-191.6047609999999963
11
198.7333899999999858
21
-191.6523799999999937
0
LINE
8
BLACK
6
CONTINUOUS
10
198.7333899999999858
20
-191.6523799999999937
11
199.3048189999999806
21
-192.2238079999999911
0
LINE
8
BLACK
6
CONTINUOUS
10
199.3048189999999806
20
-192.2238079999999911
11
199.3048189999999806
21
-191.6047609999999963
0
LINE
8
BLACK
6
CONTINUOUS
10
198.6381519999999909
20
-190.7476179999999886
11
199.3048189999999806
21
-190.7476179999999886
0
LINE
8
BLACK
6
CONTINUOUS
10
198.2571999999999832
20
-190.9857130000000041
11
198.9714850000000013
21
-191.2238079999999911
0
LINE
8
BLACK
6
CONTINUOUS
10
198.9714850000000013
20
-191.2238079999999911
11
198.9714850000000013
21
-190.6047609999999963
0
LINE
8
BLACK
6
CONTINUOUS
10
199.3048189999999806
20
-189.4619029999999782
11
198.6381519999999909
21
-189.4619029999999782
0
LINE
8
BLACK
6
CONTINUOUS
10
198.7333899999999858
20
-189.4619029999999782
11
198.6857709999999884
21
-189.4142839999999808
0
LINE
8
BLACK
6
CONTINUOUS
10
198.6857709999999884
20
-189.4142839999999808
11
198.6381519999999909
21
-189.319045999999986
0
LINE
8
BLACK
6
CONTINUOUS
10
198.6381519999999909
20
-189.319045999999986
11
198.6381519999999909
21
-189.1761889999999937
0
LINE
8
BLACK
6
CONTINUOUS
10
198.6381519999999909
20
-189.1761889999999937
11
198.6857709999999884
21
-189.0809509999999989
0
LINE
8
BLACK
6
CONTINUOUS
10
198.6857709999999884
20
-189.0809509999999989
11
198.7810089999999832
21
-189.0333320000000015
0
LINE
8
BLACK
6
CONTINUOUS
10
198.7810089999999832
20
-189.0333320000000015
11
199.3048189999999806
21
-189.0333320000000015
0
LINE
8
BLACK
6
CONTINUOUS
10
198.7810089999999832
20
-189.0333320000000015
11
198.6857709999999884
21
-188.9857130000000041
0
LINE
8
BLACK
6
CONTINUOUS
10
198.6857709999999884
20
-188.9857130000000041
11
198.6381519999999909
21
-188.8904749999999808
0
LINE
8
BLACK
6
CONTINUOUS
10
198.6381519999999909
20
-188.8904749999999808
11
198.6381519999999909
21
-188.7476179999999886
0
LINE
8
BLACK
6
CONTINUOUS
10
198.6381519999999909
20
-188.7476179999999886
11
198.6857709999999884
21
-188.6523789999999963
0
LINE
8
BLACK
6
CONTINUOUS
10
198.6857709999999884
20
-188.6523789999999963
11
198.7810089999999832
21
-188.6047599999999989
0
LINE
8
BLACK
6
CONTINUOUS
10
198.7810089999999832
20
-188.6047599999999989
11
199.3048189999999806
21
-188.6047599999999989
0
LINE
8
BLACK
6
CONTINUOUS
10
199.3048189999999806
20
-188.1285699999999963
11
198.6381519999999909
21
-188.1285699999999963
0
LINE
8
BLACK
6
CONTINUOUS
10
198.7333899999999858
20
-188.1285699999999963
11
198.6857709999999884
21
-188.0809509999999989
0
LINE
8
BLACK
6
CONTINUOUS
10
198.6857709999999884
20
-188.0809509999999989
11
198.6381519999999909
21
-187.9857130000000041
0
LINE
8
BLACK
6
CONTINUOUS
10
198.6381519999999909
20
-187.9857130000000041
11
198.6381519999999909
21
-187.8428559999999834
0
LINE
8
BLACK
6
CONTINUOUS
10
198.6381519999999909
20
-187.8428559999999834
11
198.6857709999999884
21
-187.7476179999999886
0
LINE
8
BLACK
6
CONTINUOUS
10
198.6857709999999884
20
-187.7476179999999886
11
198.7810089999999832
21
-187.6999989999999912
0
LINE
8
BLACK
6
CONTINUOUS
10
198.7810089999999832
20
-187.6999989999999912
11
199.3048189999999806
21
-187.6999989999999912
0
LINE
8
BLACK
6
CONTINUOUS
10
198.7810089999999832
20
-187.6999989999999912
11
198.6857709999999884
21
-187.6523799999999937
0
LINE
8
BLACK
6
CONTINUOUS
10
198.6857709999999884
20
-187.6523799999999937
11
198.6381519999999909
21
-187.5571419999999989
0
LINE
8
BLACK
6
CONTINUOUS
10
198.6381519999999909
20
-187.5571419999999989
11
198.6381519999999909
21
-187.4142849999999783
0
LINE
8
BLACK
6
CONTINUOUS
10
198.6381519999999909
20
-187.4142849999999783
11
198.6857709999999884
21
-187.319045999999986
0
LINE
8
BLACK
6
CONTINUOUS
10
198.6857709999999884
20
-187.319045999999986
11
198.7810089999999832
21
-187.2714269999999885
0
LINE
8
BLACK
6
CONTINUOUS
10
198.7810089999999832
20
-187.2714269999999885
11
199.3048189999999806
21
-187.2714269999999885
0
LINE
8
BLACK
6
CONTINUOUS
10
204.3999999999999773
20
-177.6999999999999886
11
198.2635799999999904
21
-177.6999999999999886
0
LINE
8
BLACK
6
CONTINUOUS
10
204.3999999999999773
20
-201.6999999999999886
11
198.2635799999999904
21
-201.6999999999999886
0
LINE
8
BLACK
6
CONTINUOUS
10
198.8499999999999943
20
-177.6999999999999886
11
198.8499999999999943
21
-186.4083329999999989
0
LINE
8
BLACK
6
CONTINUOUS
10
198.8499999999999943
20
-192.9916659999999808
11
198.8499999999999943
21
-201.6999999999999886
0
LINE
8
BLACK
6
CONTINUOUS
10
198.8499999999999943
20
-177.6999999999999886
11
199.4364209999999957
21
-178.8265039999999999
0
LINE
8
BLACK
6
CONTINUOUS
10
198.8499999999999943
20
-177.6999999999999886
11
198.2635789999999929
21
-178.8265039999999999
0
LINE
8
BLACK
6
CONTINUOUS
10
198.8499999999999943
20
-201.6999999999999886
11
198.2635789999999929
21
-200.5734959999999774
0
LINE
8
BLACK
6
CONTINUOUS
10
198.8499999999999943
20
-201.6999999999999886
11
199.4364209999999957
21
-200.5734959999999774
0
LINE
8
BLACK
6
CONTINUOUS
10
195.8048189999999806
20
-192.9380939999999782
11
195.8048189999999806
21
-192.3190469999999834
0
LINE
8
BLACK
6
CONTINUOUS
10
195.8048189999999806
20
-192.3190469999999834
11
196.1857709999999884
21
-192.6523799999999937
0
LINE
8
BLACK
6
CONTINUOUS
10
196.1857709999999884
20
-192.6523799999999937
11
196.1857709999999884
21
-192.5095230000000015
0
LINE
8
BLACK
6
CONTINUOUS
10
196.1857709999999884
20
-192.5095230000000015
11
196.2333899999999858
21
-192.4142849999999783
0
LINE
8
BLACK
6
CONTINUOUS
10
196.2333899999999858
20
-192.4142849999999783
11
196.2810089999999832
21
-192.3666659999999808
0
LINE
8
BLACK
6
CONTINUOUS
10
196.2810089999999832
20
-192.3666659999999808
11
196.376246999999978
21
-192.3190469999999834
0
LINE
8
BLACK
6
CONTINUOUS
10
196.376246999999978
20
-192.3190469999999834
11
196.6143419999999935
21
-192.3190469999999834
0
LINE
8
BLACK
6
CONTINUOUS
10
196.6143419999999935
20
-192.3190469999999834
11
196.7095799999999883
21
-192.3666659999999808
0
LINE
8
BLACK
6
CONTINUOUS
10
196.7095799999999883
20
-192.3666659999999808
11
196.7571999999999832
21
-192.4142849999999783
0
LINE
8
BLACK
6
CONTINUOUS
10
196.7571999999999832
20
-192.4142849999999783
11
196.8048189999999806
21
-192.5095230000000015
0
LINE
8
BLACK
6
CONTINUOUS
10
196.8048189999999806
20
-192.5095230000000015
11
196.8048189999999806
21
-192.795236999999986
0
LINE
8
BLACK
6
CONTINUOUS
10
196.8048189999999806
20
-192.795236999999986
11
196.7571999999999832
21
-192.8904749999999808
0
LINE
8
BLACK
6
CONTINUOUS
10
196.7571999999999832
20
-192.8904749999999808
11
196.7095799999999883
21
-192.9380939999999782
0
LINE
8
BLACK
6
CONTINUOUS
10
195.8048189999999806
20
-191.6999989999999912
11
195.8048189999999806
21
-191.6047609999999963
0
LINE
8
BLACK
6
CONTINUOUS
10
195.8048189999999806
20
-191.6047609999999963
11
195.852437999999978
21
-191.5095230000000015
0
LINE
8
BLACK
6
CONTINUOUS
10
195.852437999999978
20
-191.5095230000000015
11
195.9000570000000039
21
-191.4619040000000041
0
LINE
8
BLACK
6
CONTINUOUS
10
195.9000570000000039
20
-191.4619040000000041
11
195.9952949999999987
21
-191.4142849999999783
0
LINE
8
BLACK
6
CONTINUOUS
10
195.9952949999999987
20
-191.4142849999999783
11
196.1857709999999884
21
-191.3666659999999808
0
LINE
8
BLACK
6
CONTINUOUS
10
196.1857709999999884
20
-191.3666659999999808
11
196.4238660000000039
21
-191.3666659999999808
0
LINE
8
BLACK
6
CONTINUOUS
10
196.4238660000000039
20
-191.3666659999999808
11
196.6143419999999935
21
-191.4142849999999783
0
LINE
8
BLACK
6
CONTINUOUS
10
196.6143419999999935
20
-191.4142849999999783
11
196.7095799999999883
21
-191.4619040000000041
0
LINE
8
BLACK
6
CONTINUOUS
10
196.7095799999999883
20
-191.4619040000000041
11
196.7571999999999832
21
-191.5095230000000015
0
LINE
8
BLACK
6
CONTINUOUS
10
196.7571999999999832
20
-191.5095230000000015
11
196.8048189999999806
21
-191.6047609999999963
0
LINE
8
BLACK
6
CONTINUOUS
10
196.8048189999999806
20
-191.6047609999999963
11
196.8048189999999806
21
-191.6999989999999912
0
LINE
8
BLACK
6
CONTINUOUS
10
196.8048189999999806
20
-191.6999989999999912
11
196.7571999999999832
21
-191.795236999999986
0
LINE
8
BLACK
6
CONTINUOUS
10
196.7571999999999832
20
-191.795236999999986
11
196.7095799999999883
21
-191.8428559999999834
0
LINE
8
BLACK
6
CONTINUOUS
10
196.7095799999999883
20
-191.8428559999999834
11
196.6143419999999935
21
-191.8904749999999808
0
LINE
8
BLACK
6
CONTINUOUS
10
196.6143419999999935
20
-191.8904749999999808
11
196.4238660000000039
21
-191.9380939999999782
0
LINE
8
BLACK
6
CONTINUOUS
10
196.4238660000000039
20
-191.9380939999999782
11
196.1857709999999884
21
-191.9380939999999782
0
LINE
8
BLACK
6
CONTINUOUS
10
196.1857709999999884
20
-191.9380939999999782
11
195.9952949999999987
21
-191.8904749999999808
0
LINE
8
BLACK
6
CONTINUOUS
10
195.9952949999999987
20
-191.8904749999999808
11
195.9000570000000039
21
-191.8428559999999834
0
LINE
8
BLACK
6
CONTINUOUS
10
195.9000570000000039
20
-191.8428559999999834
11
195.852437999999978
21
-191.795236999999986
0
LINE
8
BLACK
6
CONTINUOUS
10
195.852437999999978
20
-191.795236999999986
11
195.8048189999999806
21
-191.6999989999999912
0
LINE
8
BLACK
6
CONTINUOUS
10
196.7095799999999883
20
-190.9380939999999782
11
196.7571999999999832
21
-190.8904749999999808
0
LINE
8
BLACK
6
CONTINUOUS
10
196.7571999999999832
20
-190.8904749999999808
11
196.8048189999999806
21
-190.9380939999999782
0
LINE
8
BLACK
6
CONTINUOUS
10
196.8048189999999806
20
-190.9380939999999782
11
196.7571999999999832
21
-190.9857130000000041
0
LINE
8
BLACK
6
CONTINUOUS
10
196.7571999999999832
20
-190.9857130000000041
11
196.7095799999999883
21
-190.9380939999999782
0
LINE
8
BLACK
6
CONTINUOUS
10
196.7095799999999883
20
-190.9380939999999782
11
196.8048189999999806
21
-190.9380939999999782
0
LINE
8
BLACK
6
CONTINUOUS
10
196.1381519999999909
20
-190.0333329999999989
11
196.8048189999999806
21
-190.0333329999999989
0
LINE
8
BLACK
6
CONTINUOUS
10
195.7571999999999832
20
-190.271427999999986
11
196.4714850000000013
21
-190.5095230000000015
0
LINE
8
BLACK
6
CONTINUOUS
10
196.4714850000000013
20
-190.5095230000000015
11
196.4714850000000013
21
-189.8904759999999783
0
LINE
8
BLACK
6
CONTINUOUS
10
196.8048189999999806
20
-188.7476179999999886
11
196.1381519999999909
21
-188.7476179999999886
0
LINE
8
BLACK
6
CONTINUOUS
10
196.2333899999999858
20
-188.7476179999999886
11
196.1857709999999884
21
-188.6999989999999912
0
LINE
8
BLACK
6
CONTINUOUS
10
196.1857709999999884
20
-188.6999989999999912
11
196.1381519999999909
21
-188.6047609999999963
0
LINE
8
BLACK
6
CONTINUOUS
10
196.1381519999999909
20
-188.6047609999999963
11
196.1381519999999909
21
-188.4619040000000041
0
LINE
8
BLACK
6
CONTINUOUS
10
196.1381519999999909
20
-188.4619040000000041
11
196.1857709999999884
21
-188.3666659999999808
0
LINE
8
BLACK
6
CONTINUOUS
10
196.1857709999999884
20
-188.3666659999999808
11
196.2810089999999832
21
-188.3190469999999834
0
LINE
8
BLACK
6
CONTINUOUS
10
196.2810089999999832
20
-188.3190469999999834
11
196.8048189999999806
21
-188.3190469999999834
0
LINE
8
BLACK
6
CONTINUOUS
10
196.2810089999999832
20
-188.3190469999999834
11
196.1857709999999884
21
-188.271427999999986
0
LINE
8
BLACK
6
CONTINUOUS
10
196.1857709999999884
20
-188.271427999999986
11
196.1381519999999909
21
-188.1761899999999912
0
LINE
8
BLACK
6
CONTINUOUS
10
196.1381519999999909
20
-188.1761899999999912
11
196.1381519999999909
21
-188.0333329999999989
0
LINE
8
BLACK
6
CONTINUOUS
10
196.1381519999999909
20
-188.0333329999999989
11
196.1857709999999884
21
-187.9380939999999782
0
LINE
8
BLACK
6
CONTINUOUS
10
196.1857709999999884
20
-187.9380939999999782
11
196.2810089999999832
21
-187.8904749999999808
0
LINE
8
BLACK
6
CONTINUOUS
10
196.2810089999999832
20
-187.8904749999999808
11
196.8048189999999806
21
-187.8904749999999808
0
LINE
8
BLACK
6
CONTINUOUS
10
196.8048189999999806
20
-187.4142849999999783
11
196.1381519999999909
21
-187.4142849999999783
0
LINE
8
BLACK
6
CONTINUOUS
10
196.2333899999999858
20
-187.4142849999999783
11
196.1857709999999884
21
-187.3666659999999808
0
LINE
8
BLACK
6
CONTINUOUS
10
196.1857709999999884
20
-187.3666659999999808
11
196.1381519999999909
21
-187.271427999999986
0
LINE
8
BLACK
6
CONTINUOUS
10
196.1381519999999909
20
-187.271427999999986
11
196.1381519999999909
21
-187.1285709999999938
0
LINE
8
BLACK
6
CONTINUOUS
10
196.1381519999999909
20
-187.1285709999999938
11
196.1857709999999884
21
-187.0333329999999989
0
LINE
8
BLACK
6
CONTINUOUS
10
196.1857709999999884
20
-187.0333329999999989
11
196.2810089999999832
21
-186.9857140000000015
0
LINE
8
BLACK
6
CONTINUOUS
10
196.2810089999999832
20
-186.9857140000000015
11
196.8048189999999806
21
-186.9857140000000015
0
LINE
8
BLACK
6
CONTINUOUS
10
196.2810089999999832
20
-186.9857140000000015
11
196.1857709999999884
21
-186.9380950000000041
0
LINE
8
BLACK
6
CONTINUOUS
10
196.1857709999999884
20
-186.9380950000000041
11
196.1381519999999909
21
-186.8428569999999809
0
LINE
8
BLACK
6
CONTINUOUS
10
196.1381519999999909
20
-186.8428569999999809
11
196.1381519999999909
21
-186.6999999999999886
0
LINE
8
BLACK
6
CONTINUOUS
10
196.1381519999999909
20
-186.6999999999999886
11
196.1857709999999884
21
-186.6047609999999963
0
LINE
8
BLACK
6
CONTINUOUS
10
196.1857709999999884
20
-186.6047609999999963
11
196.2810089999999832
21
-186.5571419999999989
0
LINE
8
BLACK
6
CONTINUOUS
10
196.2810089999999832
20
-186.5571419999999989
11
196.8048189999999806
21
-186.5571419999999989
0
LINE
8
BLACK
6
CONTINUOUS
10
204.3999999999999773
20
-174.5
11
195.7635799999999904
21
-174.5
0
LINE
8
BLACK
6
CONTINUOUS
10
204.3999999999999773
20
-204.8999999999999773
11
195.7635799999999904
21
-204.8999999999999773
0
LINE
8
BLACK
6
CONTINUOUS
10
196.3499999999999943
20
-174.5
11
196.3499999999999943
21
-185.6940479999999809
0
LINE
8
BLACK
6
CONTINUOUS
10
196.3499999999999943
20
-193.7059519999999964
11
196.3499999999999943
21
-204.8999999999999773
0
LINE
8
BLACK
6
CONTINUOUS
10
196.3499999999999943
20
-174.5
11
196.9364209999999957
21
-175.6265039999999829
0
LINE
8
BLACK
6
CONTINUOUS
10
196.3499999999999943
20
-174.5
11
195.7635789999999929
21
-175.6265039999999829
0
LINE
8
BLACK
6
CONTINUOUS
10
196.3499999999999943
20
-204.8999999999999773
11
195.7635789999999929
21
-203.7734959999999944
0
LINE
8
BLACK
6
CONTINUOUS
10
196.3499999999999943
20
-204.8999999999999773
11
196.9364209999999957
21
-203.7734959999999944
0
CIRCLE
8
BLACK
10
228.0999999999999943
20
-189.6999999999999886
40
12.
0
LINE
8
BLACK
6
CONTINUOUS
10
208.8999999999999773
20
-199.8999999999999773
11
208.8999999999999773
21
-200.8999999999999773
0
LINE
8
BLACK
6
CONTINUOUS
10
210.0999999999999943
20
-200.8999999999999773
11
210.0999999999999943
21
-199.8999999999999773
0
LINE
8
BLACK
6
CONTINUOUS
10
212.0999999999999943
20
-198.2999999999999829
11
212.0999999999999943
21
-196.0999999999999943
0
LINE
8
BLACK
6
CONTINUOUS
10
213.2999999999999829
20
-196.0999999999999943
11
212.0999999999999943
21
-196.0999999999999943
0
LINE
8
BLACK
6
CONTINUOUS
10
213.2999999999999829
20
-196.0999999999999943
11
213.2999999999999829
21
-198.2999999999999829
0
LINE
8
BLACK
6
CONTINUOUS
10
213.2999999999999829
20
-198.2999999999999829
11
212.0999999999999943
21
-198.2999999999999829
0
LINE
8
BLACK
6
CONTINUOUS
10
211.2999999999999829
20
-176.9000000000000057
11
211.2999999999999829
21
-178.0999999999999943
0
LINE
8
BLACK
6
CONTINUOUS
10
211.2999999999999829
20
-176.9000000000000057
11
213.5
21
-176.9000000000000057
0
LINE
8
BLACK
6
CONTINUOUS
10
213.5
20
-176.9000000000000057
11
213.5
21
-178.0999999999999943
0
LINE
8
BLACK
6
CONTINUOUS
10
213.5
20
-178.0999999999999943
11
211.2999999999999829
21
-178.0999999999999943
0
LINE
8
BLACK
6
CONTINUOUS
10
215.25
20
-177.2999999999999829
11
215.5499999999999829
21
-177.5
0
LINE
8
BLACK
6
CONTINUOUS
10
215.25
20
-177.6999999999999886
11
215.25
21
-177.2999999999999829
0
LINE
8
BLACK
6
CONTINUOUS
10
215.5499999999999829
20
-177.5
11
215.25
21
-177.6999999999999886
0
LINE
8
BLACK
6
CONTINUOUS
10
215.5999999999999943
20
-177.6999999999999886
11
215.5999999999999943
21
-177.2999999999999829
0
LINE
8
BLACK
6
CONTINUOUS
10
216.6999999999999886
20
-177.
11
214.5999999999999943
21
-177.
0
LINE
8
BLACK
6
CONTINUOUS
10
216.6999999999999886
20
-178.
11
214.5999999999999943
21
-178.
0
LINE
8
BLACK
6
CONTINUOUS
10
216.6999999999999886
20
-178.
11
216.6999999999999886
21
-177.
0
LINE
8
BLACK
6
CONTINUOUS
10
210.5999999999999943
20
-200.75
11
210.5999999999999943
21
-200.0499999999999829
0
LINE
8
BLACK
6
CONTINUOUS
10
211.7999999999999829
20
-200.0499999999999829
11
211.7999999999999829
21
-200.75
0
LINE
8
BLACK
6
CONTINUOUS
10
201.7999999999999829
20
-193.8999999999999773
11
201.7999999999999829
21
-185.5
0
LINE
8
BLACK
6
CONTINUOUS
10
205.8999999999999773
20
-183.6999999999999886
11
209.5
21
-183.6999999999999886
0
LINE
8
BLACK
6
CONTINUOUS
10
205.8999999999999773
20
-195.6999999999999886
11
209.5
21
-195.6999999999999886
0
LINE
8
BLACK
6
CONTINUOUS
10
209.5
20
-183.6999999999999886
11
209.5
21
-185.9000000000000057
0
LINE
8
BLACK
6
CONTINUOUS
10
209.5
20
-195.6999999999999886
11
209.5
21
-193.5
0
LINE
8
BLACK
6
CONTINUOUS
10
213.5499999999999829
20
-202.3999999999999773
11
214.25
21
-202.3999999999999773
0
LINE
8
BLACK
6
CONTINUOUS
10
214.25
20
-203.5999999999999943
11
213.5499999999999829
21
-203.5999999999999943
0
LINE
8
BLACK
6
CONTINUOUS
10
213.
20
-202.0099999999999909
11
215.4499999999999886
21
-202.0099999999999909
0
LINE
8
BLACK
6
CONTINUOUS
10
214.7999999999999829
20
-198.789999999999992
11
213.
21
-198.789999999999992
0
CIRCLE
8
BLACK
10
215.
20
-202.2999999999999829
40
0.1
0
LINE
8
BLACK
6
CONTINUOUS
10
214.5
20
-198.2999999999999829
11
214.5
21
-196.0999999999999943
0
LINE
8
BLACK
6
CONTINUOUS
10
215.6999999999999886
20
-196.0999999999999943
11
214.5
21
-196.0999999999999943
0
LINE
8
BLACK
6
CONTINUOUS
10
215.6999999999999886
20
-196.0999999999999943
11
215.6999999999999886
21
-198.2999999999999829
0
LINE
8
BLACK
6
CONTINUOUS
10
215.6999999999999886
20
-198.2999999999999829
11
214.5
21
-198.2999999999999829
0
ARC
8
BLACK
10
204.8999999999999773
20
-201.6999999999999886
40
3.1999999999999997
50
-180.00000000
51
-90.00000000
0
ARC
8
BLACK
10
204.8999999999999773
20
-177.6999999999999886
40
3.1999999999999997
50
90.00000000
51
180.00000000
0
ARC
8
BLACK
10
236.8999999999999773
20
-177.6999999999999886
40
3.1999999999999997
50
0.00000000
51
90.00000000
0
LINE
8
BLACK
6
CONTINUOUS
10
236.8999999999999773
20
-174.5
11
204.8999999999999773
21
-174.5
0
LINE
8
BLACK
6
CONTINUOUS
10
204.8999999999999773
20
-204.8999999999999773
11
236.8999999999999773
21
-204.8999999999999773
0
ARC
8
BLACK
10
236.8999999999999773
20
-201.6999999999999886
40
3.1999999999999997
50
-90.00000000
51
-0.00000000
0
LINE
8
BLACK
6
CONTINUOUS
10
201.6999999999999886
20
-201.6999999999999886
11
201.6999999999999886
21
-177.6999999999999886
0
LINE
8
BLACK
6
CONTINUOUS
10
240.0999999999999943
20
-201.6999999999999886
11
240.0999999999999943
21
-177.6999999999999886
  0
ENDSEC
  0
EOF
