  0
SECTION
  2
HEADER
  9
$ANGBASE
  50
0.0
  9
$ANGDIR
  70
1
  9
$MEASUREMENT
  70
1
  0
ENDSEC
  0
SECTION
  2
TABLES
  0
TABLE
  2
LTYPE
  70
4
  0
LTYPE
  5
40F
  2
CONTINUOUS
  70
0
  3
Solid line
  72
65
  73
0
  40
0.0
  0
LTYPE
  5
410
  2
DASHDOT
 70
0
  3
Dash Dot ____ _ ____ _
 72
65
 73
4
 40
2.0
 49
1.25
 49
-0.25
 49
0.25
 49
-0.25
  0
LTYPE
  5
411
  2
DASHED
 70
0
  3
Dashed __ __ __ __ __
 72
65
 73
2
 40
0.75
 49
0.5
 49
-0.25
  0
LTYPE
  5
43B
  2
DOTTED
 70
0
  3
Dotted .  .  .  .
 72
65
 73
2
 40
0.2
 49
0.0
 49
-0.2
  0
ENDTAB
  0
TABLE
  2
STYLE
  70
4
  0
STYLE
  2
KICAD
  70
0
  40
0
  41
1
  42
1
  50
0
  71
0
  3
isocp.shx
  0
STYLE
  2
KICADB
  70
0
  40
0
  41
1
  42
1
  50
0
  71
0
  3
isocp.shx
  0
STYLE
  2
KICADI
  70
0
  40
0
  41
1
  42
1
  50
15
  71
0
  3
isocp.shx
  0
STYLE
  2
KICADBI
  70
0
  40
0
  41
1
  42
1
  50
15
  71
0
  3
isocp.shx
  0
ENDTAB
  0
TABLE
  2
LAYER
  70
1
  0
LAYER
  2
BLACK
  70
0
  62
7
  6
CONTINUOUS
  0
ENDTAB
  0
ENDSEC
  0
SECTION
  2
ENTITIES
0
CIRCLE
8
BLACK
10
155.1500000000000057
20
-99.1499999999999915
40
2.3500000000000001
0
LINE
8
BLACK
6
CONTINUOUS
10
144.9309519999999907
20
-121.1548189999999892
11
144.3595239999999933
21
-121.1548189999999892
0
LINE
8
BLACK
6
CONTINUOUS
10
144.6452380000000062
20
-121.1548189999999892
11
144.6452380000000062
21
-120.1548189999999892
0
LINE
8
BLACK
6
CONTINUOUS
10
144.6452380000000062
20
-120.1548189999999892
11
144.5499999999999829
21
-120.2976759999999956
0
LINE
8
BLACK
6
CONTINUOUS
10
144.5499999999999829
20
-120.2976759999999956
11
144.4547619999999881
21
-120.3929139999999904
0
LINE
8
BLACK
6
CONTINUOUS
10
144.4547619999999881
20
-120.3929139999999904
11
144.3595239999999933
21
-120.4405329999999879
0
LINE
8
BLACK
6
CONTINUOUS
10
145.8357139999999958
20
-120.1548189999999892
11
145.3595239999999933
21
-120.1548189999999892
0
LINE
8
BLACK
6
CONTINUOUS
10
145.3595239999999933
20
-120.1548189999999892
11
145.3119049999999959
21
-120.6310089999999917
0
LINE
8
BLACK
6
CONTINUOUS
10
145.3119049999999959
20
-120.6310089999999917
11
145.3595239999999933
21
-120.5833899999999943
0
LINE
8
BLACK
6
CONTINUOUS
10
145.3595239999999933
20
-120.5833899999999943
11
145.4547619999999881
21
-120.5357709999999969
0
LINE
8
BLACK
6
CONTINUOUS
10
145.4547619999999881
20
-120.5357709999999969
11
145.6928570000000036
21
-120.5357709999999969
0
LINE
8
BLACK
6
CONTINUOUS
10
145.6928570000000036
20
-120.5357709999999969
11
145.7880949999999984
21
-120.5833899999999943
0
LINE
8
BLACK
6
CONTINUOUS
10
145.7880949999999984
20
-120.5833899999999943
11
145.8357139999999958
21
-120.6310089999999917
0
LINE
8
BLACK
6
CONTINUOUS
10
145.8357139999999958
20
-120.6310089999999917
11
145.8833329999999933
21
-120.7262470000000008
0
LINE
8
BLACK
6
CONTINUOUS
10
145.8833329999999933
20
-120.7262470000000008
11
145.8833329999999933
21
-120.9643419999999878
0
LINE
8
BLACK
6
CONTINUOUS
10
145.8833329999999933
20
-120.9643419999999878
11
145.8357139999999958
21
-121.0595799999999969
0
LINE
8
BLACK
6
CONTINUOUS
10
145.8357139999999958
20
-121.0595799999999969
11
145.7880949999999984
21
-121.1071999999999917
0
LINE
8
BLACK
6
CONTINUOUS
10
145.7880949999999984
20
-121.1071999999999917
11
145.6928570000000036
21
-121.1548189999999892
0
LINE
8
BLACK
6
CONTINUOUS
10
145.6928570000000036
20
-121.1548189999999892
11
145.4547619999999881
21
-121.1548189999999892
0
LINE
8
BLACK
6
CONTINUOUS
10
145.4547619999999881
20
-121.1548189999999892
11
145.3595239999999933
21
-121.1071999999999917
0
LINE
8
BLACK
6
CONTINUOUS
10
145.3595239999999933
20
-121.1071999999999917
11
145.3119049999999959
21
-121.0595799999999969
0
LINE
8
BLACK
6
CONTINUOUS
10
146.3119049999999959
20
-121.0595799999999969
11
146.3595239999999933
21
-121.1071999999999917
0
LINE
8
BLACK
6
CONTINUOUS
10
146.3595239999999933
20
-121.1071999999999917
11
146.3119049999999959
21
-121.1548189999999892
0
LINE
8
BLACK
6
CONTINUOUS
10
146.3119049999999959
20
-121.1548189999999892
11
146.2642859999999985
21
-121.1071999999999917
0
LINE
8
BLACK
6
CONTINUOUS
10
146.2642859999999985
20
-121.1071999999999917
11
146.3119049999999959
21
-121.0595799999999969
0
LINE
8
BLACK
6
CONTINUOUS
10
146.3119049999999959
20
-121.0595799999999969
11
146.3119049999999959
21
-121.1548189999999892
0
LINE
8
BLACK
6
CONTINUOUS
10
146.740476000000001
20
-120.2500569999999982
11
146.7880949999999984
21
-120.2024380000000008
0
LINE
8
BLACK
6
CONTINUOUS
10
146.7880949999999984
20
-120.2024380000000008
11
146.8833329999999933
21
-120.1548189999999892
0
LINE
8
BLACK
6
CONTINUOUS
10
146.8833329999999933
20
-120.1548189999999892
11
147.1214279999999803
21
-120.1548189999999892
0
LINE
8
BLACK
6
CONTINUOUS
10
147.1214279999999803
20
-120.1548189999999892
11
147.2166660000000036
21
-120.2024380000000008
0
LINE
8
BLACK
6
CONTINUOUS
10
147.2166660000000036
20
-120.2024380000000008
11
147.264285000000001
21
-120.2500569999999982
0
LINE
8
BLACK
6
CONTINUOUS
10
147.264285000000001
20
-120.2500569999999982
11
147.3119039999999984
21
-120.345294999999993
0
LINE
8
BLACK
6
CONTINUOUS
10
147.3119039999999984
20
-120.345294999999993
11
147.3119039999999984
21
-120.4405329999999879
0
LINE
8
BLACK
6
CONTINUOUS
10
147.3119039999999984
20
-120.4405329999999879
11
147.264285000000001
21
-120.5833899999999943
0
LINE
8
BLACK
6
CONTINUOUS
10
147.264285000000001
20
-120.5833899999999943
11
146.6928570000000036
21
-121.1548189999999892
0
LINE
8
BLACK
6
CONTINUOUS
10
146.6928570000000036
20
-121.1548189999999892
11
147.3119039999999984
21
-121.1548189999999892
0
LINE
8
BLACK
6
CONTINUOUS
10
148.5023809999999855
20
-121.1548189999999892
11
148.5023809999999855
21
-120.4881519999999995
0
LINE
8
BLACK
6
CONTINUOUS
10
148.5023809999999855
20
-120.5833899999999943
11
148.5499999999999829
21
-120.5357709999999969
0
LINE
8
BLACK
6
CONTINUOUS
10
148.5499999999999829
20
-120.5357709999999969
11
148.6452380000000062
21
-120.4881519999999995
0
LINE
8
BLACK
6
CONTINUOUS
10
148.6452380000000062
20
-120.4881519999999995
11
148.7880949999999984
21
-120.4881519999999995
0
LINE
8
BLACK
6
CONTINUOUS
10
148.7880949999999984
20
-120.4881519999999995
11
148.8833329999999933
21
-120.5357709999999969
0
LINE
8
BLACK
6
CONTINUOUS
10
148.8833329999999933
20
-120.5357709999999969
11
148.9309519999999907
21
-120.6310089999999917
0
LINE
8
BLACK
6
CONTINUOUS
10
148.9309519999999907
20
-120.6310089999999917
11
148.9309519999999907
21
-121.1548189999999892
0
LINE
8
BLACK
6
CONTINUOUS
10
148.9309519999999907
20
-120.6310089999999917
11
148.9785709999999881
21
-120.5357709999999969
0
LINE
8
BLACK
6
CONTINUOUS
10
148.9785709999999881
20
-120.5357709999999969
11
149.0738089999999829
21
-120.4881519999999995
0
LINE
8
BLACK
6
CONTINUOUS
10
149.0738089999999829
20
-120.4881519999999995
11
149.2166660000000036
21
-120.4881519999999995
0
LINE
8
BLACK
6
CONTINUOUS
10
149.2166660000000036
20
-120.4881519999999995
11
149.3119049999999959
21
-120.5357709999999969
0
LINE
8
BLACK
6
CONTINUOUS
10
149.3119049999999959
20
-120.5357709999999969
11
149.3595239999999933
21
-120.6310089999999917
0
LINE
8
BLACK
6
CONTINUOUS
10
149.3595239999999933
20
-120.6310089999999917
11
149.3595239999999933
21
-121.1548189999999892
0
LINE
8
BLACK
6
CONTINUOUS
10
149.8357139999999958
20
-121.1548189999999892
11
149.8357139999999958
21
-120.4881519999999995
0
LINE
8
BLACK
6
CONTINUOUS
10
149.8357139999999958
20
-120.5833899999999943
11
149.8833329999999933
21
-120.5357709999999969
0
LINE
8
BLACK
6
CONTINUOUS
10
149.8833329999999933
20
-120.5357709999999969
11
149.9785709999999881
21
-120.4881519999999995
0
LINE
8
BLACK
6
CONTINUOUS
10
149.9785709999999881
20
-120.4881519999999995
11
150.1214279999999803
21
-120.4881519999999995
0
LINE
8
BLACK
6
CONTINUOUS
10
150.1214279999999803
20
-120.4881519999999995
11
150.2166660000000036
21
-120.5357709999999969
0
LINE
8
BLACK
6
CONTINUOUS
10
150.2166660000000036
20
-120.5357709999999969
11
150.264285000000001
21
-120.6310089999999917
0
LINE
8
BLACK
6
CONTINUOUS
10
150.264285000000001
20
-120.6310089999999917
11
150.264285000000001
21
-121.1548189999999892
0
LINE
8
BLACK
6
CONTINUOUS
10
150.264285000000001
20
-120.6310089999999917
11
150.3119039999999984
21
-120.5357709999999969
0
LINE
8
BLACK
6
CONTINUOUS
10
150.3119039999999984
20
-120.5357709999999969
11
150.4071419999999932
21
-120.4881519999999995
0
LINE
8
BLACK
6
CONTINUOUS
10
150.4071419999999932
20
-120.4881519999999995
11
150.5499989999999855
21
-120.4881519999999995
0
LINE
8
BLACK
6
CONTINUOUS
10
150.5499989999999855
20
-120.4881519999999995
11
150.6452380000000062
21
-120.5357709999999969
0
LINE
8
BLACK
6
CONTINUOUS
10
150.6452380000000062
20
-120.5357709999999969
11
150.6928570000000036
21
-120.6310089999999917
0
LINE
8
BLACK
6
CONTINUOUS
10
150.6928570000000036
20
-120.6310089999999917
11
150.6928570000000036
21
-121.1548189999999892
0
LINE
8
BLACK
6
CONTINUOUS
10
155.1500000000000057
20
-115.6499999999999915
11
155.1500000000000057
21
-121.2864199999999926
0
LINE
8
BLACK
6
CONTINUOUS
10
139.9499999999999886
20
-115.6499999999999915
11
139.9499999999999886
21
-121.2864199999999926
0
LINE
8
BLACK
6
CONTINUOUS
10
155.1500000000000057
20
-120.6999999999999886
11
151.5559519999999907
21
-120.6999999999999886
0
LINE
8
BLACK
6
CONTINUOUS
10
143.5440480000000036
20
-120.6999999999999886
11
139.9499999999999886
21
-120.6999999999999886
0
LINE
8
BLACK
6
CONTINUOUS
10
155.1500000000000057
20
-120.6999999999999886
11
154.0234959999999944
21
-121.28642099999999
0
LINE
8
BLACK
6
CONTINUOUS
10
155.1500000000000057
20
-120.6999999999999886
11
154.0234959999999944
21
-120.1135790000000014
0
LINE
8
BLACK
6
CONTINUOUS
10
139.9499999999999886
20
-120.6999999999999886
11
141.0765039999999999
21
-120.1135790000000014
0
LINE
8
BLACK
6
CONTINUOUS
10
139.9499999999999886
20
-120.6999999999999886
11
141.0765039999999999
21
-121.28642099999999
0
LINE
8
BLACK
6
CONTINUOUS
10
134.0500569999999811
20
-110.3404749999999979
11
134.0024379999999837
21
-110.2928560000000004
0
LINE
8
BLACK
6
CONTINUOUS
10
134.0024379999999837
20
-110.2928560000000004
11
133.9548189999999863
21
-110.1976179999999914
0
LINE
8
BLACK
6
CONTINUOUS
10
133.9548189999999863
20
-110.1976179999999914
11
133.9548189999999863
21
-109.9595229999999901
0
LINE
8
BLACK
6
CONTINUOUS
10
133.9548189999999863
20
-109.9595229999999901
11
134.0024379999999837
21
-109.8642849999999953
0
LINE
8
BLACK
6
CONTINUOUS
10
134.0024379999999837
20
-109.8642849999999953
11
134.0500569999999811
21
-109.8166659999999979
0
LINE
8
BLACK
6
CONTINUOUS
10
134.0500569999999811
20
-109.8166659999999979
11
134.1452950000000044
21
-109.7690470000000005
0
LINE
8
BLACK
6
CONTINUOUS
10
134.1452950000000044
20
-109.7690470000000005
11
134.2405329999999992
21
-109.7690470000000005
0
LINE
8
BLACK
6
CONTINUOUS
10
134.2405329999999992
20
-109.7690470000000005
11
134.3833899999999915
21
-109.8166659999999979
0
LINE
8
BLACK
6
CONTINUOUS
10
134.3833899999999915
20
-109.8166659999999979
11
134.9548189999999863
21
-110.3880939999999953
0
LINE
8
BLACK
6
CONTINUOUS
10
134.9548189999999863
20
-110.3880939999999953
11
134.9548189999999863
21
-109.7690470000000005
0
LINE
8
BLACK
6
CONTINUOUS
10
134.0500569999999811
20
-109.3880939999999953
11
134.0024379999999837
21
-109.3404749999999979
0
LINE
8
BLACK
6
CONTINUOUS
10
134.0024379999999837
20
-109.3404749999999979
11
133.9548189999999863
21
-109.2452369999999888
0
LINE
8
BLACK
6
CONTINUOUS
10
133.9548189999999863
20
-109.2452369999999888
11
133.9548189999999863
21
-109.0071420000000018
0
LINE
8
BLACK
6
CONTINUOUS
10
133.9548189999999863
20
-109.0071420000000018
11
134.0024379999999837
21
-108.9119039999999927
0
LINE
8
BLACK
6
CONTINUOUS
10
134.0024379999999837
20
-108.9119039999999927
11
134.0500569999999811
21
-108.8642849999999953
0
LINE
8
BLACK
6
CONTINUOUS
10
134.0500569999999811
20
-108.8642849999999953
11
134.1452950000000044
21
-108.8166659999999979
0
LINE
8
BLACK
6
CONTINUOUS
10
134.1452950000000044
20
-108.8166659999999979
11
134.2405329999999992
21
-108.8166659999999979
0
LINE
8
BLACK
6
CONTINUOUS
10
134.2405329999999992
20
-108.8166659999999979
11
134.3833899999999915
21
-108.8642849999999953
0
LINE
8
BLACK
6
CONTINUOUS
10
134.3833899999999915
20
-108.8642849999999953
11
134.9548189999999863
21
-109.4357129999999927
0
LINE
8
BLACK
6
CONTINUOUS
10
134.9548189999999863
20
-109.4357129999999927
11
134.9548189999999863
21
-108.8166659999999979
0
LINE
8
BLACK
6
CONTINUOUS
10
134.859579999999994
20
-108.3880939999999953
11
134.9071999999999889
21
-108.3404749999999979
0
LINE
8
BLACK
6
CONTINUOUS
10
134.9071999999999889
20
-108.3404749999999979
11
134.9548189999999863
21
-108.3880939999999953
0
LINE
8
BLACK
6
CONTINUOUS
10
134.9548189999999863
20
-108.3880939999999953
11
134.9071999999999889
21
-108.4357129999999927
0
LINE
8
BLACK
6
CONTINUOUS
10
134.9071999999999889
20
-108.4357129999999927
11
134.859579999999994
21
-108.3880939999999953
0
LINE
8
BLACK
6
CONTINUOUS
10
134.859579999999994
20
-108.3880939999999953
11
134.9548189999999863
21
-108.3880939999999953
0
LINE
8
BLACK
6
CONTINUOUS
10
134.2881519999999966
20
-107.4833330000000018
11
134.9548189999999863
21
-107.4833330000000018
0
LINE
8
BLACK
6
CONTINUOUS
10
133.9071999999999889
20
-107.7214279999999889
11
134.6214850000000069
21
-107.9595229999999901
0
LINE
8
BLACK
6
CONTINUOUS
10
134.6214850000000069
20
-107.9595229999999901
11
134.6214850000000069
21
-107.3404759999999953
0
LINE
8
BLACK
6
CONTINUOUS
10
134.9548189999999863
20
-106.1976179999999914
11
134.2881519999999966
21
-106.1976179999999914
0
LINE
8
BLACK
6
CONTINUOUS
10
134.3833899999999915
20
-106.1976179999999914
11
134.335770999999994
21
-106.149998999999994
0
LINE
8
BLACK
6
CONTINUOUS
10
134.335770999999994
20
-106.149998999999994
11
134.2881519999999966
21
-106.0547609999999992
0
LINE
8
BLACK
6
CONTINUOUS
10
134.2881519999999966
20
-106.0547609999999992
11
134.2881519999999966
21
-105.9119039999999927
0
LINE
8
BLACK
6
CONTINUOUS
10
134.2881519999999966
20
-105.9119039999999927
11
134.335770999999994
21
-105.8166659999999979
0
LINE
8
BLACK
6
CONTINUOUS
10
134.335770999999994
20
-105.8166659999999979
11
134.4310089999999889
21
-105.7690470000000005
0
LINE
8
BLACK
6
CONTINUOUS
10
134.4310089999999889
20
-105.7690470000000005
11
134.9548189999999863
21
-105.7690470000000005
0
LINE
8
BLACK
6
CONTINUOUS
10
134.4310089999999889
20
-105.7690470000000005
11
134.335770999999994
21
-105.7214279999999889
0
LINE
8
BLACK
6
CONTINUOUS
10
134.335770999999994
20
-105.7214279999999889
11
134.2881519999999966
21
-105.626189999999994
0
LINE
8
BLACK
6
CONTINUOUS
10
134.2881519999999966
20
-105.626189999999994
11
134.2881519999999966
21
-105.4833330000000018
0
LINE
8
BLACK
6
CONTINUOUS
10
134.2881519999999966
20
-105.4833330000000018
11
134.335770999999994
21
-105.3880939999999953
0
LINE
8
BLACK
6
CONTINUOUS
10
134.335770999999994
20
-105.3880939999999953
11
134.4310089999999889
21
-105.3404749999999979
0
LINE
8
BLACK
6
CONTINUOUS
10
134.4310089999999889
20
-105.3404749999999979
11
134.9548189999999863
21
-105.3404749999999979
0
LINE
8
BLACK
6
CONTINUOUS
10
134.9548189999999863
20
-104.8642849999999953
11
134.2881519999999966
21
-104.8642849999999953
0
LINE
8
BLACK
6
CONTINUOUS
10
134.3833899999999915
20
-104.8642849999999953
11
134.335770999999994
21
-104.8166659999999979
0
LINE
8
BLACK
6
CONTINUOUS
10
134.335770999999994
20
-104.8166659999999979
11
134.2881519999999966
21
-104.7214279999999889
0
LINE
8
BLACK
6
CONTINUOUS
10
134.2881519999999966
20
-104.7214279999999889
11
134.2881519999999966
21
-104.5785709999999966
0
LINE
8
BLACK
6
CONTINUOUS
10
134.2881519999999966
20
-104.5785709999999966
11
134.335770999999994
21
-104.4833330000000018
0
LINE
8
BLACK
6
CONTINUOUS
10
134.335770999999994
20
-104.4833330000000018
11
134.4310089999999889
21
-104.4357139999999902
0
LINE
8
BLACK
6
CONTINUOUS
10
134.4310089999999889
20
-104.4357139999999902
11
134.9548189999999863
21
-104.4357139999999902
0
LINE
8
BLACK
6
CONTINUOUS
10
134.4310089999999889
20
-104.4357139999999902
11
134.335770999999994
21
-104.3880949999999928
0
LINE
8
BLACK
6
CONTINUOUS
10
134.335770999999994
20
-104.3880949999999928
11
134.2881519999999966
21
-104.2928569999999979
0
LINE
8
BLACK
6
CONTINUOUS
10
134.2881519999999966
20
-104.2928569999999979
11
134.2881519999999966
21
-104.1499999999999915
0
LINE
8
BLACK
6
CONTINUOUS
10
134.2881519999999966
20
-104.1499999999999915
11
134.335770999999994
21
-104.0547609999999992
0
LINE
8
BLACK
6
CONTINUOUS
10
134.335770999999994
20
-104.0547609999999992
11
134.4310089999999889
21
-104.0071420000000018
0
LINE
8
BLACK
6
CONTINUOUS
10
134.4310089999999889
20
-104.0071420000000018
11
134.9548189999999863
21
-104.0071420000000018
0
LINE
8
BLACK
6
CONTINUOUS
10
142.6500000000000057
20
-95.9499999999999886
11
133.9135799999999961
21
-95.9499999999999886
0
LINE
8
BLACK
6
CONTINUOUS
10
142.6500000000000057
20
-118.3499999999999943
11
133.9135799999999961
21
-118.3499999999999943
0
LINE
8
BLACK
6
CONTINUOUS
10
134.5
20
-95.9499999999999886
11
134.5
21
-103.144047999999998
0
LINE
8
BLACK
6
CONTINUOUS
10
134.5
20
-111.1559519999999992
11
134.5
21
-118.3499999999999943
0
LINE
8
BLACK
6
CONTINUOUS
10
134.5
20
-95.9499999999999886
11
135.0864210000000014
21
-97.0765039999999999
0
LINE
8
BLACK
6
CONTINUOUS
10
134.5
20
-95.9499999999999886
11
133.9135789999999986
21
-97.0765039999999999
0
LINE
8
BLACK
6
CONTINUOUS
10
134.5
20
-118.3499999999999943
11
133.9135789999999986
21
-117.2234959999999973
0
LINE
8
BLACK
6
CONTINUOUS
10
134.5
20
-118.3499999999999943
11
135.0864210000000014
21
-117.2234959999999973
0
LINE
8
BLACK
6
CONTINUOUS
10
137.854818999999992
20
-109.0547609999999992
11
137.854818999999992
21
-109.6261889999999966
0
LINE
8
BLACK
6
CONTINUOUS
10
137.854818999999992
20
-109.3404749999999979
11
136.854818999999992
21
-109.3404749999999979
0
LINE
8
BLACK
6
CONTINUOUS
10
136.854818999999992
20
-109.3404749999999979
11
136.9976759999999842
21
-109.4357129999999927
0
LINE
8
BLACK
6
CONTINUOUS
10
136.9976759999999842
20
-109.4357129999999927
11
137.0929140000000075
21
-109.5309510000000017
0
LINE
8
BLACK
6
CONTINUOUS
10
137.0929140000000075
20
-109.5309510000000017
11
137.1405330000000049
21
-109.6261889999999966
0
LINE
8
BLACK
6
CONTINUOUS
10
136.854818999999992
20
-108.1976179999999914
11
136.854818999999992
21
-108.3880939999999953
0
LINE
8
BLACK
6
CONTINUOUS
10
136.854818999999992
20
-108.3880939999999953
11
136.9024379999999894
21
-108.4833319999999901
0
LINE
8
BLACK
6
CONTINUOUS
10
136.9024379999999894
20
-108.4833319999999901
11
136.9500569999999868
21
-108.5309510000000017
0
LINE
8
BLACK
6
CONTINUOUS
10
136.9500569999999868
20
-108.5309510000000017
11
137.0929140000000075
21
-108.6261889999999966
0
LINE
8
BLACK
6
CONTINUOUS
10
137.0929140000000075
20
-108.6261889999999966
11
137.2833899999999971
21
-108.673807999999994
0
LINE
8
BLACK
6
CONTINUOUS
10
137.2833899999999971
20
-108.673807999999994
11
137.6643420000000049
21
-108.673807999999994
0
LINE
8
BLACK
6
CONTINUOUS
10
137.6643420000000049
20
-108.673807999999994
11
137.7595799999999997
21
-108.6261889999999966
0
LINE
8
BLACK
6
CONTINUOUS
10
137.7595799999999997
20
-108.6261889999999966
11
137.8071999999999946
21
-108.5785699999999991
0
LINE
8
BLACK
6
CONTINUOUS
10
137.8071999999999946
20
-108.5785699999999991
11
137.854818999999992
21
-108.4833319999999901
0
LINE
8
BLACK
6
CONTINUOUS
10
137.854818999999992
20
-108.4833319999999901
11
137.854818999999992
21
-108.2928560000000004
0
LINE
8
BLACK
6
CONTINUOUS
10
137.854818999999992
20
-108.2928560000000004
11
137.8071999999999946
21
-108.1976179999999914
0
LINE
8
BLACK
6
CONTINUOUS
10
137.8071999999999946
20
-108.1976179999999914
11
137.7595799999999997
21
-108.149998999999994
0
LINE
8
BLACK
6
CONTINUOUS
10
137.7595799999999997
20
-108.149998999999994
11
137.6643420000000049
21
-108.1023799999999966
0
LINE
8
BLACK
6
CONTINUOUS
10
137.6643420000000049
20
-108.1023799999999966
11
137.4262469999999894
21
-108.1023799999999966
0
LINE
8
BLACK
6
CONTINUOUS
10
137.4262469999999894
20
-108.1023799999999966
11
137.3310089999999946
21
-108.149998999999994
0
LINE
8
BLACK
6
CONTINUOUS
10
137.3310089999999946
20
-108.149998999999994
11
137.2833899999999971
21
-108.1976179999999914
0
LINE
8
BLACK
6
CONTINUOUS
10
137.2833899999999971
20
-108.1976179999999914
11
137.2357709999999997
21
-108.2928560000000004
0
LINE
8
BLACK
6
CONTINUOUS
10
137.2357709999999997
20
-108.2928560000000004
11
137.2357709999999997
21
-108.4833319999999901
0
LINE
8
BLACK
6
CONTINUOUS
10
137.2357709999999997
20
-108.4833319999999901
11
137.2833899999999971
21
-108.5785699999999991
0
LINE
8
BLACK
6
CONTINUOUS
10
137.2833899999999971
20
-108.5785699999999991
11
137.3310089999999946
21
-108.6261889999999966
0
LINE
8
BLACK
6
CONTINUOUS
10
137.3310089999999946
20
-108.6261889999999966
11
137.4262469999999894
21
-108.673807999999994
0
LINE
8
BLACK
6
CONTINUOUS
10
137.854818999999992
20
-106.9119029999999952
11
137.1881520000000023
21
-106.9119029999999952
0
LINE
8
BLACK
6
CONTINUOUS
10
137.2833899999999971
20
-106.9119029999999952
11
137.2357709999999997
21
-106.8642839999999978
0
LINE
8
BLACK
6
CONTINUOUS
10
137.2357709999999997
20
-106.8642839999999978
11
137.1881520000000023
21
-106.7690459999999888
0
LINE
8
BLACK
6
CONTINUOUS
10
137.1881520000000023
20
-106.7690459999999888
11
137.1881520000000023
21
-106.6261889999999966
0
LINE
8
BLACK
6
CONTINUOUS
10
137.1881520000000023
20
-106.6261889999999966
11
137.2357709999999997
21
-106.5309510000000017
0
LINE
8
BLACK
6
CONTINUOUS
10
137.2357709999999997
20
-106.5309510000000017
11
137.3310089999999946
21
-106.4833319999999901
0
LINE
8
BLACK
6
CONTINUOUS
10
137.3310089999999946
20
-106.4833319999999901
11
137.854818999999992
21
-106.4833319999999901
0
LINE
8
BLACK
6
CONTINUOUS
10
137.3310089999999946
20
-106.4833319999999901
11
137.2357709999999997
21
-106.4357129999999927
0
LINE
8
BLACK
6
CONTINUOUS
10
137.2357709999999997
20
-106.4357129999999927
11
137.1881520000000023
21
-106.3404749999999979
0
LINE
8
BLACK
6
CONTINUOUS
10
137.1881520000000023
20
-106.3404749999999979
11
137.1881520000000023
21
-106.1976179999999914
0
LINE
8
BLACK
6
CONTINUOUS
10
137.1881520000000023
20
-106.1976179999999914
11
137.2357709999999997
21
-106.1023789999999991
0
LINE
8
BLACK
6
CONTINUOUS
10
137.2357709999999997
20
-106.1023789999999991
11
137.3310089999999946
21
-106.0547600000000017
0
LINE
8
BLACK
6
CONTINUOUS
10
137.3310089999999946
20
-106.0547600000000017
11
137.854818999999992
21
-106.0547600000000017
0
LINE
8
BLACK
6
CONTINUOUS
10
137.854818999999992
20
-105.5785699999999991
11
137.1881520000000023
21
-105.5785699999999991
0
LINE
8
BLACK
6
CONTINUOUS
10
137.2833899999999971
20
-105.5785699999999991
11
137.2357709999999997
21
-105.5309510000000017
0
LINE
8
BLACK
6
CONTINUOUS
10
137.2357709999999997
20
-105.5309510000000017
11
137.1881520000000023
21
-105.4357129999999927
0
LINE
8
BLACK
6
CONTINUOUS
10
137.1881520000000023
20
-105.4357129999999927
11
137.1881520000000023
21
-105.2928560000000004
0
LINE
8
BLACK
6
CONTINUOUS
10
137.1881520000000023
20
-105.2928560000000004
11
137.2357709999999997
21
-105.1976179999999914
0
LINE
8
BLACK
6
CONTINUOUS
10
137.2357709999999997
20
-105.1976179999999914
11
137.3310089999999946
21
-105.149998999999994
0
LINE
8
BLACK
6
CONTINUOUS
10
137.3310089999999946
20
-105.149998999999994
11
137.854818999999992
21
-105.149998999999994
0
LINE
8
BLACK
6
CONTINUOUS
10
137.3310089999999946
20
-105.149998999999994
11
137.2357709999999997
21
-105.1023799999999966
0
LINE
8
BLACK
6
CONTINUOUS
10
137.2357709999999997
20
-105.1023799999999966
11
137.1881520000000023
21
-105.0071420000000018
0
LINE
8
BLACK
6
CONTINUOUS
10
137.1881520000000023
20
-105.0071420000000018
11
137.1881520000000023
21
-104.8642849999999953
0
LINE
8
BLACK
6
CONTINUOUS
10
137.1881520000000023
20
-104.8642849999999953
11
137.2357709999999997
21
-104.7690459999999888
0
LINE
8
BLACK
6
CONTINUOUS
10
137.2357709999999997
20
-104.7690459999999888
11
137.3310089999999946
21
-104.7214269999999914
0
LINE
8
BLACK
6
CONTINUOUS
10
137.3310089999999946
20
-104.7214269999999914
11
137.854818999999992
21
-104.7214269999999914
0
LINE
8
BLACK
6
CONTINUOUS
10
154.6500000000000057
20
-99.1499999999999915
11
136.8135800000000017
21
-99.1499999999999915
0
LINE
8
BLACK
6
CONTINUOUS
10
154.6500000000000057
20
-115.1499999999999915
11
136.8135800000000017
21
-115.1499999999999915
0
LINE
8
BLACK
6
CONTINUOUS
10
137.4000000000000057
20
-99.1499999999999915
11
137.4000000000000057
21
-103.8583330000000018
0
LINE
8
BLACK
6
CONTINUOUS
10
137.4000000000000057
20
-110.4416659999999979
11
137.4000000000000057
21
-115.1499999999999915
0
LINE
8
BLACK
6
CONTINUOUS
10
137.4000000000000057
20
-99.1499999999999915
11
137.9864210000000071
21
-100.2765039999999885
0
LINE
8
BLACK
6
CONTINUOUS
10
137.4000000000000057
20
-99.1499999999999915
11
136.8135790000000043
21
-100.2765039999999885
0
LINE
8
BLACK
6
CONTINUOUS
10
137.4000000000000057
20
-115.1499999999999915
11
136.8135790000000043
21
-114.0234959999999944
0
LINE
8
BLACK
6
CONTINUOUS
10
137.4000000000000057
20
-115.1499999999999915
11
137.9864210000000071
21
-114.0234959999999944
0
LINE
8
BLACK
6
CONTINUOUS
10
155.9119049999999902
20
-90.8048189999999948
11
156.530951999999985
21
-90.8048189999999948
0
LINE
8
BLACK
6
CONTINUOUS
10
156.530951999999985
20
-90.8048189999999948
11
156.1976190000000031
21
-91.1857710000000026
0
LINE
8
BLACK
6
CONTINUOUS
10
156.1976190000000031
20
-91.1857710000000026
11
156.3404759999999953
21
-91.1857710000000026
0
LINE
8
BLACK
6
CONTINUOUS
10
156.3404759999999953
20
-91.1857710000000026
11
156.4357139999999902
21
-91.23339
0
LINE
8
BLACK
6
CONTINUOUS
10
156.4357139999999902
20
-91.23339
11
156.4833329999999876
21
-91.2810089999999974
0
LINE
8
BLACK
6
CONTINUOUS
10
156.4833329999999876
20
-91.2810089999999974
11
156.530951999999985
21
-91.3762469999999922
0
LINE
8
BLACK
6
CONTINUOUS
10
156.530951999999985
20
-91.3762469999999922
11
156.530951999999985
21
-91.6143419999999935
0
LINE
8
BLACK
6
CONTINUOUS
10
156.530951999999985
20
-91.6143419999999935
11
156.4833329999999876
21
-91.7095800000000025
0
LINE
8
BLACK
6
CONTINUOUS
10
156.4833329999999876
20
-91.7095800000000025
11
156.4357139999999902
21
-91.7571999999999974
0
LINE
8
BLACK
6
CONTINUOUS
10
156.4357139999999902
20
-91.7571999999999974
11
156.3404759999999953
21
-91.8048189999999948
0
LINE
8
BLACK
6
CONTINUOUS
10
156.3404759999999953
20
-91.8048189999999948
11
156.0547619999999824
21
-91.8048189999999948
0
LINE
8
BLACK
6
CONTINUOUS
10
156.0547619999999824
20
-91.8048189999999948
11
155.9595239999999876
21
-91.7571999999999974
0
LINE
8
BLACK
6
CONTINUOUS
10
155.9595239999999876
20
-91.7571999999999974
11
155.9119049999999902
21
-91.7095800000000025
0
LINE
8
BLACK
6
CONTINUOUS
10
157.1023809999999798
20
-91.23339
11
157.007142999999985
21
-91.1857710000000026
0
LINE
8
BLACK
6
CONTINUOUS
10
157.007142999999985
20
-91.1857710000000026
11
156.9595239999999876
21
-91.1381519999999909
0
LINE
8
BLACK
6
CONTINUOUS
10
156.9595239999999876
20
-91.1381519999999909
11
156.9119049999999902
21
-91.0429139999999961
0
LINE
8
BLACK
6
CONTINUOUS
10
156.9119049999999902
20
-91.0429139999999961
11
156.9119049999999902
21
-90.9952949999999987
0
LINE
8
BLACK
6
CONTINUOUS
10
156.9119049999999902
20
-90.9952949999999987
11
156.9595239999999876
21
-90.9000569999999897
0
LINE
8
BLACK
6
CONTINUOUS
10
156.9595239999999876
20
-90.9000569999999897
11
157.007142999999985
21
-90.8524379999999923
0
LINE
8
BLACK
6
CONTINUOUS
10
157.007142999999985
20
-90.8524379999999923
11
157.1023809999999798
21
-90.8048189999999948
0
LINE
8
BLACK
6
CONTINUOUS
10
157.1023809999999798
20
-90.8048189999999948
11
157.2928569999999979
21
-90.8048189999999948
0
LINE
8
BLACK
6
CONTINUOUS
10
157.2928569999999979
20
-90.8048189999999948
11
157.3880949999999928
21
-90.8524379999999923
0
LINE
8
BLACK
6
CONTINUOUS
10
157.3880949999999928
20
-90.8524379999999923
11
157.4357139999999902
21
-90.9000569999999897
0
LINE
8
BLACK
6
CONTINUOUS
10
157.4357139999999902
20
-90.9000569999999897
11
157.4833329999999876
21
-90.9952949999999987
0
LINE
8
BLACK
6
CONTINUOUS
10
157.4833329999999876
20
-90.9952949999999987
11
157.4833329999999876
21
-91.0429139999999961
0
LINE
8
BLACK
6
CONTINUOUS
10
157.4833329999999876
20
-91.0429139999999961
11
157.4357139999999902
21
-91.1381519999999909
0
LINE
8
BLACK
6
CONTINUOUS
10
157.4357139999999902
20
-91.1381519999999909
11
157.3880949999999928
21
-91.1857710000000026
0
LINE
8
BLACK
6
CONTINUOUS
10
157.3880949999999928
20
-91.1857710000000026
11
157.2928569999999979
21
-91.23339
0
LINE
8
BLACK
6
CONTINUOUS
10
157.2928569999999979
20
-91.23339
11
157.1023809999999798
21
-91.23339
0
LINE
8
BLACK
6
CONTINUOUS
10
157.1023809999999798
20
-91.23339
11
157.007142999999985
21
-91.2810089999999974
0
LINE
8
BLACK
6
CONTINUOUS
10
157.007142999999985
20
-91.2810089999999974
11
156.9595239999999876
21
-91.3286279999999948
0
LINE
8
BLACK
6
CONTINUOUS
10
156.9595239999999876
20
-91.3286279999999948
11
156.9119049999999902
21
-91.4238659999999896
0
LINE
8
BLACK
6
CONTINUOUS
10
156.9119049999999902
20
-91.4238659999999896
11
156.9119049999999902
21
-91.6143419999999935
0
LINE
8
BLACK
6
CONTINUOUS
10
156.9119049999999902
20
-91.6143419999999935
11
156.9595239999999876
21
-91.7095800000000025
0
LINE
8
BLACK
6
CONTINUOUS
10
156.9595239999999876
20
-91.7095800000000025
11
157.007142999999985
21
-91.7571999999999974
0
LINE
8
BLACK
6
CONTINUOUS
10
157.007142999999985
20
-91.7571999999999974
11
157.1023809999999798
21
-91.8048189999999948
0
LINE
8
BLACK
6
CONTINUOUS
10
157.1023809999999798
20
-91.8048189999999948
11
157.2928569999999979
21
-91.8048189999999948
0
LINE
8
BLACK
6
CONTINUOUS
10
157.2928569999999979
20
-91.8048189999999948
11
157.3880949999999928
21
-91.7571999999999974
0
LINE
8
BLACK
6
CONTINUOUS
10
157.3880949999999928
20
-91.7571999999999974
11
157.4357139999999902
21
-91.7095800000000025
0
LINE
8
BLACK
6
CONTINUOUS
10
157.4357139999999902
20
-91.7095800000000025
11
157.4833329999999876
21
-91.6143419999999935
0
LINE
8
BLACK
6
CONTINUOUS
10
157.4833329999999876
20
-91.6143419999999935
11
157.4833329999999876
21
-91.4238659999999896
0
LINE
8
BLACK
6
CONTINUOUS
10
157.4833329999999876
20
-91.4238659999999896
11
157.4357139999999902
21
-91.3286279999999948
0
LINE
8
BLACK
6
CONTINUOUS
10
157.4357139999999902
20
-91.3286279999999948
11
157.3880949999999928
21
-91.2810089999999974
0
LINE
8
BLACK
6
CONTINUOUS
10
157.3880949999999928
20
-91.2810089999999974
11
157.2928569999999979
21
-91.23339
0
LINE
8
BLACK
6
CONTINUOUS
10
157.9119049999999902
20
-91.7095800000000025
11
157.9595239999999876
21
-91.7571999999999974
0
LINE
8
BLACK
6
CONTINUOUS
10
157.9595239999999876
20
-91.7571999999999974
11
157.9119049999999902
21
-91.8048189999999948
0
LINE
8
BLACK
6
CONTINUOUS
10
157.9119049999999902
20
-91.8048189999999948
11
157.8642859999999928
21
-91.7571999999999974
0
LINE
8
BLACK
6
CONTINUOUS
10
157.8642859999999928
20
-91.7571999999999974
11
157.9119049999999902
21
-91.7095800000000025
0
LINE
8
BLACK
6
CONTINUOUS
10
157.9119049999999902
20
-91.7095800000000025
11
157.9119049999999902
21
-91.8048189999999948
0
LINE
8
BLACK
6
CONTINUOUS
10
158.8166659999999979
20
-91.1381519999999909
11
158.8166659999999979
21
-91.8048189999999948
0
LINE
8
BLACK
6
CONTINUOUS
10
158.5785709999999824
20
-90.7571999999999974
11
158.3404759999999953
21
-91.4714850000000013
0
LINE
8
BLACK
6
CONTINUOUS
10
158.3404759999999953
20
-91.4714850000000013
11
158.9595229999999901
21
-91.4714850000000013
0
LINE
8
BLACK
6
CONTINUOUS
10
160.1023809999999798
20
-91.8048189999999948
11
160.1023809999999798
21
-91.1381519999999909
0
LINE
8
BLACK
6
CONTINUOUS
10
160.1023809999999798
20
-91.23339
11
160.1500000000000057
21
-91.1857710000000026
0
LINE
8
BLACK
6
CONTINUOUS
10
160.1500000000000057
20
-91.1857710000000026
11
160.2452380000000005
21
-91.1381519999999909
0
LINE
8
BLACK
6
CONTINUOUS
10
160.2452380000000005
20
-91.1381519999999909
11
160.3880949999999928
21
-91.1381519999999909
0
LINE
8
BLACK
6
CONTINUOUS
10
160.3880949999999928
20
-91.1381519999999909
11
160.4833329999999876
21
-91.1857710000000026
0
LINE
8
BLACK
6
CONTINUOUS
10
160.4833329999999876
20
-91.1857710000000026
11
160.530951999999985
21
-91.2810089999999974
0
LINE
8
BLACK
6
CONTINUOUS
10
160.530951999999985
20
-91.2810089999999974
11
160.530951999999985
21
-91.8048189999999948
0
LINE
8
BLACK
6
CONTINUOUS
10
160.530951999999985
20
-91.2810089999999974
11
160.5785709999999824
21
-91.1857710000000026
0
LINE
8
BLACK
6
CONTINUOUS
10
160.5785709999999824
20
-91.1857710000000026
11
160.6738090000000057
21
-91.1381519999999909
0
LINE
8
BLACK
6
CONTINUOUS
10
160.6738090000000057
20
-91.1381519999999909
11
160.8166659999999979
21
-91.1381519999999909
0
LINE
8
BLACK
6
CONTINUOUS
10
160.8166659999999979
20
-91.1381519999999909
11
160.9119049999999902
21
-91.1857710000000026
0
LINE
8
BLACK
6
CONTINUOUS
10
160.9119049999999902
20
-91.1857710000000026
11
160.9595239999999876
21
-91.2810089999999974
0
LINE
8
BLACK
6
CONTINUOUS
10
160.9595239999999876
20
-91.2810089999999974
11
160.9595239999999876
21
-91.8048189999999948
0
LINE
8
BLACK
6
CONTINUOUS
10
161.4357139999999902
20
-91.8048189999999948
11
161.4357139999999902
21
-91.1381519999999909
0
LINE
8
BLACK
6
CONTINUOUS
10
161.4357139999999902
20
-91.23339
11
161.4833329999999876
21
-91.1857710000000026
0
LINE
8
BLACK
6
CONTINUOUS
10
161.4833329999999876
20
-91.1857710000000026
11
161.5785709999999824
21
-91.1381519999999909
0
LINE
8
BLACK
6
CONTINUOUS
10
161.5785709999999824
20
-91.1381519999999909
11
161.7214280000000031
21
-91.1381519999999909
0
LINE
8
BLACK
6
CONTINUOUS
10
161.7214280000000031
20
-91.1381519999999909
11
161.8166659999999979
21
-91.1857710000000026
0
LINE
8
BLACK
6
CONTINUOUS
10
161.8166659999999979
20
-91.1857710000000026
11
161.8642849999999953
21
-91.2810089999999974
0
LINE
8
BLACK
6
CONTINUOUS
10
161.8642849999999953
20
-91.2810089999999974
11
161.8642849999999953
21
-91.8048189999999948
0
LINE
8
BLACK
6
CONTINUOUS
10
161.8642849999999953
20
-91.2810089999999974
11
161.9119039999999927
21
-91.1857710000000026
0
LINE
8
BLACK
6
CONTINUOUS
10
161.9119039999999927
20
-91.1857710000000026
11
162.0071419999999875
21
-91.1381519999999909
0
LINE
8
BLACK
6
CONTINUOUS
10
162.0071419999999875
20
-91.1381519999999909
11
162.1499989999999798
21
-91.1381519999999909
0
LINE
8
BLACK
6
CONTINUOUS
10
162.1499989999999798
20
-91.1381519999999909
11
162.2452380000000005
21
-91.1857710000000026
0
LINE
8
BLACK
6
CONTINUOUS
10
162.2452380000000005
20
-91.1857710000000026
11
162.2928569999999979
21
-91.2810089999999974
0
LINE
8
BLACK
6
CONTINUOUS
10
162.2928569999999979
20
-91.2810089999999974
11
162.2928569999999979
21
-91.8048189999999948
0
LINE
8
BLACK
6
CONTINUOUS
10
139.9499999999999886
20
-98.6499999999999915
11
139.9499999999999886
21
-90.7635799999999904
0
LINE
8
BLACK
6
CONTINUOUS
10
178.3499999999999943
20
-98.6499999999999915
11
178.3499999999999943
21
-90.7635799999999904
0
LINE
8
BLACK
6
CONTINUOUS
10
139.9499999999999886
20
-91.3499999999999943
11
155.144047999999998
21
-91.3499999999999943
0
LINE
8
BLACK
6
CONTINUOUS
10
163.155951999999985
20
-91.3499999999999943
11
178.3499999999999943
21
-91.3499999999999943
0
LINE
8
BLACK
6
CONTINUOUS
10
139.9499999999999886
20
-91.3499999999999943
11
141.0765039999999999
21
-90.7635789999999929
0
LINE
8
BLACK
6
CONTINUOUS
10
139.9499999999999886
20
-91.3499999999999943
11
141.0765039999999999
21
-91.9364209999999957
0
LINE
8
BLACK
6
CONTINUOUS
10
178.3499999999999943
20
-91.3499999999999943
11
177.223495999999983
21
-91.9364209999999957
0
LINE
8
BLACK
6
CONTINUOUS
10
178.3499999999999943
20
-91.3499999999999943
11
177.223495999999983
21
-90.7635789999999929
0
LINE
8
BLACK
6
CONTINUOUS
10
158.7619049999999845
20
-93.8381519999999938
11
158.7619049999999845
21
-94.5048189999999977
0
LINE
8
BLACK
6
CONTINUOUS
10
158.5238099999999974
20
-93.4572000000000003
11
158.285714999999982
21
-94.1714849999999899
0
LINE
8
BLACK
6
CONTINUOUS
10
158.285714999999982
20
-94.1714849999999899
11
158.9047620000000052
21
-94.1714849999999899
0
LINE
8
BLACK
6
CONTINUOUS
10
159.285714999999982
20
-94.4095799999999912
11
159.3333339999999794
21
-94.4572000000000003
0
LINE
8
BLACK
6
CONTINUOUS
10
159.3333339999999794
20
-94.4572000000000003
11
159.285714999999982
21
-94.5048189999999977
0
LINE
8
BLACK
6
CONTINUOUS
10
159.285714999999982
20
-94.5048189999999977
11
159.2380959999999845
21
-94.4572000000000003
0
LINE
8
BLACK
6
CONTINUOUS
10
159.2380959999999845
20
-94.4572000000000003
11
159.285714999999982
21
-94.4095799999999912
0
LINE
8
BLACK
6
CONTINUOUS
10
159.285714999999982
20
-94.4095799999999912
11
159.285714999999982
21
-94.5048189999999977
0
LINE
8
BLACK
6
CONTINUOUS
10
159.6666669999999897
20
-93.5048189999999977
11
160.3333329999999819
21
-93.5048189999999977
0
LINE
8
BLACK
6
CONTINUOUS
10
160.3333329999999819
20
-93.5048189999999977
11
159.9047620000000052
21
-94.5048189999999977
0
LINE
8
BLACK
6
CONTINUOUS
10
161.476191
20
-94.5048189999999977
11
161.476191
21
-93.8381519999999938
0
LINE
8
BLACK
6
CONTINUOUS
10
161.476191
20
-93.9333900000000028
11
161.5238099999999974
21
-93.8857709999999912
0
LINE
8
BLACK
6
CONTINUOUS
10
161.5238099999999974
20
-93.8857709999999912
11
161.6190479999999923
21
-93.8381519999999938
0
LINE
8
BLACK
6
CONTINUOUS
10
161.6190479999999923
20
-93.8381519999999938
11
161.7619049999999845
21
-93.8381519999999938
0
LINE
8
BLACK
6
CONTINUOUS
10
161.7619049999999845
20
-93.8381519999999938
11
161.8571429999999793
21
-93.8857709999999912
0
LINE
8
BLACK
6
CONTINUOUS
10
161.8571429999999793
20
-93.8857709999999912
11
161.9047620000000052
21
-93.9810090000000002
0
LINE
8
BLACK
6
CONTINUOUS
10
161.9047620000000052
20
-93.9810090000000002
11
161.9047620000000052
21
-94.5048189999999977
0
LINE
8
BLACK
6
CONTINUOUS
10
161.9047620000000052
20
-93.9810090000000002
11
161.9523810000000026
21
-93.8857709999999912
0
LINE
8
BLACK
6
CONTINUOUS
10
161.9523810000000026
20
-93.8857709999999912
11
162.0476189999999974
21
-93.8381519999999938
0
LINE
8
BLACK
6
CONTINUOUS
10
162.0476189999999974
20
-93.8381519999999938
11
162.1904759999999897
21
-93.8381519999999938
0
LINE
8
BLACK
6
CONTINUOUS
10
162.1904759999999897
20
-93.8381519999999938
11
162.285714999999982
21
-93.8857709999999912
0
LINE
8
BLACK
6
CONTINUOUS
10
162.285714999999982
20
-93.8857709999999912
11
162.3333339999999794
21
-93.9810090000000002
0
LINE
8
BLACK
6
CONTINUOUS
10
162.3333339999999794
20
-93.9810090000000002
11
162.3333339999999794
21
-94.5048189999999977
0
LINE
8
BLACK
6
CONTINUOUS
10
162.8095239999999819
20
-94.5048189999999977
11
162.8095239999999819
21
-93.8381519999999938
0
LINE
8
BLACK
6
CONTINUOUS
10
162.8095239999999819
20
-93.9333900000000028
11
162.8571429999999793
21
-93.8857709999999912
0
LINE
8
BLACK
6
CONTINUOUS
10
162.8571429999999793
20
-93.8857709999999912
11
162.9523810000000026
21
-93.8381519999999938
0
LINE
8
BLACK
6
CONTINUOUS
10
162.9523810000000026
20
-93.8381519999999938
11
163.0952379999999948
21
-93.8381519999999938
0
LINE
8
BLACK
6
CONTINUOUS
10
163.0952379999999948
20
-93.8381519999999938
11
163.1904759999999897
21
-93.8857709999999912
0
LINE
8
BLACK
6
CONTINUOUS
10
163.1904759999999897
20
-93.8857709999999912
11
163.2380949999999871
21
-93.9810090000000002
0
LINE
8
BLACK
6
CONTINUOUS
10
163.2380949999999871
20
-93.9810090000000002
11
163.2380949999999871
21
-94.5048189999999977
0
LINE
8
BLACK
6
CONTINUOUS
10
163.2380949999999871
20
-93.9810090000000002
11
163.2857139999999845
21
-93.8857709999999912
0
LINE
8
BLACK
6
CONTINUOUS
10
163.2857139999999845
20
-93.8857709999999912
11
163.3809519999999793
21
-93.8381519999999938
0
LINE
8
BLACK
6
CONTINUOUS
10
163.3809519999999793
20
-93.8381519999999938
11
163.523809
21
-93.8381519999999938
0
LINE
8
BLACK
6
CONTINUOUS
10
163.523809
20
-93.8381519999999938
11
163.6190479999999923
21
-93.8857709999999912
0
LINE
8
BLACK
6
CONTINUOUS
10
163.6190479999999923
20
-93.8857709999999912
11
163.6666669999999897
21
-93.9810090000000002
0
LINE
8
BLACK
6
CONTINUOUS
10
163.6666669999999897
20
-93.9810090000000002
11
163.6666669999999897
21
-94.5048189999999977
0
LINE
8
BLACK
6
CONTINUOUS
10
152.7999999999999829
20
-98.6499999999999915
11
152.7999999999999829
21
-93.4635799999999932
0
LINE
8
BLACK
6
CONTINUOUS
10
157.5
20
-98.6499999999999915
11
157.5
21
-93.4635799999999932
0
LINE
8
BLACK
6
CONTINUOUS
10
152.7999999999999829
20
-94.0499999999999972
11
157.4702389999999923
21
-94.0499999999999972
0
LINE
8
BLACK
6
CONTINUOUS
10
152.7999999999999829
20
-94.0499999999999972
11
153.9265039999999942
21
-93.4635789999999957
0
LINE
8
BLACK
6
CONTINUOUS
10
152.7999999999999829
20
-94.0499999999999972
11
153.9265039999999942
21
-94.6364209999999986
0
LINE
8
BLACK
6
CONTINUOUS
10
157.5
20
-94.0499999999999972
11
156.3734959999999887
21
-94.6364209999999986
0
LINE
8
BLACK
6
CONTINUOUS
10
157.5
20
-94.0499999999999972
11
156.3734959999999887
21
-93.4635789999999957
0
CIRCLE
8
BLACK
10
155.1500000000000057
20
-115.1499999999999915
40
2.3500000000000001
0
LINE
8
BLACK
6
CONTINUOUS
10
151.0970899999999801
20
-108.5238099999999974
11
151.1589950000000044
21
-108.3999999999999915
0
LINE
8
BLACK
6
CONTINUOUS
10
151.1589950000000044
20
-108.3999999999999915
11
151.1589950000000044
21
-108.2142860000000013
0
LINE
8
BLACK
6
CONTINUOUS
10
151.1589950000000044
20
-108.2142860000000013
11
151.0970899999999801
21
-108.0285719999999969
0
LINE
8
BLACK
6
CONTINUOUS
10
151.0970899999999801
20
-108.0285719999999969
11
150.9732799999999884
21
-107.904761999999991
0
LINE
8
BLACK
6
CONTINUOUS
10
150.9732799999999884
20
-107.904761999999991
11
150.8494709999999941
21
-107.8428569999999951
0
LINE
8
BLACK
6
CONTINUOUS
10
150.8494709999999941
20
-107.8428569999999951
11
150.6018519999999796
21
-107.7809529999999967
0
LINE
8
BLACK
6
CONTINUOUS
10
150.6018519999999796
20
-107.7809529999999967
11
150.4161379999999895
21
-107.7809529999999967
0
LINE
8
BLACK
6
CONTINUOUS
10
150.4161379999999895
20
-107.7809529999999967
11
150.1685190000000034
21
-107.8428569999999951
0
LINE
8
BLACK
6
CONTINUOUS
10
150.1685190000000034
20
-107.8428569999999951
11
150.0447089999999832
21
-107.904761999999991
0
LINE
8
BLACK
6
CONTINUOUS
10
150.0447089999999832
20
-107.904761999999991
11
149.9208999999999889
21
-108.0285719999999969
0
LINE
8
BLACK
6
CONTINUOUS
10
149.9208999999999889
20
-108.0285719999999969
11
149.8589949999999931
21
-108.2142860000000013
0
LINE
8
BLACK
6
CONTINUOUS
10
149.8589949999999931
20
-108.2142860000000013
11
149.8589949999999931
21
-108.3380949999999956
0
LINE
8
BLACK
6
CONTINUOUS
10
149.8589949999999931
20
-108.3380949999999956
11
149.9208999999999889
21
-108.5238099999999974
0
LINE
8
BLACK
6
CONTINUOUS
10
149.9208999999999889
20
-108.5238099999999974
11
149.9828039999999874
21
-108.5857139999999958
0
LINE
8
BLACK
6
CONTINUOUS
10
149.9828039999999874
20
-108.5857139999999958
11
150.4161379999999895
21
-108.5857139999999958
0
LINE
8
BLACK
6
CONTINUOUS
10
150.4161379999999895
20
-108.5857139999999958
11
150.4161379999999895
21
-108.3380949999999956
0
LINE
8
BLACK
6
CONTINUOUS
10
151.1589950000000044
20
-109.9476189999999889
11
149.8589949999999931
21
-110.3809519999999935
0
LINE
8
BLACK
6
CONTINUOUS
10
149.8589949999999931
20
-110.3809519999999935
11
151.1589950000000044
21
-110.8142859999999956
0
LINE
8
BLACK
6
CONTINUOUS
10
149.9208999999999889
20
-112.1761909999999887
11
149.8589949999999931
21
-112.361904999999993
0
LINE
8
BLACK
6
CONTINUOUS
10
149.8589949999999931
20
-112.361904999999993
11
149.8589949999999931
21
-112.6714289999999892
0
LINE
8
BLACK
6
CONTINUOUS
10
149.8589949999999931
20
-112.6714289999999892
11
149.9208999999999889
21
-112.7952379999999977
0
LINE
8
BLACK
6
CONTINUOUS
10
149.9208999999999889
20
-112.7952379999999977
11
149.9828039999999874
21
-112.8571429999999935
0
LINE
8
BLACK
6
CONTINUOUS
10
149.9828039999999874
20
-112.8571429999999935
11
150.1066139999999791
21
-112.9190479999999894
0
LINE
8
BLACK
6
CONTINUOUS
10
150.1066139999999791
20
-112.9190479999999894
11
150.2304230000000018
21
-112.9190479999999894
0
LINE
8
BLACK
6
CONTINUOUS
10
150.2304230000000018
20
-112.9190479999999894
11
150.3542329999999936
21
-112.8571429999999935
0
LINE
8
BLACK
6
CONTINUOUS
10
150.3542329999999936
20
-112.8571429999999935
11
150.4161379999999895
21
-112.7952379999999977
0
LINE
8
BLACK
6
CONTINUOUS
10
150.4161379999999895
20
-112.7952379999999977
11
150.4780419999999879
21
-112.6714289999999892
0
LINE
8
BLACK
6
CONTINUOUS
10
150.4780419999999879
20
-112.6714289999999892
11
150.5399469999999837
21
-112.4238099999999889
0
LINE
8
BLACK
6
CONTINUOUS
10
150.5399469999999837
20
-112.4238099999999889
11
150.6018519999999796
21
-112.2999999999999972
0
LINE
8
BLACK
6
CONTINUOUS
10
150.6018519999999796
20
-112.2999999999999972
11
150.6637570000000039
21
-112.2380950000000013
0
LINE
8
BLACK
6
CONTINUOUS
10
150.6637570000000039
20
-112.2380950000000013
11
150.7875659999999982
21
-112.1761909999999887
0
LINE
8
BLACK
6
CONTINUOUS
10
150.7875659999999982
20
-112.1761909999999887
11
150.91137599999999
21
-112.1761909999999887
0
LINE
8
BLACK
6
CONTINUOUS
10
150.91137599999999
20
-112.1761909999999887
11
151.0351849999999843
21
-112.2380950000000013
0
LINE
8
BLACK
6
CONTINUOUS
10
151.0351849999999843
20
-112.2380950000000013
11
151.0970899999999801
21
-112.2999999999999972
0
LINE
8
BLACK
6
CONTINUOUS
10
151.0970899999999801
20
-112.2999999999999972
11
151.1589950000000044
21
-112.4238099999999889
0
LINE
8
BLACK
6
CONTINUOUS
10
151.1589950000000044
20
-112.4238099999999889
11
151.1589950000000044
21
-112.7333330000000018
0
LINE
8
BLACK
6
CONTINUOUS
10
151.1589950000000044
20
-112.7333330000000018
11
151.0970899999999801
21
-112.9190479999999894
0
LINE
8
BLACK
6
CONTINUOUS
10
147.3189899999999852
20
-101.0119040000000012
11
147.2713709999999878
21
-101.1547609999999935
0
LINE
8
BLACK
6
CONTINUOUS
10
147.2713709999999878
20
-101.1547609999999935
11
147.2237519999999904
21
-101.2023799999999909
0
LINE
8
BLACK
6
CONTINUOUS
10
147.2237519999999904
20
-101.2023799999999909
11
147.1285139999999956
21
-101.2499989999999883
0
LINE
8
BLACK
6
CONTINUOUS
10
147.1285139999999956
20
-101.2499989999999883
11
146.9856570000000033
21
-101.2499989999999883
0
LINE
8
BLACK
6
CONTINUOUS
10
146.9856570000000033
20
-101.2499989999999883
11
146.8904189999999801
21
-101.2023799999999909
0
LINE
8
BLACK
6
CONTINUOUS
10
146.8904189999999801
20
-101.2023799999999909
11
146.8427999999999827
21
-101.1547609999999935
0
LINE
8
BLACK
6
CONTINUOUS
10
146.8427999999999827
20
-101.1547609999999935
11
146.7951799999999878
21
-101.0595229999999987
0
LINE
8
BLACK
6
CONTINUOUS
10
146.7951799999999878
20
-101.0595229999999987
11
146.7951799999999878
21
-100.6785709999999909
0
LINE
8
BLACK
6
CONTINUOUS
10
146.7951799999999878
20
-100.6785709999999909
11
147.7951799999999878
21
-100.6785709999999909
0
LINE
8
BLACK
6
CONTINUOUS
10
147.7951799999999878
20
-100.6785709999999909
11
147.7951799999999878
21
-101.0119040000000012
0
LINE
8
BLACK
6
CONTINUOUS
10
147.7951799999999878
20
-101.0119040000000012
11
147.7475609999999904
21
-101.1071419999999961
0
LINE
8
BLACK
6
CONTINUOUS
10
147.7475609999999904
20
-101.1071419999999961
11
147.699941999999993
21
-101.1547609999999935
0
LINE
8
BLACK
6
CONTINUOUS
10
147.699941999999993
20
-101.1547609999999935
11
147.6047039999999981
21
-101.2023799999999909
0
LINE
8
BLACK
6
CONTINUOUS
10
147.6047039999999981
20
-101.2023799999999909
11
147.5094660000000033
21
-101.2023799999999909
0
LINE
8
BLACK
6
CONTINUOUS
10
147.5094660000000033
20
-101.2023799999999909
11
147.4142279999999801
21
-101.1547609999999935
0
LINE
8
BLACK
6
CONTINUOUS
10
147.4142279999999801
20
-101.1547609999999935
11
147.3666089999999826
21
-101.1071419999999961
0
LINE
8
BLACK
6
CONTINUOUS
10
147.3666089999999826
20
-101.1071419999999961
11
147.3189899999999852
21
-101.0119040000000012
0
LINE
8
BLACK
6
CONTINUOUS
10
147.3189899999999852
20
-101.0119040000000012
11
147.3189899999999852
21
-100.6785709999999909
0
LINE
8
BLACK
6
CONTINUOUS
10
147.0808949999999982
20
-101.6309519999999935
11
147.0808949999999982
21
-102.1071419999999961
0
LINE
8
BLACK
6
CONTINUOUS
10
146.7951799999999878
20
-101.5357139999999987
11
147.7951799999999878
21
-101.8690469999999948
0
LINE
8
BLACK
6
CONTINUOUS
10
147.7951799999999878
20
-101.8690469999999948
11
146.7951799999999878
21
-102.2023799999999909
0
LINE
8
BLACK
6
CONTINUOUS
10
147.7951799999999878
20
-102.3928569999999922
11
147.7951799999999878
21
-102.9642849999999896
0
LINE
8
BLACK
6
CONTINUOUS
10
146.7951799999999878
20
-102.6785709999999909
11
147.7951799999999878
21
-102.6785709999999909
0
LINE
8
BLACK
6
CONTINUOUS
10
172.3928569999999922
20
-110.2986999999999966
11
172.5499999999999829
21
-110.3510799999999961
0
LINE
8
BLACK
6
CONTINUOUS
10
172.5499999999999829
20
-110.3510799999999961
11
172.8119049999999959
21
-110.3510799999999961
0
LINE
8
BLACK
6
CONTINUOUS
10
172.8119049999999959
20
-110.3510799999999961
11
172.9166669999999897
21
-110.2986999999999966
0
LINE
8
BLACK
6
CONTINUOUS
10
172.9166669999999897
20
-110.2986999999999966
11
172.9690479999999866
21
-110.2463189999999997
0
LINE
8
BLACK
6
CONTINUOUS
10
172.9690479999999866
20
-110.2463189999999997
11
173.0214289999999835
21
-110.1415569999999917
0
LINE
8
BLACK
6
CONTINUOUS
10
173.0214289999999835
20
-110.1415569999999917
11
173.0214289999999835
21
-110.0367949999999979
0
LINE
8
BLACK
6
CONTINUOUS
10
173.0214289999999835
20
-110.0367949999999979
11
172.9690479999999866
21
-109.9320329999999899
0
LINE
8
BLACK
6
CONTINUOUS
10
172.9690479999999866
20
-109.9320329999999899
11
172.9166669999999897
21
-109.879651999999993
0
LINE
8
BLACK
6
CONTINUOUS
10
172.9166669999999897
20
-109.879651999999993
11
172.8119049999999959
21
-109.8272709999999961
0
LINE
8
BLACK
6
CONTINUOUS
10
172.8119049999999959
20
-109.8272709999999961
11
172.6023809999999798
21
-109.7748899999999992
0
LINE
8
BLACK
6
CONTINUOUS
10
172.6023809999999798
20
-109.7748899999999992
11
172.497618999999986
21
-109.7225089999999881
0
LINE
8
BLACK
6
CONTINUOUS
10
172.497618999999986
20
-109.7225089999999881
11
172.4452379999999891
21
-109.6701279999999912
0
LINE
8
BLACK
6
CONTINUOUS
10
172.4452379999999891
20
-109.6701279999999912
11
172.3928569999999922
21
-109.5653659999999974
0
LINE
8
BLACK
6
CONTINUOUS
10
172.3928569999999922
20
-109.5653659999999974
11
172.3928569999999922
21
-109.4606039999999894
0
LINE
8
BLACK
6
CONTINUOUS
10
172.3928569999999922
20
-109.4606039999999894
11
172.4452379999999891
21
-109.3558419999999956
0
LINE
8
BLACK
6
CONTINUOUS
10
172.4452379999999891
20
-109.3558419999999956
11
172.497618999999986
21
-109.3034609999999986
0
LINE
8
BLACK
6
CONTINUOUS
10
172.497618999999986
20
-109.3034609999999986
11
172.6023809999999798
21
-109.2510800000000017
0
LINE
8
BLACK
6
CONTINUOUS
10
172.6023809999999798
20
-109.2510800000000017
11
172.8642859999999928
21
-109.2510800000000017
0
LINE
8
BLACK
6
CONTINUOUS
10
172.8642859999999928
20
-109.2510800000000017
11
173.0214289999999835
21
-109.3034609999999986
0
LINE
8
BLACK
6
CONTINUOUS
10
173.4928569999999866
20
-110.3510799999999961
11
173.4928569999999866
21
-109.6177469999999943
0
LINE
8
BLACK
6
CONTINUOUS
10
173.4928569999999866
20
-109.2510800000000017
11
173.4404759999999897
21
-109.3034609999999986
0
LINE
8
BLACK
6
CONTINUOUS
10
173.4404759999999897
20
-109.3034609999999986
11
173.4928569999999866
21
-109.3558419999999956
0
LINE
8
BLACK
6
CONTINUOUS
10
173.4928569999999866
20
-109.3558419999999956
11
173.5452379999999835
21
-109.3034609999999986
0
LINE
8
BLACK
6
CONTINUOUS
10
173.5452379999999835
20
-109.3034609999999986
11
173.4928569999999866
21
-109.2510800000000017
0
LINE
8
BLACK
6
CONTINUOUS
10
173.4928569999999866
20
-109.2510800000000017
11
173.4928569999999866
21
-109.3558419999999956
0
LINE
8
BLACK
6
CONTINUOUS
10
174.4880959999999845
20
-109.6177469999999943
11
174.4880959999999845
21
-110.508223000000001
0
LINE
8
BLACK
6
CONTINUOUS
10
174.4880959999999845
20
-110.508223000000001
11
174.4357149999999876
21
-110.6129849999999948
0
LINE
8
BLACK
6
CONTINUOUS
10
174.4357149999999876
20
-110.6129849999999948
11
174.3833339999999907
21
-110.6653659999999917
0
LINE
8
BLACK
6
CONTINUOUS
10
174.3833339999999907
20
-110.6653659999999917
11
174.2785719999999969
21
-110.7177469999999886
0
LINE
8
BLACK
6
CONTINUOUS
10
174.2785719999999969
20
-110.7177469999999886
11
174.1214290000000062
21
-110.7177469999999886
0
LINE
8
BLACK
6
CONTINUOUS
10
174.1214290000000062
20
-110.7177469999999886
11
174.016666999999984
21
-110.6653659999999917
0
LINE
8
BLACK
6
CONTINUOUS
10
174.4880959999999845
20
-110.2986999999999966
11
174.3833339999999907
21
-110.3510799999999961
0
LINE
8
BLACK
6
CONTINUOUS
10
174.3833339999999907
20
-110.3510799999999961
11
174.1738100000000031
21
-110.3510799999999961
0
LINE
8
BLACK
6
CONTINUOUS
10
174.1738100000000031
20
-110.3510799999999961
11
174.0690479999999809
21
-110.2986999999999966
0
LINE
8
BLACK
6
CONTINUOUS
10
174.0690479999999809
20
-110.2986999999999966
11
174.016666999999984
21
-110.2463189999999997
0
LINE
8
BLACK
6
CONTINUOUS
10
174.016666999999984
20
-110.2463189999999997
11
173.9642859999999871
21
-110.1415569999999917
0
LINE
8
BLACK
6
CONTINUOUS
10
173.9642859999999871
20
-110.1415569999999917
11
173.9642859999999871
21
-109.8272709999999961
0
LINE
8
BLACK
6
CONTINUOUS
10
173.9642859999999871
20
-109.8272709999999961
11
174.016666999999984
21
-109.7225089999999881
0
LINE
8
BLACK
6
CONTINUOUS
10
174.016666999999984
20
-109.7225089999999881
11
174.0690479999999809
21
-109.6701279999999912
0
LINE
8
BLACK
6
CONTINUOUS
10
174.0690479999999809
20
-109.6701279999999912
11
174.1738100000000031
21
-109.6177469999999943
0
LINE
8
BLACK
6
CONTINUOUS
10
174.1738100000000031
20
-109.6177469999999943
11
174.3833339999999907
21
-109.6177469999999943
0
LINE
8
BLACK
6
CONTINUOUS
10
174.3833339999999907
20
-109.6177469999999943
11
174.4880959999999845
21
-109.6701279999999912
0
LINE
8
BLACK
6
CONTINUOUS
10
175.0119049999999845
20
-109.6177469999999943
11
175.0119049999999845
21
-110.3510799999999961
0
LINE
8
BLACK
6
CONTINUOUS
10
175.0119049999999845
20
-109.7225089999999881
11
175.0642859999999814
21
-109.6701279999999912
0
LINE
8
BLACK
6
CONTINUOUS
10
175.0642859999999814
20
-109.6701279999999912
11
175.1690480000000036
21
-109.6177469999999943
0
LINE
8
BLACK
6
CONTINUOUS
10
175.1690480000000036
20
-109.6177469999999943
11
175.3261909999999943
21
-109.6177469999999943
0
LINE
8
BLACK
6
CONTINUOUS
10
175.3261909999999943
20
-109.6177469999999943
11
175.4309529999999882
21
-109.6701279999999912
0
LINE
8
BLACK
6
CONTINUOUS
10
175.4309529999999882
20
-109.6701279999999912
11
175.4833339999999851
21
-109.7748899999999992
0
LINE
8
BLACK
6
CONTINUOUS
10
175.4833339999999851
20
-109.7748899999999992
11
175.4833339999999851
21
-110.3510799999999961
0
LINE
8
BLACK
6
CONTINUOUS
10
176.4785719999999856
20
-110.3510799999999961
11
176.4785719999999856
21
-109.7748899999999992
0
LINE
8
BLACK
6
CONTINUOUS
10
176.4785719999999856
20
-109.7748899999999992
11
176.4261909999999887
21
-109.6701279999999912
0
LINE
8
BLACK
6
CONTINUOUS
10
176.4261909999999887
20
-109.6701279999999912
11
176.3214289999999949
21
-109.6177469999999943
0
LINE
8
BLACK
6
CONTINUOUS
10
176.3214289999999949
20
-109.6177469999999943
11
176.1119049999999788
21
-109.6177469999999943
0
LINE
8
BLACK
6
CONTINUOUS
10
176.1119049999999788
20
-109.6177469999999943
11
176.007142999999985
21
-109.6701279999999912
0
LINE
8
BLACK
6
CONTINUOUS
10
176.4785719999999856
20
-110.2986999999999966
11
176.3738099999999918
21
-110.3510799999999961
0
LINE
8
BLACK
6
CONTINUOUS
10
176.3738099999999918
20
-110.3510799999999961
11
176.1119049999999788
21
-110.3510799999999961
0
LINE
8
BLACK
6
CONTINUOUS
10
176.1119049999999788
20
-110.3510799999999961
11
176.007142999999985
21
-110.2986999999999966
0
LINE
8
BLACK
6
CONTINUOUS
10
176.007142999999985
20
-110.2986999999999966
11
175.9547619999999881
21
-110.1939379999999886
0
LINE
8
BLACK
6
CONTINUOUS
10
175.9547619999999881
20
-110.1939379999999886
11
175.9547619999999881
21
-110.0891759999999948
0
LINE
8
BLACK
6
CONTINUOUS
10
175.9547619999999881
20
-110.0891759999999948
11
176.007142999999985
21
-109.984414000000001
0
LINE
8
BLACK
6
CONTINUOUS
10
176.007142999999985
20
-109.984414000000001
11
176.1119049999999788
21
-109.9320329999999899
0
LINE
8
BLACK
6
CONTINUOUS
10
176.1119049999999788
20
-109.9320329999999899
11
176.3738099999999918
21
-109.9320329999999899
0
LINE
8
BLACK
6
CONTINUOUS
10
176.3738099999999918
20
-109.9320329999999899
11
176.4785719999999856
21
-109.879651999999993
0
LINE
8
BLACK
6
CONTINUOUS
10
177.1595240000000047
20
-110.3510799999999961
11
177.0547619999999824
21
-110.2986999999999966
0
LINE
8
BLACK
6
CONTINUOUS
10
177.0547619999999824
20
-110.2986999999999966
11
177.0023809999999855
21
-110.1939379999999886
0
LINE
8
BLACK
6
CONTINUOUS
10
177.0023809999999855
20
-110.1939379999999886
11
177.0023809999999855
21
-109.2510800000000017
0
LINE
8
BLACK
6
CONTINUOUS
10
145.8702380000000005
20
-99.3369869999999935
11
145.8702380000000005
21
-98.4869869999999992
0
LINE
8
BLACK
6
CONTINUOUS
10
145.8702380000000005
20
-98.4869869999999992
11
146.1940479999999809
21
-98.4869869999999992
0
LINE
8
BLACK
6
CONTINUOUS
10
146.1940479999999809
20
-98.4869869999999992
11
146.2750000000000057
21
-98.5274629999999974
0
LINE
8
BLACK
6
CONTINUOUS
10
146.2750000000000057
20
-98.5274629999999974
11
146.3154769999999871
21
-98.5679389999999955
0
LINE
8
BLACK
6
CONTINUOUS
10
146.3154769999999871
20
-98.5679389999999955
11
146.3559529999999995
21
-98.6488909999999919
0
LINE
8
BLACK
6
CONTINUOUS
10
146.3559529999999995
20
-98.6488909999999919
11
146.3559529999999995
21
-98.7703199999999981
0
LINE
8
BLACK
6
CONTINUOUS
10
146.3559529999999995
20
-98.7703199999999981
11
146.3154769999999871
21
-98.8512719999999945
0
LINE
8
BLACK
6
CONTINUOUS
10
146.3154769999999871
20
-98.8512719999999945
11
146.2750000000000057
21
-98.8917489999999901
0
LINE
8
BLACK
6
CONTINUOUS
10
146.2750000000000057
20
-98.8917489999999901
11
146.1940479999999809
21
-98.9322250000000025
0
LINE
8
BLACK
6
CONTINUOUS
10
146.1940479999999809
20
-98.9322250000000025
11
145.8702380000000005
21
-98.9322250000000025
0
LINE
8
BLACK
6
CONTINUOUS
10
146.8416670000000011
20
-99.3369869999999935
11
146.7607150000000047
21
-99.2965109999999953
0
LINE
8
BLACK
6
CONTINUOUS
10
146.7607150000000047
20
-99.2965109999999953
11
146.7202379999999948
21
-99.2560339999999997
0
LINE
8
BLACK
6
CONTINUOUS
10
146.7202379999999948
20
-99.2560339999999997
11
146.6797619999999824
21
-99.1750819999999891
0
LINE
8
BLACK
6
CONTINUOUS
10
146.6797619999999824
20
-99.1750819999999891
11
146.6797619999999824
21
-98.9322250000000025
0
LINE
8
BLACK
6
CONTINUOUS
10
146.6797619999999824
20
-98.9322250000000025
11
146.7202379999999948
21
-98.8512719999999945
0
LINE
8
BLACK
6
CONTINUOUS
10
146.7202379999999948
20
-98.8512719999999945
11
146.7607150000000047
21
-98.8107959999999963
0
LINE
8
BLACK
6
CONTINUOUS
10
146.7607150000000047
20
-98.8107959999999963
11
146.8416670000000011
21
-98.7703199999999981
0
LINE
8
BLACK
6
CONTINUOUS
10
146.8416670000000011
20
-98.7703199999999981
11
146.9630960000000073
21
-98.7703199999999981
0
LINE
8
BLACK
6
CONTINUOUS
10
146.9630960000000073
20
-98.7703199999999981
11
147.0440480000000036
21
-98.8107959999999963
0
LINE
8
BLACK
6
CONTINUOUS
10
147.0440480000000036
20
-98.8107959999999963
11
147.0845239999999876
21
-98.8512719999999945
0
LINE
8
BLACK
6
CONTINUOUS
10
147.0845239999999876
20
-98.8512719999999945
11
147.125
21
-98.9322250000000025
0
LINE
8
BLACK
6
CONTINUOUS
10
147.125
20
-98.9322250000000025
11
147.125
21
-99.1750819999999891
0
LINE
8
BLACK
6
CONTINUOUS
10
147.125
20
-99.1750819999999891
11
147.0845239999999876
21
-99.2560339999999997
0
LINE
8
BLACK
6
CONTINUOUS
10
147.0845239999999876
20
-99.2560339999999997
11
147.0440480000000036
21
-99.2965109999999953
0
LINE
8
BLACK
6
CONTINUOUS
10
147.0440480000000036
20
-99.2965109999999953
11
146.9630960000000073
21
-99.3369869999999935
0
LINE
8
BLACK
6
CONTINUOUS
10
146.9630960000000073
20
-99.3369869999999935
11
146.8416670000000011
21
-99.3369869999999935
0
LINE
8
BLACK
6
CONTINUOUS
10
147.4083339999999964
20
-98.7703199999999981
11
147.5702389999999866
21
-99.3369869999999935
0
LINE
8
BLACK
6
CONTINUOUS
10
147.5702389999999866
20
-99.3369869999999935
11
147.7321440000000052
21
-98.9322250000000025
0
LINE
8
BLACK
6
CONTINUOUS
10
147.7321440000000052
20
-98.9322250000000025
11
147.894047999999998
21
-99.3369869999999935
0
LINE
8
BLACK
6
CONTINUOUS
10
147.894047999999998
20
-99.3369869999999935
11
148.0559529999999882
21
-98.7703199999999981
0
LINE
8
BLACK
6
CONTINUOUS
10
148.7035719999999799
20
-99.2965109999999953
11
148.6226199999999835
21
-99.3369869999999935
0
LINE
8
BLACK
6
CONTINUOUS
10
148.6226199999999835
20
-99.3369869999999935
11
148.4607149999999933
21
-99.3369869999999935
0
LINE
8
BLACK
6
CONTINUOUS
10
148.4607149999999933
20
-99.3369869999999935
11
148.3797619999999995
21
-99.2965109999999953
0
LINE
8
BLACK
6
CONTINUOUS
10
148.3797619999999995
20
-99.2965109999999953
11
148.3392859999999871
21
-99.2155580000000015
0
LINE
8
BLACK
6
CONTINUOUS
10
148.3392859999999871
20
-99.2155580000000015
11
148.3392859999999871
21
-98.8917489999999901
0
LINE
8
BLACK
6
CONTINUOUS
10
148.3392859999999871
20
-98.8917489999999901
11
148.3797619999999995
21
-98.8107959999999963
0
LINE
8
BLACK
6
CONTINUOUS
10
148.3797619999999995
20
-98.8107959999999963
11
148.4607149999999933
21
-98.7703199999999981
0
LINE
8
BLACK
6
CONTINUOUS
10
148.4607149999999933
20
-98.7703199999999981
11
148.6226199999999835
21
-98.7703199999999981
0
LINE
8
BLACK
6
CONTINUOUS
10
148.6226199999999835
20
-98.7703199999999981
11
148.7035719999999799
21
-98.8107959999999963
0
LINE
8
BLACK
6
CONTINUOUS
10
148.7035719999999799
20
-98.8107959999999963
11
148.7440479999999923
21
-98.8917489999999901
0
LINE
8
BLACK
6
CONTINUOUS
10
148.7440479999999923
20
-98.8917489999999901
11
148.7440479999999923
21
-98.9727010000000007
0
LINE
8
BLACK
6
CONTINUOUS
10
148.7440479999999923
20
-98.9727010000000007
11
148.3392859999999871
21
-99.0536529999999971
0
LINE
8
BLACK
6
CONTINUOUS
10
149.1083329999999876
20
-99.3369869999999935
11
149.1083329999999876
21
-98.7703199999999981
0
LINE
8
BLACK
6
CONTINUOUS
10
149.1083329999999876
20
-98.9322250000000025
11
149.1488099999999974
21
-98.8512719999999945
0
LINE
8
BLACK
6
CONTINUOUS
10
149.1488099999999974
20
-98.8512719999999945
11
149.1892859999999814
21
-98.8107959999999963
0
LINE
8
BLACK
6
CONTINUOUS
10
149.1892859999999814
20
-98.8107959999999963
11
149.2702380000000062
21
-98.7703199999999981
0
LINE
8
BLACK
6
CONTINUOUS
10
149.2702380000000062
20
-98.7703199999999981
11
149.351191
21
-98.7703199999999981
0
LINE
8
BLACK
6
CONTINUOUS
10
145.8238659999999811
20
-103.630950999999996
11
145.8238659999999811
21
-102.8690469999999948
0
LINE
8
BLACK
6
CONTINUOUS
10
146.2048189999999863
20
-103.2499989999999883
11
145.4429140000000018
21
-103.2499989999999883
0
LINE
8
BLACK
6
CONTINUOUS
10
175.021427999999986
20
-98.9335279999999955
11
175.3785709999999938
21
-100.4335279999999955
0
LINE
8
BLACK
6
CONTINUOUS
10
175.3785709999999938
20
-100.4335279999999955
11
175.6642849999999783
21
-99.3620999999999981
0
LINE
8
BLACK
6
CONTINUOUS
10
175.6642849999999783
20
-99.3620999999999981
11
175.9499999999999886
21
-100.4335279999999955
0
LINE
8
BLACK
6
CONTINUOUS
10
175.9499999999999886
20
-100.4335279999999955
11
176.3071429999999964
21
-98.9335279999999955
0
LINE
8
BLACK
6
CONTINUOUS
10
176.8785709999999938
20
-100.4335279999999955
11
176.8785709999999938
21
-98.9335279999999955
0
LINE
8
BLACK
6
CONTINUOUS
10
176.8785709999999938
20
-99.6478139999999968
11
177.7357140000000015
21
-99.6478139999999968
0
LINE
8
BLACK
6
CONTINUOUS
10
177.7357140000000015
20
-100.4335279999999955
11
177.7357140000000015
21
-98.9335279999999955
0
LINE
8
BLACK
6
CONTINUOUS
10
145.8238659999999811
20
-100.630950999999996
11
145.8238659999999811
21
-99.8690469999999948
0
LINE
8
BLACK
6
CONTINUOUS
10
167.4547619999999881
20
-113.1638549999999981
11
167.6071429999999793
21
-113.1638549999999981
0
LINE
8
BLACK
6
CONTINUOUS
10
167.6071429999999793
20
-113.1638549999999981
11
167.6833330000000046
21
-113.2019499999999965
0
LINE
8
BLACK
6
CONTINUOUS
10
167.6833330000000046
20
-113.2019499999999965
11
167.759523999999999
21
-113.2781399999999934
0
LINE
8
BLACK
6
CONTINUOUS
10
167.759523999999999
20
-113.2781399999999934
11
167.7976189999999974
21
-113.4305209999999988
0
LINE
8
BLACK
6
CONTINUOUS
10
167.7976189999999974
20
-113.4305209999999988
11
167.7976189999999974
21
-113.697187999999997
0
LINE
8
BLACK
6
CONTINUOUS
10
167.7976189999999974
20
-113.697187999999997
11
167.759523999999999
21
-113.8495689999999883
0
LINE
8
BLACK
6
CONTINUOUS
10
167.759523999999999
20
-113.8495689999999883
11
167.6833330000000046
21
-113.9257599999999968
0
LINE
8
BLACK
6
CONTINUOUS
10
167.6833330000000046
20
-113.9257599999999968
11
167.6071429999999793
21
-113.9638549999999952
0
LINE
8
BLACK
6
CONTINUOUS
10
167.6071429999999793
20
-113.9638549999999952
11
167.4547619999999881
21
-113.9638549999999952
0
LINE
8
BLACK
6
CONTINUOUS
10
167.4547619999999881
20
-113.9638549999999952
11
167.3785709999999938
21
-113.9257599999999968
0
LINE
8
BLACK
6
CONTINUOUS
10
167.3785709999999938
20
-113.9257599999999968
11
167.3023809999999969
21
-113.8495689999999883
0
LINE
8
BLACK
6
CONTINUOUS
10
167.3023809999999969
20
-113.8495689999999883
11
167.264285000000001
21
-113.697187999999997
0
LINE
8
BLACK
6
CONTINUOUS
10
167.264285000000001
20
-113.697187999999997
11
167.264285000000001
21
-113.4305209999999988
0
LINE
8
BLACK
6
CONTINUOUS
10
167.264285000000001
20
-113.4305209999999988
11
167.3023809999999969
21
-113.2781399999999934
0
LINE
8
BLACK
6
CONTINUOUS
10
167.3023809999999969
20
-113.2781399999999934
11
167.3785709999999938
21
-113.2019499999999965
0
LINE
8
BLACK
6
CONTINUOUS
10
167.3785709999999938
20
-113.2019499999999965
11
167.4547619999999881
21
-113.1638549999999981
0
LINE
8
BLACK
6
CONTINUOUS
10
168.1404759999999783
20
-113.9638549999999952
11
168.1404759999999783
21
-113.1638549999999981
0
LINE
8
BLACK
6
CONTINUOUS
10
168.1404759999999783
20
-113.1638549999999981
11
168.5976189999999804
21
-113.9638549999999952
0
LINE
8
BLACK
6
CONTINUOUS
10
168.5976189999999804
20
-113.9638549999999952
11
168.5976189999999804
21
-113.1638549999999981
0
LINE
8
BLACK
6
CONTINUOUS
10
160.3499999999999943
20
-106.6999999999999886
11
161.3499999999999943
21
-106.6999999999999886
0
LINE
8
BLACK
6
CONTINUOUS
10
161.3499999999999943
20
-105.
11
160.3499999999999943
21
-105.
0
LINE
8
BLACK
6
CONTINUOUS
10
161.4499999999999886
20
-110.2999999999999972
11
160.4499999999999886
21
-110.2999999999999972
0
LINE
8
BLACK
6
CONTINUOUS
10
160.4499999999999886
20
-112.
11
161.4499999999999886
21
-112.
0
LINE
8
BLACK
6
CONTINUOUS
10
166.5499999999999829
20
-106.25
11
167.5499999999999829
21
-106.25
0
LINE
8
BLACK
6
CONTINUOUS
10
167.5499999999999829
20
-104.5499999999999972
11
166.5499999999999829
21
-104.5499999999999972
0
LINE
8
BLACK
6
CONTINUOUS
10
162.9000000000000057
20
-112.5999999999999943
11
159.4499999999999886
21
-112.5999999999999943
0
LINE
8
BLACK
6
CONTINUOUS
10
162.9000000000000057
20
-112.5999999999999943
11
164.8499999999999943
21
-112.5999999999999943
0
LINE
8
BLACK
6
CONTINUOUS
10
162.9000000000000057
20
-117.7199999999999989
11
160.9499999999999886
21
-117.7199999999999989
0
LINE
8
BLACK
6
CONTINUOUS
10
162.9000000000000057
20
-117.7199999999999989
11
164.8499999999999943
21
-117.7199999999999989
0
LINE
8
BLACK
6
CONTINUOUS
10
167.75
20
-112.2199999999999989
11
165.75
21
-112.2199999999999989
0
LINE
8
BLACK
6
CONTINUOUS
10
165.75
20
-110.0799999999999983
11
167.75
21
-110.0799999999999983
0
LINE
8
BLACK
6
CONTINUOUS
10
164.3499999999999943
20
-109.75
11
164.3499999999999943
21
-108.5499999999999972
0
LINE
8
BLACK
6
CONTINUOUS
10
164.3499999999999943
20
-109.75
11
162.1500000000000057
21
-109.75
0
LINE
8
BLACK
6
CONTINUOUS
10
162.1500000000000057
20
-109.75
11
162.1500000000000057
21
-108.5499999999999972
0
LINE
8
BLACK
6
CONTINUOUS
10
162.1500000000000057
20
-108.5499999999999972
11
164.3499999999999943
21
-108.5499999999999972
0
LINE
8
BLACK
6
CONTINUOUS
10
171.4499999999999886
20
-112.1499999999999915
11
171.4499999999999886
21
-110.9499999999999886
0
LINE
8
BLACK
6
CONTINUOUS
10
171.4499999999999886
20
-112.1499999999999915
11
169.25
21
-112.1499999999999915
0
LINE
8
BLACK
6
CONTINUOUS
10
169.25
20
-112.1499999999999915
11
169.25
21
-110.9499999999999886
0
LINE
8
BLACK
6
CONTINUOUS
10
169.25
20
-110.9499999999999886
11
171.4499999999999886
21
-110.9499999999999886
0
LINE
8
BLACK
6
CONTINUOUS
10
151.0499999999999829
20
-104.0499999999999972
11
149.8499999999999943
21
-104.0499999999999972
0
LINE
8
BLACK
6
CONTINUOUS
10
151.0499999999999829
20
-104.0499999999999972
11
151.0499999999999829
21
-106.25
0
LINE
8
BLACK
6
CONTINUOUS
10
151.0499999999999829
20
-106.25
11
149.8499999999999943
21
-106.25
0
LINE
8
BLACK
6
CONTINUOUS
10
149.8499999999999943
20
-106.25
11
149.8499999999999943
21
-104.0499999999999972
0
LINE
8
BLACK
6
CONTINUOUS
10
164.3499999999999943
20
-108.25
11
164.3499999999999943
21
-107.0499999999999972
0
LINE
8
BLACK
6
CONTINUOUS
10
164.3499999999999943
20
-108.25
11
162.1500000000000057
21
-108.25
0
LINE
8
BLACK
6
CONTINUOUS
10
162.1500000000000057
20
-108.25
11
162.1500000000000057
21
-107.0499999999999972
0
LINE
8
BLACK
6
CONTINUOUS
10
162.1500000000000057
20
-107.0499999999999972
11
164.3499999999999943
21
-107.0499999999999972
0
LINE
8
BLACK
6
CONTINUOUS
10
172.1500000000000057
20
-110.9499999999999886
11
172.1500000000000057
21
-112.1499999999999915
0
LINE
8
BLACK
6
CONTINUOUS
10
172.1500000000000057
20
-110.9499999999999886
11
174.3499999999999943
21
-110.9499999999999886
0
LINE
8
BLACK
6
CONTINUOUS
10
174.3499999999999943
20
-110.9499999999999886
11
174.3499999999999943
21
-112.1499999999999915
0
LINE
8
BLACK
6
CONTINUOUS
10
174.3499999999999943
20
-112.1499999999999915
11
172.1500000000000057
21
-112.1499999999999915
0
LINE
8
BLACK
6
CONTINUOUS
10
172.0999999999999943
20
-97.1499999999999915
11
172.0999999999999943
21
-98.75
0
LINE
8
BLACK
6
CONTINUOUS
10
172.0999999999999943
20
-97.1499999999999915
11
175.0999999999999943
21
-97.1499999999999915
0
LINE
8
BLACK
6
CONTINUOUS
10
175.0999999999999943
20
-97.1499999999999915
11
175.0999999999999943
21
-98.75
0
LINE
8
BLACK
6
CONTINUOUS
10
175.0999999999999943
20
-98.75
11
172.0999999999999943
21
-98.75
0
LINE
8
BLACK
6
CONTINUOUS
10
159.25
20
-108.5499999999999972
11
159.25
21
-109.75
0
LINE
8
BLACK
6
CONTINUOUS
10
159.25
20
-108.5499999999999972
11
161.4499999999999886
21
-108.5499999999999972
0
LINE
8
BLACK
6
CONTINUOUS
10
161.4499999999999886
20
-108.5499999999999972
11
161.4499999999999886
21
-109.75
0
LINE
8
BLACK
6
CONTINUOUS
10
161.4499999999999886
20
-109.75
11
159.25
21
-109.75
0
LINE
8
BLACK
6
CONTINUOUS
10
171.8499999999999943
20
-98.75
11
171.8499999999999943
21
-97.1499999999999915
0
LINE
8
BLACK
6
CONTINUOUS
10
171.8499999999999943
20
-98.75
11
168.8499999999999943
21
-98.75
0
LINE
8
BLACK
6
CONTINUOUS
10
168.8499999999999943
20
-98.75
11
168.8499999999999943
21
-97.1499999999999915
0
LINE
8
BLACK
6
CONTINUOUS
10
168.8499999999999943
20
-97.1499999999999915
11
171.8499999999999943
21
-97.1499999999999915
0
LINE
8
BLACK
6
CONTINUOUS
10
161.4499999999999886
20
-108.25
11
161.4499999999999886
21
-107.0499999999999972
0
LINE
8
BLACK
6
CONTINUOUS
10
161.4499999999999886
20
-108.25
11
159.25
21
-108.25
0
LINE
8
BLACK
6
CONTINUOUS
10
159.25
20
-108.25
11
159.25
21
-107.0499999999999972
0
LINE
8
BLACK
6
CONTINUOUS
10
159.25
20
-107.0499999999999972
11
161.4499999999999886
21
-107.0499999999999972
0
LINE
8
BLACK
6
CONTINUOUS
10
165.5699999999999932
20
-107.3900000000000006
11
165.5699999999999932
21
-109.5499999999999972
0
LINE
8
BLACK
6
CONTINUOUS
10
165.5699999999999932
20
-107.3900000000000006
11
166.5
21
-107.3900000000000006
0
LINE
8
BLACK
6
CONTINUOUS
10
168.7299999999999898
20
-107.3900000000000006
11
168.7299999999999898
21
-108.8499999999999943
0
LINE
8
BLACK
6
CONTINUOUS
10
168.7299999999999898
20
-107.3900000000000006
11
167.7999999999999829
21
-107.3900000000000006
0
ARC
8
BLACK
10
162.8630059999999844
20
-100.3048589999999933
40
4.384488900124734
50
-248.69530005
51
-113.65677086
0
ARC
8
BLACK
10
162.7799550000000011
20
-100.3499659999999949
40
4.3845161101518375
50
-68.69348907
51
66.33997514
0
CIRCLE
8
BLACK
10
166.8899999999999864
20
-97.4499999999999886
40
0.2499
0
LINE
8
BLACK
6
CONTINUOUS
10
144.25
20
-115.3499999999999943
11
147.8499999999999943
21
-115.3499999999999943
0
LINE
8
BLACK
6
CONTINUOUS
10
147.8499999999999943
20
-115.3499999999999943
11
147.8499999999999943
21
-113.1499999999999915
0
LINE
8
BLACK
6
CONTINUOUS
10
140.1500000000000057
20
-113.5499999999999972
11
140.1500000000000057
21
-107.1499999999999915
0
LINE
8
BLACK
6
CONTINUOUS
10
144.25
20
-105.3499999999999943
11
147.8499999999999943
21
-105.3499999999999943
0
LINE
8
BLACK
6
CONTINUOUS
10
147.8499999999999943
20
-105.3499999999999943
11
147.8499999999999943
21
-107.5499999999999972
0
LINE
8
BLACK
6
CONTINUOUS
10
174.0499999999999829
20
-100.9499999999999886
11
170.4499999999999886
21
-100.9499999999999886
0
LINE
8
BLACK
6
CONTINUOUS
10
170.4499999999999886
20
-100.9499999999999886
11
170.4499999999999886
21
-103.1499999999999915
0
LINE
8
BLACK
6
CONTINUOUS
10
178.1500000000000057
20
-102.75
11
178.1500000000000057
21
-107.1499999999999915
0
LINE
8
BLACK
6
CONTINUOUS
10
174.0499999999999829
20
-108.9499999999999886
11
170.4499999999999886
21
-108.9499999999999886
0
LINE
8
BLACK
6
CONTINUOUS
10
170.4499999999999886
20
-108.9499999999999886
11
170.4499999999999886
21
-106.75
0
LINE
8
BLACK
6
CONTINUOUS
10
144.8499999999999943
20
-98.75
11
144.8499999999999943
21
-104.75
0
LINE
8
BLACK
6
CONTINUOUS
10
140.0499999999999829
20
-98.75
11
144.8499999999999943
21
-98.75
0
LINE
8
BLACK
6
CONTINUOUS
10
140.0499999999999829
20
-98.75
11
140.0499999999999829
21
-100.75
0
LINE
8
BLACK
6
CONTINUOUS
10
140.5499999999999829
20
-100.75
11
140.0499999999999829
21
-100.75
0
LINE
8
BLACK
6
CONTINUOUS
10
140.5499999999999829
20
-102.75
11
140.5499999999999829
21
-100.75
0
LINE
8
BLACK
6
CONTINUOUS
10
140.5499999999999829
20
-102.75
11
140.0499999999999829
21
-102.75
0
LINE
8
BLACK
6
CONTINUOUS
10
140.0499999999999829
20
-104.75
11
140.0499999999999829
21
-102.75
0
LINE
8
BLACK
6
CONTINUOUS
10
140.0499999999999829
20
-104.75
11
144.8499999999999943
21
-104.75
0
LINE
8
BLACK
6
CONTINUOUS
10
177.5499999999999829
20
-112.0499999999999972
11
177.5499999999999829
21
-111.0499999999999972
0
LINE
8
BLACK
6
CONTINUOUS
10
176.4499999999999886
20
-111.75
11
176.4499999999999886
21
-111.3499999999999943
0
LINE
8
BLACK
6
CONTINUOUS
10
176.0999999999999943
20
-111.75
11
176.0999999999999943
21
-111.3499999999999943
0
LINE
8
BLACK
6
CONTINUOUS
10
176.4000000000000057
20
-111.5499999999999972
11
176.0999999999999943
21
-111.75
0
LINE
8
BLACK
6
CONTINUOUS
10
176.0999999999999943
20
-111.3499999999999943
11
176.4000000000000057
21
-111.5499999999999972
0
LINE
8
BLACK
6
CONTINUOUS
10
177.5499999999999829
20
-112.0499999999999972
11
175.4499999999999886
21
-112.0499999999999972
0
LINE
8
BLACK
6
CONTINUOUS
10
177.5499999999999829
20
-111.0499999999999972
11
175.4499999999999886
21
-111.0499999999999972
0
LINE
8
BLACK
6
CONTINUOUS
10
175.4499999999999886
20
-113.3099999999999881
11
175.4499999999999886
21
-116.9200000000000017
0
LINE
8
BLACK
6
CONTINUOUS
10
169.25
20
-116.9200000000000017
11
169.25
21
-113.3099999999999881
0
LINE
8
BLACK
6
CONTINUOUS
10
175.4499999999999886
20
-116.9200000000000017
11
169.25
21
-116.9200000000000017
0
LINE
8
BLACK
6
CONTINUOUS
10
169.25
20
-113.3099999999999881
11
175.4499999999999886
21
-113.3099999999999881
0
CIRCLE
8
BLACK
10
178.1500000000000057
20
-116.8099999999999881
40
0.1
0
LINE
8
BLACK
6
CONTINUOUS
10
144.9499999999999886
20
-96.8499999999999943
11
144.9499999999999886
21
-98.0499999999999972
0
LINE
8
BLACK
6
CONTINUOUS
10
144.9499999999999886
20
-96.8499999999999943
11
147.1500000000000057
21
-96.8499999999999943
0
LINE
8
BLACK
6
CONTINUOUS
10
147.1500000000000057
20
-96.8499999999999943
11
147.1500000000000057
21
-98.0499999999999972
0
LINE
8
BLACK
6
CONTINUOUS
10
147.1500000000000057
20
-98.0499999999999972
11
144.9499999999999886
21
-98.0499999999999972
0
LINE
8
BLACK
6
CONTINUOUS
10
171.4499999999999886
20
-110.6499999999999915
11
171.4499999999999886
21
-109.4499999999999886
0
LINE
8
BLACK
6
CONTINUOUS
10
171.4499999999999886
20
-110.6499999999999915
11
169.25
21
-110.6499999999999915
0
LINE
8
BLACK
6
CONTINUOUS
10
169.25
20
-110.6499999999999915
11
169.25
21
-109.4499999999999886
0
LINE
8
BLACK
6
CONTINUOUS
10
169.25
20
-109.4499999999999886
11
171.4499999999999886
21
-109.4499999999999886
0
LINE
8
BLACK
6
CONTINUOUS
10
150.3499999999999943
20
-97.9499999999999886
11
150.3499999999999943
21
-96.9499999999999886
0
LINE
8
BLACK
6
CONTINUOUS
10
149.25
20
-97.6499999999999915
11
149.25
21
-97.25
0
LINE
8
BLACK
6
CONTINUOUS
10
148.9000000000000057
20
-97.6499999999999915
11
148.9000000000000057
21
-97.25
0
LINE
8
BLACK
6
CONTINUOUS
10
149.1999999999999886
20
-97.4499999999999886
11
148.9000000000000057
21
-97.6499999999999915
0
LINE
8
BLACK
6
CONTINUOUS
10
148.9000000000000057
20
-97.25
11
149.1999999999999886
21
-97.4499999999999886
0
LINE
8
BLACK
6
CONTINUOUS
10
150.3499999999999943
20
-97.9499999999999886
11
148.25
21
-97.9499999999999886
0
LINE
8
BLACK
6
CONTINUOUS
10
150.3499999999999943
20
-96.9499999999999886
11
148.25
21
-96.9499999999999886
0
LINE
8
BLACK
6
CONTINUOUS
10
178.3499999999999943
20
-99.1499999999999915
11
178.3499999999999943
21
-115.1499999999999915
0
LINE
8
BLACK
6
CONTINUOUS
10
143.1500000000000057
20
-95.9499999999999886
11
175.1500000000000057
21
-95.9499999999999886
0
ARC
8
BLACK
10
143.1500000000000057
20
-115.1499999999999915
40
3.1999999999999997
50
-180.00000000
51
-90.00000000
0
LINE
8
BLACK
6
CONTINUOUS
10
139.9499999999999886
20
-99.1499999999999915
11
139.9499999999999886
21
-115.1499999999999915
0
ARC
8
BLACK
10
175.1500000000000057
20
-99.1499999999999915
40
3.1999999999999997
50
0.00000000
51
90.00000000
0
LINE
8
BLACK
6
CONTINUOUS
10
143.1500000000000057
20
-118.3499999999999943
11
175.1500000000000057
21
-118.3499999999999943
0
ARC
8
BLACK
10
143.1500000000000057
20
-99.1499999999999915
40
3.1999999999999997
50
90.00000000
51
180.00000000
0
ARC
8
BLACK
10
175.1500000000000057
20
-115.1499999999999915
40
3.1999999999999997
50
-90.00000000
51
-0.00000000
  0
ENDSEC
  0
EOF
