  0
SECTION
  2
HEADER
  9
$ANGBASE
  50
0.0
  9
$ANGDIR
  70
1
  9
$MEASUREMENT
  70
1
  0
ENDSEC
  0
SECTION
  2
TABLES
  0
TABLE
  2
LTYPE
  70
4
  0
LTYPE
  5
40F
  2
CONTINUOUS
  70
0
  3
Solid line
  72
65
  73
0
  40
0.0
  0
LTYPE
  5
410
  2
DASHDOT
 70
0
  3
Dash Dot ____ _ ____ _
 72
65
 73
4
 40
2.0
 49
1.25
 49
-0.25
 49
0.25
 49
-0.25
  0
LTYPE
  5
411
  2
DASHED
 70
0
  3
Dashed __ __ __ __ __
 72
65
 73
2
 40
0.75
 49
0.5
 49
-0.25
  0
LTYPE
  5
43B
  2
DOTTED
 70
0
  3
Dotted .  .  .  .
 72
65
 73
2
 40
0.2
 49
0.0
 49
-0.2
  0
ENDTAB
  0
TABLE
  2
STYLE
  70
4
  0
STYLE
  2
KICAD
  70
0
  40
0
  41
1
  42
1
  50
0
  71
0
  3
isocp.shx
  0
STYLE
  2
KICADB
  70
0
  40
0
  41
1
  42
1
  50
0
  71
0
  3
isocp.shx
  0
STYLE
  2
KICADI
  70
0
  40
0
  41
1
  42
1
  50
15
  71
0
  3
isocp.shx
  0
STYLE
  2
KICADBI
  70
0
  40
0
  41
1
  42
1
  50
15
  71
0
  3
isocp.shx
  0
ENDTAB
  0
TABLE
  2
LAYER
  70
1
  0
LAYER
  2
BLACK
  70
0
  62
7
  6
CONTINUOUS
  0
ENDTAB
  0
ENDSEC
  0
SECTION
  2
ENTITIES
0
LINE
8
BLACK
6
CONTINUOUS
10
182.1238089999999943
20
-128.5548189999999806
11
182.1238089999999943
21
-127.5548189999999948
0
LINE
8
BLACK
6
CONTINUOUS
10
182.1238089999999943
20
-127.5548189999999948
11
182.504761000000002
21
-127.5548189999999948
0
LINE
8
BLACK
6
CONTINUOUS
10
182.504761000000002
20
-127.5548189999999948
11
182.5999989999999968
21
-127.6024379999999923
0
LINE
8
BLACK
6
CONTINUOUS
10
182.5999989999999968
20
-127.6024379999999923
11
182.6476179999999943
21
-127.6500569999999897
0
LINE
8
BLACK
6
CONTINUOUS
10
182.6476179999999943
20
-127.6500569999999897
11
182.6952369999999917
21
-127.7452949999999987
0
LINE
8
BLACK
6
CONTINUOUS
10
182.6952369999999917
20
-127.7452949999999987
11
182.6952369999999917
21
-127.8881519999999909
0
LINE
8
BLACK
6
CONTINUOUS
10
182.6952369999999917
20
-127.8881519999999909
11
182.6476179999999943
21
-127.98339
0
LINE
8
BLACK
6
CONTINUOUS
10
182.6476179999999943
20
-127.98339
11
182.5999989999999968
21
-128.0310089999999832
0
LINE
8
BLACK
6
CONTINUOUS
10
182.5999989999999968
20
-128.0310089999999832
11
182.504761000000002
21
-128.0786279999999806
0
LINE
8
BLACK
6
CONTINUOUS
10
182.504761000000002
20
-128.0786279999999806
11
182.1238089999999943
21
-128.0786279999999806
0
LINE
8
BLACK
6
CONTINUOUS
10
183.2666659999999865
20
-128.5548189999999806
11
183.1714279999999917
21
-128.5071999999999832
0
LINE
8
BLACK
6
CONTINUOUS
10
183.1714279999999917
20
-128.5071999999999832
11
183.1238089999999943
21
-128.4595799999999883
0
LINE
8
BLACK
6
CONTINUOUS
10
183.1238089999999943
20
-128.4595799999999883
11
183.0761899999999969
21
-128.3643419999999935
0
LINE
8
BLACK
6
CONTINUOUS
10
183.0761899999999969
20
-128.3643419999999935
11
183.0761899999999969
21
-128.0786279999999806
0
LINE
8
BLACK
6
CONTINUOUS
10
183.0761899999999969
20
-128.0786279999999806
11
183.1238089999999943
21
-127.98339
0
LINE
8
BLACK
6
CONTINUOUS
10
183.1238089999999943
20
-127.98339
11
183.1714279999999917
21
-127.9357709999999884
0
LINE
8
BLACK
6
CONTINUOUS
10
183.1714279999999917
20
-127.9357709999999884
11
183.2666659999999865
21
-127.8881519999999909
0
LINE
8
BLACK
6
CONTINUOUS
10
183.2666659999999865
20
-127.8881519999999909
11
183.4095229999999788
21
-127.8881519999999909
0
LINE
8
BLACK
6
CONTINUOUS
10
183.4095229999999788
20
-127.8881519999999909
11
183.504761000000002
21
-127.9357709999999884
0
LINE
8
BLACK
6
CONTINUOUS
10
183.504761000000002
20
-127.9357709999999884
11
183.5523799999999994
21
-127.98339
0
LINE
8
BLACK
6
CONTINUOUS
10
183.5523799999999994
20
-127.98339
11
183.5999989999999968
21
-128.0786279999999806
0
LINE
8
BLACK
6
CONTINUOUS
10
183.5999989999999968
20
-128.0786279999999806
11
183.5999989999999968
21
-128.3643419999999935
0
LINE
8
BLACK
6
CONTINUOUS
10
183.5999989999999968
20
-128.3643419999999935
11
183.5523799999999994
21
-128.4595799999999883
0
LINE
8
BLACK
6
CONTINUOUS
10
183.5523799999999994
20
-128.4595799999999883
11
183.504761000000002
21
-128.5071999999999832
0
LINE
8
BLACK
6
CONTINUOUS
10
183.504761000000002
20
-128.5071999999999832
11
183.4095229999999788
21
-128.5548189999999806
0
LINE
8
BLACK
6
CONTINUOUS
10
183.4095229999999788
20
-128.5548189999999806
11
183.2666659999999865
21
-128.5548189999999806
0
LINE
8
BLACK
6
CONTINUOUS
10
183.9333330000000046
20
-127.8881519999999909
11
184.1238089999999943
21
-128.5548189999999806
0
LINE
8
BLACK
6
CONTINUOUS
10
184.1238089999999943
20
-128.5548189999999806
11
184.3142849999999839
21
-128.0786279999999806
0
LINE
8
BLACK
6
CONTINUOUS
10
184.3142849999999839
20
-128.0786279999999806
11
184.504761000000002
21
-128.5548189999999806
0
LINE
8
BLACK
6
CONTINUOUS
10
184.504761000000002
20
-128.5548189999999806
11
184.6952369999999917
21
-127.8881519999999909
0
LINE
8
BLACK
6
CONTINUOUS
10
185.4571420000000046
20
-128.5071999999999832
11
185.3619039999999814
21
-128.5548189999999806
0
LINE
8
BLACK
6
CONTINUOUS
10
185.3619039999999814
20
-128.5548189999999806
11
185.1714279999999917
21
-128.5548189999999806
0
LINE
8
BLACK
6
CONTINUOUS
10
185.1714279999999917
20
-128.5548189999999806
11
185.0761899999999969
21
-128.5071999999999832
0
LINE
8
BLACK
6
CONTINUOUS
10
185.0761899999999969
20
-128.5071999999999832
11
185.0285709999999995
21
-128.4119609999999909
0
LINE
8
BLACK
6
CONTINUOUS
10
185.0285709999999995
20
-128.4119609999999909
11
185.0285709999999995
21
-128.0310089999999832
0
LINE
8
BLACK
6
CONTINUOUS
10
185.0285709999999995
20
-128.0310089999999832
11
185.0761899999999969
21
-127.9357709999999884
0
LINE
8
BLACK
6
CONTINUOUS
10
185.0761899999999969
20
-127.9357709999999884
11
185.1714279999999917
21
-127.8881519999999909
0
LINE
8
BLACK
6
CONTINUOUS
10
185.1714279999999917
20
-127.8881519999999909
11
185.3619039999999814
21
-127.8881519999999909
0
LINE
8
BLACK
6
CONTINUOUS
10
185.3619039999999814
20
-127.8881519999999909
11
185.4571420000000046
21
-127.9357709999999884
0
LINE
8
BLACK
6
CONTINUOUS
10
185.4571420000000046
20
-127.9357709999999884
11
185.504761000000002
21
-128.0310089999999832
0
LINE
8
BLACK
6
CONTINUOUS
10
185.504761000000002
20
-128.0310089999999832
11
185.504761000000002
21
-128.1262470000000064
0
LINE
8
BLACK
6
CONTINUOUS
10
185.504761000000002
20
-128.1262470000000064
11
185.0285709999999995
21
-128.2214850000000013
0
LINE
8
BLACK
6
CONTINUOUS
10
185.9333330000000046
20
-128.5548189999999806
11
185.9333330000000046
21
-127.8881519999999909
0
LINE
8
BLACK
6
CONTINUOUS
10
185.9333330000000046
20
-128.0786279999999806
11
185.980952000000002
21
-127.98339
0
LINE
8
BLACK
6
CONTINUOUS
10
185.980952000000002
20
-127.98339
11
186.0285709999999995
21
-127.9357709999999884
0
LINE
8
BLACK
6
CONTINUOUS
10
186.0285709999999995
20
-127.9357709999999884
11
186.1238089999999943
21
-127.8881519999999909
0
LINE
8
BLACK
6
CONTINUOUS
10
186.1238089999999943
20
-127.8881519999999909
11
186.2190469999999891
21
-127.8881519999999909
0
LINE
8
BLACK
6
CONTINUOUS
10
181.1470899999999915
20
-140.5738099999999804
11
181.2089949999999874
21
-140.4499999999999886
0
LINE
8
BLACK
6
CONTINUOUS
10
181.2089949999999874
20
-140.4499999999999886
11
181.2089949999999874
21
-140.2642859999999985
0
LINE
8
BLACK
6
CONTINUOUS
10
181.2089949999999874
20
-140.2642859999999985
11
181.1470899999999915
21
-140.0785719999999799
0
LINE
8
BLACK
6
CONTINUOUS
10
181.1470899999999915
20
-140.0785719999999799
11
181.0232799999999997
21
-139.9547619999999881
0
LINE
8
BLACK
6
CONTINUOUS
10
181.0232799999999997
20
-139.9547619999999881
11
180.8994710000000055
21
-139.8928569999999922
0
LINE
8
BLACK
6
CONTINUOUS
10
180.8994710000000055
20
-139.8928569999999922
11
180.651851999999991
21
-139.8309529999999938
0
LINE
8
BLACK
6
CONTINUOUS
10
180.651851999999991
20
-139.8309529999999938
11
180.4661380000000008
21
-139.8309529999999938
0
LINE
8
BLACK
6
CONTINUOUS
10
180.4661380000000008
20
-139.8309529999999938
11
180.2185189999999864
21
-139.8928569999999922
0
LINE
8
BLACK
6
CONTINUOUS
10
180.2185189999999864
20
-139.8928569999999922
11
180.0947089999999946
21
-139.9547619999999881
0
LINE
8
BLACK
6
CONTINUOUS
10
180.0947089999999946
20
-139.9547619999999881
11
179.9709000000000003
21
-140.0785719999999799
0
LINE
8
BLACK
6
CONTINUOUS
10
179.9709000000000003
20
-140.0785719999999799
11
179.9089950000000044
21
-140.2642859999999985
0
LINE
8
BLACK
6
CONTINUOUS
10
179.9089950000000044
20
-140.2642859999999985
11
179.9089950000000044
21
-140.3880949999999928
0
LINE
8
BLACK
6
CONTINUOUS
10
179.9089950000000044
20
-140.3880949999999928
11
179.9709000000000003
21
-140.5738099999999804
0
LINE
8
BLACK
6
CONTINUOUS
10
179.9709000000000003
20
-140.5738099999999804
11
180.0328039999999987
21
-140.6357140000000072
0
LINE
8
BLACK
6
CONTINUOUS
10
180.0328039999999987
20
-140.6357140000000072
11
180.4661380000000008
21
-140.6357140000000072
0
LINE
8
BLACK
6
CONTINUOUS
10
180.4661380000000008
20
-140.6357140000000072
11
180.4661380000000008
21
-140.3880949999999928
0
LINE
8
BLACK
6
CONTINUOUS
10
181.2089949999999874
20
-141.997618999999986
11
179.9089950000000044
21
-142.4309519999999907
0
LINE
8
BLACK
6
CONTINUOUS
10
179.9089950000000044
20
-142.4309519999999907
11
181.2089949999999874
21
-142.8642859999999928
0
LINE
8
BLACK
6
CONTINUOUS
10
179.9709000000000003
20
-144.226191
11
179.9089950000000044
21
-144.4119049999999902
0
LINE
8
BLACK
6
CONTINUOUS
10
179.9089950000000044
20
-144.4119049999999902
11
179.9089950000000044
21
-144.7214290000000005
0
LINE
8
BLACK
6
CONTINUOUS
10
179.9089950000000044
20
-144.7214290000000005
11
179.9709000000000003
21
-144.8452379999999948
0
LINE
8
BLACK
6
CONTINUOUS
10
179.9709000000000003
20
-144.8452379999999948
11
180.0328039999999987
21
-144.9071429999999907
0
LINE
8
BLACK
6
CONTINUOUS
10
180.0328039999999987
20
-144.9071429999999907
11
180.1566139999999905
21
-144.9690479999999866
0
LINE
8
BLACK
6
CONTINUOUS
10
180.1566139999999905
20
-144.9690479999999866
11
180.2804229999999848
21
-144.9690479999999866
0
LINE
8
BLACK
6
CONTINUOUS
10
180.2804229999999848
20
-144.9690479999999866
11
180.4042330000000049
21
-144.9071429999999907
0
LINE
8
BLACK
6
CONTINUOUS
10
180.4042330000000049
20
-144.9071429999999907
11
180.4661380000000008
21
-144.8452379999999948
0
LINE
8
BLACK
6
CONTINUOUS
10
180.4661380000000008
20
-144.8452379999999948
11
180.5280419999999992
21
-144.7214290000000005
0
LINE
8
BLACK
6
CONTINUOUS
10
180.5280419999999992
20
-144.7214290000000005
11
180.5899469999999951
21
-144.4738099999999861
0
LINE
8
BLACK
6
CONTINUOUS
10
180.5899469999999951
20
-144.4738099999999861
11
180.651851999999991
21
-144.3499999999999943
0
LINE
8
BLACK
6
CONTINUOUS
10
180.651851999999991
20
-144.3499999999999943
11
180.7137569999999869
21
-144.2880949999999984
0
LINE
8
BLACK
6
CONTINUOUS
10
180.7137569999999869
20
-144.2880949999999984
11
180.8375659999999812
21
-144.226191
0
LINE
8
BLACK
6
CONTINUOUS
10
180.8375659999999812
20
-144.226191
11
180.9613760000000013
21
-144.226191
0
LINE
8
BLACK
6
CONTINUOUS
10
180.9613760000000013
20
-144.226191
11
181.0851849999999956
21
-144.2880949999999984
0
LINE
8
BLACK
6
CONTINUOUS
10
181.0851849999999956
20
-144.2880949999999984
11
181.1470899999999915
21
-144.3499999999999943
0
LINE
8
BLACK
6
CONTINUOUS
10
181.1470899999999915
20
-144.3499999999999943
11
181.2089949999999874
21
-144.4738099999999861
0
LINE
8
BLACK
6
CONTINUOUS
10
181.2089949999999874
20
-144.4738099999999861
11
181.2089949999999874
21
-144.7833329999999989
0
LINE
8
BLACK
6
CONTINUOUS
10
181.2089949999999874
20
-144.7833329999999989
11
181.1470899999999915
21
-144.9690479999999866
0
LINE
8
BLACK
6
CONTINUOUS
10
184.6428569999999922
20
-120.9783279999999905
11
185.5714289999999949
21
-120.9783279999999905
0
LINE
8
BLACK
6
CONTINUOUS
10
185.5714289999999949
20
-120.9783279999999905
11
185.0714289999999949
21
-121.5497569999999996
0
LINE
8
BLACK
6
CONTINUOUS
10
185.0714289999999949
20
-121.5497569999999996
11
185.2857139999999845
21
-121.5497569999999996
0
LINE
8
BLACK
6
CONTINUOUS
10
185.2857139999999845
20
-121.5497569999999996
11
185.4285720000000026
21
-121.621184999999997
0
LINE
8
BLACK
6
CONTINUOUS
10
185.4285720000000026
20
-121.621184999999997
11
185.5
21
-121.6926139999999918
0
LINE
8
BLACK
6
CONTINUOUS
10
185.5
20
-121.6926139999999918
11
185.5714289999999949
21
-121.8354709999999983
0
LINE
8
BLACK
6
CONTINUOUS
10
185.5714289999999949
20
-121.8354709999999983
11
185.5714289999999949
21
-122.1926139999999918
0
LINE
8
BLACK
6
CONTINUOUS
10
185.5714289999999949
20
-122.1926139999999918
11
185.5
21
-122.3354709999999983
0
LINE
8
BLACK
6
CONTINUOUS
10
185.5
20
-122.3354709999999983
11
185.4285720000000026
21
-122.4068999999999932
0
LINE
8
BLACK
6
CONTINUOUS
10
185.4285720000000026
20
-122.4068999999999932
11
185.2857139999999845
21
-122.4783279999999905
0
LINE
8
BLACK
6
CONTINUOUS
10
185.2857139999999845
20
-122.4783279999999905
11
184.8571429999999793
21
-122.4783279999999905
0
LINE
8
BLACK
6
CONTINUOUS
10
184.8571429999999793
20
-122.4783279999999905
11
184.7142859999999871
21
-122.4068999999999932
0
LINE
8
BLACK
6
CONTINUOUS
10
184.7142859999999871
20
-122.4068999999999932
11
184.6428569999999922
21
-122.3354709999999983
0
LINE
8
BLACK
6
CONTINUOUS
10
186.4285710000000051
20
-121.621184999999997
11
186.2857139999999845
21
-121.5497569999999996
0
LINE
8
BLACK
6
CONTINUOUS
10
186.2857139999999845
20
-121.5497569999999996
11
186.2142849999999896
21
-121.4783279999999905
0
LINE
8
BLACK
6
CONTINUOUS
10
186.2142849999999896
20
-121.4783279999999905
11
186.1428569999999922
21
-121.3354709999999983
0
LINE
8
BLACK
6
CONTINUOUS
10
186.1428569999999922
20
-121.3354709999999983
11
186.1428569999999922
21
-121.2640419999999892
0
LINE
8
BLACK
6
CONTINUOUS
10
186.1428569999999922
20
-121.2640419999999892
11
186.2142849999999896
21
-121.121184999999997
0
LINE
8
BLACK
6
CONTINUOUS
10
186.2142849999999896
20
-121.121184999999997
11
186.2857139999999845
21
-121.0497569999999996
0
LINE
8
BLACK
6
CONTINUOUS
10
186.2857139999999845
20
-121.0497569999999996
11
186.4285710000000051
21
-120.9783279999999905
0
LINE
8
BLACK
6
CONTINUOUS
10
186.4285710000000051
20
-120.9783279999999905
11
186.7142849999999896
21
-120.9783279999999905
0
LINE
8
BLACK
6
CONTINUOUS
10
186.7142849999999896
20
-120.9783279999999905
11
186.8571429999999793
21
-121.0497569999999996
0
LINE
8
BLACK
6
CONTINUOUS
10
186.8571429999999793
20
-121.0497569999999996
11
186.9285710000000051
21
-121.121184999999997
0
LINE
8
BLACK
6
CONTINUOUS
10
186.9285710000000051
20
-121.121184999999997
11
187.
21
-121.2640419999999892
0
LINE
8
BLACK
6
CONTINUOUS
10
187.
20
-121.2640419999999892
11
187.
21
-121.3354709999999983
0
LINE
8
BLACK
6
CONTINUOUS
10
187.
20
-121.3354709999999983
11
186.9285710000000051
21
-121.4783279999999905
0
LINE
8
BLACK
6
CONTINUOUS
10
186.9285710000000051
20
-121.4783279999999905
11
186.8571429999999793
21
-121.5497569999999996
0
LINE
8
BLACK
6
CONTINUOUS
10
186.8571429999999793
20
-121.5497569999999996
11
186.7142849999999896
21
-121.621184999999997
0
LINE
8
BLACK
6
CONTINUOUS
10
186.7142849999999896
20
-121.621184999999997
11
186.4285710000000051
21
-121.621184999999997
0
LINE
8
BLACK
6
CONTINUOUS
10
186.4285710000000051
20
-121.621184999999997
11
186.2857139999999845
21
-121.6926139999999918
0
LINE
8
BLACK
6
CONTINUOUS
10
186.2857139999999845
20
-121.6926139999999918
11
186.2142849999999896
21
-121.7640419999999892
0
LINE
8
BLACK
6
CONTINUOUS
10
186.2142849999999896
20
-121.7640419999999892
11
186.1428569999999922
21
-121.9068999999999932
0
LINE
8
BLACK
6
CONTINUOUS
10
186.1428569999999922
20
-121.9068999999999932
11
186.1428569999999922
21
-122.1926139999999918
0
LINE
8
BLACK
6
CONTINUOUS
10
186.1428569999999922
20
-122.1926139999999918
11
186.2142849999999896
21
-122.3354709999999983
0
LINE
8
BLACK
6
CONTINUOUS
10
186.2142849999999896
20
-122.3354709999999983
11
186.2857139999999845
21
-122.4068999999999932
0
LINE
8
BLACK
6
CONTINUOUS
10
186.2857139999999845
20
-122.4068999999999932
11
186.4285710000000051
21
-122.4783279999999905
0
LINE
8
BLACK
6
CONTINUOUS
10
186.4285710000000051
20
-122.4783279999999905
11
186.7142849999999896
21
-122.4783279999999905
0
LINE
8
BLACK
6
CONTINUOUS
10
186.7142849999999896
20
-122.4783279999999905
11
186.8571429999999793
21
-122.4068999999999932
0
LINE
8
BLACK
6
CONTINUOUS
10
186.8571429999999793
20
-122.4068999999999932
11
186.9285710000000051
21
-122.3354709999999983
0
LINE
8
BLACK
6
CONTINUOUS
10
186.9285710000000051
20
-122.3354709999999983
11
187.
21
-122.1926139999999918
0
LINE
8
BLACK
6
CONTINUOUS
10
187.
20
-122.1926139999999918
11
187.
21
-121.9068999999999932
0
LINE
8
BLACK
6
CONTINUOUS
10
187.
20
-121.9068999999999932
11
186.9285710000000051
21
-121.7640419999999892
0
LINE
8
BLACK
6
CONTINUOUS
10
186.9285710000000051
20
-121.7640419999999892
11
186.8571429999999793
21
-121.6926139999999918
0
LINE
8
BLACK
6
CONTINUOUS
10
186.8571429999999793
20
-121.6926139999999918
11
186.7142849999999896
21
-121.621184999999997
0
LINE
8
BLACK
6
CONTINUOUS
10
187.6428559999999948
20
-122.3354709999999983
11
187.7142849999999896
21
-122.4068999999999932
0
LINE
8
BLACK
6
CONTINUOUS
10
187.7142849999999896
20
-122.4068999999999932
11
187.6428559999999948
21
-122.4783279999999905
0
LINE
8
BLACK
6
CONTINUOUS
10
187.6428559999999948
20
-122.4783279999999905
11
187.5714279999999974
21
-122.4068999999999932
0
LINE
8
BLACK
6
CONTINUOUS
10
187.5714279999999974
20
-122.4068999999999932
11
187.6428559999999948
21
-122.3354709999999983
0
LINE
8
BLACK
6
CONTINUOUS
10
187.6428559999999948
20
-122.3354709999999983
11
187.6428559999999948
21
-122.4783279999999905
0
LINE
8
BLACK
6
CONTINUOUS
10
189.
20
-121.4783279999999905
11
189.
21
-122.4783279999999905
0
LINE
8
BLACK
6
CONTINUOUS
10
188.6428569999999922
20
-120.9068999999999932
11
188.2857139999999845
21
-121.9783279999999905
0
LINE
8
BLACK
6
CONTINUOUS
10
188.2857139999999845
20
-121.9783279999999905
11
189.2142849999999896
21
-121.9783279999999905
0
LINE
8
BLACK
6
CONTINUOUS
10
190.9285699999999792
20
-122.4783279999999905
11
190.9285699999999792
21
-121.4783279999999905
0
LINE
8
BLACK
6
CONTINUOUS
10
190.9285699999999792
20
-121.621184999999997
11
190.9999990000000025
21
-121.5497569999999996
0
LINE
8
BLACK
6
CONTINUOUS
10
190.9999990000000025
20
-121.5497569999999996
11
191.1428559999999948
21
-121.4783279999999905
0
LINE
8
BLACK
6
CONTINUOUS
10
191.1428559999999948
20
-121.4783279999999905
11
191.3571419999999819
21
-121.4783279999999905
0
LINE
8
BLACK
6
CONTINUOUS
10
191.3571419999999819
20
-121.4783279999999905
11
191.4999990000000025
21
-121.5497569999999996
0
LINE
8
BLACK
6
CONTINUOUS
10
191.4999990000000025
20
-121.5497569999999996
11
191.5714279999999974
21
-121.6926139999999918
0
LINE
8
BLACK
6
CONTINUOUS
10
191.5714279999999974
20
-121.6926139999999918
11
191.5714279999999974
21
-122.4783279999999905
0
LINE
8
BLACK
6
CONTINUOUS
10
191.5714279999999974
20
-121.6926139999999918
11
191.6428559999999948
21
-121.5497569999999996
0
LINE
8
BLACK
6
CONTINUOUS
10
191.6428559999999948
20
-121.5497569999999996
11
191.785712999999987
21
-121.4783279999999905
0
LINE
8
BLACK
6
CONTINUOUS
10
191.785712999999987
20
-121.4783279999999905
11
191.9999990000000025
21
-121.4783279999999905
0
LINE
8
BLACK
6
CONTINUOUS
10
191.9999990000000025
20
-121.4783279999999905
11
192.1428559999999948
21
-121.5497569999999996
0
LINE
8
BLACK
6
CONTINUOUS
10
192.1428559999999948
20
-121.5497569999999996
11
192.2142849999999896
21
-121.6926139999999918
0
LINE
8
BLACK
6
CONTINUOUS
10
192.2142849999999896
20
-121.6926139999999918
11
192.2142849999999896
21
-122.4783279999999905
0
LINE
8
BLACK
6
CONTINUOUS
10
192.9285699999999792
20
-122.4783279999999905
11
192.9285699999999792
21
-121.4783279999999905
0
LINE
8
BLACK
6
CONTINUOUS
10
192.9285699999999792
20
-121.621184999999997
11
192.9999990000000025
21
-121.5497569999999996
0
LINE
8
BLACK
6
CONTINUOUS
10
192.9999990000000025
20
-121.5497569999999996
11
193.1428559999999948
21
-121.4783279999999905
0
LINE
8
BLACK
6
CONTINUOUS
10
193.1428559999999948
20
-121.4783279999999905
11
193.3571419999999819
21
-121.4783279999999905
0
LINE
8
BLACK
6
CONTINUOUS
10
193.3571419999999819
20
-121.4783279999999905
11
193.4999990000000025
21
-121.5497569999999996
0
LINE
8
BLACK
6
CONTINUOUS
10
193.4999990000000025
20
-121.5497569999999996
11
193.5714279999999974
21
-121.6926139999999918
0
LINE
8
BLACK
6
CONTINUOUS
10
193.5714279999999974
20
-121.6926139999999918
11
193.5714279999999974
21
-122.4783279999999905
0
LINE
8
BLACK
6
CONTINUOUS
10
193.5714279999999974
20
-121.6926139999999918
11
193.6428559999999948
21
-121.5497569999999996
0
LINE
8
BLACK
6
CONTINUOUS
10
193.6428559999999948
20
-121.5497569999999996
11
193.785712999999987
21
-121.4783279999999905
0
LINE
8
BLACK
6
CONTINUOUS
10
193.785712999999987
20
-121.4783279999999905
11
193.9999990000000025
21
-121.4783279999999905
0
LINE
8
BLACK
6
CONTINUOUS
10
193.9999990000000025
20
-121.4783279999999905
11
194.1428559999999948
21
-121.5497569999999996
0
LINE
8
BLACK
6
CONTINUOUS
10
194.1428559999999948
20
-121.5497569999999996
11
194.2142849999999896
21
-121.6926139999999918
0
LINE
8
BLACK
6
CONTINUOUS
10
194.2142849999999896
20
-121.6926139999999918
11
194.2142849999999896
21
-122.4783279999999905
0
LINE
8
BLACK
6
CONTINUOUS
10
170.2999999999999829
20
-129.9000000000000057
11
170.2999999999999829
21
-121.2135799999999932
0
LINE
8
BLACK
6
CONTINUOUS
10
208.6999999999999886
20
-129.9000000000000057
11
208.6999999999999886
21
-121.2135799999999932
0
LINE
8
BLACK
6
CONTINUOUS
10
170.2999999999999829
20
-121.7999999999999972
11
183.3785719999999912
21
-121.7999999999999972
0
LINE
8
BLACK
6
CONTINUOUS
10
195.6214279999999803
20
-121.7999999999999972
11
208.6999999999999886
21
-121.7999999999999972
0
LINE
8
BLACK
6
CONTINUOUS
10
170.2999999999999829
20
-121.7999999999999972
11
171.4265039999999942
21
-121.2135789999999957
0
LINE
8
BLACK
6
CONTINUOUS
10
170.2999999999999829
20
-121.7999999999999972
11
171.4265039999999942
21
-122.3864209999999986
0
LINE
8
BLACK
6
CONTINUOUS
10
208.6999999999999886
20
-121.7999999999999972
11
207.5734959999999774
21
-122.3864209999999986
0
LINE
8
BLACK
6
CONTINUOUS
10
208.6999999999999886
20
-121.7999999999999972
11
207.5734959999999774
21
-121.2135789999999957
0
LINE
8
BLACK
6
CONTINUOUS
10
175.2071430000000021
20
-158.5783279999999991
11
176.1357150000000047
21
-158.5783279999999991
0
LINE
8
BLACK
6
CONTINUOUS
10
176.1357150000000047
20
-158.5783279999999991
11
175.6357150000000047
21
-159.1497569999999939
0
LINE
8
BLACK
6
CONTINUOUS
10
175.6357150000000047
20
-159.1497569999999939
11
175.8499999999999943
21
-159.1497569999999939
0
LINE
8
BLACK
6
CONTINUOUS
10
175.8499999999999943
20
-159.1497569999999939
11
175.992857999999984
21
-159.2211849999999913
0
LINE
8
BLACK
6
CONTINUOUS
10
175.992857999999984
20
-159.2211849999999913
11
176.0642859999999814
21
-159.2926139999999862
0
LINE
8
BLACK
6
CONTINUOUS
10
176.0642859999999814
20
-159.2926139999999862
11
176.1357150000000047
21
-159.4354710000000068
0
LINE
8
BLACK
6
CONTINUOUS
10
176.1357150000000047
20
-159.4354710000000068
11
176.1357150000000047
21
-159.7926139999999862
0
LINE
8
BLACK
6
CONTINUOUS
10
176.1357150000000047
20
-159.7926139999999862
11
176.0642859999999814
21
-159.9354710000000068
0
LINE
8
BLACK
6
CONTINUOUS
10
176.0642859999999814
20
-159.9354710000000068
11
175.992857999999984
21
-160.0069000000000017
0
LINE
8
BLACK
6
CONTINUOUS
10
175.992857999999984
20
-160.0069000000000017
11
175.8499999999999943
21
-160.0783279999999991
0
LINE
8
BLACK
6
CONTINUOUS
10
175.8499999999999943
20
-160.0783279999999991
11
175.4214289999999892
21
-160.0783279999999991
0
LINE
8
BLACK
6
CONTINUOUS
10
175.4214289999999892
20
-160.0783279999999991
11
175.2785719999999969
21
-160.0069000000000017
0
LINE
8
BLACK
6
CONTINUOUS
10
175.2785719999999969
20
-160.0069000000000017
11
175.2071430000000021
21
-159.9354710000000068
0
LINE
8
BLACK
6
CONTINUOUS
10
176.7785709999999995
20
-159.9354710000000068
11
176.8499999999999943
21
-160.0069000000000017
0
LINE
8
BLACK
6
CONTINUOUS
10
176.8499999999999943
20
-160.0069000000000017
11
176.7785709999999995
21
-160.0783279999999991
0
LINE
8
BLACK
6
CONTINUOUS
10
176.7785709999999995
20
-160.0783279999999991
11
176.7071430000000021
21
-160.0069000000000017
0
LINE
8
BLACK
6
CONTINUOUS
10
176.7071430000000021
20
-160.0069000000000017
11
176.7785709999999995
21
-159.9354710000000068
0
LINE
8
BLACK
6
CONTINUOUS
10
176.7785709999999995
20
-159.9354710000000068
11
176.7785709999999995
21
-160.0783279999999991
0
LINE
8
BLACK
6
CONTINUOUS
10
177.4214289999999892
20
-158.7211849999999913
11
177.4928569999999866
21
-158.6497569999999939
0
LINE
8
BLACK
6
CONTINUOUS
10
177.4928569999999866
20
-158.6497569999999939
11
177.6357150000000047
21
-158.5783279999999991
0
LINE
8
BLACK
6
CONTINUOUS
10
177.6357150000000047
20
-158.5783279999999991
11
177.9928569999999866
21
-158.5783279999999991
0
LINE
8
BLACK
6
CONTINUOUS
10
177.9928569999999866
20
-158.5783279999999991
11
178.1357150000000047
21
-158.6497569999999939
0
LINE
8
BLACK
6
CONTINUOUS
10
178.1357150000000047
20
-158.6497569999999939
11
178.2071430000000021
21
-158.7211849999999913
0
LINE
8
BLACK
6
CONTINUOUS
10
178.2071430000000021
20
-158.7211849999999913
11
178.2785719999999969
21
-158.8640419999999835
0
LINE
8
BLACK
6
CONTINUOUS
10
178.2785719999999969
20
-158.8640419999999835
11
178.2785719999999969
21
-159.0069000000000017
0
LINE
8
BLACK
6
CONTINUOUS
10
178.2785719999999969
20
-159.0069000000000017
11
178.2071430000000021
21
-159.2211849999999913
0
LINE
8
BLACK
6
CONTINUOUS
10
178.2071430000000021
20
-159.2211849999999913
11
177.3499999999999943
21
-160.0783279999999991
0
LINE
8
BLACK
6
CONTINUOUS
10
177.3499999999999943
20
-160.0783279999999991
11
178.2785719999999969
21
-160.0783279999999991
0
LINE
8
BLACK
6
CONTINUOUS
10
180.0642849999999839
20
-160.0783279999999991
11
180.0642849999999839
21
-159.0783279999999991
0
LINE
8
BLACK
6
CONTINUOUS
10
180.0642849999999839
20
-159.2211849999999913
11
180.1357139999999788
21
-159.1497569999999939
0
LINE
8
BLACK
6
CONTINUOUS
10
180.1357139999999788
20
-159.1497569999999939
11
180.2785709999999995
21
-159.0783279999999991
0
LINE
8
BLACK
6
CONTINUOUS
10
180.2785709999999995
20
-159.0783279999999991
11
180.4928569999999866
21
-159.0783279999999991
0
LINE
8
BLACK
6
CONTINUOUS
10
180.4928569999999866
20
-159.0783279999999991
11
180.6357139999999788
21
-159.1497569999999939
0
LINE
8
BLACK
6
CONTINUOUS
10
180.6357139999999788
20
-159.1497569999999939
11
180.7071430000000021
21
-159.2926139999999862
0
LINE
8
BLACK
6
CONTINUOUS
10
180.7071430000000021
20
-159.2926139999999862
11
180.7071430000000021
21
-160.0783279999999991
0
LINE
8
BLACK
6
CONTINUOUS
10
180.7071430000000021
20
-159.2926139999999862
11
180.7785709999999995
21
-159.1497569999999939
0
LINE
8
BLACK
6
CONTINUOUS
10
180.7785709999999995
20
-159.1497569999999939
11
180.9214279999999917
21
-159.0783279999999991
0
LINE
8
BLACK
6
CONTINUOUS
10
180.9214279999999917
20
-159.0783279999999991
11
181.1357139999999788
21
-159.0783279999999991
0
LINE
8
BLACK
6
CONTINUOUS
10
181.1357139999999788
20
-159.0783279999999991
11
181.2785709999999995
21
-159.1497569999999939
0
LINE
8
BLACK
6
CONTINUOUS
10
181.2785709999999995
20
-159.1497569999999939
11
181.3499999999999943
21
-159.2926139999999862
0
LINE
8
BLACK
6
CONTINUOUS
10
181.3499999999999943
20
-159.2926139999999862
11
181.3499999999999943
21
-160.0783279999999991
0
LINE
8
BLACK
6
CONTINUOUS
10
182.0642849999999839
20
-160.0783279999999991
11
182.0642849999999839
21
-159.0783279999999991
0
LINE
8
BLACK
6
CONTINUOUS
10
182.0642849999999839
20
-159.2211849999999913
11
182.1357139999999788
21
-159.1497569999999939
0
LINE
8
BLACK
6
CONTINUOUS
10
182.1357139999999788
20
-159.1497569999999939
11
182.2785709999999995
21
-159.0783279999999991
0
LINE
8
BLACK
6
CONTINUOUS
10
182.2785709999999995
20
-159.0783279999999991
11
182.4928569999999866
21
-159.0783279999999991
0
LINE
8
BLACK
6
CONTINUOUS
10
182.4928569999999866
20
-159.0783279999999991
11
182.6357139999999788
21
-159.1497569999999939
0
LINE
8
BLACK
6
CONTINUOUS
10
182.6357139999999788
20
-159.1497569999999939
11
182.7071430000000021
21
-159.2926139999999862
0
LINE
8
BLACK
6
CONTINUOUS
10
182.7071430000000021
20
-159.2926139999999862
11
182.7071430000000021
21
-160.0783279999999991
0
LINE
8
BLACK
6
CONTINUOUS
10
182.7071430000000021
20
-159.2926139999999862
11
182.7785709999999995
21
-159.1497569999999939
0
LINE
8
BLACK
6
CONTINUOUS
10
182.7785709999999995
20
-159.1497569999999939
11
182.9214279999999917
21
-159.0783279999999991
0
LINE
8
BLACK
6
CONTINUOUS
10
182.9214279999999917
20
-159.0783279999999991
11
183.1357139999999788
21
-159.0783279999999991
0
LINE
8
BLACK
6
CONTINUOUS
10
183.1357139999999788
20
-159.0783279999999991
11
183.2785709999999995
21
-159.1497569999999939
0
LINE
8
BLACK
6
CONTINUOUS
10
183.2785709999999995
20
-159.1497569999999939
11
183.3499999999999943
21
-159.2926139999999862
0
LINE
8
BLACK
6
CONTINUOUS
10
183.3499999999999943
20
-159.2926139999999862
11
183.3499999999999943
21
-160.0783279999999991
0
LINE
8
BLACK
6
CONTINUOUS
10
170.2999999999999829
20
-154.9000000000000057
11
170.2999999999999829
21
-159.9864199999999812
0
LINE
8
BLACK
6
CONTINUOUS
10
173.5
20
-154.9000000000000057
11
173.5
21
-159.9864199999999812
0
LINE
8
BLACK
6
CONTINUOUS
10
170.2999999999999829
20
-159.4000000000000057
11
173.5
21
-159.4000000000000057
0
LINE
8
BLACK
6
CONTINUOUS
10
170.2999999999999829
20
-159.4000000000000057
11
173.5
21
-159.4000000000000057
0
LINE
8
BLACK
6
CONTINUOUS
10
170.2999999999999829
20
-159.4000000000000057
11
171.4265039999999942
21
-158.8135790000000043
0
LINE
8
BLACK
6
CONTINUOUS
10
170.2999999999999829
20
-159.4000000000000057
11
171.4265039999999942
21
-159.9864209999999787
0
LINE
8
BLACK
6
CONTINUOUS
10
173.5
20
-159.4000000000000057
11
172.3734959999999887
21
-159.9864209999999787
0
LINE
8
BLACK
6
CONTINUOUS
10
173.5
20
-159.4000000000000057
11
172.3734959999999887
21
-158.8135790000000043
0
LINE
8
BLACK
6
CONTINUOUS
10
165.5211850000000027
20
-146.1142839999999978
11
165.4497570000000053
21
-146.0428560000000004
0
LINE
8
BLACK
6
CONTINUOUS
10
165.4497570000000053
20
-146.0428560000000004
11
165.378327999999982
21
-145.8999989999999798
0
LINE
8
BLACK
6
CONTINUOUS
10
165.378327999999982
20
-145.8999989999999798
11
165.378327999999982
21
-145.5428560000000004
0
LINE
8
BLACK
6
CONTINUOUS
10
165.378327999999982
20
-145.5428560000000004
11
165.4497570000000053
21
-145.3999989999999798
0
LINE
8
BLACK
6
CONTINUOUS
10
165.4497570000000053
20
-145.3999989999999798
11
165.5211850000000027
21
-145.3285699999999849
0
LINE
8
BLACK
6
CONTINUOUS
10
165.5211850000000027
20
-145.3285699999999849
11
165.6640419999999949
21
-145.2571409999999901
0
LINE
8
BLACK
6
CONTINUOUS
10
165.6640419999999949
20
-145.2571409999999901
11
165.8068999999999846
21
-145.2571409999999901
0
LINE
8
BLACK
6
CONTINUOUS
10
165.8068999999999846
20
-145.2571409999999901
11
166.0211850000000027
21
-145.3285699999999849
0
LINE
8
BLACK
6
CONTINUOUS
10
166.0211850000000027
20
-145.3285699999999849
11
166.878327999999982
21
-146.1857129999999927
0
LINE
8
BLACK
6
CONTINUOUS
10
166.878327999999982
20
-146.1857129999999927
11
166.878327999999982
21
-145.2571409999999901
0
LINE
8
BLACK
6
CONTINUOUS
10
165.878327999999982
20
-143.9714280000000031
11
166.878327999999982
21
-143.9714280000000031
0
LINE
8
BLACK
6
CONTINUOUS
10
165.3068999999999846
20
-144.3285699999999849
11
166.378327999999982
21
-144.6857129999999927
0
LINE
8
BLACK
6
CONTINUOUS
10
166.378327999999982
20
-144.6857129999999927
11
166.378327999999982
21
-143.7571419999999875
0
LINE
8
BLACK
6
CONTINUOUS
10
166.878327999999982
20
-142.0428569999999979
11
165.878327999999982
21
-142.0428569999999979
0
LINE
8
BLACK
6
CONTINUOUS
10
166.0211850000000027
20
-142.0428569999999979
11
165.9497570000000053
21
-141.9714280000000031
0
LINE
8
BLACK
6
CONTINUOUS
10
165.9497570000000053
20
-141.9714280000000031
11
165.878327999999982
21
-141.8285709999999824
0
LINE
8
BLACK
6
CONTINUOUS
10
165.878327999999982
20
-141.8285709999999824
11
165.878327999999982
21
-141.6142849999999953
0
LINE
8
BLACK
6
CONTINUOUS
10
165.878327999999982
20
-141.6142849999999953
11
165.9497570000000053
21
-141.4714280000000031
0
LINE
8
BLACK
6
CONTINUOUS
10
165.9497570000000053
20
-141.4714280000000031
11
166.0926139999999975
21
-141.4000000000000057
0
LINE
8
BLACK
6
CONTINUOUS
10
166.0926139999999975
20
-141.4000000000000057
11
166.878327999999982
21
-141.4000000000000057
0
LINE
8
BLACK
6
CONTINUOUS
10
166.0926139999999975
20
-141.4000000000000057
11
165.9497570000000053
21
-141.3285709999999824
0
LINE
8
BLACK
6
CONTINUOUS
10
165.9497570000000053
20
-141.3285709999999824
11
165.878327999999982
21
-141.1857139999999902
0
LINE
8
BLACK
6
CONTINUOUS
10
165.878327999999982
20
-141.1857139999999902
11
165.878327999999982
21
-140.9714280000000031
0
LINE
8
BLACK
6
CONTINUOUS
10
165.878327999999982
20
-140.9714280000000031
11
165.9497570000000053
21
-140.8285709999999824
0
LINE
8
BLACK
6
CONTINUOUS
10
165.9497570000000053
20
-140.8285709999999824
11
166.0926139999999975
21
-140.7571419999999875
0
LINE
8
BLACK
6
CONTINUOUS
10
166.0926139999999975
20
-140.7571419999999875
11
166.878327999999982
21
-140.7571419999999875
0
LINE
8
BLACK
6
CONTINUOUS
10
166.878327999999982
20
-140.0428569999999979
11
165.878327999999982
21
-140.0428569999999979
0
LINE
8
BLACK
6
CONTINUOUS
10
166.0211850000000027
20
-140.0428569999999979
11
165.9497570000000053
21
-139.9714280000000031
0
LINE
8
BLACK
6
CONTINUOUS
10
165.9497570000000053
20
-139.9714280000000031
11
165.878327999999982
21
-139.8285709999999824
0
LINE
8
BLACK
6
CONTINUOUS
10
165.878327999999982
20
-139.8285709999999824
11
165.878327999999982
21
-139.6142849999999953
0
LINE
8
BLACK
6
CONTINUOUS
10
165.878327999999982
20
-139.6142849999999953
11
165.9497570000000053
21
-139.4714280000000031
0
LINE
8
BLACK
6
CONTINUOUS
10
165.9497570000000053
20
-139.4714280000000031
11
166.0926139999999975
21
-139.4000000000000057
0
LINE
8
BLACK
6
CONTINUOUS
10
166.0926139999999975
20
-139.4000000000000057
11
166.878327999999982
21
-139.4000000000000057
0
LINE
8
BLACK
6
CONTINUOUS
10
166.0926139999999975
20
-139.4000000000000057
11
165.9497570000000053
21
-139.3285709999999824
0
LINE
8
BLACK
6
CONTINUOUS
10
165.9497570000000053
20
-139.3285709999999824
11
165.878327999999982
21
-139.1857139999999902
0
LINE
8
BLACK
6
CONTINUOUS
10
165.878327999999982
20
-139.1857139999999902
11
165.878327999999982
21
-138.9714280000000031
0
LINE
8
BLACK
6
CONTINUOUS
10
165.878327999999982
20
-138.9714280000000031
11
165.9497570000000053
21
-138.8285709999999824
0
LINE
8
BLACK
6
CONTINUOUS
10
165.9497570000000053
20
-138.8285709999999824
11
166.0926139999999975
21
-138.7571419999999875
0
LINE
8
BLACK
6
CONTINUOUS
10
166.0926139999999975
20
-138.7571419999999875
11
166.878327999999982
21
-138.7571419999999875
0
LINE
8
BLACK
6
CONTINUOUS
10
173.
20
-130.4000000000000057
11
165.6135799999999847
21
-130.4000000000000057
0
LINE
8
BLACK
6
CONTINUOUS
10
173.
20
-154.4000000000000057
11
165.6135799999999847
21
-154.4000000000000057
0
LINE
8
BLACK
6
CONTINUOUS
10
166.1999999999999886
20
-130.4000000000000057
11
166.1999999999999886
21
-137.3499999999999943
0
LINE
8
BLACK
6
CONTINUOUS
10
166.1999999999999886
20
-147.4499989999999912
11
166.1999999999999886
21
-154.4000000000000057
0
LINE
8
BLACK
6
CONTINUOUS
10
166.1999999999999886
20
-130.4000000000000057
11
166.78642099999999
21
-131.5265039999999885
0
LINE
8
BLACK
6
CONTINUOUS
10
166.1999999999999886
20
-130.4000000000000057
11
165.6135789999999872
21
-131.5265039999999885
0
LINE
8
BLACK
6
CONTINUOUS
10
166.1999999999999886
20
-154.4000000000000057
11
165.6135789999999872
21
-153.2734959999999944
0
LINE
8
BLACK
6
CONTINUOUS
10
166.1999999999999886
20
-154.4000000000000057
11
166.78642099999999
21
-153.2734959999999944
0
LINE
8
BLACK
6
CONTINUOUS
10
177.7928579999999954
20
-124.3783279999999962
11
177.7928579999999954
21
-125.3783279999999962
0
LINE
8
BLACK
6
CONTINUOUS
10
177.4357149999999876
20
-123.8068999999999988
11
177.0785719999999799
21
-124.8783279999999962
0
LINE
8
BLACK
6
CONTINUOUS
10
177.0785719999999799
20
-124.8783279999999962
11
178.007142999999985
21
-124.8783279999999962
0
LINE
8
BLACK
6
CONTINUOUS
10
178.5785709999999824
20
-125.2354709999999898
11
178.6500000000000057
21
-125.3068999999999988
0
LINE
8
BLACK
6
CONTINUOUS
10
178.6500000000000057
20
-125.3068999999999988
11
178.5785709999999824
21
-125.3783279999999962
0
LINE
8
BLACK
6
CONTINUOUS
10
178.5785709999999824
20
-125.3783279999999962
11
178.507142999999985
21
-125.3068999999999988
0
LINE
8
BLACK
6
CONTINUOUS
10
178.507142999999985
20
-125.3068999999999988
11
178.5785709999999824
21
-125.2354709999999898
0
LINE
8
BLACK
6
CONTINUOUS
10
178.5785709999999824
20
-125.2354709999999898
11
178.5785709999999824
21
-125.3783279999999962
0
LINE
8
BLACK
6
CONTINUOUS
10
179.1500000000000057
20
-123.8783279999999962
11
180.1500000000000057
21
-123.8783279999999962
0
LINE
8
BLACK
6
CONTINUOUS
10
180.1500000000000057
20
-123.8783279999999962
11
179.507142999999985
21
-125.3783279999999962
0
LINE
8
BLACK
6
CONTINUOUS
10
181.8642849999999953
20
-125.3783279999999962
11
181.8642849999999953
21
-124.3783279999999962
0
LINE
8
BLACK
6
CONTINUOUS
10
181.8642849999999953
20
-124.5211849999999885
11
181.9357139999999902
21
-124.4497569999999911
0
LINE
8
BLACK
6
CONTINUOUS
10
181.9357139999999902
20
-124.4497569999999911
11
182.0785709999999824
21
-124.3783279999999962
0
LINE
8
BLACK
6
CONTINUOUS
10
182.0785709999999824
20
-124.3783279999999962
11
182.2928569999999979
21
-124.3783279999999962
0
LINE
8
BLACK
6
CONTINUOUS
10
182.2928569999999979
20
-124.3783279999999962
11
182.4357139999999902
21
-124.4497569999999911
0
LINE
8
BLACK
6
CONTINUOUS
10
182.4357139999999902
20
-124.4497569999999911
11
182.507142999999985
21
-124.5926139999999975
0
LINE
8
BLACK
6
CONTINUOUS
10
182.507142999999985
20
-124.5926139999999975
11
182.507142999999985
21
-125.3783279999999962
0
LINE
8
BLACK
6
CONTINUOUS
10
182.507142999999985
20
-124.5926139999999975
11
182.5785709999999824
21
-124.4497569999999911
0
LINE
8
BLACK
6
CONTINUOUS
10
182.5785709999999824
20
-124.4497569999999911
11
182.7214280000000031
21
-124.3783279999999962
0
LINE
8
BLACK
6
CONTINUOUS
10
182.7214280000000031
20
-124.3783279999999962
11
182.9357139999999902
21
-124.3783279999999962
0
LINE
8
BLACK
6
CONTINUOUS
10
182.9357139999999902
20
-124.3783279999999962
11
183.0785709999999824
21
-124.4497569999999911
0
LINE
8
BLACK
6
CONTINUOUS
10
183.0785709999999824
20
-124.4497569999999911
11
183.1500000000000057
21
-124.5926139999999975
0
LINE
8
BLACK
6
CONTINUOUS
10
183.1500000000000057
20
-124.5926139999999975
11
183.1500000000000057
21
-125.3783279999999962
0
LINE
8
BLACK
6
CONTINUOUS
10
183.8642849999999953
20
-125.3783279999999962
11
183.8642849999999953
21
-124.3783279999999962
0
LINE
8
BLACK
6
CONTINUOUS
10
183.8642849999999953
20
-124.5211849999999885
11
183.9357139999999902
21
-124.4497569999999911
0
LINE
8
BLACK
6
CONTINUOUS
10
183.9357139999999902
20
-124.4497569999999911
11
184.0785709999999824
21
-124.3783279999999962
0
LINE
8
BLACK
6
CONTINUOUS
10
184.0785709999999824
20
-124.3783279999999962
11
184.2928569999999979
21
-124.3783279999999962
0
LINE
8
BLACK
6
CONTINUOUS
10
184.2928569999999979
20
-124.3783279999999962
11
184.4357139999999902
21
-124.4497569999999911
0
LINE
8
BLACK
6
CONTINUOUS
10
184.4357139999999902
20
-124.4497569999999911
11
184.507142999999985
21
-124.5926139999999975
0
LINE
8
BLACK
6
CONTINUOUS
10
184.507142999999985
20
-124.5926139999999975
11
184.507142999999985
21
-125.3783279999999962
0
LINE
8
BLACK
6
CONTINUOUS
10
184.507142999999985
20
-124.5926139999999975
11
184.5785709999999824
21
-124.4497569999999911
0
LINE
8
BLACK
6
CONTINUOUS
10
184.5785709999999824
20
-124.4497569999999911
11
184.7214280000000031
21
-124.3783279999999962
0
LINE
8
BLACK
6
CONTINUOUS
10
184.7214280000000031
20
-124.3783279999999962
11
184.9357139999999902
21
-124.3783279999999962
0
LINE
8
BLACK
6
CONTINUOUS
10
184.9357139999999902
20
-124.3783279999999962
11
185.0785709999999824
21
-124.4497569999999911
0
LINE
8
BLACK
6
CONTINUOUS
10
185.0785709999999824
20
-124.4497569999999911
11
185.1500000000000057
21
-124.5926139999999975
0
LINE
8
BLACK
6
CONTINUOUS
10
185.1500000000000057
20
-124.5926139999999975
11
185.1500000000000057
21
-125.3783279999999962
0
LINE
8
BLACK
6
CONTINUOUS
10
171.1500000000000057
20
-129.9000000000000057
11
171.1500000000000057
21
-124.1135799999999989
0
LINE
8
BLACK
6
CONTINUOUS
10
175.8499999999999943
20
-129.9000000000000057
11
175.8499999999999943
21
-124.1135799999999989
0
LINE
8
BLACK
6
CONTINUOUS
10
171.1500000000000057
20
-124.6999999999999886
11
175.742857999999984
21
-124.6999999999999886
0
LINE
8
BLACK
6
CONTINUOUS
10
171.1500000000000057
20
-124.6999999999999886
11
172.2765039999999885
21
-124.1135790000000014
0
LINE
8
BLACK
6
CONTINUOUS
10
171.1500000000000057
20
-124.6999999999999886
11
172.2765039999999885
21
-125.28642099999999
0
LINE
8
BLACK
6
CONTINUOUS
10
175.8499999999999943
20
-124.6999999999999886
11
174.723495999999983
21
-125.28642099999999
0
LINE
8
BLACK
6
CONTINUOUS
10
175.8499999999999943
20
-124.6999999999999886
11
174.723495999999983
21
-124.1135790000000014
0
LINE
8
BLACK
6
CONTINUOUS
10
162.2783279999999877
20
-147.2571419999999875
11
162.2783279999999877
21
-146.3285699999999849
0
LINE
8
BLACK
6
CONTINUOUS
10
162.2783279999999877
20
-146.3285699999999849
11
162.8497569999999826
21
-146.8285699999999849
0
LINE
8
BLACK
6
CONTINUOUS
10
162.8497569999999826
20
-146.8285699999999849
11
162.8497569999999826
21
-146.6142849999999953
0
LINE
8
BLACK
6
CONTINUOUS
10
162.8497569999999826
20
-146.6142849999999953
11
162.9211849999999799
21
-146.4714280000000031
0
LINE
8
BLACK
6
CONTINUOUS
10
162.9211849999999799
20
-146.4714280000000031
11
162.9926140000000032
21
-146.3999989999999798
0
LINE
8
BLACK
6
CONTINUOUS
10
162.9926140000000032
20
-146.3999989999999798
11
163.1354709999999955
21
-146.3285699999999849
0
LINE
8
BLACK
6
CONTINUOUS
10
163.1354709999999955
20
-146.3285699999999849
11
163.4926140000000032
21
-146.3285699999999849
0
LINE
8
BLACK
6
CONTINUOUS
10
163.4926140000000032
20
-146.3285699999999849
11
163.6354709999999955
21
-146.3999989999999798
0
LINE
8
BLACK
6
CONTINUOUS
10
163.6354709999999955
20
-146.3999989999999798
11
163.7068999999999903
21
-146.4714280000000031
0
LINE
8
BLACK
6
CONTINUOUS
10
163.7068999999999903
20
-146.4714280000000031
11
163.7783279999999877
21
-146.6142849999999953
0
LINE
8
BLACK
6
CONTINUOUS
10
163.7783279999999877
20
-146.6142849999999953
11
163.7783279999999877
21
-147.0428560000000004
0
LINE
8
BLACK
6
CONTINUOUS
10
163.7783279999999877
20
-147.0428560000000004
11
163.7068999999999903
21
-147.1857129999999927
0
LINE
8
BLACK
6
CONTINUOUS
10
163.7068999999999903
20
-147.1857129999999927
11
163.6354709999999955
21
-147.2571419999999875
0
LINE
8
BLACK
6
CONTINUOUS
10
162.2783279999999877
20
-145.3999989999999798
11
162.2783279999999877
21
-145.2571419999999875
0
LINE
8
BLACK
6
CONTINUOUS
10
162.2783279999999877
20
-145.2571419999999875
11
162.3497569999999826
21
-145.1142849999999953
0
LINE
8
BLACK
6
CONTINUOUS
10
162.3497569999999826
20
-145.1142849999999953
11
162.4211849999999799
21
-145.0428569999999979
0
LINE
8
BLACK
6
CONTINUOUS
10
162.4211849999999799
20
-145.0428569999999979
11
162.5640420000000006
21
-144.9714280000000031
0
LINE
8
BLACK
6
CONTINUOUS
10
162.5640420000000006
20
-144.9714280000000031
11
162.8497569999999826
21
-144.8999989999999798
0
LINE
8
BLACK
6
CONTINUOUS
10
162.8497569999999826
20
-144.8999989999999798
11
163.2068999999999903
21
-144.8999989999999798
0
LINE
8
BLACK
6
CONTINUOUS
10
163.2068999999999903
20
-144.8999989999999798
11
163.4926140000000032
21
-144.9714280000000031
0
LINE
8
BLACK
6
CONTINUOUS
10
163.4926140000000032
20
-144.9714280000000031
11
163.6354709999999955
21
-145.0428569999999979
0
LINE
8
BLACK
6
CONTINUOUS
10
163.6354709999999955
20
-145.0428569999999979
11
163.7068999999999903
21
-145.1142849999999953
0
LINE
8
BLACK
6
CONTINUOUS
10
163.7068999999999903
20
-145.1142849999999953
11
163.7783279999999877
21
-145.2571419999999875
0
LINE
8
BLACK
6
CONTINUOUS
10
163.7783279999999877
20
-145.2571419999999875
11
163.7783279999999877
21
-145.3999989999999798
0
LINE
8
BLACK
6
CONTINUOUS
10
163.7783279999999877
20
-145.3999989999999798
11
163.7068999999999903
21
-145.5428569999999979
0
LINE
8
BLACK
6
CONTINUOUS
10
163.7068999999999903
20
-145.5428569999999979
11
163.6354709999999955
21
-145.6142849999999953
0
LINE
8
BLACK
6
CONTINUOUS
10
163.6354709999999955
20
-145.6142849999999953
11
163.4926140000000032
21
-145.6857139999999902
0
LINE
8
BLACK
6
CONTINUOUS
10
163.4926140000000032
20
-145.6857139999999902
11
163.2068999999999903
21
-145.7571419999999875
0
LINE
8
BLACK
6
CONTINUOUS
10
163.2068999999999903
20
-145.7571419999999875
11
162.8497569999999826
21
-145.7571419999999875
0
LINE
8
BLACK
6
CONTINUOUS
10
162.8497569999999826
20
-145.7571419999999875
11
162.5640420000000006
21
-145.6857139999999902
0
LINE
8
BLACK
6
CONTINUOUS
10
162.5640420000000006
20
-145.6857139999999902
11
162.4211849999999799
21
-145.6142849999999953
0
LINE
8
BLACK
6
CONTINUOUS
10
162.4211849999999799
20
-145.6142849999999953
11
162.3497569999999826
21
-145.5428569999999979
0
LINE
8
BLACK
6
CONTINUOUS
10
162.3497569999999826
20
-145.5428569999999979
11
162.2783279999999877
21
-145.3999989999999798
0
LINE
8
BLACK
6
CONTINUOUS
10
163.6354709999999955
20
-144.257142999999985
11
163.7068999999999903
21
-144.1857139999999902
0
LINE
8
BLACK
6
CONTINUOUS
10
163.7068999999999903
20
-144.1857139999999902
11
163.7783279999999877
21
-144.257142999999985
0
LINE
8
BLACK
6
CONTINUOUS
10
163.7783279999999877
20
-144.257142999999985
11
163.7068999999999903
21
-144.3285709999999824
0
LINE
8
BLACK
6
CONTINUOUS
10
163.7068999999999903
20
-144.3285709999999824
11
163.6354709999999955
21
-144.257142999999985
0
LINE
8
BLACK
6
CONTINUOUS
10
163.6354709999999955
20
-144.257142999999985
11
163.7783279999999877
21
-144.257142999999985
0
LINE
8
BLACK
6
CONTINUOUS
10
162.7783279999999877
20
-142.9000000000000057
11
163.7783279999999877
21
-142.9000000000000057
0
LINE
8
BLACK
6
CONTINUOUS
10
162.2068999999999903
20
-143.2571419999999875
11
163.2783279999999877
21
-143.6142849999999953
0
LINE
8
BLACK
6
CONTINUOUS
10
163.2783279999999877
20
-143.6142849999999953
11
163.2783279999999877
21
-142.6857139999999902
0
LINE
8
BLACK
6
CONTINUOUS
10
163.7783279999999877
20
-140.9714290000000005
11
162.7783279999999877
21
-140.9714290000000005
0
LINE
8
BLACK
6
CONTINUOUS
10
162.9211849999999799
20
-140.9714290000000005
11
162.8497569999999826
21
-140.9000000000000057
0
LINE
8
BLACK
6
CONTINUOUS
10
162.8497569999999826
20
-140.9000000000000057
11
162.7783279999999877
21
-140.757142999999985
0
LINE
8
BLACK
6
CONTINUOUS
10
162.7783279999999877
20
-140.757142999999985
11
162.7783279999999877
21
-140.5428569999999979
0
LINE
8
BLACK
6
CONTINUOUS
10
162.7783279999999877
20
-140.5428569999999979
11
162.8497569999999826
21
-140.4000000000000057
0
LINE
8
BLACK
6
CONTINUOUS
10
162.8497569999999826
20
-140.4000000000000057
11
162.9926140000000032
21
-140.3285719999999799
0
LINE
8
BLACK
6
CONTINUOUS
10
162.9926140000000032
20
-140.3285719999999799
11
163.7783279999999877
21
-140.3285719999999799
0
LINE
8
BLACK
6
CONTINUOUS
10
162.9926140000000032
20
-140.3285719999999799
11
162.8497569999999826
21
-140.257142999999985
0
LINE
8
BLACK
6
CONTINUOUS
10
162.8497569999999826
20
-140.257142999999985
11
162.7783279999999877
21
-140.1142859999999928
0
LINE
8
BLACK
6
CONTINUOUS
10
162.7783279999999877
20
-140.1142859999999928
11
162.7783279999999877
21
-139.9000000000000057
0
LINE
8
BLACK
6
CONTINUOUS
10
162.7783279999999877
20
-139.9000000000000057
11
162.8497569999999826
21
-139.757142999999985
0
LINE
8
BLACK
6
CONTINUOUS
10
162.8497569999999826
20
-139.757142999999985
11
162.9926140000000032
21
-139.6857139999999902
0
LINE
8
BLACK
6
CONTINUOUS
10
162.9926140000000032
20
-139.6857139999999902
11
163.7783279999999877
21
-139.6857139999999902
0
LINE
8
BLACK
6
CONTINUOUS
10
163.7783279999999877
20
-138.9714290000000005
11
162.7783279999999877
21
-138.9714290000000005
0
LINE
8
BLACK
6
CONTINUOUS
10
162.9211849999999799
20
-138.9714290000000005
11
162.8497569999999826
21
-138.9000000000000057
0
LINE
8
BLACK
6
CONTINUOUS
10
162.8497569999999826
20
-138.9000000000000057
11
162.7783279999999877
21
-138.757142999999985
0
LINE
8
BLACK
6
CONTINUOUS
10
162.7783279999999877
20
-138.757142999999985
11
162.7783279999999877
21
-138.5428569999999979
0
LINE
8
BLACK
6
CONTINUOUS
10
162.7783279999999877
20
-138.5428569999999979
11
162.8497569999999826
21
-138.4000000000000057
0
LINE
8
BLACK
6
CONTINUOUS
10
162.8497569999999826
20
-138.4000000000000057
11
162.9926140000000032
21
-138.3285719999999799
0
LINE
8
BLACK
6
CONTINUOUS
10
162.9926140000000032
20
-138.3285719999999799
11
163.7783279999999877
21
-138.3285719999999799
0
LINE
8
BLACK
6
CONTINUOUS
10
162.9926140000000032
20
-138.3285719999999799
11
162.8497569999999826
21
-138.257142999999985
0
LINE
8
BLACK
6
CONTINUOUS
10
162.8497569999999826
20
-138.257142999999985
11
162.7783279999999877
21
-138.1142859999999928
0
LINE
8
BLACK
6
CONTINUOUS
10
162.7783279999999877
20
-138.1142859999999928
11
162.7783279999999877
21
-137.9000000000000057
0
LINE
8
BLACK
6
CONTINUOUS
10
162.7783279999999877
20
-137.9000000000000057
11
162.8497569999999826
21
-137.757142999999985
0
LINE
8
BLACK
6
CONTINUOUS
10
162.8497569999999826
20
-137.757142999999985
11
162.9926140000000032
21
-137.6857139999999902
0
LINE
8
BLACK
6
CONTINUOUS
10
162.9926140000000032
20
-137.6857139999999902
11
163.7783279999999877
21
-137.6857139999999902
0
LINE
8
BLACK
6
CONTINUOUS
10
173.
20
-127.1999999999999886
11
162.5135799999999904
21
-127.1999999999999886
0
LINE
8
BLACK
6
CONTINUOUS
10
173.
20
-157.5999999999999943
11
162.5135799999999904
21
-157.5999999999999943
0
LINE
8
BLACK
6
CONTINUOUS
10
163.0999999999999943
20
-127.1999999999999886
11
163.0999999999999943
21
-136.2785719999999969
0
LINE
8
BLACK
6
CONTINUOUS
10
163.0999999999999943
20
-148.521427999999986
11
163.0999999999999943
21
-157.5999999999999943
0
LINE
8
BLACK
6
CONTINUOUS
10
163.0999999999999943
20
-127.1999999999999886
11
163.6864209999999957
21
-128.3265039999999999
0
LINE
8
BLACK
6
CONTINUOUS
10
163.0999999999999943
20
-127.1999999999999886
11
162.5135789999999929
21
-128.3265039999999999
0
LINE
8
BLACK
6
CONTINUOUS
10
163.0999999999999943
20
-157.5999999999999943
11
162.5135789999999929
21
-156.473495999999983
0
LINE
8
BLACK
6
CONTINUOUS
10
163.0999999999999943
20
-157.5999999999999943
11
163.6864209999999957
21
-156.473495999999983
0
CIRCLE
8
BLACK
10
196.8999999999999773
20
-142.4000000000000057
40
11.5
0
LINE
8
BLACK
6
CONTINUOUS
10
181.7999999999999829
20
-144.0499999999999829
11
181.7999999999999829
21
-143.3499999999999943
0
LINE
8
BLACK
6
CONTINUOUS
10
183.
20
-143.3499999999999943
11
183.
21
-144.0499999999999829
0
LINE
8
BLACK
6
CONTINUOUS
10
177.0999999999999943
20
-134.25
11
177.0999999999999943
21
-133.5499999999999829
0
LINE
8
BLACK
6
CONTINUOUS
10
178.2999999999999829
20
-133.5499999999999829
11
178.2999999999999829
21
-134.25
0
LINE
8
BLACK
6
CONTINUOUS
10
183.75
20
-136.6999999999999886
11
184.4499999999999886
21
-136.6999999999999886
0
LINE
8
BLACK
6
CONTINUOUS
10
184.4499999999999886
20
-137.9000000000000057
11
183.75
21
-137.9000000000000057
0
LINE
8
BLACK
6
CONTINUOUS
10
183.75
20
-138.
11
184.4499999999999886
21
-138.
0
LINE
8
BLACK
6
CONTINUOUS
10
184.4499999999999886
20
-139.1999999999999886
11
183.75
21
-139.1999999999999886
0
LINE
8
BLACK
6
CONTINUOUS
10
183.9499999999999886
20
-129.1999999999999886
11
184.25
21
-129.4000000000000057
0
LINE
8
BLACK
6
CONTINUOUS
10
183.9499999999999886
20
-129.5999999999999943
11
183.9499999999999886
21
-129.1999999999999886
0
LINE
8
BLACK
6
CONTINUOUS
10
184.25
20
-129.4000000000000057
11
183.9499999999999886
21
-129.5999999999999943
0
LINE
8
BLACK
6
CONTINUOUS
10
184.2999999999999829
20
-129.5999999999999943
11
184.2999999999999829
21
-129.1999999999999886
0
LINE
8
BLACK
6
CONTINUOUS
10
185.4000000000000057
20
-128.9000000000000057
11
183.2999999999999829
21
-128.9000000000000057
0
LINE
8
BLACK
6
CONTINUOUS
10
185.4000000000000057
20
-129.9000000000000057
11
183.2999999999999829
21
-129.9000000000000057
0
LINE
8
BLACK
6
CONTINUOUS
10
185.4000000000000057
20
-129.9000000000000057
11
185.4000000000000057
21
-128.9000000000000057
0
LINE
8
BLACK
6
CONTINUOUS
10
170.4000000000000057
20
-145.5999999999999943
11
170.4000000000000057
21
-139.1999999999999886
0
LINE
8
BLACK
6
CONTINUOUS
10
174.5
20
-137.4000000000000057
11
178.0999999999999943
21
-137.4000000000000057
0
LINE
8
BLACK
6
CONTINUOUS
10
174.5
20
-147.4000000000000057
11
178.0999999999999943
21
-147.4000000000000057
0
LINE
8
BLACK
6
CONTINUOUS
10
178.0999999999999943
20
-137.4000000000000057
11
178.0999999999999943
21
-139.5999999999999943
0
LINE
8
BLACK
6
CONTINUOUS
10
178.0999999999999943
20
-147.4000000000000057
11
178.0999999999999943
21
-145.1999999999999886
0
LINE
8
BLACK
6
CONTINUOUS
10
181.7999999999999829
20
-139.7999999999999829
11
183.
21
-139.7999999999999829
0
LINE
8
BLACK
6
CONTINUOUS
10
181.7999999999999829
20
-142.
11
181.7999999999999829
21
-139.7999999999999829
0
LINE
8
BLACK
6
CONTINUOUS
10
181.7999999999999829
20
-142.
11
183.
21
-142.
0
LINE
8
BLACK
6
CONTINUOUS
10
183.
20
-139.7999999999999829
11
183.
21
-142.
0
LINE
8
BLACK
6
CONTINUOUS
10
180.0999999999999943
20
-128.7999999999999829
11
180.0999999999999943
21
-130.
0
LINE
8
BLACK
6
CONTINUOUS
10
180.0999999999999943
20
-128.7999999999999829
11
182.2999999999999829
21
-128.7999999999999829
0
LINE
8
BLACK
6
CONTINUOUS
10
182.2999999999999829
20
-128.7999999999999829
11
182.2999999999999829
21
-130.
0
LINE
8
BLACK
6
CONTINUOUS
10
182.2999999999999829
20
-130.
11
180.0999999999999943
21
-130.
0
LINE
8
BLACK
6
CONTINUOUS
10
178.7999999999999829
20
-131.5999999999999943
11
186.1999999999999886
21
-131.5999999999999943
0
LINE
8
BLACK
6
CONTINUOUS
10
178.7999999999999829
20
-136.4000000000000057
11
178.7999999999999829
21
-131.5999999999999943
0
LINE
8
BLACK
6
CONTINUOUS
10
186.1999999999999886
20
-131.5999999999999943
11
186.1999999999999886
21
-136.4000000000000057
0
LINE
8
BLACK
6
CONTINUOUS
10
186.1999999999999886
20
-136.4000000000000057
11
178.7999999999999829
21
-136.4000000000000057
0
CIRCLE
8
BLACK
10
179.7999999999999829
20
-131.1999999999999886
40
0.141421
0
LINE
8
BLACK
6
CONTINUOUS
10
177.1500000000000057
20
-147.75
11
186.6500000000000057
21
-147.75
0
LINE
8
BLACK
6
CONTINUOUS
10
177.1500000000000057
20
-157.4000000000000057
11
177.1500000000000057
21
-147.75
0
LINE
8
BLACK
6
CONTINUOUS
10
177.4000000000000057
20
-157.25
11
177.4000000000000057
21
-157.4000000000000057
0
LINE
8
BLACK
6
CONTINUOUS
10
177.4000000000000057
20
-157.4000000000000057
11
177.1500000000000057
21
-157.4000000000000057
0
LINE
8
BLACK
6
CONTINUOUS
10
186.4000000000000057
20
-157.25
11
177.4000000000000057
21
-157.25
0
LINE
8
BLACK
6
CONTINUOUS
10
186.4000000000000057
20
-157.25
11
186.4000000000000057
21
-157.4000000000000057
0
LINE
8
BLACK
6
CONTINUOUS
10
186.4000000000000057
20
-157.4000000000000057
11
186.6500000000000057
21
-157.4000000000000057
0
LINE
8
BLACK
6
CONTINUOUS
10
186.6500000000000057
20
-147.75
11
186.6500000000000057
21
-157.4000000000000057
0
LINE
8
BLACK
6
CONTINUOUS
10
205.5
20
-127.1999999999999886
11
173.5
21
-127.1999999999999886
0
LINE
8
BLACK
6
CONTINUOUS
10
170.2999999999999829
20
-130.4000000000000057
11
170.2999999999999829
21
-154.4000000000000057
0
LINE
8
BLACK
6
CONTINUOUS
10
208.6999999999999886
20
-154.4000000000000057
11
208.6999999999999886
21
-130.4000000000000057
0
LINE
8
BLACK
6
CONTINUOUS
10
173.5
20
-157.5999999999999943
11
205.5
21
-157.5999999999999943
0
ARC
8
BLACK
10
173.5
20
-130.4000000000000057
40
3.1999999999999997
50
90.00000000
51
180.00000000
0
ARC
8
BLACK
10
205.5
20
-154.4000000000000057
40
3.1999999999999997
50
-90.00000000
51
-0.00000000
0
ARC
8
BLACK
10
205.5
20
-130.4000000000000057
40
3.1999999999999997
50
0.00000000
51
90.00000000
0
ARC
8
BLACK
10
173.5
20
-154.4000000000000057
40
3.1999999999999997
50
-180.00000000
51
-90.00000000
  0
ENDSEC
  0
EOF
